<?xml version="1.0" encoding="utf-8"?>
<!-- Generator: Adobe Illustrator 22.1.0, SVG Export Plug-In . SVG Version: 6.00 Build 0)  -->
<svg version="1.1" id="Layer_1" xmlns="http://www.w3.org/2000/svg" xmlns:xlink="http://www.w3.org/1999/xlink" x="0px" y="0px"
	 viewBox="0 0 800 94" style="enable-background:new 0 0 800 94;" xml:space="preserve">
<g>
	<g>
		<path d="M217.9,0c-6.1,0-10.7,1.6-13.7,4.9c-2.9,3.5-4.3,8.1-4.4,15.5v5.7h-7.4c-2.3,0-4.2,1.9-4.2,4.2c0,2.4,1.9,4.3,4.2,4.3h7.4
			V89c0,2.3,1.9,4.2,4.3,4.2c2.3,0,4.2-1.9,4.2-4.2V34.6h7.9c2.4,0,4.3-1.9,4.3-4.3c0-2.3-1.9-4.2-4.3-4.2h-7.9v-5.7
			c0-6,1.3-8.7,2.4-9.9c1.2-1.4,3.5-2.1,7.3-2.1c2.3,0,4.2-1.9,4.2-4.2C222.1,1.9,220.2,0,217.9,0z"/>
		<path d="M244-0.1c-2.3,0-4.2,1.9-4.2,4.2v84.8c0,2.3,1.9,4.2,4.2,4.2c2.4,0,4.3-1.9,4.3-4.2V4C248.4,1.7,246.4-0.1,244-0.1z"/>
		<path d="M319.7,27c-2,0-4.2,1.7-4.2,4.2v34.7c0,10.4-8.2,18.6-18.7,18.7c-10.4-0.1-18.5-8.3-18.5-18.7V31.2c0-2.3-1.8-4.2-4.2-4.2
			s-4.2,1.8-4.2,4.2v34.7c0,14.9,12,27.1,26.8,27.1c15,0,27.2-12.1,27.2-27.1V31.2C324,28.8,322.2,27,319.7,27z"/>
		<path d="M402.6,29.8c0-1.1-0.5-2.1-1.3-2.8c-1.7-1.7-4.3-1.7-5.9,0l-35.9,35.8V4c0-2.3-1.9-4.2-4.3-4.2c-2.3,0-4.2,1.9-4.2,4.2
			v84.8c0,2.3,1.9,4.2,4.2,4.2c2.4,0,4.3-1.9,4.3-4.2V74.7l11.9-11.9L395,91.3c0.6,1.1,1.8,1.7,3.4,1.7c1.1,0,2-0.3,2.8-1
			c1.7-1.7,1.8-4.1,0.3-6l-24.1-29.3l23.9-23.9C402.2,32,402.7,30.9,402.6,29.8z"/>
		<path d="M448.1,27.2c-17.6,0-32,14.8-32,33c0,18.1,14.4,32.8,32,32.8c10.8,0,20.8-5.6,26.7-15c1.1-2,0.6-4.4-1.4-5.9
			c-1.8-1.1-4.5-0.5-5.6,1.4c-4.1,6.8-11.6,11.1-19.6,11.1c-12.3,0-22.5-9.7-23.6-22.4h51.2c2.3,0,4.2-1.7,4.2-3.9l0-0.6
			C478.5,40.3,464.8,27.2,448.1,27.2z M470.7,54.1h-45.7c2.7-11,12-18.6,23-18.6C459,35.5,468.3,43.3,470.7,54.1z"/>
		<path d="M531.7,27.2c-9,0-17.4,3.8-23.4,10.6V4c0-2.3-1.9-4.2-4.3-4.2c-2.3,0-4.2,1.9-4.2,4.2v84.8c0,2.3,1.9,4.2,4.2,4.2
			c2.4,0,4.3-1.9,4.3-4.2v-6.3c6,6.7,14.4,10.5,23.4,10.5c17.6,0,31.9-14.7,31.9-32.8C563.6,42,549.3,27.2,531.7,27.2z M531.7,84.5
			c-12.9,0-23.4-10.9-23.4-24.3v-1c0.5-13.2,10.8-23.6,23.4-23.6c12.9,0,23.4,11,23.4,24.6C555.1,73.6,544.6,84.5,531.7,84.5z"/>
		<path d="M613.9,27.2c-17.2,0-31.2,14.8-31.2,32.9c0,18.1,14,32.9,31.2,32.9c17.2,0,31.2-14.8,31.2-32.9
			C645.1,41.9,631.1,27.2,613.9,27.2z M613.9,84.7c-12.6,0-22.9-11-22.9-24.6c0-13.4,10.5-24.7,22.9-24.7
			c12.6,0,22.9,11.1,22.9,24.7C636.8,73.6,626.5,84.7,613.9,84.7z"/>
		<path d="M695.2,27.2c-17.2,0-31.2,14.8-31.2,32.9c0,18.1,14,32.9,31.2,32.9c17.2,0,31.2-14.8,31.2-32.9
			C726.4,41.9,712.4,27.2,695.2,27.2z M695.2,84.7c-12.6,0-22.9-11-22.9-24.6c0-13.4,10.5-24.7,22.9-24.7
			c12.6,0,22.9,11.1,22.9,24.7C718,73.6,707.8,84.7,695.2,84.7z"/>
		<path d="M774.6,56.8l23.9-23.9c0.9-0.9,1.3-2,1.3-3.1c0-1.1-0.5-2.1-1.3-2.8c-1.7-1.7-4.3-1.7-5.9,0l-35.9,35.8V4
			c0-2.3-1.9-4.2-4.3-4.2c-2.3,0-4.2,1.9-4.2,4.2v84.8c0,2.3,1.9,4.2,4.2,4.2c2.4,0,4.3-1.9,4.3-4.2V74.7l11.9-11.9l23.6,28.5
			c0.6,1.1,1.8,1.7,3.4,1.7c1.1,0,2-0.3,2.8-1c1.7-1.7,1.8-4.1,0.3-6L774.6,56.8z"/>
	</g>
	<path d="M97,92c-2.3,0-4.2-1.9-4.2-4.2c0-12.4,12.8-18.4,27.6-25.4c18.8-8.9,41.7-19.6,46.8-46.6c-9,4.7-22.6,5.1-35.8,5.4
		c-22.3,0.6-37.1,1.8-38.6,12.7c-0.3,2.1-2.1,3.6-4.2,3.6s-3.9-1.5-4.2-3.6c-1.6-10.9-16.3-12.1-38.6-12.7
		c-13.3-0.3-26.9-0.7-35.8-5.4c5.2,27,28,37.8,46.8,46.6c14.8,7,27.6,13,27.6,25.4c0,2.3-1.9,4.2-4.2,4.2c-2.3,0-4.2-1.9-4.2-4.2
		c0-6.7-8.7-11.2-22.8-17.8C30.9,59.4,0.5,45.1,0.5,3.9C0.5,1.8,2,0.1,4-0.3c2-0.3,4,0.9,4.6,2.8c3.1,9.3,20.5,9.7,37.3,10.2
		c16.4,0.4,34.4,0.9,42.6,10.4c8.1-9.5,26.2-10,42.6-10.4c16.8-0.4,34.2-0.9,37.3-10.2c0.7-2,2.6-3.1,4.6-2.8c2,0.3,3.5,2.1,3.5,4.1
		c0,41.2-30.5,55.6-52.7,66c-14.1,6.7-22.8,11.1-22.8,17.8C101.1,90.1,99.3,92,97,92z"/>
</g>
</svg>
