<?xml version="1.0" encoding="UTF-8" standalone="no"?>
<!-- Created with Inkscape (http://www.inkscape.org/) -->

<svg
   xmlns:dc="http://purl.org/dc/elements/1.1/"
   xmlns:cc="http://creativecommons.org/ns#"
   xmlns:rdf="http://www.w3.org/1999/02/22-rdf-syntax-ns#"
   xmlns:svg="http://www.w3.org/2000/svg"
   xmlns="http://www.w3.org/2000/svg"
   xmlns:sodipodi="http://sodipodi.sourceforge.net/DTD/sodipodi-0.dtd"
   xmlns:inkscape="http://www.inkscape.org/namespaces/inkscape"
   width="185.72398mm"
   height="21.542316mm"
   viewBox="0 0 658.07711 76.331042"
   id="svg2"
   version="1.1"
   inkscape:version="0.91 r13725"
   sodipodi:docname="flukebook-logo-2018.svg">
  <defs
     id="defs4" />
  <sodipodi:namedview
     id="base"
     pagecolor="#ffffff"
     bordercolor="#666666"
     borderopacity="1.0"
     inkscape:pageopacity="0.0"
     inkscape:pageshadow="2"
     inkscape:zoom="1.3289991"
     inkscape:cx="174.09848"
     inkscape:cy="101.31751"
     inkscape:document-units="px"
     inkscape:current-layer="layer1"
     showgrid="false"
     fit-margin-top="0"
     fit-margin-left="0"
     fit-margin-right="0"
     fit-margin-bottom="0"
     inkscape:window-width="1366"
     inkscape:window-height="715"
     inkscape:window-x="0"
     inkscape:window-y="0"
     inkscape:window-maximized="1" />
  <metadata
     id="metadata7">
    <rdf:RDF>
      <cc:Work
         rdf:about="">
        <dc:format>image/svg+xml</dc:format>
        <dc:type
           rdf:resource="http://purl.org/dc/dcmitype/StillImage" />
        <dc:title></dc:title>
      </cc:Work>
    </rdf:RDF>
  </metadata>
  <g
     inkscape:label="Layer 1"
     inkscape:groupmode="layer"
     id="layer1"
     transform="translate(-18.959212,-515.12596)">
    <g
       id="g4170"
       transform="translate(-5.4481899,106.31026)">
      <path
         style="fill-opacity:1"
         d="m 188.22337,484.7048 c -0.10121,-0.1375 -0.43871,-10.6 -0.75,-23.25 l -0.56597,-23 -3,-0.33849 c -3.8839,-0.43821 -5.5,-1.83831 -5.5,-4.7649 0,-2.31962 0.80382,-2.76695 6.5,-3.61731 1.64491,-0.24557 2.20241,-1.53172 3.14002,-7.2441 0.98354,-5.99213 1.63354,-7.3978 4.73532,-10.24036 2.92509,-2.68065 4.41405,-3.29484 7.98753,-3.29484 5.07805,0 7.68465,2.1076 5.97828,4.83382 -0.57358,0.9164 -2.19764,1.80497 -3.60902,1.97459 -1.41138,0.16963 -3.75425,1.40952 -5.20638,2.7553 -2.19202,2.0315 -2.58807,3.16747 -2.33299,6.69159 l 0.30724,4.2447 3.89789,0.5 c 7.4756,0.95893 7.4756,7.04107 0,8 l -3.89789,0.5 -0.26998,21.92161 c -0.17384,14.1152 -0.66257,22.39466 -1.37245,23.25 -0.9196,1.10806 -5.42746,1.91269 -6.0416,1.07839 z m 32.81168,-1.27795 c -0.34521,-0.89959 -0.62765,-17.51872 -0.62765,-36.93139 0,-38.0414 0.009,-38.10266 5.19496,-37.36742 l 2.30504,0.32676 0,37.5 0,37.5 -3.12235,0.30384 c -2.16641,0.21081 -3.31452,-0.19693 -3.75,-1.33179 z m 38.87235,0.37956 c -6.38261,-3.47077 -9.65606,-6.52377 -11.96689,-11.16101 -2.40735,-4.83092 -2.53311,-5.91398 -2.53311,-21.81552 0,-17.66808 0.54533,-19.87508 4.91091,-19.87508 3.23547,0 4.08909,4.40744 4.08909,21.11279 0,16.57444 0.44565,18.80536 4.39682,22.01045 8.13281,6.59713 20.11348,3.01196 23.46712,-7.02246 0.64454,-1.92855 1.14269,-9.93257 1.15137,-18.5 0.008,-8.30543 0.39682,-15.70265 0.86309,-16.43827 0.46628,-0.73562 1.92189,-1.18562 3.23469,-1 l 2.38691,0.33749 0.22883,19.5 0.22884,19.5 -2.76124,4 c -1.51868,2.2 -4.93502,5.4625 -7.59185,7.25 -4.26286,2.86803 -5.61066,3.24643 -11.46759,3.21959 -3.65035,-0.0167 -7.53699,-0.51981 -8.63699,-1.11798 z m 53.10699,-0.4334 c -0.33385,-0.86998 -0.60699,-17.25818 -0.60699,-36.41821 0,-19.16003 0.27314,-35.54823 0.60699,-36.41821 0.80046,-2.08597 5.98556,-2.08597 6.78602,0 0.33385,0.86998 0.60699,11.89498 0.60699,24.5 0,12.60501 0.31879,22.91821 0.70843,22.91821 0.38964,0 7.32386,-6.56266 15.40939,-14.58368 12.91901,-12.81595 14.9401,-14.45569 16.67392,-13.52778 2.66851,1.42814 3.47149,3.90267 1.95805,6.03408 -0.68738,0.96806 -5.18729,5.48048 -9.99979,10.0276 -4.8125,4.54712 -8.75,8.96253 -8.75,9.81201 0,0.84949 2.1375,3.94302 4.75,6.87451 14.34308,16.09439 15.57401,17.88932 14.125,20.59682 -1.75252,3.27461 -5.46493,2.11253 -9.53139,-2.98356 -2.08466,-2.6125 -5.00313,-6.1 -6.48549,-7.75 -1.48236,-1.65 -4.12848,-4.6875 -5.88026,-6.75 -1.75177,-2.0625 -3.60625,-3.75 -4.12105,-3.75 -0.51481,0 -2.71819,1.81818 -4.89641,4.0404 -3.70641,3.78128 -3.9604,4.41736 -3.9604,9.91821 0,7.66948 -0.60694,9.04139 -4,9.04139 -1.618,0 -3.0405,-0.66316 -3.39301,-1.58179 z m 71.89301,0.58179 c -0.33992,-0.55 -1.22609,-1 -1.96927,-1 -0.74319,0 -3.19605,-1.20783 -5.45081,-2.68406 -9.17109,-6.00449 -13.42021,-19.61181 -9.82992,-31.47921 1.66661,-5.50884 11.10444,-15.02713 16.50424,-16.64495 8.47475,-2.5391 17.72225,-1.16244 24.11791,3.59038 7.74655,5.75672 13.51554,18.33784 10.53175,22.96784 l -1.45001,2.25 -20.91793,0 c -11.50486,0 -21.1665,0.40219 -21.4703,0.89377 -0.99321,1.60704 2.26616,7.75138 5.72094,10.78472 1.85952,1.63268 5.44429,3.54621 7.96615,4.25228 6.21146,1.7391 12.87842,-0.43259 18.26598,-5.94995 4.5089,-4.61753 6.60997,-4.97738 8.49511,-1.45495 1.27443,2.38128 1.09807,2.78802 -3.08102,7.10591 -5.90346,6.09954 -11.31386,8.36822 -19.95671,8.36822 -3.77194,0 -7.13619,-0.45 -7.47611,-1 z m 25.29124,-33.15297 c 0.44448,-2.31014 -5.38661,-8.65113 -9.55837,-10.3942 -4.50068,-1.8805 -10.35192,-1.84776 -14.97479,0.0838 -3.92041,1.63805 -5.81369,3.32932 -8.75897,7.82438 -1.56087,2.3822 -1.62478,2.95369 -0.42004,3.75623 0.79241,0.52786 8.49226,0.82186 17.40753,0.66465 13.93418,-0.2457 16.02743,-0.49411 16.30464,-1.93487 z m 25.87543,33.4863 c -0.36667,-0.36666 -0.66667,-16.92666 -0.66667,-36.8 0,-38.10729 0.0507,-38.53333 4.58337,-38.53333 2.91987,0 3.38648,2.15962 3.40298,15.75 0.008,6.58565 0.41549,11.25 0.98286,11.25 0.53306,0 2.86849,-0.98997 5.18985,-2.19992 5.27906,-2.7516 14.25321,-3.48185 20.50261,-1.66834 5.16928,1.50007 13.0227,8.25304 15.54671,13.36826 3.23629,6.55872 4.09682,12.05269 2.77112,17.69187 -0.68634,2.91947 -1.82794,6.45647 -2.53691,7.86 -1.85024,3.66288 -9.67964,10.60251 -13.99722,12.40651 -4.12816,1.72485 -16.97446,2.11258 -17.94537,0.54162 -0.33992,-0.55 -1.43638,-1 -2.43657,-1 -1.0002,0 -2.37874,-0.675 -3.06343,-1.5 -1.95576,-2.35654 -4.87814,-1.83369 -5.58936,1 -0.47725,1.90152 -1.27978,2.5 -3.35238,2.5 -1.49871,0 -3.02493,-0.3 -3.39159,-0.66667 z m 32.33333,-8.41736 c 8.52451,-3.86464 12.00291,-9.16741 11.99626,-18.28809 -0.006,-7.94319 -4.586,-14.51339 -11.92186,-17.10163 -5.38904,-1.90136 -8.87512,-1.92893 -13.20228,-0.10442 -8.54215,3.60175 -12.89399,12.7149 -10.77967,22.57364 1.4091,6.5704 4.75151,10.41934 11.2014,12.8989 6.53463,2.51213 7.21008,2.51328 12.70615,0.0216 z m 50.5,6.92729 c -5.65413,-2.92368 -9.282,-6.56686 -12.29141,-12.34326 -2.16312,-4.15199 -2.60128,-6.31836 -2.58345,-12.77331 0.0127,-4.59893 0.502,-8.25383 1.19817,-8.95 0.64718,-0.64718 1.17863,-1.87419 1.18101,-2.72669 0.007,-2.59703 8.20567,-10.57504 13.23478,-12.87895 5.32238,-2.43826 13.4412,-2.86814 18.86168,-0.99872 4.35964,1.50357 10.45905,6.37732 12.86517,10.27996 7.56318,12.26721 6.21651,25.40131 -3.59077,35.02095 -3.1145,3.05491 -6.73683,5.5171 -9.23425,6.27676 -6.2766,1.9092 -14.97143,1.5078 -19.64093,-0.90674 z m 16.66709,-6.73232 c 2.3831,-1.03899 5.90791,-3.53898 7.83291,-5.55554 l 3.5,-3.66648 0,-8.88892 0,-8.88892 -3.5,-3.67478 c -12.35099,-12.96777 -31.2,-5.33239 -31.2,12.63854 0,9.51754 3.39056,14.8212 11.54998,18.06694 5.5145,2.19362 6.72214,2.19047 11.81711,-0.0308 z m 49.83291,6.30268 c -5.92965,-3.37634 -8.64481,-5.98606 -11.78766,-11.32996 -2.21254,-3.76204 -2.5997,-5.61396 -2.61324,-12.5 -0.0187,-9.52324 1.83765,-13.92957 8.66933,-20.57755 5.0302,-4.89494 10.17066,-6.976 17.23157,-6.976 7.16905,0 11.75197,1.93031 17.49694,7.36966 7.28058,6.89325 8.42608,9.54472 8.4678,19.60023 0.0311,7.5023 -0.2867,9.04768 -2.70769,13.16604 -3.10594,5.28352 -10.2343,11.83396 -12.87803,11.83396 -0.96854,0 -2.0391,0.45 -2.37902,1 -0.33992,0.55 -3.85398,0.99458 -7.80902,0.98795 -5.86542,-0.01 -8.02049,-0.48436 -11.69098,-2.57433 z m 16.96657,-6.08309 c 5.76003,-2.12117 7.75134,-3.84328 10.12502,-8.75624 2.27948,-4.71797 2.51277,-13.19209 0.49606,-18.01876 -4.90217,-11.73255 -20.86283,-14.1478 -29.06634,-4.39848 -3.63653,4.32176 -4.66301,7.32248 -4.66364,13.63321 -7.6e-4,7.64046 3.52657,13.27508 10.38861,16.59495 6.28563,3.04099 6.90459,3.08699 12.72029,0.94532 z m 38.40816,7.46678 c -1.10531,-1.78844 -1.4314,-69.51806 -0.34841,-72.36654 1.01046,-2.6577 4.68,-3.32445 6.77368,-1.23077 0.86466,0.86466 1.2,7.71111 1.2,24.5 0,12.815 0.26072,23.3 0.57939,23.3 0.31866,0 6.80805,-6.13893 14.42086,-13.64207 7.61281,-7.50314 14.39878,-13.98651 15.07993,-14.40748 2.18178,-1.34842 3.91982,0.17128 3.91982,3.42739 0,2.65387 -1.45071,4.60785 -9,12.12216 -4.95,4.92707 -9,9.53886 -9,10.24843 0,0.70957 3.21429,4.99396 7.14286,9.52085 8.67981,10.00174 10.84853,13.39481 10.8534,16.98072 0.003,2.22835 -0.44633,2.75 -2.3689,2.75 -2.47878,0 -5.02942,-2.53584 -15.96898,-15.87631 -3.2129,-3.91803 -6.19614,-7.12369 -6.62942,-7.12369 -0.43329,0 -2.64206,1.7995 -4.90838,3.99889 -3.91298,3.79742 -4.12058,4.29711 -4.12058,9.91821 0,3.25563 -0.27314,6.63113 -0.60699,7.50111 -0.71771,1.87033 -5.92288,2.15149 -7.01828,0.3791 z M 86.771924,482.7048 c -0.484201,-0.6875 -1.720214,-2.90974 -2.746694,-4.93831 -1.660617,-3.28178 -3.658221,-4.5774 -18.123494,-11.75465 -8.941442,-4.43649 -16.815629,-8.73925 -17.498195,-9.56169 -0.682566,-0.82244 -1.874096,-1.49535 -2.647845,-1.49535 -2.466529,0 -14.077392,-12.73449 -16.625885,-18.23484 -4.417473,-9.53412 -4.722409,-10.78114 -4.722409,-19.31221 l 0,-8.45295 2.521439,0 c 1.691084,0 2.881545,0.79035 3.61493,2.39995 2.149861,4.71843 13.535483,7.60005 30.028731,7.60005 10.118743,0 23.026925,1.53764 26.071331,3.10565 0.955037,0.49189 2.235571,0.89435 2.84563,0.89435 0.610059,0 2.349081,0.88287 3.864493,1.96194 l 2.755295,1.96195 5.399079,-2.79874 c 6.64414,-3.44414 10.06558,-4.00849 30.89907,-5.09667 19.47509,-1.01724 26.06606,-2.63887 28.6748,-7.0551 1.08652,-1.83934 2.58098,-2.97338 3.91836,-2.97338 3.7536,0 4.74814,2.38903 4.11893,9.89424 -0.86031,10.26169 -7.10362,22.77876 -15.31531,30.70525 -3.44509,3.32546 -15.33801,10.8512 -21.89678,13.85611 -16.26966,7.45398 -23.32398,11.95425 -24.14636,15.40409 -0.83621,3.5078 -2.21888,5.14031 -4.35364,5.14031 -5.270757,0 -4.949278,-7.98405 0.54261,-13.47594 1.97454,-1.97454 9.80073,-6.62651 18.32481,-10.89247 18.18716,-9.10194 21.35129,-11.10305 27.32288,-17.28 4.71774,-4.87998 11.61724,-17.58092 9.86775,-18.16505 -0.51636,-0.17241 -2.65315,0.18477 -4.74844,0.79373 -2.09529,0.60895 -12.95253,1.54388 -24.1272,2.07762 -16.72675,0.79892 -20.98023,1.30848 -24.0669,2.88318 -4.23605,2.16107 -5.74026,3.71187 -6.2579,6.45175 -0.871606,4.6134 -6.96579,4.51741 -7.660874,-0.12067 -0.409954,-2.7355 -3.929219,-5.78037 -8.29426,-7.17621 -1.978639,-0.63272 -12.328639,-1.54828 -23,-2.03458 -12.466278,-0.56809 -20.945889,-1.41856 -23.719837,-2.37901 -3.410877,-1.18098 -4.419118,-1.22967 -4.801996,-0.2319 -0.855323,2.22893 4.360893,11.90357 9.009009,16.70921 6.872048,7.10495 9.814209,9.02764 27.123857,17.72527 17.853267,8.97079 23.147604,13.25189 24.168528,19.54311 0.434054,2.67476 0.205701,4.02946 -0.784952,4.65673 -2.003256,1.26842 -4.510282,1.11672 -5.532561,-0.33477 z"
         id="path4178"
         inkscape:connector-curvature="0" />
      <path
         style="fill-opacity:1"
         d="m 188.71642,483.7048 c -0.44496,-0.6875 -0.91117,-10.925 -1.03601,-22.75 -0.12485,-11.825 -0.23735,-21.8375 -0.25,-22.25 -0.0127,-0.4125 -1.17759,-0.75 -2.58875,-0.75 -3.63275,0 -6.43426,-1.74162 -6.43426,-4 0,-2.23435 2.79294,-4 6.32727,-4 2.85965,0 3.23117,-0.77229 3.5859,-7.45426 0.28134,-5.29948 2.2902,-8.72035 6.91021,-11.7673 3.08219,-2.03274 8.22419,-2.33087 9.97662,-0.57844 1.68413,1.68413 1.49583,4.77535 -0.3,4.925 -0.825,0.0688 -1.8375,0.24178 -2.25,0.38452 -0.4125,0.14274 -1.75471,0.58693 -2.98268,0.9871 -2.33141,0.75976 -5.26732,5.53943 -5.26732,8.57523 0,3.64211 1.18359,4.92815 4.53556,4.92815 3.11524,0 6.46444,2.07238 6.46444,4 0,1.92762 -3.3492,4 -6.46444,4 -2.17727,0 -3.54185,0.57401 -3.96096,1.66619 -0.35166,0.91641 -0.59188,11.03111 -0.53382,22.47711 0.058,11.446 -0.17893,21.27122 -0.52663,21.83381 -0.88117,1.42576 -4.22994,1.27965 -5.20513,-0.22711 z m 33.40356,0.62924 c -0.39192,-0.39191 -0.71258,-17.3017 -0.71258,-37.57729 0,-33.20746 0.1623,-36.927 1.63592,-37.49248 0.89976,-0.34527 2.36226,-0.1696 3.25,0.39037 1.43787,0.90698 1.61408,5.04551 1.61408,37.90915 l 0,36.89101 -2.53742,0.29591 c -1.39559,0.16275 -2.85809,-0.0248 -3.25,-0.41667 z m 36.78742,-1.5388 c -5.33661,-2.76326 -8.30285,-5.57647 -10.59732,-10.0506 -1.6614,-3.23967 -1.90268,-5.98229 -1.90268,-21.62756 0,-15.12807 0.24656,-18.12202 1.58382,-19.23185 1.14717,-0.95207 2.04318,-1.0256 3.25,-0.26672 1.41933,0.89252 1.74419,3.6988 2.19276,18.94202 0.33215,11.28713 0.97755,18.69936 1.74796,20.07473 1.58667,2.83256 6.51394,6.31954 8.92983,6.31954 1.0426,0 2.32919,0.43356 2.85911,0.96348 1.48601,1.48601 8.02499,-1.17228 11.7394,-4.77242 4.74376,-4.59784 5.77084,-9.46419 5.39368,-25.55542 -0.25952,-11.0717 -0.0343,-14.15506 1.11817,-15.30751 0.79373,-0.79374 2.09693,-1.19227 2.896,-0.88564 0.79906,0.30663 1.64104,0.55751 1.87106,0.55751 0.23001,0 0.41821,8.25586 0.41821,18.34636 0,14.39498 -0.32668,19.0012 -1.51677,21.38679 -1.83758,3.68352 -7.94872,9.7581 -11.85633,11.78539 -4.16872,2.16276 -13.30012,1.82117 -18.1269,-0.6781 z m 54.53518,0.2253 c -0.65557,-1.22496 -1.03518,-14.45039 -1.03518,-36.06574 0,-21.61535 0.37961,-34.84078 1.03518,-36.06574 1.35162,-2.52552 4.60467,-2.47572 5.97861,0.0915 0.69498,1.29858 1.04796,10.00356 0.9833,24.25 -0.0555,12.22332 -0.0775,22.65477 -0.049,23.18099 0.0285,0.52623 6.72316,-5.66127 14.87693,-13.75 15.58185,-15.45754 18.50268,-17.23353 19.80551,-12.04263 0.59992,2.39026 -0.37699,3.68024 -9.5033,12.54885 -7.07779,6.87793 -9.93701,10.30241 -9.3996,11.25786 0.76116,1.35323 4.72743,6.13528 12.97877,15.64822 5.33246,6.14777 6.56003,8.46607 5.78159,10.91871 -1.07274,3.37991 -5.11476,2.46017 -8.2581,-1.87908 -1.53044,-2.11272 -4.79576,-6.1892 -7.25627,-9.05884 -2.4605,-2.86965 -5.68255,-6.65356 -7.1601,-8.4087 l -2.68644,-3.19115 -4.56354,4.45821 -4.56354,4.45821 0,5.85753 c 0,6.71712 -1.23747,9.72605 -4,9.72605 -1.0613,0 -2.39547,-0.87042 -2.96482,-1.93426 z m 70.07465,0.54741 c -4.5351,-1.47901 -14.01892,-10.90859 -14.77538,-14.69088 -0.32602,-1.63014 -0.98465,-3.20608 -1.46361,-3.5021 -1.13896,-0.70391 -1.12889,-12.94004 0.0125,-15.18374 0.48583,-0.95504 1.49833,-3.07276 2.25,-4.70605 1.87616,-4.07669 7.67447,-9.73676 12.15039,-11.86072 9.77778,-4.63986 21.55154,-2.67651 29.0768,4.84875 5.4165,5.4165 7.3918,9.13377 8.23626,15.4996 0.55277,4.16701 0.36936,4.92975 -1.41511,5.88476 -1.29728,0.69428 -9.60286,1.09723 -22.61594,1.09723 -22.53438,0 -22.21861,-0.097 -19.13048,5.87481 2.09881,4.05864 9.20934,10.12519 11.86762,10.12519 1.26342,0 2.73603,0.43891 3.27247,0.97535 2.1562,2.1562 11.43055,-2.12503 17.84926,-8.23959 3.25226,-3.09814 4.25685,-3.10114 6.30345,-0.0188 1.29987,1.95772 1.01736,2.47676 -3.97897,7.31036 -2.95801,2.86166 -7.14914,5.81942 -9.31364,6.5728 -4.57856,1.59362 -13.45971,1.59994 -18.32562,0.013 z m 26.89017,-32.9102 c 0,-2.70068 -6.19477,-9.09262 -10.3151,-10.64341 -3.89483,-1.46593 -11.11262,-1.32549 -14.98264,0.2915 -3.93999,1.64624 -9.70226,7.99143 -9.70226,10.68376 0,1.87874 0.76995,1.9652 17.5,1.9652 l 17.5,0 0,-2.29705 z m 25.63407,31.54705 c -0.95163,-4.98618 -0.52117,-69.59243 0.47609,-71.45584 1.43066,-2.67321 4.77065,-2.23786 5.91459,0.77094 0.53639,1.4108 0.97525,7.7108 0.97525,14 0,6.28919 0.23328,11.4349 0.51841,11.4349 0.28512,0 2.69593,-1.1386 5.35736,-2.53022 9.69321,-5.06845 19.41521,-4.30938 28.0248,2.18811 13.28264,10.02413 14.85088,27.93811 3.48428,39.80095 -2.44382,2.55051 -6.49247,5.51567 -8.99699,6.58923 -4.87017,2.0876 -15.80504,2.70397 -16.88786,0.95193 -0.33992,-0.55 -1.64673,-1 -2.90403,-1 -1.2573,0 -3.10048,-0.9 -4.09597,-2 -2.52978,-2.79537 -4.13144,-2.496 -5.35016,1 -1.43939,4.12904 -5.74393,4.2942 -6.51577,0.25 z m 35.19162,-7.10542 c 6.18298,-3.4454 9.17431,-8.9692 9.17431,-16.94128 0,-8.82415 -4.09094,-15.14663 -11.75505,-18.16723 -4.48419,-1.76733 -13.62306,-0.88672 -17.03642,1.64159 -11.4458,8.47802 -10.2035,28.20572 2.12373,33.72483 7.95594,3.562 10.71129,3.52138 17.49343,-0.25791 z m 47.69204,7.39638 c -5.37331,-3.13098 -9.81805,-7.79191 -12.61336,-13.22689 -1.88033,-3.65597 -2.29139,-5.9367 -2.17419,-12.06346 0.0795,-4.15532 0.55343,-7.82412 1.0532,-8.15287 0.49977,-0.32876 1.19938,-1.78681 1.55469,-3.24013 0.90197,-3.68932 10.46744,-12.09709 15.48131,-13.60761 16.57616,-4.99387 31.18724,5.80483 33.86924,25.03196 0.50287,3.60507 -0.12913,6.14133 -3.35972,13.48266 -1.92609,4.37694 -9.1643,11.23018 -12.59971,11.92959 -1.52394,0.31026 -3.013,0.95599 -3.30902,1.43495 -0.29601,0.47896 -3.54915,0.83965 -7.22919,0.80153 -5.10035,-0.0528 -7.63767,-0.62093 -10.67325,-2.38973 z m 12.90244,-4.4118 c 0.29602,-0.47896 1.88111,-1.13942 3.52244,-1.46768 3.4969,-0.69938 9.1364,-5.80776 11.43915,-10.36182 2.25572,-4.46107 2.09394,-13.00724 -0.32121,-16.96812 -3.7216,-6.10346 -6.43997,-8.38597 -11.86587,-9.96332 -4.97804,-1.44716 -5.74146,-1.4345 -10.04117,0.16645 -5.87053,2.18582 -8.81552,4.84811 -11.23939,10.16047 -3.59357,7.87595 -1.80904,17.35232 4.34983,23.09884 1.35222,1.26169 4.65852,3.15315 7.34732,4.20323 5.69489,2.22408 6.09303,2.29027 6.8089,1.13195 z m 55.07983,4.71808 c -4.26047,-2.1988 -11.00696,-8.15397 -12.65241,-11.16837 -0.54675,-1.00162 -1.67041,-4.37662 -2.49703,-7.5 -2.79856,-10.57438 1.9136,-22.71927 11.16752,-28.78267 9.92423,-6.50261 21.71335,-5.58643 30.57192,2.37587 8.36061,7.51472 11.18667,16.68427 8.4469,27.40718 -1.3375,5.2347 -2.51035,7.23335 -6.82594,11.63204 -2.86603,2.92121 -6.45782,5.56683 -7.98177,5.87916 -1.52394,0.31233 -3.013,0.95975 -3.30902,1.43871 -1.07964,1.7469 -12.76716,0.86142 -16.92017,-1.28192 z m 17.5,-7.07232 c 6.09062,-2.88406 11,-10.57121 11,-17.2239 0,-4.88287 -2.78234,-11.97726 -5.79492,-14.77581 -4.36617,-4.05599 -11.14141,-6.14196 -15.80564,-4.86624 -6.39066,1.74791 -10.15945,4.68392 -12.86432,10.02173 -3.19119,6.29751 -3.31043,12.42778 -0.34962,17.97475 2.9429,5.51342 5.62828,7.85843 11.43335,9.98418 4.93288,1.80636 6.51274,1.66412 12.38115,-1.11471 z m 36.57302,7.55476 c -0.35253,-0.91867 -0.6287,-17.40642 -0.6137,-36.63945 0.0277,-35.57561 0.24109,-37.69023 3.80288,-37.69023 3.74523,0 4.17317,2.74588 4.206,26.9875 l 0.0318,23.48749 14.76211,-14.73749 c 15.47763,-15.45184 19.23789,-17.7935 19.23789,-11.98022 0,2.13146 -1.93827,4.68489 -8.5397,11.25 -4.69683,4.671 -8.99556,9.29498 -9.55273,10.27551 -1.04803,1.84438 -1.13682,1.71759 11.59243,16.55481 5.04724,5.88307 6.5,8.48659 6.5,11.64883 0,1.94625 -0.50783,2.50881 -2.25,2.49246 -2.0335,-0.0191 -8.24268,-6.64395 -20.59979,-21.97889 l -2.01453,-2.5 -4.56784,4.45821 -4.56784,4.45821 0,5.85753 c 0,3.22164 -0.46583,6.72795 -1.03518,7.79179 -1.27166,2.37612 -5.51406,2.5513 -6.3918,0.26394 z M 87.393593,482.7048 c -0.600964,-0.6875 -1.856206,-2.79748 -2.789427,-4.68885 -0.943398,-1.912 -3.47277,-4.46793 -5.696764,-5.75659 -4.472803,-2.5917 -22.263693,-11.30456 -23.082903,-11.30456 -0.734798,0 -12.326623,-7.84812 -15.692781,-10.62464 -5.311213,-4.38085 -13.724316,-16.86995 -13.724316,-20.3735 0,-1.03611 -0.45,-2.16194 -1,-2.50186 -0.55,-0.33992 -1,-4.64148 -1,-9.55902 l 0,-8.94098 2.339485,0 c 1.539306,0 2.73821,0.8751 3.505237,2.55855 2.10082,4.61079 8.308774,6.39749 25.869542,7.44546 21.410628,1.27772 29.229803,2.09647 29.866944,3.12739 0.295254,0.47773 1.349582,0.8686 2.34295,0.8686 0.993369,0 3.003132,0.94157 4.466142,2.09237 l 2.660017,2.09237 6.224841,-2.97133 c 6.93894,-3.3122 10.23175,-3.82662 33.22484,-5.19053 18.81931,-1.11633 24.70447,-2.6881 26.5254,-7.0842 0.86869,-2.09721 1.9045,-2.93868 3.61736,-2.93868 3.89139,0 4.91124,3.65132 3.4214,12.24943 -1.55186,8.95604 -5.0879,16.65999 -10.74821,23.41706 -4.19069,5.00269 -16.06791,14.33351 -18.24514,14.33351 -0.58895,0 -1.07081,0.45 -1.07081,1 0,0.55 -0.5625,0.99875 -1.25,0.99722 -1.84521,-0.004 -19.36177,8.54416 -23.57078,11.50278 -3.41774,2.40242 -7.17922,6.85526 -7.17922,8.49877 0,3.13894 -5.16613,3.61664 -6.32938,0.58526 -0.592152,-1.54313 0.46765,-6.53168 1.82938,-8.61099 2.08761,-3.18769 9.51895,-7.81816 24.59272,-15.32372 13.51897,-6.7314 16.51134,-8.67381 22.5,-14.60522 5.23091,-5.18091 7.49099,-8.32486 9.31238,-12.95425 1.3228,-3.36214 2.18683,-6.33125 1.92006,-6.59802 -0.26677,-0.26677 -2.69906,0.14698 -5.4051,0.91945 -2.85549,0.81513 -12.58946,1.68548 -23.19695,2.07412 -10.05229,0.3683 -19.61298,1.05282 -21.24597,1.52116 -4.15327,1.19114 -8.67671,4.606 -10.19385,7.69559 -1.8189,3.70412 -4.221369,5.00909 -6.199465,3.36742 -0.871103,-0.72295 -1.583823,-2.08092 -1.583823,-3.0177 0,-2.37674 -4.30922,-6.17223 -8.735161,-7.6938 -2.156661,-0.74142 -11.713091,-1.55928 -22.742269,-1.94634 -11.644166,-0.40863 -20.574075,-1.19412 -23.02257,-2.0251 -5.241106,-1.77873 -5.5,-1.74726 -5.5,0.66853 0,3.36412 6.119688,13.73688 10.459426,17.72855 7.020479,6.4574 10.649162,8.7325 26.540574,16.64038 16.828242,8.37407 21.423646,11.92017 23.220837,17.91866 1.036811,3.46057 0.956059,4.05473 -0.717386,5.27839 -2.32694,1.70149 -3.122729,1.7242 -4.51726,0.12886 z"
         id="path4176"
         inkscape:connector-curvature="0" />
      <path
         style="fill-opacity:1"
         d="m 189.07407,484.28813 c -0.36667,-0.36666 -0.66667,-10.62666 -0.66667,-22.8 0,-23.73232 -0.16578,-24.53333 -5.07756,-24.53333 -1.47265,0 -3.23775,-0.675 -3.92244,-1.5 -1.72769,-2.08175 0.38019,-4.5 3.92244,-4.5 3.90666,0 5.07756,-1.75795 5.07756,-7.62328 0,-4.17588 0.52519,-5.84743 2.61912,-8.33591 4.65427,-5.53129 11.70472,-7.76538 14.37031,-4.55355 1.76046,2.12123 0.49859,4.51274 -2.38112,4.51274 -1.40748,0 -3.76696,1.3125 -5.53139,3.07692 -2.38068,2.38068 -3.07692,3.95667 -3.07692,6.96482 0,4.36628 1.83049,5.95826 6.85093,5.95826 3.11339,0 4.13709,1.29113 3.36968,4.25 -0.32881,1.26778 -1.46884,1.75 -4.13724,1.75 -2.02585,0 -4.22337,0.54 -4.88337,1.2 -0.85926,0.85926 -1.2,7.33333 -1.2,22.8 0,15.46667 -0.34074,21.94074 -1.2,22.8 -1.32773,1.32773 -3.10909,1.55758 -4.13333,0.53333 z m 32.94032,-0.91512 c -0.79249,-2.0652 -0.79249,-70.77122 0,-72.83642 0.71814,-1.87146 3.4989,-2.0759 5.19301,-0.38179 1.72047,1.72047 1.72047,71.87953 0,73.6 -1.69411,1.69411 -4.47487,1.48967 -5.19301,-0.38179 z m 36.89301,-0.72949 c -5.41848,-2.89152 -10.27,-8.16771 -11.54941,-12.56038 -0.61892,-2.12495 -0.9312,-10.67223 -0.75369,-20.62834 l 0.3031,-17 2.71512,-0.31306 c 3.53284,-0.40734 3.64893,0.20707 4.00141,21.17776 l 0.28347,16.86469 3.91661,3.38531 c 2.15414,1.86191 4.65164,3.3853 5.55,3.3853 0.89836,0 2.15988,0.52649 2.80336,1.16997 2.92462,2.92462 14.66288,-4.2376 16.74461,-10.2169 0.46973,-1.34919 1.10861,-9.87807 1.41973,-18.95307 l 0.56569,-16.5 2.5,0 2.5,0 0.2725,18.23423 0.2725,18.23424 -2.40285,3.76576 c -7.20435,11.29072 -19.0535,15.3382 -29.14215,9.95449 z m 55.16667,1.64461 c -0.83302,-0.83301 -0.89027,-71.58706 -0.0597,-73.75154 0.78513,-2.04601 4.00089,-2.04601 4.78602,0 0.33387,0.86998 0.60701,11.86842 0.60701,24.44098 0,13.85755 0.3861,23.09782 0.98049,23.46517 0.53927,0.33329 6.77425,-5.21218 13.85552,-12.32326 7.08127,-7.11108 14.1196,-13.74472 15.64074,-14.74141 l 2.76572,-1.81216 1.37876,1.88557 c 0.75833,1.03707 1.37877,2.29631 1.37877,2.79832 0,1.31468 -17.56015,18.705 -18.88766,18.705 -2.1594,0 -1.07382,3.82969 2.02514,7.14424 1.72562,1.84567 4.31312,4.91861 5.75,6.82876 1.43689,1.91016 4.11527,5.06016 5.95195,7.00001 3.79633,4.00954 5.36963,7.3186 4.52553,9.51831 -1.56492,4.07811 -5.63657,0.56332 -20.66473,-17.83853 -2.08988,-2.55904 -4.15323,-4.65279 -4.58524,-4.65279 -0.43201,0 -2.88461,2.06949 -5.45023,4.59887 l -4.66476,4.59886 0,5.81935 c 0,3.20064 -0.27314,6.53115 -0.60699,7.40113 -0.61163,1.5939 -3.49021,2.15125 -4.72634,0.91512 z m 71.83333,-0.33333 c -0.33992,-0.55 -1.2979,-1 -2.12884,-1 -4.55496,0 -15.37116,-11.20208 -15.37116,-15.91954 0,-1.07934 -0.45,-2.24054 -1,-2.58046 -1.22632,-0.7579 -1.34042,-12.17158 -0.12916,-12.92017 0.47896,-0.29602 1.13777,-1.87287 1.46402,-3.50413 0.35604,-1.78021 2.96889,-5.35642 6.53577,-8.94553 6.70645,-6.74823 10.05318,-7.81146 21.65638,-6.88007 8.28879,0.66535 12.4003,3.32989 18.13059,11.7499 3.56938,5.24478 5.17905,13.06075 3.05318,14.82507 -0.89662,0.74413 -8.54586,1.2263 -22.27512,1.40412 -19.26574,0.24952 -20.93694,0.41317 -21.25767,2.08169 -0.8954,4.65821 7.63435,14.68912 12.49084,14.68912 1.21722,0 2.49125,0.45 2.83117,1 0.33992,0.55 1.68992,1 3,1 1.31008,0 2.66008,-0.45 3,-1 0.33992,-0.55 1.66781,-1 2.95086,-1 1.35668,0 4.42717,-1.88299 7.33792,-4.5 5.52384,-4.96641 7.73661,-5.57071 8.74656,-2.38865 0.52311,1.64818 -0.39445,3.19752 -4.18261,7.06253 -2.669,2.72314 -6.09959,5.20616 -7.62354,5.51781 -1.52394,0.31165 -3.013,0.95851 -3.30902,1.43747 -0.74913,1.21213 -13.16239,1.09695 -13.92017,-0.12916 z m 24.8898,-31.8217 c 1.50307,-2.43201 -5.26733,-10.26464 -10.9108,-12.62263 -6.74286,-2.81734 -14.02341,-1.25701 -19.81828,4.24738 -3.24414,3.08153 -5.88113,7.64321 -4.95417,8.57017 0.94144,0.94143 35.09625,0.75487 35.68325,-0.19492 z m 26.09283,31.63704 c -0.27963,-0.72872 -0.39012,-17.47389 -0.24553,-37.21149 0.23956,-32.70043 0.41583,-35.98299 1.98538,-36.97273 3.35392,-2.11494 4.24828,0.68098 4.77752,14.93528 l 0.5,13.46674 3.81282,-2.59531 c 4.40966,-3.00156 11.57228,-4.05746 20.2061,-2.97873 5.22791,0.65318 6.24852,1.21747 11.53705,6.37874 3.47863,3.39491 6.06163,6.86342 6.45071,8.66216 0.3569,1.65 1.11319,3.96251 1.68065,5.13891 1.10336,2.28742 0.68916,8.35605 -1.01431,14.86109 -1.19566,4.56589 -11.87626,15.5 -15.14061,15.5 -1.05291,0 -2.19249,0.45 -2.53241,1 -0.33992,0.55 -3.48992,1 -7,1 -3.51008,0 -6.66008,-0.45 -7,-1 -0.33992,-0.55 -1.42173,-1 -2.40403,-1 -0.9823,0 -2.61841,-0.91981 -3.63581,-2.04402 -2.43252,-2.68791 -5.71487,-2.15745 -6.46016,1.04402 -0.64024,2.75024 -4.65208,4.07023 -5.51737,1.81534 z m 28.28094,-5.73127 c 0.95504,-0.50377 3.31818,-1.5997 5.25143,-2.4354 6.98243,-3.01838 9.985,-8.36382 9.985,-17.77615 0,-6.68573 -0.23809,-7.46682 -3.63299,-11.91851 -2.9553,-3.87524 -4.6708,-5.09032 -9.19645,-6.51381 -4.7293,-1.48755 -6.2462,-1.56848 -10.11701,-0.53978 -10.79863,2.86983 -16.39768,14.12058 -13.041,26.20461 1.529,5.50439 6.18145,9.84304 13.4316,12.52566 4.00105,1.48042 5.22823,1.55644 7.31942,0.45338 z m 57.73643,5.91593 c -0.33992,-0.55 -1.49148,-1 -2.55902,-1 -1.06754,0 -1.94098,-0.45 -1.94098,-1 0,-0.55 -0.58367,-1 -1.29705,-1 -1.62075,0 -8.70295,-7.1548 -8.70295,-8.79216 0,-0.66431 -0.45,-1.20784 -1,-1.20784 -0.55,0 -1,-0.87344 -1,-1.94098 0,-1.06754 -0.45,-2.2191 -1,-2.55902 -0.55,-0.33992 -1,-4.16492 -1,-8.5 0,-4.33508 0.45,-8.16008 1,-8.5 0.55,-0.33992 1,-1.41353 1,-2.38579 0,-2.46617 7.69458,-10.48561 12.48519,-13.01231 3.03219,-1.59926 5.66268,-2.07806 11,-2.00222 9.03297,0.12836 10.64148,0.6434 15.82065,5.06571 5.27123,4.50094 10.72468,15.43152 10.67961,21.40561 -0.0204,2.70322 -2.77189,10.33121 -5.07246,14.0624 -2.69496,4.37084 -9.97777,10.3588 -12.60397,10.36305 -1.20504,0.002 -2.4691,0.45355 -2.80902,1.00355 -0.33992,0.55 -3.26492,1 -6.5,1 -3.23508,0 -6.16008,-0.45 -6.5,-1 z m 10,-6 c 0.33992,-0.55 1.41048,-1 2.37902,-1 2.42325,0 9.66254,-6.37467 11.561,-10.18022 1.87756,-3.76366 2.06354,-13.97301 0.30998,-17.01624 -4.04832,-7.02567 -11.06432,-11.73835 -17.53984,-11.78158 -3.49014,-0.0233 -9.35984,2.56654 -12.76113,5.63049 -5.23353,4.71446 -7.21439,17.03303 -3.80053,23.63472 2.27043,4.39053 7.12146,8.71682 10.54093,9.40072 1.5687,0.31374 3.09438,0.96231 3.3904,1.44127 0.73947,1.1965 5.16048,1.10005 5.92017,-0.12916 z m 53.50551,4.42044 c -10.9371,-5.76366 -17.64555,-18.7097 -14.89679,-28.748 2.01725,-7.36687 4.07333,-10.97961 8.9546,-15.73412 4.9453,-4.81687 7.99977,-5.91631 16.43668,-5.91631 8.70016,0 11.13598,0.98809 17.29652,7.01631 6.30763,6.17214 8.20348,10.55425 8.20348,18.96168 0,8.41096 -1.98463,13.1289 -8.09762,19.25 -3.20472,3.20898 -6.63549,5.75 -7.76336,5.75 -1.11154,0 -2.2991,0.45 -2.63902,1 -1.21856,1.97167 -12.72756,0.93253 -17.49449,-1.57956 z m 13.75806,-4.30377 c 0.95504,-0.48583 3.08643,-1.49833 4.73643,-2.25 11.30542,-5.15026 14.03818,-21.45563 5.31456,-31.71001 -1.47699,-1.73616 -3.11305,-3.15666 -3.63569,-3.15666 -0.52264,0 -2.23919,-0.67223 -3.81456,-1.49384 -10.56302,-5.50899 -24.36431,5.1565 -24.36431,18.82848 0,4.09352 0.64479,6.29053 2.8811,9.81682 3.01892,4.76034 7.85361,8.84854 10.46425,8.84854 0.84514,0 1.81473,0.45 2.15465,1 0.76443,1.23687 3.94503,1.29612 6.26357,0.11667 z m 41.44713,5.19401 c -1.28977,-2.52576 -1.42559,-70.04064 -0.14571,-72.43212 1.2242,-2.28743 4.49424,-2.46957 5.32802,-0.29677 0.33385,0.86998 0.60699,11.86842 0.60699,24.44098 0,12.61239 0.40691,23.11068 0.90777,23.42023 0.49927,0.30856 7.50404,-5.99214 15.56616,-14.00157 14.84917,-14.75213 17.72642,-16.54865 18.31055,-11.43288 0.22696,1.9877 -1.64103,4.41225 -9.2388,11.99145 -5.23779,5.225 -9.52831,10.04204 -9.53447,10.70454 -0.006,0.6625 1.01471,2.2375 2.26862,3.5 1.25391,1.2625 2.99048,3.31753 3.85906,4.56674 0.86857,1.2492 3.11801,3.9492 4.99875,6 5.41942,5.90944 7.86236,9.83471 7.86236,12.63309 0,6.16324 -5.63417,1.81089 -18.32304,-14.15437 -3.16918,-3.9875 -6.11884,-7.25 -6.55479,-7.25 -0.43596,0 -2.87259,2.05056 -5.41475,4.55681 l -4.62209,4.5568 -0.29267,7.1932 c -0.26547,6.52479 -0.49545,7.22206 -2.475,7.50387 -1.32852,0.18914 -2.54408,-0.39772 -3.10696,-1.5 z m -555.683116,-3.1851 c -0.942856,-4.2928 -3.736133,-6.51324 -16.527582,-13.13816 -6.223754,-3.22339 -12.601638,-5.98742 -13.815724,-5.98742 -0.651352,0 -1.184276,-0.45 -1.184276,-1 0,-0.55 -0.590147,-1 -1.311439,-1 -0.721291,0 -2.277475,-0.9 -3.458186,-2 -1.180712,-1.1 -2.637287,-2 -3.236835,-2 -0.599548,0 -4.159188,-3.11202 -7.910311,-6.91561 -6.501948,-6.59288 -12.083229,-15.47145 -12.083229,-19.22172 0,-0.95955 -0.45,-2.02275 -1,-2.36267 -0.55,-0.33992 -1,-4.44777 -1,-9.12857 l 0,-8.51053 2.224968,0.31955 c 1.223733,0.17575 2.746437,1.36957 3.383788,2.65294 2.642186,5.32028 9.607347,7.00625 33.615889,8.13696 18.61407,0.87665 23.852432,1.82604 28.929725,5.24319 1.459904,0.98255 3.05769,1.78646 3.550636,1.78646 1.52438,0 6.278952,-2.45775 6.287192,-3.25 0.004,-0.4125 0.8178,-0.75 1.8078,-0.75 0.99,0 2.25258,-0.45257 2.80572,-1.00572 0.55314,-0.55314 9.75564,-1.4155 20.45,-1.91635 26.21409,-1.22769 31.44507,-2.64487 35.5911,-9.64238 0.92516,-1.56145 1.50499,-1.72237 3,-0.83256 4.09784,2.43899 1.86126,19.72221 -3.6101,27.89701 -1.10433,1.65 -2.57687,3.86443 -3.2723,4.92096 -2.72296,4.13685 -4.4803,5.91267 -10.15399,10.26078 -5.49557,4.21161 -10.03236,6.72109 -25.11043,13.88959 -12.51463,5.94977 -17.37045,10.031 -17.46456,14.67867 -0.0254,1.25523 -0.85337,1.75 -2.92845,1.75 -3.50133,0 -4.304373,-1.70126 -3.01215,-6.38131 1.04517,-3.7853 5.21843,-7.76448 12.16303,-11.59739 7.3361,-4.04899 23.76706,-12.0213 24.77594,-12.0213 0.5314,0 0.96619,-0.45 0.96619,-1 0,-0.55 0.65276,-1 1.45058,-1 2.84081,0 15.15738,-13.25972 17.9083,-19.27964 3.47977,-7.61488 3.45956,-9.14472 -0.10888,-8.23983 -6.15201,1.56002 -14.59737,2.40186 -30.67268,3.05746 -14.03331,0.57231 -17.51194,1.02112 -20.37397,2.62863 -4.32827,2.43104 -5.89078,3.98159 -6.3455,6.29692 -0.877611,4.46861 -6.846937,4.42506 -7.726555,-0.0564 -0.450653,-2.29598 -5.056205,-6.40427 -7.181293,-6.40595 -0.8525,-6.7e-4 -1.9775,-0.41982 -2.5,-0.93144 -0.5225,-0.51162 -8.6,-1.22088 -17.95,-1.57613 -15.314107,-0.58185 -21.058688,-1.18343 -29.75,-3.11549 -2.434677,-0.54122 -2.75,-0.32213 -2.75,1.91076 0,4.39232 4.167859,10.98113 11.609956,18.35372 6.365412,6.30597 9.099834,8.08784 23.343461,15.2116 21.302346,10.65409 25.025529,13.76107 25.039994,20.89576 0.0059,2.9263 -0.284297,3.25 -2.913956,3.25 -2.403603,0 -3.032291,-0.50878 -3.551873,-2.87442 z"
         id="path4174"
         inkscape:connector-curvature="0" />
      <path
         style="fill-opacity:1"
         d="m 189.54943,483.62594 c -0.7125,-0.85852 -1.19827,-9.26469 -1.37244,-23.75 l -0.26959,-22.42114 -3.67389,-0.30583 c -7.31791,-0.60917 -7.31791,-5.77917 0,-6.38834 l 3.67389,-0.30583 0.29793,-6.25828 c 0.26969,-5.66505 0.64972,-6.62808 4.00906,-10.15949 4.42151,-4.64797 10.13126,-6.28684 12.75657,-3.66153 1.9652,1.9652 1.20436,4.5793 -1.33281,4.5793 -5.72946,0 -9.59645,5.00409 -9.0439,11.70331 l 0.31315,3.79669 4.5,0.5 c 4,0.44444 4.5,0.77778 4.5,3 0,2.22222 -0.5,2.55556 -4.5,3 l -4.5,0.5 -0.26959,22.42114 c -0.25462,21.17606 -0.75734,25.07886 -3.23041,25.07886 -0.41531,0 -1.2514,-0.59799 -1.85797,-1.32886 z m 33.33472,0.29125 c -1.08122,-1.74946 -0.52069,-73.31845 0.58287,-74.42201 0.66057,-0.66057 1.57486,-0.63004 2.7179,0.0908 1.56937,0.98962 1.74584,4.26616 1.98525,36.85966 0.18783,25.56994 -0.061,36.16365 -0.87244,37.14135 -1.34606,1.62191 -3.51498,1.7842 -4.41358,0.33025 z m 39.52325,0.0947 c -0.825,-0.45391 -2.66921,-1.36694 -4.09824,-2.02895 -4.24088,-1.96462 -7.39576,-5.24175 -9.71727,-10.09385 -1.98308,-4.14477 -2.18449,-6.1439 -2.18449,-21.68262 0,-16.21298 0.10514,-17.15026 1.99105,-17.74882 1.09508,-0.34756 2.44508,-0.35133 3,-0.008 0.60175,0.37193 1.00895,6.33912 1.00895,14.7853 0,17.48636 1.34872,24.1526 5.5,27.18459 4.60112,3.36055 11.23667,5.18122 13.57075,3.72356 1.04616,-0.65334 2.49494,-1.18789 3.21951,-1.18789 1.54674,0 7.03073,-5.61522 8.30136,-8.5 0.4845,-1.1 1.11209,-9.65 1.39465,-19 l 0.51373,-17 2.5,0 2.5,0 0.27442,17.43864 c 0.22634,14.38307 -0.008,18.03451 -1.33928,20.83929 -2.18427,4.60301 -8.58659,10.84068 -13.03421,12.69902 -3.90017,1.62959 -10.93965,1.93433 -13.40093,0.58013 z m 51.60699,-0.63887 c -0.33385,-0.86998 -0.60699,-17.46488 -0.60699,-36.87755 0,-30.15407 0.21851,-35.47712 1.5,-36.54066 1.19672,-0.99319 1.80328,-0.99319 3,0 1.2567,1.04296 1.5,5.1179 1.5,25.12244 0,18.57042 0.28081,23.87756 1.2634,23.87756 0.69487,0 7.55134,-6.3 15.2366,-14 9.74202,-9.7607 14.65858,-14 16.2366,-14 1.73968,0 2.2634,0.57095 2.2634,2.46753 0,1.78744 -2.33302,4.71283 -8.46476,10.61399 -4.65562,4.48056 -9.23645,8.71073 -10.17962,9.4004 -1.61002,1.17727 -1.59689,1.40799 0.21476,3.77391 3.84919,5.02682 9.95742,12.34571 14.14733,16.95133 4.54103,4.99157 5.62918,9.33876 2.62605,10.49117 -1.12985,0.43356 -2.56972,-0.45042 -4.53044,-2.78139 -1.58081,-1.87932 -4.63258,-5.44194 -6.78172,-7.91694 -2.14914,-2.475 -5.28827,-6.4125 -6.97584,-8.75 -1.72251,-2.3859 -3.88692,-4.25 -4.93467,-4.25 -1.0265,0 -3.72368,2.01495 -5.99373,4.47766 -3.8708,4.19932 -4.12736,4.84692 -4.12736,10.41821 0,7.1571 -0.64159,9.10413 -3,9.10413 -0.98231,0 -2.05917,-0.7118 -2.39301,-1.58179 z m 72.97284,0.71095 c -0.29602,-0.47896 -1.94428,-1.15205 -3.66281,-1.49576 -4.60575,-0.92115 -13.22779,-10.23003 -15.27642,-16.49335 -2.72377,-8.32745 -1.87753,-14.23785 3.21023,-22.42124 5.60631,-9.01743 14.48299,-12.68888 27.12984,-11.22105 5.40668,0.62751 6.4342,1.15887 11.32127,5.85457 6.584,6.32616 8.9297,10.95366 8.51083,16.78983 l -0.31277,4.35784 -21.47053,0.27053 c -11.80879,0.14879 -21.86349,0.66349 -22.34378,1.14378 -1.26025,1.26025 2.53346,9.10112 5.93431,12.26508 4.58069,4.26163 15.32849,7.331 16.88,4.82061 0.33992,-0.55 1.40587,-1 2.36879,-1 0.96291,0 4.1231,-2.025 7.02263,-4.5 2.89954,-2.475 5.66931,-4.5 6.15505,-4.5 0.48574,0 1.38675,0.94096 2.00225,2.09103 0.98133,1.83363 0.54265,2.64334 -3.56371,6.57792 -2.57553,2.4678 -6.70059,5.35183 -9.1668,6.40898 -4.58223,1.96417 -13.76918,2.61944 -14.73838,1.05123 z m 23.9594,-33.87916 c -0.84127,-3.41436 -5.79592,-8.66939 -10.0991,-10.71139 -6.29703,-2.98813 -15.85394,-1.29923 -21.2715,3.75912 -2.45347,2.29079 -5.16863,6.83614 -5.16863,8.65261 0,0.69527 6.28255,1.04966 18.60841,1.04966 l 18.60841,0 -0.67759,-2.75 z m 26.12744,34.08333 c -0.36667,-0.36666 -0.66667,-16.96156 -0.66667,-36.87755 0,-30.96751 0.2172,-36.39115 1.5,-37.45578 1.19672,-0.99319 1.80328,-0.99319 3,0 1.19654,0.99304 1.5,3.95123 1.5,14.62244 0,8.42548 0.37753,13.37756 1.01987,13.37756 0.56093,0 2.92343,-1.21451 5.25,-2.69891 3.6638,-2.33758 5.30117,-2.70575 12.23013,-2.75 10.05307,-0.0642 12.02518,0.53392 17.10551,5.18792 5.3705,4.91984 8.39449,9.46108 8.39449,12.60634 0,1.39514 0.45,2.81473 1,3.15465 1.25864,0.77788 1.30062,6.664 0.0692,9.70295 -0.51194,1.26338 -1.18281,3.48394 -1.49083,4.93458 -0.88854,4.18472 -8.31392,11.68288 -14.26521,14.40506 -8.45879,3.86914 -14.54417,3.14256 -25.25734,-3.01565 -2.78572,-1.60131 -4.05582,-1.18417 -4.05582,1.33208 0,3.01132 -3.50987,5.29777 -5.33333,3.47431 z m 28.83333,-6.33333 c 0.33992,-0.55 1.38895,-1 2.33117,-1 2.62428,0 8.92002,-5.67352 10.88151,-9.80606 2.26911,-4.78066 2.27508,-13.59464 0.0124,-18.36168 -3.5084,-7.39164 -11.85726,-11.63426 -20.54992,-10.44279 -7.69531,1.05476 -12.94594,6.29139 -15.15089,15.11053 -1.06374,4.25463 -1.00624,5.83256 0.38577,10.58491 0.93315,3.18582 2.80731,6.70384 4.3629,8.18969 5.05684,4.83013 16.08,8.39035 17.72703,5.7254 z m 54.54033,4.74049 c -5.48002,-2.65399 -10.80715,-7.91713 -13.79033,-13.62469 -1.69174,-3.23672 -2.25,-5.99471 -2.25,-11.1158 0,-8.4629 2.34527,-13.28187 9.7662,-20.06718 5.92865,-5.42083 10.37386,-6.66184 19.86616,-5.54621 7.08843,0.83311 12.17401,4.25646 16.98481,11.4333 3.6059,5.37934 3.80949,6.10368 3.84516,13.68009 0.0273,5.78802 -0.47404,9.06819 -1.81301,11.86329 -2.38832,4.98563 -10.35885,12.62309 -13.92013,13.33845 -1.52394,0.30612 -3.013,0.94846 -3.30902,1.42742 -1.04743,1.69478 -10.83846,0.81073 -15.37984,-1.38867 z m 12.72324,-4.65708 c 0.95504,-0.50412 3.12462,-1.42793 4.8213,-2.05292 1.69668,-0.62498 4.73418,-3.29905 6.75,-5.94237 3.44465,-4.51691 3.66513,-5.2441 3.66513,-12.08812 0,-6.84814 -0.21909,-7.56938 -3.67656,-12.10311 -7.25233,-9.50988 -19.67253,-10.64846 -27.76269,-2.54503 -3.24169,3.247 -6.56075,10.82268 -6.56075,14.97476 0,7.3209 8.00599,18.67338 13.16883,18.67338 0.94222,0 1.99125,0.45 2.33117,1 0.7736,1.25171 4.95922,1.29978 7.26357,0.0834 z m 54.42736,4.72795 c -5.16114,-2.50201 -11.66021,-8.9012 -13.99208,-13.77705 -2.13617,-4.46666 -2.16078,-18.27923 -0.0395,-22.17271 1.98662,-3.64632 6.76952,-8.9627 10.36946,-11.52609 3.76098,-2.67805 10.76662,-3.77893 18.16533,-2.85452 5.26379,0.65767 6.1337,1.16284 11.82065,6.86446 8.19407,8.21522 10.01733,14.86444 7.30177,26.62886 -0.91757,3.97513 -2.30059,6.26183 -6.1563,10.17883 -8.51279,8.64813 -18.41401,11.04806 -27.46934,6.65822 z m 16.80907,-6.59346 c 9.16408,-4.52856 13.31619,-13.06293 11.01738,-22.64544 -4.16918,-17.37911 -25.73271,-21.11158 -34.23445,-5.92571 -6.48359,11.58103 -1.5888,25.54651 10.49454,29.9423 4.89821,1.78193 6.7446,1.58293 12.72253,-1.37115 z m 37.47187,7.0321 c -0.40815,-0.9625 -0.88149,-16.97077 -1.05186,-35.57394 -0.31105,-33.96566 0.0793,-38.67606 3.20532,-38.67606 2.84976,0 3.37467,4.18945 3.37467,26.93426 0,16.53345 0.32129,23.06574 1.13449,23.06574 0.62398,0 7.4558,-6.3 15.18183,-14 9.96765,-9.93406 14.72059,-14 16.36551,-14 4.72301,0 2.61241,3.90088 -7.67868,14.19197 -6.47654,6.47655 -9.73386,10.43595 -9.25,11.24378 0.92856,1.55029 7.36223,9.2364 12.99685,15.52693 2.3375,2.6096 4.25,5.26056 4.25,5.89102 0,0.63047 0.45,1.1463 1,1.1463 1.66807,0 1.12317,5.0155 -0.61746,5.68345 -1.56936,0.60222 -5.90157,-3.2031 -9.42671,-8.28022 -2.69072,-3.87532 -13.22688,-15.40323 -14.07809,-15.40323 -0.46344,0 -2.87552,1.94786 -5.36018,4.32858 l -4.51756,4.32859 0,6.47141 c 0,6.28507 -1.0475,8.87142 -3.59301,8.87142 -0.65616,0 -1.52696,-0.7875 -1.93512,-1.75 z M 86.407402,480.91962 c 0,-3.20865 -2.78878,-6.65078 -7.324192,-9.04009 -15.612181,-8.22468 -21.029461,-10.92473 -21.918978,-10.92473 -2.011202,0 -16.347301,-10.38572 -20.372494,-14.75875 -8.194534,-8.90268 -12.626389,-19.82178 -12.179646,-30.00791 0.261057,-5.95235 0.525726,-6.73334 2.281835,-6.73334 1.155451,0 2.510231,1.09267 3.238343,2.61183 2.440634,5.09221 9.389042,6.85657 31.260663,7.93779 19.917434,0.98462 25.477611,1.93132 30.168839,5.13672 3.508075,2.39697 4.334045,2.31806 11.360518,-1.08534 5.70224,-2.76199 6.97764,-2.95113 26.98511,-4.00192 25.04365,-1.31529 30.26768,-2.72763 32.57942,-8.80798 0.99377,-2.61382 3.10995,-2.97278 4.88888,-0.82929 1.33308,1.60626 0.96306,10.60074 -0.681,16.55367 -2.03553,7.37039 -6.76914,15.30903 -12.7873,21.44527 -2.51123,2.56051 -17.01517,12.53925 -18.2256,12.53925 -0.49431,0 -2.67076,0.83398 -4.83657,1.85329 -2.16581,1.01931 -5.40033,2.47916 -7.18783,3.24411 -1.7875,0.76495 -3.25,1.67849 -3.25,2.03008 0,0.35159 -0.7875,0.89754 -1.75,1.21322 -6.12106,2.00758 -10.99939,6.60219 -12.6447,11.9093 -0.32952,1.0629 -1.53642,1.75 -3.07391,1.75 -2.26245,0 -2.52903,-0.39841 -2.50915,-3.75 0.0395,-6.65508 4.29777,-10.07396 26.05489,-20.91874 13.49913,-6.72861 16.26945,-8.54462 22.50449,-14.75223 6.567,-6.5381 8.51018,-9.42989 11.3426,-16.87972 1.33776,-3.51857 -0.49226,-4.43752 -5.74929,-2.88703 -2.02121,0.59614 -13.0294,1.647 -24.46263,2.33526 -23.46176,1.41235 -26.52872,2.34069 -30.09284,9.10878 -2.50005,4.74746 -5.226037,4.92952 -7.087931,0.47338 -2.979971,-7.13208 -6.837085,-8.3084 -32.031527,-9.76881 -10.45,-0.60574 -20.653718,-1.58085 -22.67493,-2.16691 -5.010844,-1.45293 -6.705558,-0.64821 -6.059285,2.8772 0.285216,1.55585 1.25831,3.95382 2.162431,5.32882 0.904121,1.375 2.30264,3.81907 3.10782,5.43127 2.145182,4.29526 14.878777,14.34102 23.219941,18.31862 3.984213,1.89993 9.044023,4.37762 11.244023,5.50598 2.2,1.12836 6.117454,3.13766 8.705453,4.4651 10.195528,5.22951 16.001611,17.27903 8.325932,17.27903 -1.879305,0 -2.531385,-0.52426 -2.531385,-2.03518 z"
         id="path4172"
         inkscape:connector-curvature="0" />
    </g>
  </g>
</svg>
