<svg width="4500" height="3444" xmlns="http://www.w3.org/2000/svg">
 <defs>
  <style type="text/css">
   <![CDATA[
    .str0 {stroke:#008DD0;stroke-width:9.29528}
    .fil2 {fill:none}
    .fil4 {fill:none;fill-rule:nonzero}
    .fil1 {fill:#008DD0}
    .fil5 {fill:#373435}
    .fil3 {fill:#008DD0;fill-rule:nonzero}
    .fil0 {fill:#2BBFCF;fill-rule:nonzero}
    .fil6 {fill:#373435;fill-rule:nonzero}
   ]]>
  </style>
 </defs>
 <g>
  <title>background</title>
  <rect fill="none" id="canvas_background" height="3446" width="4502" y="-1" x="-1"/>
 </g>
 <g>
  <title>Layer 1</title>
  <g id="Layer_x0020_1">
   <metadata transform="translate(237,0) " id="CorelCorpID_0Corel-Layer"/>
   <path id="svg_1" d="m2935,214c-188,-151 -484,-129 -682,-43c0,0 -197,87 -518,233c-447,187 -739,80 -929,-73c155,63 301,178 819,-17c284,-123 393,-171 479,-209c226,-114 604,-183 831,109z" class="fil0"/>
   <path id="svg_2" d="m3115,426c-188,-151 -484,-129 -682,-43c0,0 -197,87 -518,233c-447,187 -739,80 -929,-73c155,63 301,177 819,-17c284,-123 393,-171 479,-209c226,-114 604,-183 831,109z" class="fil0"/>
   <path id="svg_3" d="m3287,661c-221,-176 -492,-147 -691,-61c0,0 -197,87 -518,233c-447,187 -739,80 -929,-73c155,63 301,177 819,-17c284,-123 393,-171 479,-209c226,-114 625,-200 839,128l1,-1z" class="fil0"/>
   <path id="svg_4" d="m1415,1509c-1,5 0,0 0,0c213,-353 535,-372 734,-280c153,78 193,237 169,370c169,-47 201,-315 295,-497c129,-273 394,-385 621,-394c-570,-121 -769,393 -838,642c-101,-370 -836,-421 -982,160l1,-1z" class="fil0"/>
   <path id="svg_5" d="m363,2201c-11,30 -23,52 -50,56c-5,1 -13,1 -17,1c-3,0 -5,1 -5,4c0,4 4,5 11,5c28,0 61,-2 67,-2c7,0 32,2 46,2c5,0 9,-1 9,-5c0,-2 -2,-4 -6,-4l-6,0c-10,0 -23,-5 -23,-17c0,-11 3,-25 8,-40l36,-105c1,-3 3,-5 6,-5l128,0c3,0 4,1 5,4l55,146c4,10 0,15 -4,16c-2,1 -4,2 -4,4c0,4 7,4 18,4c41,1 85,1 93,1c7,0 12,-1 12,-5c0,-3 -2,-4 -6,-4c-6,0 -15,-1 -24,-4c-13,-4 -30,-13 -51,-66c-36,-90 -130,-336 -139,-359c-7,-18 -10,-21 -13,-21c-4,0 -6,4 -13,23l-135,370l2,1zm81,-133c-2,0 -3,-1 -2,-4l52,-161c3,-9 6,-9 9,0l57,161c1,2 1,4 -2,4l-114,0z" class="fil1"/>
   <path id="svg_6" d="m363,2201c-11,30 -23,52 -50,56c-5,1 -13,1 -17,1c-3,0 -5,1 -5,4c0,4 4,5 11,5c28,0 61,-2 67,-2c7,0 32,2 46,2c5,0 9,-1 9,-5c0,-2 -2,-4 -6,-4l-6,0c-10,0 -23,-5 -23,-17c0,-11 3,-25 8,-40l36,-105c1,-3 3,-5 6,-5l128,0c3,0 4,1 5,4l55,146c4,10 0,15 -4,16c-2,1 -4,2 -4,4c0,4 7,4 18,4c41,1 85,1 93,1c7,0 12,-1 12,-5c0,-3 -2,-4 -6,-4c-6,0 -15,-1 -24,-4c-13,-4 -30,-13 -51,-66c-36,-90 -130,-336 -139,-359c-7,-18 -10,-21 -13,-21c-4,0 -6,4 -13,23l-135,370l2,1z" class="fil2 str0"/>
   <path id="svg_7" d="m446,2069c-2,0 -3,-1 -2,-4l52,-161c3,-9 6,-9 9,0l57,161c1,2 1,4 -2,4l-114,0z" class="fil2 str0"/>
   <path id="svg_8" d="m1157,2310c96,53 173,80 245,80c88,0 155,-26 189,-41c4,-2 5,-4 5,-6c0,-2 -1,-4 -4,-4c-2,0 -5,1 -8,2c-41,17 -88,23 -117,23c-30,0 -120,-3 -251,-70l-122,-63c39,-26 105,-95 105,-200c0,-138 -100,-223 -234,-223c-164,0 -235,136 -235,233c0,107 68,234 233,234c32,0 72,-9 93,-20l100,55l1,0zm-371,-286c0,-130 74,-196 174,-196c94,0 181,77 181,220c0,173 -111,204 -164,204c-107,0 -190,-89 -190,-228l-1,0z" class="fil1"/>
   <path id="svg_9" d="m1157,2310c96,53 173,80 245,80c88,0 155,-26 189,-41c4,-2 5,-4 5,-6c0,-2 -1,-4 -4,-4c-2,0 -5,1 -8,2c-41,17 -88,23 -117,23c-30,0 -120,-3 -251,-70l-122,-63c39,-26 105,-95 105,-200c0,-138 -100,-223 -234,-223c-164,0 -235,136 -235,233c0,107 68,234 233,234c32,0 72,-9 93,-20l100,55l1,0z" class="fil2 str0"/>
   <path id="svg_10" d="m787,2024c0,-130 74,-196 174,-196c94,0 181,77 181,220c0,173 -111,204 -164,204c-107,0 -190,-89 -190,-228l-1,0z" class="fil2 str0"/>
   <path id="svg_11" d="m1305,2076c0,87 23,129 52,157c42,40 102,42 123,42c35,0 80,-6 123,-44c48,-42 55,-114 55,-178l0,-64c0,-93 0,-110 1,-129c1,-21 6,-31 22,-34c7,-2 11,-2 15,-2c2,0 5,-1 5,-4c0,-4 -3,-5 -10,-5c-18,0 -46,2 -50,2c-4,0 -36,-2 -63,-2c-7,0 -10,1 -10,5c0,2 2,4 5,4c5,0 15,1 20,2c20,4 24,14 26,34c1,19 1,36 1,129l0,74c0,61 -7,112 -35,146c-21,26 -57,43 -93,43c-34,0 -61,-5 -90,-33c-26,-24 -45,-61 -45,-147l0,-83c0,-93 0,-110 1,-129c1,-21 6,-32 22,-34c7,-1 11,-2 15,-2c2,0 5,-1 5,-4c0,-4 -3,-5 -10,-5c-18,0 -54,2 -59,2c-5,0 -42,-2 -68,-2c-7,0 -10,1 -10,5c0,2 2,4 5,4c5,0 15,1 20,2c20,4 24,14 26,34c1,19 1,36 1,129l0,87z" class="fil3"/>
   <path id="svg_12" d="m1305,2076c0,87 23,129 52,157c42,40 102,42 123,42c35,0 80,-6 123,-44c48,-42 55,-114 55,-178l0,-64c0,-93 0,-110 1,-129c1,-21 6,-31 22,-34c7,-2 11,-2 15,-2c2,0 5,-1 5,-4c0,-4 -3,-5 -10,-5c-18,0 -46,2 -50,2c-4,0 -36,-2 -63,-2c-7,0 -10,1 -10,5c0,2 2,4 5,4c5,0 15,1 20,2c20,4 24,14 26,34c1,19 1,36 1,129l0,74c0,61 -7,112 -35,146c-21,26 -57,43 -93,43c-34,0 -61,-5 -90,-33c-26,-24 -45,-61 -45,-147l0,-83c0,-93 0,-110 1,-129c1,-21 6,-32 22,-34c7,-1 11,-2 15,-2c2,0 5,-1 5,-4c0,-4 -3,-5 -10,-5c-18,0 -54,2 -59,2c-5,0 -42,-2 -68,-2c-7,0 -10,1 -10,5c0,2 2,4 5,4c5,0 15,1 20,2c20,4 24,14 26,34c1,19 1,36 1,129l0,87z" class="fil4 str0"/>
   <path id="svg_13" d="m1780,2201c-11,30 -23,52 -50,56c-5,1 -13,1 -17,1c-3,0 -5,1 -5,4c0,4 4,5 11,5c28,0 61,-2 67,-2c7,0 32,2 46,2c5,0 9,-1 9,-5c0,-2 -2,-4 -6,-4l-6,0c-10,0 -23,-5 -23,-17c0,-11 3,-25 8,-40l36,-105c1,-3 3,-5 6,-5l128,0c3,0 4,1 5,4l55,146c4,10 0,15 -4,16c-2,1 -4,2 -4,4c0,4 7,4 18,4c41,1 85,1 93,1c7,0 12,-1 12,-5c0,-3 -2,-4 -6,-4c-6,0 -15,-1 -24,-4c-13,-4 -30,-13 -51,-66c-36,-90 -130,-336 -139,-359c-7,-18 -10,-21 -13,-21c-4,0 -6,4 -13,23l-135,370l2,1zm81,-133c-2,0 -3,-1 -2,-4l52,-161c3,-9 6,-9 9,0l57,161c1,2 1,4 -2,4l-114,0z" class="fil1"/>
   <path id="svg_14" d="m1780,2201c-11,30 -23,52 -50,56c-5,1 -13,1 -17,1c-3,0 -5,1 -5,4c0,4 4,5 11,5c28,0 61,-2 67,-2c7,0 32,2 46,2c5,0 9,-1 9,-5c0,-2 -2,-4 -6,-4l-6,0c-10,0 -23,-5 -23,-17c0,-11 3,-25 8,-40l36,-105c1,-3 3,-5 6,-5l128,0c3,0 4,1 5,4l55,146c4,10 0,15 -4,16c-2,1 -4,2 -4,4c0,4 7,4 18,4c41,1 85,1 93,1c7,0 12,-1 12,-5c0,-3 -2,-4 -6,-4c-6,0 -15,-1 -24,-4c-13,-4 -30,-13 -51,-66c-36,-90 -130,-336 -139,-359c-7,-18 -10,-21 -13,-21c-4,0 -6,4 -13,23l-135,370l2,1z" class="fil2 str0"/>
   <path id="svg_15" d="m1863,2069c-2,0 -3,-1 -2,-4l52,-161c3,-9 6,-9 9,0l57,161c1,2 1,4 -2,4l-114,0z" class="fil2 str0"/>
   <path id="svg_16" d="m2246,2094c0,57 0,104 -3,129c-2,17 -5,30 -17,33c-5,1 -13,2 -18,2c-4,0 -5,2 -5,4c0,4 3,5 10,5c18,0 55,-2 56,-2c3,0 40,2 73,2c7,0 10,-2 10,-5c0,-2 -1,-4 -5,-4c-5,0 -18,-1 -27,-2c-18,-2 -21,-15 -23,-33c-3,-25 -3,-72 -3,-129l0,-14c0,-3 1,-5 4,-5l73,1c4,0 5,1 8,4c12,15 40,55 65,88c34,45 55,74 80,88c15,8 30,11 64,11l42,0c11,0 14,-1 14,-5c0,-2 -2,-4 -5,-4c-4,0 -12,0 -23,-2c-15,-2 -40,-9 -73,-43c-35,-37 -75,-90 -124,-152c54,-49 72,-93 72,-138c0,-41 -26,-70 -41,-81c-32,-23 -71,-26 -109,-26c-18,0 -64,2 -70,2c-3,0 -40,-2 -67,-2c-7,0 -10,1 -10,5c0,2 2,4 5,4c5,0 15,1 20,2c20,4 24,14 26,34c1,19 1,36 1,129l0,105l0,-1zm48,-247c0,-4 2,-6 5,-7c6,-2 22,-4 40,-4c64,0 103,45 103,119c0,45 -15,77 -36,92c-14,10 -30,11 -45,11c-26,0 -54,-4 -63,-10c-3,-2 -4,-4 -4,-7l0,-195l0,1z" class="fil1"/>
   <path id="svg_17" d="m2246,2094c0,57 0,104 -3,129c-2,17 -5,30 -17,33c-5,1 -13,2 -18,2c-4,0 -5,2 -5,4c0,4 3,5 10,5c18,0 55,-2 56,-2c3,0 40,2 73,2c7,0 10,-2 10,-5c0,-2 -1,-4 -5,-4c-5,0 -18,-1 -27,-2c-18,-2 -21,-15 -23,-33c-3,-25 -3,-72 -3,-129l0,-14c0,-3 1,-5 4,-5l73,1c4,0 5,1 8,4c12,15 40,55 65,88c34,45 55,74 80,88c15,8 30,11 64,11l42,0c11,0 14,-1 14,-5c0,-2 -2,-4 -5,-4c-4,0 -12,0 -23,-2c-15,-2 -40,-9 -73,-43c-35,-37 -75,-90 -124,-152c54,-49 72,-93 72,-138c0,-41 -26,-70 -41,-81c-32,-23 -71,-26 -109,-26c-18,0 -64,2 -70,2c-3,0 -40,-2 -67,-2c-7,0 -10,1 -10,5c0,2 2,4 5,4c5,0 15,1 20,2c20,4 24,14 26,34c1,19 1,36 1,129l0,105l0,-1z" class="fil2 str0"/>
   <path id="svg_18" d="m2293,1846c0,-4 2,-6 5,-7c6,-2 22,-4 40,-4c64,0 103,45 103,119c0,45 -15,77 -36,92c-14,10 -30,11 -45,11c-26,0 -54,-4 -63,-10c-3,-2 -4,-4 -4,-7l0,-195l0,1z" class="fil2 str0"/>
   <path id="svg_19" d="m2732,1989c0,-93 0,-110 1,-129c1,-21 6,-31 22,-34c7,-1 11,-2 15,-2c2,0 5,-1 5,-4c0,-4 -3,-5 -10,-5c-18,0 -55,2 -58,2c-3,0 -40,-2 -60,-2c-7,0 -10,1 -10,5c0,2 2,4 5,4c4,0 12,1 18,2c13,3 19,13 20,33c1,19 1,36 1,129l0,105c0,57 0,104 -3,129c-2,17 -5,30 -17,33c-5,1 -13,2 -18,2c-4,0 -5,2 -5,4c0,4 3,5 10,5c18,0 55,-2 58,-2c3,0 40,2 73,2c7,0 10,-2 10,-5c0,-2 -1,-4 -5,-4c-5,0 -18,-1 -27,-2c-18,-2 -21,-15 -23,-33c-3,-25 -3,-72 -3,-129l0,-105l1,1z" class="fil3"/>
   <path id="svg_20" d="m2732,1989c0,-93 0,-110 1,-129c1,-21 6,-31 22,-34c7,-1 11,-2 15,-2c2,0 5,-1 5,-4c0,-4 -3,-5 -10,-5c-18,0 -55,2 -58,2c-3,0 -40,-2 -60,-2c-7,0 -10,1 -10,5c0,2 2,4 5,4c4,0 12,1 18,2c13,3 19,13 20,33c1,19 1,36 1,129l0,105c0,57 0,104 -3,129c-2,17 -5,30 -17,33c-5,1 -13,2 -18,2c-4,0 -5,2 -5,4c0,4 3,5 10,5c18,0 55,-2 58,-2c3,0 40,2 73,2c7,0 10,-2 10,-5c0,-2 -1,-4 -5,-4c-5,0 -18,-1 -27,-2c-18,-2 -21,-15 -23,-33c-3,-25 -3,-72 -3,-129l0,-105l1,1z" class="fil4 str0"/>
   <path id="svg_21" d="m2891,2076c0,87 23,129 52,157c42,40 102,42 123,42c35,0 80,-6 123,-44c48,-42 55,-114 55,-178l0,-64c0,-93 0,-110 1,-129c1,-21 6,-31 22,-34c7,-2 11,-2 15,-2c2,0 5,-1 5,-4c0,-4 -3,-5 -10,-5c-18,0 -46,2 -50,2c-4,0 -36,-2 -63,-2c-7,0 -10,1 -10,5c0,2 2,4 5,4c5,0 15,1 20,2c20,4 24,14 26,34c1,19 1,36 1,129l0,74c0,61 -7,112 -35,146c-21,26 -57,43 -93,43c-34,0 -61,-5 -90,-33c-26,-24 -45,-61 -45,-147l0,-83c0,-93 0,-110 1,-129c1,-21 6,-32 22,-34c7,-1 11,-2 15,-2c2,0 5,-1 5,-4c0,-4 -3,-5 -10,-5c-18,0 -54,2 -59,2c-5,0 -42,-2 -68,-2c-7,0 -10,1 -10,5c0,2 2,4 5,4c5,0 15,1 20,2c20,4 24,14 26,34c1,19 1,36 1,129l0,87z" class="fil3"/>
   <path id="svg_22" d="m2891,2076c0,87 23,129 52,157c42,40 102,42 123,42c35,0 80,-6 123,-44c48,-42 55,-114 55,-178l0,-64c0,-93 0,-110 1,-129c1,-21 6,-31 22,-34c7,-2 11,-2 15,-2c2,0 5,-1 5,-4c0,-4 -3,-5 -10,-5c-18,0 -46,2 -50,2c-4,0 -36,-2 -63,-2c-7,0 -10,1 -10,5c0,2 2,4 5,4c5,0 15,1 20,2c20,4 24,14 26,34c1,19 1,36 1,129l0,74c0,61 -7,112 -35,146c-21,26 -57,43 -93,43c-34,0 -61,-5 -90,-33c-26,-24 -45,-61 -45,-147l0,-83c0,-93 0,-110 1,-129c1,-21 6,-32 22,-34c7,-1 11,-2 15,-2c2,0 5,-1 5,-4c0,-4 -3,-5 -10,-5c-18,0 -54,2 -59,2c-5,0 -42,-2 -68,-2c-7,0 -10,1 -10,5c0,2 2,4 5,4c5,0 15,1 20,2c20,4 24,14 26,34c1,19 1,36 1,129l0,87z" class="fil4 str0"/>
   <path id="svg_23" d="m3787,1824c-1,-11 -3,-16 -7,-16c-4,0 -7,4 -9,10l-175,374l-182,-374c-3,-7 -5,-9 -9,-9c-4,0 -5,4 -7,11l-43,388c-2,23 -4,46 -24,49c-9,2 -13,2 -18,2c-3,0 -6,1 -6,3c0,4 4,5 10,5c16,0 45,-2 50,-2c5,0 33,2 55,2c7,0 11,-1 11,-5c0,-2 -2,-3 -5,-3c-4,0 -13,-1 -23,-3c-9,-2 -15,-10 -15,-18c0,-10 0,-21 1,-30l24,-276l2,0c7,16 73,159 79,170c3,6 54,109 70,138c11,21 14,27 18,27c5,0 7,-5 20,-32l146,-310l2,0l29,307c1,11 1,21 -2,21c-3,1 -4,2 -4,4c0,3 3,5 17,6c22,2 86,4 99,4c7,0 13,-2 13,-5c0,-2 -2,-3 -5,-3c-6,0 -21,0 -39,-5c-26,-8 -30,-42 -32,-63l-40,-366l-1,-1z" class="fil3"/>
   <path id="svg_24" d="m3787,1824c-1,-11 -3,-16 -7,-16c-4,0 -7,4 -9,10l-175,374l-182,-374c-3,-7 -5,-9 -9,-9c-4,0 -5,4 -7,11l-43,388c-2,23 -4,46 -24,49c-9,2 -13,2 -18,2c-3,0 -6,1 -6,3c0,4 4,5 10,5c16,0 45,-2 50,-2c5,0 33,2 55,2c7,0 11,-1 11,-5c0,-2 -2,-3 -5,-3c-4,0 -13,-1 -23,-3c-9,-2 -15,-10 -15,-18c0,-10 0,-21 1,-30l24,-276l2,0c7,16 73,159 79,170c3,6 54,109 70,138c11,21 14,27 18,27c5,0 7,-5 20,-32l146,-310l2,0l29,307c1,11 1,21 -2,21c-3,1 -4,2 -4,4c0,3 3,5 17,6c22,2 86,4 99,4c7,0 13,-2 13,-5c0,-2 -2,-3 -5,-3c-6,0 -21,0 -39,-5c-26,-8 -30,-42 -32,-63l-40,-366l-1,-1z" class="fil4 str0"/>
   <path id="svg_25" d="m254,2773c0,65 41,141 140,141c87,0 143,-67 143,-147c0,-84 -60,-135 -141,-135c-99,0 -142,82 -142,141zm34,-10c0,-79 45,-118 105,-118c57,0 109,46 109,133c0,105 -67,123 -99,123c-65,0 -115,-54 -115,-138z" class="fil1"/>
   <path id="svg_26" d="m254,2773c0,65 41,141 140,141c87,0 143,-67 143,-147c0,-84 -60,-135 -141,-135c-99,0 -142,82 -142,141z" class="fil2 str0"/>
   <path id="svg_27" d="m288,2763c0,-79 45,-118 105,-118c57,0 109,46 109,133c0,105 -67,123 -99,123c-65,0 -115,-54 -115,-138z" class="fil2 str0"/>
   <path id="svg_28" d="m607,2833c0,25 0,46 -1,57c-1,8 -2,13 -8,14c-2,1 -6,1 -8,1c-2,0 -2,1 -2,2c0,2 1,2 4,2c8,0 24,-1 26,-1c1,0 18,1 32,1c3,0 4,-1 4,-2c0,-1 -1,-2 -2,-2c-2,0 -8,-1 -12,-1c-8,-1 -9,-7 -10,-14c-1,-11 -1,-32 -1,-57l0,-22c0,-2 1,-2 2,-2c4,0 33,0 40,1c8,1 12,6 14,9c1,3 1,7 2,9c0,1 1,2 2,2c2,0 2,-3 2,-5c0,-2 1,-12 1,-18c1,-9 2,-13 2,-15c0,-1 0,-2 -1,-2c-1,0 -2,1 -3,3c-2,3 -6,4 -12,5c-4,0 -7,0 -12,0l-34,0c-2,0 -2,-1 -2,-2l0,-73c0,-2 1,-3 2,-3l40,1c10,0 16,5 18,8c2,3 2,8 2,10c0,2 1,3 2,3c1,0 2,-2 2,-3c1,-3 1,-15 1,-17c1,-7 2,-11 2,-12c0,-1 -1,-2 -2,-2c-1,0 -2,1 -4,2c-2,1 -7,1 -12,1c-6,0 -59,0 -65,0c-1,0 -18,-1 -30,-1c-3,0 -4,1 -4,2c0,1 1,2 2,2c2,0 7,0 9,1c9,2 11,6 11,15c1,8 1,16 1,57l0,46l2,0z" class="fil3"/>
   <path id="svg_29" d="m607,2833c0,25 0,46 -1,57c-1,8 -2,13 -8,14c-2,1 -6,1 -8,1c-2,0 -2,1 -2,2c0,2 1,2 4,2c8,0 24,-1 26,-1c1,0 18,1 32,1c3,0 4,-1 4,-2c0,-1 -1,-2 -2,-2c-2,0 -8,-1 -12,-1c-8,-1 -9,-7 -10,-14c-1,-11 -1,-32 -1,-57l0,-22c0,-2 1,-2 2,-2c4,0 33,0 40,1c8,1 12,6 14,9c1,3 1,7 2,9c0,1 1,2 2,2c2,0 2,-3 2,-5c0,-2 1,-12 1,-18c1,-9 2,-13 2,-15c0,-1 0,-2 -1,-2c-1,0 -2,1 -3,3c-2,3 -6,4 -12,5c-4,0 -7,0 -12,0l-34,0c-2,0 -2,-1 -2,-2l0,-73c0,-2 1,-3 2,-3l40,1c10,0 16,5 18,8c2,3 2,8 2,10c0,2 1,3 2,3c1,0 2,-2 2,-3c1,-3 1,-15 1,-17c1,-7 2,-11 2,-12c0,-1 -1,-2 -2,-2c-1,0 -2,1 -4,2c-2,1 -7,1 -12,1c-6,0 -59,0 -65,0c-1,0 -18,-1 -30,-1c-3,0 -4,1 -4,2c0,1 1,2 2,2c2,0 7,0 9,1c9,2 11,6 11,15c1,8 1,16 1,57l0,46l2,0z" class="fil4 str0"/>
   <path id="svg_30" d="m949,2653l45,1c35,1 43,9 44,20l0,4c0,5 1,6 3,6c1,0 3,-1 3,-5c0,-4 1,-29 1,-40c0,-2 0,-4 -2,-4c-3,0 -13,4 -36,4l-135,0c-4,0 -18,-1 -28,-2c-10,-1 -13,-4 -16,-4c-1,0 -3,5 -4,7c-1,3 -8,34 -8,37c0,2 1,3 2,3c1,0 3,-1 4,-4c1,-3 2,-5 6,-11c6,-9 14,-11 37,-12l53,-1l0,152c0,35 0,63 -2,78c-1,10 -3,18 -10,20c-3,1 -8,1 -11,1c-2,0 -3,1 -3,2c0,2 2,3 6,3c11,0 33,-1 35,-1c2,0 24,1 44,1c4,0 6,-1 6,-3c0,-1 -1,-2 -3,-2c-3,0 -11,-1 -16,-1c-11,-1 -13,-9 -14,-20c-2,-15 -2,-44 -2,-78l0,-152l1,1z" class="fil3"/>
   <path id="svg_31" d="m949,2653l45,1c35,1 43,9 44,20l0,4c0,5 1,6 3,6c1,0 3,-1 3,-5c0,-4 1,-29 1,-40c0,-2 0,-4 -2,-4c-3,0 -13,4 -36,4l-135,0c-4,0 -18,-1 -28,-2c-10,-1 -13,-4 -16,-4c-1,0 -3,5 -4,7c-1,3 -8,34 -8,37c0,2 1,3 2,3c1,0 3,-1 4,-4c1,-3 2,-5 6,-11c6,-9 14,-11 37,-12l53,-1l0,152c0,35 0,63 -2,78c-1,10 -3,18 -10,20c-3,1 -8,1 -11,1c-2,0 -3,1 -3,2c0,2 2,3 6,3c11,0 33,-1 35,-1c2,0 24,1 44,1c4,0 6,-1 6,-3c0,-1 -1,-2 -3,-2c-3,0 -11,-1 -16,-1c-11,-1 -13,-9 -14,-20c-2,-15 -2,-44 -2,-78l0,-152l1,1z" class="fil4 str0"/>
   <path id="svg_32" d="m1260,2787c0,-41 0,-48 1,-57c1,-9 3,-14 10,-15c3,-1 5,-1 7,-1c1,0 2,-1 2,-2c0,-2 -1,-2 -4,-2c-8,0 -24,1 -26,1c-1,0 -18,-1 -30,-1c-3,0 -4,1 -4,2c0,1 1,2 2,2c2,0 7,0 9,1c9,2 11,6 11,15c1,8 1,16 1,57l0,6c0,1 -1,2 -2,2l-111,0c-1,0 -2,0 -2,-2l0,-6c0,-41 0,-48 1,-57c1,-9 3,-14 10,-15c3,-1 5,-1 7,-1c1,0 2,-1 2,-2c0,-2 -1,-2 -4,-2c-8,0 -24,1 -26,1c-1,0 -18,-1 -30,-1c-3,0 -4,1 -4,2c0,1 1,2 2,2c2,0 7,0 9,1c9,2 11,6 11,15c1,8 1,16 1,57l0,46c0,25 0,46 -1,57c-1,8 -2,13 -8,14c-2,1 -6,1 -8,1c-2,0 -2,1 -2,2c0,2 1,2 4,2c8,0 24,-1 26,-1c1,0 18,1 32,1c3,0 4,-1 4,-2c0,-1 -1,-2 -2,-2c-2,0 -8,-1 -12,-1c-8,-1 -9,-7 -10,-14c-1,-11 -1,-32 -1,-57l0,-28c0,-1 1,-2 2,-2l111,0c1,0 2,1 2,2l0,28c0,25 0,46 -1,57c-1,8 -2,13 -8,14c-2,1 -6,1 -8,1c-2,0 -2,1 -2,2c0,2 1,2 4,2c8,0 24,-1 26,-1c1,0 18,1 32,1c3,0 4,-1 4,-2c0,-1 -1,-2 -2,-2c-2,0 -8,-1 -12,-1c-8,-1 -9,-7 -10,-14c-1,-11 -1,-32 -1,-57l0,-46l-2,0z" class="fil3"/>
   <path id="svg_33" d="m1260,2787c0,-41 0,-48 1,-57c1,-9 3,-14 10,-15c3,-1 5,-1 7,-1c1,0 2,-1 2,-2c0,-2 -1,-2 -4,-2c-8,0 -24,1 -26,1c-1,0 -18,-1 -30,-1c-3,0 -4,1 -4,2c0,1 1,2 2,2c2,0 7,0 9,1c9,2 11,6 11,15c1,8 1,16 1,57l0,6c0,1 -1,2 -2,2l-111,0c-1,0 -2,0 -2,-2l0,-6c0,-41 0,-48 1,-57c1,-9 3,-14 10,-15c3,-1 5,-1 7,-1c1,0 2,-1 2,-2c0,-2 -1,-2 -4,-2c-8,0 -24,1 -26,1c-1,0 -18,-1 -30,-1c-3,0 -4,1 -4,2c0,1 1,2 2,2c2,0 7,0 9,1c9,2 11,6 11,15c1,8 1,16 1,57l0,46c0,25 0,46 -1,57c-1,8 -2,13 -8,14c-2,1 -6,1 -8,1c-2,0 -2,1 -2,2c0,2 1,2 4,2c8,0 24,-1 26,-1c1,0 18,1 32,1c3,0 4,-1 4,-2c0,-1 -1,-2 -2,-2c-2,0 -8,-1 -12,-1c-8,-1 -9,-7 -10,-14c-1,-11 -1,-32 -1,-57l0,-28c0,-1 1,-2 2,-2l111,0c1,0 2,1 2,2l0,28c0,25 0,46 -1,57c-1,8 -2,13 -8,14c-2,1 -6,1 -8,1c-2,0 -2,1 -2,2c0,2 1,2 4,2c8,0 24,-1 26,-1c1,0 18,1 32,1c3,0 4,-1 4,-2c0,-1 -1,-2 -2,-2c-2,0 -8,-1 -12,-1c-8,-1 -9,-7 -10,-14c-1,-11 -1,-32 -1,-57l0,-46l-2,0z" class="fil4 str0"/>
   <path id="svg_34" d="m1343,2833c0,25 0,46 -1,57c-1,8 -2,13 -8,14c-2,1 -6,1 -8,1c-2,0 -2,1 -2,2c0,2 1,2 4,2c8,0 24,-1 26,-1c8,0 25,2 65,2c10,0 12,0 14,-7c1,-6 3,-23 3,-25c0,-2 0,-4 -2,-4c-1,0 -2,1 -2,4c-2,11 -5,16 -12,19c-7,3 -18,3 -25,3c-26,0 -30,-3 -30,-22c0,-6 0,-36 0,-45l0,-23c0,-1 1,-2 2,-2c4,0 30,1 38,1c10,1 13,6 14,9c1,3 1,6 1,9c0,1 1,2 2,2c2,0 2,-3 2,-5c0,-2 1,-12 1,-17c1,-9 2,-13 2,-15c0,-2 -1,-2 -1,-2c-1,0 -2,1 -4,3c-2,3 -6,3 -12,4c-6,1 -38,1 -42,1c-1,0 -2,-1 -2,-3l0,-73c0,-2 1,-3 2,-3c3,0 32,0 36,1c14,2 17,5 19,9c1,3 2,8 2,9c0,2 1,3 2,3c1,0 2,-2 2,-3c1,-3 1,-15 1,-17c1,-7 2,-11 2,-12c0,-1 0,-2 -1,-2c-1,0 -2,1 -4,1c-2,1 -6,1 -11,1c-6,0 -58,0 -60,0c-1,0 -18,-1 -30,-1c-3,0 -4,1 -4,2c0,1 1,2 2,2c2,0 7,0 9,1c9,2 11,6 11,15c1,8 1,16 1,57l0,46l-2,2z" class="fil3"/>
   <path id="svg_35" d="m1343,2833c0,25 0,46 -1,57c-1,8 -2,13 -8,14c-2,1 -6,1 -8,1c-2,0 -2,1 -2,2c0,2 1,2 4,2c8,0 24,-1 26,-1c8,0 25,2 65,2c10,0 12,0 14,-7c1,-6 3,-23 3,-25c0,-2 0,-4 -2,-4c-1,0 -2,1 -2,4c-2,11 -5,16 -12,19c-7,3 -18,3 -25,3c-26,0 -30,-3 -30,-22c0,-6 0,-36 0,-45l0,-23c0,-1 1,-2 2,-2c4,0 30,1 38,1c10,1 13,6 14,9c1,3 1,6 1,9c0,1 1,2 2,2c2,0 2,-3 2,-5c0,-2 1,-12 1,-17c1,-9 2,-13 2,-15c0,-2 -1,-2 -1,-2c-1,0 -2,1 -4,3c-2,3 -6,3 -12,4c-6,1 -38,1 -42,1c-1,0 -2,-1 -2,-3l0,-73c0,-2 1,-3 2,-3c3,0 32,0 36,1c14,2 17,5 19,9c1,3 2,8 2,9c0,2 1,3 2,3c1,0 2,-2 2,-3c1,-3 1,-15 1,-17c1,-7 2,-11 2,-12c0,-1 0,-2 -1,-2c-1,0 -2,1 -4,1c-2,1 -6,1 -11,1c-6,0 -58,0 -60,0c-1,0 -18,-1 -30,-1c-3,0 -4,1 -4,2c0,1 1,2 2,2c2,0 7,0 9,1c9,2 11,6 11,15c1,8 1,16 1,57l0,46l-2,2z" class="fil4 str0"/>
   <path id="svg_36" d="m1608,2747c0,54 0,99 -3,122c-2,16 -5,29 -16,31c-5,1 -12,2 -17,2c-3,0 -5,2 -5,3c0,3 3,5 9,5c17,0 52,-2 54,-2c3,0 38,2 69,2c6,0 9,-2 9,-5c0,-2 -1,-3 -5,-3c-5,0 -17,-1 -25,-2c-17,-2 -20,-15 -22,-31c-3,-24 -3,-68 -3,-122l0,-232c0,-6 1,-10 5,-11c5,-2 15,-3 24,-3c13,0 47,-2 77,28c30,30 32,68 32,87c0,52 -43,92 -98,92c-12,0 -15,1 -15,5c0,3 3,4 6,4c3,1 9,1 12,1c80,0 139,-54 139,-134c0,-30 -16,-55 -28,-67c-9,-8 -34,-32 -105,-32c-26,0 -59,2 -71,2c-5,0 -38,-2 -64,-2c-6,0 -9,1 -9,5c0,2 2,3 5,3c5,0 15,1 19,2c19,4 23,13 24,32c1,18 1,34 1,122l0,99l1,-1z" class="fil3"/>
   <path id="svg_37" d="m1608,2747c0,54 0,99 -3,122c-2,16 -5,29 -16,31c-5,1 -12,2 -17,2c-3,0 -5,2 -5,3c0,3 3,5 9,5c17,0 52,-2 54,-2c3,0 38,2 69,2c6,0 9,-2 9,-5c0,-2 -1,-3 -5,-3c-5,0 -17,-1 -25,-2c-17,-2 -20,-15 -22,-31c-3,-24 -3,-68 -3,-122l0,-232c0,-6 1,-10 5,-11c5,-2 15,-3 24,-3c13,0 47,-2 77,28c30,30 32,68 32,87c0,52 -43,92 -98,92c-12,0 -15,1 -15,5c0,3 3,4 6,4c3,1 9,1 12,1c80,0 139,-54 139,-134c0,-30 -16,-55 -28,-67c-9,-8 -34,-32 -105,-32c-26,0 -59,2 -71,2c-5,0 -38,-2 -64,-2c-6,0 -9,1 -9,5c0,2 2,3 5,3c5,0 15,1 19,2c19,4 23,13 24,32c1,18 1,34 1,122l0,99l1,-1z" class="fil4 str0"/>
   <path id="svg_38" d="m1924,2849c-10,28 -21,50 -47,53c-5,1 -12,1 -16,1c-3,0 -5,1 -5,3c0,3 3,5 11,5c27,0 58,-2 64,-2c6,0 30,2 44,2c5,0 8,-1 8,-5c0,-2 -2,-3 -6,-3l-6,0c-10,0 -21,-5 -21,-16c0,-10 3,-24 8,-38l34,-100c1,-3 3,-5 6,-5l121,0c3,0 4,1 5,3l52,139c3,9 0,14 -3,15c-2,1 -4,2 -4,4c0,3 6,3 17,4c39,1 80,1 89,1c6,0 11,-1 11,-5c0,-3 -2,-3 -6,-3c-6,0 -14,-1 -23,-3c-12,-3 -28,-12 -48,-63c-34,-86 -123,-319 -131,-340c-7,-17 -9,-20 -12,-20c-3,0 -6,3 -12,22l-128,350l-2,1zm81,-126c-2,0 -3,-1 -2,-4l50,-152c3,-8 6,-8 8,0l54,152c1,2 1,4 -2,4l-108,0z" class="fil1"/>
   <path id="svg_39" d="m1924,2849c-10,28 -21,50 -47,53c-5,1 -12,1 -16,1c-3,0 -5,1 -5,3c0,3 3,5 11,5c27,0 58,-2 64,-2c6,0 30,2 44,2c5,0 8,-1 8,-5c0,-2 -2,-3 -6,-3l-6,0c-10,0 -21,-5 -21,-16c0,-10 3,-24 8,-38l34,-100c1,-3 3,-5 6,-5l121,0c3,0 4,1 5,3l52,139c3,9 0,14 -3,15c-2,1 -4,2 -4,4c0,3 6,3 17,4c39,1 80,1 89,1c6,0 11,-1 11,-5c0,-3 -2,-3 -6,-3c-6,0 -14,-1 -23,-3c-12,-3 -28,-12 -48,-63c-34,-86 -123,-319 -131,-340c-7,-17 -9,-20 -12,-20c-3,0 -6,3 -12,22l-128,350l-2,1z" class="fil2 str0"/>
   <path id="svg_40" d="m2003,2724c-2,0 -3,-1 -2,-4l50,-152c3,-8 6,-8 8,0l54,152c1,2 1,4 -2,4l-108,0z" class="fil2 str0"/>
   <path id="svg_41" d="m2544,2919c36,0 79,-4 101,-13c10,-5 11,-6 15,-16c6,-19 12,-68 12,-72c0,-5 -1,-8 -4,-8c-3,0 -5,2 -6,8c-2,10 -9,35 -21,47c-23,23 -56,28 -98,28c-121,0 -204,-99 -204,-206c0,-58 10,-108 51,-147c20,-19 55,-41 130,-41c50,0 93,15 113,32c15,12 24,36 24,58c0,8 1,12 5,12c3,0 5,-3 5,-12c1,-8 1,-39 2,-58c1,-20 3,-27 3,-32c0,-3 -1,-6 -7,-6c-18,-1 -36,-5 -58,-8c-28,-5 -59,-7 -82,-7c-87,0 -138,27 -172,60c-50,50 -63,116 -63,154c0,54 14,118 68,167c45,40 101,61 186,61l0,-1z" class="fil3"/>
   <path id="svg_42" d="m2544,2919c36,0 79,-4 101,-13c10,-5 11,-6 15,-16c6,-19 12,-68 12,-72c0,-5 -1,-8 -4,-8c-3,0 -5,2 -6,8c-2,10 -9,35 -21,47c-23,23 -56,28 -98,28c-121,0 -204,-99 -204,-206c0,-58 10,-108 51,-147c20,-19 55,-41 130,-41c50,0 93,15 113,32c15,12 24,36 24,58c0,8 1,12 5,12c3,0 5,-3 5,-12c1,-8 1,-39 2,-58c1,-20 3,-27 3,-32c0,-3 -1,-6 -7,-6c-18,-1 -36,-5 -58,-8c-28,-5 -59,-7 -82,-7c-87,0 -138,27 -172,60c-50,50 -63,116 -63,154c0,54 14,118 68,167c45,40 101,61 186,61l0,-1z" class="fil4 str0"/>
   <path id="svg_43" d="m2855,2648c0,-88 0,-104 1,-122c1,-20 6,-29 21,-32c7,-1 10,-2 14,-2c2,0 5,-1 5,-3c0,-3 -3,-5 -9,-5c-17,0 -52,2 -55,2c-3,0 -38,-2 -57,-2c-6,0 -9,1 -9,5c0,2 2,3 5,3c4,0 11,1 17,2c12,3 18,12 19,32c1,18 1,34 1,122l0,99c0,54 0,99 -3,122c-2,16 -5,29 -16,31c-5,1 -12,2 -17,2c-3,0 -5,2 -5,3c0,3 3,5 9,5c17,0 52,-2 55,-2c3,0 38,2 69,2c6,0 9,-2 9,-5c0,-2 -1,-3 -5,-3c-5,0 -17,-1 -25,-2c-17,-2 -20,-15 -22,-31c-3,-24 -3,-68 -3,-122l0,-99l1,0z" class="fil3"/>
   <path id="svg_44" d="m2855,2648c0,-88 0,-104 1,-122c1,-20 6,-29 21,-32c7,-1 10,-2 14,-2c2,0 5,-1 5,-3c0,-3 -3,-5 -9,-5c-17,0 -52,2 -55,2c-3,0 -38,-2 -57,-2c-6,0 -9,1 -9,5c0,2 2,3 5,3c4,0 11,1 17,2c12,3 18,12 19,32c1,18 1,34 1,122l0,99c0,54 0,99 -3,122c-2,16 -5,29 -16,31c-5,1 -12,2 -17,2c-3,0 -5,2 -5,3c0,3 3,5 9,5c17,0 52,-2 55,-2c3,0 38,2 69,2c6,0 9,-2 9,-5c0,-2 -1,-3 -5,-3c-5,0 -17,-1 -25,-2c-17,-2 -20,-15 -22,-31c-3,-24 -3,-68 -3,-122l0,-99l1,0z" class="fil4 str0"/>
   <path id="svg_45" d="m3049,2747c0,54 0,99 -3,122c-2,16 -5,29 -16,31c-5,1 -12,2 -17,2c-3,0 -5,2 -5,3c0,3 3,5 9,5c17,0 52,-2 55,-2c3,0 38,2 69,2c6,0 9,-2 9,-5c0,-2 -1,-3 -5,-3c-5,0 -17,-1 -25,-2c-17,-2 -20,-15 -22,-31c-3,-24 -3,-68 -3,-122l0,-48c0,-4 1,-5 4,-5c10,0 71,0 85,2c17,2 27,12 29,20c2,7 3,15 3,20c0,3 1,5 4,5c4,0 4,-6 4,-11c0,-4 1,-26 2,-38c2,-19 5,-28 5,-32c0,-3 -1,-5 -3,-5c-2,0 -4,3 -6,6c-5,7 -12,9 -26,10c-8,1 -16,1 -25,1l-72,1c-3,0 -4,-2 -4,-5l0,-156c0,-5 2,-6 5,-6l87,2c22,1 35,11 38,18c3,7 5,17 5,21c0,4 1,7 4,7c3,0 4,-3 5,-6c1,-7 2,-32 3,-37c2,-16 5,-23 5,-27c0,-3 -1,-5 -3,-5c-2,0 -5,2 -8,3c-5,2 -14,2 -25,2c-13,1 -127,1 -139,1c-3,0 -38,-2 -64,-2c-6,0 -9,1 -9,5c0,2 2,3 5,3c5,0 15,1 19,2c19,4 23,13 24,32c1,18 1,34 1,122l0,99l1,1z" class="fil3"/>
   <path id="svg_46" d="m3049,2747c0,54 0,99 -3,122c-2,16 -5,29 -16,31c-5,1 -12,2 -17,2c-3,0 -5,2 -5,3c0,3 3,5 9,5c17,0 52,-2 55,-2c3,0 38,2 69,2c6,0 9,-2 9,-5c0,-2 -1,-3 -5,-3c-5,0 -17,-1 -25,-2c-17,-2 -20,-15 -22,-31c-3,-24 -3,-68 -3,-122l0,-48c0,-4 1,-5 4,-5c10,0 71,0 85,2c17,2 27,12 29,20c2,7 3,15 3,20c0,3 1,5 4,5c4,0 4,-6 4,-11c0,-4 1,-26 2,-38c2,-19 5,-28 5,-32c0,-3 -1,-5 -3,-5c-2,0 -4,3 -6,6c-5,7 -12,9 -26,10c-8,1 -16,1 -25,1l-72,1c-3,0 -4,-2 -4,-5l0,-156c0,-5 2,-6 5,-6l87,2c22,1 35,11 38,18c3,7 5,17 5,21c0,4 1,7 4,7c3,0 4,-3 5,-6c1,-7 2,-32 3,-37c2,-16 5,-23 5,-27c0,-3 -1,-5 -3,-5c-2,0 -5,2 -8,3c-5,2 -14,2 -25,2c-13,1 -127,1 -139,1c-3,0 -38,-2 -64,-2c-6,0 -9,1 -9,5c0,2 2,3 5,3c5,0 15,1 19,2c19,4 23,13 24,32c1,18 1,34 1,122l0,99l1,1z" class="fil4 str0"/>
   <path id="svg_47" d="m3430,2648c0,-88 0,-104 1,-122c1,-20 6,-29 21,-32c7,-1 10,-2 14,-2c2,0 5,-1 5,-3c0,-3 -3,-5 -9,-5c-17,0 -52,2 -55,2c-3,0 -38,-2 -57,-2c-6,0 -9,1 -9,5c0,2 2,3 5,3c4,0 11,1 17,2c12,3 18,12 19,32c1,18 1,34 1,122l0,99c0,54 0,99 -3,122c-2,16 -5,29 -16,31c-5,1 -12,2 -17,2c-3,0 -5,2 -5,3c0,3 3,5 9,5c17,0 52,-2 55,-2c3,0 38,2 69,2c6,0 9,-2 9,-5c0,-2 -1,-3 -5,-3c-5,0 -17,-1 -25,-2c-17,-2 -20,-15 -22,-31c-3,-24 -3,-68 -3,-122l0,-99l1,0z" class="fil3"/>
   <path id="svg_48" d="m3430,2648c0,-88 0,-104 1,-122c1,-20 6,-29 21,-32c7,-1 10,-2 14,-2c2,0 5,-1 5,-3c0,-3 -3,-5 -9,-5c-17,0 -52,2 -55,2c-3,0 -38,-2 -57,-2c-6,0 -9,1 -9,5c0,2 2,3 5,3c4,0 11,1 17,2c12,3 18,12 19,32c1,18 1,34 1,122l0,99c0,54 0,99 -3,122c-2,16 -5,29 -16,31c-5,1 -12,2 -17,2c-3,0 -5,2 -5,3c0,3 3,5 9,5c17,0 52,-2 55,-2c3,0 38,2 69,2c6,0 9,-2 9,-5c0,-2 -1,-3 -5,-3c-5,0 -17,-1 -25,-2c-17,-2 -20,-15 -22,-31c-3,-24 -3,-68 -3,-122l0,-99l1,0z" class="fil4 str0"/>
   <path id="svg_49" d="m3809,2919c36,0 79,-4 101,-13c10,-5 11,-6 15,-16c6,-19 12,-68 12,-72c0,-5 -1,-8 -4,-8c-3,0 -5,2 -6,8c-2,10 -9,35 -21,47c-23,23 -56,28 -98,28c-121,0 -204,-99 -204,-206c0,-58 10,-108 51,-147c20,-19 55,-41 130,-41c50,0 93,15 113,32c15,12 24,36 24,58c0,8 1,12 5,12c3,0 5,-3 5,-12c1,-8 1,-39 2,-58c1,-20 3,-27 3,-32c0,-3 -1,-6 -7,-6c-18,-1 -36,-5 -58,-8c-28,-5 -59,-7 -82,-7c-87,0 -138,27 -172,60c-50,50 -63,116 -63,154c0,54 14,118 68,167c45,40 101,61 186,61l0,-1z" class="fil3"/>
   <path id="svg_50" d="m3809,2919c36,0 79,-4 101,-13c10,-5 11,-6 15,-16c6,-19 12,-68 12,-72c0,-5 -1,-8 -4,-8c-3,0 -5,2 -6,8c-2,10 -9,35 -21,47c-23,23 -56,28 -98,28c-121,0 -204,-99 -204,-206c0,-58 10,-108 51,-147c20,-19 55,-41 130,-41c50,0 93,15 113,32c15,12 24,36 24,58c0,8 1,12 5,12c3,0 5,-3 5,-12c1,-8 1,-39 2,-58c1,-20 3,-27 3,-32c0,-3 -1,-6 -7,-6c-18,-1 -36,-5 -58,-8c-28,-5 -59,-7 -82,-7c-87,0 -138,27 -172,60c-50,50 -63,116 -63,154c0,54 14,118 68,167c45,40 101,61 186,61l0,-1z" class="fil4 str0"/>
   <polygon id="svg_51" points="274,2385 1120,2385 1120,2363 274,2363 " class="fil3"/>
   <polygon id="svg_52" points="274,2385 1120,2385 1120,2363 274,2363 " class="fil4 str0"/>
   <polygon id="svg_53" points="1707,2385 3956,2385 3956,2363 1707,2363 " class="fil3"/>
   <polygon id="svg_54" points="1707,2385 3956,2385 3956,2363 1707,2363 " class="fil4 str0"/>
   <path id="svg_55" d="m4159,2911c48,0 87,-38 87,-86c0,-48 -38,-86 -87,-86c-48,0 -87,38 -87,86c0,48 38,86 87,86zm0,-13c-40,0 -73,-32 -73,-73c0,-41 34,-73 73,-73c40,0 73,32 73,73c0,41 -34,73 -73,73zm13,-70c17,0 30,-7 30,-26c0,-20 -17,-25 -34,-25l-41,0l0,94l13,0l0,-44l16,0l28,44l16,0l-29,-44l1,1zm-32,-13l0,-24l25,0c10,0 23,2 23,11c0,15 -21,13 -32,13l-16,0z" class="fil1"/>
   <path id="svg_56" d="m897,3214l-69,169l29,0l17,-46l60,0l16,46l38,0l-64,-169l-28,0l1,0zm-14,102c8,-22 16,-43 23,-69l0,0c8,26 15,47 22,69l-46,0l1,0z" class="fil5"/>
   <path id="svg_57" d="m1107,3262l-32,0l0,121l32,0l0,-72c0,-20 12,-30 28,-30c17,0 24,11 24,28l0,74l32,0l0,-78c0,-30 -15,-46 -43,-46c-15,0 -30,6 -41,17l0,-14z" class="fil5"/>
   <path id="svg_58" d="m1281,3386c38,0 64,-27 64,-65c0,-39 -31,-62 -64,-62c-32,0 -63,23 -63,62c0,37 26,65 63,65zm0,-18c-23,0 -29,-26 -29,-47c0,-20 7,-44 29,-44c22,0 29,24 29,44c0,21 -6,47 -29,47z" class="fil5"/>
   <path id="svg_59" d="m1402,3262l-32,0l0,121l32,0l0,-72c0,-20 12,-30 28,-30c17,0 24,11 24,28l0,74l32,0l0,-78c0,-30 -15,-46 -43,-46c-15,0 -30,6 -41,17l0,-14z" class="fil5"/>
   <polygon id="svg_60" points="1514,3336 1574,3336 1574,3315 1514,3315 " class="fil6"/>
   <path id="svg_61" d="m1663,3279c18,0 28,21 28,42c0,21 -7,46 -29,46c-17,0 -30,-17 -30,-43c0,-28 11,-45 31,-45zm-31,-16l-32,0l0,181l32,0l0,-75c9,11 22,18 36,18c35,0 56,-34 56,-66c0,-27 -15,-61 -53,-61c-15,0 -30,7 -39,20l0,0l0,-17z" class="fil5"/>
   <path id="svg_62" d="m1783,3262l-32,0l0,121l32,0l0,-60c0,-26 11,-35 22,-35c7,0 10,1 15,4l12,-22c-7,-7 -15,-11 -22,-11c-10,0 -17,10 -21,15l-7,9l0,0l0,-21l1,0z" class="fil6"/>
   <path id="svg_63" d="m1905,3386c38,0 64,-27 64,-65c0,-39 -31,-62 -64,-62c-32,0 -63,23 -63,62c0,37 26,65 63,65zm0,-18c-23,0 -29,-26 -29,-47c0,-20 7,-44 29,-44c22,0 29,24 29,44c0,21 -6,47 -29,47z" class="fil5"/>
   <path id="svg_64" d="m2031,3383l0,-104l29,0l0,-16l-29,0l0,-20c0,-15 10,-18 15,-18c5,0 9,1 14,2l6,-16c-8,-4 -18,-5 -25,-5c-18,0 -42,11 -42,43l0,14l-19,0l0,16l19,0l0,104l32,0z" class="fil6"/>
   <path id="svg_65" d="m2079,3262l0,121l32,0l0,-121l-32,0zm16,-16c12,0 19,-10 19,-20c0,-9 -9,-19 -20,-19c-11,0 -19,9 -19,19c0,10 8,20 19,20l1,0z" class="fil5"/>
   <path id="svg_66" d="m2182,3226l-32,7l0,29l-17,0l0,16l17,0l0,69c0,25 12,39 38,39c11,0 22,-3 32,-8l-6,-16c-4,2 -8,4 -15,4c-11,0 -17,-8 -17,-28l0,-59l32,0l0,-16l-32,0l0,-36l0,-1z" class="fil6"/>
   <path id="svg_67" d="m2308,3262l0,121l32,0l0,-121l-32,0zm16,-16c12,0 19,-10 19,-20c0,-9 -9,-19 -20,-19c-11,0 -19,9 -19,19c0,10 8,20 19,20l1,0z" class="fil5"/>
   <path id="svg_68" d="m2404,3262l-32,0l0,121l32,0l0,-72c0,-20 12,-30 28,-30c17,0 24,11 24,28l0,74l32,0l0,-78c0,-30 -15,-46 -43,-46c-15,0 -30,6 -41,17l0,-14z" class="fil5"/>
   <path id="svg_69" d="m2598,3270c-9,-8 -22,-11 -35,-11c-24,0 -42,14 -42,33c0,15 9,24 23,34c12,8 24,14 24,26c0,10 -8,15 -17,15c-9,0 -19,-6 -26,-12l-10,17c11,8 24,14 40,14c27,0 45,-18 45,-35c0,-11 -5,-24 -22,-36c-14,-10 -25,-15 -25,-25c0,-8 7,-12 14,-12c6,0 13,2 21,8l10,-14l0,-2z" class="fil6"/>
   <path id="svg_70" d="m2663,3226l-32,7l0,29l-17,0l0,16l17,0l0,69c0,25 12,39 38,39c11,0 22,-3 32,-8l-6,-16c-4,2 -8,4 -15,4c-11,0 -17,-8 -17,-28l0,-59l32,0l0,-16l-32,0l0,-36l0,-1z" class="fil6"/>
   <path id="svg_71" d="m2719,3262l0,121l32,0l0,-121l-32,0zm16,-16c12,0 19,-10 19,-20c0,-9 -9,-19 -20,-19c-11,0 -19,9 -19,19c0,10 8,20 19,20l1,0z" class="fil5"/>
   <path id="svg_72" d="m2822,3226l-32,7l0,29l-17,0l0,16l17,0l0,69c0,25 12,39 38,39c11,0 22,-3 32,-8l-6,-16c-4,2 -8,4 -15,4c-11,0 -17,-8 -17,-28l0,-59l32,0l0,-16l-32,0l0,-36l0,-1z" class="fil6"/>
   <path id="svg_73" d="m2956,3383l32,0l0,-121l-32,0l0,70c0,22 -13,31 -24,31c-15,0 -23,-11 -23,-28l0,-73l-32,0l0,78c0,30 15,46 41,46c15,0 27,-7 38,-18l0,15z" class="fil5"/>
   <path id="svg_74" d="m3059,3226l-32,7l0,29l-17,0l0,16l17,0l0,69c0,25 12,39 38,39c11,0 22,-3 32,-8l-6,-16c-4,2 -8,4 -15,4c-11,0 -17,-8 -17,-28l0,-59l32,0l0,-16l-32,0l0,-36l0,-1z" class="fil6"/>
   <path id="svg_75" d="m3115,3262l0,121l32,0l0,-121l-32,0zm16,-16c12,0 19,-10 19,-20c0,-9 -9,-19 -20,-19c-11,0 -19,9 -19,19c0,10 8,20 19,20l1,0z" class="fil5"/>
   <path id="svg_76" d="m3236,3386c38,0 64,-27 64,-65c0,-39 -31,-62 -64,-62c-32,0 -63,23 -63,62c0,37 26,65 63,65zm0,-18c-23,0 -29,-26 -29,-47c0,-20 7,-44 29,-44c22,0 29,24 29,44c0,21 -6,47 -29,47z" class="fil5"/>
   <path id="svg_77" d="m3358,3262l-32,0l0,121l32,0l0,-72c0,-20 12,-30 28,-30c17,0 24,11 24,28l0,74l32,0l0,-78c0,-30 -15,-46 -43,-46c-15,0 -30,6 -41,17l0,-14z" class="fil5"/>
  </g>
 </g>
</svg>