<?xml version="1.0" encoding="UTF-8"?>
<!DOCTYPE svg PUBLIC "-//W3C//DTD SVG 1.1//EN" "http://www.w3.org/Graphics/SVG/1.1/DTD/svg11.dtd">
<!-- Creator: CorelDRAW X6 -->
<svg xmlns="http://www.w3.org/2000/svg" xml:space="preserve" width="4.01389in" height="3.44444in" version="1.1" style="shape-rendering:geometricPrecision; text-rendering:geometricPrecision; image-rendering:optimizeQuality; fill-rule:evenodd; clip-rule:evenodd"
viewBox="0 0 4014 3444"
 xmlns:xlink="http://www.w3.org/1999/xlink">
 <defs>
  <style type="text/css">
   <![CDATA[
    .str0 {stroke:#008DD0;stroke-width:9.29528}
    .fil2 {fill:none}
    .fil4 {fill:none;fill-rule:nonzero}
    .fil1 {fill:#008DD0}
    .fil5 {fill:#373435}
    .fil3 {fill:#008DD0;fill-rule:nonzero}
    .fil0 {fill:#2BBFCF;fill-rule:nonzero}
    .fil6 {fill:#373435;fill-rule:nonzero}
   ]]>
  </style>
 </defs>
 <g id="Layer_x0020_1">
  <metadata id="CorelCorpID_0Corel-Layer"/>
  <path class="fil0" d="M2698 214c-188,-151 -484,-129 -682,-43 0,0 -197,87 -518,233 -447,187 -739,80 -929,-73 155,63 301,178 819,-17 284,-123 393,-171 479,-209 226,-114 604,-183 831,109z"/>
  <path class="fil0" d="M2878 426c-188,-151 -484,-129 -682,-43 0,0 -197,87 -518,233 -447,187 -739,80 -929,-73 155,63 301,177 819,-17 284,-123 393,-171 479,-209 226,-114 604,-183 831,109z"/>
  <path class="fil0" d="M3050 661c-221,-176 -492,-147 -691,-61 0,0 -197,87 -518,233 -447,187 -739,80 -929,-73 155,63 301,177 819,-17 284,-123 393,-171 479,-209 226,-114 625,-200 839,128z"/>
  <path class="fil0" d="M1178 1509c-1,5 0,0 0,0 213,-353 535,-372 734,-280 153,78 193,237 169,370 169,-47 201,-315 295,-497 129,-273 394,-385 621,-394 -570,-121 -769,393 -838,642 -101,-370 -836,-421 -982,160z"/>
  <path class="fil1" d="M126 2201c-11,30 -23,52 -50,56 -5,1 -13,1 -17,1 -3,0 -5,1 -5,4 0,4 4,5 11,5 28,0 61,-2 67,-2 7,0 32,2 46,2 5,0 9,-1 9,-5 0,-2 -2,-4 -6,-4l-6 0c-10,0 -23,-5 -23,-17 0,-11 3,-25 8,-40l36 -105c1,-3 3,-5 6,-5l128 0c3,0 4,1 5,4l55 146c4,10 0,15 -4,16 -2,1 -4,2 -4,4 0,4 7,4 18,4 41,1 85,1 93,1 7,0 12,-1 12,-5 0,-3 -2,-4 -6,-4 -6,0 -15,-1 -24,-4 -13,-4 -30,-13 -51,-66 -36,-90 -130,-336 -139,-359 -7,-18 -10,-21 -13,-21 -4,0 -6,4 -13,23l-135 370zm83 -132c-2,0 -3,-1 -2,-4l52 -161c3,-9 6,-9 9,0l57 161c1,2 1,4 -2,4l-114 0z"/>
  <path class="fil2 str0" d="M126 2201c-11,30 -23,52 -50,56 -5,1 -13,1 -17,1 -3,0 -5,1 -5,4 0,4 4,5 11,5 28,0 61,-2 67,-2 7,0 32,2 46,2 5,0 9,-1 9,-5 0,-2 -2,-4 -6,-4l-6 0c-10,0 -23,-5 -23,-17 0,-11 3,-25 8,-40l36 -105c1,-3 3,-5 6,-5l128 0c3,0 4,1 5,4l55 146c4,10 0,15 -4,16 -2,1 -4,2 -4,4 0,4 7,4 18,4 41,1 85,1 93,1 7,0 12,-1 12,-5 0,-3 -2,-4 -6,-4 -6,0 -15,-1 -24,-4 -13,-4 -30,-13 -51,-66 -36,-90 -130,-336 -139,-359 -7,-18 -10,-21 -13,-21 -4,0 -6,4 -13,23l-135 370z"/>
  <path class="fil2 str0" d="M209 2069c-2,0 -3,-1 -2,-4l52 -161c3,-9 6,-9 9,0l57 161c1,2 1,4 -2,4l-114 0z"/>
  <path class="fil1" d="M920 2310c96,53 173,80 245,80 88,0 155,-26 189,-41 4,-2 5,-4 5,-6 0,-2 -1,-4 -4,-4 -2,0 -5,1 -8,2 -41,17 -88,23 -117,23 -30,0 -120,-3 -251,-70l-122 -63c39,-26 105,-95 105,-200 0,-138 -100,-223 -234,-223 -164,0 -235,136 -235,233 0,107 68,234 233,234 32,0 72,-9 93,-20l100 55zm-370 -286c0,-130 74,-196 174,-196 94,0 181,77 181,220 0,173 -111,204 -164,204 -107,0 -190,-89 -190,-228z"/>
  <path class="fil2 str0" d="M920 2310c96,53 173,80 245,80 88,0 155,-26 189,-41 4,-2 5,-4 5,-6 0,-2 -1,-4 -4,-4 -2,0 -5,1 -8,2 -41,17 -88,23 -117,23 -30,0 -120,-3 -251,-70l-122 -63c39,-26 105,-95 105,-200 0,-138 -100,-223 -234,-223 -164,0 -235,136 -235,233 0,107 68,234 233,234 32,0 72,-9 93,-20l100 55z"/>
  <path class="fil2 str0" d="M550 2024c0,-130 74,-196 174,-196 94,0 181,77 181,220 0,173 -111,204 -164,204 -107,0 -190,-89 -190,-228z"/>
  <path class="fil3" d="M1068 2076c0,87 23,129 52,157 42,40 102,42 123,42 35,0 80,-6 123,-44 48,-42 55,-114 55,-178l0 -64c0,-93 0,-110 1,-129 1,-21 6,-31 22,-34 7,-2 11,-2 15,-2 2,0 5,-1 5,-4 0,-4 -3,-5 -10,-5 -18,0 -46,2 -50,2 -4,0 -36,-2 -63,-2 -7,0 -10,1 -10,5 0,2 2,4 5,4 5,0 15,1 20,2 20,4 24,14 26,34 1,19 1,36 1,129l0 74c0,61 -7,112 -35,146 -21,26 -57,43 -93,43 -34,0 -61,-5 -90,-33 -26,-24 -45,-61 -45,-147l0 -83c0,-93 0,-110 1,-129 1,-21 6,-32 22,-34 7,-1 11,-2 15,-2 2,0 5,-1 5,-4 0,-4 -3,-5 -10,-5 -18,0 -54,2 -59,2 -5,0 -42,-2 -68,-2 -7,0 -10,1 -10,5 0,2 2,4 5,4 5,0 15,1 20,2 20,4 24,14 26,34 1,19 1,36 1,129l0 87z"/>
  <path class="fil4 str0" d="M1068 2076c0,87 23,129 52,157 42,40 102,42 123,42 35,0 80,-6 123,-44 48,-42 55,-114 55,-178l0 -64c0,-93 0,-110 1,-129 1,-21 6,-31 22,-34 7,-2 11,-2 15,-2 2,0 5,-1 5,-4 0,-4 -3,-5 -10,-5 -18,0 -46,2 -50,2 -4,0 -36,-2 -63,-2 -7,0 -10,1 -10,5 0,2 2,4 5,4 5,0 15,1 20,2 20,4 24,14 26,34 1,19 1,36 1,129l0 74c0,61 -7,112 -35,146 -21,26 -57,43 -93,43 -34,0 -61,-5 -90,-33 -26,-24 -45,-61 -45,-147l0 -83c0,-93 0,-110 1,-129 1,-21 6,-32 22,-34 7,-1 11,-2 15,-2 2,0 5,-1 5,-4 0,-4 -3,-5 -10,-5 -18,0 -54,2 -59,2 -5,0 -42,-2 -68,-2 -7,0 -10,1 -10,5 0,2 2,4 5,4 5,0 15,1 20,2 20,4 24,14 26,34 1,19 1,36 1,129l0 87z"/>
  <path class="fil1" d="M1543 2201c-11,30 -23,52 -50,56 -5,1 -13,1 -17,1 -3,0 -5,1 -5,4 0,4 4,5 11,5 28,0 61,-2 67,-2 7,0 32,2 46,2 5,0 9,-1 9,-5 0,-2 -2,-4 -6,-4l-6 0c-10,0 -23,-5 -23,-17 0,-11 3,-25 8,-40l36 -105c1,-3 3,-5 6,-5l128 0c3,0 4,1 5,4l55 146c4,10 0,15 -4,16 -2,1 -4,2 -4,4 0,4 7,4 18,4 41,1 85,1 93,1 7,0 12,-1 12,-5 0,-3 -2,-4 -6,-4 -6,0 -15,-1 -24,-4 -13,-4 -30,-13 -51,-66 -36,-90 -130,-336 -139,-359 -7,-18 -10,-21 -13,-21 -4,0 -6,4 -13,23l-135 370zm83 -132c-2,0 -3,-1 -2,-4l52 -161c3,-9 6,-9 9,0l57 161c1,2 1,4 -2,4l-114 0z"/>
  <path class="fil2 str0" d="M1543 2201c-11,30 -23,52 -50,56 -5,1 -13,1 -17,1 -3,0 -5,1 -5,4 0,4 4,5 11,5 28,0 61,-2 67,-2 7,0 32,2 46,2 5,0 9,-1 9,-5 0,-2 -2,-4 -6,-4l-6 0c-10,0 -23,-5 -23,-17 0,-11 3,-25 8,-40l36 -105c1,-3 3,-5 6,-5l128 0c3,0 4,1 5,4l55 146c4,10 0,15 -4,16 -2,1 -4,2 -4,4 0,4 7,4 18,4 41,1 85,1 93,1 7,0 12,-1 12,-5 0,-3 -2,-4 -6,-4 -6,0 -15,-1 -24,-4 -13,-4 -30,-13 -51,-66 -36,-90 -130,-336 -139,-359 -7,-18 -10,-21 -13,-21 -4,0 -6,4 -13,23l-135 370z"/>
  <path class="fil2 str0" d="M1626 2069c-2,0 -3,-1 -2,-4l52 -161c3,-9 6,-9 9,0l57 161c1,2 1,4 -2,4l-114 0z"/>
  <path class="fil1" d="M2009 2094c0,57 0,104 -3,129 -2,17 -5,30 -17,33 -5,1 -13,2 -18,2 -4,0 -5,2 -5,4 0,4 3,5 10,5 18,0 55,-2 56,-2 3,0 40,2 73,2 7,0 10,-2 10,-5 0,-2 -1,-4 -5,-4 -5,0 -18,-1 -27,-2 -18,-2 -21,-15 -23,-33 -3,-25 -3,-72 -3,-129l0 -14c0,-3 1,-5 4,-5l73 1c4,0 5,1 8,4 12,15 40,55 65,88 34,45 55,74 80,88 15,8 30,11 64,11l42 0c11,0 14,-1 14,-5 0,-2 -2,-4 -5,-4 -4,0 -12,0 -23,-2 -15,-2 -40,-9 -73,-43 -35,-37 -75,-90 -124,-152 54,-49 72,-93 72,-138 0,-41 -26,-70 -41,-81 -32,-23 -71,-26 -109,-26 -18,0 -64,2 -70,2 -3,0 -40,-2 -67,-2 -7,0 -10,1 -10,5 0,2 2,4 5,4 5,0 15,1 20,2 20,4 24,14 26,34 1,19 1,36 1,129l0 105zm48 -248c0,-4 2,-6 5,-7 6,-2 22,-4 40,-4 64,0 103,45 103,119 0,45 -15,77 -36,92 -14,10 -30,11 -45,11 -26,0 -54,-4 -63,-10 -3,-2 -4,-4 -4,-7l0 -195z"/>
  <path class="fil2 str0" d="M2009 2094c0,57 0,104 -3,129 -2,17 -5,30 -17,33 -5,1 -13,2 -18,2 -4,0 -5,2 -5,4 0,4 3,5 10,5 18,0 55,-2 56,-2 3,0 40,2 73,2 7,0 10,-2 10,-5 0,-2 -1,-4 -5,-4 -5,0 -18,-1 -27,-2 -18,-2 -21,-15 -23,-33 -3,-25 -3,-72 -3,-129l0 -14c0,-3 1,-5 4,-5l73 1c4,0 5,1 8,4 12,15 40,55 65,88 34,45 55,74 80,88 15,8 30,11 64,11l42 0c11,0 14,-1 14,-5 0,-2 -2,-4 -5,-4 -4,0 -12,0 -23,-2 -15,-2 -40,-9 -73,-43 -35,-37 -75,-90 -124,-152 54,-49 72,-93 72,-138 0,-41 -26,-70 -41,-81 -32,-23 -71,-26 -109,-26 -18,0 -64,2 -70,2 -3,0 -40,-2 -67,-2 -7,0 -10,1 -10,5 0,2 2,4 5,4 5,0 15,1 20,2 20,4 24,14 26,34 1,19 1,36 1,129l0 105z"/>
  <path class="fil2 str0" d="M2056 1846c0,-4 2,-6 5,-7 6,-2 22,-4 40,-4 64,0 103,45 103,119 0,45 -15,77 -36,92 -14,10 -30,11 -45,11 -26,0 -54,-4 -63,-10 -3,-2 -4,-4 -4,-7l0 -195z"/>
  <path class="fil3" d="M2495 1989c0,-93 0,-110 1,-129 1,-21 6,-31 22,-34 7,-1 11,-2 15,-2 2,0 5,-1 5,-4 0,-4 -3,-5 -10,-5 -18,0 -55,2 -58,2 -3,0 -40,-2 -60,-2 -7,0 -10,1 -10,5 0,2 2,4 5,4 4,0 12,1 18,2 13,3 19,13 20,33 1,19 1,36 1,129l0 105c0,57 0,104 -3,129 -2,17 -5,30 -17,33 -5,1 -13,2 -18,2 -4,0 -5,2 -5,4 0,4 3,5 10,5 18,0 55,-2 58,-2 3,0 40,2 73,2 7,0 10,-2 10,-5 0,-2 -1,-4 -5,-4 -5,0 -18,-1 -27,-2 -18,-2 -21,-15 -23,-33 -3,-25 -3,-72 -3,-129l0 -105z"/>
  <path class="fil4 str0" d="M2495 1989c0,-93 0,-110 1,-129 1,-21 6,-31 22,-34 7,-1 11,-2 15,-2 2,0 5,-1 5,-4 0,-4 -3,-5 -10,-5 -18,0 -55,2 -58,2 -3,0 -40,-2 -60,-2 -7,0 -10,1 -10,5 0,2 2,4 5,4 4,0 12,1 18,2 13,3 19,13 20,33 1,19 1,36 1,129l0 105c0,57 0,104 -3,129 -2,17 -5,30 -17,33 -5,1 -13,2 -18,2 -4,0 -5,2 -5,4 0,4 3,5 10,5 18,0 55,-2 58,-2 3,0 40,2 73,2 7,0 10,-2 10,-5 0,-2 -1,-4 -5,-4 -5,0 -18,-1 -27,-2 -18,-2 -21,-15 -23,-33 -3,-25 -3,-72 -3,-129l0 -105z"/>
  <path class="fil3" d="M2654 2076c0,87 23,129 52,157 42,40 102,42 123,42 35,0 80,-6 123,-44 48,-42 55,-114 55,-178l0 -64c0,-93 0,-110 1,-129 1,-21 6,-31 22,-34 7,-2 11,-2 15,-2 2,0 5,-1 5,-4 0,-4 -3,-5 -10,-5 -18,0 -46,2 -50,2 -4,0 -36,-2 -63,-2 -7,0 -10,1 -10,5 0,2 2,4 5,4 5,0 15,1 20,2 20,4 24,14 26,34 1,19 1,36 1,129l0 74c0,61 -7,112 -35,146 -21,26 -57,43 -93,43 -34,0 -61,-5 -90,-33 -26,-24 -45,-61 -45,-147l0 -83c0,-93 0,-110 1,-129 1,-21 6,-32 22,-34 7,-1 11,-2 15,-2 2,0 5,-1 5,-4 0,-4 -3,-5 -10,-5 -18,0 -54,2 -59,2 -5,0 -42,-2 -68,-2 -7,0 -10,1 -10,5 0,2 2,4 5,4 5,0 15,1 20,2 20,4 24,14 26,34 1,19 1,36 1,129l0 87z"/>
  <path class="fil4 str0" d="M2654 2076c0,87 23,129 52,157 42,40 102,42 123,42 35,0 80,-6 123,-44 48,-42 55,-114 55,-178l0 -64c0,-93 0,-110 1,-129 1,-21 6,-31 22,-34 7,-2 11,-2 15,-2 2,0 5,-1 5,-4 0,-4 -3,-5 -10,-5 -18,0 -46,2 -50,2 -4,0 -36,-2 -63,-2 -7,0 -10,1 -10,5 0,2 2,4 5,4 5,0 15,1 20,2 20,4 24,14 26,34 1,19 1,36 1,129l0 74c0,61 -7,112 -35,146 -21,26 -57,43 -93,43 -34,0 -61,-5 -90,-33 -26,-24 -45,-61 -45,-147l0 -83c0,-93 0,-110 1,-129 1,-21 6,-32 22,-34 7,-1 11,-2 15,-2 2,0 5,-1 5,-4 0,-4 -3,-5 -10,-5 -18,0 -54,2 -59,2 -5,0 -42,-2 -68,-2 -7,0 -10,1 -10,5 0,2 2,4 5,4 5,0 15,1 20,2 20,4 24,14 26,34 1,19 1,36 1,129l0 87z"/>
  <path class="fil3" d="M3550 1824c-1,-11 -3,-16 -7,-16 -4,0 -7,4 -9,10l-175 374 -182 -374c-3,-7 -5,-9 -9,-9 -4,0 -5,4 -7,11l-43 388c-2,23 -4,46 -24,49 -9,2 -13,2 -18,2 -3,0 -6,1 -6,3 0,4 4,5 10,5 16,0 45,-2 50,-2 5,0 33,2 55,2 7,0 11,-1 11,-5 0,-2 -2,-3 -5,-3 -4,0 -13,-1 -23,-3 -9,-2 -15,-10 -15,-18 0,-10 0,-21 1,-30l24 -276 2 0c7,16 73,159 79,170 3,6 54,109 70,138 11,21 14,27 18,27 5,0 7,-5 20,-32l146 -310 2 0 29 307c1,11 1,21 -2,21 -3,1 -4,2 -4,4 0,3 3,5 17,6 22,2 86,4 99,4 7,0 13,-2 13,-5 0,-2 -2,-3 -5,-3 -6,0 -21,0 -39,-5 -26,-8 -30,-42 -32,-63l-40 -366z"/>
  <path class="fil4 str0" d="M3550 1824c-1,-11 -3,-16 -7,-16 -4,0 -7,4 -9,10l-175 374 -182 -374c-3,-7 -5,-9 -9,-9 -4,0 -5,4 -7,11l-43 388c-2,23 -4,46 -24,49 -9,2 -13,2 -18,2 -3,0 -6,1 -6,3 0,4 4,5 10,5 16,0 45,-2 50,-2 5,0 33,2 55,2 7,0 11,-1 11,-5 0,-2 -2,-3 -5,-3 -4,0 -13,-1 -23,-3 -9,-2 -15,-10 -15,-18 0,-10 0,-21 1,-30l24 -276 2 0c7,16 73,159 79,170 3,6 54,109 70,138 11,21 14,27 18,27 5,0 7,-5 20,-32l146 -310 2 0 29 307c1,11 1,21 -2,21 -3,1 -4,2 -4,4 0,3 3,5 17,6 22,2 86,4 99,4 7,0 13,-2 13,-5 0,-2 -2,-3 -5,-3 -6,0 -21,0 -39,-5 -26,-8 -30,-42 -32,-63l-40 -366z"/>
  <path class="fil1" d="M17 2773c0,65 41,141 140,141 87,0 143,-67 143,-147 0,-84 -60,-135 -141,-135 -99,0 -142,82 -142,141zm34 -10c0,-79 45,-118 105,-118 57,0 109,46 109,133 0,105 -67,123 -99,123 -65,0 -115,-54 -115,-138z"/>
  <path class="fil2 str0" d="M17 2773c0,65 41,141 140,141 87,0 143,-67 143,-147 0,-84 -60,-135 -141,-135 -99,0 -142,82 -142,141z"/>
  <path class="fil2 str0" d="M51 2763c0,-79 45,-118 105,-118 57,0 109,46 109,133 0,105 -67,123 -99,123 -65,0 -115,-54 -115,-138z"/>
  <path class="fil3" d="M370 2833c0,25 0,46 -1,57 -1,8 -2,13 -8,14 -2,1 -6,1 -8,1 -2,0 -2,1 -2,2 0,2 1,2 4,2 8,0 24,-1 26,-1 1,0 18,1 32,1 3,0 4,-1 4,-2 0,-1 -1,-2 -2,-2 -2,0 -8,-1 -12,-1 -8,-1 -9,-7 -10,-14 -1,-11 -1,-32 -1,-57l0 -22c0,-2 1,-2 2,-2 4,0 33,0 40,1 8,1 12,6 14,9 1,3 1,7 2,9 0,1 1,2 2,2 2,0 2,-3 2,-5 0,-2 1,-12 1,-18 1,-9 2,-13 2,-15 0,-1 0,-2 -1,-2 -1,0 -2,1 -3,3 -2,3 -6,4 -12,5 -4,0 -7,0 -12,0l-34 0c-2,0 -2,-1 -2,-2l0 -73c0,-2 1,-3 2,-3l40 1c10,0 16,5 18,8 2,3 2,8 2,10 0,2 1,3 2,3 1,0 2,-2 2,-3 1,-3 1,-15 1,-17 1,-7 2,-11 2,-12 0,-1 -1,-2 -2,-2 -1,0 -2,1 -4,2 -2,1 -7,1 -12,1 -6,0 -59,0 -65,0 -1,0 -18,-1 -30,-1 -3,0 -4,1 -4,2 0,1 1,2 2,2 2,0 7,0 9,1 9,2 11,6 11,15 1,8 1,16 1,57l0 46z"/>
  <path class="fil4 str0" d="M370 2833c0,25 0,46 -1,57 -1,8 -2,13 -8,14 -2,1 -6,1 -8,1 -2,0 -2,1 -2,2 0,2 1,2 4,2 8,0 24,-1 26,-1 1,0 18,1 32,1 3,0 4,-1 4,-2 0,-1 -1,-2 -2,-2 -2,0 -8,-1 -12,-1 -8,-1 -9,-7 -10,-14 -1,-11 -1,-32 -1,-57l0 -22c0,-2 1,-2 2,-2 4,0 33,0 40,1 8,1 12,6 14,9 1,3 1,7 2,9 0,1 1,2 2,2 2,0 2,-3 2,-5 0,-2 1,-12 1,-18 1,-9 2,-13 2,-15 0,-1 0,-2 -1,-2 -1,0 -2,1 -3,3 -2,3 -6,4 -12,5 -4,0 -7,0 -12,0l-34 0c-2,0 -2,-1 -2,-2l0 -73c0,-2 1,-3 2,-3l40 1c10,0 16,5 18,8 2,3 2,8 2,10 0,2 1,3 2,3 1,0 2,-2 2,-3 1,-3 1,-15 1,-17 1,-7 2,-11 2,-12 0,-1 -1,-2 -2,-2 -1,0 -2,1 -4,2 -2,1 -7,1 -12,1 -6,0 -59,0 -65,0 -1,0 -18,-1 -30,-1 -3,0 -4,1 -4,2 0,1 1,2 2,2 2,0 7,0 9,1 9,2 11,6 11,15 1,8 1,16 1,57l0 46z"/>
  <path class="fil3" d="M712 2653l45 1c35,1 43,9 44,20l0 4c0,5 1,6 3,6 1,0 3,-1 3,-5 0,-4 1,-29 1,-40 0,-2 0,-4 -2,-4 -3,0 -13,4 -36,4l-135 0c-4,0 -18,-1 -28,-2 -10,-1 -13,-4 -16,-4 -1,0 -3,5 -4,7 -1,3 -8,34 -8,37 0,2 1,3 2,3 1,0 3,-1 4,-4 1,-3 2,-5 6,-11 6,-9 14,-11 37,-12l53 -1 0 152c0,35 0,63 -2,78 -1,10 -3,18 -10,20 -3,1 -8,1 -11,1 -2,0 -3,1 -3,2 0,2 2,3 6,3 11,0 33,-1 35,-1 2,0 24,1 44,1 4,0 6,-1 6,-3 0,-1 -1,-2 -3,-2 -3,0 -11,-1 -16,-1 -11,-1 -13,-9 -14,-20 -2,-15 -2,-44 -2,-78l0 -152z"/>
  <path class="fil4 str0" d="M712 2653l45 1c35,1 43,9 44,20l0 4c0,5 1,6 3,6 1,0 3,-1 3,-5 0,-4 1,-29 1,-40 0,-2 0,-4 -2,-4 -3,0 -13,4 -36,4l-135 0c-4,0 -18,-1 -28,-2 -10,-1 -13,-4 -16,-4 -1,0 -3,5 -4,7 -1,3 -8,34 -8,37 0,2 1,3 2,3 1,0 3,-1 4,-4 1,-3 2,-5 6,-11 6,-9 14,-11 37,-12l53 -1 0 152c0,35 0,63 -2,78 -1,10 -3,18 -10,20 -3,1 -8,1 -11,1 -2,0 -3,1 -3,2 0,2 2,3 6,3 11,0 33,-1 35,-1 2,0 24,1 44,1 4,0 6,-1 6,-3 0,-1 -1,-2 -3,-2 -3,0 -11,-1 -16,-1 -11,-1 -13,-9 -14,-20 -2,-15 -2,-44 -2,-78l0 -152z"/>
  <path class="fil3" d="M1023 2787c0,-41 0,-48 1,-57 1,-9 3,-14 10,-15 3,-1 5,-1 7,-1 1,0 2,-1 2,-2 0,-2 -1,-2 -4,-2 -8,0 -24,1 -26,1 -1,0 -18,-1 -30,-1 -3,0 -4,1 -4,2 0,1 1,2 2,2 2,0 7,0 9,1 9,2 11,6 11,15 1,8 1,16 1,57l0 6c0,1 -1,2 -2,2l-111 0c-1,0 -2,0 -2,-2l0 -6c0,-41 0,-48 1,-57 1,-9 3,-14 10,-15 3,-1 5,-1 7,-1 1,0 2,-1 2,-2 0,-2 -1,-2 -4,-2 -8,0 -24,1 -26,1 -1,0 -18,-1 -30,-1 -3,0 -4,1 -4,2 0,1 1,2 2,2 2,0 7,0 9,1 9,2 11,6 11,15 1,8 1,16 1,57l0 46c0,25 0,46 -1,57 -1,8 -2,13 -8,14 -2,1 -6,1 -8,1 -2,0 -2,1 -2,2 0,2 1,2 4,2 8,0 24,-1 26,-1 1,0 18,1 32,1 3,0 4,-1 4,-2 0,-1 -1,-2 -2,-2 -2,0 -8,-1 -12,-1 -8,-1 -9,-7 -10,-14 -1,-11 -1,-32 -1,-57l0 -28c0,-1 1,-2 2,-2l111 0c1,0 2,1 2,2l0 28c0,25 0,46 -1,57 -1,8 -2,13 -8,14 -2,1 -6,1 -8,1 -2,0 -2,1 -2,2 0,2 1,2 4,2 8,0 24,-1 26,-1 1,0 18,1 32,1 3,0 4,-1 4,-2 0,-1 -1,-2 -2,-2 -2,0 -8,-1 -12,-1 -8,-1 -9,-7 -10,-14 -1,-11 -1,-32 -1,-57l0 -46z"/>
  <path class="fil4 str0" d="M1023 2787c0,-41 0,-48 1,-57 1,-9 3,-14 10,-15 3,-1 5,-1 7,-1 1,0 2,-1 2,-2 0,-2 -1,-2 -4,-2 -8,0 -24,1 -26,1 -1,0 -18,-1 -30,-1 -3,0 -4,1 -4,2 0,1 1,2 2,2 2,0 7,0 9,1 9,2 11,6 11,15 1,8 1,16 1,57l0 6c0,1 -1,2 -2,2l-111 0c-1,0 -2,0 -2,-2l0 -6c0,-41 0,-48 1,-57 1,-9 3,-14 10,-15 3,-1 5,-1 7,-1 1,0 2,-1 2,-2 0,-2 -1,-2 -4,-2 -8,0 -24,1 -26,1 -1,0 -18,-1 -30,-1 -3,0 -4,1 -4,2 0,1 1,2 2,2 2,0 7,0 9,1 9,2 11,6 11,15 1,8 1,16 1,57l0 46c0,25 0,46 -1,57 -1,8 -2,13 -8,14 -2,1 -6,1 -8,1 -2,0 -2,1 -2,2 0,2 1,2 4,2 8,0 24,-1 26,-1 1,0 18,1 32,1 3,0 4,-1 4,-2 0,-1 -1,-2 -2,-2 -2,0 -8,-1 -12,-1 -8,-1 -9,-7 -10,-14 -1,-11 -1,-32 -1,-57l0 -28c0,-1 1,-2 2,-2l111 0c1,0 2,1 2,2l0 28c0,25 0,46 -1,57 -1,8 -2,13 -8,14 -2,1 -6,1 -8,1 -2,0 -2,1 -2,2 0,2 1,2 4,2 8,0 24,-1 26,-1 1,0 18,1 32,1 3,0 4,-1 4,-2 0,-1 -1,-2 -2,-2 -2,0 -8,-1 -12,-1 -8,-1 -9,-7 -10,-14 -1,-11 -1,-32 -1,-57l0 -46z"/>
  <path class="fil3" d="M1106 2833c0,25 0,46 -1,57 -1,8 -2,13 -8,14 -2,1 -6,1 -8,1 -2,0 -2,1 -2,2 0,2 1,2 4,2 8,0 24,-1 26,-1 8,0 25,2 65,2 10,0 12,0 14,-7 1,-6 3,-23 3,-25 0,-2 0,-4 -2,-4 -1,0 -2,1 -2,4 -2,11 -5,16 -12,19 -7,3 -18,3 -25,3 -26,0 -30,-3 -30,-22 0,-6 0,-36 0,-45l0 -23c0,-1 1,-2 2,-2 4,0 30,1 38,1 10,1 13,6 14,9 1,3 1,6 1,9 0,1 1,2 2,2 2,0 2,-3 2,-5 0,-2 1,-12 1,-17 1,-9 2,-13 2,-15 0,-2 -1,-2 -1,-2 -1,0 -2,1 -4,3 -2,3 -6,3 -12,4 -6,1 -38,1 -42,1 -1,0 -2,-1 -2,-3l0 -73c0,-2 1,-3 2,-3 3,0 32,0 36,1 14,2 17,5 19,9 1,3 2,8 2,9 0,2 1,3 2,3 1,0 2,-2 2,-3 1,-3 1,-15 1,-17 1,-7 2,-11 2,-12 0,-1 0,-2 -1,-2 -1,0 -2,1 -4,1 -2,1 -6,1 -11,1 -6,0 -58,0 -60,0 -1,0 -18,-1 -30,-1 -3,0 -4,1 -4,2 0,1 1,2 2,2 2,0 7,0 9,1 9,2 11,6 11,15 1,8 1,16 1,57l0 46z"/>
  <path class="fil4 str0" d="M1106 2833c0,25 0,46 -1,57 -1,8 -2,13 -8,14 -2,1 -6,1 -8,1 -2,0 -2,1 -2,2 0,2 1,2 4,2 8,0 24,-1 26,-1 8,0 25,2 65,2 10,0 12,0 14,-7 1,-6 3,-23 3,-25 0,-2 0,-4 -2,-4 -1,0 -2,1 -2,4 -2,11 -5,16 -12,19 -7,3 -18,3 -25,3 -26,0 -30,-3 -30,-22 0,-6 0,-36 0,-45l0 -23c0,-1 1,-2 2,-2 4,0 30,1 38,1 10,1 13,6 14,9 1,3 1,6 1,9 0,1 1,2 2,2 2,0 2,-3 2,-5 0,-2 1,-12 1,-17 1,-9 2,-13 2,-15 0,-2 -1,-2 -1,-2 -1,0 -2,1 -4,3 -2,3 -6,3 -12,4 -6,1 -38,1 -42,1 -1,0 -2,-1 -2,-3l0 -73c0,-2 1,-3 2,-3 3,0 32,0 36,1 14,2 17,5 19,9 1,3 2,8 2,9 0,2 1,3 2,3 1,0 2,-2 2,-3 1,-3 1,-15 1,-17 1,-7 2,-11 2,-12 0,-1 0,-2 -1,-2 -1,0 -2,1 -4,1 -2,1 -6,1 -11,1 -6,0 -58,0 -60,0 -1,0 -18,-1 -30,-1 -3,0 -4,1 -4,2 0,1 1,2 2,2 2,0 7,0 9,1 9,2 11,6 11,15 1,8 1,16 1,57l0 46z"/>
  <path class="fil3" d="M1371 2747c0,54 0,99 -3,122 -2,16 -5,29 -16,31 -5,1 -12,2 -17,2 -3,0 -5,2 -5,3 0,3 3,5 9,5 17,0 52,-2 54,-2 3,0 38,2 69,2 6,0 9,-2 9,-5 0,-2 -1,-3 -5,-3 -5,0 -17,-1 -25,-2 -17,-2 -20,-15 -22,-31 -3,-24 -3,-68 -3,-122l0 -232c0,-6 1,-10 5,-11 5,-2 15,-3 24,-3 13,0 47,-2 77,28 30,30 32,68 32,87 0,52 -43,92 -98,92 -12,0 -15,1 -15,5 0,3 3,4 6,4 3,1 9,1 12,1 80,0 139,-54 139,-134 0,-30 -16,-55 -28,-67 -9,-8 -34,-32 -105,-32 -26,0 -59,2 -71,2 -5,0 -38,-2 -64,-2 -6,0 -9,1 -9,5 0,2 2,3 5,3 5,0 15,1 19,2 19,4 23,13 24,32 1,18 1,34 1,122l0 99z"/>
  <path class="fil4 str0" d="M1371 2747c0,54 0,99 -3,122 -2,16 -5,29 -16,31 -5,1 -12,2 -17,2 -3,0 -5,2 -5,3 0,3 3,5 9,5 17,0 52,-2 54,-2 3,0 38,2 69,2 6,0 9,-2 9,-5 0,-2 -1,-3 -5,-3 -5,0 -17,-1 -25,-2 -17,-2 -20,-15 -22,-31 -3,-24 -3,-68 -3,-122l0 -232c0,-6 1,-10 5,-11 5,-2 15,-3 24,-3 13,0 47,-2 77,28 30,30 32,68 32,87 0,52 -43,92 -98,92 -12,0 -15,1 -15,5 0,3 3,4 6,4 3,1 9,1 12,1 80,0 139,-54 139,-134 0,-30 -16,-55 -28,-67 -9,-8 -34,-32 -105,-32 -26,0 -59,2 -71,2 -5,0 -38,-2 -64,-2 -6,0 -9,1 -9,5 0,2 2,3 5,3 5,0 15,1 19,2 19,4 23,13 24,32 1,18 1,34 1,122l0 99z"/>
  <path class="fil1" d="M1687 2849c-10,28 -21,50 -47,53 -5,1 -12,1 -16,1 -3,0 -5,1 -5,3 0,3 3,5 11,5 27,0 58,-2 64,-2 6,0 30,2 44,2 5,0 8,-1 8,-5 0,-2 -2,-3 -6,-3l-6 0c-10,0 -21,-5 -21,-16 0,-10 3,-24 8,-38l34 -100c1,-3 3,-5 6,-5l121 0c3,0 4,1 5,3l52 139c3,9 0,14 -3,15 -2,1 -4,2 -4,4 0,3 6,3 17,4 39,1 80,1 89,1 6,0 11,-1 11,-5 0,-3 -2,-3 -6,-3 -6,0 -14,-1 -23,-3 -12,-3 -28,-12 -48,-63 -34,-86 -123,-319 -131,-340 -7,-17 -9,-20 -12,-20 -3,0 -6,3 -12,22l-128 350zm79 -125c-2,0 -3,-1 -2,-4l50 -152c3,-8 6,-8 8,0l54 152c1,2 1,4 -2,4l-108 0z"/>
  <path class="fil2 str0" d="M1687 2849c-10,28 -21,50 -47,53 -5,1 -12,1 -16,1 -3,0 -5,1 -5,3 0,3 3,5 11,5 27,0 58,-2 64,-2 6,0 30,2 44,2 5,0 8,-1 8,-5 0,-2 -2,-3 -6,-3l-6 0c-10,0 -21,-5 -21,-16 0,-10 3,-24 8,-38l34 -100c1,-3 3,-5 6,-5l121 0c3,0 4,1 5,3l52 139c3,9 0,14 -3,15 -2,1 -4,2 -4,4 0,3 6,3 17,4 39,1 80,1 89,1 6,0 11,-1 11,-5 0,-3 -2,-3 -6,-3 -6,0 -14,-1 -23,-3 -12,-3 -28,-12 -48,-63 -34,-86 -123,-319 -131,-340 -7,-17 -9,-20 -12,-20 -3,0 -6,3 -12,22l-128 350z"/>
  <path class="fil2 str0" d="M1766 2724c-2,0 -3,-1 -2,-4l50 -152c3,-8 6,-8 8,0l54 152c1,2 1,4 -2,4l-108 0z"/>
  <path class="fil3" d="M2307 2919c36,0 79,-4 101,-13 10,-5 11,-6 15,-16 6,-19 12,-68 12,-72 0,-5 -1,-8 -4,-8 -3,0 -5,2 -6,8 -2,10 -9,35 -21,47 -23,23 -56,28 -98,28 -121,0 -204,-99 -204,-206 0,-58 10,-108 51,-147 20,-19 55,-41 130,-41 50,0 93,15 113,32 15,12 24,36 24,58 0,8 1,12 5,12 3,0 5,-3 5,-12 1,-8 1,-39 2,-58 1,-20 3,-27 3,-32 0,-3 -1,-6 -7,-6 -18,-1 -36,-5 -58,-8 -28,-5 -59,-7 -82,-7 -87,0 -138,27 -172,60 -50,50 -63,116 -63,154 0,54 14,118 68,167 45,40 101,61 186,61z"/>
  <path class="fil4 str0" d="M2307 2919c36,0 79,-4 101,-13 10,-5 11,-6 15,-16 6,-19 12,-68 12,-72 0,-5 -1,-8 -4,-8 -3,0 -5,2 -6,8 -2,10 -9,35 -21,47 -23,23 -56,28 -98,28 -121,0 -204,-99 -204,-206 0,-58 10,-108 51,-147 20,-19 55,-41 130,-41 50,0 93,15 113,32 15,12 24,36 24,58 0,8 1,12 5,12 3,0 5,-3 5,-12 1,-8 1,-39 2,-58 1,-20 3,-27 3,-32 0,-3 -1,-6 -7,-6 -18,-1 -36,-5 -58,-8 -28,-5 -59,-7 -82,-7 -87,0 -138,27 -172,60 -50,50 -63,116 -63,154 0,54 14,118 68,167 45,40 101,61 186,61z"/>
  <path class="fil3" d="M2618 2648c0,-88 0,-104 1,-122 1,-20 6,-29 21,-32 7,-1 10,-2 14,-2 2,0 5,-1 5,-3 0,-3 -3,-5 -9,-5 -17,0 -52,2 -55,2 -3,0 -38,-2 -57,-2 -6,0 -9,1 -9,5 0,2 2,3 5,3 4,0 11,1 17,2 12,3 18,12 19,32 1,18 1,34 1,122l0 99c0,54 0,99 -3,122 -2,16 -5,29 -16,31 -5,1 -12,2 -17,2 -3,0 -5,2 -5,3 0,3 3,5 9,5 17,0 52,-2 55,-2 3,0 38,2 69,2 6,0 9,-2 9,-5 0,-2 -1,-3 -5,-3 -5,0 -17,-1 -25,-2 -17,-2 -20,-15 -22,-31 -3,-24 -3,-68 -3,-122l0 -99z"/>
  <path class="fil4 str0" d="M2618 2648c0,-88 0,-104 1,-122 1,-20 6,-29 21,-32 7,-1 10,-2 14,-2 2,0 5,-1 5,-3 0,-3 -3,-5 -9,-5 -17,0 -52,2 -55,2 -3,0 -38,-2 -57,-2 -6,0 -9,1 -9,5 0,2 2,3 5,3 4,0 11,1 17,2 12,3 18,12 19,32 1,18 1,34 1,122l0 99c0,54 0,99 -3,122 -2,16 -5,29 -16,31 -5,1 -12,2 -17,2 -3,0 -5,2 -5,3 0,3 3,5 9,5 17,0 52,-2 55,-2 3,0 38,2 69,2 6,0 9,-2 9,-5 0,-2 -1,-3 -5,-3 -5,0 -17,-1 -25,-2 -17,-2 -20,-15 -22,-31 -3,-24 -3,-68 -3,-122l0 -99z"/>
  <path class="fil3" d="M2812 2747c0,54 0,99 -3,122 -2,16 -5,29 -16,31 -5,1 -12,2 -17,2 -3,0 -5,2 -5,3 0,3 3,5 9,5 17,0 52,-2 55,-2 3,0 38,2 69,2 6,0 9,-2 9,-5 0,-2 -1,-3 -5,-3 -5,0 -17,-1 -25,-2 -17,-2 -20,-15 -22,-31 -3,-24 -3,-68 -3,-122l0 -48c0,-4 1,-5 4,-5 10,0 71,0 85,2 17,2 27,12 29,20 2,7 3,15 3,20 0,3 1,5 4,5 4,0 4,-6 4,-11 0,-4 1,-26 2,-38 2,-19 5,-28 5,-32 0,-3 -1,-5 -3,-5 -2,0 -4,3 -6,6 -5,7 -12,9 -26,10 -8,1 -16,1 -25,1l-72 1c-3,0 -4,-2 -4,-5l0 -156c0,-5 2,-6 5,-6l87 2c22,1 35,11 38,18 3,7 5,17 5,21 0,4 1,7 4,7 3,0 4,-3 5,-6 1,-7 2,-32 3,-37 2,-16 5,-23 5,-27 0,-3 -1,-5 -3,-5 -2,0 -5,2 -8,3 -5,2 -14,2 -25,2 -13,1 -127,1 -139,1 -3,0 -38,-2 -64,-2 -6,0 -9,1 -9,5 0,2 2,3 5,3 5,0 15,1 19,2 19,4 23,13 24,32 1,18 1,34 1,122l0 99z"/>
  <path class="fil4 str0" d="M2812 2747c0,54 0,99 -3,122 -2,16 -5,29 -16,31 -5,1 -12,2 -17,2 -3,0 -5,2 -5,3 0,3 3,5 9,5 17,0 52,-2 55,-2 3,0 38,2 69,2 6,0 9,-2 9,-5 0,-2 -1,-3 -5,-3 -5,0 -17,-1 -25,-2 -17,-2 -20,-15 -22,-31 -3,-24 -3,-68 -3,-122l0 -48c0,-4 1,-5 4,-5 10,0 71,0 85,2 17,2 27,12 29,20 2,7 3,15 3,20 0,3 1,5 4,5 4,0 4,-6 4,-11 0,-4 1,-26 2,-38 2,-19 5,-28 5,-32 0,-3 -1,-5 -3,-5 -2,0 -4,3 -6,6 -5,7 -12,9 -26,10 -8,1 -16,1 -25,1l-72 1c-3,0 -4,-2 -4,-5l0 -156c0,-5 2,-6 5,-6l87 2c22,1 35,11 38,18 3,7 5,17 5,21 0,4 1,7 4,7 3,0 4,-3 5,-6 1,-7 2,-32 3,-37 2,-16 5,-23 5,-27 0,-3 -1,-5 -3,-5 -2,0 -5,2 -8,3 -5,2 -14,2 -25,2 -13,1 -127,1 -139,1 -3,0 -38,-2 -64,-2 -6,0 -9,1 -9,5 0,2 2,3 5,3 5,0 15,1 19,2 19,4 23,13 24,32 1,18 1,34 1,122l0 99z"/>
  <path class="fil3" d="M3193 2648c0,-88 0,-104 1,-122 1,-20 6,-29 21,-32 7,-1 10,-2 14,-2 2,0 5,-1 5,-3 0,-3 -3,-5 -9,-5 -17,0 -52,2 -55,2 -3,0 -38,-2 -57,-2 -6,0 -9,1 -9,5 0,2 2,3 5,3 4,0 11,1 17,2 12,3 18,12 19,32 1,18 1,34 1,122l0 99c0,54 0,99 -3,122 -2,16 -5,29 -16,31 -5,1 -12,2 -17,2 -3,0 -5,2 -5,3 0,3 3,5 9,5 17,0 52,-2 55,-2 3,0 38,2 69,2 6,0 9,-2 9,-5 0,-2 -1,-3 -5,-3 -5,0 -17,-1 -25,-2 -17,-2 -20,-15 -22,-31 -3,-24 -3,-68 -3,-122l0 -99z"/>
  <path class="fil4 str0" d="M3193 2648c0,-88 0,-104 1,-122 1,-20 6,-29 21,-32 7,-1 10,-2 14,-2 2,0 5,-1 5,-3 0,-3 -3,-5 -9,-5 -17,0 -52,2 -55,2 -3,0 -38,-2 -57,-2 -6,0 -9,1 -9,5 0,2 2,3 5,3 4,0 11,1 17,2 12,3 18,12 19,32 1,18 1,34 1,122l0 99c0,54 0,99 -3,122 -2,16 -5,29 -16,31 -5,1 -12,2 -17,2 -3,0 -5,2 -5,3 0,3 3,5 9,5 17,0 52,-2 55,-2 3,0 38,2 69,2 6,0 9,-2 9,-5 0,-2 -1,-3 -5,-3 -5,0 -17,-1 -25,-2 -17,-2 -20,-15 -22,-31 -3,-24 -3,-68 -3,-122l0 -99z"/>
  <path class="fil3" d="M3572 2919c36,0 79,-4 101,-13 10,-5 11,-6 15,-16 6,-19 12,-68 12,-72 0,-5 -1,-8 -4,-8 -3,0 -5,2 -6,8 -2,10 -9,35 -21,47 -23,23 -56,28 -98,28 -121,0 -204,-99 -204,-206 0,-58 10,-108 51,-147 20,-19 55,-41 130,-41 50,0 93,15 113,32 15,12 24,36 24,58 0,8 1,12 5,12 3,0 5,-3 5,-12 1,-8 1,-39 2,-58 1,-20 3,-27 3,-32 0,-3 -1,-6 -7,-6 -18,-1 -36,-5 -58,-8 -28,-5 -59,-7 -82,-7 -87,0 -138,27 -172,60 -50,50 -63,116 -63,154 0,54 14,118 68,167 45,40 101,61 186,61z"/>
  <path class="fil4 str0" d="M3572 2919c36,0 79,-4 101,-13 10,-5 11,-6 15,-16 6,-19 12,-68 12,-72 0,-5 -1,-8 -4,-8 -3,0 -5,2 -6,8 -2,10 -9,35 -21,47 -23,23 -56,28 -98,28 -121,0 -204,-99 -204,-206 0,-58 10,-108 51,-147 20,-19 55,-41 130,-41 50,0 93,15 113,32 15,12 24,36 24,58 0,8 1,12 5,12 3,0 5,-3 5,-12 1,-8 1,-39 2,-58 1,-20 3,-27 3,-32 0,-3 -1,-6 -7,-6 -18,-1 -36,-5 -58,-8 -28,-5 -59,-7 -82,-7 -87,0 -138,27 -172,60 -50,50 -63,116 -63,154 0,54 14,118 68,167 45,40 101,61 186,61z"/>
  <polygon class="fil3" points="37,2385 883,2385 883,2363 37,2363 "/>
  <polygon class="fil4 str0" points="37,2385 883,2385 883,2363 37,2363 "/>
  <polygon class="fil3" points="1470,2385 3719,2385 3719,2363 1470,2363 "/>
  <polygon class="fil4 str0" points="1470,2385 3719,2385 3719,2363 1470,2363 "/>
  <path class="fil1" d="M3922 2911c48,0 87,-38 87,-86 0,-48 -38,-86 -87,-86 -48,0 -87,38 -87,86 0,48 38,86 87,86zm0 -13c-40,0 -73,-32 -73,-73 0,-41 34,-73 73,-73 40,0 73,32 73,73 0,41 -34,73 -73,73zm13 -70c17,0 30,-7 30,-26 0,-20 -17,-25 -34,-25l-41 0 0 94 13 0 0 -44 16 0 28 44 16 0 -29 -44zm-32 -13l0 -24 25 0c10,0 23,2 23,11 0,15 -21,13 -32,13l-16 0z"/>
  <path class="fil5" d="M660 3214l-69 169 29 0 17 -46 60 0 16 46 38 0 -64 -169 -28 0zm-13 102c8,-22 16,-43 23,-69l0 0c8,26 15,47 22,69l-46 0z"/>
  <path class="fil5" d="M870 3262l-32 0 0 121 32 0 0 -72c0,-20 12,-30 28,-30 17,0 24,11 24,28l0 74 32 0 0 -78c0,-30 -15,-46 -43,-46 -15,0 -30,6 -41,17l0 -14z"/>
  <path class="fil5" d="M1044 3386c38,0 64,-27 64,-65 0,-39 -31,-62 -64,-62 -32,0 -63,23 -63,62 0,37 26,65 63,65zm0 -18c-23,0 -29,-26 -29,-47 0,-20 7,-44 29,-44 22,0 29,24 29,44 0,21 -6,47 -29,47z"/>
  <path class="fil5" d="M1165 3262l-32 0 0 121 32 0 0 -72c0,-20 12,-30 28,-30 17,0 24,11 24,28l0 74 32 0 0 -78c0,-30 -15,-46 -43,-46 -15,0 -30,6 -41,17l0 -14z"/>
  <polygon class="fil6" points="1277,3336 1337,3336 1337,3315 1277,3315 "/>
  <path class="fil5" d="M1426 3279c18,0 28,21 28,42 0,21 -7,46 -29,46 -17,0 -30,-17 -30,-43 0,-28 11,-45 31,-45zm-31 -16l-32 0 0 181 32 0 0 -75c9,11 22,18 36,18 35,0 56,-34 56,-66 0,-27 -15,-61 -53,-61 -15,0 -30,7 -39,20l0 0 0 -17z"/>
  <path class="fil6" d="M1546 3262l-32 0 0 121 32 0 0 -60c0,-26 11,-35 22,-35 7,0 10,1 15,4l12 -22c-7,-7 -15,-11 -22,-11 -10,0 -17,10 -21,15l-7 9 0 0 0 -21z"/>
  <path class="fil5" d="M1668 3386c38,0 64,-27 64,-65 0,-39 -31,-62 -64,-62 -32,0 -63,23 -63,62 0,37 26,65 63,65zm0 -18c-23,0 -29,-26 -29,-47 0,-20 7,-44 29,-44 22,0 29,24 29,44 0,21 -6,47 -29,47z"/>
  <path class="fil6" d="M1794 3383l0 -104 29 0 0 -16 -29 0 0 -20c0,-15 10,-18 15,-18 5,0 9,1 14,2l6 -16c-8,-4 -18,-5 -25,-5 -18,0 -42,11 -42,43l0 14 -19 0 0 16 19 0 0 104 32 0z"/>
  <path class="fil5" d="M1842 3262l0 121 32 0 0 -121 -32 0zm16 -16c12,0 19,-10 19,-20 0,-9 -9,-19 -20,-19 -11,0 -19,9 -19,19 0,10 8,20 19,20z"/>
  <path class="fil6" d="M1945 3226l-32 7 0 29 -17 0 0 16 17 0 0 69c0,25 12,39 38,39 11,0 22,-3 32,-8l-6 -16c-4,2 -8,4 -15,4 -11,0 -17,-8 -17,-28l0 -59 32 0 0 -16 -32 0 0 -36z"/>
  <path class="fil5" d="M2071 3262l0 121 32 0 0 -121 -32 0zm16 -16c12,0 19,-10 19,-20 0,-9 -9,-19 -20,-19 -11,0 -19,9 -19,19 0,10 8,20 19,20z"/>
  <path class="fil5" d="M2167 3262l-32 0 0 121 32 0 0 -72c0,-20 12,-30 28,-30 17,0 24,11 24,28l0 74 32 0 0 -78c0,-30 -15,-46 -43,-46 -15,0 -30,6 -41,17l0 -14z"/>
  <path class="fil6" d="M2361 3270c-9,-8 -22,-11 -35,-11 -24,0 -42,14 -42,33 0,15 9,24 23,34 12,8 24,14 24,26 0,10 -8,15 -17,15 -9,0 -19,-6 -26,-12l-10 17c11,8 24,14 40,14 27,0 45,-18 45,-35 0,-11 -5,-24 -22,-36 -14,-10 -25,-15 -25,-25 0,-8 7,-12 14,-12 6,0 13,2 21,8l10 -14z"/>
  <path class="fil6" d="M2426 3226l-32 7 0 29 -17 0 0 16 17 0 0 69c0,25 12,39 38,39 11,0 22,-3 32,-8l-6 -16c-4,2 -8,4 -15,4 -11,0 -17,-8 -17,-28l0 -59 32 0 0 -16 -32 0 0 -36z"/>
  <path class="fil5" d="M2482 3262l0 121 32 0 0 -121 -32 0zm16 -16c12,0 19,-10 19,-20 0,-9 -9,-19 -20,-19 -11,0 -19,9 -19,19 0,10 8,20 19,20z"/>
  <path class="fil6" d="M2585 3226l-32 7 0 29 -17 0 0 16 17 0 0 69c0,25 12,39 38,39 11,0 22,-3 32,-8l-6 -16c-4,2 -8,4 -15,4 -11,0 -17,-8 -17,-28l0 -59 32 0 0 -16 -32 0 0 -36z"/>
  <path class="fil5" d="M2719 3383l32 0 0 -121 -32 0 0 70c0,22 -13,31 -24,31 -15,0 -23,-11 -23,-28l0 -73 -32 0 0 78c0,30 15,46 41,46 15,0 27,-7 38,-18l0 15z"/>
  <path class="fil6" d="M2822 3226l-32 7 0 29 -17 0 0 16 17 0 0 69c0,25 12,39 38,39 11,0 22,-3 32,-8l-6 -16c-4,2 -8,4 -15,4 -11,0 -17,-8 -17,-28l0 -59 32 0 0 -16 -32 0 0 -36z"/>
  <path class="fil5" d="M2878 3262l0 121 32 0 0 -121 -32 0zm16 -16c12,0 19,-10 19,-20 0,-9 -9,-19 -20,-19 -11,0 -19,9 -19,19 0,10 8,20 19,20z"/>
  <path class="fil5" d="M2999 3386c38,0 64,-27 64,-65 0,-39 -31,-62 -64,-62 -32,0 -63,23 -63,62 0,37 26,65 63,65zm0 -18c-23,0 -29,-26 -29,-47 0,-20 7,-44 29,-44 22,0 29,24 29,44 0,21 -6,47 -29,47z"/>
  <path class="fil5" d="M3121 3262l-32 0 0 121 32 0 0 -72c0,-20 12,-30 28,-30 17,0 24,11 24,28l0 74 32 0 0 -78c0,-30 -15,-46 -43,-46 -15,0 -30,6 -41,17l0 -14z"/>
 </g>
</svg>
