<?xml version="1.0" encoding="UTF-8"?>
<svg id="Layer_1" data-name="Layer 1" xmlns="http://www.w3.org/2000/svg" viewBox="0 0 730.06 275">
  <defs>
    <style>
      .cls-1 {
        fill: #034360;
      }

      .cls-2 {
        fill: #fff;
      }

      .cls-3 {
        fill: #26a8e0;
      }
    </style>
  </defs>
  <rect class="cls-1" width="730.06" height="275"/>
  <g>
    <rect class="cls-3" x="60.26" y="40.52" width="336.76" height="194.02"/>
    <path class="cls-2" d="M408.04,157.1h-26.92l-22.55-20.95c-1.36-1.26-3.35-1.79-5.22-1.37-1.88.42-3.41,1.75-4.01,3.47l-17.29,49.52-20.27-105.9c-.47-2.44-2.64-4.21-5.28-4.31h-.23c-2.53,0-4.75,1.6-5.39,3.9l-20.41,72.51-16.25-18.37c-1.07-1.2-2.62-1.9-4.27-1.9-.11,0-.22,0-.33,0-1.76.09-3.39.96-4.36,2.34l-15.47,21.67-14.5-.07c-4.72,0-16.15-.72-25.66-5.03-9.1-4.13-13.34-10.16-13.34-18.98,0-9.47,4.44-12.93,8.17-14.16,1.31-.43,2.67-.65,4.06-.65,2.87,0,5.23.94,6.07,1.86l.18.2.08.25c1.07,3.47,4.1,5.58,7.49,5.1,5.52-.78,9.21-8.36,9.2-14.96,0-18.23-10.97-29.92-30.88-32.92-1.75-.26-3.57-.4-5.4-.4-23.89,0-54.61,22.16-93.9,67.73l-.09.1c-4.57,4.24-16.86,14.09-32.14,14.09-5.64,0-11.15-1.36-16.4-4.04-1-.61-1.94-.9-2.89-.9-2.29,0-4.44,1.74-5.12,4.13-.71,2.53.42,4.92,3.11,6.56,6.75,3.44,14.02,5.21,21.5,5.21,13.89,0,27.61-5.99,39.67-17.32l.44-.46c25.18-29.25,60.54-64.17,85.74-64.17,1.31,0,2.6.09,3.83.28,18.3,2.76,21.04,12.75,21.5,20.02l.14,2.16-1.9-1.04c-3.82-2.08-8.71-2.88-13.61-2.19-14.61,2.05-19.82,14.52-19.82,25.51,0,13.08,6.83,23.09,19.76,28.95,9.32,4.22,19.83,5.41,26.86,5.68.53.16,20.93.13,20.93.13,1.88,0,3.62-.88,4.66-2.35l12.87-18.33,18.37,20.77c1.32,1.49,3.48,2.19,5.48,1.77,2.06-.42,3.68-1.87,4.21-3.78l16.74-59.47,19.73,103.04c.45,2.37,2.56,4.14,5.11,4.3.13,0,.26.01.39.01,2.42,0,4.55-1.45,5.31-3.61l21.37-61.19,17.76,16.49c1.05.98,2.45,1.52,3.93,1.52h29.22c3.08,0,5.59-2.35,5.59-5.24s-2.51-5.24-5.59-5.24Z"/>
  </g>
  <g>
    <g>
      <path class="cls-3" d="M422.27,233.11v-26.88h3.41v23.85h14.99v3.03h-18.4Z"/>
      <path class="cls-3" d="M452.56,206.23h2.88l10.98,26.88h-3.63l-3.18-7.87h-11.28l-3.14,7.87h-3.63l11.02-26.88ZM458.84,222.59l-4.85-12.42-5,12.42h9.84Z"/>
      <path class="cls-3" d="M490.64,226.18c0,1.04-.21,1.98-.63,2.84-.42.86-.98,1.59-1.7,2.2-.72.61-1.55,1.07-2.5,1.4-.95.33-1.96.49-3.05.49h-12.76v-26.88h13.36c.93,0,1.78.2,2.54.61.76.4,1.4.93,1.93,1.57.53.64.94,1.38,1.23,2.2.29.82.44,1.65.44,2.48,0,1.34-.33,2.57-1,3.71-.67,1.14-1.62,1.98-2.86,2.54,1.54.45,2.76,1.29,3.65,2.52.9,1.22,1.34,2.67,1.34,4.33ZM473.42,209.19v8.97h8.56c.61,0,1.16-.12,1.67-.36.5-.24.94-.56,1.31-.97.37-.4.66-.88.87-1.42.21-.54.32-1.12.32-1.72s-.1-1.22-.3-1.78c-.2-.55-.47-1.03-.81-1.44-.34-.4-.76-.72-1.25-.95-.49-.23-1.02-.34-1.57-.34h-8.78ZM487.2,225.58c0-.61-.11-1.19-.32-1.76-.21-.57-.5-1.07-.87-1.5-.37-.43-.8-.77-1.31-1.02-.51-.25-1.06-.38-1.67-.38h-9.62v9.24h9.35c.63,0,1.21-.13,1.74-.38.53-.25,1-.59,1.4-1,.4-.42.72-.9.95-1.46.23-.55.34-1.14.34-1.74Z"/>
      <path class="cls-3" d="M506.32,233.3c-1.89,0-3.62-.38-5.17-1.15-1.55-.77-2.88-1.79-3.99-3.07-1.11-1.27-1.97-2.73-2.57-4.37-.61-1.64-.91-3.32-.91-5.04s.32-3.51.97-5.15c.64-1.64,1.53-3.09,2.67-4.35,1.14-1.26,2.48-2.27,4.03-3.01,1.55-.74,3.24-1.12,5.05-1.12s3.61.4,5.15,1.19c1.54.8,2.86,1.84,3.97,3.12,1.11,1.29,1.97,2.74,2.57,4.37.61,1.63.91,3.29.91,4.98,0,1.79-.32,3.51-.97,5.15-.64,1.64-1.53,3.09-2.65,4.33-1.12,1.25-2.46,2.25-4.01,2.99-1.55.74-3.24,1.12-5.05,1.12ZM497.12,219.67c0,1.36.22,2.68.66,3.96.44,1.27,1.07,2.4,1.87,3.39.81.98,1.78,1.77,2.91,2.35,1.14.58,2.4.87,3.79.87s2.73-.31,3.86-.93c1.14-.62,2.1-1.43,2.9-2.42.8-1,1.4-2.13,1.82-3.39.42-1.26.62-2.54.62-3.82,0-1.36-.22-2.68-.66-3.96-.44-1.27-1.07-2.4-1.89-3.37-.82-.97-1.79-1.75-2.92-2.33-1.12-.58-2.37-.87-3.73-.87-1.44,0-2.73.3-3.86.91s-2.1,1.4-2.9,2.38-1.41,2.11-1.84,3.37c-.43,1.26-.64,2.55-.64,3.86Z"/>
      <path class="cls-3" d="M523.73,233.11v-26.88h11.51c1.19,0,2.28.25,3.27.74,1,.49,1.86,1.15,2.57,1.97.72.82,1.28,1.74,1.68,2.76.4,1.02.61,2.06.61,3.12,0,.93-.13,1.84-.4,2.71-.27.87-.64,1.66-1.14,2.37-.49.71-1.09,1.31-1.78,1.82-.69.51-1.47.87-2.33,1.1l6.51,10.3h-3.86l-6.13-9.65h-7.12v9.65h-3.41ZM527.14,220.43h8.14c.71,0,1.34-.15,1.91-.45.57-.3,1.05-.71,1.46-1.23.4-.52.72-1.12.95-1.8.23-.68.34-1.39.34-2.12s-.13-1.47-.4-2.14c-.27-.67-.62-1.26-1.06-1.78-.44-.52-.96-.92-1.55-1.21-.59-.29-1.22-.44-1.87-.44h-7.91v11.17Z"/>
      <path class="cls-3" d="M556.78,206.23h2.88l10.98,26.88h-3.63l-3.18-7.87h-11.28l-3.14,7.87h-3.63l11.02-26.88ZM563.06,222.59l-4.85-12.42-5,12.42h9.84Z"/>
      <path class="cls-3" d="M591.08,209.26h-9.27v23.85h-3.41v-23.85h-9.27v-3.03h21.96v3.03Z"/>
      <path class="cls-3" d="M605.05,233.3c-1.89,0-3.62-.38-5.17-1.15-1.55-.77-2.88-1.79-3.99-3.07-1.11-1.27-1.97-2.73-2.57-4.37-.61-1.64-.91-3.32-.91-5.04s.32-3.51.97-5.15c.64-1.64,1.53-3.09,2.67-4.35,1.14-1.26,2.48-2.27,4.03-3.01,1.55-.74,3.24-1.12,5.05-1.12s3.61.4,5.15,1.19c1.54.8,2.86,1.84,3.97,3.12,1.11,1.29,1.97,2.74,2.57,4.37.61,1.63.91,3.29.91,4.98,0,1.79-.32,3.51-.97,5.15-.64,1.64-1.53,3.09-2.65,4.33-1.12,1.25-2.46,2.25-4.01,2.99-1.55.74-3.24,1.12-5.05,1.12ZM595.85,219.67c0,1.36.22,2.68.66,3.96.44,1.27,1.07,2.4,1.87,3.39.81.98,1.78,1.77,2.91,2.35,1.14.58,2.4.87,3.79.87s2.73-.31,3.86-.93c1.14-.62,2.1-1.43,2.9-2.42.8-1,1.4-2.13,1.82-3.39.42-1.26.62-2.54.62-3.82,0-1.36-.22-2.68-.66-3.96-.44-1.27-1.07-2.4-1.89-3.37-.82-.97-1.79-1.75-2.92-2.33-1.12-.58-2.37-.87-3.73-.87-1.44,0-2.73.3-3.86.91s-2.1,1.4-2.9,2.38-1.41,2.11-1.84,3.37c-.43,1.26-.64,2.55-.64,3.86Z"/>
      <path class="cls-3" d="M622.46,233.11v-26.88h11.51c1.19,0,2.28.25,3.27.74s1.86,1.15,2.57,1.97c.72.82,1.28,1.74,1.68,2.76.4,1.02.61,2.06.61,3.12,0,.93-.13,1.84-.4,2.71-.27.87-.64,1.66-1.14,2.37-.49.71-1.09,1.31-1.78,1.82-.69.51-1.47.87-2.33,1.1l6.51,10.3h-3.86l-6.13-9.65h-7.12v9.65h-3.41ZM625.87,220.43h8.14c.71,0,1.34-.15,1.91-.45.57-.3,1.05-.71,1.46-1.23.4-.52.72-1.12.95-1.8.23-.68.34-1.39.34-2.12s-.13-1.47-.4-2.14c-.27-.67-.62-1.26-1.06-1.78-.44-.52-.96-.92-1.55-1.21-.59-.29-1.22-.44-1.87-.44h-7.91v11.17Z"/>
      <path class="cls-3" d="M647.18,206.23l8.14,14.01,8.21-14.01h3.71l-10.22,17.07v9.81h-3.41v-9.88l-10.18-17h3.75Z"/>
    </g>
    <g>
      <g>
        <path class="cls-3" d="M446.99,145.41c-3.63,0-6.93-.74-9.9-2.21-2.98-1.48-5.53-3.43-7.65-5.88-2.13-2.44-3.77-5.23-4.93-8.38-1.16-3.14-1.74-6.36-1.74-9.65s.62-6.72,1.85-9.87c1.23-3.14,2.94-5.92,5.11-8.34,2.18-2.42,4.75-4.34,7.73-5.77,2.97-1.43,6.2-2.14,9.68-2.14s6.91.76,9.87,2.29c2.95,1.52,5.49,3.52,7.62,5.99,2.13,2.47,3.77,5.26,4.93,8.38,1.16,3.12,1.74,6.3,1.74,9.54,0,3.43-.62,6.72-1.85,9.87-1.23,3.14-2.93,5.91-5.08,8.31-2.15,2.39-4.71,4.3-7.69,5.73-2.97,1.43-6.2,2.14-9.68,2.14ZM429.37,119.3c0,2.61.42,5.14,1.27,7.58.85,2.44,2.04,4.61,3.59,6.49,1.55,1.89,3.41,3.39,5.59,4.5,2.18,1.11,4.59,1.67,7.25,1.67s5.22-.59,7.4-1.78c2.18-1.19,4.03-2.73,5.55-4.64,1.52-1.91,2.68-4.07,3.48-6.49.8-2.42,1.2-4.86,1.2-7.33,0-2.61-.42-5.14-1.27-7.58-.85-2.44-2.06-4.59-3.63-6.46-1.57-1.86-3.43-3.35-5.59-4.46-2.15-1.11-4.54-1.67-7.15-1.67-2.76,0-5.22.58-7.4,1.74-2.18,1.16-4.03,2.68-5.55,4.57-1.52,1.89-2.7,4.04-3.52,6.46-.82,2.42-1.23,4.89-1.23,7.4Z"/>
        <path class="cls-3" d="M477.02,118.94c0-3.09.54-6.18,1.63-9.25,1.09-3.07,2.68-5.83,4.79-8.27,2.1-2.44,4.68-4.41,7.73-5.91,3.05-1.5,6.5-2.25,10.37-2.25,4.59,0,8.53,1.04,11.82,3.12,3.29,2.08,5.73,4.79,7.33,8.12l-5.15,3.34c-.77-1.64-1.7-3.02-2.79-4.13-1.09-1.11-2.27-2.01-3.55-2.68-1.28-.68-2.6-1.16-3.95-1.45-1.35-.29-2.68-.44-3.99-.44-2.86,0-5.38.59-7.58,1.78-2.2,1.19-4.05,2.73-5.55,4.64-1.5,1.91-2.62,4.06-3.37,6.46-.75,2.39-1.12,4.8-1.12,7.22,0,2.71.45,5.28,1.34,7.73.89,2.44,2.14,4.61,3.74,6.49,1.6,1.89,3.48,3.39,5.66,4.5,2.18,1.11,4.55,1.67,7.11,1.67,1.35,0,2.74-.17,4.17-.51,1.43-.34,2.79-.88,4.1-1.63,1.31-.75,2.53-1.69,3.66-2.83,1.13-1.14,2.07-2.5,2.79-4.1l5.44,2.97c-.82,1.93-1.97,3.64-3.44,5.11-1.48,1.48-3.14,2.72-5.01,3.74s-3.83,1.79-5.91,2.32-4.11.8-6.09.8c-3.53,0-6.77-.77-9.72-2.32-2.95-1.55-5.5-3.57-7.65-6.06-2.15-2.49-3.82-5.32-5.01-8.49-1.19-3.17-1.78-6.39-1.78-9.68Z"/>
        <path class="cls-3" d="M564.8,139.25v5.8h-34.96v-51.5h34.31v5.8h-27.78v16.68h24.16v5.44h-24.16v17.77h28.44Z"/>
        <path class="cls-3" d="M589.39,93.55h5.51l21.04,51.5h-6.96l-6.09-15.09h-21.62l-6.02,15.09h-6.96l21.11-51.5ZM601.43,124.89l-9.28-23.79-9.58,23.79h18.86Z"/>
        <path class="cls-3" d="M629.36,105.73v39.32h-6.53v-51.5h5.08l31.92,40.12v-40.04h6.53v51.43h-5.51l-31.48-39.32Z"/>
      </g>
      <g>
        <path class="cls-3" d="M449.25,161.55c-.47-.55-1.1-1.08-1.88-1.59-.79-.51-1.67-.97-2.65-1.38-.98-.41-2.05-.74-3.21-1-1.16-.25-2.36-.38-3.62-.38-3.26,0-5.64.61-7.15,1.82-1.51,1.22-2.26,2.88-2.26,5,0,1.14.21,2.08.65,2.82.43.75,1.11,1.38,2.03,1.91.92.53,2.07.99,3.44,1.38,1.37.39,3,.8,4.88,1.24,2.16.47,4.11,1.01,5.85,1.62,1.75.61,3.24,1.36,4.47,2.27,1.24.9,2.18,2,2.82,3.3.65,1.29.97,2.88.97,4.77,0,2-.39,3.74-1.18,5.21-.79,1.47-1.85,2.69-3.21,3.65-1.35.96-2.95,1.67-4.8,2.12-1.85.45-3.85.68-6,.68-3.22,0-6.27-.5-9.15-1.5-2.88-1-5.5-2.46-7.86-4.38l2.53-4.47c.63.67,1.44,1.33,2.44,2,1,.67,2.14,1.27,3.41,1.8,1.27.53,2.65.96,4.12,1.29,1.47.33,3.01.5,4.62.5,2.98,0,5.3-.53,6.94-1.59,1.65-1.06,2.47-2.65,2.47-4.77,0-1.18-.26-2.17-.79-2.97-.53-.8-1.3-1.5-2.32-2.09s-2.29-1.11-3.8-1.56c-1.51-.45-3.23-.91-5.15-1.38-2.12-.51-3.98-1.06-5.59-1.65-1.61-.59-2.95-1.29-4.03-2.12-1.08-.82-1.89-1.82-2.44-3s-.82-2.59-.82-4.24c0-2,.37-3.77,1.12-5.3.74-1.53,1.79-2.82,3.12-3.88,1.33-1.06,2.92-1.85,4.77-2.38,1.84-.53,3.84-.79,6-.79,2.82,0,5.37.43,7.65,1.29,2.27.86,4.29,2.02,6.06,3.47l-2.47,4.3Z"/>
        <path class="cls-3" d="M457.85,173.38c0-2.51.44-5.01,1.32-7.5.88-2.49,2.18-4.73,3.88-6.71,1.71-1.98,3.8-3.58,6.27-4.8,2.47-1.22,5.28-1.82,8.41-1.82,3.73,0,6.92.84,9.59,2.53,2.67,1.69,4.65,3.88,5.94,6.59l-4.18,2.71c-.63-1.33-1.38-2.45-2.26-3.35-.88-.9-1.85-1.63-2.88-2.18-1.04-.55-2.11-.94-3.21-1.18s-2.18-.35-3.24-.35c-2.32,0-4.36.48-6.15,1.44-1.79.96-3.29,2.22-4.5,3.77s-2.13,3.29-2.74,5.24c-.61,1.94-.91,3.89-.91,5.86,0,2.2.36,4.29,1.09,6.27.73,1.98,1.74,3.74,3.03,5.27,1.3,1.53,2.82,2.75,4.59,3.65,1.77.9,3.69,1.35,5.77,1.35,1.1,0,2.23-.14,3.38-.41,1.16-.27,2.27-.72,3.33-1.32,1.06-.61,2.05-1.37,2.97-2.29.92-.92,1.68-2.03,2.26-3.32l4.41,2.41c-.67,1.57-1.6,2.95-2.79,4.15-1.2,1.2-2.55,2.21-4.06,3.03s-3.11,1.45-4.8,1.88c-1.69.43-3.33.65-4.94.65-2.86,0-5.49-.63-7.88-1.88-2.39-1.25-4.46-2.89-6.21-4.91-1.75-2.02-3.1-4.32-4.06-6.88-.96-2.57-1.44-5.19-1.44-7.86Z"/>
        <path class="cls-3" d="M500.68,194.56v-41.78h5.3v41.78h-5.3Z"/>
        <path class="cls-3" d="M544.35,189.86v4.71h-28.36v-41.78h27.83v4.71h-22.54v13.53h19.59v4.41h-19.59v14.42h23.07Z"/>
        <path class="cls-3" d="M556.88,162.67v31.89h-5.3v-41.78h4.12l25.89,32.54v-32.48h5.3v41.72h-4.47l-25.54-31.89Z"/>
        <path class="cls-3" d="M594.19,173.38c0-2.51.44-5.01,1.32-7.5.88-2.49,2.18-4.73,3.88-6.71,1.71-1.98,3.8-3.58,6.27-4.8,2.47-1.22,5.28-1.82,8.41-1.82,3.73,0,6.92.84,9.59,2.53,2.67,1.69,4.65,3.88,5.94,6.59l-4.18,2.71c-.63-1.33-1.38-2.45-2.26-3.35-.88-.9-1.85-1.63-2.88-2.18-1.04-.55-2.11-.94-3.21-1.18s-2.18-.35-3.24-.35c-2.32,0-4.36.48-6.15,1.44-1.79.96-3.29,2.22-4.5,3.77-1.22,1.55-2.13,3.29-2.74,5.24-.61,1.94-.91,3.89-.91,5.86,0,2.2.36,4.29,1.09,6.27.73,1.98,1.74,3.74,3.03,5.27,1.3,1.53,2.82,2.75,4.59,3.65,1.77.9,3.69,1.35,5.77,1.35,1.1,0,2.23-.14,3.38-.41,1.16-.27,2.27-.72,3.33-1.32,1.06-.61,2.05-1.37,2.97-2.29.92-.92,1.68-2.03,2.26-3.32l4.41,2.41c-.67,1.57-1.6,2.95-2.79,4.15-1.2,1.2-2.55,2.21-4.06,3.03-1.51.82-3.11,1.45-4.8,1.88-1.69.43-3.33.65-4.94.65-2.86,0-5.49-.63-7.88-1.88-2.39-1.25-4.46-2.89-6.21-4.91-1.75-2.02-3.1-4.32-4.06-6.88-.96-2.57-1.44-5.19-1.44-7.86Z"/>
        <path class="cls-3" d="M665.39,189.86v4.71h-28.36v-41.78h27.83v4.71h-22.54v13.53h19.59v4.41h-19.59v14.42h23.07Z"/>
      </g>
    </g>
    <g>
      <path class="cls-2" d="M454.7,72.29c0,1.63-.33,3.11-.98,4.46-.65,1.35-1.55,2.5-2.68,3.45-1.13.95-2.44,1.69-3.93,2.2-1.49.52-3.08.77-4.79.77h-20.05v-42.24h21c1.47,0,2.8.32,3.99.95,1.19.64,2.2,1.46,3.03,2.47.83,1.01,1.48,2.16,1.93,3.45.46,1.29.68,2.59.68,3.9,0,2.1-.53,4.05-1.58,5.83-1.05,1.78-2.55,3.11-4.49,3.99,2.42.71,4.33,2.03,5.74,3.96,1.41,1.92,2.11,4.19,2.11,6.81ZM427.63,45.58v14.1h13.45c.95,0,1.82-.19,2.62-.57.79-.38,1.48-.88,2.05-1.52.57-.63,1.03-1.38,1.37-2.23.34-.85.51-1.75.51-2.71s-.16-1.92-.48-2.8c-.32-.87-.74-1.63-1.28-2.26-.54-.63-1.19-1.13-1.96-1.49-.77-.36-1.6-.54-2.47-.54h-13.8ZM449.28,71.34c0-.95-.17-1.87-.51-2.77-.34-.89-.79-1.68-1.37-2.35-.58-.67-1.26-1.21-2.05-1.61-.79-.4-1.67-.59-2.62-.59h-15.11v14.52h14.69c.99,0,1.9-.2,2.74-.6.83-.4,1.57-.92,2.2-1.58.63-.65,1.13-1.42,1.49-2.29.36-.87.54-1.78.54-2.74Z"/>
      <path class="cls-2" d="M490.87,78.42v4.76h-28.67v-42.24h28.14v4.76h-22.79v13.68h19.81v4.46h-19.81v14.58h23.32Z"/>
      <path class="cls-2" d="M503.54,50.93v32.24h-5.35v-42.24h4.16l26.18,32.9v-32.84h5.35v42.18h-4.52l-25.82-32.24Z"/>
      <path class="cls-2" d="M543.99,83.18v-42.24h5.35v42.24h-5.35Z"/>
      <path class="cls-2" d="M576.59,83.47c-2.97,0-5.68-.6-8.12-1.81-2.44-1.21-4.53-2.82-6.28-4.82-1.75-2-3.09-4.29-4.05-6.87-.95-2.58-1.43-5.22-1.43-7.91s.51-5.51,1.52-8.09c1.01-2.58,2.41-4.86,4.19-6.84,1.78-1.98,3.9-3.56,6.34-4.73,2.44-1.17,5.09-1.75,7.94-1.75s5.67.62,8.09,1.87c2.42,1.25,4.5,2.89,6.25,4.91,1.74,2.02,3.09,4.31,4.05,6.87.95,2.56,1.43,5.17,1.43,7.82,0,2.82-.51,5.51-1.52,8.09-1.01,2.58-2.4,4.85-4.16,6.81-1.77,1.96-3.87,3.53-6.31,4.7-2.44,1.17-5.09,1.76-7.94,1.76ZM562.14,62.06c0,2.14.35,4.21,1.04,6.22.69,2,1.68,3.78,2.95,5.32,1.27,1.55,2.8,2.78,4.58,3.69,1.78.91,3.77,1.37,5.95,1.37s4.28-.49,6.07-1.46c1.79-.97,3.3-2.24,4.55-3.81,1.25-1.57,2.2-3.34,2.86-5.32.65-1.98.98-3.99.98-6.01,0-2.14-.35-4.21-1.04-6.22-.69-2-1.69-3.77-2.97-5.29-1.29-1.53-2.82-2.75-4.58-3.66-1.77-.91-3.72-1.37-5.86-1.37-2.26,0-4.28.48-6.07,1.43-1.78.95-3.3,2.2-4.55,3.75-1.25,1.55-2.21,3.31-2.89,5.29-.67,1.98-1.01,4.01-1.01,6.07Z"/>
      <path class="cls-2" d="M603.96,83.18v-42.24h27.9v4.76h-22.55v14.1h18.98v4.46h-18.98v18.92h-5.35Z"/>
      <path class="cls-2" d="M638.64,83.18v-42.24h27.9v4.76h-22.55v14.1h18.98v4.46h-18.98v18.92h-5.35Z"/>
    </g>
  </g>
</svg>