<svg id="Layer_1" data-name="Layer 1" xmlns="http://www.w3.org/2000/svg" viewBox="0 0 432 434">
  <defs>
    <style>
      .cls-1 {
        fill: #004260;
      }

      .cls-2 {
        fill: #fff;
      }
    </style>
  </defs>
  <title>logo_reversed (2)</title>
  <g>
    <rect class="cls-1" width="432" height="434"/>
    <g>
      <path class="cls-2" d="M69.38089,34.96345V139.14324c12.87932-.409,23.18245-8.65655,27.07582-12.26388l0.08138-.08393c34.30568-39.79182,61.12138-59.13571,81.98114-59.13571a31.65606,31.65606,0,0,1,4.71141.34825c17.38265,2.62359,26.95593,12.83081,26.95593,28.74429,0.01425,5.75615-3.2087,12.37692-8.02995,13.05811a5.98255,5.98255,0,0,1-6.54353-4.4567l-0.06812-.22017-0.15454-.17078c-0.733-.80926-2.78885-1.62824-5.29807-1.62824a11.27631,11.27631,0,0,0-3.54827.56936c-3.25351,1.07667-7.13223,4.09476-7.13223,12.36162,0,7.70513,3.70082,12.97164,11.64639,16.57489,8.30139,3.76485,18.28673,4.39527,22.40436,4.39527l12.65975,0.0589,13.51034-18.92333a4.96866,4.96866,0,0,1,3.80662-2.0466c0.09111-.00525.18857-0.00818,0.28532-0.00818a4.96889,4.96889,0,0,1,3.72944,1.655l14.18418,16.03746,17.81532-63.30688a4.8341,4.8341,0,0,1,4.7081-3.40611l0.20028,0.0037a4.75617,4.75617,0,0,1,4.60572,3.76275l17.69786,92.4535,15.09621-43.23052a4.801,4.801,0,0,1,3.50434-3.02637,5.134,5.134,0,0,1,4.56058,1.19867l19.68756,18.28656h13.8745V34.96345H69.38089ZM344.0782,144.57186l-15.50573-14.401-18.657,53.425a4.84684,4.84684,0,0,1-4.63207,3.15074c-0.11216,0-.22581-0.003-0.33874-0.01122a4.76582,4.76582,0,0,1-4.462-3.75524L283.26131,93.01707l-14.6121,51.92254a4.72964,4.72964,0,0,1-3.67977,3.30191,5.10255,5.10255,0,0,1-4.78755-1.5478L244.147,128.562l-11.237,16.00155a4.95424,4.95424,0,0,1-4.06857,2.05257s-17.81173.02094-18.27429-.116c-6.14075-.235-15.31909-1.27232-23.45362-4.96081-11.28649-5.11861-17.25254-13.8582-17.25254-25.27381,0-9.59515,4.54472-20.48461,17.30133-22.271a19.48335,19.48335,0,0,1,11.87817,1.91345l1.65924,0.9049-0.12094-1.88549c-0.4077-6.34728-2.796-15.06455-18.77349-17.4757a22.41368,22.41368,0,0,0-3.342-.24454c-22.00356,0-52.8738,30.48651-74.85907,56.02105l-0.38538.40521c-10.29949,9.67454-21.9824,14.87443-33.83792,15.099v55.61861H363.38872V145.89484h-15.88A5.019,5.019,0,0,1,344.0782,144.57186Z" transform="translate(0 2)"/>
      <g>
        <g>
          <path class="cls-2" d="M113.60136,263.03169a12.019,12.019,0,0,1-1.14136,5.2438,13.22593,13.22593,0,0,1-3.06762,4.13815,13.85622,13.85622,0,0,1-4.49461,2.71116,15.53342,15.53342,0,0,1-5.49373.96284H75.57545v-50.654H99.90333a10.00856,10.00856,0,0,1,4.78023,1.14136,11.93488,11.93488,0,0,1,3.6383,2.96108,13.57941,13.57941,0,0,1,2.319,4.13815,13.94455,13.94455,0,0,1,.8206,4.67255,13.2861,13.2861,0,0,1-1.92626,7.02782,11.91838,11.91838,0,0,1-5.35091,4.744,12.66258,12.66258,0,0,1,6.88443,4.77966A13.50372,13.50372,0,0,1,113.60136,263.03169ZM80.49792,229.786v18.69134H97.90624a7.761,7.761,0,0,0,3.45978-.78432,9.17467,9.17467,0,0,0,4.60172-5.02958,9.78824,9.78824,0,0,0,.64209-3.53119,10.83825,10.83825,0,0,0-.60638-3.63945,8.90287,8.90287,0,0,0-1.712-2.95993,8.4651,8.4651,0,0,0-2.63975-1.99824,7.473,7.473,0,0,0-3.31754-.74862H80.49792Zm28.10957,32.39a10.372,10.372,0,0,0-.64209-3.60259,9.36755,9.36755,0,0,0-4.60172-5.2081,7.49409,7.49409,0,0,0-3.46036-.82118H80.49792v19.19119H99.40406a8.61949,8.61949,0,0,0,3.63887-.78432,9.03255,9.03255,0,0,0,2.9248-2.1042,10.165,10.165,0,0,0,1.92626-3.06819A9.4538,9.4538,0,0,0,108.60749,262.176Z" transform="translate(0 2)"/>
          <path class="cls-2" d="M157.26324,271.66386v4.42377H123.23209v-50.654h33.3885v4.42377h-28.466v18.264h24.82888v4.2084H128.15456v19.334h29.10869Z" transform="translate(0 2)"/>
          <path class="cls-2" d="M171.88784,234.70848v41.37916h-4.92247v-50.654h3.85252l33.53131,42.16464V225.505h4.92247v50.58259h-4.27981Z" transform="translate(0 2)"/>
          <path class="cls-2" d="M222.1134,276.08764V225.505h4.92247v50.58259H222.1134Z" transform="translate(0 2)"/>
          <path class="cls-2" d="M260.42437,276.44467a21.42765,21.42765,0,0,1-9.66642-2.17676,24.01082,24.01082,0,0,1-7.52767-5.7782,26.26019,26.26019,0,0,1-4.85106-8.24059,27.18985,27.18985,0,0,1-1.71146-9.48791,26.33906,26.33906,0,0,1,1.81857-9.70328,26.774,26.774,0,0,1,5.02958-8.20489,24.33614,24.33614,0,0,1,7.56222-5.67109,21.34626,21.34626,0,0,1,9.41765-2.10535,20.893,20.893,0,0,1,9.66758,2.24817,24.29926,24.29926,0,0,1,7.49082,5.88531,27.20729,27.20729,0,0,1,4.81536,8.24059,26.7078,26.7078,0,0,1,1.71261,9.38195,26.32961,26.32961,0,0,1-1.81972,9.70213,26.65936,26.65936,0,0,1-4.99388,8.16918,24.153,24.153,0,0,1-7.52652,5.63539A21.33758,21.33758,0,0,1,260.42437,276.44467Zm-18.76275-25.68346a23.57123,23.57123,0,0,0,1.35558,7.95381,21.59831,21.59831,0,0,0,3.85252,6.7779,18.93683,18.93683,0,0,0,5.921,4.7094,16.53889,16.53889,0,0,0,7.63363,1.74717,16.326,16.326,0,0,0,7.77644-1.85428A18.98192,18.98192,0,0,0,274.123,265.243a22.4547,22.4547,0,0,0,3.74541-6.77675,23.29527,23.29527,0,0,0-.07141-15.66,21.793,21.793,0,0,0-3.88822-6.7422,19.1776,19.1776,0,0,0-5.92217-4.67255,16.386,16.386,0,0,0-7.56222-1.74832,16.5871,16.5871,0,0,0-7.77644,1.81857,18.52189,18.52189,0,0,0-5.921,4.81651,22.36173,22.36173,0,0,0-3.74541,6.7779A23.19851,23.19851,0,0,0,241.66162,250.76121Z" transform="translate(0 2)"/>
          <path class="cls-2" d="M293.81286,276.08764v-50.654h33.17428v4.42377h-28.2518v18.61993h23.90059v4.13815H298.73534v23.47215h-4.92247Z" transform="translate(0 2)"/>
          <path class="cls-2" d="M335.54906,276.08764v-50.654h33.17428v4.42377h-28.2518v18.61993h23.90059v4.13815H340.47153v23.47215h-4.92247Z" transform="translate(0 2)"/>
        </g>
        <g>
          <path class="cls-2" d="M104.519,348.31337a26.127,26.127,0,0,1-11.77722-2.65018,29.26069,29.26069,0,0,1-9.17-7.04044,31.981,31.981,0,0,1-5.91037-10.03887,33.13107,33.13107,0,0,1-2.086-11.56072,32.07923,32.07923,0,0,1,2.21661-11.82075,32.59656,32.59656,0,0,1,6.12745-9.99592,29.62737,29.62737,0,0,1,9.21352-6.90927,26.00559,26.00559,0,0,1,11.47308-2.56428,25.45691,25.45691,0,0,1,11.77722,2.73724,29.59548,29.59548,0,0,1,9.12646,7.17162,33.114,33.114,0,0,1,5.86684,10.03887,32.53613,32.53613,0,0,1,2.08718,11.42955,32.09451,32.09451,0,0,1-2.21719,11.82075,32.43678,32.43678,0,0,1-6.08508,9.95181,29.42528,29.42528,0,0,1-9.16883,6.86748A26.01629,26.01629,0,0,1,104.519,348.31337ZM81.65937,317.02315a28.72287,28.72287,0,0,0,1.65186,9.69178,26.32385,26.32385,0,0,0,4.69324,8.257,23.06616,23.06616,0,0,0,7.21457,5.73683,20.15284,20.15284,0,0,0,9.3,2.129,19.87932,19.87932,0,0,0,9.47413-2.26014,23.11223,23.11223,0,0,0,7.21457-5.90979,27.35173,27.35173,0,0,0,4.56207-8.257,28.3771,28.3771,0,0,0-.0859-19.07943,26.53807,26.53807,0,0,0-4.73735-8.21288,23.375,23.375,0,0,0-7.214-5.69388,19.98489,19.98489,0,0,0-9.21352-2.129,20.20756,20.20756,0,0,0-9.47413,2.216,22.58007,22.58007,0,0,0-7.214,5.86684,27.306,27.306,0,0,0-4.56323,8.257A28.27777,28.27777,0,0,0,81.65937,317.02315Z" transform="translate(0 2)"/>
          <path class="cls-2" d="M141.19842,316.589a32.99472,32.99472,0,0,1,1.95484-11.08246,30.71823,30.71823,0,0,1,5.69388-9.86475,29.211,29.211,0,0,1,9.21236-7.08456A27.42469,27.42469,0,0,1,170.48969,285.82a25.53769,25.53769,0,0,1,14.08089,3.73672,23.431,23.431,0,0,1,8.69115,9.73473l-4.86737,2.95548a18.77756,18.77756,0,0,0-3.56375-5.12855A19.173,19.173,0,0,0,175.27,291.8598a24.21709,24.21709,0,0,0-5.12855-.56416,20.649,20.649,0,0,0-9.8218,2.259,22.6332,22.6332,0,0,0-7.17046,5.911,25.7663,25.7663,0,0,0-4.3891,8.214,29.83136,29.83136,0,0,0-1.47774,9.25647,27.41711,27.41711,0,0,0,1.78188,9.8218,27.78782,27.78782,0,0,0,4.86737,8.30111,23.38592,23.38592,0,0,0,7.30047,5.73683,20.04921,20.04921,0,0,0,9.17057,2.129,23.00981,23.00981,0,0,0,5.34563-.65239,20.58053,20.58053,0,0,0,5.30152-2.086,22.30367,22.30367,0,0,0,4.73735-3.56259,18.47829,18.47829,0,0,0,3.65082-5.17267l5.04149,2.60839a18.89221,18.89221,0,0,1-4.17319,6.12687,27.38719,27.38719,0,0,1-5.99686,4.47733,29.9255,29.9255,0,0,1-6.99633,2.78135,28.96317,28.96317,0,0,1-7.25868.95536,24.67222,24.67222,0,0,1-11.64662-2.78135,30.50941,30.50941,0,0,1-9.12646-7.25752,33.64564,33.64564,0,0,1-5.95391-10.16888A32.8461,32.8461,0,0,1,141.19842,316.589Z" transform="translate(0 2)"/>
          <path class="cls-2" d="M246.54389,342.49064v5.38858H205.08363V286.16709h40.67786v5.38858h-34.681v22.252h30.24779V318.935H211.08048v23.5556h35.46341Z" transform="translate(0 2)"/>
          <path class="cls-2" d="M251.84425,347.87922l25.81457-61.71213h4.95443l25.81457,61.71213h-6.51807l-7.997-19.29534H266.18632l-7.90991,19.29534h-6.43217Zm28.3359-54.58462-12.69021,30.50782h25.03217Z" transform="translate(0 2)"/>
          <path class="cls-2" d="M323.377,297.46662v50.4126h-5.99686V286.16709h4.69324l40.852,51.36912V286.25415h5.99686v61.62507h-5.21446Z" transform="translate(0 2)"/>
        </g>
        <g>
          <path class="cls-2" d="M75.57545,404.46667V360.64894h4.26448v43.81773H75.57545Z" transform="translate(0 2)"/>
          <path class="cls-2" d="M95.22839,368.62161v35.84506H90.96391V360.58739H94.301l29.0477,36.52444v-36.4629h4.26448v43.81773H123.905Z" transform="translate(0 2)"/>
          <path class="cls-2" d="M138.73662,404.46667V360.64894h4.26448v43.81773h-4.26448Z" transform="translate(0 2)"/>
          <path class="cls-2" d="M185.33579,364.41868H169.69936v40.048h-4.326v-40.048H149.73691v-3.83128h35.59888v3.83128Z" transform="translate(0 2)"/>
          <path class="cls-2" d="M192.07161,404.46667V360.64894h4.26448v43.81773h-4.26448Z" transform="translate(0 2)"/>
          <path class="cls-2" d="M202.82453,404.46667l18.35513-43.87928h3.52355l18.35513,43.87928h-4.63494l-5.686-13.72019H213.02236l-5.62443,13.72019h-4.5734Zm20.14827-38.81233-9.0237,21.69286H231.748Z" transform="translate(0 2)"/>
          <path class="cls-2" d="M276.24625,364.41868H260.60983v40.048h-4.326v-40.048H240.64738v-3.83128h35.59888v3.83128Z" transform="translate(0 2)"/>
          <path class="cls-2" d="M282.98207,404.46667V360.64894h4.26448v43.81773h-4.26448Z" transform="translate(0 2)"/>
          <path class="cls-2" d="M298.061,360.58739l15.698,38.50222,15.57488-38.50222h4.5734l-18.29359,43.87928h-3.76974l-18.29359-43.87928H298.061Z" transform="translate(0 2)"/>
          <path class="cls-2" d="M369.69079,400.63539v3.83129H340.20989V360.58739h28.9246v3.83128H344.47437v15.82106h21.50822v3.64664H344.47437v16.749h25.21641Z" transform="translate(0 2)"/>
        </g>
      </g>
    </g>
  </g>
</svg>
