<?xml version="1.0" encoding="UTF-8" standalone="no"?>
<!-- Created with Inkscape (http://www.inkscape.org/) -->

<svg
   xmlns:dc="http://purl.org/dc/elements/1.1/"
   xmlns:cc="http://creativecommons.org/ns#"
   xmlns:rdf="http://www.w3.org/1999/02/22-rdf-syntax-ns#"
   xmlns:svg="http://www.w3.org/2000/svg"
   xmlns="http://www.w3.org/2000/svg"
   xmlns:sodipodi="http://sodipodi.sourceforge.net/DTD/sodipodi-0.dtd"
   xmlns:inkscape="http://www.inkscape.org/namespaces/inkscape"
   version="1.1"
   width="963.75"
   height="362.88449"
   id="svg2"
   xml:space="preserve"
   inkscape:version="0.91 r13725"
   sodipodi:docname="boi_logo copy.svg"><sodipodi:namedview
     pagecolor="#ffffff"
     bordercolor="#666666"
     borderopacity="1"
     objecttolerance="10"
     gridtolerance="10"
     guidetolerance="10"
     inkscape:pageopacity="0"
     inkscape:pageshadow="2"
     inkscape:window-width="1185"
     inkscape:window-height="733"
     id="namedview107"
     showgrid="false"
     inkscape:zoom="0.2843061"
     inkscape:cx="154.76277"
     inkscape:cy="603.52254"
     inkscape:window-x="64"
     inkscape:window-y="0"
     inkscape:window-maximized="0"
     inkscape:current-layer="g10" /><metadata
     id="metadata8"><rdf:RDF><cc:Work
         rdf:about=""><dc:format>image/svg+xml</dc:format><dc:type
           rdf:resource="http://purl.org/dc/dcmitype/StillImage" /></cc:Work></rdf:RDF></metadata><defs
     id="defs6"><clipPath
       id="clipPath12"><path
         d="M 0,0 771,0 771,932 0,932 0,0 z"
         inkscape:connector-curvature="0"
         id="path14" /></clipPath><clipPath
       id="clipPath22"><path
         d="M 0,0 771,0 771,932 0,932 0,0 z"
         inkscape:connector-curvature="0"
         id="path24" /></clipPath><clipPath
       id="clipPath74"><path
         d="m 0.06,931.912 770.89,0 L 770.95,0 0.06,0 l 0,931.912 z"
         inkscape:connector-curvature="0"
         id="path76" /></clipPath><clipPath
       id="clipPath80"><path
         d="M 0,0 771,0 771,932 0,932 0,0 z"
         inkscape:connector-curvature="0"
         id="path82" /></clipPath><clipPath
       id="clipPath92"><path
         d="M 0,0 771,0 771,932 0,932 0,0 z"
         inkscape:connector-curvature="0"
         id="path94" /></clipPath><clipPath
       id="clipPath146"><path
         d="m 0.06,931.912 770.89,0 L 770.95,0 0.06,0 l 0,931.912 z"
         inkscape:connector-curvature="0"
         id="path148" /></clipPath><clipPath
       id="clipPath152"><path
         d="M 0,0 771,0 771,932 0,932 0,0 z"
         inkscape:connector-curvature="0"
         id="path154" /></clipPath><clipPath
       id="clipPath164"><path
         d="M 0,0 771,0 771,932 0,932 0,0 z"
         inkscape:connector-curvature="0"
         id="path166" /></clipPath></defs><g
     transform="matrix(1.25,0,0,-1.25,0,362.8845)"
     clip-path="url(#clipPath12)"
     id="g10"><g
       id="g16" /><g
       id="g70" /><g
       id="g88" /><g
       id="g142"><g
         clip-path="url(#clipPath146)"
         id="g144"><g
           clip-path="url(#clipPath152)"
           id="g150"><path
             d="m 0.06,290.404 770.89,0 L 770.95,0 0.06,0 l 0,290.404 z"
             inkscape:connector-curvature="0"
             id="path158"
             style="fill:#1a3e5e;fill-opacity:1;fill-rule:nonzero;stroke:none" /></g></g></g><g
       id="g160"><g
         clip-path="url(#clipPath164)"
         id="g162"><path
           d="m 443.223,202.591 c 0,1.301 -0.225,2.562 -0.675,3.788 -0.45,1.225 -1.087,2.299 -1.913,3.225 -0.825,0.925 -1.8,1.675 -2.925,2.25 -1.125,0.575 -2.338,0.863 -3.638,0.863 l -20.4,0 0,-20.175 19.876,0 c 1.35,0 2.625,0.273 3.825,0.824 1.2,0.55 2.224,1.287 3.075,2.212 0.85,0.925 1.525,2.001 2.025,3.226 0.499,1.224 0.75,2.487 0.75,3.787 z m -29.551,34.051 0,-19.649 18.301,0 c 1.299,0 2.512,0.273 3.637,0.824 1.126,0.55 2.1,1.275 2.925,2.175 0.826,0.9 1.463,1.937 1.913,3.113 0.45,1.174 0.675,2.411 0.675,3.712 0,1.35 -0.213,2.626 -0.638,3.826 -0.425,1.2 -1.025,2.236 -1.799,3.112 -0.777,0.874 -1.701,1.575 -2.776,2.1 -1.075,0.525 -2.238,0.787 -3.487,0.787 l -18.751,0 z m 34.801,-34.95 c 0,-2.001 -0.401,-3.838 -1.2,-5.513 -0.8,-1.676 -1.875,-3.125 -3.225,-4.35 -1.35,-1.226 -2.925,-2.175 -4.725,-2.851 -1.8,-0.674 -3.726,-1.012 -5.775,-1.012 l -25.051,0 0,53.252 25.575,0 c 1.85,0 3.526,-0.401 5.026,-1.2 1.5,-0.8 2.775,-1.838 3.825,-3.113 1.05,-1.275 1.862,-2.725 2.438,-4.35 0.574,-1.625 0.862,-3.262 0.862,-4.912 0,-2.7 -0.675,-5.164 -2.025,-7.389 -1.35,-2.225 -3.225,-3.887 -5.625,-4.987 3.049,-0.899 5.462,-2.575 7.237,-5.025 1.775,-2.45 2.663,-5.301 2.663,-8.55"
           inkscape:connector-curvature="0"
           id="path168"
           style="fill:#ffffff;fill-opacity:1;fill-rule:nonzero;stroke:none" /><path
           d="m 494.374,192.617 0,-4.651 -35.776,0 0,53.252 35.1,0 0,-4.651 -29.926,0 0,-19.2 26.103,0 0,-4.425 -26.103,0 0,-20.325 30.602,0"
           inkscape:connector-curvature="0"
           id="path170"
           style="fill:#ffffff;fill-opacity:1;fill-rule:nonzero;stroke:none" /><path
           d="m 509.749,231.467 0,-43.501 -5.175,0 0,53.252 4.05,0 35.251,-44.327 0,44.252 5.175,0 0,-53.177 -4.5,0 -34.801,43.501"
           inkscape:connector-curvature="0"
           id="path172"
           style="fill:#ffffff;fill-opacity:1;fill-rule:nonzero;stroke:none" /><path
           d="m 562.55,241.143 5.175,0 0,-53.177 -5.175,0 0,53.177 z"
           inkscape:connector-curvature="0"
           id="path174"
           style="fill:#ffffff;fill-opacity:1;fill-rule:nonzero;stroke:none" /><path
           d="m 583.101,214.592 c 0,-2.9 0.474,-5.689 1.425,-8.362 0.949,-2.676 2.299,-5.052 4.05,-7.126 1.75,-2.075 3.825,-3.725 6.225,-4.951 2.399,-1.225 5.074,-1.836 8.025,-1.836 3,0 5.724,0.649 8.175,1.949 2.45,1.3 4.525,3 6.226,5.101 1.699,2.1 3.011,4.474 3.937,7.124 0.924,2.651 1.388,5.351 1.388,8.101 0,2.899 -0.488,5.688 -1.463,8.362 -0.976,2.675 -2.338,5.037 -4.087,7.088 -1.751,2.05 -3.825,3.687 -6.226,4.913 -2.4,1.225 -5.05,1.838 -7.95,1.838 -3.001,0 -5.726,-0.637 -8.175,-1.912 -2.451,-1.276 -4.526,-2.963 -6.225,-5.064 -1.701,-2.099 -3.014,-4.475 -3.938,-7.125 -0.926,-2.651 -1.387,-5.351 -1.387,-8.1 z m 19.725,-27.001 c -3.7,0 -7.088,0.761 -10.162,2.288 -3.076,1.525 -5.714,3.549 -7.914,6.075 -2.2,2.524 -3.9,5.412 -5.1,8.663 -1.2,3.25 -1.799,6.575 -1.799,9.975 0,3.55 0.637,6.949 1.912,10.2 1.275,3.25 3.038,6.125 5.287,8.626 2.251,2.499 4.9,4.487 7.95,5.962 3.05,1.475 6.35,2.213 9.901,2.213 3.7,0 7.088,-0.788 10.163,-2.363 3.074,-1.575 5.699,-3.637 7.875,-6.187 2.175,-2.55 3.863,-5.438 5.063,-8.663 1.199,-3.225 1.8,-6.513 1.8,-9.864 0,-3.55 -0.638,-6.95 -1.913,-10.199 -1.275,-3.251 -3.026,-6.114 -5.25,-8.588 -2.225,-2.475 -4.864,-4.451 -7.913,-5.925 -3.051,-1.476 -6.35,-2.213 -9.9,-2.213"
           inkscape:connector-curvature="0"
           id="path176"
           style="fill:#ffffff;fill-opacity:1;fill-rule:nonzero;stroke:none" /><path
           d="m 637.927,187.966 0,53.252 34.875,0 0,-4.651 -29.7,0 0,-19.574 25.126,0 0,-4.351 -25.126,0 0,-24.676 -5.175,0"
           inkscape:connector-curvature="0"
           id="path178"
           style="fill:#ffffff;fill-opacity:1;fill-rule:nonzero;stroke:none" /><path
           d="m 681.803,187.966 0,53.252 34.876,0 0,-4.651 -29.701,0 0,-19.574 25.127,0 0,-4.351 -25.127,0 0,-24.676 -5.175,0"
           inkscape:connector-curvature="0"
           id="path180"
           style="fill:#ffffff;fill-opacity:1;fill-rule:nonzero;stroke:none" /><path
           d="m 414.893,144.931 c 0,-3.534 0.578,-6.93 1.736,-10.189 1.157,-3.259 2.802,-6.153 4.934,-8.68 2.132,-2.529 4.661,-4.539 7.585,-6.031 2.924,-1.493 6.182,-2.238 9.777,-2.238 3.655,0 6.975,0.791 9.96,2.376 2.984,1.583 5.512,3.655 7.584,6.213 2.07,2.559 3.669,5.451 4.796,8.68 1.128,3.229 1.692,6.518 1.692,9.869 0,3.532 -0.593,6.93 -1.782,10.189 -1.188,3.257 -2.848,6.136 -4.98,8.634 -2.133,2.498 -4.66,4.492 -7.584,5.986 -2.924,1.491 -6.154,2.238 -9.686,2.238 -3.655,0 -6.976,-0.776 -9.96,-2.329 -2.985,-1.554 -5.514,-3.61 -7.584,-6.168 -2.072,-2.559 -3.671,-5.453 -4.797,-8.681 -1.129,-3.23 -1.691,-6.519 -1.691,-9.869 z m 24.032,-32.895 c -4.509,0 -8.635,0.928 -12.381,2.786 -3.747,1.858 -6.961,4.325 -9.641,7.402 -2.681,3.075 -4.751,6.594 -6.213,10.554 -1.462,3.96 -2.193,8.01 -2.193,12.153 0,4.325 0.777,8.467 2.33,12.427 1.553,3.959 3.7,7.462 6.442,10.509 2.741,3.045 5.969,5.467 9.686,7.263 3.715,1.797 7.735,2.696 12.061,2.696 4.508,0 8.636,-0.959 12.382,-2.877 3.746,-1.92 6.943,-4.433 9.594,-7.54 2.651,-3.106 4.706,-6.624 6.168,-10.554 1.462,-3.928 2.194,-7.934 2.194,-12.015 0,-4.326 -0.779,-8.468 -2.331,-12.427 -1.552,-3.96 -3.685,-7.447 -6.397,-10.462 -2.71,-3.016 -5.924,-5.424 -9.639,-7.22 -3.717,-1.796 -7.737,-2.695 -12.062,-2.695"
           inkscape:connector-curvature="0"
           id="path182"
           style="fill:#ffffff;fill-opacity:1;fill-rule:nonzero;stroke:none" /><path
           d="m 477.485,145.388 c 0,3.898 0.685,7.782 2.055,11.651 1.371,3.867 3.366,7.324 5.986,10.37 2.618,3.046 5.848,5.528 9.685,7.448 3.838,1.919 8.194,2.878 13.068,2.878 5.787,0 10.721,-1.311 14.803,-3.929 4.079,-2.62 7.127,-6.031 9.137,-10.234 l -5.117,-3.107 c -1.036,2.132 -2.285,3.93 -3.747,5.392 -1.462,1.462 -3.046,2.649 -4.751,3.563 -1.706,0.914 -3.473,1.567 -5.3,1.965 -1.828,0.396 -3.625,0.593 -5.391,0.593 -3.899,0 -7.342,-0.792 -10.326,-2.375 -2.985,-1.585 -5.498,-3.656 -7.538,-6.214 -2.042,-2.559 -3.579,-5.436 -4.614,-8.635 -1.038,-3.199 -1.554,-6.442 -1.554,-9.731 0,-3.595 0.624,-7.037 1.874,-10.326 1.247,-3.29 2.953,-6.199 5.116,-8.727 2.162,-2.528 4.721,-4.538 7.675,-6.031 2.955,-1.492 6.169,-2.238 9.641,-2.238 1.827,0 3.7,0.229 5.62,0.686 1.918,0.457 3.776,1.188 5.573,2.193 1.797,1.004 3.458,2.253 4.981,3.745 1.522,1.493 2.8,3.305 3.838,5.438 l 5.3,-2.742 c -1.037,-2.437 -2.499,-4.583 -4.387,-6.441 -1.888,-1.86 -3.99,-3.427 -6.305,-4.707 -2.316,-1.279 -4.767,-2.254 -7.355,-2.924 -2.591,-0.669 -5.133,-1.004 -7.631,-1.004 -4.447,0 -8.529,0.974 -12.244,2.924 -3.716,1.949 -6.914,4.491 -9.594,7.63 -2.681,3.136 -4.767,6.699 -6.26,10.69 -1.493,3.989 -2.238,8.056 -2.238,12.199"
           inkscape:connector-curvature="0"
           id="path184"
           style="fill:#ffffff;fill-opacity:1;fill-rule:nonzero;stroke:none" /><path
           d="m 588.233,118.158 0,-5.665 -43.586,0 0,64.877 42.764,0 0,-5.665 -36.46,0 0,-23.393 31.799,0 0,-5.391 -31.799,0 0,-24.763 37.282,0"
           inkscape:connector-curvature="0"
           id="path186"
           style="fill:#ffffff;fill-opacity:1;fill-rule:nonzero;stroke:none" /><path
           d="m 623.595,169.877 -13.341,-32.073 26.316,0 -12.975,32.073 z m -29.789,-57.384 27.138,64.877 5.209,0 27.138,-64.877 -6.852,0 -8.407,20.285 -29.149,0 -8.315,-20.285 -6.762,0"
           inkscape:connector-curvature="0"
           id="path188"
           style="fill:#ffffff;fill-opacity:1;fill-rule:nonzero;stroke:none" /><path
           d="m 669.007,165.491 0,-52.998 -6.304,0 0,64.877 4.934,0 42.947,-54.004 0,53.912 6.304,0 0,-64.785 -5.482,0 -42.399,52.998"
           inkscape:connector-curvature="0"
           id="path190"
           style="fill:#ffffff;fill-opacity:1;fill-rule:nonzero;stroke:none" /><path
           d="m 408.497,99.068 4.483,0 0,-46.065 -4.483,0 0,46.065 z"
           inkscape:connector-curvature="0"
           id="path192"
           style="fill:#ffffff;fill-opacity:1;fill-rule:nonzero;stroke:none" /><path
           d="m 429.158,90.687 0,-37.684 -4.484,0 0,46.13 3.509,0 30.537,-38.398 0,38.333 4.483,0 0,-46.065 -3.898,0 -30.147,37.684"
           inkscape:connector-curvature="0"
           id="path194"
           style="fill:#ffffff;fill-opacity:1;fill-rule:nonzero;stroke:none" /><path
           d="m 474.897,99.068 4.483,0 0,-46.065 -4.483,0 0,46.065 z"
           inkscape:connector-curvature="0"
           id="path196"
           style="fill:#ffffff;fill-opacity:1;fill-rule:nonzero;stroke:none" /><path
           d="m 523.886,95.105 -16.438,0 0,-42.102 -4.548,0 0,42.102 -16.438,0 0,4.028 37.424,0 0,-4.028"
           inkscape:connector-curvature="0"
           id="path198"
           style="fill:#ffffff;fill-opacity:1;fill-rule:nonzero;stroke:none" /><path
           d="m 530.968,99.068 4.483,0 0,-46.065 -4.483,0 0,46.065 z"
           inkscape:connector-curvature="0"
           id="path200"
           style="fill:#ffffff;fill-opacity:1;fill-rule:nonzero;stroke:none" /><path
           d="m 563.454,93.806 -9.487,-22.805 18.712,0 -9.225,22.805 z m -21.182,-40.803 19.296,46.13 3.705,0 19.296,-46.13 -4.872,0 -5.978,14.424 -20.726,0 -5.913,-14.424 -4.808,0"
           inkscape:connector-curvature="0"
           id="path202"
           style="fill:#ffffff;fill-opacity:1;fill-rule:nonzero;stroke:none" /><path
           d="m 619.459,95.105 -16.438,0 0,-42.102 -4.548,0 0,42.102 -16.438,0 0,4.028 37.424,0 0,-4.028"
           inkscape:connector-curvature="0"
           id="path204"
           style="fill:#ffffff;fill-opacity:1;fill-rule:nonzero;stroke:none" /><path
           d="m 626.54,99.068 4.484,0 0,-46.065 -4.484,0 0,46.065 z"
           inkscape:connector-curvature="0"
           id="path206"
           style="fill:#ffffff;fill-opacity:1;fill-rule:nonzero;stroke:none" /><path
           d="m 642.393,99.133 16.503,-40.477 16.373,40.477 4.808,0 -19.231,-46.13 -3.964,0 -19.231,46.13 4.742,0"
           inkscape:connector-curvature="0"
           id="path208"
           style="fill:#ffffff;fill-opacity:1;fill-rule:nonzero;stroke:none" /><path
           d="m 717.696,57.031 0,-4.028 -30.993,0 0,46.13 30.408,0 0,-4.028 -25.925,0 0,-16.632 22.612,0 0,-3.834 -22.612,0 0,-17.608 26.51,0"
           inkscape:connector-curvature="0"
           id="path210"
           style="fill:#ffffff;fill-opacity:1;fill-rule:nonzero;stroke:none" /><path
           d="m 361.864,119.548 -17.129,15.909 -20.61,-59.018 c -0.727,-2.082 -2.784,-3.481 -5.117,-3.481 -0.124,0 -0.25,0.003 -0.374,0.013 -2.465,0.157 -4.494,1.863 -4.93,4.148 L 294.68,176.5 278.538,119.142 c -0.519,-1.846 -2.076,-3.243 -4.065,-3.648 -1.937,-0.399 -4.015,0.271 -5.288,1.71 l -17.714,20.03 -12.414,-17.676 c -0.999,-1.42 -2.679,-2.268 -4.494,-2.268 0,0 -19.676,-0.023 -20.187,0.128 -6.784,0.26 -16.923,1.406 -25.909,5.48 -12.469,5.655 -19.059,15.309 -19.059,27.92 0,10.6 5.02,22.629 19.112,24.603 4.718,0.661 9.442,-0.105 13.122,-2.114 l 1.833,-1 -0.134,2.083 c -0.45,7.012 -3.088,16.642 -20.738,19.305 -1.188,0.18 -2.43,0.271 -3.692,0.271 -24.307,0 -58.409,-33.679 -82.696,-61.886 l -0.426,-0.448 C 84.411,120.945 71.505,115.2 58.409,114.952 l 0,-61.441 324.787,0 0,64.576 -17.542,0 c -1.428,0 -2.774,0.519 -3.79,1.461 z m -303.455,121.084 0,-115.087 c 14.227,0.452 25.609,9.563 29.91,13.548 l 0.09,0.093 c 37.897,43.957 67.52,65.326 90.564,65.326 1.765,0 3.516,-0.129 5.204,-0.384 19.203,-2.899 29.778,-14.174 29.778,-31.754 0.016,-6.359 -3.544,-13.673 -8.87,-14.425 -3.271,-0.461 -6.192,1.574 -7.229,4.923 l -0.075,0.243 -0.171,0.189 c -0.81,0.894 -3.081,1.799 -5.853,1.799 -1.34,0 -2.658,-0.212 -3.919,-0.629 -3.595,-1.19 -7.879,-4.524 -7.879,-13.656 0,-8.512 4.088,-14.33 12.865,-18.31 9.171,-4.159 20.202,-4.855 24.75,-4.855 l 13.985,-0.065 14.925,20.904 c 0.937,1.331 2.509,2.175 4.205,2.261 0.101,0.006 0.209,0.009 0.315,0.009 1.591,0 3.093,-0.666 4.12,-1.828 l 15.669,-17.717 19.681,69.935 c 0.624,2.215 2.763,3.762 5.201,3.762 l 0.221,-0.004 c 2.546,-0.094 4.638,-1.803 5.088,-4.156 l 19.551,-102.133 16.676,47.756 c 0.579,1.658 2.063,2.939 3.871,3.344 1.805,0.399 3.726,-0.107 5.038,-1.325 l 21.749,-20.2 15.327,0 0,112.436 -324.787,0"
           inkscape:connector-curvature="0"
           id="path212"
           style="fill:#ffffff;fill-opacity:1;fill-rule:nonzero;stroke:none" /></g></g></g></svg>