<?xml version="1.0" encoding="UTF-8"?>
<!DOCTYPE svg PUBLIC "-//W3C//DTD SVG 1.1//EN" "http://www.w3.org/Graphics/SVG/1.1/DTD/svg11.dtd">
<!-- Creator: CorelDRAW X6 -->
<svg xmlns="http://www.w3.org/2000/svg" xml:space="preserve" width="4.86111in" height="1.98611in" version="1.1" style="shape-rendering:geometricPrecision; text-rendering:geometricPrecision; image-rendering:optimizeQuality; fill-rule:evenodd; clip-rule:evenodd"
viewBox="0 0 4861 1986"
 xmlns:xlink="http://www.w3.org/1999/xlink">
 <defs>
  <style type="text/css">
   <![CDATA[
    .str0 {stroke:#363F62;stroke-width:9.20866}
    .fil1 {fill:none;fill-rule:nonzero}
    .fil3 {fill:#077A88}
    .fil2 {fill:#363F62}
    .fil0 {fill:#363F62;fill-rule:nonzero}
   ]]>
  </style>
 </defs>
 <g id="Layer_x0020_1">
  <metadata id="CorelCorpID_0Corel-Layer"/>
  <path class="fil0" d="M1349 589c3,-7 5,-13 5,-20l0 0 56 0 0 1c-8,2 -10,12 -10,19l21 159c2,15 4,24 17,33l0 1 -63 0 0 -1c11,-4 13,-13 13,-24l-18 -156 -73 186c-16,-12 -21,-21 -29,-39l-62 -146 -18 139c-3,20 -5,34 10,41l0 1 -53 0 0 -1c14,-12 16,-28 18,-45l18 -136c1,-9 5,-22 -10,-30l0 -1 57 0 0 0c0,5 3,10 5,15l61 143 54 -137z"/>
  <path class="fil0" d="M1575 596l-32 82 64 0 -32 -82zm-41 106l-17 46c-7,18 -9,28 6,33l0 1 -60 0 0 -1c19,-9 24,-28 31,-46l54 -135c5,-12 11,-25 -5,-30l0 -1 51 0 67 166c7,18 13,37 32,46l0 1 -66 0 0 -1c16,-7 13,-11 5,-33l-18 -46 -82 0z"/>
  <path class="fil0" d="M1811 568c43,0 67,23 67,52 0,29 -25,51 -52,57l47 59c14,17 34,34 53,45l-30 0c-17,0 -28,-4 -38,-16l-40 -49 -30 -46c26,-4 56,-16 56,-46 0,-23 -20,-37 -42,-36 -7,0 -15,1 -22,3l0 145c0,15 -2,39 15,44l0 1 -62 0 0 -1c17,-6 14,-30 14,-44l0 -122c0,-15 2,-39 -14,-45l0 -1 77 0z"/>
  <path class="fil0" d="M1948 614c0,-15 2,-39 -14,-45l0 -1 62 0 0 1c-16,6 -14,30 -14,45l0 122c0,15 -2,38 14,44l0 1 -62 0 0 -1c16,-6 14,-30 14,-44l0 -122z"/>
  <path class="fil0" d="M2083 739c0,18 0,31 17,41l0 1 -57 0 0 -1c17,-10 17,-23 17,-41l0 -129c0,-18 0,-31 -17,-41l0 -1 47 0 0 0c1,4 3,6 5,8l5 7 119 150 0 -123c0,-18 0,-31 -17,-41l0 -1 57 0 0 1c-17,10 -17,23 -17,41l0 182c-23,-8 -33,-18 -47,-37l-111 -141 0 125z"/>
  <path class="fil0" d="M2351 754l41 4c21,2 44,-5 60,-19l1 0 -15 42 -135 0 0 -1c17,-6 15,-30 15,-44l0 -122c0,-15 2,-39 -15,-45l0 -1 104 0c6,0 11,1 15,-2l1 0 0 38 -1 0c-10,-12 -23,-13 -38,-13 -11,0 -23,0 -33,2l0 60 39 0c5,0 10,0 14,-2l1 0 0 34 -1 0c-5,-9 -19,-9 -29,-9l-24 0 0 77z"/>
  <path class="fil0" d="M2688 758c27,3 54,-10 54,-41 0,-31 -30,-45 -59,-43l-23 1 0 80 28 3zm-18 -104c21,0 51,-7 51,-34 0,-22 -21,-34 -40,-32l-22 2 0 64 11 0zm-44 -41c0,-15 2,-38 -14,-44l0 -1 77 0c43,0 68,18 68,47 0,22 -14,34 -32,42 29,6 53,26 53,57 0,25 -17,46 -39,57 -23,11 -48,10 -73,10l-54 0 0 -1c16,-6 14,-30 14,-45l0 -122z"/>
  <path class="fil0" d="M2839 614c0,-15 2,-39 -14,-45l0 -1 62 0 0 1c-16,6 -14,30 -14,45l0 122c0,15 -2,38 14,44l0 1 -62 0 0 -1c16,-6 14,-30 14,-44l0 -122z"/>
  <path class="fil0" d="M2967 671c0,45 32,92 83,92 49,0 81,-36 81,-84 0,-47 -30,-93 -81,-93 -50,0 -82,36 -82,85zm201 1c0,66 -55,114 -119,114 -64,0 -118,-46 -118,-113 0,-62 54,-113 122,-112 68,0 116,52 116,110z"/>
  <path class="fil0" d="M3260 756c8,2 16,2 24,2 48,0 91,-25 91,-81 0,-57 -32,-85 -86,-85 -10,0 -19,1 -29,4l0 161zm-33 -143c0,-15 2,-39 -14,-43l0 -1 79 0c74,0 120,40 120,105 0,64 -49,109 -122,109l-78 0 0 -1c16,-11 14,-27 14,-46l0 -122z"/>
  <path class="fil0" d="M3473 614c0,-15 2,-39 -14,-45l0 -1 62 0 0 1c-16,6 -14,30 -14,45l0 122c0,15 -2,38 14,44l0 1 -62 0 0 -1c16,-6 14,-30 14,-44l0 -122z"/>
  <path class="fil0" d="M3702 627c9,-23 20,-50 0,-58l0 -1 48 0 -86 223c-23,-15 -30,-18 -40,-43l-49 -133c-6,-17 -11,-35 -25,-46l0 -1 47 0 0 4c0,7 6,23 9,30l52 141 44 -116z"/>
  <path class="fil0" d="M3837 754l41 4c21,2 44,-5 60,-19l1 0 -15 42 -135 0 0 -1c17,-6 15,-30 15,-44l0 -122c0,-15 2,-39 -15,-45l0 -1 104 0c6,0 11,1 15,-2l1 0 0 38 -1 0c-10,-12 -23,-13 -38,-13 -11,0 -23,0 -33,2l0 60 39 0c5,0 10,0 14,-2l1 0 0 34 -1 0c-5,-9 -19,-9 -29,-9l-24 0 0 77z"/>
  <path class="fil0" d="M4060 568c43,0 67,23 67,52 0,29 -25,51 -52,57l47 59c14,17 34,34 53,45l-30 0c-17,0 -28,-4 -38,-16l-40 -49 -30 -46c26,-4 56,-16 56,-46 0,-23 -20,-37 -42,-36 -7,0 -15,1 -22,3l0 145c0,15 -2,39 15,44l0 1 -62 0 0 -1c17,-6 14,-30 14,-44l0 -122c0,-15 2,-39 -14,-45l0 -1 77 0z"/>
  <path class="fil0" d="M4309 607c-13,-13 -33,-20 -51,-20 -18,0 -42,7 -42,30 0,44 112,44 112,104 0,35 -36,67 -87,67 -20,0 -40,-3 -58,-10l-9 -41c19,17 46,27 71,27 18,0 46,-11 46,-34 0,-51 -112,-42 -112,-110 0,-41 42,-56 81,-56 16,0 33,2 48,7l0 37z"/>
  <path class="fil0" d="M4390 614c0,-15 2,-39 -14,-45l0 -1 62 0 0 1c-16,6 -14,30 -14,45l0 122c0,15 -2,38 14,44l0 1 -62 0 0 -1c16,-6 14,-30 14,-44l0 -122z"/>
  <path class="fil0" d="M4563 739c0,18 0,31 17,41l0 1 -64 0 0 -1c16,-6 14,-30 14,-44l0 -145 -29 0c-14,0 -29,4 -39,13l-1 0 11 -39 1 0c4,2 8,2 12,2l129 0c6,0 11,0 15,-2l1 0 -10 39 -1 0c-4,-11 -17,-13 -28,-13l-29 0 0 148z"/>
  <path class="fil0" d="M4755 739c0,19 0,29 17,41l0 1 -63 0 0 -1c16,-8 14,-29 14,-44l0 -48 -54 -87c-9,-14 -15,-25 -31,-33l30 0c10,0 20,2 24,9l52 85 40 -60c6,-8 13,-24 -5,-32l0 -1 57 0 -80 120 0 51z"/>
  <path class="fil0" d="M1190 983c0,45 32,92 83,92 49,0 81,-36 81,-84 0,-47 -30,-93 -81,-93 -50,0 -82,36 -82,85zm201 1c0,66 -55,114 -119,114 -64,0 -118,-46 -118,-113 0,-62 54,-113 122,-112 68,0 116,52 116,110z"/>
  <path class="fil0" d="M1490 1070c27,3 53,-10 53,-41 0,-31 -30,-45 -59,-43l-23 1 0 80 28 3zm-18 -104c21,0 51,-7 51,-34 0,-22 -21,-34 -40,-32l-22 2 0 64 11 0zm-44 -41c0,-15 2,-38 -14,-44l0 -1 77 0c43,0 68,18 68,47 0,22 -14,34 -32,42 29,6 53,26 53,57 0,25 -17,46 -39,57 -23,11 -48,10 -73,10l-53 0 0 -1c16,-6 14,-30 14,-45l0 -122z"/>
  <path class="fil0" d="M1732 918c-13,-13 -33,-20 -51,-20 -18,0 -42,7 -42,30 0,44 112,44 112,104 0,35 -36,67 -87,67 -20,0 -40,-3 -58,-10l-9 -41c19,17 46,27 71,27 18,0 46,-11 46,-34 0,-51 -112,-42 -112,-110 0,-41 42,-56 81,-56 16,0 33,2 48,7l0 37z"/>
  <path class="fil0" d="M1826 1066l41 4c21,2 44,-5 60,-19l1 0 -15 42 -135 0 0 -1c17,-6 15,-30 15,-44l0 -122c0,-15 2,-39 -15,-45l0 -1 104 0c6,0 11,1 15,-2l1 0 0 38 -1 0c-10,-12 -23,-13 -38,-13 -11,0 -23,0 -33,2l0 60 39 0c5,0 10,0 14,-2l1 0 0 34 -1 0c-5,-9 -19,-9 -29,-9l-24 0 0 77z"/>
  <path class="fil0" d="M2027 879c43,0 67,23 67,52 0,29 -25,51 -52,57l47 59c14,17 34,34 53,45l-30 0c-17,0 -28,-4 -38,-16l-40 -49 -30 -46c26,-4 56,-16 56,-46 0,-23 -20,-37 -42,-36 -7,0 -15,1 -22,3l0 145c0,15 -2,39 15,44l0 1 -62 0 0 -1c17,-6 14,-30 14,-44l0 -122c0,-15 2,-39 -14,-45l0 -1 77 0z"/>
  <path class="fil0" d="M2269 938c9,-23 20,-50 0,-58l0 -1 48 0 -86 223c-23,-15 -30,-18 -40,-43l-49 -133c-6,-17 -11,-35 -25,-46l0 -1 47 0 0 4c0,7 6,23 9,30l52 141 44 -116z"/>
  <path class="fil0" d="M2397 907l-32 82 64 0 -32 -82zm-41 106l-17 46c-7,18 -9,28 6,33l0 1 -60 0 0 -1c19,-9 24,-28 31,-46l54 -135c5,-12 11,-25 -5,-30l0 -1 51 0 67 166c7,18 13,37 32,46l0 1 -66 0 0 -1c16,-7 13,-11 5,-33l-18 -46 -82 0z"/>
  <path class="fil0" d="M2592 1051c0,18 0,31 17,41l0 1 -64 0 0 -1c16,-6 14,-30 14,-44l0 -145 -29 0c-14,0 -29,4 -39,13l-1 0 11 -39 1 0c4,2 8,2 12,2l129 0c6,0 11,0 15,-2l1 0 -10 39 -1 0c-4,-11 -17,-13 -28,-13l-29 0 0 148z"/>
  <path class="fil0" d="M2682 925c0,-15 2,-39 -14,-45l0 -1 62 0 0 1c-16,6 -14,30 -14,45l0 122c0,15 -2,38 14,44l0 1 -62 0 0 -1c16,-6 14,-30 14,-44l0 -122z"/>
  <path class="fil0" d="M2787 983c0,45 32,92 83,92 49,0 81,-36 81,-84 0,-47 -30,-93 -81,-93 -50,0 -82,36 -82,85zm201 1c0,66 -55,114 -119,114 -64,0 -118,-46 -118,-113 0,-62 54,-113 122,-112 68,0 116,52 116,110z"/>
  <path class="fil0" d="M3050 1051c0,18 0,31 17,41l0 1 -57 0 0 -1c17,-10 17,-23 17,-41l0 -129c0,-18 0,-31 -17,-41l0 -1 47 0 0 0c1,4 3,6 5,8l5 7 119 150 0 -123c0,-18 0,-31 -17,-41l0 -1 57 0 0 1c-17,10 -17,23 -17,41l0 182c-23,-8 -33,-18 -47,-37l-111 -141 0 126z"/>
  <path class="fil0" d="M3387 1051c0,18 0,31 17,41l0 1 -57 0 0 -1c17,-10 17,-23 17,-41l0 -129c0,-18 0,-31 -17,-41l0 -1 47 0 0 0c1,4 3,6 5,8l5 7 119 150 0 -123c0,-18 0,-31 -17,-41l0 -1 57 0 0 1c-17,10 -17,23 -17,41l0 182c-23,-8 -33,-18 -47,-37l-111 -141 0 126z"/>
  <path class="fil0" d="M3634 1066l41 4c21,2 44,-5 60,-19l1 0 -15 42 -135 0 0 -1c17,-6 15,-30 15,-44l0 -122c0,-15 2,-39 -15,-45l0 -1 104 0c6,0 11,1 15,-2l1 0 0 38 -1 0c-10,-12 -23,-13 -38,-13 -11,0 -23,0 -33,2l0 60 39 0c5,0 10,0 14,-2l1 0 0 34 -1 0c-5,-9 -19,-9 -29,-9l-24 0 0 77z"/>
  <path class="fil0" d="M3834 1051c0,18 0,31 17,41l0 1 -64 0 0 -1c16,-6 14,-30 14,-44l0 -145 -29 0c-14,0 -29,4 -39,13l-1 0 11 -39 1 0c4,2 8,2 12,2l129 0c6,0 11,0 15,-2l1 0 -10 39 -1 0c-4,-11 -17,-13 -28,-13l-29 0 0 148z"/>
  <path class="fil0" d="M4012 1103c-30,-21 -32,-19 -43,-53l-38 -120c-6,-18 -11,-39 -27,-50l0 -1 47 0c-1,7 2,17 4,23l48 151 38 -123c6,-20 13,-41 -5,-50l0 -1 46 0c-2,8 0,18 5,33l45 140 37 -119c6,-18 17,-45 -9,-54l0 -1 50 0 -68 223c-30,-20 -32,-19 -43,-52l-36 -112 -51 164z"/>
  <path class="fil0" d="M4262 983c0,45 32,92 83,92 49,0 81,-36 81,-84 0,-47 -30,-93 -81,-93 -50,0 -82,36 -82,85zm201 1c0,66 -55,114 -119,114 -64,0 -118,-46 -118,-113 0,-62 54,-113 122,-112 68,0 116,52 116,110z"/>
  <path class="fil0" d="M4570 879c43,0 67,23 67,52 0,29 -25,51 -52,57l47 59c14,17 34,34 53,45l-30 0c-17,0 -28,-4 -38,-16l-40 -49 -30 -46c26,-4 56,-16 56,-46 0,-23 -20,-37 -42,-36 -7,0 -15,1 -22,3l0 145c0,15 -2,39 15,44l0 1 -62 0 0 -1c17,-6 14,-30 14,-44l0 -122c0,-15 2,-39 -14,-45l0 -1 77 0z"/>
  <path class="fil0" d="M4772 926c11,-15 30,-35 8,-45l0 -1 58 0 0 0 -75 96 66 86c10,13 22,22 39,30l0 1 -30 0c-16,0 -31,-6 -37,-14l-72 -97 42 -56zm-80 -1c0,-15 2,-38 -15,-44l0 -1 62 0 0 1c-17,6 -15,30 -15,44l0 122c0,15 -2,39 15,45l0 1 -62 0 0 -1c17,-6 15,-30 15,-45l0 -122z"/>
  <line class="fil1 str0" x1="1151" y1="1169" x2="4868" y2= "1169" />
  <path class="fil0" d="M1148 1350l11 -7c8,14 16,21 27,21 4,0 8,-1 12,-3 4,-2 7,-5 9,-8 2,-3 3,-7 3,-11 0,-4 -1,-8 -4,-13 -4,-6 -11,-13 -22,-21 -11,-8 -17,-14 -20,-17 -5,-6 -7,-13 -7,-20 0,-6 1,-11 4,-15 3,-5 6,-8 11,-11 5,-3 10,-4 16,-4 6,0 12,1 17,4 5,3 11,8 17,16l-10 8c-5,-6 -9,-11 -12,-13 -3,-2 -7,-3 -11,-3 -5,0 -9,2 -13,5 -3,3 -5,7 -5,12 0,3 1,5 2,8 1,3 3,5 6,9 2,2 7,6 17,13 11,8 19,15 23,22 4,6 6,13 6,19 0,9 -4,17 -11,24 -7,7 -16,10 -26,10 -8,0 -15,-2 -21,-6 -6,-4 -12,-11 -17,-21z"/>
  <path class="fil0" d="M1372 1273l-22 46 44 0 -22 -46zm2 -27l60 128 -14 0 -20 -42 -55 0 -20 42 -14 0 60 -128 3 0z"/>
  <polygon class="fil0" points="1525,1373 1525,1246 1527,1246 1612,1344 1612,1246 1625,1246 1625,1373 1622,1373 1538,1277 1538,1373 "/>
  <polygon class="fil0" points="1715,1258 1715,1246 1785,1246 1785,1258 1756,1258 1756,1373 1743,1373 1743,1258 "/>
  <path class="fil0" d="M1911 1273l-22 46 44 0 -22 -46zm2 -27l60 128 -14 0 -20 -42 -55 0 -20 42 -14 0 60 -128 3 0z"/>
  <path class="fil0" d="M2197 1312l0 49 16 0c9,0 16,-1 21,-3 4,-2 8,-5 10,-9 3,-4 4,-8 4,-13 0,-6 -2,-11 -6,-15 -4,-4 -9,-7 -15,-9 -4,-1 -12,-2 -23,-2l-7 0zm0 -54l0 41 7 0c9,0 15,-1 20,-2 4,-2 7,-4 10,-8 2,-4 4,-8 4,-12 0,-6 -2,-10 -6,-14 -4,-3 -11,-5 -20,-5l-15 0zm-13 -13l25 0c10,0 18,1 23,4 5,2 10,6 13,11 3,5 5,10 5,17 0,6 -1,11 -4,15 -3,5 -7,8 -12,11 7,2 12,5 15,8 4,3 6,7 8,11 2,4 3,9 3,14 0,10 -4,19 -11,26 -8,7 -18,11 -30,11l-35 0 0 -128z"/>
  <path class="fil0" d="M2409 1273l-22 46 44 0 -22 -46zm2 -27l60 128 -14 0 -20 -42 -55 0 -20 42 -14 0 60 -128 3 0z"/>
  <path class="fil0" d="M2575 1258l0 43 22 0c9,0 15,-1 19,-2 4,-2 7,-4 10,-8 2,-4 3,-8 3,-12 0,-4 -1,-8 -4,-12 -2,-4 -5,-6 -9,-8 -4,-1 -10,-2 -19,-2l-23 0zm-13 -13l25 0c14,0 24,1 29,2 8,2 14,5 19,11 5,6 7,13 7,21 0,7 -2,13 -5,18 -3,5 -8,9 -14,12 -6,3 -14,4 -25,4l46 59 -16 0 -46 -59 -7 0 0 59 -13 0 0 -128z"/>
  <path class="fil0" d="M2754 1312l0 49 16 0c9,0 16,-1 21,-3 4,-2 8,-5 10,-9 3,-4 4,-8 4,-13 0,-6 -2,-11 -6,-15 -4,-4 -9,-7 -15,-9 -4,-1 -12,-2 -23,-2l-7 0zm0 -54l0 41 7 0c9,0 15,-1 20,-2 4,-2 8,-4 10,-8 2,-4 4,-8 4,-12 0,-6 -2,-10 -6,-14 -4,-3 -11,-5 -20,-5l-15 0zm-13 -13l25 0c10,0 18,1 23,4 5,2 10,6 13,11 3,5 5,10 5,17 0,6 -1,11 -4,15 -3,5 -7,8 -12,11 7,2 12,5 15,8 4,3 6,7 8,11 2,4 3,9 3,14 0,10 -4,19 -11,26 -8,7 -18,11 -30,11l-35 0 0 -128z"/>
  <path class="fil0" d="M2965 1273l-22 46 44 0 -22 -46zm2 -27l60 128 -14 0 -20 -42 -55 0 -20 42 -14 0 60 -128 3 0z"/>
  <path class="fil0" d="M3131 1258l0 43 22 0c9,0 15,-1 19,-2 4,-2 7,-4 10,-8 2,-4 3,-8 3,-12 0,-4 -1,-8 -4,-12 -2,-4 -5,-6 -9,-8 -4,-1 -10,-2 -19,-2l-23 0zm-13 -13l25 0c14,0 24,1 29,2 8,2 14,5 19,11 5,6 7,13 7,21 0,7 -2,13 -5,18 -3,5 -8,9 -14,12 -6,3 -14,4 -25,4l46 59 -16 0 -46 -59 -7 0 0 59 -13 0 0 -128z"/>
  <path class="fil0" d="M3348 1273l-22 46 44 0 -22 -46zm2 -27l60 128 -14 0 -20 -42 -55 0 -20 42 -14 0 60 -128 3 0z"/>
  <path class="fil0" d="M3740 1269l-10 8c-6,-7 -12,-13 -20,-16 -8,-4 -16,-6 -26,-6 -10,0 -20,2 -28,7 -9,5 -15,11 -20,20 -5,8 -7,18 -7,28 0,16 5,29 16,39 11,10 24,16 40,16 18,0 33,-7 45,-21l10 8c-6,8 -14,14 -24,19 -10,4 -20,7 -32,7 -22,0 -40,-7 -53,-22 -11,-13 -16,-28 -16,-46 0,-19 7,-34 20,-47 13,-13 30,-19 49,-19 12,0 23,2 32,7 10,5 18,11 24,20z"/>
  <polygon class="fil0" points="3837,1246 3850,1246 3850,1299 3915,1299 3915,1246 3927,1246 3927,1373 3915,1373 3915,1312 3850,1312 3850,1373 3837,1373 "/>
  <path class="fil0" d="M4081 1273l-22 46 44 0 -22 -46zm2 -27l60 128 -14 0 -20 -42 -55 0 -20 42 -14 0 60 -128 3 0z"/>
  <polygon class="fil0" points="4233,1373 4233,1246 4236,1246 4321,1344 4321,1246 4334,1246 4334,1373 4331,1373 4246,1277 4246,1373 "/>
  <polygon class="fil0" points="4436,1373 4436,1246 4439,1246 4524,1344 4524,1246 4537,1246 4537,1373 4534,1373 4450,1277 4450,1373 "/>
  <polygon class="fil0" points="4640,1246 4713,1246 4713,1258 4652,1258 4652,1298 4712,1298 4712,1311 4652,1311 4652,1361 4712,1361 4712,1373 4640,1373 "/>
  <polygon class="fil0" points="4806,1246 4819,1246 4819,1361 4868,1361 4868,1373 4806,1373 "/>
  <path class="fil2" d="M1744 1893c-28,-19 -58,-34 -89,-49 -34,-16 -69,-32 -104,-47 -8,-3 -16,-5 -24,-7 -10,-3 -20,-8 -24,-17 -8,-17 -24,-23 -40,-29 -72,-23 -143,-47 -210,-82 -18,-9 -35,-19 -52,-30 -5,-3 -11,-6 -18,-4 -3,1 -5,-1 -6,-3 -5,-10 -14,-17 -24,-21 -41,-18 -74,-46 -105,-76 -48,-46 -115,-131 -157,-183 -11,-13 -21,-27 -30,-41 -6,-10 -10,-20 -9,-31 0,-4 0,-8 -2,-11 -6,-7 9,-95 10,-104 1,-7 -1,-12 -9,-14 -7,-2 -13,-1 -16,5 -10,18 -24,18 -42,9 -1,-1 -3,-1 -4,-2 0,-1 0,-3 0,-4 10,-12 -21,-64 -26,-78 -2,-4 -4,-9 -5,-13 -3,-8 -7,-13 -16,-16 -11,-3 -24,-12 -31,-20 -31,-54 -70,-74 -85,-168 -1,-3 -16,-28 -15,-56 3,-1 6,-2 9,-3 3,-1 7,-2 10,-2 16,-2 31,2 46,4 11,1 23,2 34,3 21,0 42,-1 64,-4 14,-2 28,-4 42,-7 17,-4 33,-8 49,-18 13,-8 24,-20 32,-36 3,-7 7,-14 10,-22 1,-2 1,-4 2,-6 -1,-3 -3,-4 -6,-3 -3,1 -5,2 -8,3 0,0 0,0 0,0 -8,2 -15,5 -23,8 -2,1 -4,0 -5,-1 -2,-2 -4,-3 -7,-3 -9,-1 -15,-7 -20,-14 -1,-2 -3,-3 -5,-3 -2,0 -3,-1 -4,-2 -3,-2 -5,-5 -9,-5 -2,0 -4,-2 -5,-3 -2,-2 -6,-2 -8,-5 -1,-1 -2,-1 -3,0 -3,2 -5,0 -6,-3 -2,-5 -7,-6 -11,-7 -6,-2 -12,0 -18,-2 -1,-1 -2,-1 -3,-2 -2,-4 -5,-5 -9,-4 -3,1 -6,1 -9,-1 -1,-1 -2,0 -3,0 -5,1 -10,0 -14,-4 -1,-1 -3,-1 -4,-1 -4,1 -7,1 -9,-3 -1,-2 -2,-1 -4,-1 -6,2 -12,2 -16,-3 -1,-2 -3,-2 -5,-2 -7,1 -13,0 -18,-3 -4,-2 -8,0 -12,0 -4,0 -9,2 -12,5 -4,4 -8,2 -8,-4 0,-12 -3,-21 -9,-29 -1,-1 -1,-2 -2,-4 -2,-5 -4,-9 -9,-10 -3,-1 -4,-4 -6,-7 -2,-3 -4,-6 -7,-8 -1,-1 -2,-2 -3,-4 -1,-2 -2,-4 -4,-5 -1,-1 -3,-2 -3,-3 -3,-5 -6,-10 -8,-15 -1,-2 -2,-4 -4,-5 -5,-1 -6,-7 -10,-10 -4,-4 -7,-8 -11,-11 -1,-1 -1,-1 -2,-3 -1,-1 -1,-3 -2,-3 -4,0 -5,-4 -6,-7 -2,-3 -5,-4 -8,-5 -2,0 -4,-1 -4,-4 -1,-4 -5,-4 -7,-7 -2,-3 -5,-6 -9,-4 -1,1 -2,-2 -2,-3 -1,-3 -3,-3 -5,-3 -5,0 -9,-2 -12,-6 -1,-1 -3,-2 -4,-3 -4,-1 -8,-4 -10,-9 -1,-3 -2,-7 -4,-10 -1,-2 -2,-4 -1,-7 2,-10 1,-19 -5,-26 -1,0 -1,0 -2,-1 -2,1 -4,3 -5,6 -3,8 -6,15 -9,22 -2,6 -4,13 -5,19 -1,7 -2,14 -3,21 -1,13 1,26 3,38 3,18 9,34 14,51 6,22 14,42 23,63 7,17 16,33 26,48 5,8 11,17 15,26 5,10 7,21 7,33 0,4 0,8 0,12 -10,15 -12,19 -11,19 -17,26 -27,57 -35,85 -6,16 -10,30 -9,40 -3,17 -5,31 -7,37 -54,310 134,639 272,762 -2,5 -7,4 -11,3 -38,-7 -76,-13 -114,-19 -4,-1 -7,-1 -11,-1 -9,-2 -17,-4 -26,-6 -38,-11 -74,-27 -109,-45 -5,-3 -11,-5 -17,-8 -4,-2 -9,-3 -13,0 -5,3 -6,8 -5,13 3,18 10,34 24,47 4,4 7,8 9,13 1,3 3,6 6,7 14,9 28,18 41,29 3,3 129,75 136,72 3,-1 19,7 25,10 6,3 26,0 30,3 16,13 35,19 53,28 9,4 18,8 24,16 4,1 8,2 12,3 8,-2 15,-4 23,-7 7,-3 14,-3 21,-2 26,5 52,5 79,3 6,3 13,4 20,2 6,-2 12,-1 18,1 8,11 20,12 33,14 15,6 49,33 223,62 42,7 85,-1 128,-1 35,0 69,5 104,7 10,1 21,3 31,7 8,4 18,3 26,4 31,5 61,10 92,14 3,0 6,1 9,1l2 0c7,0 14,-1 21,-3 11,-4 23,-8 34,-11 8,1 15,-1 22,-5 22,-11 40,-28 55,-46 1,-4 2,-7 2,-10 -2,-7 -6,-12 -13,-17z"/>
  <path class="fil3" d="M366 1614c-8,-18 0,-35 -2,-51 -1,-6 3,-11 9,-12 6,-1 8,4 11,7 15,11 22,27 31,42 7,12 15,11 19,-1 7,-21 14,-42 9,-65 -1,-6 2,-14 -6,-16 -10,-2 -7,9 -11,13 -3,0 -4,-1 -4,-3 3,-51 -18,-95 -45,-137 -19,-29 -39,-58 -61,-85 -15,-18 -25,-39 -31,-62 -6,-21 -17,-40 -26,-60 -1,-3 -3,-5 -7,-4 -3,0 -5,3 -5,6 -2,10 -5,19 -5,29 1,31 1,62 2,93 1,36 9,70 16,104 6,30 15,60 34,85 1,2 2,4 3,7 -8,-5 -26,-34 -31,-45 -18,-42 -22,-88 -31,-132 -1,-5 0,-11 -1,-17 0,-5 0,-12 -6,-14 -17,-5 -12,-19 -13,-30 0,-8 3,-16 1,-24 -1,-4 -3,-8 -9,-6 -16,6 -22,22 -14,37 4,8 8,15 11,23 4,10 8,13 16,2 5,15 3,28 2,41 -3,67 27,122 64,174 12,17 24,33 34,51 11,18 24,37 42,51z"/>
  <path class="fil3" d="M37 1075c-16,38 -22,82 -21,126 1,39 12,76 22,114 19,67 62,117 112,163 18,16 38,28 55,44 3,3 7,4 11,6 5,2 11,4 15,0 5,-5 -1,-9 -3,-14 -6,-14 -14,-26 -26,-37 -15,-14 -11,-38 6,-48 7,-4 8,-9 5,-16 -8,-18 -19,-35 -28,-53 -14,-28 -25,-57 -39,-84 -5,-10 -13,-18 -19,-28 -20,-32 -36,-66 -45,-102 -7,-28 -16,-55 -26,-81 -2,-4 -3,-9 -8,-8 -6,0 -6,6 -7,9 -1,3 -2,5 -3,11z"/>
  <path class="fil3" d="M1089 48c-60,-17 -115,-37 -175,-40 -28,-1 -55,-4 -82,0 -48,7 -97,16 -141,37 -15,7 -29,18 -40,30 -6,7 -12,14 -9,25 1,5 -2,8 -5,11 -9,9 -10,21 -9,33 1,9 5,13 15,8 28,-16 47,-13 68,11 7,8 13,5 20,3 49,-14 95,-34 141,-55 64,-28 132,-45 202,-52 4,0 7,-1 11,-2 3,-1 6,-1 6,-5 0,-4 -3,-4 -3,-4z"/>
  <path class="fil3" d="M160 906c-9,24 -21,51 -26,80 -3,17 -10,34 -1,51 1,1 1,3 0,4 -13,39 1,77 6,116 2,16 2,32 21,41 9,4 9,15 11,24 3,15 8,16 21,7 33,-23 39,-57 42,-94 1,-19 1,-38 5,-57 5,-22 -2,-44 -9,-66 -5,-18 -8,-35 -12,-53 -1,-6 -1,-13 -10,-13 -10,0 -9,-5 -7,-12 7,-31 16,-62 17,-94 0,-13 2,-25 7,-37 1,-3 3,-7 -1,-9 -4,-2 -6,1 -8,4 -13,16 -21,35 -32,52 -9,16 -14,33 -23,54z"/>
  <path class="fil3" d="M384 1769c37,13 72,29 111,34 5,1 12,3 14,-2 3,-7 -5,-8 -8,-11 -12,-12 -22,-26 -35,-37 -25,-21 -52,-39 -77,-60 -21,-17 -40,-36 -59,-55 -14,-13 -29,-23 -46,-31 -20,-11 -41,-20 -61,-31 -42,-22 -77,-53 -108,-89 -3,-4 -6,-11 -12,-7 -5,3 -1,9 0,13 16,44 39,84 75,116 15,14 29,28 46,40 2,2 5,4 4,7 -4,14 7,19 15,26 42,37 87,69 141,87z"/>
  <path class="fil3" d="M94 636c-21,46 -38,88 -36,133 2,41 0,82 14,122 4,12 11,22 21,29 6,4 12,6 19,2 3,-2 5,-5 4,-8 -2,-6 -6,-13 -13,-14 -18,-2 -13,-12 -9,-22 6,-14 15,-24 32,-25 8,-1 9,-4 3,-10 -9,-9 -12,-15 3,-21 9,-3 14,-13 18,-21 7,-15 16,-29 14,-47 -4,-41 -2,-83 -5,-124 -2,-34 5,-68 9,-102 1,-5 4,-11 -3,-14 -6,-2 -8,5 -11,9 -24,38 -49,75 -60,113z"/>
  <path class="fil3" d="M615 322c29,6 59,13 89,-2 27,-14 54,-28 78,-45 12,-9 28,-13 43,-17 36,-10 72,-18 109,-21 2,0 5,0 7,-1 6,-2 17,-2 16,-11 -1,-7 -10,-4 -16,-6 -46,-15 -94,-15 -141,-22 -16,-2 -32,-1 -46,5 -46,17 -91,34 -137,52 -10,4 -21,6 -12,22 4,7 -1,15 -9,17 -14,4 -10,10 -2,16 6,5 14,9 21,14z"/>
  <path class="fil3" d="M329 619c6,-14 2,-29 9,-43 22,-48 45,-95 74,-138 16,-23 30,-49 53,-68 3,-3 7,-7 3,-11 -3,-4 -7,0 -10,2 -31,17 -64,32 -86,62 -7,10 -19,16 -20,31 0,7 -7,13 -11,19 -2,3 -6,6 -10,4 -10,-7 -12,1 -17,6 -8,8 -10,20 -16,29 -14,26 -34,49 -44,77 -5,16 -15,32 -16,47 -2,17 -3,35 -2,53 1,9 6,9 13,7 37,-15 65,-38 79,-76z"/>
  <path class="fil3" d="M285 373c-12,29 -16,55 -19,81 -1,8 3,9 11,8 38,-1 48,-33 66,-56 32,-41 52,-90 84,-131 19,-25 35,-51 58,-73 3,-3 8,-6 5,-10 -3,-4 -8,0 -11,1 -45,20 -83,49 -117,84 -16,17 -33,34 -48,52 -12,15 -19,32 -27,43z"/>
  <path class="fil3" d="M427 319c12,-11 26,-21 36,-34 21,-24 50,-36 79,-43 26,-6 46,-19 69,-29 3,-1 7,-3 10,-5 11,-5 14,-14 5,-22 -13,-12 -17,-27 -21,-42 -3,-11 -7,-11 -16,-7 -21,10 -39,24 -56,39 -45,39 -79,87 -109,137 -1,1 0,3 -1,4 1,1 2,1 3,2z"/>
  <path class="fil3" d="M215 456c-13,35 -21,72 -26,109 -4,28 -8,56 -11,84 -2,20 -3,40 -2,60 0,4 -1,10 4,11 6,1 7,-5 8,-9 3,-9 5,-19 5,-29 -1,-39 14,-74 34,-107 9,-14 14,-29 24,-42 4,-6 5,-13 0,-19 -6,-8 -6,-17 0,-25 6,-8 7,-15 -5,-19 -7,-3 -10,-9 -12,-16 -1,-5 0,-12 -7,-12 -6,0 -6,6 -8,10 -1,2 -1,3 -2,5z"/>
  <path class="fil3" d="M44 732c7,-13 8,-24 12,-35 14,-41 27,-83 50,-120 11,-19 21,-39 35,-56 11,-14 18,-31 27,-47 2,-3 2,-6 -1,-9 -3,-2 -6,-1 -9,1 -8,6 -15,13 -21,20 -33,35 -50,77 -66,122 -12,34 -19,68 -27,103 -1,4 -1,7 -2,11 0,2 1,4 2,9z"/>
  <path class="fil3" d="M420 452c-21,23 -32,49 -45,74 -16,30 -30,60 -37,94 -2,9 -7,16 -12,24 -2,3 -4,6 0,9 3,2 5,-1 7,-3 21,-18 37,-39 48,-64 15,-33 25,-69 33,-104 2,-9 9,-16 6,-29z"/>
  <path class="fil3" d="M337 285c-4,-3 -7,-2 -8,0 -32,27 -61,56 -75,96 -5,15 -9,30 -13,45 -1,4 -1,8 -1,12 1,7 1,17 9,17 10,0 6,-10 7,-15 5,-50 20,-96 58,-131 8,-7 14,-16 22,-24z"/>
  <path class="fil3" d="M246 1575c7,3 13,6 20,8 3,1 6,2 8,0 2,-2 1,-5 -1,-8 -9,-10 -16,-22 -24,-33 -3,-4 -7,-6 -12,-5 -15,2 -29,-1 -42,-10 -3,-2 -8,-6 -12,-2 -5,5 2,8 5,11 17,16 36,29 57,39z"/>
  <path class="fil3" d="M3 1137c5,-16 8,-33 12,-49 6,-26 21,-49 26,-76 1,-8 7,-21 -2,-24 -9,-3 -8,11 -10,18 -10,34 -24,68 -28,104 0,2 0,4 0,6l0 1c0,6 1,12 3,18z"/>
  <path class="fil3" d="M885 171c25,7 49,10 72,20 3,1 6,1 8,-1 3,-3 1,-7 0,-10 -7,-13 -34,-25 -49,-23 -9,2 -19,3 -28,5 -3,1 -7,1 -7,6 0,3 4,4 4,4z"/>
  <path class="fil3" d="M198 751c-4,11 -14,19 -14,33 0,2 -1,5 1,6 3,2 5,0 7,-2 5,-6 9,-11 14,-17 9,-13 20,-24 33,-34 3,-2 6,-6 3,-10 -3,-3 -6,0 -9,1 -8,4 -16,9 -25,10 -8,1 -9,7 -10,13z"/>
  <path class="fil3" d="M861 265c-38,2 -68,21 -98,41 34,-12 68,-22 98,-41z"/>
  <path class="fil3" d="M478 334c15,-11 34,-11 49,-23 9,-7 17,-13 29,-9 3,1 6,1 7,-2 1,-3 0,-5 -2,-8 -6,-7 -14,-9 -20,-4 -19,15 -43,24 -63,38 -1,1 -1,2 -2,3 1,1 1,2 2,3z"/>
  <path class="fil3" d="M915 191c-30,-9 -60,-21 -93,-8 31,5 62,9 93,14 0,-2 1,-4 1,-6z"/>
  <path class="fil3" d="M165 1262c1,2 1,4 2,6 9,18 18,36 27,54 2,3 4,9 10,6 4,-2 1,-7 0,-10 -6,-17 -13,-34 -24,-49 -3,-4 -7,-9 -15,-6z"/>
  <path class="fil3" d="M728 16c-45,0 -93,35 -103,74 23,-38 58,-60 103,-74z"/>
  <path class="fil3" d="M687 159c-10,-3 -20,-3 -30,1 -3,1 -6,3 -6,7 0,4 4,5 7,6 9,2 17,4 26,4 6,1 14,1 15,-6 1,-7 -7,-9 -12,-12z"/>
  <path class="fil3" d="M53 867c-6,-29 -2,-55 -7,-81 -1,-3 0,-7 -5,-7 -4,0 -4,3 -4,6 0,26 2,53 10,78 0,1 1,1 6,5z"/>
  <path class="fil3" d="M399 1645c7,2 8,-3 8,-7 -3,-16 -7,-32 -17,-45 -1,-2 -4,-4 -6,-2 -1,1 -2,3 -2,5 1,17 5,32 15,46 1,1 2,2 3,3z"/>
  <path class="fil3" d="M918 108c26,-7 55,-6 79,-21 -29,-3 -54,8 -79,21z"/>
  <path class="fil2" d="M1186 101c0,-1 0,-1 1,-1 -2,-3 0,-7 1,-9 5,-8 11,-15 16,-22 0,-1 1,-1 1,-2 1,-3 2,-6 5,-8 1,-2 2,-4 3,-5 11,-21 25,-40 43,-56 3,10 5,19 8,27 6,14 20,23 21,40 0,0 0,0 1,1 1,-1 1,-1 2,0 4,-1 1,-10 8,-7 3,1 5,2 8,3l1 0c3,-1 7,-2 9,2 4,5 9,6 14,5 15,-3 28,4 41,10 9,4 18,6 27,11 4,0 7,2 11,4 4,2 8,3 12,5 2,0 3,0 4,2 5,1 8,4 12,6 9,0 18,4 27,-3 2,-2 4,1 6,2 7,5 12,11 18,16 11,9 19,22 30,31 0,0 1,1 1,1 0,1 1,2 2,2 5,5 9,9 14,14 4,2 8,4 10,8 0,1 1,2 1,3 2,1 5,2 7,4 10,15 21,30 32,45 24,34 31,72 41,111 -1,1 -7,3 -9,2 -1,0 -2,1 -3,1 -4,2 -7,3 -11,2l0 0c-5,1 -10,1 -15,-1l0 0c-8,-1 -16,-1 -23,-5l0 -1 0 1c-3,0 -5,-1 -7,-3l0 0c-2,0 -4,-1 -5,-3 -1,0 -1,0 -1,-1 -3,0 -6,-1 -9,-3 -7,-1 -13,-3 -19,-6 -18,-7 -34,-19 -51,-28 -25,-12 -43,-31 -63,-48 -15,-14 -26,-32 -41,-47 -30,-29 -59,-60 -89,-90 -3,-1 -6,-3 -9,-5 -1,-1 -2,-1 -3,-2 -17,-5 -34,-9 -51,-1 -7,3 -15,6 -23,5 -6,0 -7,-2 -3,-7z"/>
  <path class="fil2" d="M1281 290c0,0 0,0 0,0 0,0 0,0 0,0l0 0zm-255 -98c5,-1 10,-3 14,-6 10,-7 21,-7 32,-6 1,0 1,1 2,1 2,1 4,2 6,2 22,15 44,31 66,45 11,7 20,17 31,24 14,8 28,18 45,22 12,3 23,9 35,11 4,1 8,2 12,1 2,1 4,1 6,1 0,0 0,0 1,0 1,-1 2,-1 2,0 -1,0 -1,0 -2,0 1,1 2,1 4,1l0 0c1,1 3,1 5,1l0 0 0 0c5,2 10,1 15,1l0 0c3,1 6,0 9,-1 3,0 5,-1 7,-2 1,0 1,-1 2,-1 1,0 5,-2 5,-3 -11,-23 -20,-46 -39,-64 -8,-8 -17,-16 -25,-24 -1,-1 -3,-1 -5,-2 0,0 -1,-1 -1,-1 -2,-2 -5,-3 -7,-4 -3,-2 -7,-5 -10,-7 -1,0 -1,-1 -2,-1 0,0 0,-1 -1,-1 -8,-5 -14,-11 -23,-16 -4,-2 -8,-6 -13,-8 -1,-1 -3,-2 -4,-1 -4,6 -10,4 -16,5 -3,-1 -5,-3 -8,-3 -1,-1 -2,-1 -3,-1 -3,0 -5,-1 -8,-2 -2,-1 -5,-2 -7,-1 -6,-2 -12,-2 -18,-4 -1,1 -1,1 -2,2 0,-1 0,-2 2,-2 -9,-2 -18,-5 -27,-1 -3,1 -7,1 -10,-1 -2,-2 -4,-1 -6,0l0 0c-2,0 -3,-1 -5,-1 -5,-1 -2,5 -4,6 0,-1 -1,0 -1,0 0,0 0,0 0,0 -2,-10 -12,-15 -18,-22 -3,-5 -5,-10 -8,-16 -9,13 -16,26 -20,40 0,1 -1,2 -1,4 -1,1 -2,3 -2,5 0,0 0,1 -1,2 -3,5 -5,11 -8,16 -1,2 -1,4 0,6 0,0 -1,1 0,1 -2,3 -1,4 3,4z"/>
 </g>
</svg>
