<?xml version="1.0" encoding="utf-8"?>
<svg viewBox="0 0 319.24461 80.612024" xmlns="http://www.w3.org/2000/svg">
  <path style="fill:#ffffff;stroke-width:0.44642857" d="" id="path4588"/>
  <path style="fill:#ffffff;stroke-width:0.44642857" d="" id="path4594"/>
  <path style="fill:#ffffff;fill-opacity:1;stroke-width:0.15783633" d="" id="path4682"/>
  <g aria-label="AFRICAN&#10;CARNIVORE &#10;WILDBOOK" transform="matrix(0.914494, 0, 0, 1.093501, 0, 0)" style="font-style:normal;font-variant:normal;font-weight:normal;font-stretch:normal;font-size:26.66666603px;line-height:1;font-family:tahoma;-inkscape-font-specification:'tahoma, Normal';font-variant-ligatures:normal;font-variant-caps:normal;font-variant-numeric:normal;font-feature-settings:normal;text-align:center;letter-spacing:0px;word-spacing:0px;writing-mode:lr-tb;text-anchor:middle;fill:#ffffff;fill-opacity:1;stroke:none;stroke-width:0.1565387" id="text4566"/>
  <g id="g340">
    <g transform="matrix(0.008413, 0, 0, -0.008499, -9.627382, 96.370102)" fill="#000000" stroke="none" style="">
      <path d="M10790 11044 c-47 -25 -116 -70 -155 -99 -38 -30 -124 -95 -190 -146 -117 -89 -184 -127 -274 -155 l-45 -13 -42 39 c-47 43 -92 56 -155 46 -57 -9 -107 -37 -185 -103 -52 -44 -74 -57 -95 -55 -15 2 -51 -4 -79 -12 -29 -9 -56 -13 -61 -11 -8 6 -127 -32 -145 -46 -6 -5 -44 -15 -85 -23 -41 -9 -141 -29 -222 -45 -85 -18 -214 -35 -300 -41 -83 -6 -156 -15 -162 -20 -7 -6 -15 -7 -18 -3 -4 3 -12 1 -19 -4 -7 -6 -29 -16 -48 -22 -19 -6 -52 -27 -72 -46 -31 -30 -40 -34 -60 -26 -77 32 -258 35 -258 5 0 -19 -41 -18 -87 1 -41 17 -49 15 -35 -12 5 -10 12 -31 16 -47 l7 -29 -50 5 c-50 5 -50 5 -53 -26 -3 -36 0 -35 -128 -16 -100 16 -135 5 -160 -46 l-15 -31 -105 -6 c-115 -5 -160 -18 -160 -43 0 -15 -8 -16 -62 -10 -35 3 -107 9 -161 13 l-99 6 7 -46 7 -45 -54 -11 c-29 -5 -81 -15 -116 -22 -65 -12 -82 -23 -63 -42 6 -6 11 -19 11 -29 0 -19 -18 -23 -138 -33 -117 -9 -260 -44 -347 -84 -138 -65 -139 -65 -518 -57 -277 5 -377 3 -536 -10 -167 -14 -221 -15 -366 -5 -93 7 -215 19 -270 27 -214 33 -281 37 -614 40 -189 2 -346 6 -349 9 -8 7 -148 6 -155 -2 -4 -3 -27 -6 -52 -6 -25 0 -48 -3 -51 -8 -3 -5 -18 -9 -33 -9 -39 0 -207 -53 -269 -84 -82 -41 -248 -156 -265 -183 -4 -7 -14 -13 -21 -13 -7 0 -43 -33 -80 -72 -38 -40 -81 -86 -97 -103 -16 -16 -29 -33 -29 -37 0 -4 -28 -45 -63 -90 -98 -129 -150 -212 -229 -363 -72 -136 -98 -190 -138 -285 -17 -41 -40 -93 -50 -115 -24 -48 -90 -223 -90 -236 0 -5 -7 -26 -17 -47 -9 -20 -17 -40 -18 -44 -2 -5 -4 -10 -5 -13 -1 -3 -3 -8 -5 -12 -1 -5 -5 -15 -8 -23 -11 -25 -97 -304 -97 -315 0 -6 -9 -27 -20 -47 -11 -20 -25 -58 -31 -85 -6 -26 -22 -79 -34 -118 -12 -38 -30 -113 -40 -165 -10 -52 -19 -101 -21 -109 -6 -20 -6 -523 0 -541 10 -32 36 -412 36 -535 0 -124 -24 -388 -38 -409 -3 -6 -6 -22 -7 -36 -1 -14 -4 -32 -8 -40 -3 -8 -15 -71 -27 -140 -12 -69 -31 -168 -42 -220 -29 -133 -37 -399 -14 -469 9 -28 16 -52 16 -55 0 -2 -43 -51 -96 -108 -115 -123 -168 -200 -184 -270 -16 -63 -8 -221 15 -293 36 -117 50 -269 61 -628 4 -125 11 -230 16 -233 5 -3 8 -47 8 -97 -1 -51 0 -103 3 -117 3 -14 11 -59 17 -100 15 -92 46 -213 65 -250 28 -54 129 -134 236 -188 90 -44 114 -52 162 -52 45 0 61 5 84 24 l28 24 41 -38 c54 -50 123 -65 237 -53 78 8 82 9 85 34 l3 26 43 -15 c40 -15 46 -15 70 1 60 40 76 116 40 194 -10 21 -66 86 -124 144 -109 108 -145 130 -257 159 -46 12 -73 46 -73 94 0 14 -4 27 -8 30 -19 11 -103 398 -102 466 1 13 2 13 13 0 19 -24 139 -101 151 -97 6 2 20 42 32 88 11 46 27 94 35 107 14 22 14 22 56 -20 l42 -42 18 40 c9 21 17 42 17 46 1 3 4 9 8 13 4 4 15 52 25 107 16 88 21 102 43 113 26 13 68 55 56 55 -3 0 0 10 8 23 21 31 39 176 34 258 -5 70 -1 81 22 54 7 -8 16 -15 21 -15 5 0 9 77 9 170 l0 170 34 0 c34 0 80 35 90 69 14 47 26 143 26 206 0 67 2 73 28 92 41 30 59 76 73 183 12 89 24 120 48 120 6 0 17 13 25 28 8 16 46 58 85 95 39 37 71 70 71 75 0 4 18 26 41 47 22 22 73 79 112 128 39 48 75 87 79 87 17 0 -1 -189 -22 -235 -5 -11 -16 -47 -25 -80 -44 -164 -144 -374 -247 -519 -15 -21 -28 -45 -28 -53 0 -7 -4 -13 -9 -13 -5 0 -11 -8 -13 -18 -7 -27 -155 -250 -204 -309 -24 -28 -44 -56 -44 -62 0 -6 -4 -11 -9 -11 -28 0 -94 -251 -69 -266 4 -3 8 -16 8 -29 0 -62 125 -332 241 -522 23 -37 61 -105 86 -152 25 -47 51 -93 58 -101 7 -8 32 -51 54 -95 23 -44 48 -86 56 -95 33 -37 105 -200 120 -274 9 -43 20 -86 24 -95 77 -163 79 -164 232 -171 125 -5 149 -14 190 -70 37 -49 75 -60 241 -70 161 -10 205 -17 214 -31 3 -5 10 -9 16 -9 7 0 9 17 5 48 l-6 48 45 2 c24 1 61 9 81 18 21 10 40 18 43 19 3 1 13 5 23 9 9 5 41 11 70 15 l52 6 3 60 c4 84 -4 120 -40 161 -58 66 -111 80 -368 100 -190 14 -196 15 -248 47 -62 37 -147 124 -197 203 -19 30 -35 56 -35 58 0 2 -22 51 -50 109 -27 58 -50 111 -50 119 0 7 -9 42 -20 78 -11 36 -27 108 -35 160 -9 52 -19 102 -22 110 -3 8 -5 25 -4 37 1 11 -3 24 -8 28 -15 8 -15 242 -1 250 6 4 10 14 9 23 -1 10 1 24 4 32 4 8 11 37 17 63 13 60 50 134 106 213 24 34 44 65 44 69 0 3 44 61 97 128 126 157 400 437 573 585 255 218 416 400 484 547 23 50 76 204 76 221 0 7 5 25 12 41 6 15 10 36 9 46 -1 10 3 25 10 33 6 8 9 17 6 21 -4 3 -3 11 2 17 4 6 16 54 25 106 10 52 22 116 27 141 l10 45 72 11 c40 5 91 19 114 30 23 12 44 18 47 15 4 -3 6 -23 6 -45 0 -30 7 -45 30 -67 17 -15 38 -27 48 -25 9 2 48 6 85 9 60 5 67 4 57 -9 -7 -8 -9 -15 -4 -15 4 0 3 -5 -4 -12 -15 -15 -15 -61 0 -76 17 -17 95 -15 154 3 27 8 50 15 52 15 2 0 2 -35 1 -77 -2 -76 -2 -77 26 -89 16 -6 36 -8 45 -4 8 5 44 20 80 36 36 15 81 38 100 51 19 12 39 23 45 23 6 0 17 -20 24 -45 19 -66 64 -130 117 -168 l47 -35 40 29 c22 16 43 29 47 29 4 0 48 23 98 50 97 54 112 58 112 35 0 -8 15 -36 34 -62 47 -67 80 -136 112 -234 14 -46 31 -90 37 -96 5 -7 6 -13 1 -13 -4 0 -3 -5 3 -11 6 -6 9 -18 6 -25 -3 -8 -1 -20 5 -27 28 -34 89 -409 104 -632 5 -88 14 -169 20 -181 5 -12 8 -34 6 -50 -2 -22 2 -31 20 -39 13 -5 25 -21 28 -35 3 -14 13 -55 22 -92 15 -63 15 -72 -1 -140 -19 -77 -21 -96 -19 -140 2 -27 4 -28 56 -28 l53 0 12 -92 c12 -106 68 -382 84 -415 7 -16 7 -26 -2 -36 -6 -9 -12 -60 -13 -128 -2 -105 0 -117 21 -147 12 -18 31 -32 41 -32 10 0 21 -3 23 -8 3 -4 15 -79 27 -167 12 -88 24 -167 27 -175 3 -8 5 -32 4 -53 -2 -21 2 -43 7 -50 5 -7 14 -50 20 -97 42 -322 60 -400 125 -530 94 -189 189 -259 364 -268 75 -4 87 -2 127 22 24 14 46 32 50 41 5 14 10 13 45 -5 46 -23 109 -25 165 -5 29 10 45 11 59 3 24 -12 160 -6 179 9 7 6 25 13 40 17 21 5 29 14 34 42 7 40 -1 107 -18 138 -7 11 -12 25 -13 29 0 18 -113 151 -170 200 -85 75 -189 153 -228 172 -118 56 -205 246 -237 515 -7 58 -16 110 -20 115 -4 6 -10 44 -14 85 -4 41 -18 149 -31 240 -14 91 -30 199 -35 240 -18 128 -32 214 -37 230 -3 8 -5 28 -4 44 2 16 -2 38 -7 50 -31 64 -100 728 -118 1139 -4 87 -11 160 -16 163 -11 7 -10 132 2 139 6 3 10 15 10 25 0 13 9 22 28 26 15 3 67 26 115 50 78 39 88 42 94 26 3 -9 16 -39 28 -67 12 -27 26 -61 30 -75 4 -14 28 -68 53 -120 77 -162 134 -337 148 -449 3 -31 11 -62 16 -68 6 -7 8 -22 5 -33 -3 -11 -2 -22 2 -25 5 -2 14 -57 21 -122 13 -123 10 -542 -5 -575 -6 -15 -1 -18 33 -18 39 0 39 0 46 -46 3 -26 6 -104 6 -174 0 -138 1 -140 57 -140 21 0 24 -3 19 -22 -3 -13 -9 -75 -12 -138 -7 -126 3 -182 50 -277 55 -110 68 -169 76 -353 5 -96 11 -188 15 -205 13 -56 55 -187 67 -208 7 -12 11 -26 10 -31 -2 -4 3 -15 10 -23 9 -11 13 -57 13 -152 0 -156 9 -182 83 -238 82 -62 243 -101 457 -108 101 -4 111 -6 120 -26 10 -20 15 -21 123 -17 105 4 115 6 154 34 22 16 46 38 52 49 6 11 12 22 13 24 1 2 10 -6 20 -18 18 -21 19 -21 65 -5 66 22 108 63 108 104 0 27 -11 42 -62 89 -128 118 -142 134 -161 193 -28 91 -64 113 -233 142 -73 12 -81 12 -113 -6 -21 -12 -43 -17 -58 -13 -62 15 -144 210 -169 403 -4 29 -10 55 -14 57 -5 3 -6 14 -3 25 3 11 0 27 -7 35 -7 8 -10 24 -7 35 3 11 2 22 -2 25 -12 7 -64 353 -76 505 -16 202 -37 397 -45 415 -4 11 -13 92 -20 180 -6 88 -14 189 -18 225 -14 143 -7 581 12 745 10 88 22 165 26 170 4 6 15 44 24 85 36 160 75 264 141 375 36 60 65 111 65 112 0 2 24 36 53 76 109 147 157 227 192 318 20 52 42 108 50 124 7 17 23 66 34 110 71 275 72 277 153 304 34 12 75 33 91 49 l28 27 30 -33 c17 -19 36 -32 43 -29 6 3 26 33 43 67 l30 61 37 -42 c22 -26 40 -39 45 -33 5 5 21 41 36 79 15 39 29 73 31 77 3 4 34 -15 70 -42 37 -27 70 -48 74 -45 4 2 10 19 14 37 9 48 121 198 147 198 4 0 15 -20 25 -45 9 -25 19 -45 23 -44 24 2 151 222 151 262 0 22 11 22 43 -3 14 -11 30 -20 36 -20 29 0 69 132 90 298 13 102 44 166 82 170 25 3 149 -26 264 -62 27 -9 104 -23 170 -32 66 -8 131 -21 144 -27 34 -17 350 -16 382 0 13 7 58 21 99 32 103 26 293 82 305 89 6 4 12 7 15 8 22 4 173 83 202 106 78 61 99 144 58 234 -21 46 -123 154 -145 154 -7 0 -18 7 -26 16 -13 16 -353 244 -364 244 -4 0 -41 26 -83 57 -100 74 -303 277 -378 378 -63 85 -142 242 -151 303 -3 21 -10 42 -15 49 -5 6 -8 17 -7 25 1 7 -1 20 -4 28 -4 8 -16 90 -26 181 -28 238 -58 316 -155 410 -25 24 -46 47 -46 51 0 5 15 29 34 55 108 150 190 459 184 689 -2 87 -6 109 -18 111 -8 2 -53 -18 -100 -43z" style="fill: rgb(255, 255, 255);"/>
    </g>
    <text style="fill: rgb(255, 255, 255); font-family: Arial; font-size: 21px; white-space: pre;" x="92.579" y="19.975" transform="matrix(1.298161, 0, 0, 1.298161, -27.874294, -1.810408)">WILD <tspan x="92.5790023803711" dy="1em">​</tspan>NORTH<tspan x="92.5790023803711" dy="1em">​</tspan>WILDBOOK</text>
  </g>
</svg>