<svg id="Layer_1" data-name="Layer 1" xmlns="http://www.w3.org/2000/svg" viewBox="0 0 381.98 346.57"><defs><style>.cls-1{fill:#658d3d;}</style></defs><title>17_AWI Logo</title><path class="cls-1" d="M218.6,530h1.12c.87,0,1,.15,1,.76v2.24c0,.66-.2.92-1,.92H207.38c-.71,0-.92-.2-.92-.92v-2.24c0-.56.15-.76.92-.76h1.12c1.63,0,2.19-.46,2.19-2.4V503.48c0-1.94-.51-2.4-2.14-2.4h-1.17c-.82,0-1-.15-1-.82v-2.14c0-.82.25-1,1-1h12.34c.71,0,.92.15.92,1v2.14c0,.71-.1.82-.92.82h-1.22c-1.63,0-2.09.31-2.09,2.4v24.17C216.4,529.74,217,530,218.6,530Z" transform="translate(-116.93 -188.06)"/><path class="cls-1" d="M225.17,511.13c-.66,0-.87-.31-.87-.92v-2.09c0-.71.2-.92,1-1l7.14-.41c.92,0,1.12.41,1.12,1.43v3.47c1.43-3.72,4.95-5.41,9.13-5.41,4.79,0,8.31,2.5,8.31,8.92v12.75c0,1.53.51,2.24,1.53,2.24a9.79,9.79,0,0,0,1.78-.25c.41-.05.61,0,.61.51v2.29a1,1,0,0,1-.71,1.07,9.11,9.11,0,0,1-3.57.46c-2.29,0-5-.92-5-5.2V516c0-3.06-1.33-5.2-4.74-5.2-4.64,0-7,4-7,11v6.12c0,1.89.56,2.19,2.24,2.19h1.22c.82,0,1,.2,1,.76v2.24c0,.71-.25.92-1,.92H225c-.71,0-.92-.2-.92-.92v-2.24c0-.56.1-.76.92-.76h1.22c1.68,0,2.24-.31,2.24-2.19v-15.2C228.34,511.38,227.83,511.13,225.17,511.13Z" transform="translate(-116.93 -188.06)"/><path class="cls-1" d="M275.31,515.72a2.92,2.92,0,0,1-3.11-3.11,3.55,3.55,0,0,1,.51-1.94,10,10,0,0,0-4.18-.82c-3.52,0-5,1.48-5,3.52,0,6.43,15.35,2.14,15.35,12.9,0,5.61-3.67,8.36-10.76,8.36-6.22,0-10.66-2.14-10.66-6.58a3.08,3.08,0,0,1,3.16-3.37,2.84,2.84,0,0,1,3,3.11,3.28,3.28,0,0,1-.71,2.14A10.87,10.87,0,0,0,268,531c3.57,0,5.76-1.17,5.76-4.08,0-6.63-15.3-2.19-15.3-13,0-4.95,3.26-7.75,9.84-7.75s10,2.29,10,6.27A3.06,3.06,0,0,1,275.31,515.72Z" transform="translate(-116.93 -188.06)"/><path class="cls-1" d="M285.41,507.2l2.19-6.73c.2-.71.76-.82,1.84-.82,1.33,0,1.38.1,1.38.82v6.73h6.12c.87,0,1.12.1,1.12.76v2.45c0,.61-.25.92-1.07.92h-6.17v13.62c0,4.49,1.38,5.15,4,5.15a8.71,8.71,0,0,0,3.26-.51c.56-.25.82-.1.82.61v2.24a1.09,1.09,0,0,1-.82,1.17,14.21,14.21,0,0,1-4.64.66c-4.33,0-8-1.43-8-8V511.33h-2.86c-.92,0-1.17-.1-1.17-1v-2c0-.82.2-1.12.92-1.12Z" transform="translate(-116.93 -188.06)"/><path class="cls-1" d="M313,530h1.22c.82,0,1,.2,1,.76v2.24c0,.71-.25.92-1,.92H301.88c-.71,0-.92-.2-.92-.92v-2.24c0-.56.1-.76.92-.76h1.22c1.68,0,2.24-.31,2.24-2.19V513c0-1.33-.36-1.79-1.48-1.84l-1.73-.05c-.82-.05-.92-.46-.92-1.07v-1.89c0-.82.2-.92.92-1l7.44-.46c.92,0,1.17.41,1.17,1.43v19.68C310.75,529.74,311.31,530,313,530ZM308,494.76a3.44,3.44,0,0,1,3.37,3.67,3.64,3.64,0,0,1-3.82,3.72,3.19,3.19,0,0,1-3.26-3.47A3.7,3.7,0,0,1,308,494.76Z" transform="translate(-116.93 -188.06)"/><path class="cls-1" d="M320.54,507.2l2.19-6.73c.2-.71.76-.82,1.83-.82,1.33,0,1.38.1,1.38.82v6.73h6.12c.87,0,1.12.1,1.12.76v2.45c0,.61-.25.92-1.07.92h-6.17v13.62c0,4.49,1.38,5.15,4,5.15a8.7,8.7,0,0,0,3.26-.51c.56-.25.82-.1.82.61v2.24a1.1,1.1,0,0,1-.82,1.17,14.2,14.2,0,0,1-4.64.66c-4.33,0-8-1.43-8-8V511.33h-2.86c-.92,0-1.17-.1-1.17-1v-2c0-.82.2-1.12.92-1.12Z" transform="translate(-116.93 -188.06)"/><path class="cls-1" d="M356.65,520.66v-8c-.1-1.27-.61-1.53-3.26-1.53-.71,0-.87-.31-.87-.92v-2.09c0-.71.2-.92.92-1l7.39-.41c1,0,1.22.41,1.22,1.43v20.09c.05,1.28.56,1.89,1.53,1.89a9.09,9.09,0,0,0,1.73-.25c.46-.05.66,0,.66.51v2.29a1,1,0,0,1-.71,1.07,9.28,9.28,0,0,1-3.57.46c-1.94,0-4.13-.61-4.84-3.21-1.89,2.45-5.1,3.62-9.13,3.62-5.25,0-8.52-2.24-8.52-9.18V513c0-1.53-.41-1.84-3.26-1.84-.66,0-.87-.31-.87-.92v-2.09c0-.71.25-.92,1-1l7.39-.41c.92,0,1.17.41,1.17,1.43v17c0,2.86,1.27,5,4.84,5C354.2,530.15,356.65,526.63,356.65,520.66Z" transform="translate(-116.93 -188.06)"/><path class="cls-1" d="M370.27,507.2l2.19-6.73c.2-.71.77-.82,1.84-.82,1.33,0,1.38.1,1.38.82v6.73h6.12c.87,0,1.12.1,1.12.76v2.45c0,.61-.25.92-1.07.92h-6.17v13.62c0,4.49,1.38,5.15,4,5.15a8.71,8.71,0,0,0,3.26-.51c.56-.25.82-.1.82.61v2.24a1.1,1.1,0,0,1-.82,1.17,14.21,14.21,0,0,1-4.64.66c-4.33,0-8-1.43-8-8V511.33h-2.86c-.92,0-1.17-.1-1.17-1v-2c0-.82.2-1.12.92-1.12Z" transform="translate(-116.93 -188.06)"/><path class="cls-1" d="M409.38,515.05c0,5.15-3.26,8.62-10.76,8.62a24.41,24.41,0,0,1-6.73-.92c.51,5.3,3,7.45,8.11,7.45a19.67,19.67,0,0,0,6.83-1.22,11.19,11.19,0,0,1,2.14-.76c.36,0,.46.2.46.61v2.4c0,.61-.15.92-1,1.38a22.06,22.06,0,0,1-8.87,1.73c-9.43,0-13.36-5.56-13.36-13.77,0-8.57,4.18-14.33,12.39-14.33C405.56,506.23,409.38,509.45,409.38,515.05ZM391.84,519a24.33,24.33,0,0,0,6.37.92c4,0,6.17-1.63,6.17-5s-2-4.79-5.81-4.79C394.34,510.11,392.2,513.32,391.84,519Z" transform="translate(-116.93 -188.06)"/><path class="cls-1" d="M141.3,477.33H127.84l-1.94,5.76c-.56,1.73,0,2.14,1.58,2.24h.71c.92.1,1.07.36,1.07,1v1.94c0,.76-.25.92-1.07.92H117.85c-.66,0-.92-.15-.92-.92v-2c0-.66.15-1,.92-1l1.53-.05c.87-.05,1.27-.25,2-2.45l10.15-29.68c.25-.66.36-.82,1.33-.82h4.59a1,1,0,0,1,1.17.76L149,482.53c.87,2.45,1.12,2.65,2.8,2.7l.92.05c.92,0,1.12.25,1.12.92v2.09c0,.76-.15.92-1.07.92H141c-.87,0-1.07-.15-1.07-.92v-1.94c0-.66.15-.87,1.07-1h.66c1.27-.15,1.84-.31,1.84-1.07a5.46,5.46,0,0,0-.41-1.58Zm-12.19-3.88H140l-5.46-16.06Z" transform="translate(-116.93 -188.06)"/><path class="cls-1" d="M157.22,466.36c-.66,0-.87-.31-.87-.92v-2.09c0-.71.2-.92,1-1l7.14-.41c.92,0,1.12.41,1.12,1.43v3.47c1.43-3.72,4.95-5.41,9.13-5.41,4.79,0,8.31,2.5,8.31,8.92v12.75c0,1.53.51,2.24,1.53,2.24a9.68,9.68,0,0,0,1.78-.26c.41-.05.61,0,.61.51v2.29a1,1,0,0,1-.71,1.07,9.11,9.11,0,0,1-3.57.46c-2.29,0-5-.92-5-5.2V471.21c0-3.06-1.33-5.2-4.74-5.2-4.64,0-7,4-7,11v6.12c0,1.89.56,2.19,2.24,2.19h1.22c.82,0,1,.2,1,.76v2.24c0,.71-.25.92-1,.92H157c-.71,0-.92-.2-.92-.92V486c0-.56.1-.76.92-.76h1.22c1.68,0,2.24-.31,2.24-2.19v-15.2C160.38,466.62,159.87,466.36,157.22,466.36Z" transform="translate(-116.93 -188.06)"/><path class="cls-1" d="M201.59,485.28h1.22c.82,0,1,.2,1,.76v2.24c0,.71-.25.92-1,.92H190.47c-.71,0-.92-.2-.92-.92V486c0-.56.1-.76.92-.76h1.22c1.68,0,2.24-.31,2.24-2.19V468.25c0-1.33-.36-1.79-1.48-1.84l-1.73-.05c-.82-.05-.92-.46-.92-1.07V463.4c0-.82.2-.92.92-1l7.45-.46c.92,0,1.17.41,1.17,1.43v19.68C199.34,485,199.9,485.28,201.59,485.28ZM196.64,450a3.44,3.44,0,0,1,3.37,3.67,3.64,3.64,0,0,1-3.82,3.72,3.19,3.19,0,0,1-3.26-3.47A3.7,3.7,0,0,1,196.64,450Z" transform="translate(-116.93 -188.06)"/><path class="cls-1" d="M215.56,476.05v7c0,1.89.41,2.19,1.58,2.19h1.07c.76,0,.92.15.92.76v2.24c0,.71-.2.92-.92.92H206.94c-.71,0-1-.2-1-.92V486c0-.61.15-.76,1-.76h1c1.58,0,2.19-.41,2.19-2.19V468.2c0-1.53-.41-1.84-3.31-1.84-.66,0-.82-.31-.82-.92v-2.09c0-.71.2-.92.92-1l7.39-.41c1,0,1.22.41,1.22,1.43v2.35c1.53-3,4.59-4.28,8.31-4.28,3.47,0,6.27,1.48,7.39,5,1.48-3.52,4.79-5,8.87-5,4.59,0,8,2.5,8,8.92v12.75c0,1.53.56,2.24,1.58,2.24a9.7,9.7,0,0,0,1.73-.26c.41-.05.61,0,.61.51v2.29a1,1,0,0,1-.71,1.07,9.28,9.28,0,0,1-3.57.46c-2.35,0-5-.92-5-5.2V471.21c0-3.06-1.22-5.15-4.33-5.15-4.39,0-6.53,3.62-6.53,10v7c0,1.89.56,2.19,2.14,2.19h1.12c.77,0,.92.15.92.76v2.24c0,.71-.2.92-.92.92H223.77c-.76,0-.92-.2-.92-.92V486c0-.61.1-.76.92-.76h1c1.22,0,1.63-.41,1.63-2.19V470.75c-.15-2.8-1.38-4.69-4.33-4.69C217.65,466.06,215.56,469.68,215.56,476.05Z" transform="translate(-116.93 -188.06)"/><path class="cls-1" d="M266,461.47c7,0,10.86,2.09,10.86,10.2v11.47c0,1.53.51,2.24,1.53,2.24a9.71,9.71,0,0,0,1.73-.26c.46-.05.66,0,.66.51v2.29a1,1,0,0,1-.71,1.07,9.11,9.11,0,0,1-3.57.46c-2,0-4.23-.66-4.9-3.42-1.73,2-4.69,3.47-8.87,3.47q-8.41,0-8.41-7.34c0-7,5.81-9,14.94-9h2.19v-1.63c0-4.49-1.53-6-5.51-6a11.28,11.28,0,0,0-4.44.82,3.21,3.21,0,0,1,.51,1.79,3.34,3.34,0,0,1-3.37,3.42,3,3,0,0,1-3-3.16C255.7,463.35,259.42,461.47,266,461.47Zm-2,24.12c4.33,0,7.5-2.75,7.5-7.55v-1.17h-2.19c-6.12,0-9.59,1.28-9.59,5.15C259.73,484.21,260.85,485.59,264,485.59Z" transform="translate(-116.93 -188.06)"/><path class="cls-1" d="M286.35,454.68h-1.73c-.77-.05-.87-.46-.87-1.07v-1.89c0-.87.15-1,.87-1l7.44-.41c1,0,1.22.41,1.22,1.43v31.36c0,1.89.56,2.19,2.24,2.19h1.22c.76,0,.92.2.92.76v2.24c0,.71-.2.92-.92.92H284.41c-.77,0-1-.2-1-.92V486c0-.56.15-.76,1-.76h1.22c1.63,0,2.24-.31,2.24-2.19V456.21C287.78,455.14,287.37,454.73,286.35,454.68Z" transform="translate(-116.93 -188.06)"/><path class="cls-1" d="M325.06,483.8l6.88-30.19c.2-1.07.31-1.22,1-1.22h4.33c.76,0,.76.25,1.07,1.28l7.45,28.4,5.76-23.3a6.48,6.48,0,0,0,.25-1.43c0-.92-.66-1-2.75-1-.66,0-.92-.31-.92-.92v-2.14c0-.77.05-.87,1.12-.87h10.15c.66,0,.82.15.82.92v2c0,.51-.05,1-.82,1-2.6,0-2.86.1-3.52,2.8l-7.7,29.22c-.31,1.12-.46,1.28-1.48,1.28h-3.88c-.92,0-1.07-.51-1.27-1.28l-7.09-27.54-6.22,27.54c-.25,1.12-.51,1.28-1.27,1.28h-5.15c-.66,0-1-.2-1.28-1.22l-8.06-29.32c-.71-2.6-1-2.75-3.16-2.75-1.17,0-1.33-.25-1.33-1.28v-1.78c0-.71.15-.87.87-.87h12.24c.71,0,.87.2.87.87v2.19c0,.56-.15.87-.77.87-2.19,0-2.91.05-2.91,1a6.33,6.33,0,0,0,.31,1.58Z" transform="translate(-116.93 -188.06)"/><path class="cls-1" d="M381.51,470.29c0,5.15-3.26,8.62-10.76,8.62A24.41,24.41,0,0,1,364,478c.51,5.3,3,7.45,8.11,7.45a19.7,19.7,0,0,0,6.83-1.22,11.17,11.17,0,0,1,2.14-.77c.36,0,.46.2.46.61v2.4c0,.61-.15.92-1,1.38a22.06,22.06,0,0,1-8.87,1.73c-9.43,0-13.36-5.56-13.36-13.77,0-8.57,4.18-14.33,12.39-14.33C377.69,461.47,381.51,464.68,381.51,470.29ZM364,474.21a24.37,24.37,0,0,0,6.37.92c4,0,6.17-1.63,6.17-5s-2-4.79-5.81-4.79C366.47,465.34,364.33,468.55,364,474.21Z" transform="translate(-116.93 -188.06)"/><path class="cls-1" d="M387.63,454.68H385.9c-.77-.05-.87-.46-.87-1.07v-1.89c0-.87.15-1,.87-1l7.44-.41c1,0,1.22.41,1.22,1.43v31.36c0,1.89.56,2.19,2.24,2.19H398c.76,0,.92.2.92.76v2.24c0,.71-.2.92-.92.92H385.7c-.77,0-1-.2-1-.92V486c0-.56.15-.76,1-.76h1.22c1.63,0,2.24-.31,2.24-2.19V456.21C389.06,455.14,388.65,454.73,387.63,454.68Z" transform="translate(-116.93 -188.06)"/><path class="cls-1" d="M405.58,462.49v-2.8c0-6.83,2.86-10.4,9.38-10.4,4.59,0,7.39,2.24,7.6,6.12,0,.05.05.1.05.15v.2a3.3,3.3,0,0,1-3.37,3.37,3,3,0,0,1-3-3.16,3.56,3.56,0,0,1,1.12-2.65,5.75,5.75,0,0,0-1.78-.25c-3,0-4.59,1.79-4.59,6.27v3.16h5.92c.87,0,1.12.1,1.12.82v2.14c0,.61-.31.92-1.07.92h-6v16.73c0,1.89.61,2.19,2.24,2.19h1.22c.82,0,1,.2,1,.76v2.24c0,.71-.2.92-1,.92H402.12c-.71,0-.92-.2-.92-.92V486c0-.56.1-.76.92-.76h1.22c1.68,0,2.24-.31,2.24-2.19V466.36h-3.31c-.92,0-1.17-.1-1.17-1v-1.73c0-.82.2-1.17.92-1.17Z" transform="translate(-116.93 -188.06)"/><path class="cls-1" d="M432.15,461.47c7,0,10.86,2.09,10.86,10.2v11.47c0,1.53.51,2.24,1.53,2.24a9.7,9.7,0,0,0,1.73-.26c.46-.05.66,0,.66.51v2.29a1,1,0,0,1-.71,1.07,9.11,9.11,0,0,1-3.57.46c-2,0-4.23-.66-4.9-3.42-1.73,2-4.69,3.47-8.87,3.47q-8.41,0-8.41-7.34c0-7,5.81-9,14.94-9h2.19v-1.63c0-4.49-1.53-6-5.51-6a11.28,11.28,0,0,0-4.44.82,3.21,3.21,0,0,1,.51,1.79,3.34,3.34,0,0,1-3.37,3.42,3,3,0,0,1-3-3.16C421.8,463.35,425.52,461.47,432.15,461.47Zm-2,24.12c4.33,0,7.5-2.75,7.5-7.55v-1.17h-2.19c-6.12,0-9.59,1.28-9.59,5.15C425.83,484.21,427,485.59,430.11,485.59Z" transform="translate(-116.93 -188.06)"/><path class="cls-1" d="M451.28,466.36c-.66,0-.87-.31-.87-.92v-2.09c0-.71.2-.92,1-1l7.39-.41c.92,0,1.17.41,1.17,1.43v5.35c.71-2.5,3-7.29,8.57-7.29,3.72,0,5.25,2,5.25,4.95a3.29,3.29,0,0,1-3.31,3.37,3.21,3.21,0,0,1-2.86-4.33c-4.9.15-7.65,7.34-7.65,12.75v4.9c0,1.89.56,2.19,2.24,2.19h2.24c.82,0,1,.2,1,.76v2.29c0,.66-.2.87-1,.87H451.08c-.71,0-.92-.2-.92-.92V486c0-.61.15-.76.92-.76h1.17c1.68,0,2.29-.41,2.29-2.19V468.2C454.54,466.67,454.14,466.36,451.28,466.36Z" transform="translate(-116.93 -188.06)"/><path class="cls-1" d="M498.86,470.29c0,5.15-3.26,8.62-10.76,8.62a24.41,24.41,0,0,1-6.73-.92c.51,5.3,3,7.45,8.11,7.45a19.7,19.7,0,0,0,6.83-1.22,11.17,11.17,0,0,1,2.14-.77c.36,0,.46.2.46.61v2.4c0,.61-.15.92-1,1.38a22.06,22.06,0,0,1-8.87,1.73c-9.43,0-13.36-5.56-13.36-13.77,0-8.57,4.18-14.33,12.39-14.33C495,461.47,498.86,464.68,498.86,470.29Zm-17.54,3.93a24.37,24.37,0,0,0,6.37.92c4,0,6.17-1.63,6.17-5s-2-4.79-5.81-4.79C483.82,465.34,481.67,468.55,481.32,474.21Z" transform="translate(-116.93 -188.06)"/><path class="cls-1" d="M369.91,296.79l58.37,32.08v68.5l-58.66,33.52-57.8-33.52v-68.5Zm-17,62.15c3.55,8.67,17.24,3.65,11.95-10.5-4.76-12.69.19-12.2-1-20.81-.87-6.45-7.57-8.28-11.08-1.35s-4.62,9.64-3.47,18.6A60.27,60.27,0,0,0,353,358.94Zm37.37-19.27c-1.13-7.76-2.64-10.21-7.57-15.41-5.34-5.66-15.9-3.79-10.16,5.78,4.64,7.69,3.1,12.33,1.93,19.36-2.06,12.61,11.76,13.23,14.36,5.3C391.77,345.83,390.33,339.67,390.33,339.67Zm-58,19.07c0,3.41.18,10.7,5.69,17.24,5.16,6.17,13.88,1.17,12.52-5.2-.76-3.57-2.58-9.14-8.58-15.22C334.37,347.85,332.34,354.89,332.34,358.74ZM397.55,353a22,22,0,0,0-7,16c-.17,7,7.93,11.37,11.38,5.4,1.85-3.17,4-5.73,4.54-14.26C406.9,353.54,401.41,349.49,397.55,353Zm-48.27,31.79c-13,2.27-6.82,18.69,8.1,19.26,11.12.44,11.18-3.27,16.66-3.56s6.95,2.71,12.82,2c3.28-.38,12.59-.68,14.43-10,2-10.12-3.84-10.21-6.43-9.82a19,19,0,0,1-5.59-.2s-2,.2-10.21-8c-7.73-7.7-15.41-6.64-19.86,1.36C355,383.39,357,383.41,349.28,384.75Z" transform="translate(-116.93 -188.06)"/><path class="cls-1" d="M293.68,403.39c-2.81-2-15.4-7.44-27.82-12.24-8.24-3.17-16.76-19.93-7.95-31.64s16.75-18.5,13.73-35.83c-1.88-10.73-6.5-5.93-6.5-3s1.15,8.81-6.22,11.41c-5.8,2-10.14.93-12.72,7.37-2.89,7.22-4.63,5.34-10.56,3.61-4.3-1.26-11.7.44-20.8,3.76s-11.5.41-14.16-4.91c-3.47-6.93-9.11-1.44-3.17,9.54,5.18,9.6,13.77,14.38,28.6,16.91,13.58,2.31,15.89,13.29,19.08,18.78,5.34,9.24,11.48,17.19,16.82,33.16l.58,2L245.36,431l-57.8-33.52V329l58.09-32.09L304,329v68.49Z" transform="translate(-116.93 -188.06)"/><path class="cls-1" d="M335.56,256.9c-3.28-4.44.14-6.08,2.73-6.36a44.21,44.21,0,0,1,9,.57,9.5,9.5,0,0,0-5.92-6.79c-12.43-35-43.79-22.11-43.79-22.11,3,2,6.66,4.34,6.66,4.34a26.62,26.62,0,0,0-9,23.7c-33.54,16.32-43.89,40.7-43.89,40.7l-1.59-.87V221.58l58.67-33.51,57.8,33.51v68.51l-58.09,32.07-7.31-4C351.3,296.68,338.46,260.8,335.56,256.9Z" transform="translate(-116.93 -188.06)"/></svg>