<?xml version="1.0" encoding="UTF-8" standalone="no"?>
<!-- Created with Inkscape (http://www.inkscape.org/) -->

<svg
   width="470.41272"
   height="91.511719"
   viewBox="0 0 124.46337 24.212475"
   version="1.1"
   id="svg1"
   xml:space="preserve"
   inkscape:version="1.3.2 (1:1.3.2+202311252150+091e20ef0f)"
   sodipodi:docname="deer-wildbook.svg"
   xmlns:inkscape="http://www.inkscape.org/namespaces/inkscape"
   xmlns:sodipodi="http://sodipodi.sourceforge.net/DTD/sodipodi-0.dtd"
   xmlns="http://www.w3.org/2000/svg"
   xmlns:svg="http://www.w3.org/2000/svg"><sodipodi:namedview
     id="namedview1"
     pagecolor="#ffffff"
     bordercolor="#666666"
     borderopacity="1.0"
     inkscape:showpageshadow="2"
     inkscape:pageopacity="0.0"
     inkscape:pagecheckerboard="0"
     inkscape:deskcolor="#d1d1d1"
     inkscape:document-units="mm"
     inkscape:zoom="0.96459612"
     inkscape:cx="440.08056"
     inkscape:cy="441.63562"
     inkscape:window-width="1920"
     inkscape:window-height="1129"
     inkscape:window-x="0"
     inkscape:window-y="0"
     inkscape:window-maximized="1"
     inkscape:current-layer="layer1" /><defs
     id="defs1" /><g
     inkscape:label="Layer 1"
     inkscape:groupmode="layer"
     id="layer1"
     transform="translate(-40.150856,-32.469787)"><path
       style="fill:#f2f2f2;fill-opacity:1;stroke-width:0.122287"
       d="m 40.190315,54.193806 c 0.02826,-1.20437 -0.08202,-2.482053 0.258899,-3.621786 0.329137,-0.815956 0.826501,-1.708244 1.240197,-2.545503 0.383207,-0.915733 0.08409,0.673507 0.680489,-0.02402 0.889361,-0.306366 1.804866,-0.794638 2.770057,-0.587729 0.93372,-0.181706 1.85123,-0.549943 2.812579,-0.388693 0.771842,-0.679723 0.684307,-1.881331 1.104168,-2.780488 0.265869,-0.714046 0.301698,-1.57579 0.774689,-2.152996 -1.837995,-0.572926 -4.048559,-0.810436 -5.252942,-2.505048 -0.721368,-0.922938 -1.18563,-2.008687 -1.379756,-3.162097 -0.241094,-1.330348 -0.629501,-2.649418 -0.918402,-3.955659 0.614583,0.786783 0.671811,1.877731 1.042004,2.792563 0.244617,1.040813 0.383713,2.189194 1.03898,3.063285 0.399302,-1.060455 0.133796,1.034799 0.717727,1.198366 0.646355,0.740439 1.576749,1.231638 2.531697,1.412618 -0.557734,-0.727509 -1.189739,-1.508421 -1.37679,-2.429131 0.713719,1.105806 -0.126682,-1.005753 -0.266301,-1.397966 -0.311846,-0.930819 -0.668241,-1.846489 -0.970592,-2.780294 0.826083,1.211728 1.192753,2.677938 1.774406,4.016764 0.215284,1.07954 0.700646,2.178433 1.770315,2.649128 0.672539,0.383605 2.643707,1.097724 1.940084,-0.403924 -0.250293,-0.688759 -1.156719,-1.979335 -1.083518,-2.283691 0.587088,1.033052 1.489443,1.924187 1.69442,3.13694 0.598428,0.89399 2.094763,-0.362584 1.079591,-1.153945 -0.25256,-0.371572 -1.097225,-1.762012 -0.341129,-0.768674 0.487526,0.666466 1.56197,1.698993 0.626944,2.449073 -0.685779,0.933994 1.116556,1.295163 1.684577,1.762567 0.548632,0.693294 2.575125,0.801404 1.783508,1.980574 -0.606644,1.039225 -2.062325,0.521436 -2.987148,1.173345 -0.54576,0.847158 -0.229091,1.976286 -0.663914,2.903346 -0.136767,1.015984 -1.185076,1.689205 -1.142838,2.70514 -0.02184,0.939754 -0.338493,1.856968 -0.862866,2.637645 -0.226255,0.46745 0.252889,1.674919 -0.562715,1.501537 -0.596701,-0.0094 -1.21729,0.05665 -1.760907,-0.128648 -0.569695,-0.400123 -0.443205,0.36784 -1.083226,0.128648 -0.2831,-0.07463 -0.83567,0.161213 -0.923462,-0.138457 0.07867,-0.94029 -0.928612,-1.120465 -1.062774,-0.141262 -0.309696,0.510143 -1.656414,0.290919 -1.929033,0.159767 0.553107,-0.609893 -0.265442,-2.117971 -0.575613,-0.778355 -0.07524,0.986993 -0.867459,0.971446 -1.633737,0.898307 -0.451303,0.09119 -0.674103,-0.04517 -0.555692,-0.521325 0.0027,-0.639974 0.0054,-1.279949 0.008,-1.919923 z"
       id="path1" /><path
       style="font-size:147.068px;line-height:1.25;font-family:Interstate;-inkscape-font-specification:'Interstate, Normal';letter-spacing:0px;word-spacing:0px;fill:#f6f6f6;stroke-width:0.0936696"
       d="m 67.461479,45.176007 c 0,-5.144354 -2.382147,-7.033297 -5.601265,-7.033297 H 58.33528 v 14.066594 h 3.363978 c 2.897206,0 5.762221,-2.089895 5.762221,-7.033297 z m -2.317765,0 c 0,2.572177 -1.078403,4.300358 -3.444456,4.300358 h -1.110595 v -8.600717 h 1.191074 c 2.382146,0 3.363977,1.426756 3.363977,4.300359 z m 11.089843,1.768372 c 0,-3.014271 -1.303741,-5.506067 -3.557125,-5.506067 -2.140712,0 -3.766368,2.27075 -3.766368,5.506067 0,3.335792 1.545177,5.485971 3.975612,5.485971 1.126689,0 2.349954,-0.622949 3.025969,-1.708087 l -1.577368,-1.6478 c -0.321912,0.462187 -0.836969,0.743519 -1.448601,0.743519 -0.804781,0 -1.657847,-0.542568 -1.738326,-1.989418 h 5.054015 c 0.01613,-0.200951 0.03219,-0.482283 0.03219,-0.884185 z M 74.076749,45.73867 h -2.897207 c 0.08048,-1.065041 0.579441,-1.888942 1.384221,-1.888942 0.997929,0 1.448602,0.944472 1.512986,1.888942 z m 10.816206,1.205709 c 0,-3.014271 -1.303741,-5.506067 -3.557124,-5.506067 -2.140716,0 -3.766368,2.27075 -3.766368,5.506067 0,3.335792 1.545176,5.485971 3.975611,5.485971 1.126689,0 2.349954,-0.622949 3.025969,-1.708087 l -1.577368,-1.6478 c -0.321912,0.462187 -0.836969,0.743519 -1.448601,0.743519 -0.804783,0 -1.657845,-0.542568 -1.738326,-1.989418 h 5.054016 c 0.01612,-0.200951 0.03219,-0.482283 0.03219,-0.884185 z M 82.736147,45.73867 H 79.83894 c 0.08048,-1.065041 0.579439,-1.888942 1.384222,-1.888942 0.997928,0 1.448601,0.944472 1.512985,1.888942 z m 9.448081,-3.556838 c -0.28972,-0.381807 -0.836967,-0.74352 -1.561268,-0.74352 -0.788685,0 -1.352032,0.421998 -1.738327,0.924377 v -0.70333 h -2.221192 v 10.549945 h 2.221192 v -5.707018 c 0,-1.828657 0.563347,-2.290846 1.432508,-2.290846 0.498963,0 0.933544,0.281332 1.287647,0.683236 z M 110.51708,38.14271 h -2.31776 l -0.98183,6.852441 c -0.0966,0.663139 -0.22535,1.728181 -0.27362,2.31094 -0.0805,-0.582759 -0.25754,-1.627706 -0.3863,-2.31094 l -1.33593,-6.852441 h -1.96367 l -1.31983,6.852441 c -0.12877,0.683234 -0.30582,1.728181 -0.3863,2.31094 -0.0483,-0.582759 -0.17705,-1.627706 -0.27363,-2.31094 l -0.98182,-6.852441 h -2.349969 l 2.349969,14.066594 h 2.10851 l 1.41642,-7.234248 c 0.16096,-0.823901 0.32191,-1.888942 0.37019,-2.411417 0.0644,0.522475 0.22534,1.56742 0.3863,2.411417 l 1.38422,7.234248 h 2.20509 z m 4.18483,1.065042 c 0,-0.86409 -0.57944,-1.587515 -1.27156,-1.587515 -0.6921,0 -1.27154,0.723425 -1.27154,1.587515 0,0.864091 0.57944,1.587516 1.27154,1.587516 0.69212,0 1.27156,-0.723425 1.27156,-1.587516 z m -0.16096,13.001552 V 41.659359 h -2.22119 v 10.549945 z m 4.53896,0 V 37.559951 l -2.2212,1.386564 v 13.262789 z m 9.094,0 V 37.559951 l -2.22119,1.386564 v 3.315697 c -0.40239,-0.462187 -1.04622,-0.8239 -1.78662,-0.8239 -2.09242,0 -3.2835,2.210465 -3.2835,5.365401 0,3.938646 1.4808,5.626637 3.2835,5.626637 0.80478,0 1.36813,-0.421997 1.78662,-0.884186 v 0.66314 z m -2.22119,-3.275507 c -0.32191,0.522473 -0.67602,0.884185 -1.36813,0.884185 -0.86916,0 -1.4486,-0.90428 -1.4486,-3.074555 0,-1.768371 0.46677,-2.692748 1.31983,-2.692748 0.64383,0 1.15889,0.321522 1.4969,0.904282 z m 11.70146,-1.868848 c 0,-3.938646 -1.48079,-5.626637 -3.28349,-5.626637 -0.80478,0 -1.36813,0.421998 -1.78662,0.884185 v -4.762546 l -2.22119,1.386564 v 13.262789 h 2.22119 V 51.60645 c 0.4024,0.462188 1.04621,0.8239 1.78662,0.8239 2.09242,0 3.28349,-2.210466 3.28349,-5.365401 z m -2.25338,0.06029 c 0,1.768372 -0.46677,2.692747 -1.31983,2.692747 -0.64383,0 -1.15889,-0.321521 -1.4969,-0.90428 v -3.978838 c 0.32192,-0.522473 0.67602,-0.884185 1.36813,-0.884185 0.86916,0 1.4486,0.904282 1.4486,3.074556 z m 11.2186,-0.180856 c 0,-3.235317 -1.62565,-5.506067 -3.83074,-5.506067 -2.20511,0 -3.81467,2.27075 -3.81467,5.506067 0,3.235316 1.60956,5.485971 3.81467,5.485971 2.20509,0 3.83074,-2.250655 3.83074,-5.485971 z m -2.25338,0 c 0,1.466945 -0.51506,2.813319 -1.57736,2.813319 -1.06232,0 -1.56128,-1.185613 -1.56128,-2.813319 0,-1.627707 0.49896,-2.833415 1.56128,-2.833415 1.0623,0 1.57736,1.225804 1.57736,2.833415 z m 11.18641,0 c 0,-3.235317 -1.62565,-5.506067 -3.83074,-5.506067 -2.20511,0 -3.81467,2.27075 -3.81467,5.506067 0,3.235316 1.60956,5.485971 3.81467,5.485971 2.20509,0 3.83074,-2.250655 3.83074,-5.485971 z m -2.25339,0 c 0,1.466945 -0.51506,2.813319 -1.57735,2.813319 -1.06231,0 -1.56128,-1.185613 -1.56128,-2.813319 0,-1.627707 0.49897,-2.833415 1.56128,-2.833415 1.06229,0 1.57735,1.225804 1.57735,2.833415 z m 11.31518,5.264925 -2.43044,-7.194058 2.17291,-3.355887 h -2.62359 l -1.36812,2.210464 c -0.28972,0.462188 -0.67601,1.125328 -0.90136,1.547324 0.0161,-0.522471 0.0322,-1.60761 0.0322,-2.250653 v -5.606543 l -2.2212,1.386564 v 13.262789 h 2.2212 v -3.195126 l 1.0784,-1.667897 1.60955,4.863023 z"
       id="text1"
       aria-label="Deer Wildbook" /></g></svg>
