<?xml version="1.0" encoding="UTF-8" standalone="no"?>
<!-- Created with Inkscape (http://www.inkscape.org/) -->

<svg
   width="209.40211"
   height="91.511719"
   viewBox="0 0 55.404312 24.212475"
   version="1.1"
   id="svg1"
   xml:space="preserve"
   inkscape:version="1.3.2 (1:1.3.2+202311252150+091e20ef0f)"
   sodipodi:docname="deer-wildbook.svg"
   xmlns:inkscape="http://www.inkscape.org/namespaces/inkscape"
   xmlns:sodipodi="http://sodipodi.sourceforge.net/DTD/sodipodi-0.dtd"
   xmlns="http://www.w3.org/2000/svg"
   xmlns:svg="http://www.w3.org/2000/svg"><sodipodi:namedview
     id="namedview1"
     pagecolor="#ffffff"
     bordercolor="#666666"
     borderopacity="1.0"
     inkscape:showpageshadow="2"
     inkscape:pageopacity="0.0"
     inkscape:pagecheckerboard="0"
     inkscape:deskcolor="#d1d1d1"
     inkscape:document-units="mm"
     inkscape:zoom="1.1789508"
     inkscape:cx="254.03944"
     inkscape:cy="349.46327"
     inkscape:window-width="1920"
     inkscape:window-height="1129"
     inkscape:window-x="0"
     inkscape:window-y="0"
     inkscape:window-maximized="1"
     inkscape:current-layer="layer1" /><defs
     id="defs1" /><g
     inkscape:label="Layer 1"
     inkscape:groupmode="layer"
     id="layer1"
     transform="translate(-40.150856,-32.469787)"><path
       style="fill:#f2f2f2;fill-opacity:1;stroke-width:0.122287"
       d="m 40.190315,54.193806 c 0.02826,-1.20437 -0.08202,-2.482053 0.258899,-3.621786 0.329137,-0.815956 0.826501,-1.708244 1.240197,-2.545503 0.383207,-0.915733 0.08409,0.673507 0.680489,-0.02402 0.889361,-0.306366 1.804866,-0.794638 2.770057,-0.587729 0.93372,-0.181706 1.85123,-0.549943 2.812579,-0.388693 0.771842,-0.679723 0.684307,-1.881331 1.104168,-2.780488 0.265869,-0.714046 0.301698,-1.57579 0.774689,-2.152996 -1.837995,-0.572926 -4.048559,-0.810436 -5.252942,-2.505048 -0.721368,-0.922938 -1.18563,-2.008687 -1.379756,-3.162097 -0.241094,-1.330348 -0.629501,-2.649418 -0.918402,-3.955659 0.614583,0.786783 0.671811,1.877731 1.042004,2.792563 0.244617,1.040813 0.383713,2.189194 1.03898,3.063285 0.399302,-1.060455 0.133796,1.034799 0.717727,1.198366 0.646355,0.740439 1.576749,1.231638 2.531697,1.412618 -0.557734,-0.727509 -1.189739,-1.508421 -1.37679,-2.429131 0.713719,1.105806 -0.126682,-1.005753 -0.266301,-1.397966 -0.311846,-0.930819 -0.668241,-1.846489 -0.970592,-2.780294 0.826083,1.211728 1.192753,2.677938 1.774406,4.016764 0.215284,1.07954 0.700646,2.178433 1.770315,2.649128 0.672539,0.383605 2.643707,1.097724 1.940084,-0.403924 -0.250293,-0.688759 -1.156719,-1.979335 -1.083518,-2.283691 0.587088,1.033052 1.489443,1.924187 1.69442,3.13694 0.598428,0.89399 2.094763,-0.362584 1.079591,-1.153945 -0.25256,-0.371572 -1.097225,-1.762012 -0.341129,-0.768674 0.487526,0.666466 1.56197,1.698993 0.626944,2.449073 -0.685779,0.933994 1.116556,1.295163 1.684577,1.762567 0.548632,0.693294 2.575125,0.801404 1.783508,1.980574 -0.606644,1.039225 -2.062325,0.521436 -2.987148,1.173345 -0.54576,0.847158 -0.229091,1.976286 -0.663914,2.903346 -0.136767,1.015984 -1.185076,1.689205 -1.142838,2.70514 -0.02184,0.939754 -0.338493,1.856968 -0.862866,2.637645 -0.226255,0.46745 0.252889,1.674919 -0.562715,1.501537 -0.596701,-0.0094 -1.21729,0.05665 -1.760907,-0.128648 -0.569695,-0.400123 -0.443205,0.36784 -1.083226,0.128648 -0.2831,-0.07463 -0.83567,0.161213 -0.923462,-0.138457 0.07867,-0.94029 -0.928612,-1.120465 -1.062774,-0.141262 -0.309696,0.510143 -1.656414,0.290919 -1.929033,0.159767 0.553107,-0.609893 -0.265442,-2.117971 -0.575613,-0.778355 -0.07524,0.986993 -0.867459,0.971446 -1.633737,0.898307 -0.451303,0.09119 -0.674103,-0.04517 -0.555692,-0.521325 0.0027,-0.639974 0.0054,-1.279949 0.008,-1.919923 z"
       id="path1" /><g
       id="text1"
       style="font-size:3.52777px;line-height:1.25;letter-spacing:0px;word-spacing:0px;stroke-width:0.264583"
       aria-label="Deer&#10;Wildbook"><path
         style="font-weight:bold;font-size:8.46667px;font-family:Interstate;-inkscape-font-specification:'Interstate, Bold';fill:#f9f9f9"
         d="m 65.625564,39.494982 c 0,-2.167467 -1.253067,-2.963334 -2.946401,-2.963334 h -1.854201 v 5.926669 h 1.769534 c 1.524001,0 3.031068,-0.880534 3.031068,-2.963335 z m -1.219201,0 c 0,1.083734 -0.567267,1.811868 -1.811867,1.811868 h -0.5842 v -3.623735 h 0.626533 c 1.253067,0 1.769534,0.601133 1.769534,1.811867 z m 5.833526,0.745067 c 0,-1.27 -0.6858,-2.319867 -1.871134,-2.319867 -1.126067,0 -1.981201,0.956733 -1.981201,2.319867 0,1.405467 0.8128,2.311401 2.091268,2.311401 0.592666,0 1.236133,-0.262467 1.591734,-0.719667 l -0.829734,-0.694267 c -0.169334,0.194734 -0.440267,0.313267 -0.762,0.313267 -0.423334,0 -0.872067,-0.2286 -0.914401,-0.8382 h 2.658535 c 0.0085,-0.08467 0.01693,-0.2032 0.01693,-0.372534 z m -1.134534,-0.508 h -1.524 c 0.04233,-0.448733 0.3048,-0.795867 0.728133,-0.795867 0.524934,0 0.762,0.397934 0.795867,0.795867 z m 5.689588,0.508 c 0,-1.27 -0.685801,-2.319867 -1.871134,-2.319867 -1.126068,0 -1.981201,0.956733 -1.981201,2.319867 0,1.405467 0.8128,2.311401 2.091267,2.311401 0.592667,0 1.236134,-0.262467 1.591734,-0.719667 l -0.829733,-0.694267 c -0.169334,0.194734 -0.440267,0.313267 -0.762001,0.313267 -0.423333,0 -0.872067,-0.2286 -0.9144,-0.8382 h 2.658534 c 0.0085,-0.08467 0.01693,-0.2032 0.01693,-0.372534 z m -1.134534,-0.508 h -1.524001 c 0.04233,-0.448733 0.3048,-0.795867 0.728134,-0.795867 0.524933,0 0.762,0.397934 0.795867,0.795867 z m 4.969919,-1.498601 c -0.1524,-0.160866 -0.440266,-0.313266 -0.821267,-0.313266 -0.414866,0 -0.7112,0.1778 -0.9144,0.389466 v -0.296333 h -1.1684 v 4.445002 h 1.1684 v -2.404534 c 0,-0.770467 0.296334,-0.965201 0.753534,-0.965201 0.262466,0 0.491067,0.118534 0.677333,0.287867 z"
         id="path2" /><path
         style="font-weight:bold;font-size:8.46667px;font-family:Interstate;-inkscape-font-specification:'Interstate, Bold';fill:#f9f9f9"
         d="m 67.098764,47.114985 h -1.2192 l -0.516467,2.887135 c -0.0508,0.2794 -0.118533,0.728133 -0.143933,0.973667 -0.04233,-0.245534 -0.135467,-0.6858 -0.2032,-0.973667 L 64.31323,47.114985 h -1.032934 l -0.694267,2.887135 c -0.06773,0.287867 -0.160866,0.728133 -0.2032,0.973667 -0.0254,-0.245534 -0.09313,-0.6858 -0.143933,-0.973667 l -0.516467,-2.887135 h -1.236134 l 1.236134,5.926669 h 1.109134 l 0.745067,-3.048001 c 0.08467,-0.347133 0.169333,-0.795867 0.194733,-1.016 0.03387,0.220133 0.118533,0.6604 0.2032,1.016 l 0.728134,3.048001 h 1.159934 z m 2.201321,0.448734 c 0,-0.364067 -0.3048,-0.668867 -0.668867,-0.668867 -0.364067,0 -0.668867,0.3048 -0.668867,0.668867 0,0.364067 0.3048,0.668867 0.668867,0.668867 0.364067,0 0.668867,-0.3048 0.668867,-0.668867 z m -0.08467,5.477935 v -4.445001 h -1.1684 v 4.445001 z m 2.387598,0 v -6.172202 l -1.168401,0.5842 v 5.588002 z m 4.783664,0 v -6.172202 l -1.1684,0.5842 v 1.397001 c -0.211667,-0.194734 -0.550334,-0.347134 -0.9398,-0.347134 -1.100667,0 -1.727201,0.931334 -1.727201,2.260601 0,1.659467 0.778934,2.370668 1.727201,2.370668 0.423333,0 0.719667,-0.1778 0.9398,-0.372534 v 0.2794 z m -1.1684,-1.380067 c -0.169333,0.220134 -0.3556,0.372534 -0.719667,0.372534 -0.4572,0 -0.762,-0.381001 -0.762,-1.295401 0,-0.745067 0.245533,-1.134534 0.694267,-1.134534 0.338667,0 0.6096,0.135467 0.7874,0.381 z m 6.155256,-0.7874 c 0,-1.659468 -0.778934,-2.370668 -1.727201,-2.370668 -0.423334,0 -0.719667,0.1778 -0.9398,0.372534 v -2.006601 l -1.168401,0.5842 v 5.588002 h 1.168401 v -0.254 c 0.211666,0.194734 0.550333,0.347134 0.9398,0.347134 1.100667,0 1.727201,-0.931334 1.727201,-2.260601 z m -1.185334,0.0254 c 0,0.745067 -0.245534,1.134534 -0.694267,1.134534 -0.338667,0 -0.6096,-0.135467 -0.7874,-0.381001 v -1.6764 c 0.169333,-0.220134 0.3556,-0.372534 0.719666,-0.372534 0.457201,0 0.762001,0.381 0.762001,1.295401 z m 5.901255,-0.0762 c 0,-1.363134 -0.855133,-2.319868 -2.015067,-2.319868 -1.159934,0 -2.006601,0.956734 -2.006601,2.319868 0,1.363134 0.846667,2.311401 2.006601,2.311401 1.159934,0 2.015067,-0.948267 2.015067,-2.311401 z m -1.185334,0 c 0,0.618067 -0.270933,1.185334 -0.829733,1.185334 -0.5588,0 -0.821267,-0.499534 -0.821267,-1.185334 0,-0.6858 0.262467,-1.193801 0.821267,-1.193801 0.5588,0 0.829733,0.516467 0.829733,1.193801 z m 5.884322,0 c 0,-1.363134 -0.855133,-2.319868 -2.015067,-2.319868 -1.159934,0 -2.006601,0.956734 -2.006601,2.319868 0,1.363134 0.846667,2.311401 2.006601,2.311401 1.159934,0 2.015067,-0.948267 2.015067,-2.311401 z m -1.185334,0 c 0,0.618067 -0.270933,1.185334 -0.829733,1.185334 -0.5588,0 -0.821267,-0.499534 -0.821267,-1.185334 0,-0.6858 0.262467,-1.193801 0.821267,-1.193801 0.5588,0 0.829733,0.516467 0.829733,1.193801 z m 5.952056,2.218267 -1.278468,-3.031068 1.143001,-1.413933 H 94.03963 l -0.719667,0.931333 c -0.1524,0.194734 -0.355601,0.474134 -0.474134,0.651934 0.0085,-0.220134 0.01693,-0.677334 0.01693,-0.948267 v -2.362201 l -1.1684,0.5842 v 5.588002 h 1.1684 v -1.3462 l 0.567267,-0.702734 0.846667,2.048934 z"
         id="path3" /></g></g></svg>
