<?xml version="1.0" encoding="UTF-8" standalone="no"?>
<!-- Created with Inkscape (http://www.inkscape.org/) -->

<svg
   width="209.40211"
   height="91.511719"
   viewBox="0 0 55.404312 24.212475"
   version="1.1"
   id="svg1"
   xml:space="preserve"
   inkscape:version="1.3.2 (1:1.3.2+202311252150+091e20ef0f)"
   sodipodi:docname="flukebook_logo_white.svg"
   xmlns:inkscape="http://www.inkscape.org/namespaces/inkscape"
   xmlns:sodipodi="http://sodipodi.sourceforge.net/DTD/sodipodi-0.dtd"
   xmlns="http://www.w3.org/2000/svg"
   xmlns:svg="http://www.w3.org/2000/svg"><sodipodi:namedview
     id="namedview1"
     pagecolor="#ffffff"
     bordercolor="#666666"
     borderopacity="1.0"
     inkscape:showpageshadow="2"
     inkscape:pageopacity="0.0"
     inkscape:pagecheckerboard="0"
     inkscape:deskcolor="#d1d1d1"
     inkscape:document-units="mm"
     inkscape:zoom="1.9077568"
     inkscape:cx="69.453299"
     inkscape:cy="-27.257144"
     inkscape:window-width="1920"
     inkscape:window-height="1129"
     inkscape:window-x="0"
     inkscape:window-y="0"
     inkscape:window-maximized="1"
     inkscape:current-layer="layer1" /><defs
     id="defs1" /><g
     inkscape:label="Layer 1"
     inkscape:groupmode="layer"
     id="layer1"
     transform="translate(-40.150856,-32.469787)"><path
       style="fill:#f2f2f2;fill-opacity:1;stroke-width:0.122287"
       d="m 40.190315,54.193806 c 0.02826,-1.20437 -0.08202,-2.482053 0.258899,-3.621786 0.329137,-0.815956 0.826501,-1.708244 1.240197,-2.545503 0.383207,-0.915733 0.08409,0.673507 0.680489,-0.02402 0.889361,-0.306366 1.804866,-0.794638 2.770057,-0.587729 0.93372,-0.181706 1.85123,-0.549943 2.812579,-0.388693 0.771842,-0.679723 0.684307,-1.881331 1.104168,-2.780488 0.265869,-0.714046 0.301698,-1.57579 0.774689,-2.152996 -1.837995,-0.572926 -4.048559,-0.810436 -5.252942,-2.505048 -0.721368,-0.922938 -1.18563,-2.008687 -1.379756,-3.162097 -0.241094,-1.330348 -0.629501,-2.649418 -0.918402,-3.955659 0.614583,0.786783 0.671811,1.877731 1.042004,2.792563 0.244617,1.040813 0.383713,2.189194 1.03898,3.063285 0.399302,-1.060455 0.133796,1.034799 0.717727,1.198366 0.646355,0.740439 1.576749,1.231638 2.531697,1.412618 -0.557734,-0.727509 -1.189739,-1.508421 -1.37679,-2.429131 0.713719,1.105806 -0.126682,-1.005753 -0.266301,-1.397966 -0.311846,-0.930819 -0.668241,-1.846489 -0.970592,-2.780294 0.826083,1.211728 1.192753,2.677938 1.774406,4.016764 0.215284,1.07954 0.700646,2.178433 1.770315,2.649128 0.672539,0.383605 2.643707,1.097724 1.940084,-0.403924 -0.250293,-0.688759 -1.156719,-1.979335 -1.083518,-2.283691 0.587088,1.033052 1.489443,1.924187 1.69442,3.13694 0.598428,0.89399 2.094763,-0.362584 1.079591,-1.153945 -0.25256,-0.371572 -1.097225,-1.762012 -0.341129,-0.768674 0.487526,0.666466 1.56197,1.698993 0.626944,2.449073 -0.685779,0.933994 1.116556,1.295163 1.684577,1.762567 0.548632,0.693294 2.575125,0.801404 1.783508,1.980574 -0.606644,1.039225 -2.062325,0.521436 -2.987148,1.173345 -0.54576,0.847158 -0.229091,1.976286 -0.663914,2.903346 -0.136767,1.015984 -1.185076,1.689205 -1.142838,2.70514 -0.02184,0.939754 -0.338493,1.856968 -0.862866,2.637645 -0.226255,0.46745 0.252889,1.674919 -0.562715,1.501537 -0.596701,-0.0094 -1.21729,0.05665 -1.760907,-0.128648 -0.569695,-0.400123 -0.443205,0.36784 -1.083226,0.128648 -0.2831,-0.07463 -0.83567,0.161213 -0.923462,-0.138457 0.07867,-0.94029 -0.928612,-1.120465 -1.062774,-0.141262 -0.309696,0.510143 -1.656414,0.290919 -1.929033,0.159767 0.553107,-0.609893 -0.265442,-2.117971 -0.575613,-0.778355 -0.07524,0.986993 -0.867459,0.971446 -1.633737,0.898307 -0.451303,0.09119 -0.674103,-0.04517 -0.555692,-0.521325 0.0027,-0.639974 0.0054,-1.279949 0.008,-1.919923 z"
       id="path1" /><path
       style="font-weight:bold;font-size:6.35px;line-height:1.25;font-family:Interstate;-inkscape-font-specification:'Interstate, Bold';letter-spacing:0px;word-spacing:0px;fill:#f7f7f7;stroke-width:0.264583"
       d="m 61.849921,45.030296 c 0,-1.6256 -0.9398,-2.2225 -2.2098,-2.2225 h -1.39065 v 4.445 h 1.32715 c 1.143,0 2.2733,-0.6604 2.2733,-2.2225 z m -0.9144,0 c 0,0.8128 -0.42545,1.3589 -1.3589,1.3589 h -0.43815 v -2.7178 h 0.4699 c 0.9398,0 1.32715,0.45085 1.32715,1.3589 z m 4.375142,0.5588 c 0,-0.9525 -0.51435,-1.7399 -1.40335,-1.7399 -0.84455,0 -1.4859,0.71755 -1.4859,1.7399 0,1.0541 0.6096,1.73355 1.56845,1.73355 0.4445,0 0.9271,-0.19685 1.1938,-0.53975 l -0.6223,-0.5207 c -0.127,0.14605 -0.3302,0.23495 -0.5715,0.23495 -0.3175,0 -0.65405,-0.17145 -0.6858,-0.62865 h 1.9939 c 0.0063,-0.0635 0.0127,-0.1524 0.0127,-0.2794 z m -0.8509,-0.381 h -1.143 c 0.03175,-0.33655 0.2286,-0.5969 0.5461,-0.5969 0.3937,0 0.5715,0.29845 0.5969,0.5969 z m 4.267189,0.381 c 0,-0.9525 -0.51435,-1.7399 -1.40335,-1.7399 -0.84455,0 -1.4859,0.71755 -1.4859,1.7399 0,1.0541 0.6096,1.73355 1.56845,1.73355 0.4445,0 0.9271,-0.19685 1.1938,-0.53975 l -0.6223,-0.5207 c -0.127,0.14605 -0.3302,0.23495 -0.5715,0.23495 -0.3175,0 -0.65405,-0.17145 -0.6858,-0.62865 h 1.9939 c 0.0063,-0.0635 0.0127,-0.1524 0.0127,-0.2794 z m -0.8509,-0.381 h -1.143 c 0.03175,-0.33655 0.2286,-0.5969 0.5461,-0.5969 0.3937,0 0.5715,0.29845 0.5969,0.5969 z m 3.727438,-1.12395 c -0.1143,-0.12065 -0.3302,-0.23495 -0.61595,-0.23495 -0.31115,0 -0.5334,0.13335 -0.6858,0.2921 v -0.22225 h -0.8763 v 3.33375 h 0.8763 v -1.8034 c 0,-0.57785 0.22225,-0.7239 0.56515,-0.7239 0.19685,0 0.3683,0.0889 0.508,0.2159 z m 3.041636,2.1971 c 0,-0.66675 -0.51435,-0.88265 -1.11125,-1.0795 -0.59055,-0.1905 -0.69215,-0.24765 -0.69215,-0.38735 0,-0.14605 0.09525,-0.2159 0.45085,-0.2159 0.2794,0 0.64135,0.0889 0.97155,0.2667 l 0.2794,-0.69215 c -0.3556,-0.19685 -0.8128,-0.32385 -1.2319,-0.32385 -0.78105,0 -1.3335,0.29845 -1.3335,0.9906 0,0.70485 0.51435,0.9017 1.31445,1.143 0.3683,0.10795 0.48895,0.18415 0.48895,0.33655 0,0.17145 -0.1016,0.254 -0.4445,0.254 -0.42545,0 -0.8001,-0.10795 -1.1557,-0.3048 l -0.2921,0.66675 c 0.3556,0.23495 0.86995,0.38735 1.397,0.38735 0.7493,0 1.3589,-0.27305 1.3589,-1.0414 z m 3.651242,-0.65405 c 0,-1.2446 -0.5842,-1.778 -1.2954,-1.778 -0.3175,0 -0.53975,0.13335 -0.70485,0.2794 v -0.20955 h -0.8763 v 4.5593 l 0.8763,-0.43815 v -0.9779 c 0.15875,0.14605 0.41275,0.26035 0.70485,0.26035 0.8255,0 1.2954,-0.6985 1.2954,-1.69545 z m -0.889,0.01905 c 0,0.5588 -0.18415,0.8509 -0.5207,0.8509 -0.254,0 -0.4572,-0.1016 -0.59055,-0.28575 v -1.2573 c 0.127,-0.1651 0.2667,-0.2794 0.53975,-0.2794 0.3429,0 0.5715,0.28575 0.5715,0.97155 z m 4.425939,-0.05715 c 0,-1.02235 -0.64135,-1.7399 -1.5113,-1.7399 -0.86995,0 -1.50495,0.71755 -1.50495,1.7399 0,1.02235 0.635,1.73355 1.50495,1.73355 0.86995,0 1.5113,-0.7112 1.5113,-1.73355 z m -0.889,0 c 0,0.46355 -0.2032,0.889 -0.6223,0.889 -0.4191,0 -0.61595,-0.37465 -0.61595,-0.889 0,-0.51435 0.19685,-0.89535 0.61595,-0.89535 0.4191,0 0.6223,0.38735 0.6223,0.89535 z m 3.524233,0.64135 c -0.2159,0.18415 -0.33655,0.254 -0.4953,0.254 -0.20955,0 -0.32385,-0.08255 -0.32385,-0.40005 v -1.33985 h 0.8001 v -0.8255 h -0.8001 v -1.2954 l -0.8763,0.43815 v 0.85725 h -0.5588 v 0.8255 h 0.5588 v 1.5748 c 0,0.5842 0.34925,1.0033 0.889,1.0033 0.27305,0 0.5334,-0.0889 0.67945,-0.2032 z m 2.711439,0 c -0.2159,0.18415 -0.33655,0.254 -0.4953,0.254 -0.20955,0 -0.32385,-0.08255 -0.32385,-0.40005 v -1.33985 h 0.8001 v -0.8255 h -0.8001 v -1.2954 l -0.8763,0.43815 v 0.85725 h -0.5588 v 0.8255 h 0.5588 v 1.5748 c 0,0.5842 0.34925,1.0033 0.889,1.0033 0.27305,0 0.5334,-0.0889 0.67945,-0.2032 z m 3.403584,-0.64135 c 0,-0.9525 -0.51435,-1.7399 -1.40335,-1.7399 -0.84455,0 -1.4859,0.71755 -1.4859,1.7399 0,1.0541 0.6096,1.73355 1.56845,1.73355 0.4445,0 0.9271,-0.19685 1.1938,-0.53975 l -0.6223,-0.5207 c -0.127,0.14605 -0.3302,0.23495 -0.5715,0.23495 -0.3175,0 -0.65405,-0.17145 -0.6858,-0.62865 h 1.9939 c 0.0063,-0.0635 0.0127,-0.1524 0.0127,-0.2794 z m -0.8509,-0.381 h -1.143 c 0.03175,-0.33655 0.2286,-0.5969 0.5461,-0.5969 0.3937,0 0.5715,0.29845 0.5969,0.5969 z m 3.727439,-1.12395 c -0.1143,-0.12065 -0.3302,-0.23495 -0.61595,-0.23495 -0.31115,0 -0.5334,0.13335 -0.6858,0.2921 v -0.22225 h -0.8763 v 3.33375 h 0.8763 v -1.8034 c 0,-0.57785 0.22225,-0.7239 0.56515,-0.7239 0.19685,0 0.3683,0.0889 0.508,0.2159 z"
       id="text1"
       aria-label="Deerspotter" /></g></svg>
