<svg 
    width="100%"
    height="100%"
    viewBox="0 0 92 51" 
    fill="none" 
    xmlns="http://www.w3.org/2000/svg"
    preserveAspectRatio="xMidYMid meet"

    >
<path d="M11.8891 45.0539C10.5576 45.0539 -2.84903 44.0634 2.08618 42.3873C3.51598 41.9017 15.5652 39.7005 15.5652 41.1055C15.5652 42.3035 12.9737 42.8271 12.706 43.9647C12.5453 44.6479 15.1596 44.1522 15.5652 44.1522C16.3814 44.1522 13.4439 43.8876 14.8844 42.8755C22.7812 37.3275 27.8916 31.3655 39.9364 29.5326C52.6421 27.5992 63.3801 23.5993 65.3967 21C68.5 17 67.7113 -0.420744 80.1048 1.21112C81.4143 1.38355 84.0922 1.75768 85.411 1.75768C87.0294 1.75768 88.8148 0.532318 88.8148 0.940773C82.4769 3.80305 73.5576 -1.37381 71.2376 10.4626C70.441 14.5267 69.6566 26 65.3967 29.5326C59.8145 34.1618 50.3986 35.4689 34.2246 36.2041C26.9731 36.5337 18.6049 43.0321 14.8844 45.5613C11.4755 47.8787 4.30777 45.4355 1.40541 49.1385C0.750491 49.9741 6.56111 50.5 8.62146 50.5C16.1098 50.5 24.5325 48.443 25.6404 45.7347C25.9986 44.8591 23.6328 45.0239 24.2789 44.7816C35.8193 44.7816 47.6142 45.966 59.0897 44.0028C60.9037 43.6924 61.7691 42.6032 59.8145 42.6032C50.9662 42.6032 42.2615 44.4193 33.4011 43.8286C29.3165 43.8286 31.5 42 34.5 42C43.7833 42 53.674 41.7863 61.3122 39.6079C65 38.5561 65.0149 42.5437 64.5 43.5C62.8639 46.5384 53.674 45.3722 53.674 48.479C53.674 49.9202 64.5146 49.2427 65.3967 49.1385C73.2876 48.2063 80.012 27.8137 76.2889 21.9081C75.164 20.1239 73.6907 15.2425 73.8381 13.1944C73.9257 11.9786 73.5658 9.24603 74.2466 7.61221C75.533 4.52487 85.0026 8.42912 79.8288 5.56993C79.2088 5.06917 79.6831 4 80.5 4C82.4061 4 80.7572 5.24283 80.5 5.5C80.0915 5.90846 79.4907 5.48414 79.8288 4.75147C80.6457 2.98149 81.7349 4.88917 80.2373 5.29763C79.7948 5.41831 81.6582 6.60925 82.1434 6.52299C83.958 6.2004 85.5576 5.47568 87.3172 4.88917C88.8196 4.38835 89.3594 4.75302 90.1319 3.5738C90.7193 2.67718 90.6117 2.24759 89.904 1.75768C89.4987 1.47704 88.8516 1.21529 88.951 0.66851C88.951 0.260043 90.3562 0.691201 90.7209 0.940787C91.1772 1.25299 91.0203 2.31466 90.808 2.76964C89.6895 5.16648 88.952 8.28462 86.2279 9.24606C83.9134 10.063 83.07 12.5507 84.2395 14.64C87.3172 20.1382 86.9006 29.072 85.1387 34.1618C83.9134 37.7018 79.8288 41.2417 79.8288 41.2417C79.8288 41.2417 81.0542 41.0107 81.8711 40.3093C82.688 39.6079 83.2842 38.2464 83.9134 38.2464C84.231 38.2464 85.9091 41.8057 87.7256 42.0586C88.3712 42.1485 92.4909 42.7394 90.9933 43.1478C87.4709 44.1085 81.6835 43.0117 78.0588 43.0117" stroke="white" stroke-linecap="round"/>
</svg>
