<?xml version="1.0" encoding="utf-8"?>
<!-- Generator: Adobe Illustrator 22.1.0, SVG Export Plug-In . SVG Version: 6.00 Build 0)  -->
<svg version="1.1" id="Layer_1" xmlns="http://www.w3.org/2000/svg" xmlns:xlink="http://www.w3.org/1999/xlink" x="0px" y="0px"
	 viewBox="0 0 799.3 93.5" style="enable-background:new 0 0 799.3 93.5;" xml:space="preserve">
<style type="text/css">
	.st0{fill:#FFFFFF;stroke:#FFFFFF;stroke-miterlimit:10;}
</style>
<g>
	<g>
		<path class="st0" d="M217.4,0.3c-6.1,0-10.7,1.6-13.7,4.9c-2.9,3.5-4.3,8.1-4.4,15.5v5.7H192c-2.3,0-4.2,1.9-4.2,4.2
			c0,2.4,1.9,4.3,4.2,4.3h7.4v54.4c0,2.3,1.9,4.2,4.3,4.2c2.3,0,4.2-1.9,4.2-4.2V34.9h7.9c2.4,0,4.3-1.9,4.3-4.3
			c0-2.3-1.9-4.2-4.3-4.2h-7.9v-5.7c0-6,1.3-8.7,2.4-9.9c1.2-1.4,3.5-2.1,7.3-2.1c2.3,0,4.2-1.9,4.2-4.2
			C221.6,2.2,219.7,0.3,217.4,0.3z"/>
		<path class="st0" d="M243.6,0.2c-2.3,0-4.2,1.9-4.2,4.2v84.8c0,2.3,1.9,4.2,4.2,4.2c2.4,0,4.3-1.9,4.3-4.2V4.4
			C247.9,2.1,245.9,0.2,243.6,0.2z"/>
		<path class="st0" d="M319.3,27.4c-2,0-4.2,1.7-4.2,4.2v34.7c0,10.4-8.2,18.6-18.7,18.7c-10.4-0.1-18.5-8.3-18.5-18.7V31.5
			c0-2.3-1.8-4.2-4.2-4.2c-2.3,0-4.2,1.8-4.2,4.2v34.7c0,14.9,12,27.1,26.8,27.1c15,0,27.2-12.1,27.2-27.1V31.5
			C323.6,29.2,321.7,27.4,319.3,27.4z"/>
		<path class="st0" d="M402.2,30.1c0-1.1-0.5-2.1-1.3-2.8c-1.7-1.7-4.3-1.7-5.9,0l-35.9,35.8V4.4c0-2.3-1.9-4.2-4.3-4.2
			c-2.3,0-4.2,1.9-4.2,4.2v84.8c0,2.3,1.9,4.2,4.2,4.2c2.4,0,4.3-1.9,4.3-4.2V75l11.9-11.9l23.6,28.5c0.6,1.1,1.8,1.7,3.4,1.7
			c1.1,0,2-0.3,2.8-1c1.7-1.7,1.8-4.1,0.3-6L377,57.1l23.9-23.9C401.8,32.3,402.2,31.2,402.2,30.1z"/>
		<path class="st0" d="M447.6,27.5c-17.6,0-32,14.8-32,33c0,18.1,14.4,32.8,32,32.8c10.8,0,20.8-5.6,26.7-15c1.1-2,0.6-4.4-1.4-5.9
			c-1.8-1.1-4.5-0.5-5.6,1.4c-4.1,6.8-11.6,11.1-19.6,11.1c-12.3,0-22.5-9.7-23.6-22.4h51.2c2.3,0,4.2-1.7,4.2-3.9l0-0.6
			C478,40.7,464.3,27.5,447.6,27.5z M470.3,54.4h-45.7c2.7-11,12-18.6,23-18.6C458.5,35.8,467.8,43.6,470.3,54.4z"/>
		<path class="st0" d="M531.2,27.5c-9,0-17.4,3.8-23.4,10.6V4.4c0-2.3-1.9-4.2-4.3-4.2c-2.3,0-4.2,1.9-4.2,4.2v84.8
			c0,2.3,1.9,4.2,4.2,4.2c2.4,0,4.3-1.9,4.3-4.2v-6.3c6,6.7,14.4,10.5,23.4,10.5c17.6,0,31.9-14.7,31.9-32.8
			C563.1,42.3,548.8,27.5,531.2,27.5z M531.2,84.9c-12.9,0-23.4-10.9-23.4-24.3v-1c0.5-13.2,10.8-23.6,23.4-23.6
			c12.9,0,23.4,11,23.4,24.6C554.6,74,544.1,84.9,531.2,84.9z"/>
		<path class="st0" d="M613.4,27.5c-17.2,0-31.2,14.8-31.2,32.9c0,18.1,14,32.9,31.2,32.9c17.2,0,31.2-14.8,31.2-32.9
			C644.6,42.3,630.6,27.5,613.4,27.5z M613.4,85c-12.6,0-22.9-11-22.9-24.6c0-13.4,10.5-24.7,22.9-24.7c12.6,0,22.9,11.1,22.9,24.7
			C636.3,74,626,85,613.4,85z"/>
		<path class="st0" d="M694.7,27.5c-17.2,0-31.2,14.8-31.2,32.9c0,18.1,14,32.9,31.2,32.9c17.2,0,31.2-14.8,31.2-32.9
			C725.9,42.3,711.9,27.5,694.7,27.5z M694.7,85c-12.6,0-22.9-11-22.9-24.6c0-13.4,10.5-24.7,22.9-24.7c12.6,0,22.9,11.1,22.9,24.7
			C717.6,74,707.3,85,694.7,85z"/>
		<path class="st0" d="M774.1,57.1L798,33.2c0.9-0.9,1.3-2,1.3-3.1c0-1.1-0.5-2.1-1.3-2.8c-1.7-1.7-4.3-1.7-5.9,0l-35.9,35.8V4.4
			c0-2.3-1.9-4.2-4.3-4.2c-2.3,0-4.2,1.9-4.2,4.2v84.8c0,2.3,1.9,4.2,4.2,4.2c2.4,0,4.3-1.9,4.3-4.2V75l11.9-11.9l23.6,28.5
			c0.6,1.1,1.8,1.7,3.4,1.7c1.1,0,2-0.3,2.8-1c1.7-1.7,1.8-4.1,0.3-6L774.1,57.1z"/>
	</g>
	<path class="st0" d="M96.5,92.3c-2.3,0-4.2-1.9-4.2-4.2c0-12.4,12.8-18.4,27.6-25.4c18.8-8.9,41.7-19.6,46.8-46.6
		c-9,4.7-22.6,5.1-35.8,5.4c-22.3,0.6-37.1,1.8-38.6,12.7c-0.3,2.1-2.1,3.6-4.2,3.6c-2.1,0-3.9-1.5-4.2-3.6
		C82.4,23.2,67.6,22,45.3,21.4C32,21.1,18.4,20.7,9.5,16c5.2,27,28,37.8,46.8,46.6c14.8,7,27.6,13,27.6,25.4c0,2.3-1.9,4.2-4.2,4.2
		c-2.3,0-4.2-1.9-4.2-4.2c0-6.7-8.7-11.2-22.8-17.8C30.5,59.8,0,45.4,0,4.2C0,2.1,1.5,0.4,3.5,0c2-0.3,4,0.9,4.6,2.8
		c3.1,9.3,20.5,9.7,37.3,10.2c16.4,0.4,34.4,0.9,42.6,10.4c8.1-9.5,26.2-10,42.6-10.4c16.8-0.4,34.2-0.9,37.3-10.2
		c0.7-2,2.6-3.1,4.6-2.8c2,0.3,3.5,2.1,3.5,4.1c0,41.2-30.5,55.6-52.7,66c-14.1,6.7-22.8,11.1-22.8,17.8
		C100.7,90.4,98.8,92.3,96.5,92.3z"/>
</g>
</svg>
