<?xml version="1.0" encoding="UTF-8" standalone="no"?>
<!-- Created with Inkscape (http://www.inkscape.org/) -->

<svg
   width="300"
   height="30"
   viewBox="0 0 79.375 7.9374995"
   version="1.1"
   id="svg1"
   xml:space="preserve"
   inkscape:version="1.3.2 (1:1.3.2+202311252150+091e20ef0f)"
   sodipodi:docname="troutspotter-top-logo-light.svg"
   xmlns:inkscape="http://www.inkscape.org/namespaces/inkscape"
   xmlns:sodipodi="http://sodipodi.sourceforge.net/DTD/sodipodi-0.dtd"
   xmlns="http://www.w3.org/2000/svg"
   xmlns:svg="http://www.w3.org/2000/svg"><sodipodi:namedview
     id="namedview1"
     pagecolor="#ffffff"
     bordercolor="#666666"
     borderopacity="1.0"
     inkscape:showpageshadow="2"
     inkscape:pageopacity="0.0"
     inkscape:pagecheckerboard="0"
     inkscape:deskcolor="#d1d1d1"
     inkscape:document-units="mm"
     inkscape:zoom="2.6684744"
     inkscape:cx="142.77821"
     inkscape:cy="-8.9939032"
     inkscape:window-width="1920"
     inkscape:window-height="1129"
     inkscape:window-x="0"
     inkscape:window-y="0"
     inkscape:window-maximized="1"
     inkscape:current-layer="layer1" /><defs
     id="defs1" /><g
     inkscape:label="Layer 1"
     inkscape:groupmode="layer"
     id="layer1"><path
       d="m 11.190305,0.33360332 c -0.143828,0.0349117 -0.293235,0.0963513 -0.464978,0.18850335 -0.09635,0.0516689 -0.189898,0.0991355 -0.208052,0.10472361 -0.01814,0.005631 -0.08519,0.0614396 -0.14801,0.12427229 C 10.250578,0.86978982 10.123517,0.98289203 9.9713155,1.1085605 9.9210544,1.1504483 9.7297491,1.3319714 9.5454408,1.5134924 9.0762706,1.975674 9.0567292,1.9868451 8.6922837,2.028734 8.5624284,2.0440939 8.368339,2.0608511 8.2608302,2.065043 7.7818893,2.0859921 6.932924,2.1990891 5.9373567,2.3722325 5.336934,2.4769561 4.8887129,2.583077 4.5605867,2.6989707 4.4767486,2.7296905 4.2938897,2.7897328 4.1556507,2.8344141 4.0174116,2.8776992 3.8596312,2.9293681 3.8037808,2.946119 3.7493486,2.9642735 3.6082941,3.004764 3.4896069,3.0368811 3.3723169,3.0676009 3.2131392,3.1150779 3.1363397,3.1416047 3.0092686,3.1862871 2.4688986,3.3552418 2.1589165,3.4473991 1.9159528,3.5200066 1.5682749,3.6694137 1.1605442,3.8746721 0.73327218,4.0897054 0.59224895,4.1790692 0.50846297,4.2893788 0.42191367,4.4038773 0.43171564,4.4834672 0.55173762,4.6007582 0.6662434,4.7124631 0.70952847,4.727823 0.96226287,4.7389931 c 0.21223353,0.0098 0.22341193,0.011168 0.33790723,0.06144 0.1675616,0.074005 0.2471452,0.1200835 0.2722758,0.1563873 0.0195,0.03072 0.0195,0.032117 -0.044734,0.041888 -0.09218,0.013963 -0.57108988,-0.00417 -0.63950554,-0.023733 -0.0391036,-0.011168 -0.0795628,-0.04049 -0.13264984,-0.097738 -0.0419191,-0.04608 -0.0851937,-0.082378 -0.0963513,-0.082378 -0.0111576,0 -0.0419191,0.016757 -0.0670496,0.036299 -0.14382826,0.1103087 -0.13264985,0.2611109 0.0293016,0.4063282 0.0893648,0.078197 0.0697608,0.068416 0.43564548,0.240167 0.3337257,0.154991 0.4970954,0.2094483 0.8503625,0.2792644 0.2694916,0.053056 0.3462807,0.065631 0.6632492,0.1005327 0.1982814,0.020949 0.2639024,0.039093 0.6213615,0.1591798 0.3923603,0.1326499 0.5724871,0.1787285 0.8810719,0.2234109 0.138239,0.020949 0.4007441,0.06144 0.5850629,0.092159 1.1924512,0.1926911 1.781706,0.2359772 3.239457,0.2401671 0.8475679,0.00282 1.6895467,-0.018154 1.9967342,-0.048874 0.2331821,-0.023744 0.5864601,-0.023744 0.6548751,-0.00136 0.03076,0.0098 0.08655,0.04608 0.125664,0.078197 0.08373,0.07121 0.400744,0.304397 0.519431,0.3811944 0.04473,0.029323 0.135444,0.079594 0.201076,0.1117059 0.06559,0.032117 0.178729,0.093557 0.251337,0.1368387 0.07258,0.043285 0.141023,0.078197 0.150804,0.078197 0.01116,0 0.06142,0.018155 0.113098,0.04049 0.136842,0.06144 0.330931,0.1005328 0.52501,0.1075172 0.145226,0.00563 0.184319,0.00282 0.286249,-0.025131 0.110314,-0.03072 0.121482,-0.037696 0.157791,-0.092159 l 0.04046,-0.060042 -0.02232,-0.1312536 c -0.03764,-0.2192197 -0.134043,-0.4524044 -0.22201,-0.5417692 -0.02649,-0.02513 -0.09917,-0.072608 -0.161973,-0.1061198 -0.07539,-0.039093 -0.1117,-0.064234 -0.101878,-0.074005 0.02513,-0.025131 0.305791,-0.040491 0.994181,-0.051659 0.7596,-0.013963 0.714918,-0.00834 0.995577,-0.1117059 0.06424,-0.023733 0.127061,-0.043285 0.141024,-0.043285 0.01262,0 0.142431,0.111706 0.286248,0.2485446 0.32115,0.3016055 0.371422,0.3462869 0.566898,0.5012789 0.321161,0.2541297 0.505469,0.3909693 0.593437,0.4384442 0.129865,0.07121 0.332328,0.149406 0.473351,0.181521 0.06559,0.013963 0.154997,0.036299 0.196884,0.04608 0.04192,0.011168 0.152202,0.03072 0.244361,0.043285 0.154986,0.020939 0.17873,0.020939 0.284841,0.00136 0.157791,-0.03072 0.180127,-0.043285 0.24994,-0.1480108 0.170356,-0.2555259 0.305801,-0.6018128 0.395166,-1.0123307 0.0073,-0.03072 0.01679,-0.2457521 0.02096,-0.4775405 0.01116,-0.4635779 0.0094,-0.4691629 -0.07539,-0.5110528 -0.0684,-0.034912 -0.241556,-0.053056 -0.36164,-0.036299 -0.06006,0.00699 -0.174538,0.012565 -0.255529,0.0098 l -0.146613,-0.00417 0.09771,-0.03072 C 17.275399,5.41906 17.59096,5.3771722 17.82554,5.3757749 l 0.209449,-0.00136 0.09072,0.051659 c 0.390974,0.2206183 0.522226,0.2904344 0.712124,0.3825917 0.118687,0.057248 0.357459,0.175936 0.530599,0.2639034 0.173141,0.08657 0.392371,0.1898996 0.488712,0.2276007 0.09635,0.039093 0.206655,0.083776 0.244361,0.099136 0.101878,0.041888 0.647889,0.2331847 0.735857,0.2583184 0.04046,0.011168 0.134047,0.043285 0.208052,0.069813 0.170345,0.06144 0.446824,0.1089135 0.601809,0.1033274 l 0.115893,-0.00417 0.04473,-0.085173 c 0.07122,-0.1354434 0.08801,-0.2206184 0.08801,-0.4663704 0,-0.410518 -0.02649,-0.8545472 -0.06423,-1.0598056 -0.0195,-0.1047247 -0.04745,-0.2597157 -0.06288,-0.3434944 -0.01533,-0.085173 -0.03347,-0.2387708 -0.04046,-0.3420981 -0.0083,-0.1033274 -0.02096,-0.2387708 -0.02795,-0.3002083 -0.02231,-0.1940884 -0.01533,-0.3770067 0.02096,-0.5864539 0.08655,-0.4859191 0.08519,-0.4691629 0.05725,-0.7651824 -0.04745,-0.5208266 -0.05162,-0.5613202 -0.06423,-0.5892464 -0.0073,-0.01536 -0.01533,-0.048874 -0.01679,-0.075402 -0.0031,-0.032117 -0.01533,-0.05585 -0.0391,-0.072608 -0.03212,-0.023733 -0.04192,-0.023733 -0.118688,-0.00699 -0.187103,0.041888 -0.349075,0.093557 -0.477533,0.1521985 -0.135444,0.062837 -0.545959,0.2234109 -0.855941,0.3379094 -0.335123,0.122876 -0.668839,0.272282 -0.976036,0.4370468 -0.309983,0.1675585 -0.752614,0.3099832 -1.069573,0.3448907 -0.113108,0.012565 -0.795909,-0.043285 -0.89225,-0.072608 -0.0196,-0.00563 0.0094,-0.025131 0.111701,-0.074005 0.07539,-0.036299 0.156393,-0.08657 0.178729,-0.1089124 0.03775,-0.041888 0.0391,-0.047477 0.03347,-0.1466134 -0.0052,-0.08657 -0.01397,-0.1131022 -0.04745,-0.1605771 -0.06006,-0.082378 -0.150804,-0.1382349 -0.316958,-0.1926911 -0.201076,-0.064234 -0.272286,-0.062837 -0.544562,0.0098 C 16.34402,2.7507624 16.296554,2.7647241 16.161109,2.817784 16.032641,2.868056 15.955852,2.884802 15.708696,2.911341 15.585827,2.925304 15.54394,2.922509 15.185083,2.876429 14.679615,2.810797 14.250945,2.7605342 14.111309,2.7493642 c -0.06142,-0.00417 -0.230388,-0.020949 -0.377001,-0.034912 -0.145215,-0.01536 -0.466375,-0.043285 -0.712123,-0.062837 -0.245758,-0.019552 -0.557127,-0.047477 -0.691174,-0.062837 -0.134048,-0.01536 -0.270889,-0.027925 -0.303006,-0.027925 -0.06288,0 -0.08102,-0.022336 -0.02795,-0.034912 0.01679,-0.00417 0.07258,-0.012565 0.122879,-0.020949 0.05162,-0.00699 0.120084,-0.026528 0.153588,-0.04049 0.03493,-0.01536 0.141034,-0.036299 0.242964,-0.048874 0.21922,-0.026528 0.314174,-0.053056 0.374216,-0.1047237 0.02377,-0.020949 0.05589,-0.043285 0.06976,-0.047477 0.03764,-0.013963 0.05589,-0.069813 0.04609,-0.138236 -0.01397,-0.089365 -0.103338,-0.2485445 -0.16337,-0.2904334 -0.02795,-0.019552 -0.09635,-0.087967 -0.152201,-0.1535958 -0.05589,-0.065632 -0.11729,-0.1256685 -0.138239,-0.1340461 -0.0195,-0.00834 -0.05725,-0.041888 -0.08238,-0.074005 -0.03775,-0.047477 -0.05443,-0.057248 -0.09353,-0.057248 -0.06006,0 -0.104725,-0.04049 -0.104725,-0.094954 0,-0.023733 -0.01814,-0.065632 -0.04473,-0.1005327 -0.06278,-0.080991 -0.06278,-0.083776 -0.08655,-0.1424247 -0.01679,-0.041888 -0.03629,-0.060042 -0.09771,-0.090762 -0.06976,-0.0335144 -0.07821,-0.0418878 -0.07821,-0.0823783 0,-0.0237333 -0.01533,-0.0642342 -0.03493,-0.0907621 -0.01814,-0.0265279 -0.05026,-0.0781968 -0.06987,-0.11449743 -0.0195,-0.036309 -0.05026,-0.0726076 -0.06841,-0.0795941 -0.01814,-0.006987 -0.04463,-0.0279252 -0.06142,-0.047477 -0.01533,-0.0195518 -0.03212,-0.0362986 -0.03775,-0.0362986 -0.0073,0 -0.03347,-0.0237333 -0.06142,-0.0530558 -0.05725,-0.058645 -0.113109,-0.0921594 -0.230399,-0.13823592 -0.09072,-0.0362986 -0.108906,-0.0362986 -0.21363,-0.011168 z"
       id="path1"
       style="fill:#f7f7f7;stroke:none;stroke-width:0.00139632;fill-opacity:1" /><path
       style="font-weight:bold;font-size:8.46667px;line-height:1.25;font-family:Interstate;-inkscape-font-specification:'Interstate, Bold';letter-spacing:0px;word-spacing:0px;fill:#f6f6f6;stroke-width:0.264583"
       d="M 30.10225,1.8702634 V 0.70186291 H 25.513315 V 1.8702634 h 1.701801 v 4.7582685 h 1.185333 V 1.8702634 Z m 3.132659,0.5334002 c -0.1524,-0.1608667 -0.440267,-0.3132668 -0.821267,-0.3132668 -0.414867,0 -0.7112,0.1778001 -0.9144,0.3894668 V 2.1835302 h -1.168401 v 4.4450017 h 1.168401 V 4.2239976 c 0,-0.7704669 0.296333,-0.9652003 0.753534,-0.9652003 0.262466,0 0.491066,0.1185333 0.677333,0.2878667 z m 4.38572,2.0066008 c 0,-1.3631339 -0.855134,-2.3198676 -2.015067,-2.3198676 -1.159934,0 -2.006601,0.9567337 -2.006601,2.3198676 0,1.3631339 0.846667,2.3114009 2.006601,2.3114009 1.159933,0 2.015067,-0.948267 2.015067,-2.3114009 z m -1.185334,0 c 0,0.6180669 -0.270933,1.1853338 -0.829733,1.1853338 -0.558801,0 -0.821267,-0.4995335 -0.821267,-1.1853338 0,-0.6858003 0.262466,-1.1938005 0.821267,-1.1938005 0.5588,0 0.829733,0.5164669 0.829733,1.1938005 z m 5.901256,2.2182675 V 2.1835302 h -1.1684 v 2.4299343 c 0,0.7704669 -0.2794,1.0075337 -0.762,1.0075337 -0.482601,0 -0.753534,-0.2370668 -0.753534,-1.0329337 V 2.1835302 h -1.168401 v 2.5061343 c 0,1.2530672 0.508001,2.0320008 1.642534,2.0320008 0.465667,0 0.838201,-0.1778001 1.041401,-0.3894668 v 0.2963334 z m 3.784598,-1.3631338 c -0.287867,0.2455334 -0.448734,0.3386668 -0.6604,0.3386668 -0.2794,0 -0.431801,-0.1100668 -0.431801,-0.5334003 V 3.2841973 h 1.066801 V 2.1835302 H 45.028948 V 0.45632948 l -1.1684,0.58420022 v 1.1430005 h -0.745067 v 1.1006671 h 0.745067 v 2.0997341 c 0,0.7789337 0.465667,1.3377339 1.185334,1.3377339 0.364067,0 0.7112,-0.1185334 0.905934,-0.2709334 z M 51.75148,4.8335979 c 0,-1.2869339 -1.0414,-1.6086673 -1.981201,-1.8288007 -0.9398,-0.2201335 -1.1938,-0.3386668 -1.1938,-0.7112003 0,-0.2624668 0.211667,-0.5334002 0.846667,-0.5334002 0.541867,0 0.9652,0.2201334 1.3462,0.6096002 L 51.62448,1.5400632 c -0.5588,-0.58420019 -1.236134,-0.93133366 -2.159001,-0.93133366 -1.1684,0 -2.116667,0.66040026 -2.116667,1.73566736 0,1.1684005 0.762,1.5155339 1.8542,1.769534 1.117601,0.2540001 1.320801,0.4233335 1.320801,0.8043337 0,0.4487335 -0.3302,0.6434669 -1.032934,0.6434669 -0.567267,0 -1.100667,-0.1947334 -1.515534,-0.6773336 l -0.855133,0.7620003 c 0.448733,0.6604003 1.312333,1.0752671 2.302934,1.0752671 1.617134,0 2.328334,-0.7620003 2.328334,-1.8880674 z m 4.893729,-0.3725335 c 0,-1.6594673 -0.778934,-2.3706676 -1.727201,-2.3706676 -0.423333,0 -0.719667,0.1778001 -0.9398,0.3725335 V 2.1835302 h -1.168401 v 6.079069 L 53.978208,7.678399 V 6.3745318 c 0.211666,0.1947334 0.550333,0.3471335 0.9398,0.3471335 1.100667,0 1.727201,-0.9313337 1.727201,-2.2606009 z m -1.185334,0.0254 c 0,0.745067 -0.245533,1.1345338 -0.694267,1.1345338 -0.338667,0 -0.6096,-0.1354667 -0.7874,-0.3810002 V 3.5635974 c 0.169333,-0.2201334 0.3556,-0.3725335 0.719667,-0.3725335 0.4572,0 0.762,0.3810001 0.762,1.2954005 z m 5.901255,-0.0762 c 0,-1.3631339 -0.855133,-2.3198676 -2.015067,-2.3198676 -1.159934,0 -2.006601,0.9567337 -2.006601,2.3198676 0,1.3631339 0.846667,2.3114009 2.006601,2.3114009 1.159934,0 2.015067,-0.948267 2.015067,-2.3114009 z m -1.185333,0 c 0,0.6180669 -0.270934,1.1853338 -0.829734,1.1853338 -0.5588,0 -0.821267,-0.4995335 -0.821267,-1.1853338 0,-0.6858003 0.262467,-1.1938005 0.821267,-1.1938005 0.5588,0 0.829734,0.5164669 0.829734,1.1938005 z m 4.69898,0.8551337 c -0.287867,0.2455334 -0.448734,0.3386668 -0.660401,0.3386668 -0.2794,0 -0.4318,-0.1100668 -0.4318,-0.5334003 V 3.2841973 h 1.066801 V 2.1835302 H 63.782576 V 0.45632948 l -1.1684,0.58420022 v 1.1430005 h -0.745067 v 1.1006671 h 0.745067 v 2.0997341 c 0,0.7789337 0.465667,1.3377339 1.185334,1.3377339 0.364066,0 0.7112,-0.1185334 0.905933,-0.2709334 z m 3.615253,0 c -0.287867,0.2455334 -0.448733,0.3386668 -0.6604,0.3386668 -0.2794,0 -0.4318,-0.1100668 -0.4318,-0.5334003 V 3.2841973 h 1.0668 V 2.1835302 h -1.0668 V 0.45632948 L 66.229429,1.0405297 v 1.1430005 h -0.745067 v 1.1006671 h 0.745067 v 2.0997341 c 0,0.7789337 0.465667,1.3377339 1.185334,1.3377339 0.364067,0 0.7112,-0.1185334 0.905934,-0.2709334 z m 4.538113,-0.8551337 c 0,-1.2700005 -0.685801,-2.3198676 -1.871134,-2.3198676 -1.126067,0 -1.981201,0.9567337 -1.981201,2.3198676 0,1.4054672 0.8128,2.3114009 2.091267,2.3114009 0.592667,0 1.236134,-0.2624668 1.591734,-0.7196669 l -0.829733,-0.694267 c -0.169334,0.1947334 -0.440267,0.3132668 -0.762001,0.3132668 -0.423333,0 -0.872067,-0.2286001 -0.9144,-0.8382003 h 2.658534 c 0.0085,-0.084667 0.01693,-0.2032001 0.01693,-0.3725335 z M 71.893609,3.9022642 h -1.524001 c 0.04233,-0.4487335 0.3048,-0.795867 0.728134,-0.795867 0.524933,0 0.762,0.3979335 0.795867,0.795867 z m 4.96992,-1.4986006 c -0.1524,-0.1608667 -0.440266,-0.3132668 -0.821267,-0.3132668 -0.414866,0 -0.7112,0.1778001 -0.9144,0.3894668 V 2.1835302 h -1.1684 v 4.4450017 h 1.1684 V 4.2239976 c 0,-0.7704669 0.296334,-0.9652003 0.753534,-0.9652003 0.262467,0 0.491067,0.1185333 0.677333,0.2878667 z"
       id="text1"
       aria-label="TroutSpotter" /></g></svg>
