<svg width="82" height="33" viewBox="0 0 82 33" fill="none" xmlns="http://www.w3.org/2000/svg">
<path d="M56.574 5.03004C65.4394 5.62548 76.7212 10.8989 81.0248 14.9199C81.0456 14.9394 81.0465 14.9714 81.0294 14.9942C75.3517 22.5581 73.6157 23.0915 68.5376 25.4073M56.574 5.03004C54.9562 4.92138 42.1226 5.92451 36.4763 6.70718M56.574 5.03004L36.4763 6.70718M36.4763 6.70718C30.8299 7.48984 31.2791 8.50893 25.8544 10.2012M36.4763 6.70718C31.8717 5.03285 31.2512 1.65891 26.8823 1.64783C26.8687 1.6478 26.8547 1.65308 26.8445 1.66205C23.024 5.02483 23.9831 7.57221 22.1211 10.1099C22.0937 10.1472 22.1194 10.2012 22.1657 10.2012H25.8544M25.8544 10.2012C22.8929 11.1251 19.642 11.5829 16.2668 11.2914C10.1616 10.7641 8.47245 5.74055 1.08274 7.91511C1.03147 7.93019 1.0264 8.00408 1.07579 8.02452C6.05008 10.0837 5.55149 19.888 1.30942 22.6993C1.27353 22.723 1.27787 22.7775 1.31625 22.7971C6.99362 25.6856 11.3146 20.7113 15.8475 20.7113C19.7328 20.7113 23.1387 23.2209 24.0095 23.3029M24.0095 23.3029L20.4209 24.9818C20.3855 24.9983 20.379 25.0465 20.4067 25.074C22.9004 27.5575 21.3627 28.8623 22.4425 30.4246C22.4588 30.4482 22.4904 30.4562 22.5153 30.4421C24.744 29.185 29.0193 28.2864 30.4106 25.7147M24.0095 23.3029C26.8327 24.5967 27.6713 25.0159 30.4106 25.7147M30.4106 25.7147C33.5685 26.8681 50.8287 27.2337 55.6442 27.4817C55.709 27.4851 55.7174 27.5806 55.6544 27.5962C54.2602 27.9431 49.644 29.2276 50.676 30.8021C52.8262 34.0824 59.951 28.0385 60.1477 27.8707C60.1538 27.8655 60.1561 27.8659 60.1638 27.8637C63.1741 27.0002 64.4562 26.831 68.5376 25.4073M68.5376 25.4073C60.7566 21.7032 58.224 17.8105 64.4508 12.7858M59.5865 23.9321C59.6254 23.9403 59.6648 23.9475 59.7046 23.9538C59.665 23.9457 59.6256 23.9385 59.5865 23.9321ZM59.5865 23.9321C57.5055 23.4949 56.721 20.3729 60.097 20.2101C57.4026 17.7646 49.2546 14.8134 47.0422 18.7826C46.5512 19.6637 47.9566 20.1276 48.4807 20.5818C50.4852 22.3191 49.9586 25.3743 53.3317 25.8649C55.7536 26.2172 57.2461 23.5515 59.5865 23.9321ZM36.4554 6.68864C36.7045 6.26371 36.654 5.90702 36.488 5.43253C36.445 5.3098 36.2399 5.12251 36.4601 5.22188C36.9137 5.42654 37.4549 5.73768 37.9516 5.81509C38.1883 5.85198 38.8597 5.90028 38.7524 5.48519C38.6684 5.16066 38.4428 4.94399 38.3357 4.64416C38.2758 4.47641 38.662 4.78416 38.8221 4.86238C39.3288 5.11006 40.4436 5.57447 40.8635 4.94464C41.1492 4.51605 40.4652 3.87158 40.3152 3.5228C40.2213 3.30456 40.6572 3.69386 40.6606 3.69627C41.6856 4.43525 44.2507 4.32767 42.8924 2.8879C42.8523 2.84541 42.7544 2.69302 42.8088 2.7143C42.9567 2.77217 43.1194 2.88447 43.2549 2.95747C44.0638 3.39341 46.3484 4.64304 46.1478 2.88158C46.1003 2.4649 46.0203 1.94117 45.7841 1.579C45.7722 1.56074 47.0525 2.72253 47.3904 2.8879C49.1672 3.75738 48.2289 1.61595 47.8642 0.886661C47.7974 0.752894 48.5393 1.36869 48.6449 1.45664C50.8017 3.25404 51.3829 2.381 49.5928 0.778242C49.4962 0.691824 49.4182 0.618604 49.6067 0.717837C50.413 1.14218 54.4204 4.68097 52.963 1.87148C52.7166 1.39629 52.1318 0.873028 52.3532 0.89315C53.5831 1.00496 54.9189 4.42232 55.7665 4.00914C56.4279 3.68669 55.5143 2.2888 55.3003 1.93213C55.2754 1.89065 54.9792 1.50511 55.1965 1.72923C55.7041 2.25268 57.6921 4.00914 57.8109 4.87649M72.3391 11.7666C72.3391 13.1434 70.3265 13.1434 70.3265 11.7666C70.3265 10.3898 72.3391 10.3898 72.3391 11.7666Z" stroke="white" stroke-linecap="round"/>
</svg>
