<?xml version="1.0" encoding="UTF-8" standalone="no"?>
<!-- Created with Inkscape (http://www.inkscape.org/) -->

<svg
   width="1017.7961mm"
   height="197.99693mm"
   viewBox="0 0 1017.7961 197.99693"
   version="1.1"
   id="svg1"
   xml:space="preserve"
   inkscape:version="1.3.2 (1:1.3.2+202311252150+091e20ef0f)"
   sodipodi:docname="deer-wildbook.svg"
   xmlns:inkscape="http://www.inkscape.org/namespaces/inkscape"
   xmlns:sodipodi="http://sodipodi.sourceforge.net/DTD/sodipodi-0.dtd"
   xmlns="http://www.w3.org/2000/svg"
   xmlns:svg="http://www.w3.org/2000/svg"><sodipodi:namedview
     id="namedview1"
     pagecolor="#ffffff"
     bordercolor="#666666"
     borderopacity="1.0"
     inkscape:showpageshadow="2"
     inkscape:pageopacity="0.0"
     inkscape:pagecheckerboard="0"
     inkscape:deskcolor="#d1d1d1"
     inkscape:document-units="mm"
     inkscape:zoom="0.15861561"
     inkscape:cx="2140.3947"
     inkscape:cy="441.31848"
     inkscape:window-width="1920"
     inkscape:window-height="1129"
     inkscape:window-x="0"
     inkscape:window-y="0"
     inkscape:window-maximized="1"
     inkscape:current-layer="layer1" /><defs
     id="defs1" /><g
     inkscape:label="Layer 1"
     inkscape:groupmode="layer"
     id="layer1"
     transform="translate(-40.150855,-32.469788)"><path
       style="fill:#f2f2f2;fill-opacity:1"
       d="m 40.473526,210.11742 c 0.231098,-9.84871 -0.670755,-20.29693 2.117151,-29.61707 2.69151,-6.67246 6.758694,-13.96913 10.141676,-20.81579 3.133671,-7.48838 0.687664,5.50759 5.564688,-0.19641 7.272723,-2.50531 14.759247,-6.49814 22.652067,-4.80614 7.63547,-1.4859 15.13839,-4.49715 22.999802,-3.17853 6.31172,-5.55842 5.5959,-15.38454 9.0293,-22.73737 2.17414,-5.83909 2.46713,-12.88599 6.33501,-17.60607 -15.03017,-4.6851 -33.107002,-6.62733 -42.955812,-20.484976 -5.89897,-7.547297 -9.695457,-16.425988 -11.282916,-25.857973 -1.97155,-10.878882 -5.147734,-21.665549 -7.510216,-32.347303 5.025739,6.433896 5.493721,15.355101 8.520967,22.836114 2.000347,8.511225 3.13781,17.902078 8.496235,25.049941 3.26528,-8.671848 1.09411,8.462044 5.86919,9.799607 5.28555,6.054924 12.89383,10.07169 20.702892,11.55165 -4.560862,-5.949186 -9.729062,-12.335071 -11.258672,-19.864159 5.83643,9.042703 -1.03594,-8.224519 -2.17766,-11.431831 -2.55012,-7.611749 -5.46453,-15.099619 -7.937,-22.735787 6.75527,9.90888 9.75371,21.898772 14.51016,32.84699 1.76048,8.827911 5.729522,17.814081 14.476712,21.663177 5.49967,3.13692 21.61885,8.97661 15.86499,-3.303076 -2.04677,-5.63231 -9.45904,-16.185964 -8.86044,-18.67483 4.8009,8.447763 12.17989,15.73499 13.85608,25.652256 4.89363,7.31058 17.12987,-2.96503 8.82833,-9.436366 -2.06531,-3.03852 -8.97253,-14.408804 -2.78958,-6.285812 3.98674,5.450012 12.77298,13.893478 5.12682,20.027238 -5.60794,7.63771 9.13061,10.59117 13.77559,14.41335 4.48642,5.66939 21.05802,6.55346 14.58459,16.19609 -4.96081,8.49824 -16.86461,4.26404 -24.42733,9.595 -4.46294,6.92762 -1.87338,16.16104 -5.42914,23.74205 -1.11841,8.30818 -9.69093,13.81343 -9.34553,22.12121 -0.1786,7.68482 -2.76802,15.18531 -7.05606,21.56928 -1.8502,3.82257 2.06799,13.69661 -4.60159,12.27879 -4.87951,-0.0768 -9.95436,0.46324 -14.39978,-1.05202 -4.658662,-3.272 -3.62429,3.008 -8.858052,1.05202 -2.31504,-0.61034 -6.83367,1.31831 -7.55159,-1.13224 0.6434,-7.68919 -7.5937,-9.16257 -8.69081,-1.15516 -2.53253,4.17168 -13.545281,2.37898 -15.774612,1.30649 4.523015,-4.98739 -2.170654,-17.31965 -4.707071,-6.36498 -0.615272,8.07111 -7.093616,7.94398 -13.359841,7.34589 -3.690524,0.74569 -5.51246,-0.36942 -4.544162,-4.26313 0.02187,-5.23337 0.04374,-10.46675 0.06561,-15.70012 z"
       id="path1" /><path
       style="font-size:147.068px;line-height:1.25;font-family:Interstate;-inkscape-font-specification:'Interstate, Normal';letter-spacing:0px;word-spacing:0px;fill:#f6f6f6;stroke-width:0.76598"
       d="m 294.4044,122.05103 c 0,-37.649408 -21.76606,-51.473799 -51.17966,-51.473799 H 211.01685 V 173.52483 h 30.73721 c 26.47224,0 52.65034,-15.29508 52.65034,-51.4738 z m -21.17779,0 c 0,18.8247 -9.85355,31.47255 -31.47255,31.47255 H 231.60637 V 90.578478 h 10.88303 c 21.76606,0 30.73721,10.441832 30.73721,31.472552 z m 101.32968,12.94198 c 0,-22.0602 -11.91251,-40.296628 -32.50203,-40.296628 -19.56004,0 -34.41391,16.618678 -34.41391,40.296628 0,24.41329 14.11853,40.14956 36.32579,40.14956 10.29476,0 21.47193,-4.5591 27.64879,-12.50078 l -14.41267,-12.05957 c -2.94136,3.38256 -7.64753,5.44151 -13.23612,5.44151 -7.3534,0 -15.148,-3.97083 -15.88334,-14.55973 h 46.17935 c 0.14707,-1.47068 0.29414,-3.52963 0.29414,-6.47099 z m -19.70712,-8.82408 h -26.47223 c 0.73534,-7.7946 5.29444,-13.82439 12.64784,-13.82439 9.11822,0 13.23612,6.9122 13.82439,13.82439 z m 98.82943,8.82408 c 0,-22.0602 -11.91251,-40.296628 -32.50203,-40.296628 -19.56004,0 -34.41391,16.618678 -34.41391,40.296628 0,24.41329 14.11853,40.14956 36.3258,40.14956 10.29476,0 21.47192,-4.5591 27.64878,-12.50078 l -14.41266,-12.05957 c -2.94136,3.38256 -7.64754,5.44151 -13.23612,5.44151 -7.3534,0 -15.14801,-3.97083 -15.88335,-14.55973 h 46.17935 c 0.14707,-1.47068 0.29414,-3.52963 0.29414,-6.47099 z m -19.70711,-8.82408 h -26.47224 c 0.73534,-7.7946 5.29445,-13.82439 12.64785,-13.82439 9.11821,0 13.23612,6.9122 13.82439,13.82439 z m 86.32865,-26.03103 c -2.64723,-2.794294 -7.64754,-5.441518 -14.2656,-5.441518 -7.20633,0 -12.35371,3.088428 -15.88334,6.765128 v -5.14738 h -20.29539 v 77.2107 h 20.29539 v -41.76731 c 0,-13.38319 5.14738,-16.76576 13.08905,-16.76576 4.55911,0 8.52994,2.05896 11.76544,5.00032 z M 687.81037,70.577231 h -21.1778 l -8.97114,50.150189 c -0.88241,4.85324 -2.05896,12.64784 -2.50016,16.91282 -0.73534,-4.26498 -2.35309,-11.91251 -3.52963,-16.91282 L 639.425,70.577231 h -17.9423 l -12.05958,50.150189 c -1.17654,5.00031 -2.79429,12.64784 -3.52963,16.91282 -0.4412,-4.26498 -1.61775,-11.91251 -2.50015,-16.91282 l -8.97115,-50.150189 h -21.47193 l 21.47193,102.947599 h 19.26591 l 12.94198,-52.94448 c 1.47068,-6.02979 2.94136,-13.82439 3.38256,-17.64816 0.58828,3.82377 2.05896,11.4713 3.52964,17.64816 l 12.64784,52.94448 h 20.14832 z m 38.23743,7.794603 c 0,-6.323923 -5.29445,-11.618371 -11.61837,-11.618371 -6.32393,0 -11.61837,5.294448 -11.61837,11.618371 0,6.323924 5.29444,11.618372 11.61837,11.618372 6.32392,0 11.61837,-5.294448 11.61837,-11.618372 z m -1.47068,95.152996 v -77.2107 h -20.29538 v 77.2107 z m 41.47308,0 V 66.312259 l -20.29538,10.147692 v 97.064879 z m 83.09339,0 V 66.312259 l -20.29538,10.147692 v 24.266219 c -3.6767,-3.382564 -9.55942,-6.029788 -16.32455,-6.029788 -19.11884,0 -30.00187,16.177478 -30.00187,39.267158 0,28.82532 13.53025,41.17903 30.00187,41.17903 7.3534,0 12.50078,-3.08842 16.32455,-6.47099 v 4.85325 z m -20.29538,-23.97209 c -2.94136,3.82377 -6.17686,6.47099 -12.50078,6.47099 -7.94167,0 -13.23612,-6.61805 -13.23612,-22.5014 0,-12.94198 4.26497,-19.70711 12.05957,-19.70711 5.88272,0 10.5889,2.35309 13.67733,6.61806 z M 935.7664,135.87542 c 0,-28.82533 -13.53025,-41.179038 -30.00187,-41.179038 -7.3534,0 -12.50078,3.088428 -16.32455,6.470988 V 66.312259 L 869.1446,76.459951 v 97.064879 h 20.29538 v -4.41204 c 3.6767,3.38256 9.55942,6.02978 16.32455,6.02978 19.11884,0 30.00187,-16.17748 30.00187,-39.26715 z m -20.58952,0.4412 c 0,12.94199 -4.26497,19.70711 -12.05957,19.70711 -5.88272,0 -10.5889,-2.35308 -13.67733,-6.61805 v -29.11947 c 2.94136,-3.82377 6.17686,-6.47099 12.50078,-6.47099 7.94168,0 13.23612,6.61806 13.23612,22.5014 z m 102.50612,-1.32361 c 0,-23.67795 -14.8538,-40.296628 -35.00214,-40.296628 -20.14832,0 -34.85512,16.618678 -34.85512,40.296628 0,23.67795 14.7068,40.14956 34.85512,40.14956 20.14834,0 35.00214,-16.47161 35.00214,-40.14956 z m -20.58948,0 c 0,10.73597 -4.70617,20.58952 -14.41266,20.58952 -9.70649,0 -14.2656,-8.67701 -14.2656,-20.58952 0,-11.91251 4.55911,-20.73659 14.2656,-20.73659 9.70649,0 14.41266,8.97115 14.41266,20.73659 z m 102.21198,0 c 0,-23.67795 -14.8538,-40.296628 -35.0021,-40.296628 -20.1484,0 -34.8552,16.618678 -34.8552,40.296628 0,23.67795 14.7068,40.14956 34.8552,40.14956 20.1483,0 35.0021,-16.47161 35.0021,-40.14956 z m -20.5895,0 c 0,10.73597 -4.7062,20.58952 -14.4126,20.58952 -9.7065,0 -14.2656,-8.67701 -14.2656,-20.58952 0,-11.91251 4.5591,-20.73659 14.2656,-20.73659 9.7064,0 14.4126,8.97115 14.4126,20.73659 z m 103.3886,38.53182 -22.2073,-52.65035 19.8542,-24.56035 h -23.9721 l -12.5008,16.17748 c -2.6472,3.38256 -6.1768,8.23581 -8.2358,11.32423 0.1471,-3.82376 0.2942,-11.76544 0.2942,-16.47161 V 66.312259 l -20.2954,10.147692 v 97.064879 h 20.2954 v -23.38381 l 9.8535,-12.20665 14.7068,35.59046 z"
       id="text1"
       transform="scale(0.89496903,1.1173571)"
       aria-label="Deer Wildbook" /></g></svg>
