<?xml version="1.0" encoding="UTF-8" standalone="no"?>
<!-- Created with Inkscape (http://www.inkscape.org/) -->

<svg
   xmlns:dc="http://purl.org/dc/elements/1.1/"
   xmlns:cc="http://creativecommons.org/ns#"
   xmlns:rdf="http://www.w3.org/1999/02/22-rdf-syntax-ns#"
   xmlns:svg="http://www.w3.org/2000/svg"
   xmlns="http://www.w3.org/2000/svg"
   xmlns:sodipodi="http://sodipodi.sourceforge.net/DTD/sodipodi-0.dtd"
   xmlns:inkscape="http://www.inkscape.org/namespaces/inkscape"
   width="192.53333mm"
   height="192.81238mm"
   viewBox="0 0 682.2047 683.19346"
   id="svg2"
   version="1.1"
   inkscape:version="0.91 r13725"
   sodipodi:docname="drawing.svg">
  <defs
     id="defs4">
    <clipPath
       id="clipPath4189"
       clipPathUnits="userSpaceOnUse">
      <path
         inkscape:connector-curvature="0"
         id="path4191"
         d="m 0.059998,546.555 545.764002,0 0,-546.555 -545.764002,0 0,546.555 z" />
    </clipPath>
    <clipPath
       id="clipPath4221"
       clipPathUnits="userSpaceOnUse">
      <path
         inkscape:connector-curvature="0"
         id="path4223"
         d="m 0.059998,546.555 545.764002,0 0,-546.555 -545.764002,0 0,546.555 z" />
    </clipPath>
    <clipPath
       id="clipPath4245"
       clipPathUnits="userSpaceOnUse">
      <path
         inkscape:connector-curvature="0"
         id="path4247"
         d="m 0.059998,546.555 545.764002,0 0,-546.555 -545.764002,0 0,546.555 z" />
    </clipPath>
  </defs>
  <sodipodi:namedview
     id="base"
     pagecolor="#ffffff"
     bordercolor="#666666"
     borderopacity="1.0"
     inkscape:pageopacity="0.0"
     inkscape:pageshadow="2"
     inkscape:zoom="0.35"
     inkscape:cx="-153.89765"
     inkscape:cy="310.16817"
     inkscape:document-units="px"
     inkscape:current-layer="layer1"
     showgrid="false"
     inkscape:window-width="1920"
     inkscape:window-height="1027"
     inkscape:window-x="0"
     inkscape:window-y="0"
     inkscape:window-maximized="1"
     fit-margin-top="0"
     fit-margin-left="0"
     fit-margin-right="0"
     fit-margin-bottom="0" />
  <metadata
     id="metadata7">
    <rdf:RDF>
      <cc:Work
         rdf:about="">
        <dc:format>image/svg+xml</dc:format>
        <dc:type
           rdf:resource="http://purl.org/dc/dcmitype/StillImage" />
        <dc:title></dc:title>
      </cc:Work>
    </rdf:RDF>
  </metadata>
  <g
     inkscape:label="Layer 1"
     inkscape:groupmode="layer"
     id="layer1"
     transform="translate(-44.611936,-165.05119)">
    <g
       transform="matrix(1.25,0,0,-1.25,44.536939,848.24491)"
       inkscape:label="GS_Spot"
       id="g4179">
      <g
         transform="translate(351.382,349.7)"
         id="g4181">
        <path
           inkscape:connector-curvature="0"
           id="path4183"
           style="fill:#db5a26;fill-opacity:1;fill-rule:nonzero;stroke:none"
           d="m 0,0 c 5.443,10.124 9.713,20.956 13.636,31.8 5.04,13.927 8.327,27.813 -4.331,40.274 -4.355,4.288 -7.642,9.872 -10.635,15.295 -13.57,24.585 -34.807,30.041 -60.869,26.251 -12.821,-1.864 -26.01,-1.584 -39.032,-1.561 -5.022,0.009 -10.043,0.392 -15.065,0.846 -2.422,0.251 -41.042,4.204 -49.475,1.807 -8.708,-2.474 -33.379,1.879 -33.379,-11.182 0,-13.061 -2.027,-35.494 16.402,-43.506 1.124,-1.124 2.352,-2.02 3.694,-2.599 8.633,-3.727 12.268,-10.653 14.896,-19.395 1.64,-5.457 5.718,-12.133 10.487,-14.263 8.182,-3.652 13.735,-9.343 17.62,-16.356 8.939,-16.133 22.775,-21.05 40.002,-20.038 28.059,1.648 56.147,2.892 84.163,5.076 C -7.646,-7.22 -1.979,-3.682 0,0" />
      </g>
      <g
         id="g4185">
        <g
           clip-path="url(#clipPath4189)"
           id="g4187">
          <g
             transform="translate(544.846,302.677)"
             id="g4193">
            <path
               inkscape:connector-curvature="0"
               id="path4195"
               style="fill:#db5a26;fill-opacity:1;fill-rule:nonzero;stroke:none"
               d="m 0,0 c -3.866,42.066 -18.018,80.869 -41.071,117.292 -6.855,-4.144 -13.501,-7.141 -18.914,-11.627 -15.903,-13.178 -34.814,-18.396 -54.323,-23.12 -12.866,-3.116 -25.5,-7.819 -37.611,-13.218 -9.542,-4.254 -14.943,-17.405 -11.134,-26.046 4.064,-9.22 8.421,-18.976 15.121,-26.208 9.573,-10.334 20.649,-19.724 32.446,-27.432 13.819,-9.028 23.841,-20.46 32.159,-34.487 4.615,-7.782 11.854,-14.261 18.784,-20.332 5.052,-4.426 11.817,-6.832 17.296,-10.852 6.429,-4.716 12.465,-4.269 19.084,-0.804 7.224,3.78 14.943,6.707 21.816,11.012 3.082,1.931 6.471,6.257 6.568,9.588 C 0.77,-37.496 1.71,-18.606 0,0" />
          </g>
        </g>
      </g>
      <g
         transform="translate(235.698,26.822)"
         id="g4197">
        <path
           inkscape:connector-curvature="0"
           id="path4199"
           style="fill:#db5a26;fill-opacity:1;fill-rule:nonzero;stroke:none"
           d="m 0,0 c 27.657,-1.369 46.239,19.864 40.441,47.07 -3.255,15.272 -6.918,30.497 -11.412,45.438 -1.271,4.223 -5.542,8.237 -9.443,10.839 -9.181,6.123 -19.106,11.114 -28.477,16.967 -15.126,9.45 -30.123,19.111 -45.036,28.893 -16.981,11.138 -33.107,5.615 -49.159,-2.152 -3.166,-1.532 -5.458,-3.533 -6.966,-5.986 -8.158,1.744 -21.086,7.821 -2.102,-52.244 2.455,-23.545 4.844,-47.098 7.733,-70.59 0.431,-3.511 3.573,-8.011 6.712,-9.637 13.367,-6.929 27.119,-13.15 40.938,-19.152 3.177,-1.38 7.418,-1.872 10.748,-1.055 11.551,2.836 22.888,6.532 34.368,9.673 C -7.864,-0.899 -3.849,0.191 0,0" />
      </g>
      <g
         transform="translate(289.578,307.992)"
         id="g4201">
        <path
           inkscape:connector-curvature="0"
           id="path4203"
           style="fill:#db5a26;fill-opacity:1;fill-rule:nonzero;stroke:none"
           d="m 0,0 c -16.924,3.556 -33.691,4.777 -50.767,3.422 -4.946,0.593 -12.454,1.614 -21.293,3.223 -15.944,2.903 -10.139,9.433 -21.023,0 -10.884,-9.433 -11.61,-16.689 -13.787,-26.122 -2.176,-9.433 -5.805,-23.339 -7.982,-27.633 -2.176,-4.294 -1.451,-13.727 -9.433,-19.532 -7.981,-5.805 -15.369,-4.421 -13.127,-18.174 2.243,-13.753 1.083,-18.832 16.901,-21.009 12.979,-1.786 40.707,-17.731 63.471,-23.801 10.922,-5.692 22.243,-10.499 34.586,-13.095 7.137,-1.502 13.122,-0.587 19.231,3.741 5.475,3.879 11.757,6.755 17.952,9.459 14.729,6.428 26.274,16.619 28.6,32.587 3.971,27.264 5.895,54.83 8.474,82.288 0.563,5.991 -1.967,9.065 -8.817,9.557 C 28.598,-4.055 14.073,-2.958 0,0" />
      </g>
      <g
         transform="translate(131.218,234.413)"
         id="g4205">
        <path
           inkscape:connector-curvature="0"
           id="path4207"
           style="fill:#db5a26;fill-opacity:1;fill-rule:nonzero;stroke:none"
           d="m 0,0 c 2.507,2.305 5.803,4.556 6.863,7.507 11.127,30.943 15.851,63.946 30.299,93.894 1.545,3.201 0.188,8.394 -1.074,12.254 -5.467,16.732 -11.852,33.175 -16.969,50.007 -2.522,8.298 -7.658,12.472 -15.352,11.513 -12.55,-1.562 -24.965,-4.414 -37.328,-7.204 -10.533,-2.377 -15.576,-10.237 -19.195,-19.849 -2.233,-5.931 -5.283,-12.01 -9.48,-16.654 -9.462,-10.469 -17.457,-21.387 -21.996,-35.069 -1.802,-5.432 -6.606,-10.838 -11.489,-14.074 -9.949,-6.592 -13.18,-15.808 -14.22,-29.611 1.753,-5.817 4.083,-14.271 6.874,-22.57 2.138,-6.359 6.751,-9.81 13.697,-9.095 6.585,0.678 10.18,-2.747 13.855,-7.798 4.528,-6.226 9.856,-12.133 15.806,-16.994 7.235,-5.913 15.615,-10.399 23.241,-15.863 6.508,-4.662 11.519,-3.97 17.058,1.965 C -13.465,-11.272 -6.438,-5.921 0,0" />
      </g>
      <g
         transform="translate(425.797,136.226)"
         id="g4209">
        <path
           inkscape:connector-curvature="0"
           id="path4211"
           style="fill:#db5a26;fill-opacity:1;fill-rule:nonzero;stroke:none"
           d="m 0,0 c -18.312,8.14 -37.582,14.117 -56.415,21.096 -5.708,2.116 -12.163,3.412 -16.767,7.014 -5.781,4.521 -10.328,4.794 -16.116,0.96 -4.94,-3.272 -9.916,-6.861 -15.404,-8.867 -23,-8.406 -33.987,-40.537 -20.768,-61.301 3.789,-5.952 7.307,-12.151 10.217,-18.569 3.708,-8.181 9.721,-11.595 18.499,-12.784 27.278,-3.693 54.577,-7.448 81.645,-12.4 22.585,-4.131 34.642,4.966 33.896,25.765 -0.753,10.265 -1.081,18.817 -2.072,27.292 C 15.231,-19.095 12.811,-5.695 0,0" />
      </g>
      <g
         transform="translate(378.615,186.528)"
         id="g4213">
        <path
           inkscape:connector-curvature="0"
           id="path4215"
           style="fill:#db5a26;fill-opacity:1;fill-rule:nonzero;stroke:none"
           d="m 0,0 c 14.896,-9.408 29.583,-19.24 45.037,-27.645 23.253,-12.647 50.558,4.852 50.241,34.382 -1.325,25.19 -15.359,45.906 -38.957,59.319 -8.606,4.891 -16.004,10.313 -22.738,17.178 -3.987,4.064 -7.508,8.945 -12.228,11.85 -8.322,5.12 -17.204,9.487 -26.242,13.227 -5.01,2.074 -9.977,-0.301 -11.353,-5.899 C -22.278,77.846 -26.757,53.291 -19.433,27.944 -16.009,16.096 -10.344,6.533 0,0" />
      </g>
      <g
         id="g4217">
        <g
           clip-path="url(#clipPath4221)"
           id="g4219">
          <g
             transform="translate(91.97,183.49)"
             id="g4225">
            <path
               inkscape:connector-curvature="0"
               id="path4227"
               style="fill:#db5a26;fill-opacity:1;fill-rule:nonzero;stroke:none"
               d="m 0,0 c -0.833,3.59 -5.128,6.841 -8.52,9.286 -10.305,7.431 -21.062,14.231 -31.415,21.598 -5.403,3.844 -10.427,8.247 -15.444,12.603 -6.27,5.444 -12.4,11.053 -18.509,16.679 -5.204,4.793 -10.291,9.711 -15.43,14.574 -0.884,-0.856 -1.768,-1.712 -2.652,-2.568 6.706,-80.61 41.053,-146.547 103.773,-197.628 0,23.069 1.488,45.336 -0.444,67.303 C 9.637,-38.573 4.465,-19.248 0,0" />
          </g>
          <g
             transform="translate(248.09,482.545)"
             id="g4229">
            <path
               inkscape:connector-curvature="0"
               id="path4231"
               style="fill:#db5a26;fill-opacity:1;fill-rule:nonzero;stroke:none"
               d="M 0,0 C 17.785,-1.939 35.62,-3.415 53.422,-5.208 82.229,-8.11 91.186,-2.876 102.427,23.656 107.48,35.581 98.592,53.923 85.552,56.963 55.145,64.05 24.387,65.882 -5.131,62.048 -8.98,48.044 -12.431,35.62 -15.805,23.176 -18.967,11.519 -12.202,1.331 0,0" />
          </g>
        </g>
      </g>
      <g
         transform="translate(489.048,176.994)"
         id="g4233">
        <path
           inkscape:connector-curvature="0"
           id="path4235"
           style="fill:#db5a26;fill-opacity:1;fill-rule:nonzero;stroke:none"
           d="m 0,0 c -5.4,-10.338 -13.266,-19.427 -20.348,-28.832 -4.161,-5.526 -10.718,-9.268 -10.01,-17.844 0.933,-11.319 0.687,-22.735 1.56,-34.063 0.456,-5.919 2.222,-11.739 3.764,-19.443 41.619,41.776 66.918,89.28 78.38,147.281 C 47.116,43.573 43.452,40.868 39.355,39.286 20.371,31.961 9.123,17.465 0,0" />
      </g>
      <g
         transform="translate(21.276,341.389)"
         id="g4237">
        <path
           inkscape:connector-curvature="0"
           id="path4239"
           style="fill:#db5a26;fill-opacity:1;fill-rule:nonzero;stroke:none"
           d="m 0,0 c 2.159,2.579 3.779,5.617 5.578,8.489 9.736,15.544 20.576,30.528 28.875,46.807 9.172,17.989 19.635,32.041 42.395,29.853 2.234,-0.215 4.532,0.334 6.804,0.402 6.407,0.193 12.616,0.601 15.787,7.621 3.48,7.706 3.223,15.45 -2.245,21.643 -7.374,8.349 -15.819,15.752 -24.015,23.768 C 26.507,97.125 -2.86,47.179 -15.782,-12.364 c 0.882,-0.762 1.764,-1.523 2.646,-2.285 C -8.738,-9.782 -4.208,-5.026 0,0" />
      </g>
      <g
         id="g4241">
        <g
           clip-path="url(#clipPath4245)"
           id="g4243">
          <g
             transform="translate(365.831,40.191)"
             id="g4249">
            <path
               inkscape:connector-curvature="0"
               id="path4251"
               style="fill:#db5a26;fill-opacity:1;fill-rule:nonzero;stroke:none"
               d="M 0,0 C -18.211,2.726 -36.638,3.982 -54.932,6.199 -61.345,6.976 -66.2,6.04 -70.711,0.646 c -7.973,-9.536 -17.607,-16.561 -30.757,-18.203 -7.521,-0.938 -14.868,-3.755 -22.122,-6.225 -8.339,-2.839 -16.49,-6.23 -24.723,-9.381 63.743,-14.61 123.909,-6.163 181.236,22.752 -0.035,0.768 -0.071,1.537 -0.106,2.306 C 21.888,-5.335 11.095,-1.66 0,0" />
          </g>
        </g>
      </g>
      <g
         transform="translate(166.875,472.768)"
         id="g4253">
        <path
           inkscape:connector-curvature="0"
           id="path4255"
           style="fill:#db5a26;fill-opacity:1;fill-rule:nonzero;stroke:none"
           d="M 0,0 C 5.162,1.951 10.959,2.993 16.48,3.057 28.459,3.194 33.12,5.179 34.301,17.184 35.778,32.209 34.656,47.491 34.656,64.07 2.789,55.009 -24.68,42.259 -50.412,24.131 c 3.284,-4.857 5.738,-8.99 8.678,-12.743 C -29.632,-4.06 -18.198,-6.877 0,0" />
      </g>
      <g
         transform="translate(380.311,431.55)"
         id="g4257">
        <path
           inkscape:connector-curvature="0"
           id="path4259"
           style="fill:#db5a26;fill-opacity:1;fill-rule:nonzero;stroke:none"
           d="m 0,0 c 0.001,-7.853 2.187,-25.353 14.265,-28.194 0.022,-0.005 0.046,-0.007 0.067,-0.012 5.495,-2.223 14.185,-1.829 19.995,0.012 6.482,2.054 40.519,10.564 54.701,19.928 0,0 30.811,10.84 14.147,24.501 -0.04,0.033 -0.082,0.062 -0.123,0.095 C 75.43,49.227 42.209,74.344 2.912,91.663 L 2.871,91.71 c 0,0 -13.817,8.14 -16.209,6.645 -2.392,-1.495 -10.164,-2.989 -6.278,-14.051 3.886,-11.061 5.565,-17.495 3.588,-21.524 -1.181,-2.404 -3.091,-3.753 -4.155,-5.654 -1.213,-0.979 -2.24,-1.974 -3.053,-2.974 -3.572,-2.375 -5.376,-5.256 -5.12,-9.079 0.548,-8.155 10.665,-19.425 17.54,-28.472 C -3.941,7.554 -11.374,18.955 0,0" />
      </g>
    </g>
  </g>
</svg>
