<?xml version="1.0" encoding="UTF-8" standalone="no"?>
<!-- Created with Inkscape (http://www.inkscape.org/) -->

<svg
   xmlns:dc="http://purl.org/dc/elements/1.1/"
   xmlns:cc="http://creativecommons.org/ns#"
   xmlns:rdf="http://www.w3.org/1999/02/22-rdf-syntax-ns#"
   xmlns:svg="http://www.w3.org/2000/svg"
   xmlns="http://www.w3.org/2000/svg"
   xmlns:sodipodi="http://sodipodi.sourceforge.net/DTD/sodipodi-0.dtd"
   xmlns:inkscape="http://www.inkscape.org/namespaces/inkscape"
   id="svg3458"
   version="1.1"
   inkscape:version="0.91 r13725"
   width="1795.3116"
   height="2109.812"
   viewBox="0 0 1795.3116 2109.812"
   sodipodi:docname="gcf-logo.svg">
  <metadata
     id="metadata3464">
    <rdf:RDF>
      <cc:Work
         rdf:about="">
        <dc:format>image/svg+xml</dc:format>
        <dc:type
           rdf:resource="http://purl.org/dc/dcmitype/StillImage" />
        <dc:title></dc:title>
      </cc:Work>
    </rdf:RDF>
  </metadata>
  <defs
     id="defs3462" />
  <sodipodi:namedview
     pagecolor="#ffffff"
     bordercolor="#666666"
     borderopacity="1"
     objecttolerance="10"
     gridtolerance="10"
     guidetolerance="10"
     inkscape:pageopacity="0"
     inkscape:pageshadow="2"
     inkscape:window-width="867"
     inkscape:window-height="573"
     id="namedview3460"
     showgrid="false"
     fit-margin-top="0"
     fit-margin-left="0"
     fit-margin-right="0"
     fit-margin-bottom="0"
     inkscape:zoom="0.11168954"
     inkscape:cx="889.90372"
     inkscape:cy="1055.3908"
     inkscape:window-x="332"
     inkscape:window-y="80"
     inkscape:window-maximized="0"
     inkscape:current-layer="svg3458" />
  <path
     style="fill:#DB5A26"
     d="m 47.357161,2108.9858 c -9.452,-1.2356 -14.9793,-6.0301 -23.7618,-20.6114 -13.5404,-22.4804 -22.3491002,-41.2913 -23.35880019,-49.8822 -0.9715,-8.2657 0.86669999,-13.9833 8.93899999,-27.8039 9.3388002,-15.989 16.0990002,-30.9762 29.6652002,-65.7672 5.8978,-15.125 17.8289,-44.6 26.5136,-65.5 32.629001,-78.5228 50.376699,-115.6547 74.649399,-156.1825 15.9055,-26.557 17.7148,-32.6733 18.8788,-63.8175 1.1089,-29.6738 3.6201,-39.004 15.2841,-56.7881 6.5913,-10.0497 11.4258,-15.4561 33.2755,-37.2119 17.8445,-17.7678 27.2859,-28.5133 39.1914,-44.6046 24.481,-33.088 41.2483,-69.3688 49.7028,-107.5464 1.4432,-6.5169 7.8142,-27.824 14.1577,-47.349 9.7203,-29.9182 83.5793,-252.7292 85.147,-256.8633 0.6917,-1.8241 -3.9505,-1.0423 -23.593,3.9736 -29.853,7.6232 -62.3541,19.3302 -123.1909,44.3739 -18.975,7.8111 -36.3,14.7777 -38.5,15.4813 -2.2,0.7036 -10.75,3.8659 -19,7.0272 -18.5953,7.1256 -23.8847,8.662 -36.2253,10.5221 -21.5502,3.2484 -58.451698,0.9423 -90.774699,-5.6727 -10.0679,-2.0604 -33.2541,-9.1961 -34.7536,-10.6957 -0.4436,-0.4436 10.5694,-7.7365 24.4735,-16.2065 l 25.2801,-15.3999 31.999999,-6.3484 32,-6.3484 56,-0.1801 56,-0.1801 12,-3.1765 c 16.5137,-4.3712 42.792,-13.5155 56,-19.4867 19.3902,-8.7662 35.3312,-13.4519 66.2399,-19.4706 l 14.24,-2.7728 1.6058,-4.8347 c 1.8673,-5.6219 8.9153,-13.6559 20.2864,-23.1245 9.7429,-8.1129 18.9552,-14.0294 32.0807,-20.6035 22.4281,-11.2335 46.2103,-25.2792 77.365,-45.6913 22.2104,-14.55194 39.6008,-24.95999 60.1822,-36.01858 8.25,-4.43281 24.4153,-13.11872 35.9229,-19.30202 36.0974,-19.39588 47.1942,-26.9816 58.4836,-39.97922 19.8153,-22.81359 28.0975,-45.8857 30.1615,-84.02256 0.5805,-10.725 1.6659,-22.47765 2.4121,-26.11701 1.6843,-8.21414 6.0477,-16.99485 12.2133,-24.57713 14.7997,-18.20018 48.5439,-54.62975 74.8495,-80.80586 23.6749,-23.55844 32.7296,-33.32814 42.1701,-45.5 6.612,-8.525 16.1564,-20.45 21.2097,-26.5 10.2252,-12.24189 15.1965,-19.47174 23.0346,-33.5 8.62,-15.42766 13.5219,-22.47502 21.3666,-30.71856 7.8525,-8.25161 9.3838,-10.6565 12.1239,-19.04037 2.056,-6.29067 5.086,-10.79762 20.9785,-31.20428 17.8306,-22.89518 20.3506,-26.47306 44.04726,-62.53679 29.00228,-44.13836 32.83368,-49.78975 49.15298,-72.5 7.7068,-10.725 21.8272,-30.525 31.3787,-44 20.3694,-28.73678 37.132,-51.1708 49.6885,-66.5 28.2316,-34.46563 63.5148,-67.37355 103.4372,-96.47381 16.8523,-12.28392 25.4369,-17.35826 39.1701,-23.15326 16.8481,-7.1094 20.7797,-12.19689 21.5127,-27.837865 0.3137,-6.695014 -0.093,-12.194244 -1.3901,-18.791044 -1.6449,-8.36579 -1.6839,-9.75017 -0.3787,-13.44447 2.41,-6.82137 5.3477,-8.24658 17.7747,-8.62337 13.1563,-0.3989 23.032,1.49263 32.7409,6.27092 6.8324,3.36261 11.7481,7.80987 21.1757,19.15746 l 3.2364,3.89544 4.1299,-4.5 c 6.0402,-6.58154 9.8769,-13.7594 9.888,-18.49909 0.01,-2.86517 -1.7628,-7.68544 -6.2406,-17 -5.8332,-12.134 -6.25,-13.46767 -6.25,-20.00091 0,-5.80084 0.4616,-7.78521 2.6947,-11.58364 6.0492,-10.2897801 15.5565,-15.97427011 27.944,-16.70799011 15.8378,-0.93809 28.2711,3.25178001 34.3052,11.56049011 5.8729,8.08672 7.0361,13.43546 7.1182,32.73114 0.1208,28.39708 4.3891,42.2601 14.689,47.70774 3.7682,1.993 6.1722,2.30871 21.2489,2.79043 15.7172,0.50219 17.4341,0.74505 22.7526,3.218394 8.41,3.910955 15.8937,11.605085 25.5647,26.283435 13.8393,21.00475 30.2151,44.20539 51.1137,72.41566 18.3191,24.72847 20.1119,26.81572 28.069,32.67928 6.179,4.55331 9.3583,7.71647 11.6434,11.58434 11.7108,19.82213 17.0581,46.72846 14.5583,73.25336 -1.2887,13.67471 -2.7196,18.41582 -6.3186,20.93667 -4.5115,3.16001 -8.9606,2.10341 -25.1456,-5.97176 -34.0814,-17.00426 -52.4376,-27.44572 -60.9505,-34.67018 -16.7267,-14.19513 -24.3227,-15.98932 -68.787,-16.24757 -29.6647,-0.1723 -33.1597,-0.37285 -40.0618,-2.29876 -9.7816,-2.72937 -20.2677,-7.21977 -31.0379,-13.29117 -9.8338,-5.54352 -19.3743,-8.39873 -24.7156,-7.3967 -6.6144,1.24087 -12.9681,5.40511 -24.0063,15.73392 -7.8675,7.36177 -13.6985,11.80621 -20.5766,15.68367 -17.3469,9.77909 -24.0745,16.82558 -43.9791,46.06374 -33.3285,48.95648 -47.7231,77.29593 -85.0921,167.5255 -15.7523,38.03485 -31.9171,79.72609 -36.8339,95 -4.4472,13.8154 -7.157,24.57536 -14.1029,56 -10.0844,45.62396 -21.016,81.26895 -38.7828,126.45987 -13.9591,35.50582 -24.425,63.95589 -35.146,95.54013 l -9.165,27 0.1128,20 c 0.088,15.52786 0.4555,20.80992 1.6455,23.62205 2.4995,5.90668 22.7407,22.95108 39.6506,33.38824 12.597,7.77517 21.5913,15.69716 29.0298,25.56889 9.6648,12.826 16.1094,26.9789 18.6336,40.9208 2.8523,15.7536 1.3329,46.9574 -3.5178,72.2483 -6.8236,35.5766 -6.0445,40.3291 10.9411,66.7448 3.9413,6.1295 10.0704,16.9355 13.6202,24.0132 3.5498,7.0778 8.5424,15.7093 11.0948,19.1812 13.4395,18.2816 31.4916,31.7946 56.2894,42.1361 15.5133,6.4695 73.8136,25.1224 88.1052,28.1887 22.4231,4.811 28.3217,6.4463 34.5136,9.5685 18.3997,9.2776 33.5388,30.113 39.9984,55.0482 1.2666,4.8895 1.758,12.7429 2.113,33.7719 0.6045,35.8104 0.5886,35.9208 -6.4115,44.6378 -7.7538,9.6558 -9.76,14.3633 -9.7849,22.9613 -0.017,5.8943 0.4437,7.8394 2.917,12.3145 3.4174,6.1831 84.5715,95.1209 142.0375,155.6606 56.4551,59.4748 71.874,73.4456 101.0117,91.5249 18.3395,11.3793 29.3713,19.9659 52,40.474 9.7431,8.8301 35.2536,30.8201 82,70.6837 28.4833,24.2896 28.9545,24.776 28.9545,29.8877 0,8.052 -5.7403,10.9398 -30.9545,15.5725 -19.7245,3.624 -73.0224,2.1829 -81.6355,-2.2075 -3.9365,-2.0065 -9.8808,-9.2268 -14.3723,-17.4574 -7.293,-13.3646 -16.434,-23.3319 -25.7621,-28.0907 -2.1061,-1.0745 -7.7445,-3.3347 -12.5297,-5.0227 -4.7852,-1.688 -11.1754,-4.6694 -14.2004,-6.6254 -6.8978,-4.4602 -21.7208,-19.3632 -52.9297,-53.2154 -29.6016,-32.1088 -24.527,-26.7706 -110.883,-116.6428 -71.7346,-74.6555 -73.0111,-75.8616 -74.6108,-70.498 -1.7854,5.9862 -2.7634,21.2629 -4.5866,71.642 -1.1345,31.35 -2.4898,59.9688 -3.0117,63.5973 -3.0369,21.1131 -13.3841,37.1113 -32.1499,49.7082 -4.2194,2.8323 -12.7694,9.3597 -19,14.5052 -21.6133,17.8493 -84.6836,61.1963 -90.6772,62.3207 -4.377,0.8212 -7.8575,-0.9645 -10.4147,-5.3431 -1.5275,-2.6154 -2.0506,-6.7633 -2.8994,-22.9897 -1.4302,-27.3398 -0.7631,-40.9195 2.4358,-49.5846 3.0315,-8.2119 6.7891,-13.8235 12.1846,-18.1964 8.8562,-7.1777 17.5723,-10.0186 37.0426,-12.0734 27.6779,-2.921 28.8601,-3.9286 33.9599,-28.9442 1.4576,-7.15 5.3025,-24.925 8.5441,-39.5 6.8942,-30.9974 9.4357,-44.7931 11.4469,-62.136 2.1458,-18.5037 2.8996,-44.4919 1.7265,-59.5234 -0.8644,-11.0759 -1.4661,-14.0561 -3.8001,-18.8227 -3.3855,-6.9141 -13.9272,-19.6447 -30.952,-37.379 -16.3777,-17.0602 -29.961,-28.9471 -71.4077,-62.4896 -49.7801,-40.2867 -59.1147,-48.4919 -86.6608,-76.1755 -30.3686,-30.5201 -37.7211,-35.9686 -58.3568,-43.2438 -21.0432,-7.419 -41.7652,-8.6922 -64.1427,-3.9412 -14.64768,3.1099 -33.93964,5.0386 -41.85724,4.1846 -3.025,-0.3262 -11.35,-1.3019 -18.5,-2.1681 -22.9464,-2.7798 -49.6307,-0.6163 -76.5444,6.206 -5.5185,1.3988 -19.3536,5.4829 -30.7446,9.0757 -24.9322,7.8638 -31.1519,9.3598 -60.211,14.4826 -34.5177,6.0851 -44.899,9.5822 -58.6924,19.771 -3.4059,2.5158 -9.93,6.1728 -14.4981,8.1266 l -8.3056,3.5524 -5.0662,19.4902 c -18.4032,70.7982 -44.2747,140.7663 -83.7761,226.5679 -16.7288,36.3367 -18.5385,43.036 -19.3537,71.6441 -0.7926,27.8139 1.5496,44.548 9.4164,67.2782 7.0949,20.4998 15.0472,35.4651 43.5734,82 23.2051,37.8544 31.5555,50.2241 67.8908,100.5672 16.8284,23.316 30.0229,42.6232 32.2828,47.2386 7.6712,15.6667 21.2789,27.1212 48.1511,40.5319 28.1843,14.0655 42.6736,24.2016 58.1167,40.6561 9.3275,9.9384 12.2609,14.4202 12.2609,18.733 0,5.0315 -8.1356,9.3709 -19.6053,10.4572 -6.7773,0.6418 -38.0752,-1.0365 -60.3228,-3.2349 -36.1441,-3.5715 -36.1991,-3.6053 -63.3186,-38.8607 -23.1207,-30.0569 -60.3462,-79.7146 -79.9376,-106.6343 -16.5997,-22.809 -24.205,-34.1683 -38.8017,-57.9541 -15.3802,-25.0626 -22.9862,-36.3164 -38.8621,-57.5 -21.9746,-29.3213 -59.4158,-75.5403 -73.5495,-90.7928 -19.6811,-21.2389 -23.3158,-25.9132 -25.2063,-32.4163 -2.9949,-10.3022 -2.0709,-13.7501 24.3296,-90.7909 21.4263,-62.5254 21.974,-76.772 5.4597,-142 l -4.8104,-19 -3.5535,0 c -3.3799,0 -4.5964,1.1728 -24.8939,24 -11.7372,13.2 -36.9008,39.75 -55.9191,59 -33.8114,34.2233 -50.0433,51.4417 -88.6143,94 -10.4678,11.55 -31.1043,34.275 -45.8587,50.5 -43.6261,47.9742 -59.8955,67.3221 -69.1049,82.1809 -13.2429,21.3666 -62.3144,115.9115 -73.8677,142.3191 -2.6468,6.05 -11.2447,26.975 -19.1063,46.5 -7.861698,19.525 -15.930099,39.4391 -17.929799,44.2535 -9.7924,23.5754 -8.3943,44.2051 4.648701,68.5932 5.9475,11.1207 8.277398,17.5779 10.367798,28.7337 1.4994,8.0018 1.4824,8.4488 -0.4657,12.2675 -4.097498,8.0316 -4.590898,8.1705 -28.462499,8.0113 -11.6133,-0.077 -23.3651,-0.4349 -26.1151,-0.7945 z M 1329.4261,1418.6711 c -1.8318,-13.9655 -6.8223,-27.5521 -12.4922,-34.0098 -4.9482,-5.6356 -13.8385,-9.4911 -24.9096,-10.8025 -5.133,-0.608 -9.5526,-0.8857 -9.8213,-0.6169 -0.4165,0.4164 46.466,50.3056 47.5329,50.5813 0.2084,0.054 0.069,-2.2646 -0.3098,-5.1521 z"
     id="path3468"
     inkscape:connector-curvature="0" />
</svg>
