<?xml version="1.0" standalone="no"?>
<!DOCTYPE svg PUBLIC "-//W3C//DTD SVG 20010904//EN"
 "http://www.w3.org/TR/2001/REC-SVG-20010904/DTD/svg10.dtd">
<svg version="1.0" xmlns="http://www.w3.org/2000/svg"
 width="400.000000pt" height="684.000000pt" viewBox="0 0 400.000000 684.000000"
 preserveAspectRatio="xMidYMid meet">
<metadata>
Created by potrace 1.13, written by Peter Selinger 2001-2015
</metadata>
<g transform="translate(0.000000,684.000000) scale(0.100000,-0.100000)"
fill="#00669A" stroke="none">
<path d="M3333 6785 c-16 -11 -21 -29 -26 -99 -8 -101 -13 -117 -35 -109 -35
12 -62 48 -82 109 -26 77 -59 109 -105 100 -68 -14 -74 -79 -15 -176 25 -42
41 -81 43 -105 3 -56 -25 -67 -184 -75 -169 -7 -205 -31 -165 -108 32 -62 104
-102 219 -123 l69 -13 -6 -35 c-3 -20 -10 -88 -16 -151 -48 -525 -143 -951
-263 -1185 -63 -122 -160 -212 -396 -370 -198 -133 -308 -228 -366 -315 -131
-198 -195 -260 -350 -337 -127 -64 -199 -89 -370 -128 -200 -45 -267 -75 -350
-158 -102 -102 -158 -236 -214 -508 -61 -298 -93 -338 -397 -509 -187 -104
-280 -190 -310 -283 -24 -77 -11 -127 58 -219 28 -38 60 -97 72 -131 33 -96
57 -92 125 23 68 114 67 161 -4 265 -25 36 -45 73 -45 84 0 32 44 84 115 138
74 56 389 222 400 211 4 -4 14 -51 22 -105 22 -145 7 -299 -44 -458 -36 -115
-134 -309 -192 -385 -94 -121 -103 -137 -110 -197 -4 -32 -19 -85 -33 -118
-24 -57 -26 -73 -31 -295 -8 -331 -32 -445 -117 -555 l-41 -53 3 -99 c3 -98 3
-99 -30 -141 l-34 -42 186 0 186 0 -35 51 c-40 58 -42 73 -19 150 12 40 15 75
10 139 -4 57 -1 116 9 180 8 52 22 165 30 250 21 209 30 253 75 335 21 39 50
106 65 149 31 92 54 132 122 206 27 30 83 96 125 145 130 153 497 496 531 495
34 -1 119 -156 166 -302 61 -193 61 -270 0 -449 -30 -88 -38 -175 -20 -221 5
-13 35 -55 66 -93 32 -39 67 -90 77 -115 11 -25 40 -88 64 -141 63 -136 59
-156 -41 -237 -76 -61 -87 -82 -79 -154 9 -83 -1 -117 -52 -178 l-46 -55 6
-68 c2 -37 8 -72 11 -77 4 -6 72 -10 171 -10 l166 0 -25 29 c-52 63 -60 211
-16 305 12 25 25 46 29 46 9 0 33 -57 49 -116 6 -23 22 -57 35 -76 l24 -36
-29 -71 c-16 -40 -29 -74 -29 -77 0 -2 102 -4 226 -4 l225 0 -7 23 c-18 58
-47 97 -96 130 -61 40 -105 82 -112 106 -2 9 -7 41 -11 71 -6 58 -18 83 -103
205 -28 42 -55 87 -58 100 -4 17 8 51 38 112 24 48 64 138 88 198 58 149 149
336 201 415 77 118 102 184 106 275 19 476 33 603 77 708 28 69 38 53 118
-188 108 -329 111 -342 112 -525 l2 -165 45 -85 c50 -92 68 -150 98 -310 11
-58 32 -161 46 -230 29 -140 34 -237 15 -325 -7 -33 -13 -99 -14 -147 -1 -87
-1 -87 35 -125 71 -74 76 -116 25 -192 l-35 -51 260 0 c238 0 298 6 239 25
-24 7 -160 144 -197 198 -22 31 -29 56 -34 116 -6 58 -17 98 -49 169 -23 52
-48 128 -56 170 -7 43 -29 163 -49 267 -63 345 -66 380 -34 536 27 132 22 180
-32 305 -43 97 -44 101 -43 209 0 71 8 156 23 240 18 103 22 150 17 225 -10
158 1 200 138 531 97 234 99 344 11 479 -84 129 -81 222 20 550 156 507 190
739 202 1383 l6 367 35 0 c19 0 71 16 115 36 97 44 135 43 249 -10 138 -65
194 -45 192 68 -1 90 -28 132 -131 200 -77 51 -183 236 -183 319 0 22 -5 69
-11 104 -14 82 -34 84 -104 8 -55 -60 -84 -69 -109 -33 -12 17 -14 38 -10 92
4 52 2 75 -8 87 -19 24 -61 31 -85 14z m-1255 -4549 c47 -141 55 -200 55 -411
0 -178 -3 -214 -27 -330 -15 -71 -41 -170 -58 -220 -35 -104 -98 -238 -114
-243 -20 -5 -57 101 -72 212 -14 93 -14 130 -3 265 7 86 24 210 37 276 37 181
116 498 127 513 18 23 32 7 55 -62z"/>
</g>
</svg>
