<svg version="1.1" id="Layer_1" xmlns="http://www.w3.org/2000/svg" xmlns:xlink="http://www.w3.org/1999/xlink" x="0px" y="0px"
	 viewBox="0 0 612 491.6" enable-background="new 0 0 612 491.6" xml:space="preserve">
<path id="XMLID_1_" fill="#FFFFFF" d="M284.3,86.1c-60.5,0-49.3-36.2-40.9-69.7c6.5-25.9-20.4,3.9-21.2,6.3
	c-21.1,61.7,1.2,70.4-14.6,95c-8.8,13.6-25.5,19.3-32.2,22C47.2,190.8,3.1,285.3,3.1,285.3s65.2-17.8,157.1,10
	c48,14.5,56.1,49.8,159,92.8c21.6,9,2.8,28.9,40.2,64.9c18,17.3,43.4,14,63.5,23.4c10.9,5.1,17.2,15.3,17.2,15.3
	c-11.1-30.7-49.6-17.8-75.8-38.8c-27.4-21.9-38.2-59.1-23.9-68.4c61.5-40.4,77.1-79.1,113.8-102.3c80.7-51.1,154.8-49.8,154.8-49.8
	c0,0-65.3-59.4-186.7-102.5c-24.9-8.8-38.5-23.7-50.4-41.7c-13.1-19.7-14.9-11.8-12.3-31.8c2-15.5-9.8-34.7-15.8-47.5
	C337-5.6,332,1,328.1,5.4c-2.2,2.4,8.9,9.6,5.3,33.2c-5.9,39.3-5.4,42.1-26.8,45.7L284.3,86.1z"/>
</svg>
