<?xml version="1.0" encoding="UTF-8" standalone="no"?>
<svg
   xmlns:dc="http://purl.org/dc/elements/1.1/"
   xmlns:cc="http://creativecommons.org/ns#"
   xmlns:rdf="http://www.w3.org/1999/02/22-rdf-syntax-ns#"
   xmlns:svg="http://www.w3.org/2000/svg"
   xmlns="http://www.w3.org/2000/svg"
   xmlns:sodipodi="http://sodipodi.sourceforge.net/DTD/sodipodi-0.dtd"
   xmlns:inkscape="http://www.inkscape.org/namespaces/inkscape"
   preserveAspectRatio="xMidYMid"
   width="27"
   height="22"
   viewBox="0 0 27 22"
   id="svg4161"
   version="1.1"
   inkscape:version="0.91 r13725"
   sodipodi:docname="icon_magnifier.svg">
  <metadata
     id="metadata4178">
    <rdf:RDF>
      <cc:Work
         rdf:about="">
        <dc:format>image/svg+xml</dc:format>
        <dc:type
           rdf:resource="http://purl.org/dc/dcmitype/StillImage" />
        <dc:title></dc:title>
      </cc:Work>
    </rdf:RDF>
  </metadata>
  <sodipodi:namedview
     pagecolor="#ffffff"
     bordercolor="#666666"
     borderopacity="1"
     objecttolerance="10"
     gridtolerance="10"
     guidetolerance="10"
     inkscape:pageopacity="0"
     inkscape:pageshadow="2"
     inkscape:window-width="1600"
     inkscape:window-height="838"
     id="namedview4176"
     showgrid="false"
     inkscape:zoom="30.409091"
     inkscape:cx="13.5"
     inkscape:cy="11"
     inkscape:window-x="-8"
     inkscape:window-y="-8"
     inkscape:window-maximized="1"
     inkscape:current-layer="svg4161" />
  <defs
     id="defs4163">
    <style
       id="style4165">
      .cls-1 {
        fill: #333;
        filter: url(#color-overlay-1);
        fill-rule: evenodd;
      }
    </style>
    <filter
       id="color-overlay-1"
       filterUnits="userSpaceOnUse">
      <feFlood
         flood-color="#fff"
         id="feFlood4168" />
      <feComposite
         operator="in"
         in2="SourceGraphic"
         id="feComposite4170" />
      <feBlend
         in2="SourceGraphic"
         result="solidFill"
         id="feBlend4172" />
    </filter>
    <filter
       style="color-interpolation-filters:sRGB;"
       inkscape:label="Invert"
       id="filter4212">
      <feColorMatrix
         values="1 0 0 0 0 0 1 0 0 0 0 0 1 0 0 -0.21 -0.72 -0.07 1 0 "
         result="color2"
         id="feColorMatrix4214" />
    </filter>
  </defs>
  <path
     d="M26.612,21.869 C25.922,22.883 24.549,23.138 23.550,22.434 L14.504,16.078 C13.863,15.629 13.532,14.897 13.557,14.162 C12.391,15.431 10.861,16.283 9.146,16.600 C7.040,16.990 4.914,16.524 3.158,15.290 C1.402,14.057 0.223,12.201 -0.161,10.064 C-0.545,7.925 -0.087,5.764 1.129,3.980 C3.641,0.296 8.637,-0.628 12.266,1.921 C15.561,4.238 16.614,8.633 14.901,12.181 C15.570,11.895 16.364,11.951 17.008,12.403 L26.056,18.759 C27.055,19.463 27.305,20.854 26.612,21.869 ZM13.201,7.591 C12.934,6.101 12.113,4.807 10.888,3.947 C8.358,2.168 4.874,2.812 3.121,5.381 C1.370,7.952 2.004,11.490 4.534,13.266 C7.064,15.045 10.549,14.403 12.301,11.833 C13.149,10.589 13.469,9.082 13.201,7.591 Z"
     class="cls-1"
     id="path4174"
     style="filter:url(#filter4212)" />
</svg>
