<?xml version="1.0" encoding="UTF-8" standalone="no"?>
<!-- Generator: Adobe Illustrator 18.1.0, SVG Export Plug-In . SVG Version: 6.00 Build 0)  -->

<svg
   xmlns:dc="http://purl.org/dc/elements/1.1/"
   xmlns:cc="http://creativecommons.org/ns#"
   xmlns:rdf="http://www.w3.org/1999/02/22-rdf-syntax-ns#"
   xmlns:svg="http://www.w3.org/2000/svg"
   xmlns="http://www.w3.org/2000/svg"
   xmlns:xlink="http://www.w3.org/1999/xlink"
   xmlns:sodipodi="http://sodipodi.sourceforge.net/DTD/sodipodi-0.dtd"
   xmlns:inkscape="http://www.inkscape.org/namespaces/inkscape"
   version="1.1"
   id="Layer_1"
   x="0px"
   y="0px"
   viewBox="0 0 2000 1500"
   enable-background="new 0 0 2000 1500"
   xml:space="preserve"
   inkscape:version="0.91 r13725"
   sodipodi:docname="logo_ibeisproject.svg"><metadata
     id="metadata118"><rdf:RDF><cc:Work
         rdf:about=""><dc:format>image/svg+xml</dc:format><dc:type
           rdf:resource="http://purl.org/dc/dcmitype/StillImage" /><dc:title></dc:title></cc:Work></rdf:RDF></metadata><defs
     id="defs116"><linearGradient
       gradientTransform="matrix(-0.6704,7.942,7.942,0.6704,-10141.455,-899.5902)"
       y2="1408.9664"
       x2="169.0944"
       y1="1408.9664"
       x1="14.6524"
       gradientUnits="userSpaceOnUse"
       id="SVGID_1_"><stop
         id="stop16"
         style="stop-color:#FFFFFF;stop-opacity:0"
         offset="0" /><stop
         id="stop18"
         style="stop-color:#B2B2B2;stop-opacity:0.3168"
         offset="0.3168" /><stop
         id="stop20"
         style="stop-color:#000000"
         offset="1" /></linearGradient><clipPath
       id="clipPath18"
       clipPathUnits="userSpaceOnUse"><path
         inkscape:connector-curvature="0"
         id="path16"
         d="m 0,132.184 131.034,0 L 131.034,0 0,0 Z" /></clipPath><clipPath
       clipPathUnits="userSpaceOnUse"
       id="clipPath4306"><rect
         style="fill:#ffffff;fill-opacity:1;stroke:#80b3ff;stroke-opacity:0"
         id="rect4308"
         width="804.7619"
         height="1247.619"
         x="823.80951"
         y="119.04762" /></clipPath><clipPath
       clipPathUnits="userSpaceOnUse"
       id="clipPath4316"><rect
         style="fill:#ffffff;fill-opacity:1;stroke:#80b3ff;stroke-opacity:0"
         id="rect4318"
         width="771.42859"
         height="1323.8096"
         x="852.38098"
         y="80.952377" /></clipPath></defs><sodipodi:namedview
     pagecolor="#ffffff"
     bordercolor="#666666"
     borderopacity="1"
     objecttolerance="10"
     gridtolerance="10"
     guidetolerance="10"
     inkscape:pageopacity="0"
     inkscape:pageshadow="2"
     inkscape:window-width="1600"
     inkscape:window-height="838"
     id="namedview114"
     showgrid="false"
     inkscape:zoom="0.21"
     inkscape:cx="714.06362"
     inkscape:cy="750"
     inkscape:window-x="-8"
     inkscape:window-y="-8"
     inkscape:window-maximized="1"
     inkscape:current-layer="layer1" /><g
     id="g5"><image
       sodipodi:absref="C:\github-shepherd\src\main\webapp\cust\mantamatcher\img\4AB3AEB94015ED11.png"
       xlink:href="file:///C:/github-shepherd/src/main/webapp/cust/mantamatcher/img/4AB3AEB94015ED11.png"
       style="overflow:visible;opacity:0.28999999"
       id="image7"
       transform="matrix(1.7543,0.7327,-0.7363,1.7629,595.9182,-249.1969)"
       height="813"
       width="817"
       enable-background="new    "
       overflow="visible" /><g
       id="g9"><circle
         style="fill:#ffffff"
         id="circle11"
         r="682.29999"
         cy="734.59998"
         cx="992" /></g></g><circle
     style="fill:#8c8c8c"
     id="circle13"
     r="615.29999"
     cy="739.70001"
     cx="989.90002"
     clip-path="url(#clipPath4316)" /><circle
     style="opacity:0.5;fill:url(#SVGID_1_)"
     id="circle22"
     cy="739.70001"
     cx="989.90002"
     enable-background="new    "
     r="615.29999"
     clip-path="url(#clipPath4306)" /><g
     clip-path="url(#clipPath18)"
     id="g14"
     transform="matrix(13.076327,0,0,-13.076327,304.6853,1574.3282)"><g
       transform="translate(30.0407,104.8436)"
       id="g20"><path
         inkscape:connector-curvature="0"
         id="path22"
         style="fill:#ffffff;fill-opacity:1;fill-rule:nonzero;stroke:none"
         d="m 0,0 c 0,0 -1.214,2.95 -2.153,7.992 -0.938,5.041 -3.942,6.696 -9.21,6.694 -8.191,-0.003 -7.18,-19.274 -2.703,-21.346 3.138,-1.452 4.543,-4.599 4.218,-6.185 -0.325,-1.586 2.464,-2.164 -0.061,-4.621 -1.673,-1.628 -1.746,-5.979 -1.234,-8.026 0,0 -2.137,-1.701 -1.369,-3.108 0.767,-1.407 1.144,-3.889 2.882,-4.639 0,0 -0.437,-1.938 -0.309,-3.856 0.128,-1.919 -0.639,-5.757 0,-8.059 0.64,-2.302 0.768,-5.628 1.791,-8.442 1.023,-2.815 0.512,-2.303 1.535,-4.222 1.023,-1.918 1.535,-4.732 2.047,-6.523 0.511,-1.791 1.279,-3.454 0.639,-5.117 -0.639,-1.663 -1.023,-7.59 -0.384,-8.869 0.64,-1.28 1.613,-3.118 2.853,-5.549 1.241,-2.43 4.356,-4.292 7.276,-4.033 l 8.012,0 3.623,0 0,92.919 -10.87,0 0.034,3.442 C 6.048,6.935 4.74,6.903 3.772,6.24 1.938,4.982 -0.106,3.241 0,0" /></g><g
       transform="translate(23.9134,93.2386)"
       id="g176"><path
         inkscape:connector-curvature="0"
         id="path178"
         style="fill:#373535;fill-opacity:1;fill-rule:nonzero;stroke:none"
         d="M 0,0 C 0.412,0.309 0.567,1.805 1.134,2.372 1.702,2.939 3.218,4.537 3.285,5.672 3.351,6.806 2.423,5.414 2.114,4.898 1.805,4.383 0.722,3.351 -0.206,3.3 -1.134,3.248 -3.867,5.104 -4.434,4.228 c 0,0 1.367,-1.031 2.256,-1.392 C -1.289,2.475 -0.464,2.114 -0.619,1.289 -0.773,0.464 -0.412,-0.309 0,0" /></g><g
       transform="translate(36.6237,88.9895)"
       id="g180"><path
         inkscape:connector-curvature="0"
         id="path182"
         style="fill:#373535;fill-opacity:1;fill-rule:nonzero;stroke:none"
         d="m 0,0 c 0,0 -1.486,-4.776 -1.64,-7.395 -0.154,-2.619 -0.462,-6.856 0.077,-9.398 0.54,-2.542 0,-3.852 0.308,-5.392 0.309,-1.541 0.54,-8.397 0.617,-11.555 0.053,-2.19 0.143,-4.859 0.04,-6.856 -0.076,-0.001 -0.155,0.002 -0.238,0.006 -0.229,2.922 -0.727,9.513 -0.727,11.472 0,2.542 -0.539,7.934 -0.693,9.937 -0.154,2.003 -0.231,5.546 -0.847,9.09 C -3.72,-6.548 0,1.745 0,1.745 Z m -3.797,-24.881 c -0.693,2.311 -0.539,3.851 -1.617,6.316 -1.079,2.465 -1.926,3.004 -2.542,4.237 -0.617,1.232 0.462,3.389 1.463,4.776 1.002,1.387 1.233,2.85 1.618,4.083 0.385,1.232 3.389,6.137 3.389,6.137 -0.936,-2.439 -3.081,-9.065 -3.697,-10.759 -0.616,-1.695 -0.616,-4.314 0.308,-5.855 0.924,-1.54 0.77,-4.622 1.386,-6.856 0.617,-2.234 0.925,-6.547 1.156,-10.091 0.152,-2.328 -0.292,-3.975 -0.616,-4.842 -0.079,1.737 -0.231,4.644 -0.231,5.844 0,1.617 0.077,4.699 -0.617,7.01 m -4.93,14.944 c -1.54,-2.542 -0.924,-6.086 -0.924,-6.086 -0.616,1.002 -1.464,3.852 -1.079,5.315 0.386,1.464 2.465,3.698 3.313,5.547 0.847,1.849 1.309,2.773 2.388,3.851 1.078,1.079 2.08,2.157 2.08,2.157 0,0 -0.077,-1.001 -0.848,-2.002 -0.77,-1.002 -1.54,-1.233 -2.08,-3.005 -0.539,-1.772 -1.309,-3.235 -2.85,-5.777 m 15.974,19.931 0,3.623 -3.624,0 0,3.624 0,3.623 -3.623,0 c 0,-0.848 -0.238,-1.438 -0.934,-2.693 -0.696,-1.254 -0.337,-2.766 -0.337,-2.766 -0.073,0.369 -0.922,1.254 0.074,2.877 0.996,1.623 0.559,3.652 0.559,3.652 -0.143,-1.144 -0.559,-1.66 -1.592,-2.73 -1.033,-1.069 -1.069,-2.766 -1.069,-2.766 0,0 -0.148,1.955 0.35,2.434 0.497,0.48 0.719,2.324 0.719,2.324 -0.295,-1.143 -1.143,-0.811 -1.918,-2.545 -0.775,-1.734 -0.282,-2.988 -0.282,-2.988 -0.319,0.406 -0.415,1.586 -0.415,1.586 -0.401,-1.18 0.144,-2.582 0.365,-4.574 0.164,-1.475 -0.114,-1.798 -0.27,-1.867 -0.058,-0.009 -0.095,-0.019 -0.095,-0.019 l -0.274,-0.394 c -2.238,0.561 -3.877,6.899 -4.343,8.91 -0.74,3.19 -0.464,6.135 -2.011,7.476 -1.547,1.341 -6.032,2.836 -7.528,2.062 -1.495,-0.773 -3.712,-5.31 -3.557,-9.487 0.154,-4.176 1.134,-7.424 2.732,-9.177 0,0 -2.268,4.124 -1.959,8.92 0.309,4.795 1.547,6.651 2.269,7.321 0.722,0.67 3.867,1.495 6.135,0.155 2.269,-1.341 2.724,-3.579 2.982,-5.229 0.246,-1.579 1.784,-8.485 4.08,-12.673 L -7.073,7.592 c 0,0 -0.161,-0.484 -1.098,-1.647 -0.936,-1.162 -1.841,-1.744 -2.68,-3.358 -0.84,-1.615 -0.614,-4.263 -0.84,-5.135 -0.226,-0.872 -0.323,-1.938 -0.065,-1.97 0.259,-0.032 0.259,0.42 0.549,1.324 0.291,0.904 0.743,1.808 1.389,3.003 0.646,1.195 3.262,3.488 3.875,3.94 0.614,0.452 0.937,1.195 1.809,1.615 0.552,0.266 1.497,0.475 2.085,0.797 -0.723,-1.813 -1.815,-4.713 -2.98,-6.084 -1.622,-1.908 -2.619,-3.235 -3.775,-4.468 -1.155,-1.232 -2.003,-2.157 -3.851,-5.007 -1.133,-1.746 -1.366,-3.167 -1.38,-4.012 -0.926,0.504 -2.065,1.035 -2.588,1.035 -0.544,0 0.385,-3.182 1.642,-4.285 0,0 -0.051,-0.41 0.077,-0.616 0,0 -0.282,-0.692 0.026,-1.026 0.308,-0.333 0.641,-0.59 1,-0.847 0.36,-0.256 1.155,-0.256 1.617,0.514 0.344,0.573 0.729,0.731 1.148,0.684 0.414,-1.601 1.316,-4.874 2.155,-6.468 0,0 -2.169,3.293 -3.077,3.407 -0.908,0.113 -1.249,-1.249 -2.611,1.135 0,0 0.454,-3.633 0.227,-5.563 -0.227,-1.93 -0.227,-3.52 0.113,-3.406 0.341,0.113 0,2.043 0.909,2.725 0.908,0.681 1.589,-1.136 2.838,-1.136 1.249,0 1.59,1.59 3.179,-1.135 1.59,-2.725 2.044,-2.725 2.044,-2.725 0,0 0.794,3.633 -1.136,5.79 -1.93,2.158 -2.952,2.498 -4.201,7.267 0.593,-0.216 0.901,-0.062 0.336,0.63 -0.564,0.693 -1.129,0.77 -1.488,1.489 -0.227,0.453 -0.301,0.876 -0.505,1.248 -0.985,3.29 0.445,5.064 0.445,5.064 0,-4.16 2.465,-9.244 3.852,-10.399 1.386,-1.156 2.773,-3.544 3.312,-5.47 0.539,-1.926 1.078,-5.161 1.078,-7.241 0,-1.607 -0.57,-4.276 -0.83,-5.409 -0.024,-0.033 -0.049,-0.066 -0.073,-0.101 -0.158,1.351 -0.444,3.66 -0.677,4.748 -0.34,1.589 -1.476,2.611 -2.043,3.065 -0.568,0.454 -2.158,-0.454 -2.612,-0.454 -0.454,0 -0.795,1.249 -2.498,0.908 -1.703,-0.34 -1.816,-1.93 -1.476,-3.292 0.341,-1.363 0.568,-3.974 1.363,-4.201 0.795,-0.227 -0.908,3.406 0.795,3.179 1.703,-0.227 3.065,-0.908 4.087,-0.227 0.948,0.632 1.798,-0.111 2.641,-4.477 -0.208,-0.448 -0.38,-0.932 -0.531,-1.368 -0.06,1.036 -0.2,2.365 -0.521,3.006 -0.567,1.136 -0.908,0 -1.703,-0.34 -0.794,-0.341 -1.703,-0.227 -2.497,-1.022 -0.795,-0.795 -1.817,-0.681 -1.817,-0.681 0,0 0.795,-2.158 1.362,-2.498 0.568,-0.341 2.158,0.227 2.498,0.681 0.298,0.398 1.553,1.23 2.395,0.061 -0.042,-0.108 -0.084,-0.208 -0.124,-0.288 -0.247,-0.494 -0.328,-1.065 -0.458,-1.894 -1.108,-0.646 -2.904,-1.697 -3.516,-2.08 0,0 0.114,-2.044 0.795,-2.271 0,0 1.071,-0.061 2.023,-0.333 0.156,-1.594 0.821,-2.748 -0.093,-3.413 0,0 -1.476,0.227 -1.816,-2.271 -0.341,-2.498 -0.568,-6.018 -0.114,-7.267 0.454,-1.248 2.044,-3.746 2.384,-4.768 0.341,-1.022 2.044,-3.974 6.699,-3.974 l 3.623,0 3.624,0 0,3.623 -3.624,0 0,3.624 -3.623,0 0,3.623 3.623,0 3.624,0 0,3.623 -3.624,0 0,3.624 -3.623,0 0,3.623 3.623,0 0,3.624 3.624,0 0,3.623 0,0 0,3.623 -3.624,0 0,3.624 0,3.623 -3.623,0 0,7.247 3.623,0 0,3.623 -3.623,0 0,3.624 3.623,0 3.624,0 0,3.623 -3.624,0 0,3.623 -3.623,0 0,3.624 3.623,0 0,3.623 0,3.623 -3.623,0 0,2.159 0,1.465 3.623,0 0,3.623 z" /></g><path
       inkscape:connector-curvature="0"
       id="path184"
       style="fill:#373535;fill-opacity:1;fill-rule:nonzero;stroke:none"
       d="m 43.87,95.36 -3.623,0 0,-3.623 3.623,0 z" /><path
       inkscape:connector-curvature="0"
       id="path186"
       style="fill:#373535;fill-opacity:1;fill-rule:nonzero;stroke:none"
       d="m 43.87,62.75 -3.623,0 0,-3.623 3.623,0 z" /><path
       inkscape:connector-curvature="0"
       id="path188"
       style="fill:#373535;fill-opacity:1;fill-rule:nonzero;stroke:none"
       d="m 43.87,41.01 -3.623,0 0,-3.623 3.623,0 z" /><path
       inkscape:connector-curvature="0"
       id="path190"
       style="fill:#373535;fill-opacity:1;fill-rule:nonzero;stroke:none"
       d="m 36.624,62.75 3.623,0 0,3.623 -3.623,0 z" /><path
       inkscape:connector-curvature="0"
       id="path192"
       style="fill:#373535;fill-opacity:1;fill-rule:nonzero;stroke:none"
       d="m 40.247,88.113 3.623,0 0,3.623 -3.623,0 z" /><path
       inkscape:connector-curvature="0"
       id="path194"
       style="fill:#373535;fill-opacity:1;fill-rule:nonzero;stroke:none"
       d="m 40.247,66.373 3.623,0 0,3.623 -3.623,0 z" /><path
       inkscape:connector-curvature="0"
       id="path196"
       style="fill:#373535;fill-opacity:1;fill-rule:nonzero;stroke:none"
       d="m 40.247,41.01 3.623,0 0,3.623 -3.623,0 z" /><g
       transform="translate(40.247,37.3864)"
       id="g198"><path
         inkscape:connector-curvature="0"
         id="path200"
         style="fill:#373535;fill-opacity:1;fill-rule:nonzero;stroke:none"
         d="m 0,0 0,-3.623 3.623,0 3.624,0 0,3.623 0,3.623 -3.624,0 0,-3.623 z" /></g><g
       transform="translate(40.247,30.1396)"
       id="g202"><path
         inkscape:connector-curvature="0"
         id="path204"
         style="fill:#373535;fill-opacity:1;fill-rule:nonzero;stroke:none"
         d="m 0,0 0,-3.623 3.623,0 0,-3.624 3.624,0 0,3.624 0,3.623 -3.624,0 z" /></g><g
       transform="translate(43.8704,109.8537)"
       id="g206"><path
         inkscape:connector-curvature="0"
         id="path208"
         style="fill:#373535;fill-opacity:1;fill-rule:nonzero;stroke:none"
         d="m 0,0 0,-3.623 0,-3.624 3.623,0 0,3.624 0,3.623 z" /></g><path
       inkscape:connector-curvature="0"
       id="path210"
       style="fill:#373535;fill-opacity:1;fill-rule:nonzero;stroke:none"
       d="m 43.87,91.737 3.623,0 0,3.623 -3.623,0 z" /><g
       transform="translate(43.8704,80.8668)"
       id="g212"><path
         inkscape:connector-curvature="0"
         id="path214"
         style="fill:#373535;fill-opacity:1;fill-rule:nonzero;stroke:none"
         d="m 0,0 3.623,0 0,3.623 0,3.624 -3.623,0 0,-3.624 z" /></g><g
       transform="translate(43.8704,73.62)"
       id="g216"><path
         inkscape:connector-curvature="0"
         id="path218"
         style="fill:#373535;fill-opacity:1;fill-rule:nonzero;stroke:none"
         d="m 0,0 0,-3.623 3.623,0 0,3.623 0,3.623 -3.623,0 z" /></g><path
       inkscape:connector-curvature="0"
       id="path220"
       style="fill:#373535;fill-opacity:1;fill-rule:nonzero;stroke:none"
       d="m 43.87,55.503 3.623,0 0,3.623 -3.623,0 z" /><path
       inkscape:connector-curvature="0"
       id="path222"
       style="fill:#373535;fill-opacity:1;fill-rule:nonzero;stroke:none"
       d="m 43.87,44.633 3.623,0 0,3.623 -3.623,0 z" /><path
       inkscape:connector-curvature="0"
       id="path224"
       style="fill:#373535;fill-opacity:1;fill-rule:nonzero;stroke:none"
       d="m 47.494,98.984 3.623,0 0,3.623 -3.623,0 z" /><path
       inkscape:connector-curvature="0"
       id="path226"
       style="fill:#373535;fill-opacity:1;fill-rule:nonzero;stroke:none"
       d="m 47.494,91.737 3.623,0 0,3.623 -3.623,0 z" /><path
       inkscape:connector-curvature="0"
       id="path228"
       style="fill:#373535;fill-opacity:1;fill-rule:nonzero;stroke:none"
       d="m 47.494,80.867 3.623,0 0,3.623 -3.623,0 z" /><path
       inkscape:connector-curvature="0"
       id="path230"
       style="fill:#373535;fill-opacity:1;fill-rule:nonzero;stroke:none"
       d="m 47.494,62.75 3.623,0 0,3.623 -3.623,0 z" /><path
       inkscape:connector-curvature="0"
       id="path232"
       style="fill:#373535;fill-opacity:1;fill-rule:nonzero;stroke:none"
       d="m 47.494,55.503 3.623,0 0,3.623 -3.623,0 z" /><path
       inkscape:connector-curvature="0"
       id="path234"
       style="fill:#373535;fill-opacity:1;fill-rule:nonzero;stroke:none"
       d="m 47.494,48.256 3.623,0 0,3.623 -3.623,0 z" /><path
       inkscape:connector-curvature="0"
       id="path236"
       style="fill:#373535;fill-opacity:1;fill-rule:nonzero;stroke:none"
       d="m 47.494,33.763 3.623,0 0,3.623 -3.623,0 z" /><path
       inkscape:connector-curvature="0"
       id="path238"
       style="fill:#373535;fill-opacity:1;fill-rule:nonzero;stroke:none"
       d="m 51.117,106.23 3.623,0 0,3.623 -3.623,0 z" /><path
       inkscape:connector-curvature="0"
       id="path240"
       style="fill:#373535;fill-opacity:1;fill-rule:nonzero;stroke:none"
       d="m 51.117,73.62 3.623,0 0,3.623 -3.623,0 z" /><path
       inkscape:connector-curvature="0"
       id="path242"
       style="fill:#373535;fill-opacity:1;fill-rule:nonzero;stroke:none"
       d="m 51.117,41.01 3.623,0 0,3.623 -3.623,0 z" /><path
       inkscape:connector-curvature="0"
       id="path244"
       style="fill:#373535;fill-opacity:1;fill-rule:nonzero;stroke:none"
       d="m 51.117,33.763 3.623,0 0,3.623 -3.623,0 z" /><path
       inkscape:connector-curvature="0"
       id="path246"
       style="fill:#373535;fill-opacity:1;fill-rule:nonzero;stroke:none"
       d="m 51.117,26.516 3.623,0 0,3.623 -3.623,0 z" /><text
       xml:space="preserve"
       style="font-style:normal;font-weight:normal;font-size:22.31941414px;line-height:125%;font-family:sans-serif;letter-spacing:0px;word-spacing:0px;fill:#000000;fill-opacity:1;stroke:none;stroke-width:1px;stroke-linecap:butt;stroke-linejoin:miter;stroke-opacity:1"
       x="-10.851005"
       y="-24.34569"
       id="text4229"
       sodipodi:linespacing="125%"
       transform="scale(1,-1)"><tspan
         sodipodi:role="line"
         id="tspan4231"
         x="-10.851005"
         y="-24.34569" /></text>
<text
       xml:space="preserve"
       style="font-style:normal;font-weight:normal;font-size:22.31941414px;line-height:125%;font-family:sans-serif;letter-spacing:0px;word-spacing:0px;fill:#ffffff;fill-opacity:1;stroke:none;stroke-width:1px;stroke-linecap:butt;stroke-linejoin:miter;stroke-opacity:1"
       x="4.5009718"
       y="-16.669689"
       id="text4233"
       sodipodi:linespacing="125%"
       transform="scale(1,-1)"><tspan
         sodipodi:role="line"
         id="tspan4235"
         x="4.5009718"
         y="-16.669689"></tspan></text>
<text
       xml:space="preserve"
       style="font-style:normal;font-weight:normal;font-size:22.31941414px;line-height:125%;font-family:sans-serif;letter-spacing:0px;word-spacing:0px;fill:#ffffff;fill-opacity:1;stroke:none;stroke-width:1px;stroke-linecap:butt;stroke-linejoin:miter;stroke-opacity:1"
       x="-18.526997"
       y="-24.93615"
       id="text4243"
       sodipodi:linespacing="125%"
       transform="scale(1,-1)"><tspan
         sodipodi:role="line"
         id="tspan4245"
         x="-18.526997"
         y="-24.93615"></tspan></text>
</g><g
     inkscape:groupmode="layer"
     id="layer1"
     inkscape:label="Layer 1"><flowRoot
       xml:space="preserve"
       id="flowRoot4248"
       style="fill:black;stroke:none;stroke-opacity:1;stroke-width:1px;stroke-linejoin:miter;stroke-linecap:butt;fill-opacity:1;font-family:sans-serif;font-style:normal;font-weight:normal;font-size:180px;line-height:125%;letter-spacing:0px;word-spacing:0px"><flowRegion
         id="flowRegion4250"><rect
           id="rect4252"
           width="1695.238"
           height="333.33334"
           x="595.2381"
           y="709.5238" /></flowRegion><flowPara
         id="flowPara4254"></flowPara></flowRoot><text
       xml:space="preserve"
       style="font-style:normal;font-weight:normal;font-size:180px;line-height:125%;font-family:sans-serif;letter-spacing:0px;word-spacing:0px;fill:#ffffff;fill-opacity:1;stroke:none;stroke-width:1px;stroke-linecap:butt;stroke-linejoin:miter;stroke-opacity:1"
       x="1032.9518"
       y="804.76178"
       id="text4256"
       sodipodi:linespacing="125%"><tspan
         sodipodi:role="line"
         id="tspan4258"
         x="1032.9518"
         y="804.76178">IBEIS</tspan></text>
</g></svg>