<?xml version="1.0" encoding="UTF-8" standalone="no"?>
<!-- Generator: Adobe Illustrator 18.1.0, SVG Export Plug-In . SVG Version: 6.00 Build 0)  -->

<svg
   xmlns:dc="http://purl.org/dc/elements/1.1/"
   xmlns:cc="http://creativecommons.org/ns#"
   xmlns:rdf="http://www.w3.org/1999/02/22-rdf-syntax-ns#"
   xmlns:svg="http://www.w3.org/2000/svg"
   xmlns="http://www.w3.org/2000/svg"
   xmlns:xlink="http://www.w3.org/1999/xlink"
   xmlns:sodipodi="http://sodipodi.sourceforge.net/DTD/sodipodi-0.dtd"
   xmlns:inkscape="http://www.inkscape.org/namespaces/inkscape"
   version="1.1"
   id="Layer_1"
   x="0px"
   y="0px"
   viewBox="0 0 2000 1500"
   enable-background="new 0 0 2000 1500"
   xml:space="preserve"
   inkscape:version="0.91 r13725"
   sodipodi:docname="logo_ibeisproject.svg"><metadata
     id="metadata118"><rdf:RDF><cc:Work
         rdf:about=""><dc:format>image/svg+xml</dc:format><dc:type
           rdf:resource="http://purl.org/dc/dcmitype/StillImage" /><dc:title></dc:title></cc:Work></rdf:RDF></metadata><defs
     id="defs116"><linearGradient
       gradientTransform="matrix(-0.6704,7.942,7.942,0.6704,-10141.455,-899.5902)"
       y2="1408.9664"
       x2="169.0944"
       y1="1408.9664"
       x1="14.6524"
       gradientUnits="userSpaceOnUse"
       id="SVGID_1_"><stop
         id="stop16"
         style="stop-color:#FFFFFF;stop-opacity:0"
         offset="0" /><stop
         id="stop18"
         style="stop-color:#B2B2B2;stop-opacity:0.3168"
         offset="0.3168" /><stop
         id="stop20"
         style="stop-color:#000000"
         offset="1" /></linearGradient><clipPath
       id="clipPath18"
       clipPathUnits="userSpaceOnUse"><path
         inkscape:connector-curvature="0"
         id="path16"
         d="m 0,132.184 131.034,0 L 131.034,0 0,0 Z" /></clipPath></defs><sodipodi:namedview
     pagecolor="#ffffff"
     bordercolor="#666666"
     borderopacity="1"
     objecttolerance="10"
     gridtolerance="10"
     guidetolerance="10"
     inkscape:pageopacity="0"
     inkscape:pageshadow="2"
     inkscape:window-width="1600"
     inkscape:window-height="838"
     id="namedview114"
     showgrid="false"
     inkscape:zoom="0.144"
     inkscape:cx="1000"
     inkscape:cy="750"
     inkscape:window-x="-8"
     inkscape:window-y="-8"
     inkscape:window-maximized="1"
     inkscape:current-layer="g14" /><g
     id="g5"><image
       sodipodi:absref="C:\github-shepherd\src\main\webapp\cust\mantamatcher\img\4AB3AEB94015ED11.png"
       xlink:href="4AB3AEB94015ED11.png"
       overflow="visible"
       enable-background="new    "
       width="817"
       height="813"
       transform="matrix(1.7543,0.7327,-0.7363,1.7629,595.9182,-249.1969)"
       id="image7"
       style="overflow:visible;opacity:0.28999999" /><g
       id="g9"><circle
         style="fill:#ffffff"
         id="circle11"
         r="682.29999"
         cy="734.59998"
         cx="992" /></g></g><circle
     style="fill:#8c8c8c"
     id="circle13"
     r="615.29999"
     cy="739.70001"
     cx="989.90002" /><circle
     style="opacity:0.5;fill:url(#SVGID_1_)"
     id="circle22"
     r="615.29999"
     cy="739.70001"
     cx="989.90002"
     enable-background="new    " /><g
     clip-path="url(#clipPath18)"
     id="g14"
     transform="matrix(8.6940328,0,0,-8.6940328,459.34628,1321.6)"><g
       transform="translate(30.0407,104.8436)"
       id="g20"><path
         inkscape:connector-curvature="0"
         id="path22"
         style="fill:#ffffff;fill-opacity:1;fill-rule:nonzero;stroke:none"
         d="m 0,0 c 0,0 -1.214,2.95 -2.153,7.992 -0.938,5.041 -3.942,6.696 -9.21,6.694 -8.191,-0.003 -7.18,-19.274 -2.703,-21.346 3.138,-1.452 4.543,-4.599 4.218,-6.185 -0.325,-1.586 2.464,-2.164 -0.061,-4.621 -1.673,-1.628 -1.746,-5.979 -1.234,-8.026 0,0 -2.137,-1.701 -1.369,-3.108 0.767,-1.407 1.144,-3.889 2.882,-4.639 0,0 -0.437,-1.938 -0.309,-3.856 0.128,-1.919 -0.639,-5.757 0,-8.059 0.64,-2.302 0.768,-5.628 1.791,-8.442 1.023,-2.815 0.512,-2.303 1.535,-4.222 1.023,-1.918 1.535,-4.732 2.047,-6.523 0.511,-1.791 1.279,-3.454 0.639,-5.117 -0.639,-1.663 -1.023,-7.59 -0.384,-8.869 0.64,-1.28 1.613,-3.118 2.853,-5.549 1.241,-2.43 4.356,-4.292 7.276,-4.033 l 8.012,0 3.623,0 0,92.919 -10.87,0 0.034,3.442 C 6.048,6.935 4.74,6.903 3.772,6.24 1.938,4.982 -0.106,3.241 0,0" /></g><path
       inkscape:connector-curvature="0"
       id="path24"
       style="fill:#ffffff;fill-opacity:1;fill-rule:nonzero;stroke:none"
       d="m 59.583,109.556 0.582,0 0,-7.829 -0.582,0 z" /><g
       transform="translate(62.4446,107.431)"
       id="g26"
       style="fill:#ffffff"><path
         inkscape:connector-curvature="0"
         id="path28"
         style="fill:#ffffff;fill-opacity:1;fill-rule:nonzero;stroke:none"
         d="m 0,0 0.548,0 0,-1.018 c 0.369,0.593 0.884,1.153 1.901,1.153 0.996,0 1.612,-0.572 1.924,-1.231 0.369,0.638 0.984,1.231 2.059,1.231 1.353,0 2.191,-0.951 2.191,-2.383 l 0,-3.456 -0.548,0 0,3.389 c 0,1.23 -0.637,1.946 -1.688,1.946 -0.962,0 -1.801,-0.738 -1.801,-2.013 l 0,-3.322 -0.548,0 0,3.423 c 0,1.185 -0.649,1.912 -1.667,1.912 -1.017,0 -1.823,-0.895 -1.823,-2.047 l 0,-3.288 -0.548,0 z" /></g><g
       transform="translate(77.0013,103.8637)"
       id="g30"
       style="fill:#ffffff"><path
         inkscape:connector-curvature="0"
         id="path32"
         style="fill:#ffffff;fill-opacity:1;fill-rule:nonzero;stroke:none"
         d="m 0,0 0,0.648 c -0.48,0.123 -1.118,0.257 -1.935,0.257 -1.208,0 -1.878,-0.537 -1.878,-1.331 l 0,-0.022 c 0,-0.827 0.782,-1.309 1.655,-1.309 C -0.995,-1.757 0,-1.041 0,0 m -4.396,-0.481 0,0.022 c 0,1.186 1.018,1.856 2.495,1.856 0.794,0 1.342,-0.1 1.89,-0.246 l 0,0.246 c 0,1.153 -0.705,1.746 -1.879,1.746 -0.693,0 -1.264,-0.191 -1.79,-0.459 l -0.201,0.481 c 0.626,0.291 1.241,0.492 2.025,0.492 0.771,0 1.386,-0.213 1.8,-0.627 0.38,-0.38 0.581,-0.905 0.581,-1.61 l 0,-3.557 -0.536,0 0,0.951 c -0.391,-0.548 -1.096,-1.085 -2.181,-1.085 -1.063,0 -2.204,0.604 -2.204,1.79" /></g><g
       transform="translate(84.2796,104.8471)"
       id="g34"
       style="fill:#ffffff"><path
         inkscape:connector-curvature="0"
         id="path36"
         style="fill:#ffffff;fill-opacity:1;fill-rule:nonzero;stroke:none"
         d="m 0,0 0,0.022 c 0,1.321 -1.175,2.17 -2.36,2.17 -1.197,0 -2.203,-0.827 -2.203,-2.158 l 0,-0.022 c 0,-1.286 1.029,-2.181 2.203,-2.181 C -1.175,-2.169 0,-1.297 0,0 m -4.898,-4.06 0.324,0.448 c 0.681,-0.526 1.465,-0.806 2.303,-0.806 1.309,0 2.238,0.75 2.238,2.215 l 0,0.828 c -0.492,-0.705 -1.253,-1.32 -2.383,-1.32 -1.376,0 -2.74,1.051 -2.74,2.684 l 0,0.023 c 0,1.643 1.364,2.707 2.74,2.707 1.141,0 1.913,-0.605 2.383,-1.276 l 0,1.141 0.548,0 0,-4.82 c 0,-0.828 -0.269,-1.477 -0.728,-1.936 -0.491,-0.492 -1.229,-0.76 -2.068,-0.76 -0.951,0 -1.835,0.29 -2.617,0.872" /></g><g
       transform="translate(91.2093,104.8471)"
       id="g38"
       style="fill:#ffffff"><path
         inkscape:connector-curvature="0"
         id="path40"
         style="fill:#ffffff;fill-opacity:1;fill-rule:nonzero;stroke:none"
         d="m 0,0 c -0.078,1.152 -0.738,2.215 -2.047,2.215 -1.13,0 -2.002,-0.95 -2.102,-2.215 z m -4.731,-0.279 0,0.022 c 0,1.655 1.163,2.976 2.707,2.976 1.599,0 2.617,-1.298 2.617,-2.987 0,-0.101 0,-0.134 -0.011,-0.224 l -4.731,0 c 0.1,-1.42 1.118,-2.248 2.236,-2.248 0.884,0 1.488,0.391 1.958,0.895 l 0.38,-0.336 c -0.581,-0.626 -1.264,-1.073 -2.36,-1.073 -1.499,0 -2.796,1.196 -2.796,2.975" /></g><g
       transform="translate(62.928,88.85)"
       id="g42"
       style="fill:#ffffff"><path
         inkscape:connector-curvature="0"
         id="path44"
         style="fill:#ffffff;fill-opacity:1;fill-rule:nonzero;stroke:none"
         d="m 0,0 c 1.342,0 2.192,0.615 2.192,1.6 l 0,0.021 c 0,0.962 -0.838,1.522 -2.382,1.522 l -2.651,0 0,-3.143 z m -0.258,3.68 c 1.175,0 2.014,0.57 2.014,1.61 l 0,0.022 c 0,0.862 -0.705,1.443 -1.957,1.443 l -2.64,0 0,-3.075 z m -3.165,3.612 3.233,0 C 0.693,7.292 1.409,7.035 1.846,6.599 2.17,6.274 2.349,5.86 2.349,5.368 l 0,-0.022 C 2.349,4.283 1.655,3.747 1.018,3.489 1.957,3.243 2.785,2.706 2.785,1.621 l 0,-0.021 c 0,-1.309 -1.119,-2.137 -2.807,-2.137 l -3.401,0 z" /></g><g
       transform="translate(71.3792,90.4496)"
       id="g46"
       style="fill:#ffffff"><path
         inkscape:connector-curvature="0"
         id="path48"
         style="fill:#ffffff;fill-opacity:1;fill-rule:nonzero;stroke:none"
         d="m 0,0 0,0.648 c -0.48,0.123 -1.118,0.257 -1.935,0.257 -1.208,0 -1.878,-0.537 -1.878,-1.331 l 0,-0.022 c 0,-0.827 0.782,-1.309 1.655,-1.309 C -0.995,-1.757 0,-1.041 0,0 m -4.396,-0.481 0,0.022 c 0,1.186 1.018,1.856 2.495,1.856 0.794,0 1.342,-0.1 1.89,-0.246 l 0,0.246 c 0,1.153 -0.705,1.746 -1.879,1.746 -0.693,0 -1.264,-0.191 -1.79,-0.459 l -0.201,0.481 c 0.626,0.291 1.241,0.492 2.025,0.492 0.771,0 1.386,-0.213 1.8,-0.627 0.38,-0.38 0.581,-0.905 0.581,-1.61 l 0,-3.557 -0.536,0 0,0.951 c -0.391,-0.548 -1.096,-1.085 -2.181,-1.085 -1.063,0 -2.204,0.604 -2.204,1.79" /></g><g
       transform="translate(73.3772,89.0287)"
       id="g50"
       style="fill:#ffffff"><path
         inkscape:connector-curvature="0"
         id="path52"
         style="fill:#ffffff;fill-opacity:1;fill-rule:nonzero;stroke:none"
         d="m 0,0 0.324,0.437 c 0.627,-0.482 1.321,-0.75 2.047,-0.75 0.773,0 1.376,0.425 1.376,1.084 l 0,0.023 c 0,0.671 -0.716,0.917 -1.51,1.141 C 1.309,2.203 0.28,2.483 0.28,3.501 l 0,0.022 c 0,0.917 0.772,1.578 1.879,1.578 0.682,0 1.454,-0.247 2.025,-0.627 L 3.893,4.016 C 3.367,4.362 2.74,4.586 2.137,4.586 1.354,4.586 0.839,4.161 0.839,3.59 l 0,-0.022 C 0.839,2.931 1.61,2.695 2.428,2.461 3.345,2.203 4.307,1.868 4.307,0.861 l 0,-0.022 C 4.307,-0.179 3.434,-0.828 2.338,-0.828 1.51,-0.828 0.604,-0.492 0,0" /></g><g
       transform="translate(83.7649,91.433)"
       id="g54"
       style="fill:#ffffff"><path
         inkscape:connector-curvature="0"
         id="path56"
         style="fill:#ffffff;fill-opacity:1;fill-rule:nonzero;stroke:none"
         d="m 0,0 c -0.078,1.152 -0.738,2.215 -2.047,2.215 -1.13,0 -2.002,-0.95 -2.102,-2.215 z m -4.731,-0.279 0,0.022 c 0,1.655 1.163,2.976 2.707,2.976 1.599,0 2.617,-1.298 2.617,-2.987 0,-0.101 0,-0.134 -0.011,-0.224 l -4.731,0 c 0.1,-1.42 1.118,-2.248 2.236,-2.248 0.884,0 1.488,0.391 1.958,0.895 l 0.38,-0.336 c -0.581,-0.626 -1.264,-1.073 -2.36,-1.073 -1.499,0 -2.796,1.196 -2.796,2.975" /></g><g
       transform="translate(90.7405,91.1537)"
       id="g58"
       style="fill:#ffffff"><path
         inkscape:connector-curvature="0"
         id="path60"
         style="fill:#ffffff;fill-opacity:1;fill-rule:nonzero;stroke:none"
         d="m 0,0 0,0.022 c 0,1.465 -1.141,2.45 -2.326,2.45 -1.241,0 -2.237,-0.906 -2.237,-2.439 l 0,-0.021 c 0,-1.499 1.04,-2.461 2.237,-2.461 C -1.141,-2.449 0,-1.454 0,0 m -5.156,-0.011 0,0.023 c 0,1.856 1.398,2.986 2.774,2.986 1.141,0 1.879,-0.649 2.349,-1.365 l 0,3.691 0.548,0 0,-8.165 -0.548,0 0,1.276 c -0.492,-0.75 -1.22,-1.41 -2.349,-1.41 -1.376,0 -2.774,1.107 -2.774,2.964" /></g><g
       transform="translate(59.5052,82.7269)"
       id="g62"
       style="fill:#ffffff"><path
         inkscape:connector-curvature="0"
         id="path64"
         style="fill:#ffffff;fill-opacity:1;fill-rule:nonzero;stroke:none"
         d="m 0,0 5.57,0 0,-0.537 -4.988,0 0,-3.075 4.484,0 0,-0.537 -4.484,0 0,-3.143 5.044,0 0,-0.537 -5.626,0 z" /></g><g
       transform="translate(66.3685,77.7279)"
       id="g66"
       style="fill:#ffffff"><path
         inkscape:connector-curvature="0"
         id="path68"
         style="fill:#ffffff;fill-opacity:1;fill-rule:nonzero;stroke:none"
         d="m 0,0 0,0.022 c 0,1.599 1.275,2.987 2.908,2.987 1.074,0 1.745,-0.492 2.282,-1.052 L 4.799,1.555 C 4.307,2.058 3.747,2.494 2.897,2.494 1.6,2.494 0.593,1.409 0.593,0.044 l 0,-0.022 c 0,-1.376 1.04,-2.472 2.348,-2.472 0.806,0 1.432,0.414 1.913,0.951 l 0.38,-0.336 C 4.653,-2.494 3.96,-2.964 2.908,-2.964 1.264,-2.964 0,-1.6 0,0" /></g><g
       transform="translate(77.8538,77.7279)"
       id="g70"
       style="fill:#ffffff"><path
         inkscape:connector-curvature="0"
         id="path72"
         style="fill:#ffffff;fill-opacity:1;fill-rule:nonzero;stroke:none"
         d="m 0,0 0,0.022 c 0,1.375 -1.029,2.472 -2.349,2.472 -1.353,0 -2.327,-1.107 -2.327,-2.45 l 0,-0.022 c 0,-1.376 1.03,-2.472 2.349,-2.472 C -0.974,-2.45 0,-1.343 0,0 m -5.269,0 0,0.022 c 0,1.599 1.243,2.987 2.942,2.987 1.689,0 2.92,-1.365 2.92,-2.965 l 0,-0.022 c 0,-1.599 -1.242,-2.986 -2.942,-2.986 -1.689,0 -2.92,1.364 -2.92,2.964" /></g><path
       inkscape:connector-curvature="0"
       id="path74"
       style="fill:#ffffff;fill-opacity:1;fill-rule:nonzero;stroke:none"
       d="m 80.209,83.063 0.549,0 0,-8.165 -0.549,0 z" /><g
       transform="translate(87.7913,77.7279)"
       id="g76"
       style="fill:#ffffff"><path
         inkscape:connector-curvature="0"
         id="path78"
         style="fill:#ffffff;fill-opacity:1;fill-rule:nonzero;stroke:none"
         d="m 0,0 0,0.022 c 0,1.375 -1.029,2.472 -2.349,2.472 -1.353,0 -2.327,-1.107 -2.327,-2.45 l 0,-0.022 c 0,-1.376 1.03,-2.472 2.349,-2.472 C -0.974,-2.45 0,-1.343 0,0 m -5.269,0 0,0.022 c 0,1.599 1.243,2.987 2.942,2.987 1.689,0 2.92,-1.365 2.92,-2.965 l 0,-0.022 c 0,-1.599 -1.242,-2.986 -2.942,-2.986 -1.689,0 -2.92,1.364 -2.92,2.964" /></g><g
       transform="translate(94.8558,78.018)"
       id="g80"
       style="fill:#ffffff"><path
         inkscape:connector-curvature="0"
         id="path82"
         style="fill:#ffffff;fill-opacity:1;fill-rule:nonzero;stroke:none"
         d="m 0,0 0,0.022 c 0,1.321 -1.175,2.17 -2.36,2.17 -1.197,0 -2.203,-0.827 -2.203,-2.158 l 0,-0.022 c 0,-1.286 1.029,-2.181 2.203,-2.181 C -1.175,-2.169 0,-1.297 0,0 m -4.898,-4.06 0.324,0.448 c 0.681,-0.526 1.465,-0.806 2.303,-0.806 1.309,0 2.238,0.75 2.238,2.215 l 0,0.828 c -0.492,-0.705 -1.253,-1.32 -2.383,-1.32 -1.376,0 -2.74,1.051 -2.74,2.684 l 0,0.023 c 0,1.643 1.364,2.707 2.74,2.707 1.141,0 1.913,-0.605 2.383,-1.276 l 0,1.141 0.548,0 0,-4.82 c 0,-0.828 -0.269,-1.477 -0.728,-1.936 -0.491,-0.492 -1.229,-0.76 -2.068,-0.76 -0.951,0 -1.835,0.29 -2.617,0.872" /></g><path
       inkscape:connector-curvature="0"
       id="path84"
       style="fill:#ffffff;fill-opacity:1;fill-rule:nonzero;stroke:none"
       d="m 97.525,80.602 0.549,0 0,-5.704 -0.549,0 z m -0.067,2.237 0.682,0 0,-0.75 -0.682,0 z" /><g
       transform="translate(99.8382,77.7279)"
       id="g86"
       style="fill:#ffffff"><path
         inkscape:connector-curvature="0"
         id="path88"
         style="fill:#ffffff;fill-opacity:1;fill-rule:nonzero;stroke:none"
         d="m 0,0 0,0.022 c 0,1.599 1.275,2.987 2.908,2.987 1.074,0 1.745,-0.492 2.282,-1.052 L 4.799,1.555 C 4.307,2.058 3.747,2.494 2.897,2.494 1.6,2.494 0.593,1.409 0.593,0.044 l 0,-0.022 c 0,-1.376 1.04,-2.472 2.348,-2.472 0.806,0 1.432,0.414 1.913,0.951 l 0.38,-0.336 C 4.653,-2.494 3.96,-2.964 2.908,-2.964 1.264,-2.964 0,-1.6 0,0" /></g><g
       transform="translate(110.5384,77.0346)"
       id="g90"
       style="fill:#ffffff"><path
         inkscape:connector-curvature="0"
         id="path92"
         style="fill:#ffffff;fill-opacity:1;fill-rule:nonzero;stroke:none"
         d="m 0,0 0,0.648 c -0.48,0.123 -1.118,0.257 -1.935,0.257 -1.208,0 -1.878,-0.536 -1.878,-1.331 l 0,-0.022 c 0,-0.827 0.782,-1.309 1.655,-1.309 C -0.995,-1.757 0,-1.041 0,0 m -4.396,-0.481 0,0.022 c 0,1.186 1.018,1.856 2.495,1.856 0.794,0 1.342,-0.1 1.89,-0.246 l 0,0.246 c 0,1.153 -0.705,1.746 -1.879,1.746 -0.693,0 -1.264,-0.191 -1.79,-0.459 l -0.201,0.481 c 0.626,0.291 1.241,0.492 2.025,0.492 0.771,0 1.386,-0.213 1.8,-0.627 0.38,-0.38 0.581,-0.905 0.581,-1.61 l 0,-3.557 -0.536,0 0,0.951 c -0.391,-0.548 -1.096,-1.085 -2.181,-1.085 -1.063,0 -2.204,0.604 -2.204,1.79" /></g><path
       inkscape:connector-curvature="0"
       id="path94"
       style="fill:#ffffff;fill-opacity:1;fill-rule:nonzero;stroke:none"
       d="m 113.107,83.063 0.549,0 0,-8.165 -0.549,0 z" /><path
       inkscape:connector-curvature="0"
       id="path96"
       style="fill:#ffffff;fill-opacity:1;fill-rule:nonzero;stroke:none"
       d="m 59.583,69.313 0.582,0 0,-7.829 -0.582,0 z" /><g
       transform="translate(62.4446,67.1879)"
       id="g98"
       style="fill:#ffffff"><path
         inkscape:connector-curvature="0"
         id="path100"
         style="fill:#ffffff;fill-opacity:1;fill-rule:nonzero;stroke:none"
         d="m 0,0 0.548,0 0,-1.063 c 0.381,0.671 1.018,1.198 2.058,1.198 1.443,0 2.282,-0.985 2.282,-2.35 l 0,-3.489 -0.548,0 0,3.389 c 0,1.174 -0.66,1.946 -1.812,1.946 -1.119,0 -1.98,-0.85 -1.98,-2.036 l 0,-3.299 -0.548,0 z" /></g><g
       transform="translate(69.6331,66.685)"
       id="g102"
       style="fill:#ffffff"><path
         inkscape:connector-curvature="0"
         id="path104"
         style="fill:#ffffff;fill-opacity:1;fill-rule:nonzero;stroke:none"
         d="m 0,0 -0.828,0 0,0.503 0.828,0 0,0.559 C 0,1.711 0.179,2.226 0.503,2.55 0.794,2.841 1.196,2.997 1.7,2.997 c 0.347,0 0.593,-0.045 0.85,-0.134 l 0,-0.514 C 2.226,2.449 1.99,2.494 1.7,2.494 0.917,2.494 0.548,2.024 0.548,1.051 l 0,-0.548 1.991,0 0,-0.503 -1.991,0 0,-5.201 -0.548,0 z" /></g><g
       transform="translate(78.1087,64.3143)"
       id="g106"
       style="fill:#ffffff"><path
         inkscape:connector-curvature="0"
         id="path108"
         style="fill:#ffffff;fill-opacity:1;fill-rule:nonzero;stroke:none"
         d="m 0,0 0,0.021 c 0,1.375 -1.029,2.473 -2.349,2.473 -1.353,0 -2.327,-1.107 -2.327,-2.451 l 0,-0.022 c 0,-1.375 1.03,-2.472 2.349,-2.472 C -0.974,-2.451 0,-1.344 0,0 m -5.269,0 0,0.021 c 0,1.6 1.243,2.987 2.942,2.987 1.689,0 2.92,-1.365 2.92,-2.965 l 0,-0.022 c 0,-1.599 -1.242,-2.986 -2.942,-2.986 -1.689,0 -2.92,1.365 -2.92,2.965" /></g><g
       transform="translate(80.386,67.1879)"
       id="g110"
       style="fill:#ffffff"><path
         inkscape:connector-curvature="0"
         id="path112"
         style="fill:#ffffff;fill-opacity:1;fill-rule:nonzero;stroke:none"
         d="m 0,0 0.548,0 0,-1.622 c 0.447,1.018 1.398,1.757 2.528,1.712 l 0,-0.605 -0.056,0 c -1.32,0 -2.472,-0.995 -2.472,-2.851 l 0,-2.338 -0.548,0 z" /></g><g
       transform="translate(84.8577,67.1879)"
       id="g114"
       style="fill:#ffffff"><path
         inkscape:connector-curvature="0"
         id="path116"
         style="fill:#ffffff;fill-opacity:1;fill-rule:nonzero;stroke:none"
         d="m 0,0 0.548,0 0,-1.018 c 0.369,0.593 0.884,1.153 1.901,1.153 0.996,0 1.612,-0.572 1.924,-1.231 0.369,0.638 0.984,1.231 2.059,1.231 1.353,0 2.192,-0.952 2.192,-2.384 l 0,-3.455 -0.549,0 0,3.389 c 0,1.231 -0.638,1.946 -1.688,1.946 -0.962,0 -1.801,-0.739 -1.801,-2.012 l 0,-3.323 -0.548,0 0,3.422 c 0,1.186 -0.649,1.913 -1.667,1.913 -1.017,0 -1.823,-0.895 -1.823,-2.048 l 0,-3.287 -0.548,0 z" /></g><g
       transform="translate(99.4144,63.621)"
       id="g118"
       style="fill:#ffffff"><path
         inkscape:connector-curvature="0"
         id="path120"
         style="fill:#ffffff;fill-opacity:1;fill-rule:nonzero;stroke:none"
         d="m 0,0 0,0.648 c -0.48,0.123 -1.118,0.256 -1.935,0.256 -1.208,0 -1.878,-0.535 -1.878,-1.33 l 0,-0.023 c 0,-0.826 0.782,-1.309 1.655,-1.309 C -0.995,-1.758 0,-1.041 0,0 m -4.396,-0.482 0,0.023 c 0,1.186 1.018,1.855 2.495,1.855 0.794,0 1.342,-0.099 1.89,-0.246 l 0,0.246 c 0,1.153 -0.705,1.746 -1.879,1.746 -0.693,0 -1.264,-0.19 -1.79,-0.458 l -0.201,0.481 c 0.626,0.291 1.241,0.492 2.025,0.492 0.771,0 1.386,-0.213 1.8,-0.627 0.38,-0.38 0.581,-0.905 0.581,-1.61 l 0,-3.557 -0.536,0 0,0.951 c -0.391,-0.548 -1.096,-1.085 -2.181,-1.085 -1.063,0 -2.204,0.603 -2.204,1.789" /></g><g
       transform="translate(102.1517,62.9491)"
       id="g122"
       style="fill:#ffffff"><path
         inkscape:connector-curvature="0"
         id="path124"
         style="fill:#ffffff;fill-opacity:1;fill-rule:nonzero;stroke:none"
         d="m 0,0 0,3.736 -0.827,0 0,0.503 0.827,0 0,1.823 0.549,0 0,-1.823 2.002,0 0,-0.503 -2.002,0 0,-3.679 c 0,-0.817 0.48,-1.108 1.14,-1.108 0.28,0 0.515,0.055 0.839,0.201 l 0,-0.515 C 2.237,-1.498 1.958,-1.566 1.6,-1.566 0.716,-1.566 0,-1.086 0,0" /></g><path
       inkscape:connector-curvature="0"
       id="path126"
       style="fill:#ffffff;fill-opacity:1;fill-rule:nonzero;stroke:none"
       d="m 106.4,67.188 0.549,0 0,-5.704 -0.549,0 z m -0.067,2.237 0.682,0 0,-0.75 -0.682,0 z" /><g
       transform="translate(113.9817,64.3143)"
       id="g128"
       style="fill:#ffffff"><path
         inkscape:connector-curvature="0"
         id="path130"
         style="fill:#ffffff;fill-opacity:1;fill-rule:nonzero;stroke:none"
         d="m 0,0 0,0.021 c 0,1.375 -1.029,2.473 -2.349,2.473 -1.353,0 -2.327,-1.107 -2.327,-2.451 l 0,-0.022 c 0,-1.375 1.03,-2.472 2.349,-2.472 C -0.974,-2.451 0,-1.344 0,0 m -5.269,0 0,0.021 c 0,1.6 1.243,2.987 2.942,2.987 1.689,0 2.92,-1.365 2.92,-2.965 l 0,-0.022 c 0,-1.599 -1.242,-2.986 -2.942,-2.986 -1.689,0 -2.92,1.365 -2.92,2.965" /></g><g
       transform="translate(116.2591,67.1879)"
       id="g132"
       style="fill:#ffffff"><path
         inkscape:connector-curvature="0"
         id="path134"
         style="fill:#ffffff;fill-opacity:1;fill-rule:nonzero;stroke:none"
         d="m 0,0 0.548,0 0,-1.063 c 0.381,0.671 1.018,1.198 2.058,1.198 1.443,0 2.282,-0.985 2.282,-2.35 l 0,-3.489 -0.548,0 0,3.389 c 0,1.174 -0.66,1.946 -1.812,1.946 -1.119,0 -1.98,-0.85 -1.98,-2.036 l 0,-3.299 -0.548,0 z" /></g><g
       transform="translate(59.0022,49.2108)"
       id="g136"
       style="fill:#ffffff"><path
         inkscape:connector-curvature="0"
         id="path138"
         style="fill:#ffffff;fill-opacity:1;fill-rule:nonzero;stroke:none"
         d="m 0,0 0.38,0.436 c 0.861,-0.793 1.655,-1.163 2.808,-1.163 1.173,0 1.979,0.661 1.979,1.555 l 0,0.022 c 0,0.828 -0.437,1.308 -2.215,1.666 -1.879,0.38 -2.64,1.017 -2.64,2.203 l 0,0.023 c 0,1.162 1.063,2.059 2.517,2.059 1.142,0 1.891,-0.315 2.685,-0.951 L 5.145,5.391 C 4.406,6.027 3.668,6.273 2.807,6.273 1.655,6.273 0.895,5.615 0.895,4.799 l 0,-0.024 C 0.895,3.947 1.319,3.445 3.176,3.064 4.988,2.695 5.749,2.047 5.749,0.906 l 0,-0.023 C 5.749,-0.381 4.664,-1.254 3.154,-1.254 1.901,-1.254 0.939,-0.84 0,0" /></g><g
       transform="translate(65.9339,46.4921)"
       id="g140"
       style="fill:#ffffff"><path
         inkscape:connector-curvature="0"
         id="path142"
         style="fill:#ffffff;fill-opacity:1;fill-rule:nonzero;stroke:none"
         d="M 0,0 0.19,0.482 C 0.492,0.336 0.738,0.27 1.164,0.27 c 0.593,0 0.983,0.345 1.409,1.341 l -2.74,5.67 0.637,0 2.372,-5.099 2.057,5.099 0.604,0 L 3.031,1.377 C 2.528,0.18 1.946,-0.246 1.13,-0.246 0.694,-0.246 0.381,-0.168 0,0" /></g><g
       transform="translate(72.2269,48.785)"
       id="g144"
       style="fill:#ffffff"><path
         inkscape:connector-curvature="0"
         id="path146"
         style="fill:#ffffff;fill-opacity:1;fill-rule:nonzero;stroke:none"
         d="m 0,0 0.324,0.437 c 0.627,-0.482 1.321,-0.749 2.047,-0.749 0.773,0 1.376,0.425 1.376,1.083 l 0,0.024 c 0,0.67 -0.716,0.916 -1.51,1.141 C 1.309,2.203 0.28,2.484 0.28,3.502 l 0,0.021 c 0,0.918 0.772,1.579 1.879,1.579 0.682,0 1.454,-0.247 2.025,-0.627 L 3.893,4.016 C 3.367,4.363 2.74,4.586 2.137,4.586 1.354,4.586 0.839,4.162 0.839,3.59 l 0,-0.022 C 0.839,2.932 1.61,2.695 2.428,2.461 3.345,2.203 4.307,1.869 4.307,0.861 l 0,-0.021 C 4.307,-0.178 3.434,-0.828 2.338,-0.828 1.51,-0.828 0.604,-0.492 0,0" /></g><g
       transform="translate(78.4651,49.535)"
       id="g148"
       style="fill:#ffffff"><path
         inkscape:connector-curvature="0"
         id="path150"
         style="fill:#ffffff;fill-opacity:1;fill-rule:nonzero;stroke:none"
         d="m 0,0 0,3.736 -0.827,0 0,0.502 0.827,0 0,1.824 0.549,0 0,-1.824 2.002,0 0,-0.502 -2.002,0 0,-3.679 c 0,-0.817 0.48,-1.108 1.14,-1.108 0.28,0 0.515,0.055 0.839,0.201 l 0,-0.515 C 2.237,-1.498 1.958,-1.566 1.6,-1.566 0.716,-1.566 0,-1.086 0,0" /></g><g
       transform="translate(86.8079,51.1893)"
       id="g152"
       style="fill:#ffffff"><path
         inkscape:connector-curvature="0"
         id="path154"
         style="fill:#ffffff;fill-opacity:1;fill-rule:nonzero;stroke:none"
         d="M 0,0 C -0.078,1.152 -0.738,2.215 -2.047,2.215 -3.177,2.215 -4.049,1.266 -4.149,0 Z m -4.731,-0.279 0,0.023 c 0,1.654 1.163,2.975 2.707,2.975 1.599,0 2.617,-1.297 2.617,-2.987 0,-0.101 0,-0.134 -0.011,-0.224 l -4.731,0 c 0.1,-1.42 1.118,-2.248 2.236,-2.248 0.884,0 1.488,0.392 1.958,0.896 l 0.38,-0.336 c -0.581,-0.627 -1.264,-1.074 -2.36,-1.074 -1.499,0 -2.796,1.197 -2.796,2.975" /></g><g
       transform="translate(88.9964,53.7733)"
       id="g156"
       style="fill:#ffffff"><path
         inkscape:connector-curvature="0"
         id="path158"
         style="fill:#ffffff;fill-opacity:1;fill-rule:nonzero;stroke:none"
         d="m 0,0 0.548,0 0,-1.018 c 0.369,0.594 0.884,1.153 1.901,1.153 0.996,0 1.612,-0.571 1.924,-1.231 0.369,0.639 0.984,1.231 2.059,1.231 1.353,0 2.192,-0.951 2.192,-2.383 l 0,-3.455 -0.549,0 0,3.389 c 0,1.23 -0.638,1.945 -1.688,1.945 -0.962,0 -1.801,-0.738 -1.801,-2.012 l 0,-3.322 -0.548,0 0,3.422 c 0,1.185 -0.649,1.912 -1.667,1.912 -1.017,0 -1.823,-0.895 -1.823,-2.047 l 0,-3.287 -0.548,0 z" /></g><path
       inkscape:connector-curvature="0"
       id="path160"
       style="fill:#ffffff;fill-opacity:1;fill-rule:nonzero;stroke:none"
       d="m 59.448,34.115 1.639,0 0,-14.526 -1.639,0 z" /><g
       transform="translate(71.4192,21.0624)"
       id="g162"
       style="fill:#ffffff"><path
         inkscape:connector-curvature="0"
         id="path164"
         style="fill:#ffffff;fill-opacity:1;fill-rule:nonzero;stroke:none"
         d="m 0,0 c 2.2,0 3.569,0.975 3.569,2.594 l 0,0.041 c 0,1.578 -1.328,2.49 -3.859,2.49 l -4.587,0 0,-5.125 z m -0.581,6.578 c 1.972,0 3.341,0.893 3.341,2.594 l 0,0.042 c 0,1.432 -1.142,2.365 -3.216,2.365 l -4.421,0 0,-5.001 z m -5.914,6.475 6.183,0 c 1.661,0 2.968,-0.478 3.798,-1.287 C 4.088,11.144 4.42,10.376 4.42,9.441 L 4.42,9.4 C 4.42,7.512 3.258,6.537 2.116,6.039 3.839,5.52 5.229,4.523 5.229,2.531 l 0,-0.041 C 5.229,0 3.134,-1.474 -0.042,-1.474 l -6.453,0 z" /></g><g
       transform="translate(79.4895,34.1151)"
       id="g166"
       style="fill:#ffffff"><path
         inkscape:connector-curvature="0"
         id="path168"
         style="fill:#ffffff;fill-opacity:1;fill-rule:nonzero;stroke:none"
         d="m 0,0 10.5,0 0,-1.494 -8.86,0 0,-4.96 7.926,0 0,-1.494 -7.926,0 0,-5.084 8.964,0 0,-1.494 -10.604,0 z" /></g><path
       inkscape:connector-curvature="0"
       id="path170"
       style="fill:#ffffff;fill-opacity:1;fill-rule:nonzero;stroke:none"
       d="m 93.535,34.115 1.64,0 0,-14.526 -1.64,0 z" /><g
       transform="translate(98.4739,21.705)"
       id="g172"
       style="fill:#ffffff"><path
         inkscape:connector-curvature="0"
         id="path174"
         style="fill:#ffffff;fill-opacity:1;fill-rule:nonzero;stroke:none"
         d="m 0,0 1.017,1.204 c 1.515,-1.37 2.967,-2.055 4.98,-2.055 1.951,0 3.238,1.038 3.238,2.47 l 0,0.041 C 9.235,3.01 8.509,3.777 5.458,4.421 2.117,5.146 0.581,6.227 0.581,8.612 l 0,0.042 c 0,2.283 2.014,3.963 4.773,3.963 2.117,0 3.631,-0.601 5.105,-1.784 L 9.505,9.567 c -1.35,1.1 -2.698,1.578 -4.193,1.578 -1.887,0 -3.091,-1.039 -3.091,-2.346 l 0,-0.041 C 2.221,7.389 2.968,6.62 6.163,5.936 9.401,5.23 10.896,4.047 10.896,1.826 l 0,-0.041 c 0,-2.49 -2.077,-4.109 -4.96,-4.109 C 3.632,-2.324 1.743,-1.556 0,0" /></g><g
       transform="translate(23.9134,93.2386)"
       id="g176"><path
         inkscape:connector-curvature="0"
         id="path178"
         style="fill:#373535;fill-opacity:1;fill-rule:nonzero;stroke:none"
         d="M 0,0 C 0.412,0.309 0.567,1.805 1.134,2.372 1.702,2.939 3.218,4.537 3.285,5.672 3.351,6.806 2.423,5.414 2.114,4.898 1.805,4.383 0.722,3.351 -0.206,3.3 -1.134,3.248 -3.867,5.104 -4.434,4.228 c 0,0 1.367,-1.031 2.256,-1.392 C -1.289,2.475 -0.464,2.114 -0.619,1.289 -0.773,0.464 -0.412,-0.309 0,0" /></g><g
       transform="translate(36.6237,88.9895)"
       id="g180"><path
         inkscape:connector-curvature="0"
         id="path182"
         style="fill:#373535;fill-opacity:1;fill-rule:nonzero;stroke:none"
         d="m 0,0 c 0,0 -1.486,-4.776 -1.64,-7.395 -0.154,-2.619 -0.462,-6.856 0.077,-9.398 0.54,-2.542 0,-3.852 0.308,-5.392 0.309,-1.541 0.54,-8.397 0.617,-11.555 0.053,-2.19 0.143,-4.859 0.04,-6.856 -0.076,-0.001 -0.155,0.002 -0.238,0.006 -0.229,2.922 -0.727,9.513 -0.727,11.472 0,2.542 -0.539,7.934 -0.693,9.937 -0.154,2.003 -0.231,5.546 -0.847,9.09 C -3.72,-6.548 0,1.745 0,1.745 Z m -3.797,-24.881 c -0.693,2.311 -0.539,3.851 -1.617,6.316 -1.079,2.465 -1.926,3.004 -2.542,4.237 -0.617,1.232 0.462,3.389 1.463,4.776 1.002,1.387 1.233,2.85 1.618,4.083 0.385,1.232 3.389,6.137 3.389,6.137 -0.936,-2.439 -3.081,-9.065 -3.697,-10.759 -0.616,-1.695 -0.616,-4.314 0.308,-5.855 0.924,-1.54 0.77,-4.622 1.386,-6.856 0.617,-2.234 0.925,-6.547 1.156,-10.091 0.152,-2.328 -0.292,-3.975 -0.616,-4.842 -0.079,1.737 -0.231,4.644 -0.231,5.844 0,1.617 0.077,4.699 -0.617,7.01 m -4.93,14.944 c -1.54,-2.542 -0.924,-6.086 -0.924,-6.086 -0.616,1.002 -1.464,3.852 -1.079,5.315 0.386,1.464 2.465,3.698 3.313,5.547 0.847,1.849 1.309,2.773 2.388,3.851 1.078,1.079 2.08,2.157 2.08,2.157 0,0 -0.077,-1.001 -0.848,-2.002 -0.77,-1.002 -1.54,-1.233 -2.08,-3.005 -0.539,-1.772 -1.309,-3.235 -2.85,-5.777 m 15.974,19.931 0,3.623 -3.624,0 0,3.624 0,3.623 -3.623,0 c 0,-0.848 -0.238,-1.438 -0.934,-2.693 -0.696,-1.254 -0.337,-2.766 -0.337,-2.766 -0.073,0.369 -0.922,1.254 0.074,2.877 0.996,1.623 0.559,3.652 0.559,3.652 -0.143,-1.144 -0.559,-1.66 -1.592,-2.73 -1.033,-1.069 -1.069,-2.766 -1.069,-2.766 0,0 -0.148,1.955 0.35,2.434 0.497,0.48 0.719,2.324 0.719,2.324 -0.295,-1.143 -1.143,-0.811 -1.918,-2.545 -0.775,-1.734 -0.282,-2.988 -0.282,-2.988 -0.319,0.406 -0.415,1.586 -0.415,1.586 -0.401,-1.18 0.144,-2.582 0.365,-4.574 0.164,-1.475 -0.114,-1.798 -0.27,-1.867 -0.058,-0.009 -0.095,-0.019 -0.095,-0.019 l -0.274,-0.394 c -2.238,0.561 -3.877,6.899 -4.343,8.91 -0.74,3.19 -0.464,6.135 -2.011,7.476 -1.547,1.341 -6.032,2.836 -7.528,2.062 -1.495,-0.773 -3.712,-5.31 -3.557,-9.487 0.154,-4.176 1.134,-7.424 2.732,-9.177 0,0 -2.268,4.124 -1.959,8.92 0.309,4.795 1.547,6.651 2.269,7.321 0.722,0.67 3.867,1.495 6.135,0.155 2.269,-1.341 2.724,-3.579 2.982,-5.229 0.246,-1.579 1.784,-8.485 4.08,-12.673 L -7.073,7.592 c 0,0 -0.161,-0.484 -1.098,-1.647 -0.936,-1.162 -1.841,-1.744 -2.68,-3.358 -0.84,-1.615 -0.614,-4.263 -0.84,-5.135 -0.226,-0.872 -0.323,-1.938 -0.065,-1.97 0.259,-0.032 0.259,0.42 0.549,1.324 0.291,0.904 0.743,1.808 1.389,3.003 0.646,1.195 3.262,3.488 3.875,3.94 0.614,0.452 0.937,1.195 1.809,1.615 0.552,0.266 1.497,0.475 2.085,0.797 -0.723,-1.813 -1.815,-4.713 -2.98,-6.084 -1.622,-1.908 -2.619,-3.235 -3.775,-4.468 -1.155,-1.232 -2.003,-2.157 -3.851,-5.007 -1.133,-1.746 -1.366,-3.167 -1.38,-4.012 -0.926,0.504 -2.065,1.035 -2.588,1.035 -0.544,0 0.385,-3.182 1.642,-4.285 0,0 -0.051,-0.41 0.077,-0.616 0,0 -0.282,-0.692 0.026,-1.026 0.308,-0.333 0.641,-0.59 1,-0.847 0.36,-0.256 1.155,-0.256 1.617,0.514 0.344,0.573 0.729,0.731 1.148,0.684 0.414,-1.601 1.316,-4.874 2.155,-6.468 0,0 -2.169,3.293 -3.077,3.407 -0.908,0.113 -1.249,-1.249 -2.611,1.135 0,0 0.454,-3.633 0.227,-5.563 -0.227,-1.93 -0.227,-3.52 0.113,-3.406 0.341,0.113 0,2.043 0.909,2.725 0.908,0.681 1.589,-1.136 2.838,-1.136 1.249,0 1.59,1.59 3.179,-1.135 1.59,-2.725 2.044,-2.725 2.044,-2.725 0,0 0.794,3.633 -1.136,5.79 -1.93,2.158 -2.952,2.498 -4.201,7.267 0.593,-0.216 0.901,-0.062 0.336,0.63 -0.564,0.693 -1.129,0.77 -1.488,1.489 -0.227,0.453 -0.301,0.876 -0.505,1.248 -0.985,3.29 0.445,5.064 0.445,5.064 0,-4.16 2.465,-9.244 3.852,-10.399 1.386,-1.156 2.773,-3.544 3.312,-5.47 0.539,-1.926 1.078,-5.161 1.078,-7.241 0,-1.607 -0.57,-4.276 -0.83,-5.409 -0.024,-0.033 -0.049,-0.066 -0.073,-0.101 -0.158,1.351 -0.444,3.66 -0.677,4.748 -0.34,1.589 -1.476,2.611 -2.043,3.065 -0.568,0.454 -2.158,-0.454 -2.612,-0.454 -0.454,0 -0.795,1.249 -2.498,0.908 -1.703,-0.34 -1.816,-1.93 -1.476,-3.292 0.341,-1.363 0.568,-3.974 1.363,-4.201 0.795,-0.227 -0.908,3.406 0.795,3.179 1.703,-0.227 3.065,-0.908 4.087,-0.227 0.948,0.632 1.798,-0.111 2.641,-4.477 -0.208,-0.448 -0.38,-0.932 -0.531,-1.368 -0.06,1.036 -0.2,2.365 -0.521,3.006 -0.567,1.136 -0.908,0 -1.703,-0.34 -0.794,-0.341 -1.703,-0.227 -2.497,-1.022 -0.795,-0.795 -1.817,-0.681 -1.817,-0.681 0,0 0.795,-2.158 1.362,-2.498 0.568,-0.341 2.158,0.227 2.498,0.681 0.298,0.398 1.553,1.23 2.395,0.061 -0.042,-0.108 -0.084,-0.208 -0.124,-0.288 -0.247,-0.494 -0.328,-1.065 -0.458,-1.894 -1.108,-0.646 -2.904,-1.697 -3.516,-2.08 0,0 0.114,-2.044 0.795,-2.271 0,0 1.071,-0.061 2.023,-0.333 0.156,-1.594 0.821,-2.748 -0.093,-3.413 0,0 -1.476,0.227 -1.816,-2.271 -0.341,-2.498 -0.568,-6.018 -0.114,-7.267 0.454,-1.248 2.044,-3.746 2.384,-4.768 0.341,-1.022 2.044,-3.974 6.699,-3.974 l 3.623,0 3.624,0 0,3.623 -3.624,0 0,3.624 -3.623,0 0,3.623 3.623,0 3.624,0 0,3.623 -3.624,0 0,3.624 -3.623,0 0,3.623 3.623,0 0,3.624 3.624,0 0,3.623 0,0 0,3.623 -3.624,0 0,3.624 0,3.623 -3.623,0 0,7.247 3.623,0 0,3.623 -3.623,0 0,3.624 3.623,0 3.624,0 0,3.623 -3.624,0 0,3.623 -3.623,0 0,3.624 3.623,0 0,3.623 0,3.623 -3.623,0 0,2.159 0,1.465 3.623,0 0,3.623 z" /></g><path
       inkscape:connector-curvature="0"
       id="path184"
       style="fill:#373535;fill-opacity:1;fill-rule:nonzero;stroke:none"
       d="m 43.87,95.36 -3.623,0 0,-3.623 3.623,0 z" /><path
       inkscape:connector-curvature="0"
       id="path186"
       style="fill:#373535;fill-opacity:1;fill-rule:nonzero;stroke:none"
       d="m 43.87,62.75 -3.623,0 0,-3.623 3.623,0 z" /><path
       inkscape:connector-curvature="0"
       id="path188"
       style="fill:#373535;fill-opacity:1;fill-rule:nonzero;stroke:none"
       d="m 43.87,41.01 -3.623,0 0,-3.623 3.623,0 z" /><path
       inkscape:connector-curvature="0"
       id="path190"
       style="fill:#373535;fill-opacity:1;fill-rule:nonzero;stroke:none"
       d="m 36.624,62.75 3.623,0 0,3.623 -3.623,0 z" /><path
       inkscape:connector-curvature="0"
       id="path192"
       style="fill:#373535;fill-opacity:1;fill-rule:nonzero;stroke:none"
       d="m 40.247,88.113 3.623,0 0,3.623 -3.623,0 z" /><path
       inkscape:connector-curvature="0"
       id="path194"
       style="fill:#373535;fill-opacity:1;fill-rule:nonzero;stroke:none"
       d="m 40.247,66.373 3.623,0 0,3.623 -3.623,0 z" /><path
       inkscape:connector-curvature="0"
       id="path196"
       style="fill:#373535;fill-opacity:1;fill-rule:nonzero;stroke:none"
       d="m 40.247,41.01 3.623,0 0,3.623 -3.623,0 z" /><g
       transform="translate(40.247,37.3864)"
       id="g198"><path
         inkscape:connector-curvature="0"
         id="path200"
         style="fill:#373535;fill-opacity:1;fill-rule:nonzero;stroke:none"
         d="m 0,0 0,-3.623 3.623,0 3.624,0 0,3.623 0,3.623 -3.624,0 0,-3.623 z" /></g><g
       transform="translate(40.247,30.1396)"
       id="g202"><path
         inkscape:connector-curvature="0"
         id="path204"
         style="fill:#373535;fill-opacity:1;fill-rule:nonzero;stroke:none"
         d="m 0,0 0,-3.623 3.623,0 0,-3.624 3.624,0 0,3.624 0,3.623 -3.624,0 z" /></g><g
       transform="translate(43.8704,109.8537)"
       id="g206"><path
         inkscape:connector-curvature="0"
         id="path208"
         style="fill:#373535;fill-opacity:1;fill-rule:nonzero;stroke:none"
         d="m 0,0 0,-3.623 0,-3.624 3.623,0 0,3.624 0,3.623 z" /></g><path
       inkscape:connector-curvature="0"
       id="path210"
       style="fill:#373535;fill-opacity:1;fill-rule:nonzero;stroke:none"
       d="m 43.87,91.737 3.623,0 0,3.623 -3.623,0 z" /><g
       transform="translate(43.8704,80.8668)"
       id="g212"><path
         inkscape:connector-curvature="0"
         id="path214"
         style="fill:#373535;fill-opacity:1;fill-rule:nonzero;stroke:none"
         d="m 0,0 3.623,0 0,3.623 0,3.624 -3.623,0 0,-3.624 z" /></g><g
       transform="translate(43.8704,73.62)"
       id="g216"><path
         inkscape:connector-curvature="0"
         id="path218"
         style="fill:#373535;fill-opacity:1;fill-rule:nonzero;stroke:none"
         d="m 0,0 0,-3.623 3.623,0 0,3.623 0,3.623 -3.623,0 z" /></g><path
       inkscape:connector-curvature="0"
       id="path220"
       style="fill:#373535;fill-opacity:1;fill-rule:nonzero;stroke:none"
       d="m 43.87,55.503 3.623,0 0,3.623 -3.623,0 z" /><path
       inkscape:connector-curvature="0"
       id="path222"
       style="fill:#373535;fill-opacity:1;fill-rule:nonzero;stroke:none"
       d="m 43.87,44.633 3.623,0 0,3.623 -3.623,0 z" /><path
       inkscape:connector-curvature="0"
       id="path224"
       style="fill:#373535;fill-opacity:1;fill-rule:nonzero;stroke:none"
       d="m 47.494,98.984 3.623,0 0,3.623 -3.623,0 z" /><path
       inkscape:connector-curvature="0"
       id="path226"
       style="fill:#373535;fill-opacity:1;fill-rule:nonzero;stroke:none"
       d="m 47.494,91.737 3.623,0 0,3.623 -3.623,0 z" /><path
       inkscape:connector-curvature="0"
       id="path228"
       style="fill:#373535;fill-opacity:1;fill-rule:nonzero;stroke:none"
       d="m 47.494,80.867 3.623,0 0,3.623 -3.623,0 z" /><path
       inkscape:connector-curvature="0"
       id="path230"
       style="fill:#373535;fill-opacity:1;fill-rule:nonzero;stroke:none"
       d="m 47.494,62.75 3.623,0 0,3.623 -3.623,0 z" /><path
       inkscape:connector-curvature="0"
       id="path232"
       style="fill:#373535;fill-opacity:1;fill-rule:nonzero;stroke:none"
       d="m 47.494,55.503 3.623,0 0,3.623 -3.623,0 z" /><path
       inkscape:connector-curvature="0"
       id="path234"
       style="fill:#373535;fill-opacity:1;fill-rule:nonzero;stroke:none"
       d="m 47.494,48.256 3.623,0 0,3.623 -3.623,0 z" /><path
       inkscape:connector-curvature="0"
       id="path236"
       style="fill:#373535;fill-opacity:1;fill-rule:nonzero;stroke:none"
       d="m 47.494,33.763 3.623,0 0,3.623 -3.623,0 z" /><path
       inkscape:connector-curvature="0"
       id="path238"
       style="fill:#373535;fill-opacity:1;fill-rule:nonzero;stroke:none"
       d="m 51.117,106.23 3.623,0 0,3.623 -3.623,0 z" /><path
       inkscape:connector-curvature="0"
       id="path240"
       style="fill:#373535;fill-opacity:1;fill-rule:nonzero;stroke:none"
       d="m 51.117,73.62 3.623,0 0,3.623 -3.623,0 z" /><path
       inkscape:connector-curvature="0"
       id="path242"
       style="fill:#373535;fill-opacity:1;fill-rule:nonzero;stroke:none"
       d="m 51.117,41.01 3.623,0 0,3.623 -3.623,0 z" /><path
       inkscape:connector-curvature="0"
       id="path244"
       style="fill:#373535;fill-opacity:1;fill-rule:nonzero;stroke:none"
       d="m 51.117,33.763 3.623,0 0,3.623 -3.623,0 z" /><path
       inkscape:connector-curvature="0"
       id="path246"
       style="fill:#373535;fill-opacity:1;fill-rule:nonzero;stroke:none"
       d="m 51.117,26.516 3.623,0 0,3.623 -3.623,0 z" /></g></svg>