<?xml version="1.0" encoding="utf-8"?>
<!-- Generator: Adobe Illustrator 18.1.0, SVG Export Plug-In . SVG Version: 6.00 Build 0)  -->
<svg version="1.1" id="Layer_1" xmlns="http://www.w3.org/2000/svg" xmlns:xlink="http://www.w3.org/1999/xlink" x="0px" y="0px"
	 viewBox="0 0 2000 1500" enable-background="new 0 0 2000 1500" xml:space="preserve">
<g>
	<g>
		
			<image overflow="visible" opacity="0.29" enable-background="new    " width="817" height="813" xlink:href="4AB3AEB94015ED11.png"  transform="matrix(1.7543 0.7327 -0.7363 1.7629 595.9182 -249.1969)">
		</image>
		<g>
			<circle fill="#FFFFFF" cx="992" cy="734.6" r="682.3"/>
		</g>
	</g>
	<circle fill="#8C8C8C" cx="989.9" cy="739.7" r="615.3"/>
	
		<linearGradient id="SVGID_1_" gradientUnits="userSpaceOnUse" x1="14.6524" y1="1408.9664" x2="169.0944" y2="1408.9664" gradientTransform="matrix(-0.6704 7.942 7.942 0.6704 -10141.4551 -899.5902)">
		<stop  offset="0" style="stop-color:#FFFFFF;stop-opacity:0"/>
		<stop  offset="0.3168" style="stop-color:#B2B2B2;stop-opacity:0.3168"/>
		<stop  offset="1" style="stop-color:#000000"/>
	</linearGradient>
	<circle opacity="0.5" fill="url(#SVGID_1_)" enable-background="new    " cx="989.9" cy="739.7" r="615.3"/>
	<g>
		<g>
			<path fill="#DDDDDC" d="M691.3,1103L691.3,1103c0.3-0.7,0.6-1.5,0.6-1.5s0.3-0.7,0.6-1.5s0.6-1.5,0.9-2.2
				c0.3-0.7,0.6-1.5,0.9-2.2c0.3-0.7,0.3-0.7,0.6-1.5c0.6-1.5,2.6-4.1,4.8-7.5c2.3-3.4,4.8-7.5,7.4-11.6c2.6-4.1,5.5-8.9,8.3-13.8
				c2.9-4.8,5.8-9.7,8.3-13.8c2.6-4.1,5.2-8.2,7.4-11.6c2.3-3.4,3.5-6.3,4.8-7.5c2-2.6,4.7-5,7.7-8s6.7-5.8,10.8-9.3
				c4-3.5,7.8-6.2,12.3-8.7c4.5-2.4,8.5-5.9,12.7-7.7c4.5-2.4,8.3-3.4,12.5-5.1c3.9-1,7.4-1.2,9.9-1c4.3,0.1,7.2,1.3,8.8,3.7
				c1.9,1.7,2.1,5.2,1.8,10.2c-0.4,5-2.5,10.2-4.7,15.3c-2.9,4.8-5.8,9.7-10.1,13.9c-4.4,4.2-8.4,7.7-13.2,10.9s-10.3,6.1-15.2,7.5
				c-5.2,2.1-10.9,3.2-15.9,2.9c-5.3,0.4-10.4,0-15.5-2.2l-2.7,2.3l-30.1,55.6c-0.3,0.7-1.7,1.9-3.4,2s-3.6,0.2-4.3-0.1
				c-1.8,0.1-2.9-1.2-4.4-1.8C691.7,1108.4,691.4,1104.8,691.3,1103z M786.8,1025.4c6.4-5.1,10.1-9.6,12.3-13
				c2.3-3.4,3.2-5.6,2.3-7.7c-1.2-1.3-2.6-2-5.9-2.5c-2.5-0.2-6.4,0.8-10.2,1.8c-3.9,1-7.3,3-11.8,5.4c-4.5,2.4-7.2,4.8-10.2,7.8
				c-1.3,1.2-2.7,2.3-4.4,4.2s-3.3,3.8-5.7,5.4c-1.7,1.9-3.3,3.8-4.7,5c-1.3,1.2-2,2.6-2,2.6l-0.8,4c8.3,0.9,15.4,0.4,21.3-1.5
				C774.6,1035.9,780.8,1031.5,786.8,1025.4z"/>
			<path fill="#DDDDDC" d="M856.5,1057.1c0.5-3.2,2-6.9,3.3-9.9c2-2.6,3.9-5.3,6.2-8.6c2-2.6,3.9-5.3,5.9-7.9c2-2.6,3.2-5.6,3.4-8.1
				c0.3-0.7-0.1-1.8,0.2-2.5c0.3-0.7-0.1-1.8,0.2-2.5c-0.4-1-0.1-1.8-0.5-2.8c-0.4-1-1.2-1.3-2.2-0.9c0,0,0,0-0.7-0.3
				c0,0-0.7-0.3,0,0c-1.7,1.9-4.4,4.2-7.1,6.6c-2.7,2.3-5.7,5.4-8.4,7.7c-2.7,2.3-5.4,4.7-9.1,7.4c-2.7,2.3-5.1,3.9-7.5,5.5
				c-1.3,1.2-3.7,2.8-6.1,4.3c-2.7,2.3-5.1,3.9-8.5,5.9c-2.7,2.3-5.1,3.9-7.2,4.8c-2.4,1.6-3.4,2-3.4,2l-7.7-8.4
				c0.7,0.3,2.5,0.2,3.6-0.2c1-0.4,2.1-0.9,3.1-1.3c7.6-3.7,14.8-8.5,21.5-14.3c6.7-5.8,13.5-11.6,19.8-18.5c0.3-0.7,1.3-1.2,2-2.6
				c1.3-1.2,2.3-3.4,4.2-6c1.7-1.9,3.3-3.8,4.5-6.7c1.7-1.9,2.6-4.1,2.9-4.8c0.6-1.5,2-2.6,1.5-3.7c0.3-0.7,0.6-1.5,0.9-2.2
				c0.3-0.7,0.3-0.7,1.3-1.2c0.7,0.3,1.8-0.1,3.6-0.2c0,0,0.7,0.3,1.5,0.6c0.7,0.3,1.5,0.6,1.5,0.6c1.3,3.1,2.6,6.3,3.1,9.1
				c0.5,2.8,1.4,4.9,2,7.7c0.9,2.1,0.7,4.6,1.2,7.4c-0.2,2.5-0.4,5-0.6,7.5c-2.3,3.4-4.1,7.8-6.7,11.9c-2.6,4.1-4.1,7.8-6.4,11.2
				c-1.5,3.7-2.8,6.6-3.3,9.9c-0.5,3.2-0.4,5,1.2,7.4c1.6,2.4,3.8,3.3,8.1,3.4c4,0.8,9.3,0.4,17-1.5c1.9,1.7,1.6,2.4,0.2,3.6
				c-1.3,1.2-4.5,2.4-7.3,3c-3.1,1.3-6.7,1.5-11,1.5c-4.3-0.1-7.1,0.5-10.1-0.7c-2.5-0.2-4-0.8-5.1-2.2c-1.5-0.6-2.6-2-3.5-4
				c-1.2-1.3-1.3-3.1-1.4-4.9C855.7,1061.1,855.8,1058.6,856.5,1057.1z"/>
			<path fill="#DDDDDC" d="M889.9,1059.8c0.3-0.7,0.6-1.5,0.5-3.2c0.6-1.5,0.2-2.5,0.5-3.2c5.2-8.2,11-16.1,18.1-22.7
				c7.1-6.6,14.8-12.8,22.8-17.3c0,0,0.7,0.3,1-0.4c0.7,0.3,1-0.4,1-0.4c3.2,0.5,5.5,1.4,7.4,3.1c1.9,1.7,3.5,4,4.3,6.1
				c0.9,2.1,1.4,4.9,2,7.7c0.5,2.8,0.4,5.3,0.2,7.8c-0.4,5-2.2,9.4-5.1,14.3c-2.9,4.8-6.5,9.4-10.6,12.9c-4,3.5-8.8,6.7-14,8.8
				c-5.2,2.1-9.8,2.8-14.8,2.4s-8.4-2.6-10.7-5.3C889.7,1068.4,889.5,1064.9,889.9,1059.8z M903.8,1059.6c-0.6,1.5-0.2,2.5,1.3,3.1
				c0.7,0.3,2.2,0.9,2.9,1.2c3.2,0.5,6.1-0.1,9.2-1.3c3.1-1.3,5.5-2.9,8.2-5.2c2.7-2.3,4.7-5,6.6-7.6c2-2.6,2.5-5.9,2.6-8.4
				c0.6-1.5,0.2-2.5,0.1-4.3c-0.1-1.8-0.2-3.6-0.7-4.6c-0.4-1-1.6-2.4-2.8-3.7c-1.5-0.6-2.9-1.2-5.5-1.4c-1.8,0.1-4.2,1.7-6.1,4.3
				c-2.7,2.3-5,5.7-7.2,9.1s-4.5,6.7-6.1,10.4C905.9,1054.5,904.7,1057.4,903.8,1059.6z"/>
			<path fill="#DDDDDC" d="M1003.4,1079.6c-1.8-5.9-1.9-12-0.2-18.2c1.4-5.5,4.3-10.3,8.7-14.5c3.6-4.5,8.4-7.7,12.9-10.2
				c4.5-2.4,9.4-3.9,13.2-4.8c4.6-0.7,7.8-0.2,9.7,1.5c2.6,2,3.2,4.8,2.1,9.5c-0.4,5-2.6,8.4-5.7,11.5c-3,3.1-6.7,5.8-11.2,8.3
				c-3.7,2.8-7.2,4.8-10.6,6.8c-3.4,2-5.1,3.9-5,5.7c-0.3,0.7,0.1,1.8,1.6,2.4c1.5,0.6,2.9,1.2,4.4,1.8c1.5,0.6,3.2,0.5,4.7,1.1
				c1.5,0.6,3.2,0.5,4,0.8c11.7-1.2,20.6-1.8,25.6-1.4c6.1-0.1,9.3,0.4,10.8,1.1c1.5,0.6,0.9,2.1-1.2,2.9c-2.4,1.6-5.2,2.1-10.1,3.5
				c-3.9,1-9.2,1.3-14.8,2.4c-5.3,0.4-11.4,0.4-16.4,0c-5-0.4-10.5-1.8-14.2-3.3C1008,1085,1005.4,1083,1003.4,1079.6z
				 M1039.8,1042.1c-2.5-0.2-5-0.4-7.4,1.2c-2.1,0.9-4.5,2.4-6.1,4.3c-1.7,1.9-3.3,3.8-5,5.7c-1.7,1.9-2.6,4.1-3.5,6.3l0.7,0.3
				l0.7,0.3c1.8-0.1,3.6-0.2,5.9-1.8c2.1-0.9,4.5-2.4,7.2-4.8c2.4-1.6,4.4-4.2,6-6.1C1039.3,1045.4,1039.9,1043.9,1039.8,1042.1z"/>
			<path fill="#DDDDDC" d="M1107.2,1040c-3.7,2.8-7.8,6.2-11.8,9.7c-4.4,4.2-6.9,8.3-9.8,13.2c-2.9,4.8-4.7,9.3-5.1,14.3
				c-0.5,3.2,0.1,6.1,2,7.7c1.9,1.7,4.1,2.6,7.4,3.1s6.8,0.3,10.4,0c3.6-0.2,7.4-1.2,11-1.5c3.6-0.2,7.4-1.2,11-1.5
				c3.6-0.2,7.1-0.5,10.4,0c0.1,1.8-0.5,3.2-0.8,4c-0.6,1.5-1.7,1.9-2.3,3.4c-7,2.3-13.7,3.8-20.7,6.1c-6.7,1.5-13.8,2-21.3,1.5
				c-2.5-0.2-4-0.8-6.9-2c-2.2-0.9-4.1-2.6-6-4.2c-1.9-1.7-3.5-4-4.3-6.1c-0.9-2.1-1.4-4.9-1.2-7.4c0.7-5.8,1.8-10.5,3.9-15.6
				c2.2-5.1,4.7-9.3,8.3-13.8c3.6-4.5,6.9-8.3,11.7-11.5c4-3.5,8.8-6.7,14-8.8l0,0c2.1-0.9,4.2-1.7,6.3-2.6s4.9-1.4,6.4-0.8
				c1.8-0.1,4,0.8,5.1,2.2c1.2,1.3,2,3.4,1.5,6.7c-0.3,0.7,0.1,1.8-0.2,2.5s-0.2,2.5-0.5,3.2c-0.3,0.7-0.9,2.2-1.2,2.9
				c-0.3,0.7-0.6,1.5-1.7,1.9c-0.3,0.7-1,0.4-2.1,0.9c-1,0.4-1,0.4-2.1,0.9c-1,0.4-1.8,0.1-2.5-0.2l1.4-11.5
				C1114,1036,1110.9,1037.3,1107.2,1040z"/>
			<path fill="#DDDDDC" d="M1131.8,1086.6c0.5-3.2,1.3-7.2,3.3-9.9c1.5-3.7,3.8-7,5.8-9.7c2-2.6,4.5-6.7,6.5-9.4
				c2.3-3.4,4.2-6,5.5-8.9c-2.1,0.9-4.9,1.4-5.9,1.8c-1.8,0.1-3.6,0.2-5.8-0.7c0,0-0.7-0.3-2.5-0.2c-1.5-0.6-2.5-0.2-2.5-0.2
				c1.2-2.9,2.9-4.8,4.5-6.7c2.4-1.6,4.8-3.2,7.2-4.8c2.4-1.6,5.2-2.1,8-2.7c2.8-0.5,5.6-1.1,7.7-2c3.9-5.3,7.9-10.5,11-16.1
				c3.2-5.6,6.1-10.4,9.3-16c3.2-5.6,6.8-10.1,10.4-14.6c3.6-4.5,8.7-8.5,14.5-12.1l-0.3,6.8l-28.7,50.2c1-0.4,2.8-0.5,4.6-0.7
				c1.8-0.1,3.6-0.2,6.1-0.1c1.8-0.1,4.3,0.1,6.1-0.1c1.8-0.1,3.6-0.2,5.3-0.4c0,0,0.7,0.3,1-0.4c0.7,0.3,0.7,0.3,1.8-0.1
				c1.8-0.1,3.2,0.5,3.7,1.5c1.5,0.6,1.6,2.4,2.4,4.5c-8.5,1.6-16.2,3.6-22.9,5.1c-7,2.3-13.2,4.8-18.3,8.8
				c-5.8,3.6-10.5,8.6-14,14.9c-3.5,6.3-6.9,14.4-9.4,24.6c-0.3,0.7-0.2,2.5-0.5,3.2c-0.3,0.7,0.1,1.8-0.2,2.5
				c0.4,1,0.1,1.8,0.9,2.1c0.4,1,1.2,1.3,2.9,1.2c2.5,0.2,5,0.4,8.2-0.9c2.8-0.5,4.9-1.4,7.3-3c2.1-0.9,5.2-2.1,7.3-3
				c2.8-0.5,5.6-1.1,8.2-0.9c-0.2,2.5-2.2,5.1-4.8,7.5c-2.7,2.3-6.1,4.3-10,5.3c-3.9,1-7.7,2-11.6,2.9c-3.9,1-7.1,0.5-9.6,0.3
				c-2.5-0.2-4.7-1.1-5.9-2.5c-1.9-1.7-3.1-3-4.2-4.4c-0.9-2.1-1.7-4.2-2.6-6.3C1131.7,1090.9,1130.8,1088.8,1131.8,1086.6z"/>
			<path fill="#DDDDDC" d="M874.3,1157c0.4-5,2.2-9.4,4.1-13.9c1.8-4.4,5.2-8.2,7.7-12.3c3.3-3.8,6.6-7.6,10.4-10.4
				c4-3.5,7.8-6.2,11.5-9c1.3-1.2,3.7-2.8,6.1-4.3c2.7-2.3,6.1-4.3,9.9-7.1c3.7-2.8,7.5-5.5,12-8c3.7-2.8,8.2-5.2,12-8
				c3.7-2.8,7.2-4.8,9.9-7.1c3.4-2,4.8-3.2,6.9-4c0.6-1.5,2.2-5.1,4.7-9.3s4.4-8.5,7.3-13.4s4.7-9.3,7.3-13.4c2.6-4.1,3.8-7,5.5-8.9
				c0.6-1.5,2-2.6,2.9-4.8c0.9-2.2,2.3-3.4,3.6-4.5c1.3-1.2,2.7-2.3,4.8-3.2c1.3-1.2,3.1-1.3,5.6-1.1c-0.8,4-1.6,8-3.4,12.4
				c-1.8,4.4-3.7,8.8-6.6,13.7s-4.4,8.5-7,12.6c-2.6,4.1-4.5,6.7-5.5,8.9c0,0,0.7,0.3,1.5,0.6c0.7,0.3,0.7,0.3,1.5,0.6
				c3.2,0.5,6.1-0.1,8.9-0.6c2.8-0.5,6.4-0.8,8.9-0.6c0.7,0.3,2.5,0.2,3.2,0.5c0.7,0.3,2.2,0.9,2.3,2.7c-2,2.6-4.4,4.2-7.2,4.8
				s-5.9,1.8-9.5,2.1c-3.6,0.2-6.4,0.8-9.2,1.3c-2.8,0.5-5.2,2.1-7.2,4.8c-0.6,1.5-2.3,3.4-4.2,6c-2,2.6-4.2,6-6.5,9.4
				c-2.3,3.4-4.8,7.5-7.4,11.6s-5.2,8.2-7.4,11.6c-2.3,3.4-4.5,6.7-5.8,9.7c-2,2.6-2.9,4.8-3.5,6.3c-2.6,4.1-5.5,8.9-8.7,14.5
				c-3.2,5.6-6.4,11.2-10.3,16.4c-3.9,5.3-8.3,9.5-13.8,12.4c-4.8,3.2-10.4,4.3-17.2,4c-3.2-0.5-5.5-1.4-8.4-2.6
				c-1.9-1.7-4.5-3.6-5.7-5c-1.6-2.4-2.4-4.5-3-7.3C873.7,1162.8,873.8,1160.3,874.3,1157z M883.5,1155.7c0.1,1.8-0.5,3.2-0.4,5
				c0.1,1.8,0.2,3.6,0.7,4.6c0.4,1,1.6,2.4,2.8,3.7c1.2,1.3,2.9,1.2,5.1,2.2c5,0.4,8.9-0.6,13.4-3.1c4.5-2.4,8.5-5.9,12.1-10.5
				c3.6-4.5,6.9-8.3,9.8-13.2s5.2-8.2,7.4-11.6c1.2-2.9,3.5-6.3,6.4-11.2c2.6-4.1,4.7-9.3,7.3-13.4c2.6-4.1,4.1-7.8,5.7-11.5
				c1.2-2.9,2.9-4.8,2.2-5.1l0.4-5c-1,0.4-2.1,0.9-4.2,1.7c-2.1,0.9-3.1,1.3-3.4,2c-1.3,1.2-4.8,3.2-8.8,6.7
				c-4,3.5-8.8,6.7-13.6,9.9c-4.8,3.2-8.8,6.7-13.6,9.9c-4,3.5-7.5,5.5-8.8,6.7c-2,2.6-3.9,5.3-6.3,6.9c-2.4,1.6-4.4,4.2-6.3,6.9
				c-2,2.6-3.6,4.5-4.8,7.5C885.6,1148.7,884.3,1151.7,883.5,1155.7z M1015.4,978.4c0.3-0.7,0.6-1.5,0.9-2.2
				c0.3-0.7,1.3-1.2,2.4-1.6c1-0.4,2.1-0.9,2.8-0.5c1-0.4,1.8-0.1,2.5,0.2c1.8-0.1,2.9,1.2,3.4,2.3c0.1,1.8,0.5,2.8-0.1,4.3
				c-0.2,2.5-0.8,4-2.5,5.9c-1.3,1.2-3.4,2-5.9,1.8c-2.5-0.2-3.7-1.5-3.8-3.3C1015.4,982.7,1015.6,980.2,1015.4,978.4z"/>
			<g>
				<path fill="#DDDDDC" d="M579.2,668.4c2.6-8.4,5.7-15.8,10.3-22.5c4.5-6.7,9.5-12.4,14.9-17.1c5.4-4.7,11.2-8.3,17.5-10.8
					c6.3-2.6,11.5-4.7,17.5-4.8c5.3-0.4,10.1,0.7,14.5,2.6c4.4,1.8,7.2,5.6,9.6,10.1c-0.5,3.2-1.7,6.2-3.3,9.9c-2,2.6-4.2,6-6.2,8.6
					s-4.2,6-6.2,8.6s-2.8,6.6-3.6,10.6s-0.3,6.8,1.3,9.2c1.6,2.4,4.2,4.4,8.5,4.4c3.2,0.5,6.8,0.3,10.4,0s7.1-0.5,10.4,0
					c0.7,0.3,1.5,0.6,2.5,0.2c1.5,0.6,2.5,0.2,2.5,0.2c-2,2.6-4.4,4.2-7.5,5.5s-6.3,2.6-9.4,3.9s-6.7,1.5-10.2,1.8
					c-3.6,0.2-6.1,0.1-9.3-0.4c-2.5-0.2-4.7-1.1-6.6-2.8c-1.9-1.7-3.8-3.3-4.7-5.4c-0.9-2.1-2.4-4.5-2.3-7c-0.5-2.8-0.7-4.6-0.5-7.1
					c-2.7,2.3-5.4,4.7-8.1,7c-2.7,2.3-6.1,4.3-8.8,6.7c-3.4,2-6.6,3.3-9.7,4.6c-3.1,1.3-6.7,1.5-10.7,0.7s-6.9-2-9.7-5.8
					C580.1,676.5,579.1,672.7,579.2,668.4z M594.9,663.7c-0.3,0.7-0.2,2.5-0.1,4.3s0.5,2.8,2,3.4c3.6-0.2,8.5-1.6,13.2-4.8
					c5.2-2.1,10-5.3,14.4-9.6c4.8-3.2,8.4-7.7,11.7-11.5c3.6-4.5,5.5-8.9,5.5-13.2c0,0,0.3-0.7-0.1-1.8c0.3-0.7-0.4-1-0.1-1.8
					c-5-0.4-10.4,0-15.3,1.4c-5.6,1.1-10.1,3.5-14.9,6.7c-4.8,3.2-8.1,7-11.7,11.5C597.4,653.5,595.6,658,594.9,663.7z"/>
			</g>
		</g>
		<g>
			<g>
				<path fill="#444444" d="M723.4,866.8l40.9-81.4c8.2-15.6,32.2-4.7,23.7,11.6l-54.6,105.9c-4.9,11.8-9.4,14.2-15.9,13.2
					c-7.5-0.6-8.9-5.5-12.4-13.8l-26.2-86.1l-43.8,75.9c-5.2,8.2-8.8,12.7-16.3,12.2c-7.2-1.3-10.4-6.1-12.5-15.6l-26.2-117.2
					c-4.2-19,23.4-23,26.7-6.1l20,88.7l46.7-80.7c6.7-11.9,19.3-11,23.4,2L723.4,866.8z"/>
				<path fill="#444444" d="M805.7,794.1c2-17.3,29.4-14.5,27,3.5L818.2,915c-2,17.3-29.4,14.5-27-3.5L805.7,794.1z"/>
				<path fill="#444444" d="M859,800.8c1-6.5,7.4-11.6,14.2-11.3c6.5,1,11.6,7.4,10.6,13.9l-12.2,103.7l55.8,6.9
					c20.5,2.5,17,29.6-3.5,27l-68.1-8.6c-7.2-1.3-12.6-7-11.3-14.2L859,800.8z"/>
				<path fill="#444444" d="M971.1,946.1c-6.5-1-14-5.8-12.8-14.8l14.2-116.7c0.6-7.5,9.2-11.7,15.7-10.7l46.8,5.7
					c93.7,11.5,74.8,153.9-15.6,142.9L971.1,946.1z M998.6,830.6l-10.9,92.2l34.6,4.1c55.8,6.9,69.2-85.1,10.9-92.2L998.6,830.6z"/>
				<path fill="#444444" d="M1167.9,878l-9.4,76.4c-1.2,9-9.1,13.5-16.3,12.2c-6.5-1-11.9-6.7-10.7-15.7l13.9-116
					c1.1-10.8,10.6-12.9,14.1-13.1c5.8,0.7,9.3,4.7,11.7,9.2l37.8,66.7l54.3-57.6c7.7-8,24.2-2,22.6,12l-13.9,116
					c-1.2,9-7.3,13.4-14.1,13.1c-7.5-0.6-12.6-7-11.5-16l9.4-76.4l-39.5,38.8c-8.7,8.5-17.7,7.3-23.8-3L1167.9,878z"/>
				<path fill="#444444" d="M1308.2,986.7c-7.2-1.3-11.9-6.7-11.3-14.2l14.2-116.7c0.6-7.5,6.7-11.9,14.2-11.3l73.9,9.3
					c19.1,1.9,15.5,29-3.5,27l-59.1-7.4l-3.6,31.3l51.9,6.1c18,2.3,15.2,29.7-3.5,27l-51.9-6.1l-3.6,31.3l62.7,7.2
					c18.8,2.7,17,29.6-3.5,27L1308.2,986.7z"/>
			</g>
			<g>
				<g>
					<path fill="#73BD44" d="M1090.8,506.3c1.1-4.7,3.8-13.1,7.1-16.9c5.7-5.4,11.1-10,18.4-13c6.9,22.8,27.1,40.7,51.9,43.3
						c25.6,2.9,48.7-9,60.8-29.9c5.7,5,10.4,10.4,14.4,17.2c3.2,4.8,3.8,13.7,2.7,18.4l-0.3,0.7c5.4-4.7,8.6-10.2,9.6-16.7
						c23.4-107.7,29.8-149.9-54.8-164.5c-37.9-6.3-149.8-32.3-157.5,31.8c-13.2,68.8-25.6,137.9,44.6,155.9c-0.9-2.1-1-3.9-0.8-6.4
						C1088.6,526.1,1091.2,507.4,1090.8,506.3z M1117.1,420.6c12.4-0.8,22.2-9.7,23.6-21.3l-0.1-1.8c2.7-23.1,23.7-40.2,46.7-37.5
						c23.1,2.7,39.2,24.1,37.2,47.5l0.1,1.8c-1.4,11.5,6.2,22.4,18.2,26.6c4,0.8,6.7,4.5,5.9,8.5c-0.2,2.5-1.5,3.7-2.9,4.8
						c-10.6,6.8-25.8,10-47.6,8.6c0,0-0.7-0.3-1.8,0.1c-4.3-0.1-8,2.7-8.4,7.7c-0.4,5,2.4,8.8,7.1,9.9c3.2,0.5,6.9,2,10.2,2.5
						c3.7,1.5,5.7,5,5.9,8.5c0.1,1.8-1.5,3.7-2.2,5.1c-9.8,8.9-23.3,14.4-37.3,12.9c-14.8-1.9-26.8-10.3-34-22
						c-0.4-1-0.5-2.8-0.7-4.6c0.8-4,3.5-6.3,7.4-7.3c3.6-0.2,6.1-0.1,9.6-0.3c5,0.4,9.1-3.1,10.2-7.8c0.1-4.3-2-7.7-6.4-9.6
						c-0.7-0.3-0.7-0.3-1.5-0.6c-21.7-3.9-35.4-10.5-44.6-19.5c-1.2-1.3-2-3.4-1.1-5.6C1109.1,423.3,1113.1,419.8,1117.1,420.6z"/>
					<path fill="#FFFFFF" d="M1154.7,452.7c0.7,0.3,1.5,0.6,1.5,0.6c4.7,1.1,6.7,4.5,6.4,9.6c-0.4,5-5.2,8.2-10.2,7.8
						c-3.6,0.2-6.8-0.3-9.6,0.3c-3.6,0.2-6.6,3.3-7.4,7.3c0.1,1.8,0.5,2.8,0.7,4.6c7.2,11.7,19.2,20.1,34,22c14,1.5,28-3,37.3-12.9
						c1.3-1.2,2-2.6,2.2-5.1c0.8-4-2-7.7-5.9-8.5c-2.9-1.2-6.2-1.7-10.2-2.5c-4.7-1.1-7.5-4.8-7.1-9.9c0.1-4.3,4.1-7.8,8.4-7.7
						c0.7,0.3,1.8-0.1,1.8-0.1c21.9,1.4,37-1.8,47.6-8.6c1.3-1.2,2.3-3.4,2.9-4.8c0.8-4-2-7.7-5.9-8.5
						c-11.3-3.9-18.9-14.8-18.2-26.6l-0.1-1.8c2.7-23.1-13.4-44.5-37.2-47.5c-23.1-2.7-43.7,13.7-46.7,37.5l0.1,1.8
						c-1.4,11.5-11.1,20.4-23.6,21.3c-4.3-0.1-7.3,3-8.1,7c-0.2,2.5-0.1,4.3,1.1,5.6C1119.3,442.2,1133,448.8,1154.7,452.7z"/>
					<path fill="#FFFFFF" d="M1246.8,525.7c0.3-0.7,0.3-0.7,0.3-0.7c0.4-5-0.2-13.9-2.7-18.4c-4-6.9-8.7-12.3-14.4-17.2
						c-12.2,20.8-36,32.5-60.8,29.9c-25.6-2.9-45-20.5-51.9-43.3c-6.6,3.3-12.7,7.7-18.4,13c-4,3.5-7,12.6-7.1,16.9
						c-0.3,0.7-2.2,19.8-2.2,19.8c-0.2,2.5-0.1,4.3,0.8,6.4c3.2,0.5,7.2,1.3,11.2,2.1C1134.6,540.1,1217.3,553.1,1246.8,525.7z"/>
				</g>
				<g>
					<path fill="#F8A51C" d="M959.2,314.9c-37.9-6.3-149.8-32.3-157.5,31.8c-14,72.8-26.6,144.4,55.8,158c4,0.8,8.7,1.9,13.7,2.3
						c5.3-6.4,11.5-15.1,14.9-17.1c5.1-3.9,3.5-6.3,1.9-8.7c-1.3-3.1-3.3-6.6-5-10.7c-6.3-13.9-10.1-27.5-11.5-42.8
						c-0.2-3.6-0.2-7.8,0.6-11.8c0.5-3.2,2.8-6.6,2.5-10.2l0,0c-1.3-9.2-20-10.1-26.4-9.3c-17,1.5-34.2,7.3-50.2,12.7
						c19.9-12.4,44.3-10.9,61.3-28.8c7.7-8,16.1-9.7,25.7-5.7c6.6,2.8,10.1,6.8,13.7,12.6c1-6.5,7.3-40.2,37.1-57.9l0,0l0,0
						c-1,0.4-6.1,4.3-11.7,11.5c1-0.4,1.3-1.2,2.4-1.6c1-0.4-2.8,6.6-7.9,14.8l3.6-4.5c0,0-1.5,3.7-4,9.6l1.3-1.2
						c0,0-4.9,11.8-9.1,23.8c0.3-0.7,2-2.6,3.6-4.5c0,0-0.6,1.5-0.8,4l0,0c0,0-3.1,11.6-1.2,19.4c5.5,1.4,16.6,1.7,29.1-3.4
						c20.9-8.6,62-18.2,84.2-17.5l-1,0.4c0,0-33.9,10.9-49.8,13.8c4.6-0.7,12-1.9,14.5-1.7c0,0-6,6.1-21.9,9
						c3.6-0.2,7.4-1.2,8.9-0.6c1.8-0.1-5.3,6.4-20.5,7.8c0,0,6.1-0.1,8.3,0.9c0,0-5.8,3.6-15.5,3.9c0,0,6.2,1.7,8.7,1.9
						c2.5,0.2-9.7,4.6-17.8,5.5c2.5,0.2,8.9-0.6,11.1,0.3c0,0-10.2,7.8-17.2,4c0,0,4.8,2.9,3.4,12.6c0,0-6.4-5.3-11.5-11.7
						c0,0,3.9,5.1,3.2,10.9c0,0-0.7-4.6-9.2-9c1.1,5.6,0.4,11.4,0,16.4c-1.2,9-3.8,17.4-8.2,25.9c-2.6,4.1-9.3,16-13.4,17.7
						c0,0,2.6,2-13.2,21.3c47.6,6,120.3,9.7,129.1-29.9C1037.3,371.7,1043.7,329.5,959.2,314.9z"/>
					<path fill="#FFFFFF" d="M935.5,330C935.8,329.3,935.8,329.3,935.5,330C935.8,329.3,935.8,329.3,935.5,330z"/>
					<path fill="#FFFFFF" d="M897.8,488.7c3.9-1,11.6-13.3,13.4-17.7c4.1-7.8,7.1-16.9,8.2-25.9c0.7-5.8,0.3-11.1,0-16.4
						c8.5,4.4,9.2,9,9.2,9c0.7-5.8-3.2-10.9-3.2-10.9c5.1,6.4,11.5,11.7,11.5,11.7c1.5-9.7-3.4-12.6-3.4-12.6c7,3.8,17.2-4,17.2-4
						c-2.2-0.9-8.6-0.1-11.1-0.3c8.9-0.6,20.4-5.3,17.8-5.5c-2.5-0.2-8.7-1.9-8.7-1.9c8.9-0.6,15.5-3.9,15.5-3.9
						c-2.2-0.9-8.3-0.9-8.3-0.9c15.3-1.4,22.3-8,20.5-7.8c-1.5-0.6-5.3,0.4-8.9,0.6c15.9-2.9,21.9-9,21.9-9
						c-3.2-0.5-10.7,0.7-14.5,1.7c15.9-2.9,49.8-13.8,49.8-13.8l1-0.4c-23.7-1.2-64.8,8.3-85.7,16.9c-13.2,4.8-23.6,4.8-29.1,3.4
						c-2.7-8,1.2-19.4,1.2-19.4l0,0c0.9-2.2,0.8-4,0.8-4c-1.7,1.9-2.3,3.4-3.6,4.5c4.2-12.1,9.1-23.8,9.1-23.8l-1.3,1.2
						c2.2-5.1,4-9.6,4-9.6l-3.6,4.5c4.4-8.5,8.2-15.6,7.9-14.8c0,0-1,0.4-2.4,1.6c5.6-7.2,10.4-10.4,11.7-11.5
						c-29.9,17.8-35.8,50.7-37.1,57.9c-3.2-4.8-6.4-9.6-13.7-12.6c-9.6-4-19.1-1.9-25.7,5.7c-17,17.9-41.4,16.4-61.3,28.8
						c16.1-5.4,33.2-11.2,50.2-12.7c6.4-0.8,25,0.1,26.4,9.3l0,0c0.2,3.6-2,6.9-2.5,10.2c-0.8,4-0.6,7.5-0.6,11.8
						c1.7,14.5,5.2,28.9,11.5,42.8c1.3,3.1,3.3,6.6,5,10.7c0.5,2.8,3.2,4.8-1.9,8.7c-3.4,2-10.7,11.1-14.9,17.1
						c4,0.8,9,1.2,13.7,2.3C900.4,490.7,897.8,488.7,897.8,488.7z"/>
				</g>
				<g>
					<path fill="#D05727" d="M933.1,530.3c-31.4-5.4-114.2-24.4-145.3,6.7c22.2,0.6,41.7,9.7,49.4,12c13.1,3.8,20.8-4.3,31.1,0
						c11,4.6,14.3,11.2,32.7,12.8c5.3-0.4,2.5-5.9,10.1-3.5c6.2,1.7,6.5,11.3,6.5,11.3c4.4,1.8,5.6-1.1,7.8-0.2
						c3.2,0.5,2.4,8.8,1.5,11c6.7,4.5,13.5,9.1,16.5,16.4c0.8,6.4,5.5,17.8,13.3,22c2.9,5.5-2.8,6.6-3.4,8.1s-6.4,0.8-7,2.3
						s-1.3,7.2-4.5,6.7c-3.2-0.5-9.7-5.8-9.7-5.8c-3.6,0.2-8-1.6-11.3-3.9c-0.6,1.5-1.5,3.7,1.2,7.4c-7.7-2.3-9.2-9-10.2-12.9
						c-1.7,1.9-4.2,6-3,9.1c-2.8-3.7-4.6-9.7-4.5-14c-1.5-0.6-2.2-0.9-3.2-0.5c-4.6,0.7-12.5,5.1-27.7,2.2
						c-12.9,10.2-28.5,33-30.2,39.2c-1,6.5-11.1,36.8-2.4,38.7c8.7,1.9,19.8,2.2,14.3,11.2c-23,3.4-31.4-5.4-37.3-12.1
						c-5.1-6.4-12.8-41.6-10.6-55.4c11-5.8,20.6-22.5,20.6-22.5l-7.2-1.3c-6.8,16.2-32.3,29.7-55,26.3c0.4,1,0.1,1.8,0.2,3.6
						c7.2,1.3,15.4,0.4,23.9-1.3c6.4,19.9-1.6,34.8,1.1,36.7c3.4,2.3,23.3,6.3,16.5,16.4c-9.2,1.3-18.9-0.1-27-3.5
						c9.9,13.6,26.6,23.2,51.5,27.6c39.7,6.2,145.9,22.9,155.8-25.6C1011.3,587.1,1017.7,544.9,933.1,530.3z M891.2,690.7
						c-12.3,19.1-19.1,12.7-18.8,7.7c0.4-5,5.8-14,0-16.4c-12.5-5.2-25.8-27.2-25.8-27.2c1-6.5,19.6-32.4,26.1-35.7
						c7.2,1.3,11.8,0.6,11.8,0.6s-10.3,16.4-7,23C882.2,648.1,903.4,671.6,891.2,690.7z"/>
					<path fill="#FFFFFF" d="M884.8,619c0,0-4.6,0.7-11.8-0.6c-6.6,3.3-25.2,29.2-26.1,35.7c0,0,13.3,22,25.8,27.2
						c5.9,2.5-0.6,11.8,0,16.4c-0.4,5,6.5,11.3,18.8-7.7c12.3-19.1-9-42.6-12.6-48.4C874.8,634.6,884.8,619,884.8,619z"/>
					<path fill="#FFFFFF" d="M820.6,615.5l5.6-1.1c0,0-9.6,16.7-20.6,22.5c-2.3,13.7,5.5,48.9,10.6,55.4
						c5.1,6.4,14.3,15.5,37.3,12.1c5.5-8.9-5.6-9.3-14.3-11.2c-8.7-1.9,1.4-32.2,2.4-38.7c1-6.5,16.6-29.4,30.2-39.2
						c15.2,2.9,23.1-1.6,27.7-2.2c1-0.4,1.8-0.1,3.2,0.5c1,3.9,1.8,10.2,4.5,14c-1-3.9,1.3-7.2,3-9.1c0.7,4.6,2.5,10.5,10.2,12.9
						c-2-3.4-1.8-5.9-1.2-7.4c4.1,2.6,7.8,4.1,11.3,3.9c0,0,6.4,5.3,9.7,5.8c3.2,0.5,3.9-5.3,4.5-6.7s6.4-0.8,7-2.3s6.7-1.5,3.4-8.1
						c-7.8-4.1-12.5-15.6-13.3-22c-3.3-6.6-9.7-11.8-16.5-16.4c0.9-2.2,1.8-10.5-1.5-11c-2.5-0.2-3.7,2.8-7.8,0.2
						c0,0-0.3-9.6-6.5-11.3c-7.7-2.3-5.5,2.9-10.1,3.5c-18.3-1.6-21.6-8.2-32.7-12.8c-11-4.6-18,3.7-31.1,0
						c-7.7-2.3-27.2-11.4-49.4-12c-6,6.1-10.4,14.6-11.5,25.4c-5.3,27.2-10.9,55-10.7,79.3C789.1,645.5,814.2,630.9,820.6,615.5z"/>
					<path fill="#FFFFFF" d="M806.8,696.1c7.5-9.8-13.1-14.1-16.5-16.4c-3.4-2.3,5.6-17.5-1.1-36.7c-8,2.7-16.6,2.6-23.9,1.3
						c0.6,19.3,4.9,35.7,14.1,49.1C787.9,695.9,798.4,697.7,806.8,696.1z"/>
				</g>
				<g>
					<path fill="none" d="M1243.8,659.2l-0.4-1c0,0,0,0-0.3,0.7C1243.8,659.2,1243.8,659.2,1243.8,659.2z"/>
					<path fill="none" d="M1249.9,654.8c-0.9-2.1-2.4-4.5-5.1-6.4c-0.3,0.7,0.1,1.8-0.5,3.2C1246.5,652.6,1248,653.2,1249.9,654.8z"
						/>
					<path fill="#2582C5" d="M1181.8,673c-2.4,1.6-9.3-0.4-17.6-1.3c-16.1-0.7-18.3,14.8-30.5,19.2c-6.3,2.6-6.3,6.9-3.4,8.1
						c2.9,1.2,8.8,3.7,11.3,3.9c-15.5,14.3-35.9,17.8-42.5,21.1c-7.6,3.7-14.4,9.6-23.4,8.4c-5-0.4-5.3-3.9-5.3-3.9
						c-1.5-0.6-4.2-4.4-3.7-7.6c0.5-3.2-1.9-12,1.2-23.7c4.7-15.3,16.2-34.7,25.1-45.7c9.2-11.7,28.9-32,31.3-33.6
						c6-6.1-3.9-46.5,16-52.9c2.8-0.5,4,0.8,3.4,2.3c0.1,1.8-1.9,35.5,13.2,36.6c6.8,0.3,40.2-3.1,67.6,11.8
						c7.8,4.1,14.6,10.4,21.2,17.5c1.7-43.3-14.4-64.8-70.1-74.2c-37.9-6.3-149.8-32.3-157.5,31.8c-14,72.8-26.6,144.4,55.8,158
						c39.7,6.2,145.9,22.9,155.8-25.6c4.8-23.9,9.1-44.6,12.2-62.3c-5.6-3.2-11.8-4.9-16.8-5.3C1207,654.2,1189.7,668.6,1181.8,673z
						 M1088.2,640.8c3.4-2,3.7,7.6,7.3,7.4c-6,6.1-13.7,18.4-16.6,23.3C1076,661.7,1079.3,647.5,1088.2,640.8z M1174.1,701.8
						c-23.2,5.9-38.3-1.3-41.3-2.5c-2.9-1.2-0.7-4.6,3.5-6.3c10.1-3.5,14.7-20.6,28.7-19.1c14,1.5,30.6,3.3,35.3,4.4
						C1205.4,678.6,1196.6,695.6,1174.1,701.8z"/>
					<path fill="#2582C5" d="M1212.7,638.4c-21.6,2.2-26.3,23.6-37.5,31.8l5,0.4c6.4-5.1,17.4-12.6,26.4-15.7c7.3-3,19.3-4.9,36.4,4
						l0.3-0.7c-5.1-6.4-14.1-7.6-20.6-8.6c-4-0.8-2.3-2.7-0.2-3.6c6.7-1.5,15.1,1.1,22.1,4.9c0.3-0.7,0.2-2.5,0.5-3.2
						C1238.7,642.4,1227.2,636.7,1212.7,638.4z"/>
					
						<ellipse transform="matrix(0.8466 -0.5323 0.5323 0.8466 -205.1714 696.712)" fill="#2582C5" cx="1105.9" cy="704.2" rx="3.2" ry="1.6"/>
					<path fill="#2582C5" d="M1119.3,694.4c7.6-3.7,7.4-11.6,8.5-12c1-0.4,3.3-3.8-1-3.9c-11.8-0.6-20.9,8.6-21.7,16.8
						C1103.9,704.4,1111.7,698.2,1119.3,694.4z"/>
					<path fill="#2582C5" d="M1111.5,711c-7.8,6.2-17.7,7.3-22.7,13c-4.7,5-9.3,5.6-12.4,6.9c-1,0.4-1,0.4-0.3,0.7
						c4,0.8,9.9-1,18.2-6.2c9.3-5.6,31.4-11.1,41.2-20c-4.7-1.1-8.1-3.4-10.7-5.3C1122.1,698.2,1119,705.5,1111.5,711z"/>
					<path fill="#FFFFFF" d="M1222.2,646.7c-1.8,0.1-3.7,2.8,0.2,3.6c6.5,1,16.2,2.5,20.6,8.6c0.2-2.5,0.4-5,1.3-7.2
						C1237.6,647.1,1228.9,645.2,1222.2,646.7z"/>
					<path fill="#FFFFFF" d="M1200.4,678.2c-5-0.4-21.3-2.8-35.3-4.4c-14-1.5-18.6,15.6-28.7,19.1c-4.9,1.4-7.2,4.8-3.5,6.3
						c2.9,1.2,18.8,8.7,41.3,2.5C1196.6,695.6,1205.4,678.6,1200.4,678.2z"/>
					<path fill="#FFFFFF" d="M1206.4,655.6c-9.1,3.1-20,10.7-26.4,15.7l-5-0.4c11.2-8.3,15.8-29.7,37.5-31.8
						c15.3-1.4,26,3.9,32.4,9.2c0.4-5,0.7-10.1,1.1-15.1c-5.8-6.7-13-12.3-21.2-17.5c-27.5-14.9-60.8-11.6-67.6-11.8
						c-15.4-0.4-13.1-34.8-13.2-36.6c-0.1-1.8-0.5-2.8-3.4-2.3c-19.9,6.4-10,46.8-16,52.9c-1.7,1.9-22.1,21.9-31.3,33.6
						c-9.2,11.7-20.4,30.3-25.1,45.7c-3.1,11.6-0.8,20.4-1.2,23.7c-0.5,3.2,2,7.7,3.7,7.6c0,0,0.2,3.6,5.3,3.9
						c9,1.2,15.8-4.6,23.4-8.4c6.6-3.3,26.3-7.2,42.5-21.1c-2.2-0.9-8.4-2.6-11.3-3.9c-2.9-1.2-2.6-6.3,3.4-8.1
						c11.5-4.7,14.4-19.9,30.5-19.2c8.6,0.1,15.2,2.9,17.6,1.3c8.2-5.2,25.5-19.6,43.5-17.3c5.8,0.7,12,2.4,16.8,5.3
						c0.3-0.7-0.1-1.8,0.2-2.5C1225.7,650.8,1213.7,652.6,1206.4,655.6z M1126.8,678.6c5,0.4,2,3.4,1,3.9s-0.1,8.6-8.5,12
						c-7.6,3.7-16.4,10.4-15,0.7C1106,687.1,1114.6,676.9,1126.8,678.6z M1105.3,703.3c1.3-1.2,3.1-1.3,3.6-0.2
						c0.4,1-0.2,2.5-2.3,3.4c-1.3,1.2-3.1,1.3-3.6,0.2C1102.6,705.6,1103.2,704.1,1105.3,703.3z M1136.2,705.8
						c-9.8,8.9-32.6,14-41.2,20c-7.9,4.5-14.2,7-18.2,6.2c-0.7-0.3-0.7-0.3,0.3-0.7c2.8-0.5,8.5-1.6,12.4-6.9
						c5-5.7,15.2-7.5,22.7-13c7.5-5.5,10.6-12.9,13.2-10.9C1127.8,703.2,1131.5,704.7,1136.2,705.8z"/>
					<path fill="#FFFFFF" d="M1095.5,648.2c-3.6,0.2-3.9-9.4-7.3-7.4c-8.8,6.7-12.2,20.8-8.6,31
						C1081.7,666.6,1089.5,654.3,1095.5,648.2z"/>
				</g>
			</g>
		</g>
	</g>
</g>
</svg>
