<?xml version="1.0" standalone="no"?>
<!DOCTYPE svg PUBLIC "-//W3C//DTD SVG 20010904//EN"
 "http://www.w3.org/TR/2001/REC-SVG-20010904/DTD/svg10.dtd">
<svg version="1.0" xmlns="http://www.w3.org/2000/svg"
 width="1536.000000pt" height="800.000000pt" viewBox="0 0 1536.000000 800.000000"
 preserveAspectRatio="xMidYMid meet">
<metadata>
Created by potrace 1.16, written by Peter Selinger 2001-2019
</metadata>
<g transform="translate(0.000000,800.000000) scale(0.100000,-0.100000)"
fill="#FFFFFF" stroke="none">
<path d="M6180 7993 c-101 -11 -297 -47 -404 -74 -350 -88 -1023 -354 -1326
-524 -154 -86 -470 -301 -582 -394 -126 -106 -156 -141 -264 -312 -465 -735
-786 -1523 -938 -2304 -66 -336 -86 -534 -95 -920 -8 -308 -7 -332 10 -360 33
-55 83 -93 227 -170 l142 -77 208 -13 c668 -44 902 -50 1827 -50 931 0 1037 3
1643 45 1612 114 2942 419 3892 894 381 191 630 359 903 610 l98 91 -3 130
c-3 123 -5 134 -36 199 -70 148 -195 289 -310 349 -37 19 -103 50 -147 68
-161 66 -258 156 -507 469 -176 222 -368 415 -762 770 -413 372 -673 579 -998
793 -390 257 -641 380 -1198 582 -424 155 -512 178 -731 195 -125 9 -571 11
-649 3z"/>
<path d="M3405 6804 c-202 -22 -340 -69 -594 -200 -236 -121 -393 -221 -557
-352 -125 -100 -163 -136 -203 -195 -299 -444 -467 -945 -526 -1571 -15 -161
-19 -648 -6 -791 l6 -70 85 -58 c146 -100 419 -228 644 -302 109 -36 205 -64
212 -61 11 4 14 43 14 181 0 789 202 1656 580 2485 112 248 301 599 435 810
22 36 51 82 64 103 l23 37 -29 -1 c-15 -1 -82 -7 -148 -15z"/>
<path d="M1835 6065 c-188 -40 -294 -85 -600 -256 l-160 -90 -52 -97 c-141
-266 -242 -580 -289 -899 -11 -74 -17 -182 -17 -343 l-1 -236 46 -70 c76 -118
154 -169 400 -263 86 -33 179 -72 207 -86 28 -14 52 -25 55 -25 3 0 2 109 -1
243 -19 783 140 1478 458 2008 44 73 79 133 79 135 0 5 1 5 -125 -21z"/>
<path d="M825 5592 c-49 -27 -137 -80 -195 -118 -58 -39 -166 -106 -240 -148
-348 -200 -418 -295 -381 -510 26 -149 45 -178 241 -361 194 -182 209 -193
289 -220 42 -14 79 -25 84 -25 4 0 7 80 7 178 0 303 40 550 134 837 30 88 77
212 105 275 68 148 64 140 55 140 -5 0 -49 -22 -99 -48z"/>
<path d="M14885 5155 c-251 -74 -631 -239 -842 -367 -111 -66 -183 -97 -348
-151 -280 -92 -300 -96 -519 -107 -111 -6 -275 -15 -366 -20 -91 -5 -289 -14
-440 -20 -293 -12 -534 -31 -667 -56 l-82 -14 -108 -108 c-819 -811 -2469
-1357 -4663 -1541 -1015 -86 -2264 -94 -3530 -22 l-314 18 -321 -195 c-501
-306 -722 -411 -1042 -498 -430 -116 -553 -160 -659 -236 -86 -62 -120 -159
-81 -235 45 -85 529 -362 860 -491 302 -118 500 -174 952 -267 931 -191 1515
-338 1975 -496 591 -204 651 -219 956 -249 266 -26 450 -46 589 -64 198 -27
415 -39 580 -33 270 11 319 24 523 146 73 44 154 87 180 95 76 24 194 36 464
46 161 5 271 14 303 23 28 8 129 44 226 80 351 133 537 175 1164 267 116 17
317 46 447 65 382 56 652 93 993 136 175 22 340 45 365 51 106 25 347 158 615
339 177 119 247 186 315 298 30 51 65 102 78 114 13 12 64 42 115 67 70 34 93
50 95 67 5 32 -24 46 -183 93 -180 53 -220 67 -247 91 l-23 19 57 52 c49 46
58 59 60 93 l3 40 145 -3 c80 -2 182 2 227 9 65 10 88 9 113 -1 17 -7 32 -16
35 -20 2 -4 -5 -30 -15 -59 -27 -70 -25 -97 9 -131 47 -48 125 -65 286 -64
132 0 149 2 297 42 319 85 310 81 418 191 118 119 150 181 221 416 l51 170 -7
226 c-6 224 -6 226 19 298 14 41 29 96 32 124 10 74 39 100 102 92 49 -6 303
-85 677 -211 192 -65 229 -74 291 -74 78 0 108 16 84 45 -44 53 -389 187 -886
344 -208 66 -250 89 -309 168 -48 66 -119 205 -144 283 -12 36 -27 124 -35
195 -8 72 -22 153 -30 180 -20 64 -20 95 0 124 23 32 240 174 357 233 54 27
207 96 340 154 133 58 272 121 308 140 75 39 144 98 134 114 -11 18 -117 10
-200 -15z"/>
</g>
</svg>
