<?xml version="1.0" encoding="utf-8"?>
<!-- Generator: Adobe Illustrator 18.1.0, SVG Export Plug-In . SVG Version: 6.00 Build 0)  -->
<svg version="1.1" xmlns="http://www.w3.org/2000/svg" xmlns:xlink="http://www.w3.org/1999/xlink" x="0px" y="0px"
	 viewBox="0 0 1943.8 454.8" enable-background="new 0 0 1943.8 454.8" xml:space="preserve">
<g id="Layer_5" display="none">
	<rect x="-84.2" y="-134" display="inline" fill="#393A3A" width="2111.4" height="703.9"/>
</g>
<g id="Layer_2" display="none">
	<path display="inline" fill="none" stroke="#000000" stroke-miterlimit="10" d="M1537.2,324.7c46.1-24.6,162.3-69,206-34.7
		c15.2,11.9,26.7,41.3,58,56s74.7,8.7,74.7,8.7s2.3-0.7,2.5-3.7s-2.7-2.7-2.7-2.7s-65.8-6-82.8-28s-23.3-43.7-23.3-43.7
		s-15.3-75.2,6.7-145.7s23-142,83-163.5c0,0,3-3.5,0.5-5.5s-36-14.5-72.5,0.5c-32.7,13.4-144,64.2-165,62.5
		c-6.4-0.5-43.8-8.7-49-11.5c-50.5-27-71.2-60.5-78.7-50.2c-12.3,17.2,80.7,77.7,46.7,108.7c-18.4,16.7-41,6.5-59-8
		c-8.5-6.9-38-40.5-60-33s43.5,64.7,54.7,75c8.3,7.6,13.3,18.1,16.3,33c2.2,11,5.3,23.6-1.5,43.5c0,0-53.5,106-48,178
		s15,49.5,15,49.5S1463.3,364.1,1537.2,324.7z"/>
</g>
<g id="Layer_3">
	<path fill="#FFFFFF" d="M1558.1,119.2c-45.2,40.1-60.9,5.7-76.9-25c-12.3-23.6-12.6,16.4-11.7,18.8c25.2,60.2,47.7,51.9,52.2,80.8
		c2.5,16-6.2,31.4-9.5,37.8c-61.9,123.3-32.2,223.2-32.2,223.2s36.9-56.6,124.2-96.8c45.5-21,75,0,180.5-36.2
		c22.1-7.6,21.3,19.8,73.1,21.8c25,1,41.8-18.3,63-24.7c11.5-3.5,23,0,23,0c-28.7-15.6-48.9,19.6-82.4,21.4
		c-35,1.8-67.7-18.8-63.3-35.3c19.1-71.1,5.1-110.4,17.1-152.1c26.4-91.8,82.7-140,82.7-140c0,0-88.2-1.1-207.7,47.3
		c-24.5,9.9-44.6,7.8-65.4,2.3c-22.9-6-19,1-30.3-15.6c-8.8-12.9-30.4-19.4-43.3-25c-14.7-6.3-14,1.9-14,7.8c0,3.2,13,1.3,26,21.2
		c21.7,33.3,23.9,35.1,10.3,52"/>
	<g>
		<g>
			<path fill="#504F4E" d="M1578.3,150.1c0,0-0.6,0.5-1.8,1.4c-1.1,0.9-2.8,2.1-4.7,3.6c-3.9,2.9-9.1,6.6-14,10.5
				c-2.5,2-4.8,4-6.9,6c-1,1-2,2-2.9,3c-0.4,0.5-0.8,1-1.2,1.5c-0.4,0.5-0.7,1-1,1.4c-0.3,0.5-0.6,0.9-0.9,1.4
				c-0.2,0.5-0.5,0.9-0.7,1.3c-0.2,0.4-0.3,0.8-0.5,1.2c-0.2,0.4-0.2,0.8-0.3,1.1c-0.2,0.7-0.3,1.2-0.3,1.6
				c-0.1,0.4-0.1,0.6-0.1,0.6s-0.1-0.2-0.2-0.6c-0.1-0.4-0.3-0.9-0.4-1.7c0-0.4-0.1-0.8-0.1-1.2c0-0.5,0-1,0.1-1.5
				c0.1-0.5,0.2-1.1,0.3-1.7c0.1-0.6,0.3-1.2,0.5-1.8c0.2-0.6,0.5-1.2,0.8-1.9c0.3-0.6,0.6-1.3,1-1.9c0.8-1.3,1.6-2.6,2.7-3.8
				c0.5-0.6,1-1.2,1.6-1.8c0.5-0.6,1.1-1.2,1.7-1.8c1.2-1.2,2.5-2.2,3.8-3.3c1.3-1,2.7-2,4-2.9c1.4-0.9,2.7-1.8,4.1-2.5
				c2.7-1.5,5.3-2.8,7.6-3.7c2.3-0.9,4.3-1.6,5.7-2c0.7-0.2,1.3-0.3,1.6-0.4C1578.1,150.1,1578.3,150.1,1578.3,150.1z"/>
		</g>
		<g>
			<path fill="#504F4E" d="M1581.7,163.4c0,0-0.6,0.6-1.8,1.7c-1.1,1.1-2.7,2.5-4.7,4.2c-3.9,3.5-9.1,7.9-14.1,12.5
				c-1.2,1.1-2.5,2.3-3.6,3.5c-1.2,1.2-2.3,2.3-3.4,3.5c-1.1,1.1-2,2.3-2.9,3.4c-0.9,1.1-1.7,2.2-2.3,3.2c-0.3,0.5-0.6,1-0.9,1.5
				c-0.3,0.5-0.5,1-0.7,1.4c-0.4,0.9-0.7,1.8-0.9,2.5c-0.2,0.7-0.3,1.3-0.3,1.7c-0.1,0.4-0.1,0.6-0.1,0.6s-0.1-0.2-0.2-0.6
				c-0.1-0.4-0.3-1-0.4-1.8c-0.1-0.8-0.1-1.8,0-2.9c0.1-0.6,0.2-1.2,0.3-1.8c0.2-0.6,0.3-1.3,0.5-1.9c0.2-0.6,0.5-1.3,0.8-2
				c0.3-0.7,0.6-1.4,1-2.1c0.8-1.4,1.6-2.8,2.6-4.1c0.5-0.7,1-1.4,1.6-2c0.5-0.7,1.1-1.3,1.7-2c1.2-1.3,2.5-2.6,3.8-3.8
				c1.3-1.2,2.7-2.4,4-3.4c1.4-1.1,2.7-2.1,4.1-3c2.7-1.9,5.4-3.5,7.7-4.7c2.3-1.2,4.4-2.1,5.8-2.7c0.7-0.3,1.3-0.5,1.7-0.6
				C1581.5,163.4,1581.7,163.4,1581.7,163.4z"/>
		</g>
		<g>
			<path fill="#504F4E" d="M1586.9,174.6c0,0-0.6,0.8-1.7,2.1c-1.1,1.3-2.7,3.1-4.6,5.3c-3.8,4.3-9.1,9.9-14.1,15.6
				c-1.3,1.4-2.5,2.9-3.7,4.3c-1.2,1.4-2.4,2.8-3.4,4.2c-0.6,0.7-1.1,1.4-1.6,2.1c-0.5,0.7-1,1.3-1.4,2c-0.9,1.3-1.7,2.6-2.4,3.8
				c-0.7,1.2-1.3,2.3-1.7,3.4c-0.3,0.5-0.4,1-0.6,1.5c-0.1,0.2-0.2,0.5-0.2,0.7c-0.1,0.2-0.1,0.4-0.2,0.6c-0.1,0.4-0.2,0.8-0.3,1.1
				c0,0.3-0.1,0.6-0.1,0.8c-0.1,0.5-0.1,0.7-0.1,0.7s-0.1-0.2-0.2-0.7c-0.1-0.2-0.1-0.5-0.2-0.8c-0.1-0.3-0.1-0.7-0.1-1.2
				c0-0.2,0-0.5-0.1-0.7c0-0.2,0-0.5,0-0.8c0-0.5,0-1.1,0.1-1.7c0.2-1.2,0.5-2.6,0.9-4.1c0.5-1.4,1.1-3,1.8-4.5
				c0.4-0.8,0.8-1.6,1.2-2.3c0.4-0.8,0.9-1.6,1.4-2.4c1-1.6,2.1-3.2,3.3-4.7c1.2-1.6,2.4-3.1,3.7-4.5c1.3-1.5,2.6-2.9,4-4.3
				c1.4-1.4,2.7-2.7,4.1-3.9c2.7-2.4,5.4-4.6,7.8-6.3c2.4-1.7,4.4-3,5.9-3.9c0.7-0.5,1.3-0.8,1.7-1
				C1586.7,174.8,1586.9,174.6,1586.9,174.6z"/>
		</g>
		<g>
			<path fill="#504F4E" d="M1600.8,187c0,0-0.7,0.8-2,2.3c-1.3,1.4-3.2,3.4-5.4,5.8c-2.3,2.3-4.9,5.1-7.8,8
				c-1.4,1.4-2.9,2.9-4.4,4.5c-1.5,1.5-3,3.1-4.5,4.6c-1.5,1.5-3,3.1-4.4,4.7c-0.7,0.8-1.4,1.6-2.1,2.3c-0.7,0.8-1.4,1.5-2,2.3
				c-1.3,1.5-2.6,3-3.7,4.4c-1.1,1.4-2.2,2.8-3,4.2c-0.4,0.7-0.9,1.3-1.2,1.9c-0.4,0.6-0.7,1.2-1,1.8c-0.3,0.6-0.5,1.1-0.7,1.6
				c-0.2,0.5-0.4,1-0.5,1.4c-0.1,0.4-0.2,0.9-0.3,1.2c-0.1,0.4-0.1,0.7-0.1,0.9c-0.1,0.5-0.1,0.8-0.1,0.8s-0.1-0.3-0.2-0.8
				c-0.1-0.3-0.1-0.6-0.2-1c0-0.4,0-0.8-0.1-1.3c0-0.5,0.1-1,0.1-1.7c0-0.6,0.2-1.2,0.3-1.9c0.1-0.7,0.3-1.4,0.6-2.1
				c0.2-0.8,0.5-1.5,0.9-2.3c0.6-1.6,1.5-3.2,2.5-4.9c1-1.7,2.1-3.4,3.3-5.1c1.2-1.7,2.6-3.4,4-5.1c1.4-1.7,2.9-3.3,4.4-4.9
				c1.5-1.6,3.1-3.2,4.7-4.6c1.6-1.5,3.2-2.9,4.8-4.2c3.2-2.7,6.2-5,8.9-6.9c2.7-1.9,5-3.4,6.7-4.4
				C1599.8,187.5,1600.8,187,1600.8,187z"/>
		</g>
		<g>
			<path fill="#504F4E" d="M1613.3,194.2c0,0-0.6,0.8-1.8,2.2c-1.2,1.4-2.8,3.4-4.9,5.7c-2,2.3-4.4,5-7,7.8
				c-2.6,2.8-5.3,5.9-7.9,8.9c-1.3,1.5-2.6,3.1-3.9,4.6c-0.6,0.8-1.3,1.5-1.9,2.3c-0.6,0.8-1.2,1.5-1.8,2.2
				c-1.2,1.5-2.3,2.9-3.2,4.3c-0.5,0.7-1,1.4-1.4,2.1c-0.5,0.7-0.9,1.3-1.2,2c-0.4,0.6-0.7,1.3-1,1.9c-0.3,0.6-0.6,1.2-0.8,1.7
				c-0.1,0.3-0.3,0.5-0.4,0.8c-0.1,0.3-0.2,0.5-0.3,0.8c-0.2,0.5-0.4,1-0.4,1.4c-0.1,0.4-0.2,0.8-0.3,1.1c0,0.3-0.1,0.6-0.1,0.9
				c-0.1,0.5-0.1,0.7-0.1,0.7s-0.1-0.3-0.2-0.7c-0.1-0.2-0.1-0.5-0.2-0.9c0-0.4-0.1-0.8-0.1-1.2c-0.1-0.5,0-1,0-1.6
				c0-0.6,0.1-1.2,0.2-1.8c0.1-0.6,0.2-1.3,0.4-2c0.2-0.7,0.4-1.5,0.7-2.2c0.3-0.8,0.6-1.5,0.9-2.3c0.3-0.8,0.7-1.6,1.1-2.4
				c0.8-1.6,1.8-3.3,2.9-5c1.1-1.7,2.2-3.3,3.5-5c1.3-1.6,2.6-3.2,4-4.8c1.4-1.6,2.8-3.1,4.2-4.5c0.7-0.7,1.4-1.4,2.2-2.1
				c0.7-0.7,1.4-1.4,2.2-2c2.9-2.6,5.7-4.9,8.2-6.8c2.5-1.9,4.6-3.3,6.2-4.3C1612.4,194.7,1613.3,194.2,1613.3,194.2z"/>
		</g>
		<g>
			<path fill="#504F4E" d="M1607.5,126.7c0,0,0.1-0.8,0.5-2.2c0.4-1.4,1-3.4,1.9-5.7c0.9-2.3,2.1-4.9,3.7-7.6c0.4-0.7,0.8-1.4,1.2-2
				c0.4-0.7,0.8-1.4,1.3-2.1c0.9-1.4,1.9-2.7,2.9-4.1c1-1.3,2.1-2.6,3.3-3.8c0.6-0.6,1.1-1.2,1.7-1.8c0.6-0.6,1.2-1.1,1.8-1.6
				c1.2-1,2.5-1.9,3.8-2.7c0.6-0.4,1.3-0.7,1.9-1c0.6-0.3,1.3-0.6,1.9-0.8c0.6-0.2,1.2-0.4,1.8-0.5c0.6-0.1,1.2-0.2,1.7-0.3
				c1.1-0.1,2-0.1,2.8,0.1c0.7,0.1,1.3,0.3,1.7,0.4c0.4,0.1,0.6,0.2,0.6,0.2s-0.2,0-0.6,0.1c-0.4,0.1-0.9,0.1-1.6,0.3
				c-0.7,0.1-1.5,0.5-2.3,0.8c-0.4,0.2-0.9,0.4-1.3,0.7c-0.4,0.3-0.9,0.6-1.4,0.9c-0.9,0.7-1.9,1.4-2.9,2.3c-1,0.9-2,1.8-3,2.9
				c-1,1-2,2.2-3,3.4c-1,1.2-2,2.4-2.9,3.7c-1.9,2.5-3.8,5.1-5.6,7.5c-1.8,2.4-3.4,4.7-4.9,6.7c-1.5,2-2.7,3.6-3.6,4.7
				C1608.1,126.1,1607.5,126.7,1607.5,126.7z"/>
		</g>
		<g>
			<path fill="#504F4E" d="M1620.3,130.6c0,0,0.3-0.9,0.8-2.3c0.6-1.4,1.5-3.5,2.7-5.8c1.2-2.3,2.8-5,4.6-7.7
				c0.5-0.7,0.9-1.4,1.4-2.1c0.5-0.7,1-1.4,1.5-2.1c1.1-1.4,2.2-2.7,3.4-4.1c1.2-1.3,2.4-2.6,3.7-3.8c1.3-1.2,2.6-2.3,4-3.4
				c0.7-0.5,1.3-1,2-1.4c0.7-0.5,1.4-0.9,2.1-1.3c1.4-0.8,2.7-1.4,4-1.9c0.6-0.2,1.3-0.4,1.9-0.6c0.6-0.2,1.2-0.2,1.8-0.3
				c1.1-0.1,2.1-0.1,2.9,0c0.8,0,1.4,0.3,1.8,0.4c0.4,0.1,0.6,0.2,0.6,0.2s-0.2,0-0.6,0.1c-0.4,0-1,0.1-1.7,0.3
				c-0.7,0.1-1.6,0.5-2.5,0.9c-0.9,0.4-1.9,1-2.9,1.6c-1,0.7-2.1,1.5-3.2,2.4c-0.5,0.5-1.1,0.9-1.7,1.4c-0.6,0.5-1.1,1-1.7,1.6
				c-1.1,1.1-2.3,2.2-3.4,3.4c-1.1,1.2-2.3,2.4-3.4,3.7c-2.3,2.5-4.5,5.1-6.6,7.5c-2.1,2.4-4.1,4.7-5.8,6.7c-1.7,2-3.2,3.6-4.2,4.7
				C1620.9,130,1620.3,130.6,1620.3,130.6z"/>
		</g>
		<g>
			<path fill="#504F4E" d="M1631.1,136.3c0,0,0.4-0.9,1.3-2.4c0.9-1.5,2.1-3.5,3.8-5.9c1.7-2.4,3.8-5.1,6.2-7.8
				c0.6-0.7,1.2-1.4,1.8-2.1c0.6-0.7,1.3-1.4,2-2.1c1.3-1.4,2.7-2.7,4.2-4c1.5-1.3,2.9-2.6,4.5-3.8c1.5-1.2,3.1-2.3,4.6-3.3
				c1.6-1,3.1-1.9,4.7-2.7c0.8-0.4,1.5-0.7,2.3-1c0.7-0.3,1.5-0.6,2.2-0.8c1.4-0.5,2.8-0.8,4-0.9c0.6-0.1,1.2-0.1,1.7-0.1
				c0.3,0,0.5,0,0.8,0c0.2,0,0.5,0,0.7,0.1c0.4,0,0.8,0.1,1.2,0.1c0.3,0.1,0.6,0.2,0.8,0.2c0.4,0.1,0.7,0.2,0.7,0.2s-0.2,0-0.7,0.1
				c-0.2,0-0.5,0.1-0.8,0.1c-0.3,0.1-0.7,0.2-1.1,0.2c-0.2,0-0.4,0.1-0.6,0.1c-0.2,0.1-0.4,0.2-0.7,0.2c-0.5,0.2-1,0.3-1.5,0.6
				c-0.5,0.2-1.1,0.4-1.6,0.8c-0.6,0.3-1.1,0.6-1.7,1c-0.6,0.4-1.2,0.7-1.8,1.1c-0.6,0.4-1.3,0.8-1.9,1.3c-1.3,0.9-2.6,1.9-4,3
				c-1.4,1.1-2.7,2.3-4.1,3.4c-1.4,1.2-2.8,2.4-4.2,3.7c-2.8,2.5-5.6,5.1-8.2,7.5c-2.6,2.4-5.1,4.7-7.2,6.6
				c-2.1,1.9-3.9,3.5-5.2,4.6C1631.8,135.7,1631.1,136.3,1631.1,136.3z"/>
		</g>
		<g>
			<path fill="#504F4E" d="M1639.2,152.8c0,0,0.6-1,1.6-2.7c1.1-1.7,2.7-4.1,4.7-6.9c2-2.8,4.5-6,7.4-9.3c2.8-3.3,6-6.6,9.4-9.9
				c1.7-1.6,3.4-3.2,5.2-4.6c1.7-1.5,3.5-2.9,5.3-4.2c0.9-0.6,1.8-1.3,2.6-1.9c0.9-0.6,1.8-1.1,2.6-1.7c0.9-0.5,1.7-1,2.6-1.4
				c0.9-0.4,1.7-0.9,2.5-1.2c1.6-0.7,3.2-1.3,4.6-1.6c1.4-0.4,2.7-0.5,3.7-0.5c0.5,0,1,0,1.4,0.1c0.4,0,0.7,0.1,1,0.2
				c0.5,0.1,0.8,0.2,0.8,0.2s-0.3,0-0.8,0.1c-0.3,0-0.6,0-1,0.1c-0.4,0.1-0.8,0.2-1.3,0.3c-0.9,0.3-2,0.7-3.2,1.4
				c-1.2,0.6-2.5,1.4-3.9,2.4c-1.4,0.9-2.8,2-4.3,3.2c-0.7,0.6-1.5,1.2-2.3,1.9c-0.8,0.7-1.6,1.3-2.4,2c-1.6,1.4-3.2,2.9-4.8,4.4
				c-1.6,1.5-3.3,3-4.9,4.6c-1.7,1.5-3.3,3.1-4.9,4.7c-1.6,1.6-3.2,3.1-4.7,4.6c-3.1,3-5.9,5.8-8.4,8.1c-2.5,2.4-4.6,4.3-6.1,5.7
				C1640.1,152.1,1639.2,152.8,1639.2,152.8z"/>
		</g>
		<g>
			<path fill="#504F4E" d="M1642.8,170.5c0,0,0.6-1,1.7-2.7c1.1-1.7,2.8-4.1,5-6.9c2.1-2.8,4.7-5.9,7.7-9.2c3-3.2,6.2-6.6,9.7-9.8
				c1.7-1.6,3.5-3.1,5.3-4.6c1.8-1.5,3.6-2.9,5.4-4.1c0.9-0.6,1.8-1.3,2.7-1.8c0.9-0.6,1.8-1.1,2.7-1.6c0.9-0.5,1.8-1,2.6-1.4
				c0.9-0.4,1.7-0.8,2.5-1.2c1.7-0.7,3.2-1.2,4.7-1.6c1.4-0.4,2.7-0.5,3.8-0.5c0.5,0,1,0,1.4,0.1c0.4,0,0.7,0.1,1,0.2
				c0.5,0.1,0.8,0.2,0.8,0.2s-0.3,0-0.8,0.1c-0.3,0-0.6,0-1,0.1c-0.4,0.1-0.8,0.2-1.3,0.3c-0.9,0.3-2.1,0.7-3.3,1.4
				c-1.2,0.6-2.5,1.4-4,2.3c-1.4,0.9-2.9,2-4.5,3.2c-1.5,1.2-3.1,2.5-4.8,3.9c-1.6,1.4-3.3,2.8-5,4.3c-1.7,1.5-3.4,3-5.1,4.6
				c-1.7,1.5-3.4,3.1-5,4.6c-1.7,1.5-3.3,3.1-4.9,4.5c-3.2,2.9-6.1,5.7-8.7,8c-2.6,2.3-4.8,4.3-6.3,5.6
				C1643.7,169.8,1642.8,170.5,1642.8,170.5z"/>
		</g>
	</g>
	<g>
		<path fill="#504F4E" d="M1720.9,206.2c-3.8-3.9-9-2.7-13.4-0.8c-2.7,1.2-4.9,2.4-7,4.5c-1,0.9-1.9,2.7-2.2,4
			c-0.3,1.1,0,2.1,0.1,3.1c-1.6,1.6-2.9,3.4-2.8,6.1c0.1,3.7,2.5,6.3,5.5,8.1c0.7,0.4,1.5,0.7,2.2,1c0.1,0.2,0.3,0.6,0.5,1
			c1.2,2.9,3.2,5.3,6.2,6.2c2.7,5.5,12.7,4.3,12.3-3c-0.2-5.6-1-11,0.3-16.5C1723.6,215.2,1724.4,209.9,1720.9,206.2z"/>
	</g>
	<g>
		<path fill="#504F4E" d="M1667,210.8c-1.9-1-4.3-1-6.3,0c-0.9-0.4-1.9-0.6-3-0.6l-2.7,0.1c-0.9,0-1.8,0.3-2.7,0.7
			c-2.8,0.7-5.5,2-7.1,4.1c-2.2,2.8-2.5,6.6,0.3,9.2c1.6,1.5,4.1,2.1,6.3,1.6c1.7,2.7,4.1,4.7,7.2,4.6c5.8-0.2,8.6-6.3,10.6-10.9
			C1671.1,216.4,1670.3,212.6,1667,210.8z"/>
	</g>
	<g>
		<path fill="#504F4E" d="M1666.3,250.4c-1.5-7.4-10.1-7.8-15.5-5.2c-2.8,1.4-6.1,4.3-9.3,4.7c-4,0.5-7.5-0.3-11.2,1.7
			c-5.9,3.2-8.6,8.9-8.8,15.4c-0.1,2.2,0.8,3.9,2.2,4.9c-0.1,0.5-0.3,0.9-0.4,1.4c-1.3,4.2,1.6,7.1,5,7.7c1.3,3.3,4.2,5.7,8.2,5.9
			c6.1,0.4,10.3-5.9,12.8-10.5c1.4-2.5,2.4-5.1,3.7-7.6c0.9-1.8,5.6-2.2,7.3-3.2C1666.1,262.4,1667.5,256.5,1666.3,250.4z
			 M1641.1,263.5c-0.1-0.1-0.2-0.2-0.3-0.4c-0.1-0.1-0.3-0.3-0.4-0.4c0.4,0,0.8,0,1.2,0C1641.4,263,1641.2,263.3,1641.1,263.5z"/>
	</g>
	<g>
		<path fill="#504F4E" d="M1679,191.8c-1.9-0.4-3.6-0.4-5.5,0.2c-1.2,0.4-2.2,1.2-3,1.5c-0.4,0.1-0.7,0.2-1.1,0.3
			c-0.1,0-0.3,0.1-0.3,0.1c-0.1,0-0.2,0-0.3,0c-0.7-0.5-1.5-0.9-2.3-1.1c-2.1-0.5-4,0-5.5,1.2c-4.3,2-4,9.3,0.2,11.5
			c2.8,1.4,6,1.7,9.1,1.3c1.4-0.2,2.8-0.4,4.2-0.8c0.9-0.3,2-0.8,2.8-1.2c0.1-0.1,0.3-0.1,0.4-0.2c2.9,0,5.6-1.8,6.4-4.9
			C1684.5,196.4,1682.4,192.5,1679,191.8z"/>
	</g>
	<g>
		<path fill="#504F4E" d="M1683.5,268.2c-1.9,0.1-3.5,0.9-4.7,2.2c-0.4,0.2-0.8,0.5-1.1,0.7c-1.7,0.3-3,0.7-4.7,1.5
			c-2.6,1.2-3.6,4.9-2.8,7.4c0.8,2.6,3.1,4.4,5.8,4.6c1.1,0.8,2.5,1.3,4,1.3c2.6-0.1,4.8-1.7,5.8-4c0.4-0.2,0.7-0.3,1-0.5
			c2.4-1.5,3.4-4.2,3.4-7C1690.2,270.9,1687,268.1,1683.5,268.2z"/>
	</g>
	<g>
		<g>
			<polyline fill="none" stroke="#9BCA3B" stroke-width="12" stroke-miterlimit="10" points="1862.3,256.5 1869,264 1861.5,270.7 
							"/>
			
				<line fill="none" stroke="#9BCA3B" stroke-width="12" stroke-miterlimit="10" stroke-dasharray="20.6869,20.6869" x1="1846.1" y1="284.5" x2="1700" y2="415.9"/>
			<polyline fill="none" stroke="#9BCA3B" stroke-width="12" stroke-miterlimit="10" points="1692.3,422.8 1684.8,429.5 1678.1,422 
							"/>
			
				<line fill="none" stroke="#9BCA3B" stroke-width="12" stroke-miterlimit="10" stroke-dasharray="19.0275,19.0275" x1="1665.4" y1="407.9" x2="1493.7" y2="216.8"/>
			<polyline fill="none" stroke="#9BCA3B" stroke-width="12" stroke-miterlimit="10" points="1487.4,209.8 1480.7,202.3 
				1488.1,195.6 			"/>
			
				<line fill="none" stroke="#9BCA3B" stroke-width="12" stroke-miterlimit="10" stroke-dasharray="20.6871,20.6871" x1="1503.5" y1="181.8" x2="1649.7" y2="50.4"/>
			<polyline fill="none" stroke="#9BCA3B" stroke-width="12" stroke-miterlimit="10" points="1657.4,43.5 1664.8,36.8 1671.5,44.3 
							"/>
			
				<line fill="none" stroke="#9BCA3B" stroke-width="12" stroke-miterlimit="10" stroke-dasharray="19.0276,19.0276" x1="1684.2" y1="58.4" x2="1855.9" y2="249.5"/>
		</g>
	</g>
</g>
<g id="Layer_4">
	<rect x="0" y="86.7" fill="none" width="1956.2" height="200.2"/>
	<text transform="matrix(1 0 0 1 -1.992721e-05 258.2188)" fill="#FFFFFF" font-family="'Lobster-Regular'" font-size="245">MantaMatcher</text>
	
		<text transform="matrix(1 0 0 1 15.3266 337.3945)" fill="#FFFFFF" font-family="'HelveticaNeue-Thin'" font-size="62.0926" letter-spacing="15">THE WILDBOOK FOR MANTA RAYS</text>
</g>
</svg>
