<?xml version="1.0" encoding="utf-8"?>
<!-- Generator: Adobe Illustrator 19.0.0, SVG Export Plug-In . SVG Version: 6.00 Build 0)  -->
<svg version="1.1" id="Layer_1" xmlns="http://www.w3.org/2000/svg" xmlns:xlink="http://www.w3.org/1999/xlink" x="0px" y="0px"
	 viewBox="0 504.4 2000 492.6" style="enable-background:new 0 504.4 2000 492.6;" xml:space="preserve">
<style type="text/css">
	.st0{display:none;}
	.st1{display:inline;fill:#D80E0E;}
	.st2{display:inline;fill:#393A3A;}
	.st3{display:inline;fill:none;stroke:#000000;stroke-miterlimit:10;}
	.st4{fill:#FFFFFF;}
	.st5{fill:#504F4E;}
	.st6{fill:none;stroke:#9BCA3B;stroke-width:12;stroke-miterlimit:10;}
	.st7{fill:none;stroke:#9BCA3B;stroke-width:12;stroke-miterlimit:10;stroke-dasharray:20.6869,20.6869;}
	.st8{fill:none;stroke:#9BCA3B;stroke-width:12;stroke-miterlimit:10;stroke-dasharray:19.0275,19.0275;}
	.st9{fill:none;stroke:#9BCA3B;stroke-width:12;stroke-miterlimit:10;stroke-dasharray:20.6871,20.6871;}
	.st10{fill:none;stroke:#9BCA3B;stroke-width:12;stroke-miterlimit:10;stroke-dasharray:19.0276,19.0276;}
	.st11{fill:none;}
	.st12{enable-background:new    ;}
	.st13{display:none;fill:#D80E0E;}
</style>
<g id="Layer_2_1_" class="st0">
	<rect x="-192.3" y="545.1" class="st1" width="2265.2" height="1536.2"/>
</g>
<g id="Layer_1_1_">
	<g id="Layer_5" class="st0">
		<rect x="-95.4" y="375.7" class="st2" width="2172.4" height="724.3"/>
	</g>
	<g id="Layer_2" class="st0">
		<path class="st3" d="M1572.8,847.6c47.4-25.3,167-71,212-35.7c15.6,12.2,27.5,42.5,59.7,57.6s76.9,9,76.9,9s2.4-0.7,2.6-3.8
			s-2.8-2.8-2.8-2.8s-67.7-6.2-85.2-28.8s-24-45-24-45s-15.7-77.4,6.9-149.9s23.7-146.1,85.4-168.2c0,0,3.1-3.6,0.5-5.7
			s-37-14.9-74.6,0.5c-33.6,13.8-148.2,66.1-169.8,64.3c-6.6-0.5-45.1-9-50.4-11.8c-52-27.8-73.3-62.2-81-51.7
			c-12.7,17.7,83,79.9,48.1,111.8c-18.9,17.2-42.2,6.7-60.7-8.2c-8.7-7.1-39.1-41.7-61.7-34c-22.6,7.7,44.8,66.6,56.3,77.2
			c8.5,7.8,13.7,18.6,16.8,34c2.3,11.3,5.5,24.3-1.5,44.8c0,0-55,109.1-49.4,183.1c5.6,74,15.4,50.9,15.4,50.9
			S1496.8,888.2,1572.8,847.6z"/>
	</g>
	<g id="Layer_3">
		<path class="st4" d="M1594.3,636.2c-46.5,41.3-62.7,5.9-79.1-25.7c-12.7-24.3-13,16.9-12,19.3c25.9,61.9,49.1,53.4,53.7,83.1
			c2.6,16.5-6.4,32.3-9.8,38.9c-63.7,126.9-33.1,229.7-33.1,229.7s38-58.2,127.8-99.6c46.8-21.6,77.2,0,185.7-37.2
			c22.7-7.8,21.9,20.4,75.2,22.4c25.7,1,43-18.8,64.8-25.4c11.8-3.6,23.7,0,23.7,0c-29.5-16.1-50.3,20.2-84.8,22
			c-36,1.9-69.7-19.3-65.1-36.3c19.7-73.2,5.2-113.6,17.6-156.5c27.2-94.5,85.1-144,85.1-144s-90.8-1.1-213.7,48.7
			c-25.2,10.2-45.9,8-67.3,2.4c-23.6-6.2-19.5,1-31.2-16.1c-9.1-13.3-31.3-20-44.6-25.7c-15.1-6.5-14.4,2-14.4,8
			c0,3.3,13.4,1.3,26.8,21.8c22.3,34.3,24.6,36.1,10.6,53.5"/>
		<g>
			<g>
				<path class="st5" d="M1615.1,668c0,0-0.6,0.5-1.9,1.4c-1.1,0.9-2.9,2.2-4.8,3.7c-4,3-9.4,6.8-14.4,10.8
					c-2.6,2.1-4.9,4.1-7.1,6.2c-1,1-2.1,2.1-3,3.1c-0.4,0.5-0.8,1-1.2,1.5s-0.7,1-1,1.4c-0.3,0.5-0.6,0.9-0.9,1.4
					c-0.2,0.5-0.5,0.9-0.7,1.3c-0.2,0.4-0.3,0.8-0.5,1.2s-0.2,0.8-0.3,1.1c-0.2,0.7-0.3,1.2-0.3,1.6c-0.1,0.4-0.1,0.6-0.1,0.6
					s-0.1-0.2-0.2-0.6c-0.1-0.4-0.3-0.9-0.4-1.7c0-0.4-0.1-0.8-0.1-1.2c0-0.5,0-1,0.1-1.5s0.2-1.1,0.3-1.7c0.1-0.6,0.3-1.2,0.5-1.9
					c0.2-0.6,0.5-1.2,0.8-2c0.3-0.6,0.6-1.3,1-2c0.8-1.3,1.6-2.7,2.8-3.9c0.5-0.6,1-1.2,1.6-1.9c0.5-0.6,1.1-1.2,1.7-1.9
					c1.2-1.2,2.6-2.3,3.9-3.4c1.3-1,2.8-2.1,4.1-3c1.4-0.9,2.8-1.9,4.2-2.6c2.8-1.5,5.5-2.9,7.8-3.8c2.4-0.9,4.4-1.6,5.9-2.1
					c0.7-0.2,1.3-0.3,1.6-0.4C1614.9,668,1615.1,668,1615.1,668z"/>
			</g>
			<g>
				<path class="st5" d="M1618.6,681.6c0,0-0.6,0.6-1.9,1.7c-1.1,1.1-2.8,2.6-4.8,4.3c-4,3.6-9.4,8.1-14.5,12.9
					c-1.2,1.1-2.6,2.4-3.7,3.6c-1.2,1.2-2.4,2.4-3.5,3.6c-1.1,1.1-2.1,2.4-3,3.5s-1.7,2.3-2.4,3.3c-0.3,0.5-0.6,1-0.9,1.5
					s-0.5,1-0.7,1.4c-0.4,0.9-0.7,1.9-0.9,2.6c-0.2,0.7-0.3,1.3-0.3,1.7c-0.1,0.4-0.1,0.6-0.1,0.6s-0.1-0.2-0.2-0.6s-0.3-1-0.4-1.9
					c-0.1-0.8-0.1-1.9,0-3c0.1-0.6,0.2-1.2,0.3-1.9c0.2-0.6,0.3-1.3,0.5-2c0.2-0.6,0.5-1.3,0.8-2.1c0.3-0.7,0.6-1.4,1-2.2
					c0.8-1.4,1.6-2.9,2.7-4.2c0.5-0.7,1-1.4,1.6-2.1c0.5-0.7,1.1-1.3,1.7-2.1c1.2-1.3,2.6-2.7,3.9-3.9c1.3-1.2,2.8-2.5,4.1-3.5
					c1.4-1.1,2.8-2.2,4.2-3.1c2.8-2,5.6-3.6,7.9-4.8c2.4-1.2,4.5-2.2,6-2.8c0.7-0.3,1.3-0.5,1.7-0.6
					C1618.4,681.6,1618.6,681.6,1618.6,681.6z"/>
			</g>
			<g>
				<path class="st5" d="M1624,693.2c0,0-0.6,0.8-1.7,2.2c-1.1,1.3-2.8,3.2-4.7,5.5c-3.9,4.4-9.4,10.2-14.5,16.1
					c-1.3,1.4-2.6,3-3.8,4.4s-2.5,2.9-3.5,4.3c-0.6,0.7-1.1,1.4-1.6,2.2c-0.5,0.7-1,1.3-1.4,2.1c-0.9,1.3-1.7,2.7-2.5,3.9
					c-0.7,1.2-1.3,2.4-1.7,3.5c-0.3,0.5-0.4,1-0.6,1.5c-0.1,0.2-0.2,0.5-0.2,0.7c-0.1,0.2-0.1,0.4-0.2,0.6c-0.1,0.4-0.2,0.8-0.3,1.1
					c0,0.3-0.1,0.6-0.1,0.8c-0.1,0.5-0.1,0.7-0.1,0.7s-0.1-0.2-0.2-0.7c-0.1-0.2-0.1-0.5-0.2-0.8c-0.1-0.3-0.1-0.7-0.1-1.2
					c0-0.2,0-0.5-0.1-0.7c0-0.2,0-0.5,0-0.8c0-0.5,0-1.1,0.1-1.7c0.2-1.2,0.5-2.7,0.9-4.2c0.5-1.4,1.1-3.1,1.9-4.6
					c0.4-0.8,0.8-1.6,1.2-2.4c0.4-0.8,0.9-1.6,1.4-2.5c1-1.6,2.2-3.3,3.4-4.8c1.2-1.6,2.5-3.2,3.8-4.6c1.3-1.5,2.7-3,4.1-4.4
					s2.8-2.8,4.2-4c2.8-2.5,5.6-4.7,8-6.5c2.5-1.7,4.5-3.1,6.1-4c0.7-0.5,1.3-0.8,1.7-1C1623.8,693.4,1624,693.2,1624,693.2z"/>
			</g>
			<g>
				<path class="st5" d="M1638.3,705.9c0,0-0.7,0.8-2.1,2.4c-1.3,1.4-3.3,3.5-5.6,6c-2.4,2.4-5,5.2-8,8.2c-1.4,1.4-3,3-4.5,4.6
					c-1.5,1.5-3.1,3.2-4.6,4.7s-3.1,3.2-4.5,4.8c-0.7,0.8-1.4,1.6-2.2,2.4c-0.7,0.8-1.4,1.5-2.1,2.4c-1.3,1.5-2.7,3.1-3.8,4.5
					c-1.1,1.4-2.3,2.9-3.1,4.3c-0.4,0.7-0.9,1.3-1.2,2c-0.4,0.6-0.7,1.2-1,1.9c-0.3,0.7-0.5,1.1-0.7,1.6s-0.4,1-0.5,1.4
					s-0.2,0.9-0.3,1.2c-0.1,0.4-0.1,0.7-0.1,0.9c-0.1,0.5-0.1,0.8-0.1,0.8s-0.1-0.3-0.2-0.8c-0.1-0.3-0.1-0.6-0.2-1
					c0-0.4,0-0.8-0.1-1.3c0-0.5,0.1-1,0.1-1.7c0-0.6,0.2-1.2,0.3-2c0.1-0.7,0.3-1.4,0.6-2.2c0.2-0.8,0.5-1.5,0.9-2.4
					c0.6-1.6,1.5-3.3,2.6-5c1.1-1.7,2.2-3.5,3.4-5.2c1.2-1.7,2.7-3.5,4.1-5.2c1.4-1.7,3-3.4,4.5-5s3.2-3.3,4.8-4.7
					c1.6-1.5,3.3-3,4.9-4.3c3.3-2.8,6.4-5.1,9.2-7.1c2.8-2,5.1-3.5,6.9-4.5C1637.3,706.4,1638.3,705.9,1638.3,705.9z"/>
			</g>
			<g>
				<path class="st5" d="M1651.1,713.3c0,0-0.6,0.8-1.9,2.3c-1.2,1.4-2.9,3.5-5,5.9s-4.5,5.1-7.2,8s-5.5,6.1-8.1,9.2
					c-1.3,1.5-2.7,3.2-4,4.7c-0.6,0.8-1.3,1.5-2,2.4c-0.6,0.8-1.2,1.5-1.9,2.3c-1.2,1.5-2.4,3-3.3,4.4c-0.5,0.7-1,1.4-1.4,2.2
					c-0.5,0.7-0.9,1.3-1.2,2.1c-0.4,0.6-0.7,1.3-1,2c-0.3,0.7-0.6,1.2-0.8,1.7c-0.1,0.3-0.3,0.5-0.4,0.8c-0.1,0.3-0.2,0.5-0.3,0.8
					c-0.2,0.5-0.4,1-0.4,1.4c-0.1,0.4-0.2,0.8-0.3,1.1c0,0.3-0.1,0.6-0.1,0.9c-0.1,0.5-0.1,0.7-0.1,0.7s-0.1-0.3-0.2-0.7
					c-0.1-0.2-0.1-0.5-0.2-0.9c0-0.4-0.1-0.8-0.1-1.2c-0.1-0.5,0-1,0-1.6s0.1-1.2,0.2-1.9c0.1-0.7,0.2-1.3,0.4-2.1
					c0.2-0.7,0.4-1.5,0.7-2.3c0.3-0.8,0.6-1.5,0.9-2.4s0.7-1.6,1.1-2.5c0.8-1.6,1.9-3.4,3-5.1s2.3-3.4,3.6-5.1
					c1.3-1.6,2.7-3.3,4.1-4.9s2.9-3.2,4.3-4.6c0.7-0.7,1.4-1.4,2.3-2.2c0.7-0.7,1.4-1.4,2.3-2.1c3-2.7,5.9-5,8.4-7
					c2.6-2,4.7-3.4,6.4-4.4C1650.2,713.9,1651.1,713.3,1651.1,713.3z"/>
			</g>
			<g>
				<path class="st5" d="M1645.2,643.9c0,0,0.1-0.8,0.5-2.3c0.4-1.4,1-3.5,2-5.9c0.9-2.4,2.2-5,3.8-7.8c0.4-0.7,0.8-1.4,1.2-2.1
					c0.4-0.7,0.8-1.4,1.3-2.2c0.9-1.4,2-2.8,3-4.2c1-1.3,2.2-2.7,3.4-3.9c0.6-0.6,1.1-1.2,1.7-1.9c0.6-0.6,1.2-1.1,1.9-1.6
					c1.2-1,2.6-2,3.9-2.8c0.6-0.4,1.3-0.7,2-1c0.7-0.3,1.3-0.6,2-0.8c0.6-0.2,1.2-0.4,1.9-0.5c0.6-0.1,1.2-0.2,1.7-0.3
					c1.1-0.1,2.1-0.1,2.9,0.1c0.7,0.1,1.3,0.3,1.7,0.4c0.4,0.1,0.6,0.2,0.6,0.2s-0.2,0-0.6,0.1s-0.9,0.1-1.6,0.3
					c-0.7,0.1-1.5,0.5-2.4,0.8c-0.4,0.2-0.9,0.4-1.3,0.7c-0.4,0.3-0.9,0.6-1.4,0.9c-0.9,0.7-2,1.4-3,2.4c-1,0.9-2.1,1.9-3.1,3
					c-1,1-2.1,2.3-3.1,3.5c-1,1.2-2.1,2.5-3,3.8c-2,2.6-3.9,5.2-5.8,7.7s-3.5,4.8-5,6.9c-1.5,2.1-2.8,3.7-3.7,4.8
					C1645.8,643.3,1645.2,643.9,1645.2,643.9z"/>
			</g>
			<g>
				<path class="st5" d="M1658.3,647.9c0,0,0.3-0.9,0.8-2.4c0.6-1.4,1.5-3.6,2.8-6s2.9-5.1,4.7-7.9c0.5-0.7,0.9-1.4,1.4-2.2
					c0.5-0.7,1-1.4,1.5-2.2c1.1-1.4,2.3-2.8,3.5-4.2c1.2-1.3,2.5-2.7,3.8-3.9c1.3-1.2,2.7-2.4,4.1-3.5c0.7-0.5,1.3-1,2.1-1.4
					c0.7-0.5,1.4-0.9,2.2-1.3c1.4-0.8,2.8-1.4,4.1-2c0.6-0.2,1.3-0.4,2-0.6c0.6-0.2,1.2-0.2,1.9-0.3c1.1-0.1,2.2-0.1,3,0
					c0.8,0,1.4,0.3,1.9,0.4c0.4,0.1,0.6,0.2,0.6,0.2s-0.2,0-0.6,0.1c-0.4,0-1,0.1-1.7,0.3c-0.7,0.1-1.6,0.5-2.6,0.9
					c-0.9,0.4-2,1-3,1.6c-1,0.7-2.2,1.5-3.3,2.5c-0.5,0.5-1.1,0.9-1.7,1.4s-1.1,1-1.7,1.6c-1.1,1.1-2.4,2.3-3.5,3.5
					c-1.1,1.2-2.4,2.5-3.5,3.8c-2.4,2.6-4.6,5.2-6.8,7.7c-2.2,2.5-4.2,4.8-6,6.9c-1.7,2.1-3.3,3.7-4.3,4.8
					C1659,647.3,1658.3,647.9,1658.3,647.9z"/>
			</g>
			<g>
				<path class="st5" d="M1669.5,653.8c0,0,0.4-0.9,1.3-2.5c0.9-1.5,2.2-3.6,3.9-6.1c1.7-2.5,3.9-5.2,6.4-8c0.6-0.7,1.2-1.4,1.9-2.2
					c0.6-0.7,1.3-1.4,2.1-2.2c1.3-1.4,2.8-2.8,4.3-4.1c1.5-1.3,3-2.7,4.6-3.9c1.5-1.2,3.2-2.4,4.7-3.4c1.6-1,3.2-2,4.8-2.8
					c0.8-0.4,1.5-0.7,2.4-1c0.7-0.3,1.5-0.6,2.3-0.8c1.4-0.5,2.9-0.8,4.1-0.9c0.6-0.1,1.2-0.1,1.7-0.1c0.3,0,0.5,0,0.8,0
					c0.2,0,0.5,0,0.7,0.1c0.4,0,0.8,0.1,1.2,0.1c0.3,0.1,0.6,0.2,0.8,0.2c0.4,0.1,0.7,0.2,0.7,0.2s-0.2,0-0.7,0.1
					c-0.2,0-0.5,0.1-0.8,0.1c-0.3,0.1-0.7,0.2-1.1,0.2c-0.2,0-0.4,0.1-0.6,0.1c-0.2,0.1-0.4,0.2-0.7,0.2c-0.5,0.2-1,0.3-1.5,0.6
					c-0.5,0.2-1.1,0.4-1.6,0.8c-0.6,0.3-1.1,0.6-1.7,1s-1.2,0.7-1.9,1.1c-0.6,0.4-1.3,0.8-2,1.3c-1.3,0.9-2.7,2-4.1,3.1
					s-2.8,2.4-4.2,3.5c-1.4,1.2-2.9,2.5-4.3,3.8c-2.9,2.6-5.8,5.2-8.4,7.7c-2.7,2.5-5.2,4.8-7.4,6.8c-2.2,2-4,3.6-5.4,4.7
					C1670.2,653.1,1669.5,653.8,1669.5,653.8z"/>
			</g>
			<g>
				<path class="st5" d="M1677.8,670.7c0,0,0.6-1,1.6-2.8c1.1-1.7,2.8-4.2,4.8-7.1c2.1-2.9,4.6-6.2,7.6-9.6
					c2.9-3.4,6.2-6.8,9.7-10.2c1.7-1.6,3.5-3.3,5.4-4.7c1.7-1.5,3.6-3,5.5-4.3c0.9-0.6,1.9-1.3,2.7-2c0.9-0.6,1.9-1.1,2.7-1.7
					c0.9-0.5,1.7-1,2.7-1.4c0.9-0.4,1.7-0.9,2.6-1.2c1.6-0.7,3.3-1.3,4.7-1.6c1.4-0.4,2.8-0.5,3.8-0.5c0.5,0,1,0,1.4,0.1
					c0.4,0,0.7,0.1,1,0.2c0.5,0.1,0.8,0.2,0.8,0.2s-0.3,0-0.8,0.1c-0.3,0-0.6,0-1,0.1s-0.8,0.2-1.3,0.3c-0.9,0.3-2.1,0.7-3.3,1.4
					c-1.2,0.6-2.6,1.4-4,2.5c-1.4,0.9-2.9,2.1-4.4,3.3c-0.7,0.6-1.5,1.2-2.4,2c-0.8,0.7-1.6,1.3-2.5,2.1c-1.6,1.4-3.3,3-4.9,4.5
					s-3.4,3.1-5,4.7c-1.7,1.5-3.4,3.2-5,4.8s-3.3,3.2-4.8,4.7c-3.2,3.1-6.1,6-8.6,8.3c-2.6,2.5-4.7,4.4-6.3,5.9
					C1678.7,670,1677.8,670.7,1677.8,670.7z"/>
			</g>
			<g>
				<path class="st5" d="M1681.5,689c0,0,0.6-1,1.7-2.8c1.1-1.7,2.9-4.2,5.1-7.1c2.2-2.9,4.8-6.1,7.9-9.5c3.1-3.3,6.4-6.8,10-10.1
					c1.7-1.6,3.6-3.2,5.5-4.7s3.7-3,5.6-4.2c0.9-0.6,1.9-1.3,2.8-1.9s1.9-1.1,2.8-1.6s1.9-1,2.7-1.4c0.9-0.4,1.7-0.8,2.6-1.2
					c1.7-0.7,3.3-1.2,4.8-1.6c1.4-0.4,2.8-0.5,3.9-0.5c0.5,0,1,0,1.4,0.1c0.4,0,0.7,0.1,1,0.2c0.5,0.1,0.8,0.2,0.8,0.2
					s-0.3,0-0.8,0.1c-0.3,0-0.6,0-1,0.1s-0.8,0.2-1.3,0.3c-0.9,0.3-2.2,0.7-3.4,1.4c-1.2,0.6-2.6,1.4-4.1,2.4
					c-1.4,0.9-3,2.1-4.6,3.3c-1.5,1.2-3.2,2.6-4.9,4c-1.6,1.4-3.4,2.9-5.1,4.4s-3.5,3.1-5.2,4.7c-1.7,1.5-3.5,3.2-5.1,4.7
					c-1.7,1.5-3.4,3.2-5,4.6c-3.3,3-6.3,5.9-9,8.2c-2.7,2.3-4.9,4.4-6.5,5.8C1682.4,688.2,1681.5,689,1681.5,689z"/>
			</g>
		</g>
		<g>
			<path class="st5" d="M1761.9,725.7c-3.9-4-9.3-2.8-13.8-0.8c-2.8,1.2-5,2.5-7.2,4.6c-1,0.9-2,2.8-2.3,4.1c-0.3,1.1,0,2.2,0.1,3.2
				c-1.6,1.6-3,3.5-2.9,6.3c0.1,3.8,2.6,6.5,5.7,8.3c0.7,0.4,1.5,0.7,2.3,1c0.1,0.2,0.3,0.6,0.5,1c1.2,3,3.3,5.5,6.4,6.4
				c2.8,5.7,13.1,4.4,12.7-3.1c-0.2-5.8-1-11.3,0.3-17C1764.6,734.9,1765.5,729.5,1761.9,725.7z"/>
		</g>
		<g>
			<path class="st5" d="M1706.4,730.4c-2-1-4.4-1-6.5,0c-0.9-0.4-2-0.6-3.1-0.6l-2.8,0.1c-0.9,0-1.9,0.3-2.8,0.7
				c-2.9,0.7-5.7,2.1-7.3,4.2c-2.3,2.9-2.6,6.8,0.3,9.5c1.6,1.5,4.2,2.2,6.5,1.6c1.7,2.8,4.2,4.8,7.4,4.7c6-0.2,8.8-6.5,10.9-11.2
				C1710.6,736.2,1709.8,732.3,1706.4,730.4z"/>
		</g>
		<g>
			<path class="st5" d="M1705.7,771.2c-1.5-7.6-10.4-8-15.9-5.4c-2.9,1.4-6.3,4.4-9.6,4.8c-4.1,0.5-7.7-0.3-11.5,1.7
				c-6.1,3.3-8.8,9.2-9.1,15.8c-0.1,2.3,0.8,4,2.3,5c-0.1,0.5-0.3,0.9-0.4,1.4c-1.3,4.3,1.6,7.3,5.1,7.9c1.3,3.4,4.3,5.9,8.4,6.1
				c6.3,0.4,10.6-6.1,13.2-10.8c1.4-2.6,2.5-5.2,3.8-7.8c0.9-1.9,5.8-2.3,7.5-3.3C1705.5,783.5,1706.9,777.4,1705.7,771.2z
				 M1679.7,784.6c-0.1-0.1-0.2-0.2-0.3-0.4c-0.1-0.1-0.3-0.3-0.4-0.4c0.4,0,0.8,0,1.2,0C1680.1,784.1,1679.9,784.4,1679.7,784.6z"
				/>
		</g>
		<g>
			<path class="st5" d="M1718.7,710.9c-2-0.4-3.7-0.4-5.7,0.2c-1.2,0.4-2.3,1.2-3.1,1.5c-0.4,0.1-0.7,0.2-1.1,0.3
				c-0.1,0-0.3,0.1-0.3,0.1c-0.1,0-0.2,0-0.3,0c-0.7-0.5-1.5-0.9-2.4-1.1c-2.2-0.5-4.1,0-5.7,1.2c-4.4,2.1-4.1,9.6,0.2,11.8
				c2.9,1.4,6.2,1.7,9.4,1.3c1.4-0.2,2.9-0.4,4.3-0.8c0.9-0.3,2.1-0.8,2.9-1.2c0.1-0.1,0.3-0.1,0.4-0.2c3,0,5.8-1.9,6.6-5
				C1724.4,715.6,1722.2,711.6,1718.7,710.9z"/>
		</g>
		<g>
			<path class="st5" d="M1723.4,789.5c-2,0.1-3.6,0.9-4.8,2.3c-0.4,0.2-0.8,0.5-1.1,0.7c-1.7,0.3-3.1,0.7-4.8,1.5
				c-2.7,1.2-3.7,5-2.9,7.6c0.8,2.7,3.2,4.5,6,4.7c1.1,0.8,2.6,1.3,4.1,1.3c2.7-0.1,4.9-1.7,6-4.1c0.4-0.2,0.7-0.3,1-0.5
				c2.5-1.5,3.5-4.3,3.5-7.2C1730.3,792.3,1727,789.4,1723.4,789.5z"/>
		</g>
		<g>
			<g>
				<polyline class="st6" points="1907.3,777.4 1914.2,785.2 1906.5,792.1 				"/>
				<line class="st7" x1="1890.7" y1="806.3" x2="1740.4" y2="941.4"/>
				<polyline class="st6" points="1732.4,948.5 1724.7,955.4 1717.8,947.7 				"/>
				<line class="st8" x1="1704.8" y1="933.2" x2="1528.1" y2="736.6"/>
				<polyline class="st6" points="1521.6,729.4 1514.7,721.7 1522.3,714.8 				"/>
				<line class="st9" x1="1538.2" y1="700.6" x2="1688.6" y2="565.4"/>
				<polyline class="st6" points="1696.5,558.3 1704.1,551.4 1711,559.1 				"/>
				<line class="st10" x1="1724.1" y1="573.6" x2="1900.8" y2="770.2"/>
			</g>
		</g>
	</g>
	<g id="Layer_4">
		<rect x="-8.8" y="602.7" class="st11" width="2012.8" height="206"/>
		<g class="st12">
			<path class="st4" d="M131.2,779.2L147.3,666L99.9,779.2H65.3l5-113.7L28.3,779.2H8.1l64-173.2c-12.6,4.2-22.4,11.1-29.4,20.6
				c-7.1,9.6-10.6,21.6-10.6,36.1c0,3.4,0.2,6.1,0.6,8.1c0.4,2,0.8,3.6,1.2,4.8c0.4,1.2,0.8,2.1,1.2,2.7c0.4,0.6,0.6,1.2,0.6,1.8
				c-4.1,0-7.8-0.4-11.1-1.2c-3.3-0.8-6.2-2.1-8.5-3.9c-2.3-1.8-4.1-4.2-5.4-7.1c-1.3-2.9-1.9-6.5-1.9-10.6c0-5.3,1.1-10.7,3.3-16.1
				c2.2-5.4,5.2-10.6,9-15.6c3.8-5,8.3-9.6,13.5-13.9c5.2-4.3,10.7-8.1,16.7-11.3c5.9-3.2,12.1-5.7,18.6-7.5
				c6.4-1.8,12.9-2.7,19.3-2.7c6.3,0,12.7,1.2,19.1,3.6l-5.8,132.8l55.5-132.8h36.3l-26.5,185.5H131.2z"/>
			<path class="st4" d="M332.8,734c-2.4,6.8-5,12.7-7.8,17.7c-2.8,5-5.7,9.2-8.7,12.7c-3,3.4-6.1,6.2-9.2,8.4
				c-3.1,2.1-6.2,3.8-9.1,4.9c-3,1.2-5.8,1.9-8.5,2.3c-2.7,0.4-5.2,0.6-7.4,0.6c-7.1,0-12.8-1.9-17-5.8c-4.2-3.9-6.8-9.7-7.7-17.3
				c-2.1,2.9-4.3,5.7-6.8,8.4c-2.5,2.8-5.2,5.2-8.2,7.4c-3,2.2-6.4,3.9-10.2,5.3c-3.7,1.4-7.9,2-12.4,2c-4.4,0-8.5-0.7-12.6-2.1
				c-4-1.4-7.6-3.7-10.7-6.9c-3.1-3.2-5.6-7.4-7.5-12.6s-2.8-11.5-2.8-19c0-5.7,0.6-11.9,1.7-18.5c1.1-6.6,2.9-13.1,5.3-19.7
				c2.4-6.6,5.4-12.9,8.9-18.9c3.6-6,7.8-11.4,12.6-16c4.8-4.6,10.2-8.3,16.3-11.1c6.1-2.7,12.8-4.1,20.1-4.1
				c7.1,0,12.3,1.2,15.6,3.7c3.2,2.5,4.9,5.5,4.9,9.1v1.8l2.7-13.4h36.3l-18.1,85.7c-0.4,1.4-0.7,2.8-0.9,4.1
				c-0.2,1.4-0.2,2.7-0.2,4c0,7.2,3.4,10.8,10.3,10.8c2.5,0,4.7-0.6,6.8-1.9c2.1-1.3,4-3,5.7-5.1c1.7-2.1,3.2-4.7,4.6-7.6
				c1.3-2.9,2.4-6,3.3-9.2H332.8z M269.3,677.2c0-0.7-0.2-1.7-0.5-2.8c-0.3-1.1-0.9-2.2-1.7-3.2c-0.8-1-1.8-1.9-3.1-2.6
				c-1.3-0.7-3-1-5-1c-3.5,0-6.9,1.2-10,3.4c-3.2,2.3-6.1,5.4-8.7,9.2c-2.6,3.8-5,8.1-7,13c-2.1,4.8-3.8,9.8-5.2,15
				c-1.4,5.1-2.5,10.2-3.3,15.1c-0.7,5-1.1,9.4-1.1,13.4c0,4.8,0.5,8.6,1.4,11.2c0.9,2.6,2,4.6,3.3,5.8c1.3,1.3,2.6,2,4.1,2.3
				s2.8,0.4,3.9,0.4c1.9,0,3.9-0.5,6-1.4c2.1-0.9,4.1-2.3,6-4.2c1.9-1.8,3.7-4.2,5.3-7c1.6-2.8,2.8-6,3.6-9.7L269.3,677.2z"/>
			<path class="st4" d="M460,734c-3.5,10.3-7.3,18.6-11.4,24.7s-8.2,10.9-12.3,14.1c-4.1,3.2-8.2,5.4-12.2,6.3c-4,1-7.7,1.5-11,1.5
				c-5.6,0-10.3-0.8-14-2.4c-3.8-1.6-6.8-3.7-9.1-6.4c-2.3-2.7-4-5.7-5-9.1c-1-3.4-1.5-6.9-1.5-10.5c0-4.3,0.6-9.3,1.8-15
				c1.2-5.7,2.5-11.5,3.9-17.5c1.4-6,2.7-11.8,3.9-17.4c1.2-5.6,1.8-10.4,1.8-14.4c0-8.6-3-12.9-9.1-12.9c-2.3,0-4.4,0.6-6.4,1.8
				c-2,1.2-3.8,2.9-5.4,5c-1.6,2.1-3.1,4.6-4.4,7.4c-1.3,2.8-2.5,5.8-3.4,9l-17.1,80.9h-36.3l26.7-126h36.3l-2.7,13
				c2.7-3,5.4-5.5,8.1-7.3c2.7-1.8,5.3-3.3,7.8-4.2c2.5-1,4.9-1.6,7.2-2c2.3-0.3,4.4-0.5,6.3-0.5c4,0,7.8,0.5,11.2,1.6
				c3.4,1.1,6.4,2.8,8.9,5c2.5,2.3,4.5,5.3,5.8,8.9c1.4,3.6,2.1,7.9,2.1,12.9c0,3.4-0.3,7-0.9,10.9c-0.6,3.9-1.4,7.9-2.3,11.9
				c-0.9,4.1-1.9,8.1-2.9,12.1c-1,4-2,7.9-2.9,11.6c-0.9,3.7-1.7,7.1-2.3,10.3c-0.6,3.2-0.9,5.9-0.9,8.3c0,3.1,0.7,5.7,2.2,7.6
				c1.4,2,4.1,3,7.9,3c2.7,0,5.1-0.5,7.1-1.6c2.1-1.1,3.9-2.6,5.5-4.6c1.6-2,3.1-4.3,4.5-7.1c1.4-2.7,2.7-5.8,4-9H460z"/>
			<path class="st4" d="M527.4,734c-2.4,6.8-5,12.7-7.9,17.7c-2.9,5-6,9.2-9.1,12.7c-3.2,3.4-6.4,6.2-9.7,8.4
				c-3.3,2.1-6.5,3.8-9.7,4.9c-3.1,1.2-6.1,1.9-8.9,2.3c-2.8,0.4-5.4,0.6-7.6,0.6c-3.8,0-7.3-0.6-10.6-1.7c-3.3-1.1-6.1-3-8.6-5.4
				c-2.4-2.5-4.3-5.6-5.7-9.4c-1.4-3.8-2.1-8.3-2.1-13.7c0-2.3,0.2-4.8,0.5-7.6c0.3-2.7,0.8-5.7,1.5-8.9l15.1-70.8h-8.4l2.1-10.1
				h8.2l7.6-34.8l37.3-5l-8.6,39.9H518l-2,10.1h-15.1l-16.1,75.6c-0.4,1.4-0.7,2.8-0.8,4.1c-0.1,1.4-0.2,2.7-0.2,4
				c0,3.5,0.8,6,2.5,7.3c1.6,1.4,4.2,2,7.8,2c2.5,0,4.9-0.6,7.2-1.7c2.3-1.1,4.5-2.6,6.5-4.6c2-2,3.7-4.3,5.3-7.1
				c1.6-2.7,2.8-5.7,3.8-8.9H527.4z"/>
			<path class="st4" d="M619.7,738.8c-0.4,1.4-0.7,2.8-0.9,4.1c-0.2,1.4-0.2,2.7-0.2,4c0,3.5,0.8,6,2.5,7.3c1.7,1.4,4.3,2,7.8,2
				c1.1,0,2.2-0.1,3.1-0.2c0.9-0.2,1.7-0.5,2.5-0.9c-1.7,4.4-3.4,8.1-4.9,11.3c-1.6,3.2-3.3,5.8-5.2,7.9c-1.9,2.1-4,3.7-6.5,4.7
				c-2.4,1-5.3,1.5-8.6,1.5c-7,0-12.6-2-16.9-6.1c-4.3-4.1-6.9-9.8-7.9-17.3c-1.9,2.9-4.1,5.7-6.6,8.5c-2.5,2.8-5.3,5.3-8.4,7.5
				s-6.5,4-10.3,5.4c-3.8,1.4-7.9,2-12.3,2c-4.4,0-8.5-0.7-12.6-2.1c-4-1.4-7.6-3.7-10.7-6.9c-3.1-3.2-5.6-7.4-7.5-12.6
				s-2.8-11.5-2.8-19c0-5.7,0.6-11.9,1.7-18.5c1.1-6.6,2.9-13.1,5.3-19.7c2.4-6.6,5.4-12.9,8.9-18.9c3.6-6,7.8-11.4,12.6-16
				c4.8-4.6,10.2-8.3,16.3-11.1c6.1-2.7,12.8-4.1,20.1-4.1c7.1,0,12.3,1.2,15.6,3.7c3.2,2.5,4.9,5.5,4.9,9.1v1.8l2.7-13.4h36.3
				L619.7,738.8z M596.4,677.2c0-0.7-0.2-1.7-0.5-2.8c-0.3-1.1-0.9-2.2-1.7-3.2c-0.8-1-1.8-1.9-3.1-2.6c-1.3-0.7-3-1-5-1
				c-3.5,0-6.9,1.2-10,3.4c-3.2,2.3-6.1,5.4-8.7,9.2c-2.6,3.8-5,8.1-7,13c-2.1,4.8-3.8,9.8-5.2,15c-1.4,5.1-2.5,10.2-3.3,15.1
				c-0.7,5-1.1,9.4-1.1,13.4c0,4.8,0.5,8.6,1.4,11.2c0.9,2.6,2,4.6,3.3,5.8c1.3,1.3,2.6,2,4.1,2.3s2.8,0.4,3.9,0.4
				c1.9,0,3.9-0.5,6-1.4c2.1-0.9,4.1-2.3,6-4.2c1.9-1.8,3.7-4.2,5.3-7c1.6-2.8,2.8-6,3.6-9.7L596.4,677.2z"/>
			<path class="st4" d="M774.4,779.2L790.5,666l-47.4,113.2h-34.6l5-113.7l-42.1,113.7h-20.2l64-173.2
				c-12.6,4.2-22.4,11.1-29.4,20.6c-7.1,9.6-10.6,21.6-10.6,36.1c0,3.4,0.2,6.1,0.6,8.1c0.4,2,0.8,3.6,1.2,4.8
				c0.4,1.2,0.8,2.1,1.2,2.7c0.4,0.6,0.6,1.2,0.6,1.8c-4.1,0-7.8-0.4-11.1-1.2c-3.3-0.8-6.2-2.1-8.5-3.9c-2.3-1.8-4.1-4.2-5.4-7.1
				c-1.3-2.9-1.9-6.5-1.9-10.6c0-5.3,1.1-10.7,3.3-16.1c2.2-5.4,5.2-10.6,9-15.6c3.8-5,8.3-9.6,13.5-13.9
				c5.2-4.3,10.7-8.1,16.7-11.3c5.9-3.2,12.1-5.7,18.6-7.5c6.4-1.8,12.9-2.7,19.3-2.7c6.3,0,12.7,1.2,19.1,3.6l-5.8,132.8
				l55.5-132.8h36.3l-26.5,185.5H774.4z"/>
			<path class="st4" d="M976,734c-2.4,6.8-5,12.7-7.8,17.7c-2.8,5-5.7,9.2-8.7,12.7c-3,3.4-6.1,6.2-9.2,8.4
				c-3.1,2.1-6.2,3.8-9.1,4.9c-3,1.2-5.8,1.9-8.5,2.3c-2.7,0.4-5.2,0.6-7.4,0.6c-7.1,0-12.8-1.9-17-5.8c-4.2-3.9-6.8-9.7-7.7-17.3
				c-2.1,2.9-4.3,5.7-6.8,8.4c-2.5,2.8-5.2,5.2-8.2,7.4c-3,2.2-6.4,3.9-10.2,5.3c-3.7,1.4-7.9,2-12.4,2c-4.4,0-8.5-0.7-12.6-2.1
				c-4-1.4-7.6-3.7-10.7-6.9c-3.1-3.2-5.6-7.4-7.5-12.6s-2.8-11.5-2.8-19c0-5.7,0.6-11.9,1.7-18.5c1.1-6.6,2.9-13.1,5.3-19.7
				c2.4-6.6,5.4-12.9,8.9-18.9c3.6-6,7.8-11.4,12.6-16c4.8-4.6,10.2-8.3,16.3-11.1c6.1-2.7,12.8-4.1,20.1-4.1
				c7.1,0,12.3,1.2,15.6,3.7c3.2,2.5,4.9,5.5,4.9,9.1v1.8l2.7-13.4h36.3l-18.1,85.7c-0.4,1.4-0.7,2.8-0.9,4.1
				c-0.2,1.4-0.2,2.7-0.2,4c0,7.2,3.4,10.8,10.3,10.8c2.5,0,4.7-0.6,6.8-1.9c2.1-1.3,4-3,5.7-5.1c1.7-2.1,3.2-4.7,4.6-7.6
				c1.3-2.9,2.4-6,3.3-9.2H976z M912.5,677.2c0-0.7-0.2-1.7-0.5-2.8c-0.3-1.1-0.9-2.2-1.7-3.2c-0.8-1-1.8-1.9-3.1-2.6
				c-1.3-0.7-3-1-5-1c-3.5,0-6.9,1.2-10,3.4c-3.2,2.3-6.1,5.4-8.7,9.2c-2.6,3.8-5,8.1-7,13c-2.1,4.8-3.8,9.8-5.2,15
				c-1.4,5.1-2.5,10.2-3.3,15.1c-0.7,5-1.1,9.4-1.1,13.4c0,4.8,0.5,8.6,1.4,11.2c0.9,2.6,2,4.6,3.3,5.8c1.3,1.3,2.6,2,4.1,2.3
				s2.8,0.4,3.9,0.4c1.9,0,3.9-0.5,6-1.4c2.1-0.9,4.1-2.3,6-4.2c1.9-1.8,3.7-4.2,5.3-7c1.6-2.8,2.8-6,3.6-9.7L912.5,677.2z"/>
			<path class="st4" d="M1043.4,734c-2.4,6.8-5,12.7-7.9,17.7c-2.9,5-6,9.2-9.1,12.7c-3.2,3.4-6.4,6.2-9.7,8.4
				c-3.3,2.1-6.5,3.8-9.7,4.9c-3.1,1.2-6.1,1.9-8.9,2.3c-2.8,0.4-5.4,0.6-7.6,0.6c-3.8,0-7.3-0.6-10.6-1.7c-3.3-1.1-6.1-3-8.6-5.4
				c-2.4-2.5-4.3-5.6-5.7-9.4c-1.4-3.8-2.1-8.3-2.1-13.7c0-2.3,0.2-4.8,0.5-7.6c0.3-2.7,0.8-5.7,1.5-8.9l15.1-70.8h-8.4l2.1-10.1
				h8.2l7.6-34.8l37.3-5l-8.6,39.9h15.1l-2,10.1h-15.1l-16.1,75.6c-0.4,1.4-0.7,2.8-0.8,4.1c-0.1,1.4-0.2,2.7-0.2,4
				c0,3.5,0.8,6,2.5,7.3c1.6,1.4,4.2,2,7.8,2c2.5,0,4.9-0.6,7.2-1.7c2.3-1.1,4.5-2.6,6.5-4.6s3.7-4.3,5.3-7.1
				c1.6-2.7,2.8-5.7,3.8-8.9H1043.4z"/>
			<path class="st4" d="M1138.1,734c-3.5,5.9-7.6,11.7-12.1,17.2c-4.6,5.6-9.7,10.5-15.4,14.9c-5.7,4.3-12,7.9-19,10.5
				c-6.9,2.7-14.5,4-22.8,4c-6,0-11.4-0.8-16.2-2.3c-4.8-1.5-9-3.9-12.4-7.1c-3.4-3.2-6.1-7.3-7.9-12.4c-1.8-5-2.8-11.1-2.8-18.3
				c0-4.8,0.5-10.4,1.5-16.8c1-6.4,2.6-12.9,4.7-19.5c2.2-6.6,5-13.2,8.5-19.6c3.5-6.4,7.8-12.1,12.8-17.1c5-5,10.9-9,17.5-12.1
				s14.2-4.6,22.8-4.6c5.6,0,10.2,0.7,13.8,2c3.6,1.4,6.5,3.1,8.6,5.3c2.1,2.2,3.6,4.7,4.4,7.4c0.8,2.8,1.2,5.6,1.2,8.4
				c0,3.1-0.3,5.8-1,8.1c-0.7,2.3-1.7,4.2-2.9,5.7c-1.2,1.6-2.7,2.7-4.3,3.4c-1.6,0.7-3.4,1.1-5.2,1.1c-2.9,0-5.8-1-8.9-3
				c2-5.4,3.1-10.4,3.1-14.9c0-3.1-0.6-5.6-1.7-7.5c-1.1-1.9-2.9-2.8-5.3-2.8c-2.6,0-5.3,1.2-7.9,3.6c-2.6,2.4-5.2,5.5-7.6,9.5
				c-2.4,3.9-4.7,8.5-6.7,13.5c-2.1,5.1-3.8,10.4-5.4,15.9c-1.5,5.5-2.7,11-3.6,16.4c-0.9,5.5-1.3,10.5-1.3,15.2
				c0,4.3,0.4,7.8,1.2,10.5c0.8,2.8,1.9,4.9,3.4,6.5c1.5,1.6,3.4,2.6,5.7,3.3c2.3,0.6,4.9,0.9,7.9,0.9c5,0,9.5-0.7,13.6-2
				c4.1-1.3,7.9-3.1,11.4-5.4c3.5-2.3,6.9-5,10-8.1c3.2-3.1,6.3-6.4,9.5-10H1138.1z"/>
			<path class="st4" d="M1267.4,734c-3.5,10.3-7.3,18.6-11.4,24.7s-8.2,10.9-12.3,14.1c-4.1,3.2-8.2,5.4-12.2,6.3
				c-4,1-7.7,1.5-11,1.5c-5.6,0-10.3-0.8-14-2.4c-3.8-1.6-6.8-3.7-9.1-6.4c-2.3-2.7-4-5.7-5-9.1c-1-3.4-1.5-6.9-1.5-10.5
				c0-4.3,0.6-9.3,1.8-15c1.2-5.7,2.5-11.5,3.9-17.5c1.4-6,2.7-11.8,3.9-17.4c1.2-5.6,1.8-10.4,1.8-14.4c0-8.6-3-12.9-9.1-12.9
				c-2.3,0-4.4,0.6-6.4,1.8c-2,1.2-3.8,2.9-5.4,5c-1.6,2.1-3.1,4.6-4.4,7.4c-1.3,2.8-2.5,5.8-3.4,9l-17.1,80.9h-36.3l36.6-171.5
				l37.3-5l-13.5,63.5c2.7-3,5.4-5.5,8.1-7.3c2.7-1.8,5.3-3.3,7.8-4.2c2.5-1,4.9-1.6,7.2-2c2.3-0.3,4.4-0.5,6.3-0.5
				c4,0,7.8,0.5,11.2,1.6c3.4,1.1,6.4,2.8,8.9,5c2.5,2.3,4.5,5.3,5.8,8.9c1.4,3.6,2.1,7.9,2.1,12.9c0,3.4-0.3,7-0.9,10.9
				c-0.6,3.9-1.4,7.9-2.3,11.9c-0.9,4.1-1.9,8.1-2.9,12.1c-1,4-2,7.9-2.9,11.6c-0.9,3.7-1.7,7.1-2.3,10.3c-0.6,3.2-0.9,5.9-0.9,8.3
				c0,3.1,0.7,5.7,2.2,7.6c1.4,2,4.1,3,7.9,3c2.7,0,5.1-0.5,7.1-1.6c2.1-1.1,3.9-2.6,5.5-4.6c1.6-2,3.1-4.3,4.5-7.1
				c1.4-2.7,2.7-5.8,4-9H1267.4z"/>
			<path class="st4" d="M1362.2,734c-3.5,5.9-7.6,11.7-12.1,17.2c-4.6,5.6-9.7,10.5-15.4,14.9c-5.7,4.3-12,7.9-19,10.5
				c-6.9,2.7-14.5,4-22.8,4c-6,0-11.4-0.8-16.2-2.3c-4.8-1.5-9-3.9-12.4-7.1c-3.4-3.2-6.1-7.3-7.9-12.4c-1.8-5-2.8-11.1-2.8-18.3
				c0-4.8,0.5-10.4,1.5-16.7c1-6.3,2.5-12.8,4.7-19.4c2.1-6.6,5-13.2,8.5-19.6c3.5-6.4,7.8-12.1,12.8-17.2c5-5,10.9-9.1,17.6-12.2
				c6.7-3.1,14.4-4.6,23-4.6c5.7,0,10.3,0.7,13.8,2c3.6,1.4,6.4,3.1,8.5,5.4c2.1,2.2,3.5,4.8,4.3,7.7c0.8,2.9,1.2,5.9,1.2,9
				c0,7.3-1.6,14.1-4.8,20.4c-3.2,6.3-7.5,11.8-12.9,16.4c-5.4,4.7-11.6,8.5-18.5,11.3c-7,2.9-14.2,4.6-21.8,5
				c-0.2,1.9-0.3,3.7-0.4,5.4c-0.1,1.7-0.2,3.3-0.2,4.7c0,4.3,0.4,7.8,1.2,10.5c0.8,2.8,1.9,4.9,3.4,6.5c1.5,1.6,3.4,2.6,5.7,3.3
				c2.3,0.6,4.9,0.9,7.9,0.9c5,0,9.5-0.7,13.6-2c4.1-1.3,7.9-3.1,11.4-5.4c3.5-2.3,6.9-5,10-8.1c3.2-3.1,6.3-6.4,9.5-10H1362.2z
				 M1293.4,716.2c4.8-0.3,9.4-1.7,13.8-4.1c4.4-2.4,8.3-5.5,11.7-9.3c3.4-3.8,6.1-8.2,8.1-13c2-4.9,3-9.9,3-15.2
				c0-3.1-0.5-5.6-1.4-7.5c-0.9-1.9-2.5-2.8-4.9-2.8c-3.2,0-6.3,1.5-9.4,4.6c-3.1,3.1-6,7.1-8.7,12c-2.7,4.9-5.1,10.5-7.2,16.7
				C1296.2,703.7,1294.6,710,1293.4,716.2z"/>
			<path class="st4" d="M1343.9,779.2l26.7-126h36.3l-3.2,15.6c2.2-2,4.5-3.9,6.8-5.8c2.3-1.9,4.7-3.5,7.2-5
				c2.5-1.4,5.1-2.6,7.8-3.5c2.7-0.9,5.6-1.4,8.6-1.4c2.9,0,5.4,0.5,7.6,1.6c2.2,1.1,4,2.5,5.5,4.2c1.5,1.7,2.6,3.7,3.3,6
				c0.7,2.3,1.1,4.7,1.1,7.1c0,2.2-0.4,4.4-1.1,6.6c-0.7,2.2-1.9,4.1-3.4,5.8c-1.5,1.7-3.4,3.1-5.7,4.2c-2.3,1.1-5,1.7-8,1.7
				c-2.4,0-4.2-0.4-5.5-1.2c-1.3-0.8-2.2-1.8-2.9-3.1c-0.7-1.2-1.1-2.6-1.4-4c-0.3-1.4-0.6-2.8-0.9-4c-0.3-1.2-0.8-2.3-1.3-3.1
				c-0.5-0.8-1.4-1.2-2.6-1.2c-3.9,0-7.1,0.9-9.7,2.6c-2.6,1.8-5.5,4.1-8.6,7l-20.2,95.8H1343.9z"/>
		</g>
		<g class="st12">
			<path class="st4" d="M6.1,817.5v-2.4H41v2.4H24.9v43.2h-2.8v-43.2H6.1z"/>
			<path class="st4" d="M59.1,815.1h2.8v20.7h29.1v-20.7h2.8v45.6h-2.8v-22.5H61.9v22.5h-2.8V815.1z"/>
			<path class="st4" d="M116.9,815.1h30.7v2.4h-27.9v18.3h26.2v2.4h-26.2v20.1h28.2v2.4h-31V815.1z"/>
			<path class="st4" d="M195.9,815.1h2.9l11.9,42.6h0.1l12.1-42.6h3.5l12.3,42.6h0.1l11.7-42.6h3l-13.1,45.6h-3.2l-12.5-43.2h-0.1
				l-12.3,43.2h-3.1L195.9,815.1z"/>
			<path class="st4" d="M272,815.1h2.8v45.6H272V815.1z"/>
			<path class="st4" d="M297.9,815.1h2.8v43.2h25.9v2.4h-28.7V815.1z"/>
			<path class="st4" d="M344.7,815.1h14.9c4.1,0,7.5,0.6,10.2,1.9c2.7,1.3,4.9,3,6.5,5.1c1.6,2.1,2.8,4.6,3.4,7.3
				c0.7,2.7,1,5.5,1,8.4c0,3.2-0.4,6.3-1.2,9c-0.8,2.8-2.1,5.2-3.9,7.3c-1.7,2-4,3.7-6.6,4.8c-2.7,1.2-5.8,1.8-9.5,1.8h-14.8V815.1z
				 M359.8,858.2c2.1,0,4.3-0.3,6.4-1c2.2-0.7,4.1-1.8,5.8-3.3c1.7-1.6,3.2-3.6,4.2-6.3c1.1-2.6,1.6-5.9,1.6-9.9
				c0-3.1-0.3-5.8-0.9-8c-0.6-2.2-1.4-4.1-2.4-5.6c-1-1.5-2.2-2.7-3.5-3.6c-1.3-0.9-2.6-1.5-4-2c-1.4-0.5-2.8-0.8-4.2-0.9
				c-1.4-0.1-2.6-0.2-3.7-0.2h-11.7v40.8H359.8z"/>
			<path class="st4" d="M402.3,815.1h18.3c2.7,0,5,0.3,6.8,1c1.8,0.7,3.3,1.6,4.4,2.7c1.1,1.1,1.9,2.4,2.4,3.8
				c0.5,1.4,0.7,2.9,0.7,4.3c0,1.2-0.2,2.4-0.6,3.5c-0.4,1.1-1,2.1-1.8,2.9c-0.8,0.9-1.7,1.6-2.8,2.1c-1.1,0.6-2.3,0.9-3.6,1.1
				l0.1,0.1c0.3,0,1,0.1,2.1,0.4c1.1,0.3,2.3,0.9,3.5,1.7c1.2,0.8,2.3,2,3.3,3.5c1,1.5,1.4,3.4,1.4,5.7c0,2.1-0.4,3.9-1.2,5.5
				c-0.8,1.6-1.8,2.9-3.2,4c-1.4,1.1-3.1,1.9-5,2.5c-2,0.6-4.1,0.8-6.5,0.8h-18.3V815.1z M420.6,835.8c3.9,0,6.8-0.9,8.7-2.6
				c1.9-1.7,2.9-4,2.9-6.8c0-1.7-0.3-3.1-1-4.2c-0.6-1.1-1.5-2-2.6-2.7c-1.1-0.7-2.3-1.2-3.7-1.5c-1.4-0.3-2.8-0.4-4.4-0.4h-15.5
				v18.3H420.6z M420.6,858.2c4.1,0,7.3-0.9,9.6-2.6c2.3-1.7,3.5-4.3,3.5-7.8c0-2-0.4-3.6-1.2-4.8c-0.8-1.3-1.8-2.2-3.1-3
				c-1.3-0.7-2.7-1.2-4.2-1.5c-1.6-0.3-3.1-0.4-4.6-0.4h-15.5v20.1H420.6z"/>
			<path class="st4" d="M498.8,837.9c0,3.3-0.5,6.4-1.5,9.4c-1,2.9-2.4,5.5-4.2,7.6c-1.9,2.2-4.1,3.8-6.8,5.1
				c-2.7,1.2-5.7,1.9-9.1,1.9c-3.4,0-6.5-0.6-9.2-1.9c-2.7-1.2-5-2.9-6.8-5.1c-1.9-2.2-3.3-4.7-4.2-7.6c-1-2.9-1.5-6-1.5-9.4
				s0.5-6.4,1.5-9.4c1-2.9,2.4-5.5,4.2-7.6c1.9-2.1,4.1-3.8,6.8-5.1c2.7-1.2,5.8-1.9,9.2-1.9c3.4,0,6.5,0.6,9.1,1.9
				c2.7,1.2,5,2.9,6.8,5.1c1.9,2.2,3.3,4.7,4.2,7.6C498.4,831.4,498.8,834.5,498.8,837.9z M458.3,837.9c0,2.9,0.4,5.7,1.3,8.3
				c0.9,2.6,2.1,4.9,3.7,6.8c1.6,1.9,3.6,3.5,5.9,4.6c2.3,1.1,5,1.7,8,1.7c3,0,5.6-0.6,8-1.7c2.3-1.2,4.3-2.7,5.9-4.6
				c1.6-1.9,2.9-4.2,3.7-6.8c0.9-2.6,1.3-5.4,1.3-8.3c0-2.9-0.4-5.7-1.3-8.3c-0.9-2.6-2.1-4.9-3.7-6.8c-1.6-1.9-3.6-3.5-5.9-4.6
				c-2.3-1.2-5-1.7-8-1.7c-3,0-5.6,0.6-8,1.7c-2.3,1.1-4.3,2.7-5.9,4.6c-1.6,1.9-2.9,4.2-3.7,6.8
				C458.7,832.2,458.3,834.9,458.3,837.9z"/>
			<path class="st4" d="M561.1,837.9c0,3.3-0.5,6.4-1.5,9.4c-1,2.9-2.4,5.5-4.2,7.6c-1.9,2.2-4.1,3.8-6.8,5.1
				c-2.7,1.2-5.7,1.9-9.1,1.9c-3.4,0-6.5-0.6-9.2-1.9c-2.7-1.2-5-2.9-6.8-5.1c-1.9-2.2-3.3-4.7-4.2-7.6c-1-2.9-1.5-6-1.5-9.4
				s0.5-6.4,1.5-9.4c1-2.9,2.4-5.5,4.2-7.6c1.9-2.1,4.1-3.8,6.8-5.1c2.7-1.2,5.8-1.9,9.2-1.9c3.4,0,6.5,0.6,9.1,1.9
				c2.7,1.2,5,2.9,6.8,5.1c1.9,2.2,3.3,4.7,4.2,7.6C560.6,831.4,561.1,834.5,561.1,837.9z M520.6,837.9c0,2.9,0.4,5.7,1.3,8.3
				c0.9,2.6,2.1,4.9,3.7,6.8c1.6,1.9,3.6,3.5,5.9,4.6c2.3,1.1,5,1.7,8,1.7c3,0,5.6-0.6,8-1.7c2.3-1.2,4.3-2.7,5.9-4.6
				c1.6-1.9,2.9-4.2,3.7-6.8c0.9-2.6,1.3-5.4,1.3-8.3c0-2.9-0.4-5.7-1.3-8.3c-0.9-2.6-2.1-4.9-3.7-6.8c-1.6-1.9-3.6-3.5-5.9-4.6
				c-2.3-1.2-5-1.7-8-1.7c-3,0-5.6,0.6-8,1.7c-2.3,1.1-4.3,2.7-5.9,4.6c-1.6,1.9-2.9,4.2-3.7,6.8C521,832.2,520.6,834.9,520.6,837.9
				z"/>
			<path class="st4" d="M582.1,815.1h2.8v26.3l28.7-26.3h3.6l-20.8,19l22.1,26.6H615L594.4,836l-9.5,8.6v16.1h-2.8V815.1z"/>
			<path class="st4" d="M668.9,815.1h28.6v2.4h-25.8v18.3H695v2.4h-23.3v22.5h-2.8V815.1z"/>
			<path class="st4" d="M758,837.9c0,3.3-0.5,6.4-1.5,9.4c-1,2.9-2.4,5.5-4.2,7.6c-1.9,2.2-4.1,3.8-6.8,5.1
				c-2.7,1.2-5.7,1.9-9.1,1.9c-3.4,0-6.5-0.6-9.2-1.9c-2.7-1.2-5-2.9-6.8-5.1c-1.9-2.2-3.3-4.7-4.2-7.6c-1-2.9-1.5-6-1.5-9.4
				s0.5-6.4,1.5-9.4c1-2.9,2.4-5.5,4.2-7.6c1.9-2.1,4.1-3.8,6.8-5.1c2.7-1.2,5.8-1.9,9.2-1.9c3.4,0,6.5,0.6,9.1,1.9
				c2.7,1.2,5,2.9,6.8,5.1c1.9,2.2,3.3,4.7,4.2,7.6C757.5,831.4,758,834.5,758,837.9z M717.5,837.9c0,2.9,0.4,5.7,1.3,8.3
				c0.9,2.6,2.1,4.9,3.7,6.8c1.6,1.9,3.6,3.5,5.9,4.6c2.3,1.1,5,1.7,8,1.7c3,0,5.6-0.6,8-1.7c2.3-1.2,4.3-2.7,5.9-4.6
				c1.6-1.9,2.9-4.2,3.7-6.8c0.9-2.6,1.3-5.4,1.3-8.3c0-2.9-0.4-5.7-1.3-8.3c-0.9-2.6-2.1-4.9-3.7-6.8c-1.6-1.9-3.6-3.5-5.9-4.6
				c-2.3-1.2-5-1.7-8-1.7c-3,0-5.6,0.6-8,1.7c-2.3,1.1-4.3,2.7-5.9,4.6c-1.6,1.9-2.9,4.2-3.7,6.8
				C717.9,832.2,717.5,834.9,717.5,837.9z"/>
			<path class="st4" d="M779,815.1h19c2,0,3.9,0.2,5.6,0.6c1.7,0.4,3.3,1.1,4.6,2c1.3,0.9,2.4,2.1,3.1,3.6c0.7,1.5,1.1,3.3,1.1,5.6
				c0,3.1-0.9,5.7-2.6,7.8c-1.7,2.1-4.1,3.4-7.2,3.9v0.1c2.1,0.3,3.7,0.8,5,1.7c1.2,0.9,2.1,1.9,2.7,3.1c0.6,1.2,1,2.6,1.1,4.1
				c0.2,1.5,0.3,3,0.3,4.5c0,0.9,0,1.8,0,2.6c0,0.9,0,1.7,0.1,2.4c0.1,0.7,0.2,1.4,0.4,2.1c0.2,0.6,0.5,1.2,0.8,1.6H810
				c-0.6-1.1-0.9-2.3-1-3.7c-0.1-1.4-0.1-2.9-0.1-4.4s-0.1-3.1-0.2-4.6c-0.1-1.5-0.5-2.9-1.2-4.1c-0.7-1.2-1.8-2.2-3.2-2.9
				c-1.5-0.7-3.5-1.1-6.2-1.1h-16.2v20.8H779V815.1z M798,837.5c1.7,0,3.2-0.2,4.6-0.6c1.4-0.4,2.7-1,3.7-1.9c1-0.9,1.8-1.9,2.4-3.3
				c0.6-1.3,0.9-2.9,0.9-4.7c0-1.7-0.3-3.2-1-4.4c-0.6-1.2-1.5-2.2-2.6-3c-1.1-0.8-2.3-1.3-3.7-1.7c-1.4-0.3-2.9-0.5-4.4-0.5h-16.2
				v20H798z"/>
			<path class="st4" d="M866.9,815.1h4l17.8,42.5h0.1l17.6-42.5h4v45.6h-2.8v-42.2h-0.1l-17.4,42.2h-2.8l-17.6-42.2h-0.1v42.2h-2.8
				V815.1z"/>
			<path class="st4" d="M947.1,815.1h3.1l18,45.6h-3l-5.8-14.6h-21.8l-5.8,14.6h-3L947.1,815.1z M958.5,843.6l-9.8-25.8h-0.1
				l-10.2,25.8H958.5z"/>
			<path class="st4" d="M986.4,815.1h3.5l28.8,41.8h0.1v-41.8h2.8v45.6h-3.3l-29-42.2h-0.1v42.2h-2.8V815.1z"/>
			<path class="st4" d="M1039.7,817.5v-2.4h34.9v2.4h-16.1v43.2h-2.8v-43.2H1039.7z"/>
			<path class="st4" d="M1101.3,815.1h3.1l18,45.6h-3l-5.8-14.6h-21.8l-5.8,14.6h-3L1101.3,815.1z M1112.7,843.6l-9.8-25.8h-0.1
				l-10.2,25.8H1112.7z"/>
			<path class="st4" d="M1173.3,815.1h19c2,0,3.9,0.2,5.6,0.6c1.7,0.4,3.3,1.1,4.6,2c1.3,0.9,2.4,2.1,3.1,3.6
				c0.7,1.5,1.1,3.3,1.1,5.6c0,3.1-0.9,5.7-2.6,7.8c-1.7,2.1-4.1,3.4-7.2,3.9v0.1c2.1,0.3,3.7,0.8,5,1.7c1.2,0.9,2.1,1.9,2.7,3.1
				c0.6,1.2,1,2.6,1.2,4.1c0.2,1.5,0.3,3,0.3,4.5c0,0.9,0,1.8,0,2.6c0,0.9,0,1.7,0.1,2.4c0.1,0.7,0.2,1.4,0.4,2.1
				c0.2,0.6,0.5,1.2,0.8,1.6h-3.1c-0.6-1.1-0.9-2.3-1-3.7c-0.1-1.4-0.1-2.9-0.1-4.4s-0.1-3.1-0.2-4.6c-0.1-1.5-0.5-2.9-1.2-4.1
				c-0.7-1.2-1.8-2.2-3.2-2.9c-1.5-0.7-3.5-1.1-6.2-1.1h-16.2v20.8h-2.8V815.1z M1192.3,837.5c1.7,0,3.2-0.2,4.6-0.6
				c1.4-0.4,2.7-1,3.7-1.9c1-0.9,1.8-1.9,2.4-3.3c0.6-1.3,0.9-2.9,0.9-4.7c0-1.7-0.3-3.2-1-4.4c-0.6-1.2-1.5-2.2-2.6-3
				s-2.3-1.3-3.7-1.7s-2.9-0.5-4.4-0.5h-16.2v20H1192.3z"/>
			<path class="st4" d="M1242,815.1h3.1l18,45.6h-3l-5.8-14.6h-21.8l-5.8,14.6h-3L1242,815.1z M1253.5,843.6l-9.8-25.8h-0.1
				l-10.2,25.8H1253.5z"/>
			<path class="st4" d="M1307.6,815.1h3.1l-18.3,26.5v19.1h-2.8v-19.1l-18.2-26.5h3.2l16.5,24.2L1307.6,815.1z"/>
			<path class="st4" d="M1355.8,828.1c-0.1-2-0.5-3.7-1.2-5.1c-0.7-1.4-1.8-2.7-3-3.6c-1.3-1-2.8-1.7-4.6-2.2
				c-1.8-0.5-3.7-0.7-5.8-0.7c-1.3,0-2.7,0.2-4.1,0.4c-1.5,0.3-2.8,0.8-4.1,1.6c-1.3,0.7-2.3,1.7-3.1,3c-0.8,1.3-1.2,2.8-1.2,4.7
				c0,1.8,0.4,3.3,1.3,4.5c0.9,1.1,2.1,2.1,3.5,2.8c1.4,0.7,3.1,1.3,5,1.7c1.9,0.4,3.8,0.8,5.7,1.2c2,0.4,3.9,0.8,5.7,1.4
				c1.9,0.5,3.5,1.3,5,2.2c1.5,0.9,2.7,2.1,3.5,3.6c0.9,1.5,1.3,3.3,1.3,5.5c0,2.4-0.5,4.4-1.5,6c-1,1.6-2.3,2.9-3.9,4
				c-1.6,1-3.3,1.8-5.2,2.2c-1.9,0.4-3.7,0.7-5.5,0.7c-2.7,0-5.2-0.3-7.5-0.9s-4.4-1.5-6.1-2.8c-1.7-1.3-3.1-3-4.1-5
				c-1-2-1.5-4.5-1.4-7.5h2.8c-0.1,2.5,0.2,4.6,1.1,6.4c0.9,1.7,2,3.1,3.5,4.2c1.5,1.1,3.3,1.9,5.3,2.4c2,0.5,4.2,0.7,6.5,0.7
				c1.4,0,2.8-0.2,4.4-0.5c1.6-0.3,3-0.9,4.3-1.7c1.3-0.8,2.4-1.9,3.3-3.2c0.9-1.3,1.3-3,1.3-5c0-1.9-0.4-3.5-1.3-4.7
				c-0.9-1.2-2.1-2.2-3.5-2.9c-1.5-0.7-3.1-1.3-5-1.8s-3.8-0.9-5.7-1.2c-1.9-0.4-3.8-0.8-5.7-1.3c-1.9-0.5-3.5-1.2-5-2.1
				c-1.4-0.9-2.6-2-3.5-3.4c-0.9-1.4-1.3-3.2-1.3-5.3c0-2.2,0.5-4,1.4-5.6c0.9-1.6,2.1-2.8,3.6-3.8c1.5-1,3.1-1.7,5-2.1
				c1.8-0.4,3.6-0.7,5.4-0.7c2.4,0,4.6,0.3,6.7,0.8c2.1,0.5,3.9,1.4,5.4,2.5c1.6,1.1,2.8,2.6,3.7,4.4c0.9,1.8,1.5,3.9,1.6,6.5
				H1355.8z"/>
		</g>
	</g>
	<rect x="-121.1" y="-173.4" class="st13" width="2195.2" height="1848.2"/>
</g>
</svg>
