<?xml version="1.0" encoding="utf-8"?>
<!-- Generator: Adobe Illustrator 18.1.0, SVG Export Plug-In . SVG Version: 6.00 Build 0)  -->
<svg version="1.1" xmlns="http://www.w3.org/2000/svg" xmlns:xlink="http://www.w3.org/1999/xlink" x="0px" y="0px"
	 viewBox="0 0 474.6 441.8" enable-background="new 0 0 474.6 441.8" xml:space="preserve">
<g id="Layer_2" display="none">
	<rect x="-341.2" y="-141.3" display="inline" fill="#471F1F" width="100%" />
</g>
<g id="Layer_1">
	<path fill="#FFFFFF" d="M88.9,106.3c-45.3,40.1-60.9,5.7-76.9-25C-0.3,57.6-0.6,97.7,0.3,100c25.2,60.2,47.7,51.9,52.2,80.8
		c2.5,16-6.2,31.4-9.5,37.8c-61.9,123.3-32.2,223.2-32.2,223.2S47.8,385.2,135,345c45.5-21,75,0,180.5-36.2
		c22.1-7.6,21.3,19.8,73.1,21.8c25,1,41.8-18.3,63-24.7c11.5-3.5,23,0,23,0c-28.7-15.6-48.9,19.6-82.4,21.4
		c-35,1.8-67.7-18.8-63.3-35.3C348,221,334,181.7,346,140C372.4,48.2,428.7,0,428.7,0c0,0-88.2-1.1-207.7,47.3
		c-24.5,9.9-44.6,7.8-65.4,2.3c-22.9-6-19,1-30.3-15.6C116.6,21.1,95,14.6,82,9c-14.7-6.3-14,1.9-14,7.8C68,20,81,18,94,38
		c21.7,33.3,23.9,35.1,10.3,52"/>
</g>
</svg>
