<?xml version="1.0" encoding="utf-8"?>
<!-- Generator: Adobe Illustrator 18.1.0, SVG Export Plug-In . SVG Version: 6.00 Build 0)  -->
<svg version="1.1" xmlns="http://www.w3.org/2000/svg" xmlns:xlink="http://www.w3.org/1999/xlink" x="0px" y="0px"
	 viewBox="0 514.8 2000 492.6" enable-background="new 0 514.8 2000 492.6" xml:space="preserve">
<g id="Layer_2_1_" display="none">
	<rect x="-192.3" y="40.7" display="inline" fill="#D80E0E" width="2265.2" height="1536.2"/>
</g>
<g id="Layer_1">
	<g id="Layer_5" display="none">
		<rect x="-86.6" y="378.2" display="inline" fill="#393A3A" width="2172.4" height="724.3"/>
	</g>
	<g id="Layer_2" display="none">
		<path display="inline" fill="none" stroke="#000000" stroke-miterlimit="10" d="M1581.6,850.1c47.4-25.3,167-71,212-35.7
			c15.6,12.2,27.5,42.5,59.7,57.6c32.2,15.1,76.9,9,76.9,9s2.4-0.7,2.6-3.8s-2.8-2.8-2.8-2.8s-67.7-6.2-85.2-28.8
			c-17.5-22.6-24-45-24-45s-15.7-77.4,6.9-149.9c22.6-72.5,23.7-146.1,85.4-168.2c0,0,3.1-3.6,0.5-5.7c-2.6-2.1-37-14.9-74.6,0.5
			c-33.6,13.8-148.2,66.1-169.8,64.3c-6.6-0.5-45.1-9-50.4-11.8c-52-27.8-73.3-62.2-81-51.7c-12.7,17.7,83,79.9,48.1,111.8
			c-18.9,17.2-42.2,6.7-60.7-8.2c-8.7-7.1-39.1-41.7-61.7-34c-22.6,7.7,44.8,66.6,56.3,77.2c8.5,7.8,13.7,18.6,16.8,34
			c2.3,11.3,5.5,24.3-1.5,44.8c0,0-55,109.1-49.4,183.1s15.4,50.9,15.4,50.9S1505.6,890.7,1581.6,850.1z"/>
	</g>
	<g id="Layer_3">
		<path fill="#FFFFFF" d="M1603.1,638.7c-46.5,41.3-62.7,5.9-79.1-25.7c-12.7-24.3-13,16.9-12,19.3c25.9,61.9,49.1,53.4,53.7,83.1
			c2.6,16.5-6.4,32.3-9.8,38.9c-63.7,126.9-33.1,229.7-33.1,229.7s38-58.2,127.8-99.6c46.8-21.6,77.2,0,185.7-37.2
			c22.7-7.8,21.9,20.4,75.2,22.4c25.7,1,43-18.8,64.8-25.4c11.8-3.6,23.7,0,23.7,0c-29.5-16.1-50.3,20.2-84.8,22
			c-36,1.9-69.7-19.3-65.1-36.3c19.7-73.2,5.2-113.6,17.6-156.5c27.2-94.5,85.1-144,85.1-144s-90.8-1.1-213.7,48.7
			c-25.2,10.2-45.9,8-67.3,2.4c-23.6-6.2-19.5,1-31.2-16.1c-9.1-13.3-31.3-20-44.6-25.7c-15.1-6.5-14.4,2-14.4,8
			c0,3.3,13.4,1.3,26.8,21.8c22.3,34.3,24.6,36.1,10.6,53.5"/>
		<g>
			<g>
				<path fill="#504F4E" d="M1623.9,670.5c0,0-0.6,0.5-1.9,1.4c-1.1,0.9-2.9,2.2-4.8,3.7c-4,3-9.4,6.8-14.4,10.8
					c-2.6,2.1-4.9,4.1-7.1,6.2c-1,1-2.1,2.1-3,3.1c-0.4,0.5-0.8,1-1.2,1.5s-0.7,1-1,1.4c-0.3,0.5-0.6,0.9-0.9,1.4
					c-0.2,0.5-0.5,0.9-0.7,1.3c-0.2,0.4-0.3,0.8-0.5,1.2c-0.2,0.4-0.2,0.8-0.3,1.1c-0.2,0.7-0.3,1.2-0.3,1.6
					c-0.1,0.4-0.1,0.6-0.1,0.6s-0.1-0.2-0.2-0.6c-0.1-0.4-0.3-0.9-0.4-1.7c0-0.4-0.1-0.8-0.1-1.2c0-0.5,0-1,0.1-1.5
					c0.1-0.5,0.2-1.1,0.3-1.7c0.1-0.6,0.3-1.2,0.5-1.9c0.2-0.6,0.5-1.2,0.8-2c0.3-0.6,0.6-1.3,1-2c0.8-1.3,1.6-2.7,2.8-3.9
					c0.5-0.6,1-1.2,1.6-1.9c0.5-0.6,1.1-1.2,1.7-1.9c1.2-1.2,2.6-2.3,3.9-3.4c1.3-1,2.8-2.1,4.1-3c1.4-0.9,2.8-1.9,4.2-2.6
					c2.8-1.5,5.5-2.9,7.8-3.8c2.4-0.9,4.4-1.6,5.9-2.1c0.7-0.2,1.3-0.3,1.6-0.4C1623.7,670.5,1623.9,670.5,1623.9,670.5z"/>
			</g>
			<g>
				<path fill="#504F4E" d="M1627.4,684.1c0,0-0.6,0.6-1.9,1.7c-1.1,1.1-2.8,2.6-4.8,4.3c-4,3.6-9.4,8.1-14.5,12.9
					c-1.2,1.1-2.6,2.4-3.7,3.6c-1.2,1.2-2.4,2.4-3.5,3.6c-1.1,1.1-2.1,2.4-3,3.5c-0.9,1.1-1.7,2.3-2.4,3.3c-0.3,0.5-0.6,1-0.9,1.5
					c-0.3,0.5-0.5,1-0.7,1.4c-0.4,0.9-0.7,1.9-0.9,2.6c-0.2,0.7-0.3,1.3-0.3,1.7c-0.1,0.4-0.1,0.6-0.1,0.6s-0.1-0.2-0.2-0.6
					c-0.1-0.4-0.3-1-0.4-1.9c-0.1-0.8-0.1-1.9,0-3c0.1-0.6,0.2-1.2,0.3-1.9c0.2-0.6,0.3-1.3,0.5-2c0.2-0.6,0.5-1.3,0.8-2.1
					c0.3-0.7,0.6-1.4,1-2.2c0.8-1.4,1.6-2.9,2.7-4.2c0.5-0.7,1-1.4,1.6-2.1c0.5-0.7,1.1-1.3,1.7-2.1c1.2-1.3,2.6-2.7,3.9-3.9
					c1.3-1.2,2.8-2.5,4.1-3.5c1.4-1.1,2.8-2.2,4.2-3.1c2.8-2,5.6-3.6,7.9-4.8c2.4-1.2,4.5-2.2,6-2.8c0.7-0.3,1.3-0.5,1.7-0.6
					C1627.2,684.1,1627.4,684.1,1627.4,684.1z"/>
			</g>
			<g>
				<path fill="#504F4E" d="M1632.8,695.7c0,0-0.6,0.8-1.7,2.2c-1.1,1.3-2.8,3.2-4.7,5.5c-3.9,4.4-9.4,10.2-14.5,16.1
					c-1.3,1.4-2.6,3-3.8,4.4s-2.5,2.9-3.5,4.3c-0.6,0.7-1.1,1.4-1.6,2.2c-0.5,0.7-1,1.3-1.4,2.1c-0.9,1.3-1.7,2.7-2.5,3.9
					c-0.7,1.2-1.3,2.4-1.7,3.5c-0.3,0.5-0.4,1-0.6,1.5c-0.1,0.2-0.2,0.5-0.2,0.7c-0.1,0.2-0.1,0.4-0.2,0.6c-0.1,0.4-0.2,0.8-0.3,1.1
					c0,0.3-0.1,0.6-0.1,0.8c-0.1,0.5-0.1,0.7-0.1,0.7s-0.1-0.2-0.2-0.7c-0.1-0.2-0.1-0.5-0.2-0.8c-0.1-0.3-0.1-0.7-0.1-1.2
					c0-0.2,0-0.5-0.1-0.7c0-0.2,0-0.5,0-0.8c0-0.5,0-1.1,0.1-1.7c0.2-1.2,0.5-2.7,0.9-4.2c0.5-1.4,1.1-3.1,1.9-4.6
					c0.4-0.8,0.8-1.6,1.2-2.4c0.4-0.8,0.9-1.6,1.4-2.5c1-1.6,2.2-3.3,3.4-4.8c1.2-1.6,2.5-3.2,3.8-4.6c1.3-1.5,2.7-3,4.1-4.4
					c1.4-1.4,2.8-2.8,4.2-4c2.8-2.5,5.6-4.7,8-6.5c2.5-1.7,4.5-3.1,6.1-4c0.7-0.5,1.3-0.8,1.7-1
					C1632.6,695.9,1632.8,695.7,1632.8,695.7z"/>
			</g>
			<g>
				<path fill="#504F4E" d="M1647.1,708.4c0,0-0.7,0.8-2.1,2.4c-1.3,1.4-3.3,3.5-5.6,6c-2.4,2.4-5,5.2-8,8.2c-1.4,1.4-3,3-4.5,4.6
					c-1.5,1.5-3.1,3.2-4.6,4.7c-1.5,1.5-3.1,3.2-4.5,4.8c-0.7,0.8-1.4,1.6-2.2,2.4c-0.7,0.8-1.4,1.5-2.1,2.4
					c-1.3,1.5-2.7,3.1-3.8,4.5c-1.1,1.4-2.3,2.9-3.1,4.3c-0.4,0.7-0.9,1.3-1.2,2c-0.4,0.6-0.7,1.2-1,1.9s-0.5,1.1-0.7,1.6
					c-0.2,0.5-0.4,1-0.5,1.4s-0.2,0.9-0.3,1.2c-0.1,0.4-0.1,0.7-0.1,0.9c-0.1,0.5-0.1,0.8-0.1,0.8s-0.1-0.3-0.2-0.8
					c-0.1-0.3-0.1-0.6-0.2-1c0-0.4,0-0.8-0.1-1.3c0-0.5,0.1-1,0.1-1.7c0-0.6,0.2-1.2,0.3-2c0.1-0.7,0.3-1.4,0.6-2.2
					c0.2-0.8,0.5-1.5,0.9-2.4c0.6-1.6,1.5-3.3,2.6-5s2.2-3.5,3.4-5.2c1.2-1.7,2.7-3.5,4.1-5.2c1.4-1.7,3-3.4,4.5-5
					c1.5-1.6,3.2-3.3,4.8-4.7c1.6-1.5,3.3-3,4.9-4.3c3.3-2.8,6.4-5.1,9.2-7.1c2.8-2,5.1-3.5,6.9-4.5
					C1646.1,708.9,1647.1,708.4,1647.1,708.4z"/>
			</g>
			<g>
				<path fill="#504F4E" d="M1659.9,715.8c0,0-0.6,0.8-1.9,2.3c-1.2,1.4-2.9,3.5-5,5.9c-2.1,2.4-4.5,5.1-7.2,8s-5.5,6.1-8.1,9.2
					c-1.3,1.5-2.7,3.2-4,4.7c-0.6,0.8-1.3,1.5-2,2.4c-0.6,0.8-1.2,1.5-1.9,2.3c-1.2,1.5-2.4,3-3.3,4.4c-0.5,0.7-1,1.4-1.4,2.2
					c-0.5,0.7-0.9,1.3-1.2,2.1c-0.4,0.6-0.7,1.3-1,2s-0.6,1.2-0.8,1.7c-0.1,0.3-0.3,0.5-0.4,0.8c-0.1,0.3-0.2,0.5-0.3,0.8
					c-0.2,0.5-0.4,1-0.4,1.4c-0.1,0.4-0.2,0.8-0.3,1.1c0,0.3-0.1,0.6-0.1,0.9c-0.1,0.5-0.1,0.7-0.1,0.7s-0.1-0.3-0.2-0.7
					c-0.1-0.2-0.1-0.5-0.2-0.9c0-0.4-0.1-0.8-0.1-1.2c-0.1-0.5,0-1,0-1.6s0.1-1.2,0.2-1.9s0.2-1.3,0.4-2.1c0.2-0.7,0.4-1.5,0.7-2.3
					c0.3-0.8,0.6-1.5,0.9-2.4s0.7-1.6,1.1-2.5c0.8-1.6,1.9-3.4,3-5.1s2.3-3.4,3.6-5.1c1.3-1.6,2.7-3.3,4.1-4.9
					c1.4-1.6,2.9-3.2,4.3-4.6c0.7-0.7,1.4-1.4,2.3-2.2c0.7-0.7,1.4-1.4,2.3-2.1c3-2.7,5.9-5,8.4-7c2.6-2,4.7-3.4,6.4-4.4
					C1659,716.4,1659.9,715.8,1659.9,715.8z"/>
			</g>
			<g>
				<path fill="#504F4E" d="M1654,646.4c0,0,0.1-0.8,0.5-2.3c0.4-1.4,1-3.5,2-5.9c0.9-2.4,2.2-5,3.8-7.8c0.4-0.7,0.8-1.4,1.2-2.1
					c0.4-0.7,0.8-1.4,1.3-2.2c0.9-1.4,2-2.8,3-4.2c1-1.3,2.2-2.7,3.4-3.9c0.6-0.6,1.1-1.2,1.7-1.9c0.6-0.6,1.2-1.1,1.9-1.6
					c1.2-1,2.6-2,3.9-2.8c0.6-0.4,1.3-0.7,2-1s1.3-0.6,2-0.8c0.6-0.2,1.2-0.4,1.9-0.5c0.6-0.1,1.2-0.2,1.7-0.3
					c1.1-0.1,2.1-0.1,2.9,0.1c0.7,0.1,1.3,0.3,1.7,0.4c0.4,0.1,0.6,0.2,0.6,0.2s-0.2,0-0.6,0.1c-0.4,0.1-0.9,0.1-1.6,0.3
					c-0.7,0.1-1.5,0.5-2.4,0.8c-0.4,0.2-0.9,0.4-1.3,0.7c-0.4,0.3-0.9,0.6-1.4,0.9c-0.9,0.7-2,1.4-3,2.4c-1,0.9-2.1,1.9-3.1,3
					c-1,1-2.1,2.3-3.1,3.5c-1,1.2-2.1,2.5-3,3.8c-2,2.6-3.9,5.2-5.8,7.7c-1.9,2.5-3.5,4.8-5,6.9c-1.5,2.1-2.8,3.7-3.7,4.8
					C1654.6,645.8,1654,646.4,1654,646.4z"/>
			</g>
			<g>
				<path fill="#504F4E" d="M1667.1,650.4c0,0,0.3-0.9,0.8-2.4c0.6-1.4,1.5-3.6,2.8-6s2.9-5.1,4.7-7.9c0.5-0.7,0.9-1.4,1.4-2.2
					c0.5-0.7,1-1.4,1.5-2.2c1.1-1.4,2.3-2.8,3.5-4.2c1.2-1.3,2.5-2.7,3.8-3.9c1.3-1.2,2.7-2.4,4.1-3.5c0.7-0.5,1.3-1,2.1-1.4
					c0.7-0.5,1.4-0.9,2.2-1.3c1.4-0.8,2.8-1.4,4.1-2c0.6-0.2,1.3-0.4,2-0.6c0.6-0.2,1.2-0.2,1.9-0.3c1.1-0.1,2.2-0.1,3,0
					c0.8,0,1.4,0.3,1.9,0.4c0.4,0.1,0.6,0.2,0.6,0.2s-0.2,0-0.6,0.1c-0.4,0-1,0.1-1.7,0.3c-0.7,0.1-1.6,0.5-2.6,0.9
					c-0.9,0.4-2,1-3,1.6c-1,0.7-2.2,1.5-3.3,2.5c-0.5,0.5-1.1,0.9-1.7,1.4s-1.1,1-1.7,1.6c-1.1,1.1-2.4,2.3-3.5,3.5
					c-1.1,1.2-2.4,2.5-3.5,3.8c-2.4,2.6-4.6,5.2-6.8,7.7c-2.2,2.5-4.2,4.8-6,6.9c-1.7,2.1-3.3,3.7-4.3,4.8
					C1667.8,649.8,1667.1,650.4,1667.1,650.4z"/>
			</g>
			<g>
				<path fill="#504F4E" d="M1678.3,656.3c0,0,0.4-0.9,1.3-2.5c0.9-1.5,2.2-3.6,3.9-6.1c1.7-2.5,3.9-5.2,6.4-8
					c0.6-0.7,1.2-1.4,1.9-2.2c0.6-0.7,1.3-1.4,2.1-2.2c1.3-1.4,2.8-2.8,4.3-4.1s3-2.7,4.6-3.9c1.5-1.2,3.2-2.4,4.7-3.4
					c1.6-1,3.2-2,4.8-2.8c0.8-0.4,1.5-0.7,2.4-1c0.7-0.3,1.5-0.6,2.3-0.8c1.4-0.5,2.9-0.8,4.1-0.9c0.6-0.1,1.2-0.1,1.7-0.1
					c0.3,0,0.5,0,0.8,0c0.2,0,0.5,0,0.7,0.1c0.4,0,0.8,0.1,1.2,0.1c0.3,0.1,0.6,0.2,0.8,0.2c0.4,0.1,0.7,0.2,0.7,0.2s-0.2,0-0.7,0.1
					c-0.2,0-0.5,0.1-0.8,0.1c-0.3,0.1-0.7,0.2-1.1,0.2c-0.2,0-0.4,0.1-0.6,0.1c-0.2,0.1-0.4,0.2-0.7,0.2c-0.5,0.2-1,0.3-1.5,0.6
					c-0.5,0.2-1.1,0.4-1.6,0.8c-0.6,0.3-1.1,0.6-1.7,1c-0.6,0.4-1.2,0.7-1.9,1.1c-0.6,0.4-1.3,0.8-2,1.3c-1.3,0.9-2.7,2-4.1,3.1
					s-2.8,2.4-4.2,3.5c-1.4,1.2-2.9,2.5-4.3,3.8c-2.9,2.6-5.8,5.2-8.4,7.7c-2.7,2.5-5.2,4.8-7.4,6.8c-2.2,2-4,3.6-5.4,4.7
					C1679,655.6,1678.3,656.3,1678.3,656.3z"/>
			</g>
			<g>
				<path fill="#504F4E" d="M1686.6,673.2c0,0,0.6-1,1.6-2.8c1.1-1.7,2.8-4.2,4.8-7.1c2.1-2.9,4.6-6.2,7.6-9.6
					c2.9-3.4,6.2-6.8,9.7-10.2c1.7-1.6,3.5-3.3,5.4-4.7c1.7-1.5,3.6-3,5.5-4.3c0.9-0.6,1.9-1.3,2.7-2c0.9-0.6,1.9-1.1,2.7-1.7
					c0.9-0.5,1.7-1,2.7-1.4c0.9-0.4,1.7-0.9,2.6-1.2c1.6-0.7,3.3-1.3,4.7-1.6c1.4-0.4,2.8-0.5,3.8-0.5c0.5,0,1,0,1.4,0.1
					c0.4,0,0.7,0.1,1,0.2c0.5,0.1,0.8,0.2,0.8,0.2s-0.3,0-0.8,0.1c-0.3,0-0.6,0-1,0.1c-0.4,0.1-0.8,0.2-1.3,0.3
					c-0.9,0.3-2.1,0.7-3.3,1.4c-1.2,0.6-2.6,1.4-4,2.5c-1.4,0.9-2.9,2.1-4.4,3.3c-0.7,0.6-1.5,1.2-2.4,2c-0.8,0.7-1.6,1.3-2.5,2.1
					c-1.6,1.4-3.3,3-4.9,4.5c-1.6,1.5-3.4,3.1-5,4.7c-1.7,1.5-3.4,3.2-5,4.8c-1.6,1.6-3.3,3.2-4.8,4.7c-3.2,3.1-6.1,6-8.6,8.3
					c-2.6,2.5-4.7,4.4-6.3,5.9C1687.5,672.5,1686.6,673.2,1686.6,673.2z"/>
			</g>
			<g>
				<path fill="#504F4E" d="M1690.3,691.5c0,0,0.6-1,1.7-2.8c1.1-1.7,2.9-4.2,5.1-7.1c2.2-2.9,4.8-6.1,7.9-9.5
					c3.1-3.3,6.4-6.8,10-10.1c1.7-1.6,3.6-3.2,5.5-4.7c1.9-1.5,3.7-3,5.6-4.2c0.9-0.6,1.9-1.3,2.8-1.9c0.9-0.6,1.9-1.1,2.8-1.6
					s1.9-1,2.7-1.4c0.9-0.4,1.7-0.8,2.6-1.2c1.7-0.7,3.3-1.2,4.8-1.6c1.4-0.4,2.8-0.5,3.9-0.5c0.5,0,1,0,1.4,0.1
					c0.4,0,0.7,0.1,1,0.2c0.5,0.1,0.8,0.2,0.8,0.2s-0.3,0-0.8,0.1c-0.3,0-0.6,0-1,0.1c-0.4,0.1-0.8,0.2-1.3,0.3
					c-0.9,0.3-2.2,0.7-3.4,1.4c-1.2,0.6-2.6,1.4-4.1,2.4c-1.4,0.9-3,2.1-4.6,3.3c-1.5,1.2-3.2,2.6-4.9,4c-1.6,1.4-3.4,2.9-5.1,4.4
					c-1.7,1.5-3.5,3.1-5.2,4.7c-1.7,1.5-3.5,3.2-5.1,4.7c-1.7,1.5-3.4,3.2-5,4.6c-3.3,3-6.3,5.9-9,8.2s-4.9,4.4-6.5,5.8
					C1691.2,690.7,1690.3,691.5,1690.3,691.5z"/>
			</g>
		</g>
		<g>
			<path fill="#504F4E" d="M1770.7,728.2c-3.9-4-9.3-2.8-13.8-0.8c-2.8,1.2-5,2.5-7.2,4.6c-1,0.9-2,2.8-2.3,4.1
				c-0.3,1.1,0,2.2,0.1,3.2c-1.6,1.6-3,3.5-2.9,6.3c0.1,3.8,2.6,6.5,5.7,8.3c0.7,0.4,1.5,0.7,2.3,1c0.1,0.2,0.3,0.6,0.5,1
				c1.2,3,3.3,5.5,6.4,6.4c2.8,5.7,13.1,4.4,12.7-3.1c-0.2-5.8-1-11.3,0.3-17C1773.4,737.4,1774.3,732,1770.7,728.2z"/>
		</g>
		<g>
			<path fill="#504F4E" d="M1715.2,732.9c-2-1-4.4-1-6.5,0c-0.9-0.4-2-0.6-3.1-0.6l-2.8,0.1c-0.9,0-1.9,0.3-2.8,0.7
				c-2.9,0.7-5.7,2.1-7.3,4.2c-2.3,2.9-2.6,6.8,0.3,9.5c1.6,1.5,4.2,2.2,6.5,1.6c1.7,2.8,4.2,4.8,7.4,4.7c6-0.2,8.8-6.5,10.9-11.2
				C1719.4,738.7,1718.6,734.8,1715.2,732.9z"/>
		</g>
		<g>
			<path fill="#504F4E" d="M1714.5,773.7c-1.5-7.6-10.4-8-15.9-5.4c-2.9,1.4-6.3,4.4-9.6,4.8c-4.1,0.5-7.7-0.3-11.5,1.7
				c-6.1,3.3-8.8,9.2-9.1,15.8c-0.1,2.3,0.8,4,2.3,5c-0.1,0.5-0.3,0.9-0.4,1.4c-1.3,4.3,1.6,7.3,5.1,7.9c1.3,3.4,4.3,5.9,8.4,6.1
				c6.3,0.4,10.6-6.1,13.2-10.8c1.4-2.6,2.5-5.2,3.8-7.8c0.9-1.9,5.8-2.3,7.5-3.3C1714.3,786,1715.7,779.9,1714.5,773.7z
				 M1688.5,787.1c-0.1-0.1-0.2-0.2-0.3-0.4c-0.1-0.1-0.3-0.3-0.4-0.4c0.4,0,0.8,0,1.2,0C1688.9,786.6,1688.7,786.9,1688.5,787.1z"
				/>
		</g>
		<g>
			<path fill="#504F4E" d="M1727.5,713.4c-2-0.4-3.7-0.4-5.7,0.2c-1.2,0.4-2.3,1.2-3.1,1.5c-0.4,0.1-0.7,0.2-1.1,0.3
				c-0.1,0-0.3,0.1-0.3,0.1c-0.1,0-0.2,0-0.3,0c-0.7-0.5-1.5-0.9-2.4-1.1c-2.2-0.5-4.1,0-5.7,1.2c-4.4,2.1-4.1,9.6,0.2,11.8
				c2.9,1.4,6.2,1.7,9.4,1.3c1.4-0.2,2.9-0.4,4.3-0.8c0.9-0.3,2.1-0.8,2.9-1.2c0.1-0.1,0.3-0.1,0.4-0.2c3,0,5.8-1.9,6.6-5
				C1733.2,718.1,1731,714.1,1727.5,713.4z"/>
		</g>
		<g>
			<path fill="#504F4E" d="M1732.2,792c-2,0.1-3.6,0.9-4.8,2.3c-0.4,0.2-0.8,0.5-1.1,0.7c-1.7,0.3-3.1,0.7-4.8,1.5
				c-2.7,1.2-3.7,5-2.9,7.6c0.8,2.7,3.2,4.5,6,4.7c1.1,0.8,2.6,1.3,4.1,1.3c2.7-0.1,4.9-1.7,6-4.1c0.4-0.2,0.7-0.3,1-0.5
				c2.5-1.5,3.5-4.3,3.5-7.2C1739.1,794.8,1735.8,791.9,1732.2,792z"/>
		</g>
		<g>
			<g>
				<polyline fill="none" stroke="#9BCA3B" stroke-width="12" stroke-miterlimit="10" points="1916.1,779.9 1923,787.7 
					1915.3,794.6 				"/>
				
					<line fill="none" stroke="#9BCA3B" stroke-width="12" stroke-miterlimit="10" stroke-dasharray="20.6869,20.6869" x1="1899.5" y1="808.8" x2="1749.2" y2="943.9"/>
				<polyline fill="none" stroke="#9BCA3B" stroke-width="12" stroke-miterlimit="10" points="1741.2,951 1733.5,957.9 
					1726.6,950.2 				"/>
				
					<line fill="none" stroke="#9BCA3B" stroke-width="12" stroke-miterlimit="10" stroke-dasharray="19.0275,19.0275" x1="1713.6" y1="935.7" x2="1536.9" y2="739.1"/>
				<polyline fill="none" stroke="#9BCA3B" stroke-width="12" stroke-miterlimit="10" points="1530.4,731.9 1523.5,724.2 
					1531.1,717.3 				"/>
				
					<line fill="none" stroke="#9BCA3B" stroke-width="12" stroke-miterlimit="10" stroke-dasharray="20.6871,20.6871" x1="1547" y1="703.1" x2="1697.4" y2="567.9"/>
				<polyline fill="none" stroke="#9BCA3B" stroke-width="12" stroke-miterlimit="10" points="1705.3,560.8 1712.9,553.9 
					1719.8,561.6 				"/>
				
					<line fill="none" stroke="#9BCA3B" stroke-width="12" stroke-miterlimit="10" stroke-dasharray="19.0276,19.0276" x1="1732.9" y1="576.1" x2="1909.6" y2="772.7"/>
			</g>
		</g>
	</g>
	<g id="Layer_4">
		<rect y="605.2" fill="none" width="2012.8" height="206"/>
		<text transform="matrix(1 0 0 1 1.244881e-05 781.71)" fill="#FFFFFF" font-family="'Lobster-Regular'" font-size="252.0835">MantaMatcher</text>
		
			<text transform="matrix(1 0 0 1 15.7695 863.1748)" fill="#FFFFFF" font-family="'HelveticaNeue-Thin'" font-size="63.8878" letter-spacing="15">THE WILDBOOK FOR MANTA RAYS</text>
	</g>
	<rect x="-112.3" y="-170.9" display="none" fill="#D80E0E" width="2195.2" height="1848.2"/>
</g>
</svg>
