<?xml version="1.0" encoding="UTF-8" standalone="no"?>
<!-- Created with Inkscape (http://www.inkscape.org/) -->

<svg
   width="188.33063"
   height="33.706703"
   viewBox="0 0 49.829147 8.9182317"
   version="1.1"
   id="svg1"
   xml:space="preserve"
   inkscape:version="1.3.2 (1:1.3.2+202311252150+091e20ef0f)"
   sodipodi:docname="wildbook-logo.svg"
   xmlns:inkscape="http://www.inkscape.org/namespaces/inkscape"
   xmlns:sodipodi="http://sodipodi.sourceforge.net/DTD/sodipodi-0.dtd"
   xmlns="http://www.w3.org/2000/svg"
   xmlns:svg="http://www.w3.org/2000/svg"><sodipodi:namedview
     id="namedview1"
     pagecolor="#ffffff"
     bordercolor="#666666"
     borderopacity="1.0"
     inkscape:showpageshadow="2"
     inkscape:pageopacity="0.0"
     inkscape:pagecheckerboard="0"
     inkscape:deskcolor="#d1d1d1"
     inkscape:document-units="mm"
     inkscape:zoom="1.1789508"
     inkscape:cx="241.31626"
     inkscape:cy="323.1687"
     inkscape:window-width="1920"
     inkscape:window-height="1129"
     inkscape:window-x="0"
     inkscape:window-y="0"
     inkscape:window-maximized="1"
     inkscape:current-layer="layer1" /><defs
     id="defs1" /><g
     inkscape:label="Layer 1"
     inkscape:groupmode="layer"
     id="layer1"
     transform="translate(-43.47341,-39.375617)"><path
       style="font-weight:500;font-size:11.2889px;line-height:1.25;font-family:Ubuntu;-inkscape-font-specification:'Ubuntu, Medium';text-align:center;letter-spacing:0px;word-spacing:0px;text-anchor:middle;stroke-width:0.264583;fill:#f2f2f2;fill-opacity:1"
       d="m 49.140438,41.193129 q 0.180623,0.609601 0.383823,1.275646 0.2032,0.654756 0.417689,1.320802 0.225778,0.654756 0.440267,1.298223 0.225778,0.632179 0.428979,1.196624 0.169333,-0.609601 0.327378,-1.320802 0.158044,-0.722489 0.316089,-1.490135 0.158044,-0.778934 0.3048,-1.580446 0.158045,-0.801512 0.293512,-1.580446 h 1.467557 q -0.395112,2.122314 -0.880535,4.086582 -0.485422,1.95298 -1.083734,3.736626 h -1.354668 q -0.880534,-2.280358 -1.704624,-4.978405 -0.417689,1.365957 -0.846668,2.596447 -0.428978,1.23049 -0.857956,2.381958 H 45.437679 Q 44.828078,46.352157 44.342656,44.399177 43.868522,42.434909 43.47341,40.312595 h 1.524002 q 0.135467,0.767645 0.282222,1.569157 0.158045,0.801512 0.31609,1.580446 0.169333,0.767646 0.338667,1.490135 0.169333,0.72249 0.338667,1.332091 0.214489,-0.575734 0.428978,-1.207913 0.225778,-0.643467 0.440267,-1.298223 0.214489,-0.666045 0.4064,-1.320802 0.203201,-0.654756 0.372534,-1.264357 z m 6.886226,6.942674 h -1.365957 v -5.904095 h 1.365957 z m 0.146756,-7.631296 q 0,0.383822 -0.248356,0.6096 -0.248356,0.225778 -0.587023,0.225778 -0.349955,0 -0.598311,-0.225778 -0.248356,-0.225778 -0.248356,-0.6096 0,-0.395112 0.248356,-0.62089 0.248356,-0.225778 0.598311,-0.225778 0.338667,0 0.587023,0.225778 0.248356,0.225778 0.248356,0.62089 z m 3.646305,7.744185 q -0.609601,-0.01129 -1.016001,-0.135467 -0.395112,-0.124177 -0.632179,-0.349955 -0.237066,-0.237067 -0.338667,-0.575734 -0.09031,-0.349956 -0.09031,-0.790223 v -6.795918 l 1.365957,-0.225778 v 6.762051 q 0,0.248356 0.03387,0.417689 0.04515,0.169334 0.146756,0.293512 0.1016,0.112889 0.270933,0.180622 0.180623,0.05644 0.451556,0.09031 z m 2.370656,-3.08187 q 0,0.903112 0.428979,1.422402 0.428978,0.508 1.185334,0.508 0.327378,0 0.553156,-0.02258 0.237067,-0.03387 0.383823,-0.06773 v -3.38667 q -0.180623,-0.124178 -0.485423,-0.225778 -0.293511,-0.112889 -0.632178,-0.112889 -0.745068,0 -1.095024,0.508001 -0.338667,0.508 -0.338667,1.377245 z m 3.917249,2.788359 q -0.406401,0.124178 -1.02729,0.225778 -0.609601,0.1016 -1.286935,0.1016 -0.699912,0 -1.253068,-0.214489 -0.553156,-0.214489 -0.948267,-0.609601 -0.383823,-0.4064 -0.598312,-0.970845 -0.2032,-0.575734 -0.2032,-1.286935 0,-0.699912 0.169333,-1.264357 0.180623,-0.575734 0.51929,-0.982134 0.338667,-0.4064 0.824089,-0.62089 0.485423,-0.225778 1.117602,-0.225778 0.428978,0 0.756356,0.101601 0.327378,0.1016 0.564445,0.225778 v -2.833514 l 1.365957,-0.225778 z m 5.655727,-2.788359 q 0,-0.869245 -0.349956,-1.377245 -0.338667,-0.508001 -1.083735,-0.508001 -0.338667,0 -0.643467,0.1016 -0.293512,0.1016 -0.474134,0.225778 v 3.397959 q 0.146756,0.03387 0.372534,0.06773 0.237067,0.02258 0.564445,0.02258 0.756356,0 1.185334,-0.508 0.428979,-0.51929 0.428979,-1.422402 z m 1.399823,0.02258 q 0,0.711201 -0.214489,1.286935 -0.2032,0.564445 -0.598312,0.970845 -0.383822,0.406401 -0.936978,0.62089 -0.553156,0.214489 -1.253068,0.214489 -0.677334,0 -1.298224,-0.1016 -0.6096,-0.1016 -1.016001,-0.225778 v -8.353786 l 1.365957,-0.225778 v 3.059292 q 0.237067,-0.124178 0.575734,-0.225778 0.349956,-0.101601 0.767645,-0.101601 0.62089,0 1.106312,0.225778 0.496712,0.21449 0.82409,0.62089 0.327378,0.4064 0.496712,0.982134 0.180622,0.564445 0.180622,1.253068 z m 6.750748,-0.01129 q 0,0.699912 -0.2032,1.275646 -0.2032,0.575734 -0.575734,0.982134 -0.372533,0.406401 -0.903112,0.632179 -0.519289,0.225778 -1.151468,0.225778 -0.632178,0 -1.151467,-0.225778 -0.51929,-0.225778 -0.891824,-0.632179 -0.372533,-0.4064 -0.587022,-0.982134 -0.203201,-0.575734 -0.203201,-1.275646 0,-0.699911 0.203201,-1.264357 0.214489,-0.575733 0.587022,-0.982134 0.383823,-0.4064 0.903112,-0.620889 0.51929,-0.225778 1.140179,-0.225778 0.62089,0 1.140179,0.225778 0.530579,0.214489 0.903112,0.620889 0.372534,0.406401 0.575734,0.982134 0.214489,0.564446 0.214489,1.264357 z m -1.399823,0 q 0,-0.880534 -0.383823,-1.388534 -0.372534,-0.51929 -1.049868,-0.51929 -0.677334,0 -1.061156,0.51929 -0.372534,0.508 -0.372534,1.388534 0,0.891823 0.372534,1.411113 0.383822,0.519289 1.061156,0.519289 0.677334,0 1.049868,-0.519289 0.383823,-0.51929 0.383823,-1.411113 z m 8.150581,0 q 0,0.699912 -0.203201,1.275646 -0.2032,0.575734 -0.575734,0.982134 -0.372533,0.406401 -0.903112,0.632179 -0.519289,0.225778 -1.151467,0.225778 -0.632179,0 -1.151468,-0.225778 -0.51929,-0.225778 -0.891823,-0.632179 -0.372534,-0.4064 -0.587023,-0.982134 -0.2032,-0.575734 -0.2032,-1.275646 0,-0.699911 0.2032,-1.264357 0.214489,-0.575733 0.587023,-0.982134 0.383822,-0.4064 0.903112,-0.620889 0.519289,-0.225778 1.140179,-0.225778 0.620889,0 1.140179,0.225778 0.530578,0.214489 0.903112,0.620889 0.372533,0.406401 0.575734,0.982134 0.214489,0.564446 0.214489,1.264357 z m -1.399824,0 q 0,-0.880534 -0.383823,-1.388534 -0.372533,-0.51929 -1.049867,-0.51929 -0.677334,0 -1.061157,0.51929 -0.372534,0.508 -0.372534,1.388534 0,0.891823 0.372534,1.411113 0.383823,0.519289 1.061157,0.519289 0.677334,0 1.049867,-0.519289 0.383823,-0.51929 0.383823,-1.411113 z m 4.17689,-0.643467 q 0.259645,-0.270934 0.553156,-0.575734 0.293511,-0.316089 0.575734,-0.620889 0.282222,-0.31609 0.530578,-0.598312 0.259645,-0.293512 0.440267,-0.508001 H 93.1558 q -0.564445,0.632179 -1.196623,1.309513 -0.62089,0.677334 -1.253068,1.320801 0.338667,0.282223 0.7112,0.688623 0.372534,0.395112 0.72249,0.846668 0.349956,0.451556 0.654756,0.903112 0.304801,0.451556 0.508001,0.835378 H 91.72211 q -0.203201,-0.349956 -0.474134,-0.733778 -0.259645,-0.383823 -0.564445,-0.745068 -0.3048,-0.361245 -0.62089,-0.677334 -0.316089,-0.327378 -0.620889,-0.553156 v 2.709336 h -1.365957 v -8.534408 l 1.365957,-0.225778 z"
       id="text1"
       aria-label="Wildbook" /></g></svg>
