<?xml version="1.0" encoding="UTF-8" standalone="no"?>
<!-- Generator: Adobe Illustrator 19.0.0, SVG Export Plug-In . SVG Version: 6.00 Build 0)  -->

<svg
   xmlns:dc="http://purl.org/dc/elements/1.1/"
   xmlns:cc="http://creativecommons.org/ns#"
   xmlns:rdf="http://www.w3.org/1999/02/22-rdf-syntax-ns#"
   xmlns:svg="http://www.w3.org/2000/svg"
   xmlns="http://www.w3.org/2000/svg"
   xmlns:sodipodi="http://sodipodi.sourceforge.net/DTD/sodipodi-0.dtd"
   xmlns:inkscape="http://www.inkscape.org/namespaces/inkscape"
   version="1.1"
   id="Layer_1"
   x="0px"
   y="0px"
   viewBox="0 504.4 2000 492.6"
   style="enable-background:new 0 504.4 2000 492.6;"
   xml:space="preserve"
   inkscape:version="0.91 r13725"
   sodipodi:docname="wildbook_logo_white.svg"><metadata
     id="metadata3517"><rdf:RDF><cc:Work
         rdf:about=""><dc:format>image/svg+xml</dc:format><dc:type
           rdf:resource="http://purl.org/dc/dcmitype/StillImage" /><dc:title /></cc:Work></rdf:RDF></metadata><defs
     id="defs3515"><clipPath
       id="clipPath35248"
       clipPathUnits="userSpaceOnUse"><path
         inkscape:connector-curvature="0"
         id="path35246"
         d="m 0,0 0,1417 1701,0 0,-1417 z" /></clipPath><clipPath
       id="clipPath35248-4"
       clipPathUnits="userSpaceOnUse"><path
         inkscape:connector-curvature="0"
         id="path35246-0"
         d="m 0,0 0,1417 1701,0 0,-1417 z" /></clipPath></defs><sodipodi:namedview
     pagecolor="#000000"
     bordercolor="#666666"
     borderopacity="1"
     objecttolerance="10"
     gridtolerance="10"
     guidetolerance="10"
     inkscape:pageopacity="1"
     inkscape:pageshadow="2"
     inkscape:window-width="1600"
     inkscape:window-height="838"
     id="namedview3513"
     showgrid="false"
     inkscape:zoom="0.40517219"
     inkscape:cx="1011.5745"
     inkscape:cy="250.32286"
     inkscape:window-x="-8"
     inkscape:window-y="-8"
     inkscape:window-maximized="1"
     inkscape:current-layer="Layer_1_1_" /><style
     type="text/css"
     id="style3337">
	.st0{display:none;}
	.st1{display:inline;fill:#D80E0E;}
	.st2{display:inline;fill:#393A3A;}
	.st3{display:inline;fill:none;stroke:#000000;stroke-miterlimit:10;}
	.st4{fill:#FFFFFF;}
	.st5{fill:#504F4E;}
	.st6{fill:none;stroke:#9BCA3B;stroke-width:12;stroke-miterlimit:10;}
	.st7{fill:none;stroke:#9BCA3B;stroke-width:12;stroke-miterlimit:10;stroke-dasharray:20.6869,20.6869;}
	.st8{fill:none;stroke:#9BCA3B;stroke-width:12;stroke-miterlimit:10;stroke-dasharray:19.0275,19.0275;}
	.st9{fill:none;stroke:#9BCA3B;stroke-width:12;stroke-miterlimit:10;stroke-dasharray:20.6871,20.6871;}
	.st10{fill:none;stroke:#9BCA3B;stroke-width:12;stroke-miterlimit:10;stroke-dasharray:19.0276,19.0276;}
	.st11{fill:none;}
	.st12{enable-background:new    ;}
	.st13{display:none;fill:#D80E0E;}
</style><g
     id="Layer_2_1_"
     class="st0"><rect
       x="-192.3"
       y="545.1"
       class="st1"
       width="2265.2"
       height="1536.2"
       id="rect3340" /></g><g
     id="Layer_1_1_"><g
       id="Layer_5"
       class="st0"><rect
         x="-95.4"
         y="375.7"
         class="st2"
         width="2172.4"
         height="724.3"
         id="rect3344" /></g><g
       id="Layer_2"
       class="st0"><path
         class="st3"
         d="M1572.8,847.6c47.4-25.3,167-71,212-35.7c15.6,12.2,27.5,42.5,59.7,57.6s76.9,9,76.9,9s2.4-0.7,2.6-3.8    s-2.8-2.8-2.8-2.8s-67.7-6.2-85.2-28.8s-24-45-24-45s-15.7-77.4,6.9-149.9s23.7-146.1,85.4-168.2c0,0,3.1-3.6,0.5-5.7    s-37-14.9-74.6,0.5c-33.6,13.8-148.2,66.1-169.8,64.3c-6.6-0.5-45.1-9-50.4-11.8c-52-27.8-73.3-62.2-81-51.7    c-12.7,17.7,83,79.9,48.1,111.8c-18.9,17.2-42.2,6.7-60.7-8.2c-8.7-7.1-39.1-41.7-61.7-34c-22.6,7.7,44.8,66.6,56.3,77.2    c8.5,7.8,13.7,18.6,16.8,34c2.3,11.3,5.5,24.3-1.5,44.8c0,0-55,109.1-49.4,183.1c5.6,74,15.4,50.9,15.4,50.9    S1496.8,888.2,1572.8,847.6z"
         id="path3347" /></g><rect
       style="fill:none"
       id="rect3435"
       height="206"
       width="2012.8"
       class="st11"
       y="602.70001"
       x="-16.799999" /><g
       inkscape:label="title"
       id="layer1"
       inkscape:groupmode="layer"
       transform="translate(-8,0)"><g
         id="text3524"
         style="font-style:normal;font-variant:normal;font-weight:bold;font-stretch:normal;font-size:180px;line-height:125%;font-family:Multicolore;-inkscape-font-specification:'Multicolore Bold';letter-spacing:0px;word-spacing:0px;fill:#ffffff;fill-opacity:1;stroke:none;stroke-width:1px;stroke-linecap:butt;stroke-linejoin:miter;stroke-opacity:1" /></g><g
       transform="matrix(0.97983135,0,0,1.0205838,29.617037,-46.893644)"
       style="font-style:normal;font-weight:normal;font-size:258.65286255px;line-height:125%;font-family:sans-serif;letter-spacing:0px;word-spacing:0px;fill:#000000;fill-opacity:1;stroke:none;stroke-width:1px;stroke-linecap:butt;stroke-linejoin:miter;stroke-opacity:1"
       id="text3537"><path
         d="m 150.1004,586.28964 c -6.72498,-15.77783 -23.02011,-15.00187 -29.22778,0.77595 L 75.091066,693.63057 36.810442,587.06559 C 30.085468,566.63202 -2.7634457,575.16756 4.9961402,598.44632 L 55.174796,739.41213 c 4.138445,11.38073 8.794197,17.5884 17.847047,17.5884 9.311503,0 13.708602,-6.20767 18.364353,-17.07109 l 42.936374,-100.61597 45.0056,102.16788 c 5.17306,9.31151 8.01824,15.00187 17.32974,15.00187 8.7942,0 13.1913,-4.3971 17.84705,-19.14031 l 51.21327,-138.89659 c 7.75958,-22.5028 -23.53741,-32.33161 -31.297,-11.38073 L 195.88195,693.63057 150.1004,586.28964 Z"
         style="font-style:normal;font-variant:normal;font-weight:bold;font-stretch:normal;font-family:Multicolore;-inkscape-font-specification:'Multicolore Bold';fill:#ffffff"
         id="path3615"
         inkscape:connector-curvature="0" /><path
         d="m 292.21802,739.67078 c 0,21.9855 34.14218,21.46819 34.14218,0 l 0,-147.69078 c 0,-21.98549 -34.14218,-21.20954 -34.14218,0 l 0,147.69078 z"
         style="font-style:normal;font-variant:normal;font-weight:bold;font-stretch:normal;font-family:Multicolore;-inkscape-font-specification:'Multicolore Bold';fill:#ffffff"
         id="path3617"
         inkscape:connector-curvature="0" /><path
         d="m 364.66911,739.67078 c 0,9.31151 7.24228,15.77783 16.29513,15.77783 l 85.6141,0 c 25.86529,0 25.34798,-33.88353 0,-33.88353 l -70.35358,0 0,-129.58508 c 0,-8.53555 -6.98363,-15.77783 -15.26052,-15.77783 -9.05285,0 -16.29513,7.24228 -16.29513,15.77783 l 0,147.69078 z"
         style="font-style:normal;font-variant:normal;font-weight:bold;font-stretch:normal;font-family:Multicolore;-inkscape-font-specification:'Multicolore Bold';fill:#ffffff"
         id="path3619"
         inkscape:connector-curvature="0" /><path
         d="m 589.26064,608.01648 c 72.9401,0 69.83627,115.87648 0,115.87648 l -42.93638,0 0,-115.87648 42.93638,0 z m 2.32787,147.43213 c 113.28995,0 115.87648,-178.98778 -2.32787,-178.98778 l -59.23151,0 c -8.53554,0 -17.84705,6.72497 -17.84705,16.03647 l 0,146.91483 c 0,11.38073 9.31151,16.03648 17.84705,16.03648 l 61.55938,0 z"
         style="font-style:normal;font-variant:normal;font-weight:bold;font-stretch:normal;font-family:Multicolore;-inkscape-font-specification:'Multicolore Bold';fill:#ffffff"
         id="path3621"
         inkscape:connector-curvature="0" /><path
         d="m 813.99357,625.86352 c 0,13.70861 -6.98363,20.69223 -18.1057,20.69223 l -54.57576,0 0,-38.53927 54.57576,0 c 11.12207,0 18.1057,9.3115 18.1057,17.84704 z m -9.57016,129.58509 c 38.79793,0 58.97285,-24.31337 58.97285,-54.05845 0,-19.14031 -9.05285,-34.91814 -29.48642,-42.93638 10.86342,-9.57015 14.2259,-20.95088 14.2259,-32.59026 0,-26.38259 -18.36435,-49.40269 -52.24787,-49.40269 l -72.68146,0 c -9.3115,0 -15.77782,6.72497 -15.77782,16.03647 l 0,146.91483 c 0,9.05285 6.46632,16.03648 15.77782,16.03648 l 81.217,0 z m -63.1113,-77.33721 c 20.43358,0 43.45368,0 63.1113,0 30.00373,0 30.00373,45.78156 0,45.78156 l -63.1113,0 0,-45.78156 z"
         style="font-style:normal;font-variant:normal;font-weight:bold;font-stretch:normal;font-family:Multicolore;-inkscape-font-specification:'Multicolore Bold';fill:#ffffff"
         id="path3623"
         inkscape:connector-curvature="0" /><path
         d="m 1077.7427,664.92011 c 0,-61.30073 -47.3335,-92.59773 -92.59773,-94.9256 -47.85078,0 -97.51213,31.29699 -97.51213,94.9256 0,63.36995 49.66135,95.18425 97.51213,93.11503 45.26423,0 92.59773,-31.81431 92.59773,-93.11503 z m -33.8835,0 c 0,40.6085 -31.8143,61.30072 -61.55941,61.30072 -28.96912,0 -60.52477,-20.69222 -60.52477,-61.30072 0,-40.86716 31.55565,-61.30073 60.52477,-61.30073 29.74511,0 61.55941,20.43357 61.55941,61.30073 z"
         style="font-style:normal;font-variant:normal;font-weight:bold;font-stretch:normal;font-family:Multicolore;-inkscape-font-specification:'Multicolore Bold';fill:#ffffff"
         id="path3625"
         inkscape:connector-curvature="0" /><path
         d="m 1292.95,664.92011 c 0,-61.30073 -47.3334,-92.59773 -92.5977,-94.9256 -47.8508,0 -97.5121,31.29699 -97.5121,94.9256 0,63.36995 49.6613,95.18425 97.5121,93.11503 45.2643,0 92.5977,-31.81431 92.5977,-93.11503 z m -33.8835,0 c 0,40.6085 -31.8143,61.30072 -61.5594,61.30072 -28.9691,0 -60.5247,-20.69222 -60.5247,-61.30072 0,-40.86716 31.5556,-61.30073 60.5247,-61.30073 29.7451,0 61.5594,20.43357 61.5594,61.30073 z"
         style="font-style:normal;font-variant:normal;font-weight:bold;font-stretch:normal;font-family:Multicolore;-inkscape-font-specification:'Multicolore Bold';fill:#ffffff"
         id="path3627"
         inkscape:connector-curvature="0" /><path
         d="m 1440.9074,749.49959 c 10.3462,16.55379 43.4537,1.03461 27.9346,-20.43357 l -60.5248,-73.19876 c 16.5538,-18.1057 34.4008,-34.14218 49.6613,-52.24788 7.2423,-6.98363 7.2423,-16.03648 0,-23.02011 -6.4663,-6.46632 -15.5191,-8.53554 -24.572,0 l -74.7507,77.07856 0,-65.69783 c 0,-22.76145 -34.1421,-21.98549 -34.1421,0 0,49.92 0,98.02943 0,147.69078 0,21.72684 34.1421,21.46819 34.1421,0 l 0,-36.2114 24.5721,-27.15855 57.6795,73.19876 z"
         style="font-style:normal;font-variant:normal;font-weight:bold;font-stretch:normal;font-family:Multicolore;-inkscape-font-specification:'Multicolore Bold';fill:#ffffff"
         id="path3629"
         inkscape:connector-curvature="0" /></g><rect
       x="-121.1"
       y="-173.4"
       class="st13"
       width="2195.2"
       height="1848.2"
       id="rect3511" /><g
       style="font-style:normal;font-variant:normal;font-weight:normal;font-stretch:normal;font-size:105px;line-height:125%;font-family:Tunga;-inkscape-font-specification:Tunga;letter-spacing:0px;word-spacing:0px;fill:#80b3ff;fill-opacity:1;stroke:none;stroke-width:1px;stroke-linecap:butt;stroke-linejoin:miter;stroke-opacity:1"
       id="text3610"
       transform="matrix(0.57416229,0,0,0.7781396,828.39153,252.49361)"><text
         xml:space="preserve"
         style="font-style:normal;font-variant:normal;font-weight:normal;font-stretch:normal;font-size:180px;line-height:125%;font-family:'Architects Daughter';-inkscape-font-specification:'Architects Daughter';letter-spacing:0px;word-spacing:0px;fill:#80b3ff;fill-opacity:1;stroke:none;stroke-width:1px;stroke-linecap:butt;stroke-linejoin:miter;stroke-opacity:1"
         x="66.317627"
         y="852.14832"
         id="text3388"
         sodipodi:linespacing="125%"><tspan
           sodipodi:role="line"
           id="tspan3390"
           x="66.317627"
           y="852.14832">for Whale Sharks</tspan></text>
</g><g
       id="g35242"
       transform="matrix(-0.68072542,0,0,-0.79101637,1012.3812,1232.4589)"><g
         clip-path="url(#clipPath35248-4)"
         id="g35244"><path
           id="path35250"
           style="fill:#ffffff;fill-opacity:1;fill-rule:nonzero;stroke:none"
           d="m 548.355,992.809 c 0.567,0.937 0.868,1.738 1.137,2.507 -5.512,-0.722 -10.508,-2.722 -14.828,-6.738 -5.68,-5.273 -7.453,-15.82 -17.363,-22.012 10.086,0.235 27.699,20.567 31.054,26.243"
           inkscape:connector-curvature="0" /><path
           id="path35252"
           style="fill:#264246;fill-opacity:1;fill-rule:nonzero;stroke:none"
           d="m 1277.08,954.555 c -0.55,2.648 -1.04,5.812 -2.05,9.062 -0.81,3.313 -2.2,6.66 -3.47,10.059 -1.61,3.246 -3.01,6.601 -4.98,9.386 -1.7,2.911 -3.86,5.301 -5.63,7.333 -1.66,2.167 -3.58,3.164 -4.7,4.218 -1.19,0.938 -1.91,1.426 -1.91,1.426 0,0 0.43,-0.789 1.28,-2.098 0.81,-1.308 2.21,-3.117 3.4,-5.402 1.34,-2.187 2.7,-4.805 4.09,-7.762 1.51,-2.812 2.79,-6.062 4.24,-9.187 2.64,-6.496 5.27,-12.992 7.24,-17.863 1.98,-4.93 3.54,-8.215 3.54,-8.215 0,0 -0.12,3.672 -1.05,9.043 z m -19.15,6.133 c -0.97,3.535 -2.57,7.07 -4.02,10.683 -1.83,3.418 -3.46,6.973 -5.63,9.875 -1.92,3.074 -4.33,5.527 -6.26,7.656 -1.84,2.266 -3.96,3.25 -5.16,4.356 -1.3,0.965 -2.09,1.472 -2.09,1.472 0,0 0.51,-0.82 1.48,-2.175 0.9,-1.36 2.53,-3.196 3.89,-5.594 1.53,-2.309 3.14,-5 4.73,-8.125 1.75,-2.961 3.23,-6.398 4.9,-9.691 2.98,-6.817 6,-13.692 8.15,-18.985 2.18,-5.262 3.86,-8.769 3.86,-8.769 0,0 -0.24,3.925 -1.39,9.648 -0.67,2.832 -1.29,6.203 -2.46,9.649 z m -19.61,-3.309 c -1.02,3.797 -2.67,7.629 -4.19,11.523 -1.9,3.7 -3.57,7.547 -5.85,10.723 -1.98,3.34 -4.48,6.055 -6.52,8.379 -1.9,2.488 -4.13,3.633 -5.4,4.863 -1.4,1.043 -2.19,1.649 -2.19,1.649 0,0 0.56,-0.848 1.56,-2.34 0.96,-1.477 2.68,-3.461 4.13,-6.067 1.61,-2.492 3.31,-5.437 4.98,-8.828 1.84,-3.222 3.38,-6.953 5.12,-10.539 3.12,-7.39 6.23,-14.859 8.44,-20.605 2.26,-5.703 3.98,-9.5 3.98,-9.5 0,0 -0.28,4.207 -1.5,10.359 -0.69,3.039 -1.35,6.66 -2.56,10.383 z m -21.16,-6.914 c -1.27,4.219 -3.29,8.437 -5.11,12.746 -2.27,4.078 -4.3,8.297 -6.97,11.766 -2.33,3.671 -5.26,6.574 -7.58,9.113 -2.24,2.672 -4.76,3.902 -6.22,5.242 -1.59,1.133 -2.5,1.785 -2.5,1.785 0,0 0.7,-0.906 1.91,-2.508 1.15,-1.593 3.2,-3.671 4.98,-6.515 0.94,-1.367 1.94,-2.852 3.02,-4.414 1.1,-1.512 1.92,-3.465 3.04,-5.196 2.23,-3.523 4.12,-7.636 6.2,-11.589 1.86,-4.114 3.86,-8.157 5.45,-12.11 1.7,-3.906 3.32,-7.57 4.56,-10.781 2.63,-6.367 4.56,-10.617 4.56,-10.617 0,0 -0.49,4.699 -2.08,11.535 -0.88,3.387 -1.77,7.414 -3.26,11.543 z m -17.04,-6.457 c -1.3,4.445 -3.37,8.906 -5.24,13.449 -2.34,4.316 -4.41,8.789 -7.15,12.469 -2.41,3.886 -5.41,7.012 -7.82,9.719 -2.29,2.871 -4.92,4.218 -6.43,5.644 -1.65,1.238 -2.59,1.941 -2.59,1.941 0,0 0.72,-0.964 1.98,-2.644 1.21,-1.691 3.36,-3.887 5.18,-6.906 0.97,-1.446 2.02,-3.016 3.14,-4.688 1.13,-1.609 2,-3.66 3.15,-5.508 2.32,-3.738 4.25,-8.093 6.41,-12.285 1.89,-4.363 3.95,-8.64 5.58,-12.832 1.75,-4.129 3.4,-8.008 4.68,-11.402 2.69,-6.731 4.64,-11.235 4.64,-11.235 0,0 -0.52,4.934 -2.17,12.129 -0.9,3.567 -1.82,7.805 -3.36,12.149"
           inkscape:connector-curvature="0" /><path
           id="path35254"
           style="fill:#d4f2f4;fill-opacity:1;fill-rule:nonzero;stroke:none"
           d="m 1418.22,1028.16 c 0.8,-2.68 -0.67,-5.47 -3.25,-6.25 -2.61,-0.77 -5.38,0.75 -6.17,3.42 -0.8,2.69 0.67,5.49 3.27,6.28 2.58,0.78 5.34,-0.77 6.15,-3.45"
           inkscape:connector-curvature="0" /><path
           id="path35256"
           style="fill:#011e2c;fill-opacity:1;fill-rule:nonzero;stroke:none"
           d="m 1416.32,1027.6 c 0.48,-1.62 -0.38,-3.3 -1.93,-3.75 -1.57,-0.47 -3.22,0.45 -3.7,2.06 -0.46,1.61 0.39,3.29 1.96,3.77 1.55,0.44 3.19,-0.48 3.67,-2.08"
           inkscape:connector-curvature="0" /><path
           id="path35258"
           style="fill:#000000;fill-opacity:1;fill-rule:nonzero;stroke:none"
           d="m 343.422,685.211 c 10.254,0.078 -21.676,-17.746 -18.34,-51.535 2.617,-26.668 27.914,-58.856 38.797,-72.227 14.051,-17.265 33.465,-36.504 49.578,-40.828 11.832,-3.176 24.059,1.727 37.367,4.168 17.461,3.508 31.442,5.852 48.903,6.984 26.765,1.211 26.882,19.325 34.937,26.805 24.441,22.707 69.469,-16.707 117.195,-10.859 8.36,0.832 58.672,-3.543 93.246,9.992 22.102,9.277 43.665,36.394 68.122,41.047 25.617,4.637 42.785,-11.086 67.238,-14.582 23.269,-4.629 47.734,-1.133 70.996,0 48.909,3.496 95.789,16.316 144.689,19.824 34.39,1.688 80.35,4.59 138.24,10.469 24.46,2.351 54.32,4.148 79.2,5.234 31.54,1.426 37.26,5.235 60.52,6.387 15.16,1.211 64.9,4.969 76.58,-9.016 13.96,-18.582 -31.15,-53.867 -42.79,-66.629 -33.79,-37.265 -84.71,-78.918 -130.1,-101.023 -71.08,-33.793 -168.55,-45.402 -230.82,-45.672 -4.69,-20.969 -25.66,-37.27 -38.42,-54.75 -10.49,-13.969 -32.052,-44.52 -45.412,-38.43 2.024,19.789 27.071,42.309 37.822,61.141 4.48,7.801 2.52,16.687 1.74,21.82 0,0 -47.421,-1.453 -67.237,-2.609 -51.211,-2.352 -91.258,2.508 -127.11,-7.543 -14.574,-4.078 -50.722,-16.199 -67.133,-11.84 -17.082,4.539 -6.738,21.731 -20.703,34.5 -11.648,10.481 -34.507,15.996 -49.636,17.199 -18.621,2.293 -46.973,1.516 -65.555,5.117 -31.977,-6.972 -30.664,-20.636 -55.125,-29.906 -37.246,-15.16 -32.852,32.758 -44.676,42.524 -11.258,9.328 -45.402,15.781 -68.676,14.57 -30.261,-2.297 -44.812,6.648 -64.629,-20.078 -11.621,-16.336 -19.207,-41.043 -35.492,-53.863 -15.156,-11.641 -32.617,-16.274 -45.414,-30.243 -6.992,-7 -30.812,-42.097 -42.207,-34.668 -5.355,3.5 3.485,43.118 6.977,52.411 0,0 28.816,84.418 36.679,125.027 5.262,27.242 -9.609,67.078 4.36,130.809 4.066,18.574 31.933,60.164 46.289,60.273"
           inkscape:connector-curvature="0" /><path
           id="path35260"
           style="fill:#ffffff;fill-opacity:1;fill-rule:nonzero;stroke:none"
           d="m 1122.42,484.371 0,-0.937 c 0,-1.614 2.5,-1.614 2.5,0 l 0,0.937 c 0,1.609 -2.5,1.609 -2.5,0 z m -13.59,82.805 c 4.48,-16.418 11.17,-34.375 11,-52.754 0.06,-5.422 -3.39,-18.578 2.9,-16.926 5.25,1.152 5.56,13.692 5.67,20.391 0.43,18.808 -6.2,35.508 -11.25,52.304 -3.28,10.899 -8.19,24.266 -14.37,34.149 -2.21,-0.117 -4.51,-0.235 -6.63,-0.34 -1.1,-0.078 -2.18,-0.215 -3.27,-0.312 1.1,-3.047 3.69,-7.286 4.95,-9.649 4.54,-8.887 7.96,-16.613 11,-26.863 z m 13.12,-92.914 c 0.28,0.859 -0.32,1.996 -1.43,1.621 l -0.11,-0.039 -0.76,-1.836 0.12,-0.274 c 0.52,-1.211 1.98,-0.546 2.18,0.528 z m 9.97,2.941 -0.14,0.235 -1.92,0.234 c -1.08,0.183 -2.13,-1.094 -1.14,-2 l 0.67,-0.422 c 0.28,-0.879 1.65,-1.199 2.24,-0.266 l 0.46,1.555 0.01,0.02 -0.01,0.019 0.01,0.293 z m -486.377,63.731 1.492,0.617 1.426,-0.293 c 2.629,-0.707 4.664,2.832 2.219,4.187 -0.618,1.106 -1.637,1.219 -2.543,0.84 l -2.231,-0.508 -0.363,0.157 c -3.223,0 -3.223,-5 0,-5 z m 513.117,58.457 c 1.24,-0.696 2.54,0.664 3.4,1.589 0.73,0.801 0.22,2.122 -0.89,2.141 -1.8,0.027 -3.02,-0.207 -3.9,-1.863 -0.56,-1.067 0.51,-2.035 1.39,-1.867 z m -51.24,-66.907 c -15.83,-1.062 0,-19.617 5.12,-10.867 1.63,2.766 0.17,7.957 -2.95,9.188 -0.25,0.949 -0.87,1.769 -2.17,1.679 z m -29.98,62.563 1.87,0.625 0.78,0.75 c 0.6,0.644 0.62,1.785 -0.47,1.961 l -1.87,0.312 -1.53,-0.867 -0.32,-1.25 c -0.24,-0.976 0.61,-1.719 1.54,-1.531 z m 41.54,-130.363 -0.94,0 -1.2,-0.918 -0.13,-0.559 c -0.23,-1.023 0.8,-1.777 1.62,-1.512 l 0.06,-0.05 1.21,-0.086 c 1.4,0.105 1.51,1.961 0.44,2.343 z m 17.81,101.347 c 8.34,-17.5 12.5,-35 8.34,-54.582 -1.25,-6.25 -7.5,-11.668 -7.92,-17.5 9.17,-0.828 16.67,14.582 18.75,21.672 2.5,10 1.67,18.75 -1.25,28.328 -2.92,8.75 -6.67,18.75 -10.83,26.672 -4.59,9.16 -13.75,15.41 -18.75,24.578 -1.8,3.227 -2.42,7.016 -4.13,10.149 -2.45,-0.149 -4.83,-0.286 -7.2,-0.41 1.52,-4.25 5.25,-8.047 7.99,-11.817 5.42,-8.34 10.84,-17.922 15,-27.09 z m -3.14,28.074 c 4.23,-0.972 8.12,3.547 2.85,5.215 l -1.14,-0.351 c -1.34,-0.086 -2.21,-1.461 -2.58,-3.328 z m 10.64,-14.109 1.88,0 c 1.71,0 2.73,1.594 2.41,3.164 l -0.31,1.238 c 1.31,1.184 1.4,3.704 -0.81,4.258 l -2.5,0.625 c -1.59,0.235 -3.17,-0.644 -3.17,-2.41 l 0,-4.375 c 0,-1.367 1.13,-2.5 2.5,-2.5 z m 15.33,-14.746 0.66,0.496 c 1.02,0.129 1.44,1.32 0.81,1.965 0.1,1.258 -1.61,1.738 -2.21,0.644 l -0.19,0.028 c -1.08,0.168 -2.32,-1.199 -1.22,-2.086 0.81,-0.649 1.14,-1.059 2.15,-1.047 z m -11,-89.023 c 0.24,1.179 0.36,1.464 0,2.539 l -1.27,0.789 -0.87,0.441 -0.63,0 c -0.93,0 -1.56,-1.066 -1.08,-1.887 0.56,-0.918 0.89,-1.308 1.56,-2.183 0.6,-0.766 2.05,-0.891 2.29,0.301 z m 3.09,0.058 c -1.09,0.059 -1.65,-1.406 -0.88,-2.14 l 0.7,-0.665 c 0.98,-0.933 2.3,0.176 2.01,1.223 0.13,0.692 -0.21,1.492 -1.12,1.543 z m -12.15,-9.101 0.36,0 c 1.61,0 1.61,2.5 0,2.5 l -0.36,0 c -1.62,0 -1.62,-2.5 0,-2.5 z m -1.21,15 c -1.61,0 -1.61,-2.5 0,-2.5 1.62,0 1.62,2.5 0,2.5 z m 4.12,-9.082 0.93,-1.805 c 1.05,-1.235 2.81,0.543 1.78,1.773 l -0.31,0.696 c -0.41,1.562 -2.81,0.898 -2.4,-0.664 z m -46.2,74.91 c 1.1,-0.957 3.23,-1.055 3.93,0.508 l 0.12,0.324 0.76,0.898 c 0.38,1.223 0.5,2.403 0.47,3.555 0.14,1.66 -0.34,3.191 -1.59,4.598 l -1.07,1.964 c -2.63,1.883 -6.37,0.536 -7.22,-2.746 -1.13,-4.383 1.57,-6.433 4.6,-9.101 z m -356.661,1.523 0,2.168 c -1.129,0.781 -2.054,0.977 -3.308,1.047 -1.141,0.723 -2.528,0.645 -2.356,-1.359 0.27,-3.192 3.59,-3.133 5.664,-1.856 z m 5.918,-13.965 c 4.035,-1.582 9.008,1.535 7.559,4.668 0.414,1.02 0.312,2.207 -0.973,2.852 -3.074,1.543 -6.902,1.633 -8.894,-1.668 -1.555,-2.578 -0.289,-4.832 2.308,-5.852 z m 144.106,40.032 c 1.621,-2.801 5.84,-0.313 4.316,2.519 l -1.191,2.461 -0.059,0.059 -0.203,0.398 c -1.582,2.813 -5.898,0.293 -4.316,-2.519 0.535,-0.946 0.937,-1.961 1.453,-2.918 z M 702.562,509.066 c 2.708,-1.746 7.969,-0.293 8.907,2.942 0.511,1.758 0.269,3.445 -0.469,4.922 -0.371,2.265 -1.719,3.965 -4.207,3.965 -0.742,0.527 -1.688,0.722 -2.59,0.156 -3.723,0.371 -6.687,-8.711 -1.641,-11.985 z m 194.786,45.704 c 0.793,-1.434 2.168,-1.465 3.222,-0.821 1.075,0.254 2.004,1.008 1.848,2.285 l -0.148,0.657 0.058,0.007 -0.203,1.047 -0.109,0.157 -0.977,2.109 -2.051,1.062 c -1.746,0.657 -4.148,-1.296 -3.105,-3.582 0.449,-0.996 0.937,-1.964 1.465,-2.921 z m -246.797,-9.18 0.129,-0.145 0.144,-0.129 z m 12.91,-36.524 c 1.344,-0.496 2.351,-0.371 3.121,0.079 l 0.211,-0.086 0.625,0 c 2.305,0 2.891,2.531 1.894,3.984 1.364,4.766 -6.261,11.621 -8.531,5.391 l -0.859,-2.227 c -1.277,-2.266 -0.348,-5.715 3.539,-7.141 z m -3.262,23.418 c 0.938,1.438 0.153,2.786 -1.043,3.36 l -0.519,1.039 c -0.664,1.324 -2.235,1.402 -3.418,0.894 -6.739,-2.898 0.176,-12.656 4.98,-5.293 z m 33.672,2.5 c 1.379,-1.707 3.57,-1.718 6.055,-0.586 1.234,0.559 1.543,2.344 0.898,3.418 l -0.019,0.024 c 0.449,1.043 0.379,2.312 -0.879,3.062 -3.578,2.141 -6.235,0.528 -7.735,-3.054 -0.593,-1.426 0.438,-2.481 1.68,-2.864 z m 249.512,8.352 c -1.453,-3.234 -0.555,-5.559 1.465,-8.359 l 2.121,-1.106 c 1.093,-0.769 2.644,-0.828 3.445,0.695 1.438,2.735 0.891,6.903 -0.84,9.395 -0.957,1.379 -2.664,1.406 -3.73,0.535 -0.985,0.109 -2.051,-0.254 -2.461,-1.16 z m 63.367,37.578 c 2.16,-0.625 3.86,1.785 2.83,3.672 -0.5,0.906 -1.15,1.297 -2.12,1.562 l -0.26,-0.039 c -2.75,1.629 -5.24,-2.656 -2.5,-4.316 z M 983.5,570.301 c -0.176,1.941 -2.07,2.547 -3.68,2.39 l -0.285,-0.039 c -1.277,-0.214 -2.148,-0.918 -1.707,-1.914 l 0.274,-2.101 c 1.003,-2.235 5.586,-0.457 5.398,1.664 z m 58.33,13.211 c 2.28,-3.477 3.86,-1.953 4.22,0.078 1.13,0.281 1.5,2.031 0.14,2.293 l -0.42,0.043 c -0.46,0.933 -1.41,1.297 -3.04,0.094 l -0.61,0.175 c -1.1,0.207 -2.26,-1.199 -1.22,-2.09 z m -5.96,4.343 c 1.2,0.188 1.11,1.583 0.34,2.168 l -0.98,0.598 -0.03,0 -0.91,0.313 -0.17,-0.02 -0.68,-0.293 -0.09,0 c -1.27,0 -1.66,-1.672 -0.63,-2.336 1.19,-0.75 1.8,-0.652 3.15,-0.43 z m -93.452,-29.949 0.215,0 1.777,0.762 c 1.297,0.254 2.539,1.348 2.293,3.027 -0.215,1.426 -0.457,2.782 -0.828,4.168 -0.344,1.27 -1.789,2.168 -3.078,1.75 l -1.844,-1.062 -0.832,-0.031 -0.457,-0.208 -1.242,-2.156 c -0.047,-1.867 1.113,-3.371 1.836,-5.011 z m 30.672,18.699 0.449,-0.214 c 0.879,-0.703 2.461,-0.133 1.953,1.125 l -1.062,2.136 -1.223,0.313 -0.809,-0.332 c -0.929,-0.371 -1.347,-1.707 -0.304,-2.285 z m -39.735,-1.921 1.2,0.918 c 0.207,1.23 -0.028,2.07 -0.438,2.734 l -0.441,1.492 c -2.637,1.594 -4.883,0.391 -5.899,-2.312 l 0.567,-1.418 c 1.691,-0.711 3.195,-1.18 5.011,-1.414 z M 907.66,528.297 c 1.328,-0.117 2.785,0.605 2.883,2.324 0.105,1.887 0.469,3.738 0.625,5.625 0.078,0.918 -0.313,1.492 -0.871,1.887 -0.527,1.25 -1.914,2.246 -3.516,1.519 -5.156,-2.312 -4.922,-7.234 -1.133,-10.8 z m 162.96,64.512 -0.07,2.019 c -2.46,1.77 -5.11,1.106 -4.57,-2.273 0.58,-3.664 3.6,-1.934 4.64,0.254 z m 8.09,-15.02 c 3.02,-2.695 7.32,-1.699 6.54,2.859 l -0.39,0.586 c 0.68,1.438 0.09,3.606 -2.02,3.75 -3.56,0.254 -7.6,-4.109 -4.13,-7.195 z m 139.04,22.883 c 1.53,0.476 0.88,2.887 -0.67,2.398 l -0.28,-0.117 c -1.45,0.664 -2.72,-1.484 -1.27,-2.168 0.92,-0.418 1.23,-0.43 2.22,-0.113 z m 26.21,6.25 c 1.07,-0.285 1.67,0.758 1.46,1.582 0.12,0.699 -0.21,1.492 -1.13,1.492 l -1.25,0 c -1.02,0 -1.75,-1.406 -0.89,-2.141 z m -5.33,-22.766 0.01,0.02 0.17,0.183 0.01,0.344 0.02,0.606 -0.05,0.125 -0.51,0.586 -0.27,0.117 -0.28,0.109 -0.24,-0.012 -0.17,-0.007 c -1.02,-0.012 -1.52,0 -2.35,-0.969 -0.62,-0.731 -0.39,-1.785 0.55,-2.086 1.51,-0.5 2.4,-0.305 3.11,0.984 z m 3.11,19.016 c 1.01,0.926 -0.1,2.223 -1.2,1.969 l -0.94,0.48 -1.56,0 c -1.11,0 -1.62,-1.348 -0.89,-2.141 1.56,-1.621 2.87,-1.863 4.59,-0.308 z m -14.66,5.625 2.19,-0.317 0.37,0.09 0.51,0.137 0.23,0.195 0.37,0.547 0.04,0.184 -0.05,0.547 -0.35,0.422 -0.15,0.164 -0.29,0.117 -0.02,0 c -1.01,0.461 -1.68,0.715 -2.85,0.312 -1.04,-0.351 -1.32,-2.215 0,-2.398 z m -10.55,-33.156 -0.31,-1.25 0.86,-1.536 1.25,-0.308 1.42,0.562 0.74,1.555 c 0.37,1.172 -0.92,1.816 -1.78,1.387 l -0.35,0.34 z m 4.99,28.789 1.92,-0.578 0.21,-0.055 0,0.015 0.33,-0.066 c 1.38,-0.168 1.57,1.824 0.46,2.344 l -0.65,0.633 c 0.35,0.89 -0.28,2.101 -1.39,1.66 -1.13,-0.438 -1.57,-0.574 -2.1,-1.434 -0.85,-0.519 -0.93,-1.875 0.22,-2.219 z m 2.76,-28.457 0.18,-0.364 1.08,-0.613 1.56,0 c 1.62,0 1.62,2.5 0,2.5 l -0.23,-0.09 -0.7,0.403 -0.81,0.046 c -0.98,-0.027 -1.52,-1.035 -1.08,-1.882 z m -3.43,18.711 1.93,0.781 0.36,1.992 -1,0.625 -0.35,0.039 -0.6,-0.207 c -0.94,-0.059 -1.59,-0.547 -1.59,-1.98 z m 11.47,-43.672 c 0.24,-1.094 0.92,-1.289 2.47,-1.59 l 0.75,0.144 0.5,-0.144 c 1.09,-0.199 2.29,1.211 1.22,2.086 l -0.35,0.207 c 0.41,0.652 0.35,1.59 -0.62,1.765 -2.02,0.383 -1.98,0.383 -4,0 l -0.56,-2.089 z m 26.35,51.484 2.06,0.391 1.19,0.82 0.14,0.09 c 1.05,1.09 -0.43,2.613 -1.56,1.863 l -1.52,0.274 -1.2,-0.918 -0.31,-0.938 z m -4.02,6.301 0.11,-0.031 0.77,-0.481 c 1.33,-0.926 2.57,1.242 1.27,2.168 l -0.96,0.578 c -1.2,0.598 -2.66,-1.015 -1.51,-1.965 z m 8.67,-34.965 0.4,-0.352 0.49,-0.156 0.07,-0.039 0.1,-0.019 0.37,-0.059 c 1.14,-0.176 1.98,1.477 0.8,2.246 l -1.01,0.473 c -1.15,0.269 -2.22,-1.235 -1.22,-2.094 z m -1.4,15.039 0.48,-0.074 1.11,0.398 c 1.34,0.379 0.7,2.528 -0.8,2.313 l -1.08,-0.352 c -0.8,-0.547 -0.87,-2.09 0.29,-2.285 z m -17.91,-15.488 -0.01,0 -1.56,0.312 c -1.05,0.188 -2,-0.808 -1.42,-1.836 1.06,-1.863 1.8,-1.48 3.6,-0.879 1.51,0.489 0.88,2.832 -0.61,2.403 z m 2.76,-7.086 0.33,-0.012 0,-0.039 2.19,0 c 0.92,0 1.25,0.801 1.13,1.492 0.27,0.957 -0.68,2.129 -1.76,1.465 l -1.11,-0.457 -0.45,0 c -1.38,0 -1.73,-2.168 -0.33,-2.449 z m 5.03,20.113 0.1,0.156 0.52,-0.007 c 1.61,-0.137 1.59,2.363 0,2.5 -1.74,0.156 -2.57,0.07 -3.7,-1.301 -0.64,-0.789 -0.3,-2.176 0.88,-2.137 1.09,0.027 1.32,0.195 2.2,0.789 z m 0.67,-7.305 0.68,-0.601 0.31,-0.039 1.9,0.476 0.45,0.481 c 1.25,1.012 -0.53,2.769 -1.78,1.773 l -0.12,-0.097 -0.22,0.097 c -1.17,0.325 -2.17,-1.23 -1.22,-2.09 z m -1.25,14.692 1.94,0.398 c 1.32,0.645 0.7,2.86 -0.76,2.313 l -1.36,-0.781 0,-1.766 z m -42.44,4.012 0.51,0 c 1.61,0 1.61,2.5 0,2.5 l -0.51,0 c -1.61,0 -1.61,-2.5 0,-2.5 z m -23.72,-9.7 0.66,1.321 0.71,2.078 c -0.87,0.918 -1.48,1.332 -2.74,1.562 l -1.59,-1.199 c 0.09,-1.269 0.26,-2.258 0.68,-3.457 0.36,-1.055 1.66,-1.211 2.28,-0.305 z m 8.03,-26.843 -0.31,-1.25 c -0.24,-0.918 0.59,-1.797 1.53,-1.536 l 0.93,0.352 c 1,-0.254 2.06,1.047 1.19,2.051 -0.81,0.929 -0.85,1.222 -2.14,1.301 z m -1.13,25.363 -0.16,0.074 c -0.84,0.41 -1.88,-0.086 -1.88,-1.082 l 0,-2.187 1.58,-1.204 c 2.18,0.665 2.47,1.555 2.12,3.723 -0.15,0.93 -1.01,1.024 -1.66,0.676 z m -4.23,12.742 2.81,0 0.8,0.293 0.78,0.066 c 0.99,0.188 1.13,1.438 0.56,2.09 l -2.11,1.242 -0.01,0.008 c -1.23,0.469 -1.31,0.469 -2.54,0 l -0.74,-1.375 c -1.07,-0.449 -0.93,-2.187 0.45,-2.324 z m -8.56,-28.008 c -1.48,0.028 -2.16,-0.461 -2.38,-2.617 -0.12,-1.144 1.42,-1.57 2.14,-0.891 l 1.16,0.977 0.45,-0.086 c 1.5,-0.195 1.52,1.934 0.23,2.371 l -1.19,0.391 z m -14.9,13.684 c 1.32,-0.305 1.85,-0.031 3.17,0.308 l 0.01,0.012 c 1.52,-0.32 2.15,2.012 0.61,2.391 -1.71,0.422 -2.54,0.375 -4.09,-0.43 -0.95,-0.496 -0.73,-2.051 0.3,-2.281 z m 5.64,-7.719 c -1.07,-0.644 -0.62,-2.332 0.63,-2.332 l 3.13,0 1.2,0.918 0.31,0.938 -1.2,1.582 -1.23,0.261 -1.47,-0.886 z m 6.56,19.707 1.11,-0.019 1.71,-0.145 c 1.14,0.098 1.58,1.262 0.89,2.137 -0.71,0.89 -1.02,0.773 -2.12,0.937 l -1.08,-0.379 -0.22,0.02 c -1.3,0.129 -1.62,-1.731 -0.63,-2.332 z m -5.32,6.055 0.2,1.894 -1.77,0.332 -0.78,-0.808 0.38,-1.828 z m 42.81,-24.61 1.87,-0.308 1.54,0.867 c 0.27,1.016 0.34,1.262 0,2.227 l -0.07,0.066 -0.58,0.645 -0.05,0.039 -0.17,0.117 c -2.07,0.39 -2.66,-0.137 -3.41,-2.117 z m -9.93,22.817 0.31,-0.317 c 1.14,-1.132 2.91,0.637 1.78,1.778 l -0.31,0.312 c -1.15,1.133 -2.91,-0.632 -1.78,-1.773 z m -43.18,-6.613 c -1.43,0.183 -1.64,-2.082 -0.33,-2.454 1.46,-0.418 2.56,-0.429 4.08,-0.359 1.61,0.078 1.62,2.578 0,2.5 -1.14,-0.137 -2.27,-0.051 -3.39,0.262 z m 49.02,-8.704 c -1,-0.574 -0.4,-2.39 1,-2.183 l 0.28,0.035 0.87,0.871 0.04,0.274 c 0.2,1.406 -1.63,2 -2.19,1.003 z m 1.61,-15.359 c 0.03,-1.836 0.16,-2.844 1.61,-4.016 l 1.97,0.254 0.4,1.809 0.35,1.902 c -1.01,1.035 -1.64,1.352 -3.08,1.301 z m -10.63,39.375 0,0.313 c 0,1.613 -2.5,1.613 -2.5,0 l 0,-0.313 c 0,-1.613 2.5,-1.613 2.5,0 z m 4.24,-3.488 c 1.01,0.605 0.9,2.375 -0.49,2.238 l -0.78,-0.078 -1.2,-1.582 0.16,-0.547 c 0.36,-1.269 1.97,-1.016 2.31,-0.031 z m -1.73,-34.473 -0.02,1.953 c 1.09,0.567 0.49,2.461 -0.94,2.207 l -2.27,-0.703 -0.19,0.078 -1.42,-1.132 c -0.59,-0.575 -0.99,-1.258 -0.68,-2.168 0.73,-2.196 4.21,-0.848 5.52,-0.235 z m -2.82,18.586 c 1.61,0 1.61,2.5 0,2.5 -1.61,0 -1.61,-2.5 0,-2.5 z m -2.83,-26.516 1.91,0 0.81,1.575 c 1.33,-0.215 1.86,1.875 0.44,2.39 -2.68,0.996 -3.82,-0.058 -4.08,-2.761 z m -408.69,-4.199 c -3.383,0.715 -5.622,-0.554 -6.516,-3.933 -0.426,-1.621 0.789,-3.094 2.414,-3.164 1.473,-0.071 2.484,0.234 3.758,0.964 l 1.125,1.887 c 1.375,1.192 1.484,3.762 -0.781,4.246 z m 267.28,-60.898 c 0.26,2.375 -0.45,4.914 -2.62,6.054 -7.02,3.696 -9.75,-4.812 -6.75,-10.085 3.28,-5.762 10.97,-1.153 9.37,4.031 z m -196.402,22.344 c 5.235,0.128 7.461,5.722 5.262,8.925 0.899,0.891 1.192,2.297 -0.039,3.36 -9.316,8.047 -14.269,-12.52 -5.223,-12.285 z m 177.492,13.535 c -5,0.949 -6.3,-8.164 -3.53,-11.504 2.01,-2.41 5.07,-3.082 7.67,-1.168 3.14,2.312 2.77,6.461 1.37,9.586 -1.28,2.851 -3.5,3.586 -5.51,3.086 z m -42.824,-14.715 c -0.382,-0.75 -0.625,-1.641 -0.683,-2.688 l 0.242,-0.984 -0.059,-0.156 0.645,-2.434 0.957,-0.769 c 1.914,-3.809 8.002,-5.118 10.372,-1.075 4.44,7.567 -8.505,15.176 -11.474,8.106 z M 798.18,538.734 c 3.246,1.028 4.547,3.52 4.086,5.586 l -0.231,0.664 -0.742,1.067 -0.117,0.164 -0.067,0.031 c -0.933,0.84 -2.339,1.387 -4.316,1.25 -1.953,-0.129 -2.574,-1.984 -2.145,-3.406 -0.843,-2.832 0.219,-6.391 3.532,-5.356 z m 53.34,20.098 c 1.378,0.363 2.019,1.758 1.746,3.078 -0.2,0.945 -0.473,1.594 -0.879,2.473 l -0.313,0.269 -1.211,1.563 -1.875,0.937 c -1.515,0.762 -3.097,0.09 -3.672,-1.492 -1.687,-4.668 1.481,-8.047 6.204,-6.828 z m -45.559,-43.34 c 6.66,0.274 11.953,12.442 4.859,13.645 -3.465,3.34 -8,-0.129 -9.758,-3.797 -1.699,-3.547 0.047,-10.051 4.899,-9.848 z m 48.644,29.504 c 2.004,-0.058 3.247,0.488 4.344,2.18 l 0.293,1.953 c 1.25,1.187 1.32,3.641 -0.847,4.215 -4.239,1.113 -6.379,-1.844 -6.29,-5.848 0.028,-1.387 1.114,-2.461 2.5,-2.5 z m -571.871,-130.144 1.082,0.796 0.438,0.864 0.18,0.347 c 0.804,1.368 -1.215,2.551 -2.079,1.329 l -0.293,-0.04 -1.164,-1.878 c -0.41,-1.149 0.942,-1.821 1.836,-1.418 z m -9.687,-2.211 c -1.438,0.718 -2.703,-1.442 -1.262,-2.172 l -0.262,0.133 c 0.446,-1.543 2.856,-0.891 2.415,0.668 z m 10.051,34.589 c 1.238,-1.003 3.015,0.754 1.765,1.778 l 0.008,0.031 c 0.625,1.484 -1.797,2.129 -2.41,0.664 l -0.313,-0.742 0.325,-1.223 z m 979.922,117.715 -0.92,-1.199 c 0.14,-2.687 1.1,-3.789 3.75,-4.062 l 1.25,1.25 0,1.875 -0.18,0.437 -0.43,1.27 c -1.21,0.929 -2.06,0.879 -3.47,0.429 z m -988.11,-133.847 -0.305,0.461 c 0.145,-1.594 2.645,-1.602 2.5,0 l -0.933,1.707 c -1.313,0.937 -2.559,-1.231 -1.262,-2.168 z m 638.133,70.773 -1.242,-0.215 -0.625,0.496 c -0.977,0.469 -2.235,0.489 -3.028,-0.39 -1.765,-1.973 -2.539,-3.477 -2.605,-6.141 -0.031,-1.047 0.535,-1.621 1.23,-1.992 0.516,-4.258 3.368,-8.352 7.481,-9.797 1.66,-0.586 3.008,0.91 3.164,2.414 0.418,4.18 0.02,8.828 -2.258,12.266 0.508,1.445 -0.105,3.328 -2.117,3.359 z m 12.43,-39.004 -0.008,0.567 0.078,0.937 c 0.008,2.742 -4.484,3.508 -4.914,0.664 l -0.047,-0.605 -0.109,-0.047 c -1.075,-0.453 -1.336,-1.828 -1.153,-2.824 l 0.207,-0.664 c -0.722,-1.75 -0.781,-2.989 0.731,-5.286 l 1.652,-1.023 c 1.102,-1.082 3.184,-1.203 3.914,0.398 0.977,2.102 1.34,4.004 0.879,6.301 z m -644.118,-61.668 -0.793,1.563 -1.25,0.308 -1.539,-0.871 c -0.554,-1.769 -0.554,-2.949 0,-4.719 l 1.836,-0.761 c 1.692,1.152 1.922,2.203 1.871,4.211 z m 676.266,104.821 -0.809,-0.399 c -1.171,0.195 -2.374,-0.305 -3.429,-1.875 l -0.332,-1.894 c -0.781,-1.7 -0.438,-4.485 0.508,-6.399 2.062,-4.109 10.527,-6.656 11.66,-0.359 0.676,3.777 -2.059,12.734 -7.598,10.926 z m -610.48,-21.133 0.004,-0.125 0.023,-0.098 z m 417.355,35.625 c -2.734,2.793 -9.867,3.73 -10.687,-1.621 -0.797,-5.176 2.933,-9.52 8.394,-7.84 2.918,0.898 3.856,4.519 2.785,7.148 z M 1097.4,481.605 c 0.94,-0.371 1.47,0.442 1.42,1.243 0.18,0.722 -0.13,1.562 -1.09,1.523 l -0.89,-0.137 c -1.27,-0.371 -1.1,-1.972 0,-2.414 z m 14.1,-3.433 1.06,0.879 c 0.8,1.402 -1.36,2.664 -2.16,1.265 l 0.43,0.254 c -1.56,-0.39 -0.89,-2.793 0.67,-2.398 z m -12.65,-6.391 0.49,-0.484 c 1.14,-1.137 2.91,0.633 1.78,1.773 l -0.79,0.793 -0.78,1.328 -1.08,0.215 c -1.04,0.164 -1.81,-0.879 -1.47,-1.691 l 0.22,-1.875 z m -2.9,-6.972 0.2,-0.079 1.43,0.743 c 0.74,0.851 0.16,2.453 -1.12,1.972 l -0.81,-0.351 c -1.07,-0.555 -0.61,-1.914 0.3,-2.285 z m -281.966,27.832 -1.207,-0.118 c -1.093,0.403 -2.152,0.442 -3.187,0.278 -2.649,0.613 -4.789,-0.082 -6.41,-1.887 -1.086,-0.656 -2.059,-1.582 -2.832,-2.656 l -0.7,-0.742 -0.082,-0.625 c -0.425,-0.871 -0.761,-1.778 -0.851,-2.727 -0.219,-2.324 0.762,-3.824 2.258,-4.707 1.113,-2.039 3.144,-2.812 5.515,-2.898 l 1.016,-0.235 c 3.758,-0.078 8.512,2.754 9.035,6.68 l 0.879,1.055 c 0.164,2.773 -0.348,5.222 -2.059,7.207 z m 274.826,-10.465 0.6,1.187 0.08,0.266 0.22,0.683 -0.87,1.532 -2.06,-0.391 -0.15,-1.836 -0.13,-0.222 -0.02,-0.586 c -0.05,-1.231 1.76,-1.731 2.33,-0.633 z m 364.44,127.711 c -4.74,-12.117 -21.5,-14.891 -36.36,-16.785 1.29,1.25 1.89,3.164 1.33,5.058 -0.81,2.684 -3.57,4.227 -6.15,3.445 -2.6,-0.789 -4.07,-3.582 -3.27,-6.277 0.79,-2.668 3.56,-4.191 6.17,-3.418 l 1.85,1.113 c 8.45,-0.515 23.26,1.485 30.61,6.59 2.76,1.914 4.43,3.828 5.52,5.793 0.78,3.934 0.16,6.727 0.3,4.481 z m -305.49,-160.789 0.23,0 0.01,-0.008 z m 236.03,137.988 c -3.45,-0.684 -6.82,-1.973 -10.62,-3.047 -3.8,-1.055 -7.75,-2.402 -11.84,-4.121 -3.65,-1.516 -7.58,-2.871 -11.45,-4.844 l -1.48,0.36 -0.65,0.136 c -1.1,0.188 -2.27,-1.179 -1.22,-2.09 l 0.04,-0.027 c -3.84,-1.933 -7.92,-3.808 -11.42,-6.515 -2.14,-1.473 -4.32,-2.958 -6.52,-4.473 -2.48,-1.824 -4.17,-3.68 -6.35,-5.555 -8.28,-7.234 -16.11,-15.488 -24.51,-23.613 0.81,1.113 1.31,2.293 0.95,3.105 l -0.52,1.778 -1.1,0.879 -1.76,-0.176 -0.42,0.176 -0.32,0 -0.91,-0.43 c -3.97,-0.305 -6.34,-8.457 -0.94,-8.488 0.95,-0.008 1.9,0.429 2.8,1.007 -3.72,-3.554 -7.47,-7.148 -11.29,-10.8 -4.55,-4.075 -9.66,-7.825 -14.47,-11.883 -9.09,-7.59 -20.21,-15.492 -30.1,-23.352 l -14.98,-12.031 c -6.44,-5.273 -8.31,-11.738 -11.92,-12.031 -1.37,-0.313 -2.52,-0.5 -4.34,-0.821 -1.86,-0.312 -3.81,-0.644 -5.15,-1.164 l -1.13,-0.339 -0.89,-0.325 -0.69,-0.39 -2.73,-1.66 -3.34,-2.606 -1.11,-0.937 -2.15,-0.832 -0.17,-0.067 -0.11,0 -0.99,-0.019 -2.01,-0.071 c -2.62,-0.32 -5.44,0.207 -8.19,0.567 -2.79,0.39 -5.94,1.289 -8.77,1.816 -1.03,0.449 -4.14,0.41 -6.11,-0.086 -1.62,-0.558 -3.67,-1.555 -4.19,-1.808 -0.6,-0.536 -2.08,-0.829 -3.53,-1.082 l -2.1,0.136 c -0.52,0.254 -0.83,0.352 -1.63,1.504 l -0.99,1.238 -2.2,1.477 -0.25,0.078 -0.12,0.039 c -0.42,0.086 0.77,-0.148 -0.98,0.215 l -0.53,-0.019 -1.05,-0.02 c -11.26,-0.031 -21.84,-0.93 -31.17,-0.813 -9.31,0.52 -18.05,1.672 -25.52,3.528 -7.56,1.68 -13.92,3.945 -18.98,6.219 -2.66,0.949 -4.51,2.519 -6.45,3.496 -1.95,0.949 -3.37,2.168 -4.41,3.261 -2.21,2.063 -3.38,3.157 -3.38,3.157 0,0 1.05,-1.211 3.02,-3.477 0.94,-1.199 2.19,-2.551 4.08,-3.75 1.82,-1.199 3.76,-3.086 6.34,-4.23 9.97,-5.426 25.36,-11.317 45.01,-13.34 9.89,-0.633 20.17,-0.281 30.96,-0.797 l 0.72,-0.024 0.14,-0.203 c 0.68,-1.203 2.38,-3.23 4.45,-4.121 2.26,-0.879 3.7,-1.172 6.24,-0.89 1.39,0.187 2.77,0.293 4.77,1.156 2.15,0.836 2.74,1.109 3.88,1.48 0.93,-0.144 0.76,0.364 2.58,-0.215 2.97,-0.624 5.55,-1.484 8.7,-2.019 3.19,-0.496 6.36,-1.16 9.88,-0.898 l 2.58,0.039 1.3,0.031 0.32,0.008 0.16,0.007 c 1.61,0.364 0.52,0.129 0.91,0.227 l 0.55,0.195 2.18,0.774 2.74,1.636 c 2.12,1.368 2.73,1.985 4.1,2.981 l 1.28,0.742 0.3,0.203 0.23,0.063 1.12,0.32 c 1.61,0.547 2.8,0.594 4.03,0.762 1.29,0.207 3.27,0.469 4.97,0.84 l 2.95,0.976 0.73,0.254 0.36,0.137 c 1.57,0.957 0.5,0.32 0.88,0.555 l 0.11,0.097 0.9,0.781 c 1.13,0.801 2.6,2.637 3.89,4.172 2.29,2.938 3.82,4.649 5.73,6.328 l 15.27,11.692 c 10.14,8.172 19.88,15.25 30.13,23.902 4.75,4.192 9.5,8.215 13.99,12.59 4.34,4.59 8.64,9.141 12.87,13.594 8.16,8.945 15.62,17.89 23.33,25.488 1.86,1.856 3.8,4.109 5.55,5.566 2.1,1.653 4.18,3.282 6.24,4.872 3.97,3.488 8.33,5.5 12.34,7.968 3.93,2.571 8.26,4.211 12.21,6.028 2.72,1.289 5.33,2.207 7.95,3.183 l 0.44,-0.246 1.74,0.715 0.11,0.449 1.23,0.488 c 3.65,1.219 7.12,2.704 10.25,3.465 3.33,0.657 6.36,1.262 9.12,1.809 10.99,2.207 17.27,3.476 17.27,3.476 0,0 -6.38,-0.82 -17.54,-2.257 -2.78,-0.371 -5.87,-0.77 -9.23,-1.219 z m -298.7,-116.047 -1.09,0.469 c -1.44,0.449 -2.06,-1.5 -0.97,-2.285 l 0.82,-0.496 0.32,-0.176 0.42,-0.266 c 0.9,-0.457 1.8,0.129 1.89,1.086 l 0.05,0.496 z m 25.43,11.809 1.14,0.976 c 1.38,0.227 1.35,2.422 -0.18,2.422 l -1.56,0 -1.2,-1.582 0.31,-0.937 1.2,-0.918 z M 288.551,433.539 c 3.086,-1.805 4.183,2.141 3.476,4.746 l -0.23,1.856 c -4.414,2.617 -6.758,-4.551 -3.246,-6.602 z m 573.203,56.113 c -1.008,0.762 -2.031,1.114 -3.047,1.172 -2.148,0.539 -4.082,-0.273 -5.586,-1.883 l -1.113,-1.425 c -3.192,-5.008 -3.215,-13.758 3.554,-15.871 1.254,-0.387 2.372,-0.387 3.387,-0.176 3.047,-0.86 6.028,1.75 7.5,4.765 0.715,1.465 0.86,3.379 0.606,5.286 1.261,3.488 -2.313,6.472 -5.301,8.132 z M 989,545.18 c 5.828,-2.813 5.195,5.656 2.246,9.308 l -1.496,1.66 c -3.008,1.239 -4.246,-0.636 -4.344,-3.164 -0.676,-2.5 -0.371,-5.234 1.973,-6.367 z m -99.16,-90.528 -11.074,1.067 c -13.379,1.113 -26.524,3.75 -39.555,6.804 4.195,5.129 4.031,28.118 3.062,44.504 3.086,0.332 6.258,0.684 9.313,1.024 5.48,0.578 10.969,1.308 16.281,1.64 5.34,0.227 10.809,0.196 16.121,0.688 l 0.852,0.086 c 3.242,-14.641 2.793,-50.031 7.566,-55.91 z m -98.192,21.899 c -0.921,0.281 -1.836,0.562 -2.757,0.847 1.113,0.555 2.214,1.387 2.664,2.391 1.3,2.941 0.5,8.051 0.238,13.75 -0.129,2.805 -0.246,5.723 -0.375,8.625 8.957,0.742 17.914,1.465 26.723,2.188 4.421,0.488 8.707,0.957 13.082,1.445 1.023,-9.777 1.82,-21.035 1.82,-31.426 0,-4.824 0.234,-8.445 1.191,-10.656 -14.238,3.859 -28.351,8.34 -42.586,12.836 z m -43.796,12.547 -7.278,1.355 c 0.664,1.242 0.832,4.465 0.676,8.43 13.867,0.691 27.688,1.496 41.367,2.578 0.102,-3.613 0.11,-7.5 0.012,-11.047 -0.109,-3.973 -1.375,-7.644 -0.625,-9.59 l 0.976,-1.601 c -11.593,3.617 -23.117,7.179 -35.128,9.875 z m 32.277,46.523 c -5.422,7.91 -8.336,12.91 -15.836,18.75 -1.664,1.309 -3.34,2.805 -5.039,4.317 2.969,0.496 6.394,1.074 10.281,1.718 6.289,1.16 13.633,2.508 21.496,3.953 4.766,0.989 9.735,1.946 14.754,2.961 2.805,-2.695 5.41,-5.742 7.676,-9.621 4.582,-8.328 10.418,-17.5 13.75,-26.25 0.777,-1.863 2.363,-10.965 3.691,-22.722 -4.379,-0.391 -8.668,-0.782 -13.086,-1.172 -8.761,-0.539 -17.671,-1.075 -26.582,-1.621 -0.199,3.781 -0.457,7.363 -0.859,10.293 -0.965,7.019 -8.066,16.269 -10.246,19.394 z m 59.836,39.695 0.801,0.188 c -0.356,-0.762 -0.383,-1.641 0.242,-2.609 2.051,-3.172 5.965,-0.45 6.644,1.718 l -1.199,1.848 -0.332,0.312 c 1.676,0.391 3.441,0.821 5.039,1.192 3.563,0.84 7,1.172 10.133,1.738 0.918,0.137 1.769,0.274 2.637,0.41 l 1.613,-1.574 c 2.918,-3.75 3.75,-8.75 5.418,-12.918 5.832,-17.5 7.961,-34.949 13.332,-52.922 l 0.066,-0.261 -0.507,-0.051 c -5.282,-0.41 -10.586,-0.313 -16.082,-0.457 -5.528,-0.293 -10.915,-0.891 -16.438,-1.36 -3.031,-0.269 -6.176,-0.554 -9.238,-0.828 -0.469,7.039 -1.059,12.481 -1.434,13.906 -3.773,14.231 -17.988,38.418 -21.367,43.641 l -2.164,2.481 c 7.781,1.945 15.539,3.976 22.836,5.546 z m -114.66,-82 c -7.516,1.426 -15.028,2.95 -22.617,3.379 -1.348,0.106 -2.7,0.254 -4.043,0.371 4.925,0.176 9.839,0.313 14.773,0.516 6.82,0.285 13.625,0.637 20.434,0.949 0.125,-2.48 0.332,-4.621 0.828,-5.691 l 0.828,-1.438 z m 349.615,-49.257 c -8.33,6.043 -14.4,12.644 -16.88,23.437 -3.59,15.625 6.22,23.035 15.78,25.938 15.05,4.57 29.61,4.5 44.26,2.011 -4.33,1.27 -8.64,2.567 -12.8,3.457 -7.11,1.328 -21.03,1.055 -32.47,-1.679 l 0.88,0.586 c 6.7,8.027 -8.15,18.64 -11.06,27.812 -2.55,7.078 -6.43,12.441 -10.11,18.145 l 1.68,0.527 c 9.86,3.047 17.47,5.859 22.63,7.801 l 0.8,0.324 c 6.15,-13.965 12.15,-27.727 16.66,-42.219 1.25,-4.168 2.09,-9.578 7.5,-8.328 2.09,7.91 -5.41,20.41 -7.91,27.91 -2.68,9.59 -6.8,16.407 -11.34,24.571 1.42,0.566 2.17,0.859 2.17,0.859 0,0 -0.76,-0.293 -2.18,-0.84 l -1.15,2.078 c -2.5,4.582 -1.25,8.75 -2.92,12.922 -2.5,5 -8.75,7.5 -12.08,12.078 -4.62,6.153 -8.56,11.856 -13.16,17.442 -2.8,-0.426 -5.61,-0.86 -8.4,-1.309 2.23,-3.66 6.94,-8.602 8.64,-10.301 7.08,-7.5 14.58,-12.5 18.75,-22.5 1.79,-4.14 3.61,-8.23 5.4,-12.304 l -0.8,-0.313 c -5.18,-1.914 -12.81,-4.656 -22.68,-7.629 l -1.75,-0.527 c -1.68,2.621 -3.32,5.304 -4.75,8.281 -3.75,7.91 -6.67,16.25 -10.42,24.16 -4.45,8.164 -11.87,12.063 -19.31,16.641 -2.43,-0.41 -4.86,-0.82 -7.28,-1.231 1.47,-1.16 2.93,-2.312 3.26,-2.488 10,-6.672 17.08,-10 22.91,-21.25 4.6,-8.496 8.09,-16.953 12.84,-24.941 -8.96,-2.688 -19.44,-5.469 -31.34,-8.489 l -1.61,-0.371 -1.14,2.129 c -3.33,10 -4.58,28.332 -12.92,35.832 -6.249,5.418 -10.409,6.25 -14.159,14.59 l -0.664,1.375 c -2.625,-0.379 -5.262,-0.672 -7.899,-1.023 9.598,-10.879 22.002,-19.856 26.472,-35.352 1.93,-6.164 4.04,-12.324 6.19,-18.496 -5.32,-1.23 -10.8,-2.5 -16.568,-3.84 -5.449,-1.023 -11.133,-2.176 -16.945,-3.277 -1.649,4.344 -3.094,8.777 -3.914,13.523 -1.25,8.34 -2.09,20.418 -6.672,27.918 -3.906,6.418 -10.047,11.516 -15.938,16.574 l -1.062,-0.097 c -2.746,-0.137 -5.5,-0.305 -8.273,-0.488 6.066,-4.688 13.339,-10.489 16.523,-15.567 3.75,-6.25 1.672,-18.34 5,-26.25 2.402,-5.879 4.289,-11.484 6.105,-17.109 -11.289,-1.934 -23.378,-3.867 -35.82,-5.801 -3.449,14.082 -6.437,28.672 -11.953,42.461 -2.5,6.25 -7.5,11.699 -9.16,17.949 l -0.781,2.586 c -2.618,-0.066 -5.247,-0.098 -7.864,-0.066 3.985,-11.778 7.336,-23.926 13.223,-35.051 4.609,-9.219 6.445,-19.121 8.184,-29.168 -3.993,-0.617 -7.813,-1.231 -11.903,-1.836 -7.187,-0.977 -14.57,-1.887 -22.031,-2.617 -0.168,1.074 -0.305,2.207 -0.5,3.23 -3.113,15.949 -7.5,31.25 -12.078,47.09 -1.789,6.809 -4.785,12.609 -8.496,17.863 1.816,0.293 3.515,0.555 4.922,0.664 3.711,0.45 5.828,0.704 5.828,0.704 0,0 -2.129,-0.098 -5.86,-0.274 -3.738,-0.098 -9.031,-0.684 -15.418,-1.406 -12.847,-1.074 -29.468,-5.469 -46.015,-9.258 -8.27,-2.012 -16.68,-3.633 -24.457,-5.344 -7.821,-1.718 -15.11,-3.328 -21.36,-4.695 -12.465,-2.949 -20.777,-4.922 -20.777,-4.922 0,0 0.547,0.098 1.562,0.274 3.383,-3.067 7.618,-6.965 11.52,-11.106 6.441,-6.836 11.195,-14.461 12.297,-16.668 1.254,-2.266 5.93,-10.195 7.703,-16.875 0.414,-1.562 0.664,-4.172 0.844,-7.09 -13.699,-0.781 -27.567,-1.347 -41.481,-1.816 -0.535,6.277 -1.582,12.871 -2.488,15.359 -3.75,10 -12.5,19.582 -19.164,27.5 -1.047,1.328 -2.098,2.668 -3.164,3.965 -3.688,-0.547 -7.375,-0.984 -11.027,-1.336 5.402,-4.504 10.738,-10.266 15.855,-13.879 5.566,-4.453 9.984,-13.875 12.086,-23.328 0.449,-2.012 0.555,-5.242 0.645,-8.516 -6.813,-0.214 -13.622,-0.468 -20.442,-0.656 -7.367,-0.203 -14.687,-0.261 -22.039,-0.398 0.32,3.808 -0.086,8.183 -0.391,9.773 -1.035,5.383 -5.48,14.356 -9.648,20.84 -3.082,4.785 -5.438,10.313 -7.324,14.766 -3.242,-0.008 -6.282,0.019 -8.977,0.05 1.875,-3.222 4.473,-6.046 6.094,-9.609 2.082,-3.75 3.332,-8.34 5,-12.5 1.148,-2.578 5.969,-8.73 7.082,-14.375 0.449,-2.277 0.43,-5.918 0.828,-9.082 -13.074,-0.215 -26.035,-0.391 -38.965,-0.469 0.582,3.075 0.25,7.383 0.637,8.926 0.836,4.578 -2.5,9.578 -4.164,12.91 -3.457,8.067 -7.215,16.145 -9.746,24.207 -2.801,0.293 -5.574,0.676 -8.328,1.164 1.746,-4.277 3.914,-9.297 4.355,-10.41 0.832,-1.672 2.883,-8.293 3.719,-9.961 0.832,-1.66 2.691,-4.687 3.109,-6.347 1.25,-4.59 0.422,-5.489 2.336,-11.094 0.914,-2.676 1.617,-6.633 2.672,-9.434 -6.969,-0.039 -14.023,-0.105 -20.922,-0.136 -2.258,0.019 -4.527,0.156 -6.777,0.117 l -90.609,0.703 c -30.188,0.254 -60.376,0.008 -90.563,-0.059 l -90.68,-4.101 -0.433,-0.02 -0.528,-0.09 c -1.406,-0.359 -2.254,-1.797 -1.89,-3.211 0.324,-1.25 0.687,-2.714 1.172,-3.75 l 1.457,-2.695 1.101,-2.266 0.594,-2.07 0.027,-0.226 c 0.403,-1.981 -0.371,-4.032 -1.941,-6.414 -1.469,-2.286 -3.621,-4.993 -4.949,-8.254 -1.035,-2.911 -1.914,-6.344 -2.051,-9.469 -0.356,-3.215 -0.121,-6.32 -0.07,-9.301 0.078,-2.996 0.171,-5.887 -0.317,-8.602 -0.441,-2.882 -1.133,-4.953 -2.746,-7.492 -0.84,-1.121 -1.859,-2.675 -2.551,-3.445 l -3.054,-3.34 -6.106,-6.691 c -3.976,-4.563 -8.086,-9.004 -11.777,-13.895 -1.828,-2.418 -3.918,-4.687 -5.508,-7.25 l -5.055,-7.508 c -1.758,-2.472 -3.09,-5.261 -4.621,-7.882 -1.519,-2.637 -2.531,-5.52 -3.812,-8.25 -2.297,-5.579 -4.559,-11.168 -7.117,-16.637 2.851,5.308 5.418,10.777 8.011,16.226 1.43,2.653 2.578,5.442 4.215,7.954 1.656,2.488 3.004,5.148 4.856,7.519 l 5.355,7.289 c 1.703,2.512 3.824,4.61 5.719,6.93 3.777,4.601 8.051,8.851 12.172,13.219 l 6.355,6.425 3.188,3.215 c 1.343,1.446 1.976,2.442 3,3.692 1.769,2.371 3.394,6.093 3.847,9.14 0.703,3.192 0.703,6.395 0.754,9.414 0.082,3.047 -0.023,5.985 0.348,8.778 0.219,2.882 0.941,5.371 1.961,8.097 1.035,2.293 2.719,4.344 4.59,7.063 1.781,2.476 3.679,6.297 3.004,10.379 l -0.836,3.457 -0.286,0.625 0.848,0.136 c 5.402,0.633 11.699,2.61 21.969,2.977 10.226,0.559 22.738,0.645 37.062,0.852 14.348,0.007 30.539,0.031 48.2,0.039 17.699,0.007 36.871,0.019 57.152,0.031 4.308,0.086 8.848,0.183 13.254,0.269 l 87.207,-1.394 c 15.137,-0.02 30.058,-0.742 45.086,-1.133 15.047,-0.078 29.875,-2.226 44.824,-3.223 7.52,-0.371 14.824,-1.796 22.148,-3.136 l 22.004,-3.914 c 14.461,-3.086 29.032,-7.746 43.317,-12.024 14.379,-4.512 28.965,-8.847 43.801,-12.383 14.917,-3.23 30.011,-6.015 45.265,-6.914 l 11.485,-0.8 11.316,-0.137 22.648,-0.211 c 15.157,0.359 30.301,0.523 45.418,1.316 15.098,1.153 30.196,1.317 45.253,3.289 l 22.48,2.735 22.55,1.875 -22.66,-0.633 c -7.65,-0.441 -15.06,-1.16 -22.58,-1.731 -14.965,-1.347 -30.129,-0.898 -45.16,-1.445 l -45.137,0.168 -22.625,0.781 -4.824,0.176 c 6.434,4.617 1.18,30.891 0.059,35.379 -1.985,7.258 -2.512,14.836 -3.391,21.543 7.473,0.844 14.836,1.848 21.992,2.91 4.082,0.696 7.911,1.348 11.907,2.024 1.472,-8.575 2.976,-17.227 6.152,-25.645 2.5,-6.25 3.269,-6.836 5,-13.332 2.723,-10.242 9.473,-24.519 12.656,-22.918 5.176,2.606 -2.656,25.41 -4.738,30.828 -2.918,8.332 -6.25,15.832 -8.75,25 -0.672,2.461 -1.27,4.992 -1.895,7.5 12.422,2.11 24.512,4.172 35.813,6.086 0.906,-2.832 1.816,-5.625 2.754,-8.586 2.91,-9.168 9.16,-16.25 11.66,-25 2.5,-8.75 1.738,-19.527 7.5,-26.668 3.594,-4.453 8.097,-2.031 6.668,5.84 -2.5,13.817 -14.09,40.027 -15.418,43.75 -1.574,4.121 -3.313,8.145 -4.902,12.266 5.75,1.14 11.386,2.343 16.777,3.41 5.782,1.394 11.272,2.703 16.602,3.992 4.78,-13.672 9.89,-27.402 14.44,-41.34 1.66,-4.578 2.5,-9.578 3.75,-14.168 0.41,-2.5 0.83,-11.66 2.5,-12.91 9.16,-5.84 6.25,20 5,23.75 -2.92,7.91 -7.09,15.41 -9.59,23.75 -1.25,3.75 -2.5,9.16 -4.58,12.5 -2.03,3.719 -5.11,5.879 -7.32,9.434 l 1.44,0.34 c 11.93,3.144 22.42,6.007 31.38,8.781 0.79,-1.328 1.53,-2.676 2.42,-3.977 6.25,-8.75 7.92,-17.91 11.67,-27.91 1.04,-3.809 4.26,-13.68 7.69,-14.141 -7.93,-2.058 -14.49,-5.332 -16.34,-10.164 -5.18,-13.496 1.86,-26.132 2.81,-27.675 l 1.27,-1.965 c 1.89,-2.782 5.58,-7.567 10.74,-11.082 2.82,-1.914 5.4,-3.504 7.87,-4.903 -0.66,0.918 -1.57,1.895 -3,2.95 z m -16.97,105.711 c 3.69,-2.391 7.65,0.929 6.93,4.562 l -0.08,2.363 c -0.1,0.828 -0.46,1.61 -1.5,1.953 -2.76,0.907 -5.23,0.735 -6.83,-1.886 -1.22,-1.992 -0.49,-5.711 1.48,-6.992 z m 12.14,-23.106 c -2.28,-2.93 -0.09,-6.121 1.84,-8.445 5.42,-6.496 11.37,1.308 6.54,6.004 l -0.74,2.121 c -2.24,1.797 -5.54,3.008 -7.64,0.32 z m -41.21,35.195 -0.46,1.231 -1.28,1.73 -1.6,1.004 c -4.62,0.473 -8.86,-5.086 -4.7,-8.633 3.78,-3.211 7.95,0.676 8.04,4.668 z m 26.29,13.039 -0.65,0.02 c -1.27,0.371 -2.71,0.203 -4.08,-1.074 -1.25,-1.172 -0.81,-2.656 0.2,-3.516 0.66,-2.707 3.02,-5.207 5.59,-3.312 2.4,1.781 2.05,4.64 0.52,6.457 z m -37.69,2.52 c -0.4,0.625 -0.98,1.113 -1.94,1.113 l -1.45,0 c -1.07,0 -2.18,-0.754 -2.42,-1.836 -0.78,-3.683 2.36,-7.883 6.38,-5.527 3.08,1.797 1.87,5.047 -0.57,6.25 z m -714.75,15.644 c 3.329,-0.183 4.262,2.821 4.438,5.684 l -0.395,0.742 0.082,0.196 0,0.617 -0.425,1.597 -1.825,0.344 -0.867,-0.488 c -1.242,-2.492 -1.867,-4.922 -2.008,-7.695 z m 105.993,-84.011 1.867,-1.274 0.851,0.168 0.352,-0.195 c 5,-0.656 6.023,8.113 -0.625,7.305 l -0.809,-0.672 -0.765,-0.559 -0.067,-0.109 c -0.937,-1.082 -1.5,-2.195 -1.425,-3.192 l -0.122,-0.214 z m 30.57,-0.93 c 0.769,3.074 0.269,8.984 -1.195,13.867 -2.746,-0.636 -5.457,-1.203 -8.125,-1.633 2.035,-5.535 3.996,-12.234 9.32,-12.234 z m -44.586,1.875 c 6.547,-0.527 10.785,6.543 13.367,12.285 -1.703,0.801 -3.433,1.836 -5.176,2.871 -4.96,-3.222 -13.656,-14.707 -8.191,-15.156 z m 65.199,12.258 0.305,0.133 c 0.824,-0.867 2.137,0.468 1.351,1.437 -2.468,3.028 -10.902,2.254 -8.32,-2.5 1.582,-2.922 6.754,-2.512 6.664,0.93 z m -87.078,-16.711 1.508,0.762 c 0.777,0.644 1.387,1.621 1.594,2.949 l -0.118,1.719 0.11,0.468 0.023,0.118 0.094,0.41 -0.055,0.097 0.016,0.157 c -1.699,4.922 -6.742,0.859 -7.078,-2.774 -0.301,-3.183 1.883,-4.414 3.906,-3.906 z m -40.594,12.156 c 1.477,-0.476 3.02,-0.058 3.75,1.367 l 0.2,1.211 -0.137,1.516 c -1.188,0.715 -2.32,1.016 -3.68,1.355 l -1.222,-0.703 -0.329,-1.316 -0.019,-0.402 c -0.145,-1.27 0.058,-2.579 1.437,-3.028 z m 124.637,-3.914 -0.109,-0.273 -0.282,-0.02 c -1.007,-0.129 -1.343,-1.238 -0.503,-1.855 l 2.019,-1.047 c 1.672,-1.551 4.426,-1.445 5.734,0.656 l 0.649,1.504 c 0.211,2.352 -2.09,3.582 -4.313,3.34 -1.632,0.32 -2.992,-0.547 -3.195,-2.305 z m -107.164,-4.297 c -2.977,0.321 -3.16,-7.343 0.461,-6.953 l 1.781,0.664 0.496,0.156 c 2.926,1.727 1.891,6.043 -1.121,6.934 z m -3.437,8.145 0.207,0.027 c 0.164,-1.133 1.8,-1.031 1.941,0.149 l 0.035,0.214 c 1,0.204 1.606,0.907 1.82,1.786 l -0.003,2.031 -0.165,1.515 c -2.738,1.844 -4.929,0.118 -5.371,-1.867 -0.718,-1.734 -0.441,-3.875 1.536,-3.855 z m 196.695,20.137 c 6.394,0.71 12.75,1.589 19.105,2.48 4.352,0.586 8.688,1.191 13.035,1.719 5.985,-6.27 11.758,-34.746 20.024,-35.098 7.914,-0.422 1.25,14.578 -0.836,18.75 -3.629,6.043 -9.941,10.938 -14.125,16.914 l 1.008,0.117 c 12.812,1.192 25.597,2.743 38.351,4.618 -12.89,-0.438 -25.75,-1.2 -38.574,-2.313 -6.426,-0.332 -12.84,-1.348 -19.199,-2.402 -6.383,-0.996 -12.762,-1.993 -19.098,-3.164 l 0.082,0.019 c -6.492,-0.644 -12.972,-1.543 -19.457,-2.375 6.531,0.188 13.071,0.324 19.59,0.715 z M 326.402,496.527 c 2.782,-3.699 5.399,0.735 5.45,3.762 l 0.179,1.152 c -2.988,3.965 -7.75,-2.109 -5.629,-4.914 z m 289.727,13.868 c 2.316,-0.536 5.316,-0.625 7.148,1.203 l 0.161,0.3 c 1.636,0.598 2.492,3.282 0.55,4.629 -4.164,2.903 -9.414,1.836 -9.695,-3.718 -0.055,-1.075 0.801,-2.168 1.836,-2.414 z m -3.418,27.687 0.644,-0.273 0.313,0 c 3.223,0 3.223,5 0,5 l -0.113,0 -1.45,0.625 -0.625,0 -0.246,-0.11 -0.027,0.02 c -1.633,0.304 -2.375,0.312 -3.801,-0.567 -2.383,-1.472 -0.75,-4.707 1.512,-4.461 0.383,-0.636 0.965,-1.132 1.937,-1.132 z M 562.066,511.02 c 2.122,-0.672 4.067,-0.899 6.289,-0.711 1.215,0.097 2.684,1.062 2.5,2.5 -0.23,1.777 -0.937,2.773 -2.16,3.621 -0.066,0.929 -0.437,1.836 -1.55,2.226 -4.18,1.457 -6.403,-1.316 -6.915,-5.222 -0.148,-1.114 0.879,-2.11 1.836,-2.414 z m -58.398,7.414 c 1.684,-0.051 2.266,0.164 3.758,0.964 0.996,0.528 1.179,1.379 1.082,2.231 0.652,0.867 0.844,2.027 -0.262,2.945 -1.738,1.438 -3.027,1.934 -5.242,1.27 l -1.75,-1.746 c -0.281,-1.524 -0.281,-2.305 0,-3.828 0.211,-1.106 1.367,-1.805 2.414,-1.836 z m -19.375,6.765 -4.586,2.5 c -7.5,0.84 -0.414,-14.16 2.086,-17.5 8.75,-12.5 8.75,9.172 2.5,15 z m 79.023,-4.179 c 1.782,-0.348 3.672,1.144 3.075,3.078 l -0.313,1.25 c -0.215,1.015 -1.367,1.922 -2.41,1.836 l -1.652,-0.176 -2.305,-0.559 -0.231,-0.261 c -1.199,-1.387 -0.617,-3.782 1.243,-4.122 l 1.031,-0.734 z m -29.859,-11.649 c 2.5,0.828 5,0 7.5,-0.422 1.25,9.59 -9.164,17.922 -13.328,24.59 l -5,-3.75 c 1.25,0.832 10.828,-15.84 10.828,-20.418 z m -28.141,3.711 c 0.422,-3.074 2.649,-4.082 5.539,-3.711 0.965,0.125 1.54,0.723 1.915,1.426 1.679,0.762 2.011,3.828 -0.313,4.734 -1.574,0.617 -3.031,0.684 -4.727,0.715 -1.792,0.027 -2.625,-1.613 -2.414,-3.164 z m -193.761,52.031 1.367,-0.351 0.832,0.664 0.172,0.125 c 1.465,1.242 1.894,2.726 0.683,4.152 l -0.019,0.692 -0.274,0.8 -0.961,0.735 -0.937,0 -0.863,-0.489 c -1.203,-2.402 -1.356,-3.964 0,-6.328 z m -11.496,-101.047 -1.852,0.286 -0.769,0.281 -1.415,-0.567 c -0.964,-2.039 -1.238,-3.152 -0.437,-5.339 l 0.894,-0.754 0.043,-0.184 1.836,-0.754 c 2.602,1.66 3.539,4.367 1.7,7.031 z m -3.75,-59.687 0.464,0.871 0.344,0 c 1.281,0 1.285,1.961 0.024,1.98 -0.149,1.192 -0.852,2.348 -2.332,3 l -1.364,-0.699 -0.269,0.34 -0.973,0.25 -0.387,-0.062 -0.699,-0.7 -0.265,-1.55 c -0.504,-0.981 -0.344,-2.137 0.164,-3.118 l -0.192,-1.089 0.43,-0.512 0.601,-0.942 0.938,-0.308 0.113,0.031 0.727,0.199 0.144,0.121 0.047,0.27 c 0.469,-0.313 0.856,-0.34 2.043,-0.34 1.203,0 1.238,1.668 0.203,1.91 l 0.18,0.258 z m 6.839,36.547 0.719,1.344 c 0.391,0.656 -0.121,1.75 -1.09,1.503 l -0.937,-0.234 -0.735,-0.965 0,-0.519 -0.3,0.16 c -1.008,0.301 -1.485,-0.903 -0.977,-1.567 -0.68,-0.593 -0.996,-1.503 -1.273,-3.086 -0.254,-1.445 0.23,-3.457 2.043,-3.457 3.07,0 3.75,2.766 2.937,5.11 0.668,0.437 0.531,1.582 -0.387,1.711 z m -0.71,43.023 c 4.902,0.02 4.296,4.973 1.824,7.578 l -1.172,1.313 c -4.336,-0.774 -5.684,-8.91 -0.652,-8.891 z m 22.48,-10.457 -0.965,-0.734 c -0.941,-5.211 3.875,-8.055 5.988,-2.403 l -0.461,1.125 -1.222,0.606 c -1.008,1.047 -1.84,1.277 -3.34,1.406 z m -23.313,66.836 0.415,-0.41 1.574,0.195 c 1.062,1.438 1.386,2.801 1.351,4.356 l 0.16,1.699 c -1.218,0.887 -0.929,0.754 -2.425,1.047 l -0.039,-0.024 -1.555,0.383 c -2.125,-2.265 -2.195,-4.836 0,-7.031 z m -3.917,-20.664 0.687,0.691 c 1.492,0.571 0.844,2.981 -0.664,2.403 -1.703,-0.645 -1.789,-0.723 -2.438,-2.43 -0.57,-1.516 1.844,-2.156 2.415,-0.664 z m -1.34,45.293 c -0.153,-1.613 0.293,-3.352 0.382,-4.961 0.071,-1.281 2.075,-1.289 2,0 -0.085,1.555 -0.476,3.211 -0.375,4.766 l 0.024,0.183 -0.067,0.274 c -0.304,1.152 -1.867,0.812 -1.964,-0.262 z m 0.996,13.594 c 0.511,0.984 0.511,0.984 0.722,2.121 l -0.132,0.613 0.132,0.637 c 0.418,1.219 -1.507,1.734 -1.921,0.523 -0.391,-1.133 -0.563,-2.195 -0.665,-3.386 -0.085,-0.997 1.415,-1.36 1.864,-0.508 z m -3.383,-81.946 c 1.531,-0.515 2.187,1.899 0.664,2.403 l -0.387,0.312 c -1.019,1.242 -2.777,-0.535 -1.765,-1.773 z m -3.418,-20.984 0.625,0 c 1.609,0 1.609,2.5 0,2.5 l -0.625,0 c -1.613,0 -1.613,-2.5 0,-2.5 z m 24.609,-39.973 0.395,-0.097 0.668,-0.899 c 1.312,-0.195 2.129,-0.007 3.265,0.735 l 0.09,0.125 0.242,0.363 0.11,0.223 -0.102,0.519 -0.078,0.195 -0.054,0.137 -0.313,0.313 -0.258,0.105 0.067,0.129 c 0.511,-0.676 1.851,-0.195 1.695,0.887 l -0.039,0.273 -0.227,0.227 0.254,1.523 -0.137,1.387 -2.007,0.352 -0.52,-0.079 -0.785,0.489 -0.313,0 -0.804,-1.457 c -2.059,-1.551 -3.188,-4.344 -1.149,-5.45 z m 296.278,94.219 0.351,-0.152 2.051,-0.051 c 1.094,-0.078 2.184,-0.187 3.273,-0.293 2.723,-0.266 2.973,3.145 1.083,4.426 -0.333,0.738 -0.907,1.336 -2.02,1.199 l -2.5,-0.312 -0.606,-0.301 -1.281,-0.043 -0.351,-0.156 c -1.641,-0.719 -1.641,-3.594 0,-4.317 z m -292.399,23.653 0.024,-0.282 0.3,-0.605 0.2,-0.403 0.125,-0.242 1.328,-0.324 1.672,0.129 0.675,-0.293 0.313,0 c 1.027,0 1.199,1.23 0.578,1.738 0.516,1.102 0.5,2.586 -0.34,4.141 l -0.117,0.086 -0.039,0.109 c -1.188,0.977 -2.719,2.168 -4.141,0.75 -1.078,-1.082 -1.882,-3.484 -0.629,-4.765 z m 5.715,-23.348 c 1.184,-0.684 2.836,0.066 3.442,1.199 0.832,1.543 0.761,2.91 0.089,4.152 l -0.355,1.27 -0.867,0.273 -0.18,0.196 -1.469,-0.137 c -2.59,-0.781 -3.332,-5.383 -0.66,-6.953 z m -17.934,53.183 -0.32,-0.324 -0.039,-0.273 c -0.137,-0.957 0.942,-1.492 1.539,-1.129 l 1.035,-0.727 1.227,0.703 c 0.391,1.075 0.492,1.915 0.211,2.676 l -0.598,1.367 -1.105,0.227 -0.2,0.039 c -1.542,0.02 -2.054,-1.262 -1.75,-2.559 z m 3.106,-162.011 -1.895,0.312 -0.703,0.098 -1.207,-1.582 0,-0.02 c -0.5,-1.015 -0.172,-2.351 0.535,-3.324 l 0.09,-0.406 1.617,-0.672 c 0.985,-0.078 2.079,0.59 2.985,2.859 l -0.66,1.375 z m 3.312,94.824 -0.476,0.652 -0.961,0.735 -1.25,0 -0.965,-0.735 c -0.473,-2.187 -0.402,-4.265 -0.348,-6.511 0.028,-1.114 1.688,-1.387 1.961,-0.262 l 0.082,0.406 0.289,0.09 c 1.54,1.258 1.821,2.402 1.157,3.797 z m -2.246,-42.461 -0.734,0.926 -0.859,0.351 -1.215,-0.308 -0.395,-0.356 -0.054,-0.125 -0.934,-1.074 c -0.992,-8.027 7.937,-3.898 4.191,0.586 z m 654.539,107.273 1.25,0.54 c 0.899,0.585 0.731,2.246 -0.605,2.226 l -2.023,-0.461 c -0.653,-0.664 -0.352,-1.844 0.558,-2.09 z m 341.567,16.954 0.63,-0.274 c 1.45,-0.625 2.68,1.438 1.31,2.129 l -0.99,0.52 -0.31,-0.039 c -1.06,-0.137 -1.91,-1.766 -0.64,-2.336 z m 33.42,-18.27 -0.29,-0.148 -0.49,-1.395 -0.13,-0.312 0.68,-1.829 c 0.57,-0.652 1.96,-0.359 2.09,0.559 l 0,0.02 0.67,0 c 1.58,0.164 1.6,2.675 0,2.5 l -0.82,0 z m -23.67,23.477 -0.06,-0.5 c -1.36,-0.848 -0.11,-3.008 1.27,-2.168 0.79,0.492 0.99,1.093 1.19,2.004 0.37,1.574 -2.04,2.238 -2.4,0.664 z m -8.22,-0.118 0.37,0.262 0.57,1.418 -0.16,0.781 c -0.19,0.938 -1.46,1.18 -2.09,0.555 l -0.16,-0.156 -0.13,-0.36 -0.37,-1.472 0.13,-0.278 z m 0.99,-25.988 c 1.05,0.735 1.62,1.406 2.45,2.387 0.57,0.699 0.42,1.836 -0.56,2.086 l -2.22,-0.117 -0.54,-0.946 -0.88,-0.558 -0.13,-1.766 z m 14.37,37.024 0.94,0 1.2,0.918 0.31,1.25 -0.04,0.363 -0.27,1.168 -1.81,0.937 -1.58,-1.199 0,-2.187 z m -7.48,-23.801 -1.71,0 -0.92,-1.199 0.52,-1.739 c -0.01,-1.406 2.12,-1.98 2.35,-0.468 l 0.04,0.164 0.28,1.125 -0.06,0.222 c 0.55,0.664 0.56,1.75 -0.5,1.895 z m -2.21,-36.512 1.13,0.75 c 1.18,-0.058 2.01,1.563 0.76,2.207 -1.27,0.645 -2.35,0.957 -3.76,1.106 l -1.2,-1.582 c 0.79,-1.954 0.88,-2.247 3.07,-2.481 z m 2.21,11.512 c -2.14,0.43 -3.26,0.234 -4.23,-1.817 l 0.75,-1.836 c 1.72,-0.293 2.81,-0.015 3.07,1.301 1.36,0.02 1.89,2.059 0.41,2.352 z m 7.25,10.734 1.15,-0.32 c 1.56,-0.414 2.22,2 0.66,2.398 l -1.6,0.461 -0.27,0.078 -0.32,0.086 -0.07,-0.019 -0.42,-0.078 -1.09,-1.102 -0.06,-0.558 c -0.09,-0.997 1.32,-1.622 2.02,-0.946 z m 13.65,8.738 0.38,0 0.92,-0.222 1.36,1.512 0.17,1.164 c 0.08,1.355 -1.6,1.492 -2.22,0.566 l -1.53,-1.191 0,-0.625 z m -12.22,13.059 0.51,1.262 c 0.77,1.414 -1.39,2.672 -2.17,1.265 l -0.03,-0.066 -0.57,-0.48 -0.14,-0.379 0.05,-0.774 -0.05,-0.164 c -0.39,-1.562 2,-2.226 2.4,-0.664 z m 14.69,12.293 1.72,0.449 0.32,1.504 -0.35,1.391 -1.36,0.465 -0.58,0.117 c -1.05,0.187 -1.97,-0.809 -1.41,-1.832 0.64,-1.156 0.73,-1.371 1.66,-2.094 z m -4.31,-41.91 c 1.41,0.445 1.55,0.855 2.32,2.129 0.82,1.394 -1.34,2.644 -2.17,1.265 l -0.15,-0.175 -0.03,0 c -0.94,-0.426 -1.21,-0.684 -1.5,-1.688 -0.27,-0.891 0.62,-1.836 1.53,-1.531 z m 4.47,24.762 1.44,1.23 0.47,0.512 -0.86,1.754 -0.22,0.273 c -5.81,3.164 -3.99,-4.93 -0.83,-3.769 z m -14.13,2.082 -0.13,-1.946 c -0.76,-1.015 -0.98,-2.285 -0.49,-4.031 l 1.53,-0.867 0.89,0.34 0.3,0.117 0.84,0.644 c 0.74,-0.507 2.14,0.149 1.97,1.368 l -0.52,2.343 -0.04,0.176 -0.07,0.293 -0.09,0.067 -0.32,0.656 -0.82,0.75 -0.02,0.09 -1.2,0.918 -0.63,0 z m 2.62,-28.879 c -1.17,0 -1.82,-1.797 -0.63,-2.325 l 0.45,-0.214 0.42,-0.008 0.51,-0.11 c 1.56,-0.418 2.22,1.993 0.67,2.403 z m 3.22,14.746 -0.04,0.031 0.09,0.645 c 0.15,1.464 -1.86,1.511 -2.33,0.3 l -0.17,0.012 -1.2,-1.582 0.26,-1.23 c 0.06,-1.114 1.31,-1.621 2.14,-0.887 l 0.39,0.555 z m -1.5,22.219 c 0.98,-0.567 2.44,0.418 1.7,1.589 l -0.75,0.813 -0.55,0.594 -0.1,0.05 -0.65,0.02 -1.24,0.027 -0.87,-0.867 0,-0.383 c -0.52,-0.672 -0.47,-1.894 0.55,-2.09 1.05,-0.203 1.5,-0.105 1.91,0.247 z m -11.93,-31.497 c 1.05,1.211 -0.72,2.989 -1.78,1.778 l -0.03,-0.028 -0.91,-1.503 0.08,-0.313 2.09,-0.559 z m -20.6,35.625 0.07,-0.066 c 0.51,-1.523 2.92,-0.867 2.4,0.664 -0.39,1.18 -0.62,1.414 -1.81,1.805 -1.53,0.519 -2.18,-1.895 -0.66,-2.403 z m 2.58,-26.843 1.05,1.23 0.36,0.586 0.04,0.274 -0.02,0.085 -1.53,1.379 -0.04,-0.011 c -0.59,0.527 -1.72,0.527 -2.06,-0.477 -0.31,-0.937 -0.32,-1.183 -0.36,-2.207 -0.04,-0.937 0.79,-1.281 1.51,-1.113 z m 4.71,-17.735 -0.76,1.668 -1.42,0.137 -0.7,0.176 -1.58,-1.199 0,-1.563 1.58,-1.199 c 1.09,0.32 1.42,0.367 2.26,0.894 z m -3.51,-9.992 0.92,0.703 0.31,0.168 0.29,0.293 -0.19,1.809 -0.26,0.625 -1.08,0.613 -0.31,0 -1.2,-0.918 -0.32,-1.875 c -0.14,-0.976 0.81,-2.09 1.84,-1.418 z m 1.5,39.57 0.53,0.332 c 1.39,-0.195 1.93,1.934 0.48,2.383 l -1.25,0.313 -1.53,-0.867 -0.32,-0.938 c -0.43,-1.262 1.21,-1.992 2.09,-1.223 z m -12.76,-0.984 c 1.09,0.098 1.66,0 2.41,0.75 l 0.2,1.524 -0.59,0.863 -0.94,0.504 -0.3,0.234 -1.84,-0.75 -0.19,-1.875 z m 2.55,20.984 c 1.02,-0.878 2.33,0.215 2.03,1.223 0.1,0.77 -0.46,1.688 -1.48,1.492 l -0.48,-0.086 -0.75,-1.836 z m 5.88,-12.382 1.83,0.754 0.12,0.449 -0.35,0.859 c 0.38,0.652 0.3,1.563 -0.64,1.785 -1.69,0.41 -2.22,0.364 -3.4,-0.937 l 0.25,-1.973 z m -4.06,-11.414 c 0.13,1.613 -2.37,1.601 -2.5,0 l -0.26,-0.918 0.87,-1.536 1.57,-0.507 c 1.43,-0.743 2.7,1.418 1.27,2.168 l -1.01,0.468 z m -7.59,-13.457 0.46,-0.555 1.22,-0.246 c 1.22,-0.324 2.17,1.445 0.92,2.215 l -1.38,0.675 c -1.28,0.293 -2.01,-1.132 -1.22,-2.089 z m 16.85,13.621 -0.65,-1.739 1.38,-1.386 c 0.82,-0.528 1.89,0.175 1.89,1.086 l 0,1.562 -1.58,1.199 -0.59,-0.191 z m 2.93,24.523 0.74,0.02 1.08,0.625 0.01,0.019 0.67,-0.039 c 1.61,0 1.61,2.5 0,2.5 l -0.93,0.012 -0.09,0 c -1.03,0 -1.09,-0.063 -2.11,-0.805 -0.93,-0.683 -0.72,-2.371 0.63,-2.332 z m -22.23,-31.281 c 0.61,-3.961 3.93,-2.801 4.89,0.129 l 0.11,1.726 c -2.44,1.965 -5.63,2.11 -5,-1.855 z m 25.67,10.656 1.25,0 1.12,1.008 c 1.37,0.172 1.34,2.359 -0.18,2.43 -1.49,0.058 -2.15,-0.149 -3.08,-1.301 -0.64,-0.821 -0.29,-2.137 0.89,-2.137 z m -9.42,-18.176 c -1.14,1.27 -1.7,1.653 -3.39,1.614 l -1.2,-1.582 0.26,-1.543 1.58,-1.204 1.49,0.704 c 1.02,-0.352 2.16,0.976 1.26,2.011 z m -3.37,-28.965 c 1.08,0.196 1.2,1.79 0.3,2.286 l -0.01,0.011 -0.05,0.106 -2.04,1.301 -0.09,0.144 c -2.07,1.582 -3.15,0.93 -4.53,-1.07 l 0.45,-1.723 c 2.07,-1.101 3.64,-1.484 5.97,-1.055 z m 15.89,61.567 c 1.47,-0.617 2.79,-0.57 3.61,0.094 0.93,0.187 1.42,1.289 0.71,1.933 l 0.03,0.754 c -0.23,1.289 -1.81,1.043 -2.25,0.067 -0.72,0.058 -1.44,-0.079 -2.4,-0.567 -1.07,-0.555 -0.59,-1.914 0.3,-2.281 z m -21.08,-39.707 1.08,-0.293 c 1.56,-0.442 2.22,1.969 0.67,2.398 l -0.22,0.063 -0.74,0.301 -0.46,-0.008 c -1.4,-0.043 -1.72,-2.082 -0.33,-2.461 z m -4.53,-9.36 c 2.38,-0.925 4.73,0.45 4.09,2.043 0.78,0.528 0.87,1.954 -0.31,2.235 -2.08,0.5 -4.37,0.722 -5.57,-1.406 -0.79,-1.407 0.68,-2.442 1.79,-2.872 z m 70.06,46.672 1.63,-0.097 0.82,-0.059 1.08,1.887 c -0.61,0.957 -0.91,1.004 -2,1.187 l -0.63,-0.136 -0.07,0.011 c -0.6,0.52 -1.29,0.821 -2.44,0.801 -1.09,-0.019 -1.67,-1.348 -0.89,-2.141 z m 49.09,3.094 c -1.2,-0.469 -0.59,-2.469 0.88,-2.266 l 1.54,-0.046 c 1.6,-0.176 1.58,2.324 0,2.5 l -0.05,0 0,0.019 c -0.48,1.317 -2.3,0.93 -2.37,-0.207 z m 8.41,0.859 1.73,0.079 c 1.24,-0.536 2.28,1.347 1.04,2.207 l -1.55,0.742 -1.22,-0.313 -0.41,-0.457 0,-1.769 z m -6.3,11.204 c 1.61,0 1.61,2.5 0,2.5 -1.61,0 -1.61,-2.5 0,-2.5 z m 8.43,0.476 c 1.41,-0.769 2.68,1.391 1.27,2.168 l -0.06,0.188 c -0.43,1.55 -2.84,0.886 -2.4,-0.664 z m -9.06,-4.539 0,0.625 c 0,1.609 -2.5,1.609 -2.5,0 l 0,-0.625 c 0,-1.613 2.5,-1.613 2.5,0 z m -13.38,1.926 c 1.14,-1.137 2.91,0.633 1.77,1.773 l -0.11,-0.269 c 0.71,1.441 -1.45,2.703 -2.17,1.265 l -0.31,-0.625 0.19,-1.519 z m 5.26,-15.363 c 0.15,-1.594 2.65,-1.602 2.5,0 l -0.93,1.707 c -1.32,0.937 -2.57,-1.231 -1.27,-2.168 z m 18.43,2.695 -0.6,0.039 -0.35,0.027 -0.66,-0.23 -0.92,-1.203 0.04,-0.703 1.18,-1.086 1.78,0.136 0.35,0.469 0,0.988 -0.8,1.551 z m -24.45,-1.133 c -1.61,0 -1.61,-2.5 0,-2.5 l 0.39,0 c 1.62,0 1.62,2.5 0,2.5 z m 4.14,8.438 0.32,0 c 1.61,0 1.61,2.5 0,2.5 l -0.32,0 c -1.61,0 -1.61,-2.5 0,-2.5 z m 34.23,-0.95 1.71,-0.925 c 1.6,-0.149 1.59,2.351 0,2.5 l 0.46,-0.301 c -0.94,1.297 -3.1,0.047 -2.17,-1.274 z m -164.85,-12.175 c 1.8,-0.118 3.35,0.293 3.41,1.921 l 0.01,0 c 1.52,-0.535 2.18,1.887 0.66,2.403 -2.71,0.949 -4.49,-0.02 -5.28,-2.742 z m 162.51,16.945 2.17,0 0.15,0.23 c 0.61,0.918 -0.21,1.731 -1.08,1.77 l -0.16,0.039 -0.15,-0.039 c -0.87,-0.039 -1.69,-0.852 -1.09,-1.77 z m -85.49,-13.734 1.71,-0.665 1.58,1.204 0,0.312 -0.61,1.082 -1.58,0.559 -0.37,-0.098 -0.06,0.02 c -1.57,0.476 -2.16,-1.868 -0.67,-2.414 z m 79.65,2.511 c 1.02,-0.148 2.02,1.114 1.09,2.039 l -0.45,0.442 -2.09,-0.559 0.05,-1.191 z m -6.31,9.922 -0.03,-0.129 0.03,-1.719 0.16,-0.175 1.62,-0.028 c 1.34,-0.273 2.36,1.563 0.99,2.176 l -0.79,0.41 c -0.61,0.45 -1.65,0.422 -1.98,-0.535 z m 12.19,-10.281 0.01,0 0.3,-0.317 c 1.14,-1.132 2.91,0.637 1.78,1.778 l -0.31,0.305 0,0.007 -0.28,0.266 c -1.14,1.141 -2.91,-0.625 -1.77,-1.77 z m -5.31,15 c 1.14,-1.137 2.91,0.633 1.77,1.773 l -0.31,0.313 c -1.14,1.133 -2.91,-0.633 -1.78,-1.778 z m 1.05,-6.938 1.71,-0.925 c 1.6,-0.149 1.59,2.351 0,2.5 l 0.46,-0.301 c -0.94,1.297 -3.11,0.047 -2.17,-1.274 z m 15.77,0.325 0.63,0 c 1.61,0 1.61,2.5 0,2.5 l -0.63,0 c -1.61,0 -1.61,-2.5 0,-2.5 z m -75.01,-3.274 1.63,0.473 c 0.81,0.664 0.63,2.234 -0.68,2.176 l -0.86,-0.039 c -1.16,-0.051 -1.81,-1.739 -0.63,-2.336 z m -6.24,4.524 0.64,-0.051 1.23,-0.41 c 1.31,-0.946 2.55,1.222 1.27,2.168 l -0.84,0.441 -0.3,0.156 -1.76,0.188 -0.24,0.008 0,-0.032 -0.33,-0.019 c -1.46,-0.371 -0.99,-2.293 0.33,-2.449 z m 32.55,-6.204 c 1.26,-0.972 3.05,0.782 1.78,1.778 l -1.11,0.832 -1.08,1.074 -0.26,0.02 -1.17,-1.258 c -0.41,-0.688 -0.42,-1.692 0.52,-1.821 z m -32.19,-13.503 c 0.18,-0.977 1.46,-1.145 2.09,-0.555 0.88,0.828 1.26,1.344 1.76,2.437 l -0.01,0.469 c 1.05,0.363 0.94,2.199 -0.45,2.356 -3.22,0.363 -3.89,-1.926 -3.39,-4.707 z m -2.55,-9.668 -1.1,-1.086 -0.1,-0.145 c -0.22,-1.359 -0.32,-1.965 0.43,-3.152 0.67,-1.028 2.34,-0.649 2.34,0.633 l 0,2.5 -1.25,1.25 z m -11.85,30.988 1.25,0.308 c 1.35,0.344 0.99,2.082 -0.14,2.317 l -0.05,0.144 c -0.84,1.125 -2.5,0.286 -2.25,-0.828 -0.64,-0.898 -0.11,-2.273 1.19,-1.941 z m 0.92,-30.363 1.25,-1.25 2.2,0.363 0.31,0.398 c 0.93,0.321 1.43,1.68 0.31,2.196 -0.91,0.41 -1.21,0.546 -2.18,0.742 l -1.41,-0.567 z m -64.52,24.992 c 0.43,-0.942 0.68,-1.211 1.68,-1.504 0.86,-0.258 1.88,0.625 1.54,1.531 -0.35,0.957 -0.51,1.289 -1.06,2.18 -0.84,1.316 -2.86,0.164 -2.17,-1.176 z m 73.22,-11.262 -0.37,1.141 0.06,0.461 -0.09,0.324 -1.52,0.672 c -0.1,0.722 -0.87,1.406 -1.79,1.004 -5.76,-2.539 1.58,-10.079 3.71,-3.602 z m 5.04,-10.754 1.83,0.754 0.21,1.113 -0.46,1.551 c -0.96,0.481 -1.28,0.637 -2.28,0.715 l -1.07,-0.617 -0.19,-0.321 0,-1.269 c 0.62,-0.957 0.98,-1.172 1.96,-1.926 z m 22.56,16.418 -0.12,-0.469 c -0.39,-1.562 2.01,-2.226 2.4,-0.664 l 0.12,0.469 c 0.39,1.563 -2.01,2.227 -2.4,0.664 z m -4.69,-10.937 1.2,-1.582 c 1.5,-0.059 2.33,0.195 2.86,1.035 1.17,-0.313 2.09,1.414 0.9,2.234 l -0.96,0.461 -0.53,0.254 c -1.58,0.469 -2.68,-0.391 -3.47,-2.402 z m 12.34,2.382 0.39,1.778 -0.02,0.527 c -0.17,1.262 -1.68,1.063 -2.19,0.156 l -0.44,-0.285 -0.13,-1.765 c 0.17,-1.368 1.83,-1.641 2.39,-0.411 z m -7.21,23.973 1.36,-0.391 c 1.57,-0.32 2.25,2.082 0.67,2.403 l -0.85,0.254 -0.09,0.058 -0.42,0.09 c -1.61,0.313 -2.16,-1.828 -0.67,-2.414 z m -17.2,-31.387 0.22,-0.222 -0.03,-0.032 1.06,-1.621 c 0.4,-0.925 1.34,-0.742 1.84,-0.125 l 0.76,0.743 0,0.437 0.93,0.883 c 0.61,0.769 0.38,1.734 -0.55,2.086 l -0.89,0.344 -1.22,-0.325 -0.53,-0.496 c -1.02,0.418 -2.37,-0.625 -1.59,-1.672 z m 4.78,14.121 1.62,1.055 0.53,0.656 c 0.69,0.442 1.01,1.551 0.1,2.137 -2.89,1.836 -4.48,0.188 -4.39,-2.957 0.04,-1.172 1.3,-1.543 2.14,-0.891 z m 0.36,14.641 c 0,-1.066 1.38,-1.691 2.14,-0.891 l 1.01,0.625 c 1.56,0.403 0.9,2.817 -0.67,2.403 l -0.19,-0.067 -0.08,0.067 c -1.17,0.195 -2.71,0.129 -2.52,-1.512 l 0.32,-0.586 z m 1.57,-18.125 -0.94,-0.469 -0.12,0.02 -1.21,-0.918 c -0.41,-1.848 0.4,-3.164 2.27,-3.32 l 1.2,0.918 0.31,1.25 0,0.019 0.05,0 c 1.61,0 1.61,2.5 0,2.5 z m 5.91,11.609 1.59,-0.359 1.08,0.613 0.23,0.723 -0.12,1.328 -1.08,0.735 -0.43,0.039 -0.3,-0.11 -0.3,0.059 -1.58,-1.199 0,-0.625 z m 58.44,-5.625 -0.12,-0.054 c 0.8,-1.399 2.96,-0.141 2.16,1.265 l -1.37,1.192 c -1.57,0.39 -2.23,-2.012 -0.67,-2.403 z m -232.53,-18.535 -0.62,0.625 c -1.14,1.133 -2.91,-0.633 -1.78,-1.773 l 0.63,-0.625 c 1.14,-1.137 2.91,0.633 1.77,1.773 z m 3.75,-30.281 -0.12,0.606 c 0.73,0.593 0.48,2.128 -0.77,2.226 -8.26,0.645 -0.97,-10.598 0.89,-2.832 z m -0.95,-45.723 0.93,1.875 -0.19,1.524 -1.3,0.742 -0.2,0.195 -1.89,0.36 -1.25,-1.25 c 0.03,-2.086 0.38,-2.84 2.18,-3.895 z m 13.98,-19.265 1.08,-0.617 0.32,0 0.27,0.117 0.5,0.207 0.21,0.301 0.22,0.293 0.31,1.25 c 0.39,1.562 -2.01,2.226 -2.4,0.664 l -0.02,-0.071 -0.68,-1.773 z m -10.98,55.679 -2.5,0.422 -1.58,-1.203 c 0.26,-2.871 0.25,-3.035 3,-4.121 0.97,-0.39 1.69,0.703 1.53,1.535 l -0.28,1.145 c 0.9,0.484 1.08,1.98 -0.17,2.222 z m -5.64,-57.5 c 0,0 -0.52,4.934 -2.17,12.129 -0.9,3.567 -1.82,7.805 -3.36,12.149 -1.3,4.445 -3.37,8.906 -5.24,13.449 -2.34,4.316 -4.41,8.789 -7.15,12.469 -2.41,3.886 -5.41,7.012 -7.82,9.719 -2.29,2.871 -4.92,4.218 -6.43,5.644 -1.65,1.238 -2.59,1.941 -2.59,1.941 0,0 0.72,-0.964 1.98,-2.644 1.21,-1.691 3.36,-3.887 5.18,-6.906 0.97,-1.446 2.02,-3.016 3.14,-4.688 1.13,-1.609 2,-3.66 3.15,-5.508 2.32,-3.738 4.25,-8.093 6.41,-12.285 1.89,-4.363 3.95,-8.64 5.58,-12.832 1.75,-4.129 3.4,-8.008 4.68,-11.402 2.69,-6.731 4.64,-11.235 4.64,-11.235 z m 11.73,47.336 c 0.85,-1.359 1.57,-1.765 2.95,-2.531 0.81,-0.437 1.9,0.11 1.88,1.086 l -0.16,1.504 -0.58,0.547 -0.04,0.086 -0.16,0.109 -0.16,0.117 c -0.85,0.664 -1.39,1.055 -2.65,0.965 -0.91,-0.058 -1.61,-1.023 -1.08,-1.883 z m 4.22,12.547 -1.98,0.957 -1.58,-1.199 0,-2.09 1.25,-1.25 c 1.12,0.02 2.18,-0.039 2.76,1.035 l -0.01,1.106 z m -33.77,18.391 -0.07,-0.137 -0.66,-0.996 0,-1.25 c 0,-1.105 1.15,-1.398 1.89,-0.988 0.72,-0.957 2.52,-0.371 2.13,1.008 l -0.27,1.855 -0.52,0.945 -1.02,0.879 c -0.96,0.227 -1.5,-0.574 -1.48,-1.316 z m 8.71,-30.977 0.45,0.977 c 0.77,0.137 1.47,0.879 0.99,1.797 l -1.41,1.738 -0.03,0.078 -1.33,0.195 -0.81,0.157 -1.25,-1.25 c -0.05,-2.012 0.19,-2.774 1.86,-3.887 z m 29.42,-12.246 c 0.16,1.942 -0.4,2.41 -1.61,3.809 l -1.82,-0.266 -0.83,0.156 c -1.08,0.208 -1.93,-0.808 -1.41,-1.835 1.11,-2.168 1.81,-2.403 4.09,-3.067 z m -48.36,34.043 c 1.11,0.528 1.04,2.403 -0.4,2.285 -2.21,-0.175 -2.88,-0.488 -3.12,-2.812 l 1.25,-1.25 c 1.52,0.039 1.89,0.625 2.27,1.777 z m 13.68,14.61 0.51,0 c 1.61,0 1.61,2.5 0,2.5 l -0.51,0 c -1.61,0 -1.61,-2.5 0,-2.5 z m 0.44,21.472 c 1.17,0.617 0.56,2.61 -0.89,2.227 l -0.89,-0.235 -0.87,-1.531 0.27,-0.703 c 0.51,-1.32 2.36,-0.906 2.38,0.242 z m -6.36,-48.164 -0.28,-0.176 -0.35,-0.507 0,-1.27 0.35,-0.738 2.17,0 0.74,1.863 -1.2,1.582 z m 6.74,7.629 -1.89,-0.363 -0.92,-1.199 0.73,-1.672 2.09,0.547 0.06,0.226 c 1.52,0.164 1.52,2.539 -0.07,2.461 z m -4.99,25.145 -0.86,0.304 c -1.14,0.242 -2.2,-1.191 -1.21,-2.09 l 0.55,-0.5 c 0.99,-0.867 2.26,0.149 2.07,1.133 z m -2.55,-16.375 -0.18,-0.051 -0.09,0.031 0.27,0.02 c -0.41,1.562 -2.75,0.898 -2.41,-0.664 l 0.64,-1.387 0.04,-0.039 0.26,-0.379 1.82,0.269 c 0.77,0.598 0.67,1.86 -0.3,2.071 z m 21,-36.282 -0.17,0.469 -1.22,1.817 -1.25,0 c -1.3,-0.907 -1.3,-4.051 -0.07,-5.055 l 1.21,-0.324 1.36,1.777 0.19,0.605 0.04,0.118 -0.02,0.117 0.02,0.234 z m 54.69,45.274 c -0.93,0.273 -1.24,0.324 -2.21,0.363 l -1.08,-0.613 c -0.71,-1.438 -0.94,-2.485 -0.79,-4.074 l 1.58,-1.204 c 2.09,0.305 2.65,0.813 3.37,2.747 l -0.21,1.003 z m 5.17,-43.184 c 0.07,1.66 -0.1,2.531 -1.2,3.809 -0.8,0.93 -1.99,0.129 -2.07,-0.836 -0.95,-1.223 0.11,-2.563 1.13,-3.86 0.73,-0.917 2.1,-0.078 2.14,0.887 z m -15.45,24.504 c -0.29,-1.379 1.45,-1.965 2.11,-1.066 1.06,0.414 1.38,2.062 0.04,2.246 l -0.54,0.082 -1.54,-0.871 z m 7.47,-8.406 0.78,0.191 0.78,0.793 c 0.92,0.313 1.39,1.668 0.3,2.235 -1.14,0.586 -1.62,0.898 -2.84,0.429 l -0.75,-1.836 0.14,-0.613 z m 5.68,-6.848 -0.52,1.25 -0.38,0.293 -0.75,0.176 -0.91,0.664 -1.88,-1.074 0,-1.25 0.91,-1.211 1.63,-0.137 c 1,-0.781 2.22,0.274 1.9,1.289 z m 6.47,71.649 1.23,-0.516 1.24,0.477 c 0.8,0.461 0.91,1.933 -0.25,2.324 l -0.7,0.234 -1.16,-0.301 c -0.96,-0.285 -1.47,-1.671 -0.36,-2.218 z m 2.17,-13.914 -0.27,0.144 -1.43,-0.144 -0.46,0 c -1.23,0 -1.71,-1.719 -0.63,-2.336 l 1,-0.743 1.97,0.254 0.15,0.325 0.01,0 c 1.62,0 1.62,2.5 0,2.5 z m -0.85,-32.395 c 2.42,-0.027 3.5,1.508 3.27,2.93 l 0.57,1.386 -0.45,1.348 c -4.88,2.297 -6.72,-5.633 -3.39,-5.664 z m 1.28,14.375 0,-1.777 0.59,-0.465 c 1.09,-0.871 2.47,0.348 1.99,1.355 0.48,1.004 -0.9,2.227 -1.99,1.356 z m -48.56,-17.519 c 0.59,-0.973 1.13,-1.864 1.85,-2.754 l 2.09,0.558 0.01,0.059 0.52,2 -1.88,1.554 -0.01,0 -1.17,0.418 c -1.03,0.215 -2.01,-0.839 -1.41,-1.835 z m 21.76,-0.438 1.08,-1.184 1.43,-0.214 1.81,1.144 0.03,-0.012 c 1.37,-0.562 1.93,1.36 0.92,2.161 -0.43,2.304 -5.07,3.476 -5.27,-1.895 z m -19.85,10.242 c -0.93,0 -1.58,-1.062 -1.08,-1.883 0.78,-1.25 1.37,-2.343 2.83,-2.754 l 1.22,0.321 0.39,2.187 c 0.65,0.696 0.37,2.129 -0.86,2.129 z m 3.61,17.649 c -1.15,1.14 -2.91,-0.625 -1.77,-1.77 l 0.4,-0.406 0.01,0 0.3,-0.317 c 1.14,-1.132 2.91,0.637 1.78,1.778 l -0.31,0.305 0,0.007 z m 12.43,-62.063 1.83,0.754 0.04,0.195 1.11,0.743 0.19,0.281 0.08,0.969 -0.07,1.531 c -3.75,3.711 -8.17,-1.688 -3.18,-4.473 z m -2.38,17.617 -1.16,1.379 -2.5,0 -1.25,-1.25 0.05,-1.75 c -0.17,-0.984 0.56,-1.699 1.53,-1.531 1.33,0.215 2.51,0.273 3.47,1.25 l 0,1.766 z m -0.76,48.149 0.28,-0.637 1.2,-0.918 1.75,0.274 c 1.03,0.214 1.24,1.816 0.29,2.285 l -0.16,0.086 -1.02,0.05 -0.5,0.274 c -0.86,0.5 -2.28,-0.352 -1.84,-1.414 z m 2.95,-98.235 c 1.36,-2.312 3.37,-1.132 4.16,0.692 l 0.45,1.625 -0.17,0.262 -0.02,0.371 -0.97,0.8 c -0.91,0.606 -1.94,0.399 -2.73,-0.273 -0.83,0.223 -1.71,-0.559 -1.52,-1.504 l 0.71,-1.719 z m 1.32,105.379 -0.49,-0.058 -0.27,0.168 -1.26,0 -0.78,-0.539 c -0.9,-0.633 -0.73,-2.489 0.63,-2.332 l 1.26,0.156 0.29,-0.305 1.72,0.793 c 0.85,0.625 0.25,2.313 -1.1,2.117 z m -1.76,-17.226 -0.55,-0.836 c -0.48,-0.746 0.14,-1.996 1.08,-1.887 l 1.54,0.051 c 0.97,-0.141 1.52,0.691 1.49,1.422 l -0.52,1.172 -1.62,0.656 z m -63.24,-105.797 1.46,-0.258 1.09,0.617 0.12,0.203 -0.31,1.477 -0.01,0.105 -0.35,0.664 -1.08,0.625 -0.59,-0.046 -1.25,-1.25 0,-0.938 z m 63.17,41.324 c -0.69,3.039 -1.35,6.66 -2.56,10.383 -1.02,3.797 -2.67,7.629 -4.19,11.523 -1.9,3.7 -3.57,7.547 -5.85,10.723 -1.98,3.34 -4.48,6.055 -6.52,8.379 -1.9,2.488 -4.13,3.633 -5.4,4.863 -1.4,1.043 -2.19,1.649 -2.19,1.649 0,0 0.56,-0.848 1.56,-2.34 0.96,-1.477 2.68,-3.461 4.13,-6.067 1.61,-2.492 3.31,-5.437 4.98,-8.828 1.84,-3.222 3.38,-6.953 5.12,-10.539 3.12,-7.39 6.23,-14.859 8.44,-20.605 2.26,-5.703 3.98,-9.5 3.98,-9.5 0,0 -0.28,4.207 -1.5,10.359 z m -1.06,-7.098 c 0.78,1.446 -0.29,2.54 -1.45,3.36 l -0.01,0.008 -0.02,0.011 -0.91,0.614 -1.28,-0.125 c -2.39,-0.34 -3.98,-3.332 -0.66,-4.563 1.14,-0.43 3.62,-0.594 4.33,0.695 z m -7.42,-12.765 c -3.63,-1.004 -2.89,-3.543 -0.31,-5.41 l 1.84,0.754 c 0.45,1.179 0.18,1.914 -0.47,2.578 0.87,0.75 0.29,2.461 -1.06,2.078 z m -9.9,0.254 c 0,0 -0.49,4.699 -2.08,11.535 -0.88,3.387 -1.77,7.41 -3.26,11.543 -1.27,4.219 -3.29,8.437 -5.11,12.742 -2.27,4.082 -4.3,8.301 -6.97,11.77 -2.33,3.671 -5.26,6.574 -7.58,9.113 -2.24,2.672 -4.76,3.902 -6.22,5.242 -1.59,1.133 -2.5,1.785 -2.5,1.785 0,0 0.7,-0.906 1.91,-2.508 1.15,-1.593 3.2,-3.671 4.98,-6.515 0.94,-1.367 1.94,-2.852 3.02,-4.414 1.1,-1.512 1.92,-3.465 3.04,-5.196 2.23,-3.523 4.12,-7.636 6.2,-11.589 1.86,-4.114 3.86,-8.157 5.45,-12.11 1.7,-3.906 3.32,-7.57 4.56,-10.781 2.63,-6.367 4.56,-10.617 4.56,-10.617 z m -26.63,13.183 c -2.25,0.625 -1.76,0.586 -4.08,0.461 l -1.08,-1.886 c 1.05,-1.446 1.82,-2.461 3.37,-3.36 0.85,-0.484 1.84,0.149 1.88,1.086 l -0.25,1.367 c 1.14,0.188 1.52,1.961 0.16,2.332 z m -3.92,-34.355 c -0.83,-0.664 -0.24,-2.332 1.11,-2.11 l 1.34,0.649 -0.25,1.961 -0.47,0.301 z m -31.73,12.383 c 1.26,-0.75 2.31,0.937 1.47,1.886 l -1.48,1.024 -0.65,0.09 c -1.16,0.41 -2.34,0.656 -3.71,0.586 -1.15,-0.059 -1.82,-1.758 -0.63,-2.336 1.45,-0.692 2.75,-0.926 4.17,-0.848 z m 34.39,8.73 c -4.2,2.688 -6.99,-2.176 -4.02,-5.43 1.89,-2.058 4.51,0.051 4.47,2.422 l -0.14,1.203 z m 53.45,6.367 -1.58,-1.199 c 0.29,-3.262 2.17,-4.062 4.35,-1.75 l 0.06,0.051 0.23,0.183 0.03,0.176 0.17,1.028 -0.01,0.214 -0.75,0.672 z m -33.48,-3.133 c -0.05,0.958 -1.25,1.778 -2.09,0.879 -1.26,-1.347 -1.43,-2.343 -1.2,-4.218 l 1.25,-1.25 c 1.12,-0.137 2.22,-0.274 3.33,-0.411 l 1.25,1.25 0,2.5 -1.25,1.25 z m -58.39,-14.296 -1.08,-0.618 -0.34,-0.64 0.75,-1.836 0.9,-0.16 1.42,0.566 0.14,0.43 0.28,1.894 z m 124.93,66.836 0.02,0.105 0.6,2.051 c -0.9,1.086 -1.37,1.347 -2.76,1.301 l -1.25,-1.25 -0.26,-1.543 1.2,-1.582 1.25,0 z m -2.19,-6.805 0.52,1.805 -0.46,1.414 -1.55,0.742 -1.54,-0.867 -0.31,-1.25 0.57,-1.418 1.25,-0.625 z m -21.83,-28.176 -1.45,-0.07 -1.08,-0.625 -0.42,-0.86 0.44,-1.718 1.25,-0.625 c 0.89,-0.438 1.82,0.109 1.89,1.086 l 0,0.617 c 0.87,0.625 0.7,2.254 -0.63,2.195 z m 21.86,19.324 c -2.38,-0.371 -2.87,-1.297 -2.79,-3.699 l 1.25,-1.25 0.31,0 0.44,0.156 c 0.83,-0.129 1.75,0.43 1.39,1.426 l -0.15,0.438 0.23,0.539 c 1.56,0.273 0.88,2.644 -0.68,2.39 z m 3.29,60.039 0.79,-0.3 c 1.52,0 2.09,1.004 2.06,2.371 l 0.06,0.363 0.02,0.098 -0.05,0.078 -1.79,0.984 -0.68,-0.39 -2.07,-1.368 c -1.01,-1.179 0.6,-2.82 1.66,-1.836 z m -12.43,-74.531 c -3.32,1.524 -5.79,-0.398 -3.98,-3.945 2.08,-4.07 4.72,-1.953 4.28,1.926 l -0.11,0.203 z m -9.43,-1.914 c -0.67,2.832 -1.29,6.203 -2.46,9.649 -0.97,3.535 -2.57,7.07 -4.02,10.683 -1.83,3.418 -3.46,6.973 -5.63,9.875 -1.92,3.074 -4.33,5.527 -6.26,7.656 -1.84,2.266 -3.96,3.25 -5.16,4.356 -1.3,0.965 -2.09,1.472 -2.09,1.472 0,0 0.51,-0.82 1.48,-2.175 0.9,-1.36 2.53,-3.196 3.89,-5.598 1.53,-2.305 3.14,-5 4.73,-8.125 1.75,-2.957 3.23,-6.394 4.9,-9.687 2.98,-6.817 6,-13.692 8.15,-18.985 2.18,-5.262 3.86,-8.769 3.86,-8.769 0,0 -0.24,3.925 -1.39,9.648 z m 18.97,64.844 c 0.95,-0.399 1.91,0.363 1.78,1.211 0.21,0.793 -0.59,1.711 -1.57,1.496 -0.59,0.312 -1.2,0.5 -2.15,0.469 -1.01,-0.032 -1.49,-1.028 -1.09,-1.883 0.85,-1.809 1.75,-1.809 3.03,-1.293 z m 0.92,-18.367 0.57,0.918 0.01,-0.149 c 1.13,0.481 0.65,1.828 -0.28,2.18 l -0.34,0.613 c -2.67,1.582 -6.52,-2.07 -3.93,-4.305 1.95,-1.679 3.64,-0.968 3.97,0.743 z m -13.7,-14.454 c -1.7,2.911 -3.86,5.301 -5.63,7.333 -1.66,2.167 -3.58,3.164 -4.7,4.218 -1.19,0.938 -1.91,1.426 -1.91,1.426 0,0 0.43,-0.789 1.28,-2.098 0.81,-1.308 2.21,-3.117 3.4,-5.402 1.34,-2.187 2.7,-4.805 4.09,-7.762 1.51,-2.812 2.79,-6.062 4.24,-9.187 2.64,-6.496 5.27,-12.992 7.24,-17.863 1.98,-4.93 3.54,-8.215 3.54,-8.215 0,0 -0.12,3.672 -1.05,9.043 -0.55,2.648 -1.04,5.812 -2.05,9.062 -0.81,3.313 -2.2,6.66 -3.47,10.059 -1.61,3.246 -3.01,6.601 -4.98,9.386 z m -92.29,-83.066 0,0.313 c 0,1.613 -2.5,1.613 -2.5,0 l 0,-0.313 c 0,-1.613 2.5,-1.613 2.5,0 z m 3.9,26.121 1.99,1.113 c 0.97,0.879 -0.01,2.122 -1.05,2.032 l -0.76,0.683 -1.87,0.313 -0.68,-0.196 c -2.21,0.071 -3.95,-1.25 -2.07,-3.71 1.58,-2.04 3.33,-1.622 4.44,-0.235 z m -4.26,48.235 0.24,1.621 0.01,0.183 0.06,0.383 c 0.18,1.238 -1.25,1.875 -1.98,1.328 l -0.15,0.086 c -0.83,0.363 -1.9,-0.058 -1.88,-1.082 0.04,-1.711 0.34,-2.004 1.61,-3.074 0.64,-0.52 1.94,-0.473 2.09,0.555 z m 23.85,-63.055 c 1.24,-1.008 3.02,0.75 1.78,1.773 -0.09,0.762 -0.88,1.543 -1.84,1.133 l -0.55,-0.234 -0.25,-1.973 z m -16.6,52.066 c -3.6,1.965 -4.63,-0.945 -3.05,-3.906 0.46,-0.879 1.4,-2.09 2.55,-1.766 1.63,0.45 1.02,2.625 0.71,3.829 z m 7.17,-13.367 0,2.188 c 0,1.492 -1.97,1.589 -2.45,0.332 l -0.17,-0.539 -0.62,-1.004 c 0.06,-0.989 0.31,-1.211 1.11,-1.868 0.81,-0.664 2.13,-0.281 2.13,0.891 z m -1.25,-36.25 c -0.11,0.93 -1.35,1.844 -2.13,0.887 l -0.38,-0.399 c -0.49,0.293 -0.84,0.34 -1.86,0.45 l -1.2,-1.582 c 0.65,-4.485 6.18,-4.122 5.57,0.644 z m -16.77,26.199 2.5,-1.25 1.83,0.754 c 0.69,2.473 0.47,3.77 -1.56,5.391 l -1.78,0 -1.03,-1.504 0.02,-1.121 -0.43,-0.551 z m 9.27,-41.199 0,0.313 c 0,1.613 -2.5,1.613 -2.5,0 l 0,-0.313 c 0,-1.613 2.5,-1.613 2.5,0 z m 102.4,134.774 0.41,-0.235 c 1.3,-0.957 2.55,1.211 1.27,2.168 l -1.51,0.774 -1.54,-0.879 -0.04,-0.332 c -0.14,-0.957 0.68,-1.504 1.41,-1.496 z m -97.71,-140.399 -1.58,1.199 -1.24,-0.429 -0.6,0.117 -1.58,-1.199 c 0.16,-5.247 5.7,-4.856 5,0.312 z m 2.86,6.609 1.92,0.325 c 0.88,0.769 0.3,2.5 -1.05,2.078 l -0.51,-0.156 -0.55,-2.09 z m -24.92,5.997 c 1.04,0.168 1.66,1.621 0.51,2.226 l -1.38,0.422 -1.2,-1.582 0.12,-0.566 c 0.21,-1.055 1.32,-1.047 1.95,-0.5 z m 1.75,-12.293 0.14,0.007 c 1.03,-1.062 2.66,0.61 1.69,1.817 l -0.01,0.012 c 0.12,1.035 -1.14,1.464 -1.94,0.839 l -1.13,-1.113 0,-0.312 z m -0.48,110.617 -0.45,1.715 -0.77,0.312 -1.13,0.43 c -2.38,-0.379 -2.57,-1.461 -2.12,-3.719 l 1.53,-0.867 c 1.71,0.406 2.13,0.516 2.94,2.129 z m 5.59,-90.571 c 2.56,0 3.63,1.739 3.23,3.235 l -0.21,1.863 c -1.07,0.606 -2.03,0.559 -2.79,0.156 l -0.03,0.012 -1.2,-0.918 -0.09,-0.43 c -0.98,-1.64 -0.88,-3.918 1.09,-3.918 z m -1.35,74.786 c -1.04,0.754 -1.85,1.046 -2.65,0.929 l -1.6,-0.82 -0.4,-0.305 c -0.79,-0.75 -0.18,-2.156 0.89,-2.136 l 0.89,0.019 0.92,0.692 0.68,-0.547 c 1.31,-0.946 2.55,1.222 1.27,2.168 z M 808.754,401.949 c -0.613,0.442 -1.383,0.789 -2.344,0.992 -7.972,1.707 -14.84,4.918 -22.734,5.559 l -0.258,0.07 c -0.348,0.059 -8.789,1.532 -12.59,1.141 -4.14,-0.422 -7.867,-1.699 -12.062,-2.609 -4.813,-1.063 -9.825,-1.711 -14.707,-0.723 -6.719,1.383 -9.957,-5.52 -5.747,-8.469 0.024,-0.07 6.665,-9.781 8.485,-11.601 1.074,-3.637 3.637,-6.887 8.254,-8.868 14.453,-6.203 24.746,5.868 37.687,11.899 0.508,0.238 6.09,1.808 7.992,2.41 1.286,0.41 5.547,0.719 6.375,0.941 5.551,1.5 6.352,7.34 1.649,9.258 z m -247.742,33.184 c -9.407,0.711 -18.828,0.781 -27.7,0.625 -1.16,-0.02 -2.765,0.019 -4.371,0.008 -2.398,-0.008 -4.796,-0.223 -5.683,-1.59 -1.356,-2.09 1.176,-4.16 2.558,-6.035 1.512,-2.051 2,-3.848 2.704,-4.825 2.234,-4.765 2.82,-11.617 6.707,-15.527 7.054,-7.109 19.164,3.199 25.527,6.582 3.488,1.859 7.308,3.719 10.512,5.567 2.976,1.374 5.726,2.703 8.191,3.828 6.516,2.957 11.711,2.168 10.508,6.015 -1.074,3.426 -19.883,5.215 -28.953,5.352"
           inkscape:connector-curvature="0" /><path
           id="path35262"
           style="fill:#000000;fill-opacity:1;fill-rule:nonzero;stroke:none"
           d="m 1416.32,597.602 c 0.48,-1.622 -0.38,-3.301 -1.93,-3.75 -1.57,-0.477 -3.22,0.449 -3.7,2.062 -0.46,1.602 0.39,3.281 1.96,3.762 1.55,0.445 3.19,-0.473 3.67,-2.074"
           inkscape:connector-curvature="0" /></g></g></g></svg>