<svg width="2000" height="493" viewBox="0 0 2000 493" fill="none" xmlns="http://www.w3.org/2000/svg">
<g clip-path="url(#clip0)">
<path d="M1594.3 131.8C1547.8 173.1 1531.6 137.7 1515.2 106.1C1502.5 81.8 1502.2 123 1503.2 125.4C1529.1 187.3 1552.3 178.8 1556.9 208.5C1559.5 225 1550.5 240.8 1547.1 247.4C1483.4 374.3 1514 477.1 1514 477.1C1514 477.1 1552 418.9 1641.8 377.5C1688.6 355.9 1719 377.5 1827.5 340.3C1850.2 332.5 1849.4 360.7 1902.7 362.7C1928.4 363.7 1945.7 343.9 1967.5 337.3C1979.3 333.7 1991.2 337.3 1991.2 337.3C1961.7 321.2 1940.9 357.5 1906.4 359.3C1870.4 361.2 1836.7 340 1841.3 323C1861 249.8 1846.5 209.4 1858.9 166.5C1886.1 72 1944 22.5 1944 22.5C1944 22.5 1853.2 21.4 1730.3 71.2C1705.1 81.4 1684.4 79.2 1663 73.6C1639.4 67.4 1643.5 74.6 1631.8 57.5C1622.7 44.2 1600.5 37.5 1587.2 31.8C1572.1 25.3 1572.8 33.8 1572.8 39.8C1572.8 43.1 1586.2 41.1 1599.6 61.6C1621.9 95.9 1624.2 97.7 1610.2 115.1" fill="white"/>
<path d="M1615.1 163.601C1615.1 163.601 1614.5 164.101 1613.2 165.001C1612.1 165.901 1610.3 167.201 1608.4 168.701C1604.4 171.701 1599 175.501 1594 179.501C1591.4 181.601 1589.1 183.601 1586.9 185.701C1585.9 186.701 1584.8 187.801 1583.9 188.801C1583.5 189.301 1583.1 189.801 1582.7 190.301C1582.3 190.801 1582 191.301 1581.7 191.701C1581.4 192.201 1581.1 192.601 1580.8 193.101C1580.6 193.601 1580.3 194.001 1580.1 194.401C1579.9 194.801 1579.8 195.201 1579.6 195.601C1579.4 196.001 1579.4 196.401 1579.3 196.701C1579.1 197.401 1579 197.901 1579 198.301C1578.9 198.701 1578.9 198.901 1578.9 198.901C1578.9 198.901 1578.8 198.701 1578.7 198.301C1578.6 197.901 1578.4 197.401 1578.3 196.601C1578.3 196.201 1578.2 195.801 1578.2 195.401C1578.2 194.901 1578.2 194.401 1578.3 193.901C1578.4 193.401 1578.5 192.801 1578.6 192.201C1578.7 191.601 1578.9 191.001 1579.1 190.301C1579.3 189.701 1579.6 189.101 1579.9 188.301C1580.2 187.701 1580.5 187.001 1580.9 186.301C1581.7 185.001 1582.5 183.601 1583.7 182.401C1584.2 181.801 1584.7 181.201 1585.3 180.501C1585.8 179.901 1586.4 179.301 1587 178.601C1588.2 177.401 1589.6 176.301 1590.9 175.201C1592.2 174.201 1593.7 173.101 1595 172.201C1596.4 171.301 1597.8 170.301 1599.2 169.601C1602 168.101 1604.7 166.701 1607 165.801C1609.4 164.901 1611.4 164.201 1612.9 163.701C1613.6 163.501 1614.2 163.401 1614.5 163.301C1614.9 163.601 1615.1 163.601 1615.1 163.601Z" fill="#504F4E"/>
<path d="M1618.6 177.201C1618.6 177.201 1618 177.801 1616.7 178.901C1615.6 180.001 1613.9 181.501 1611.9 183.201C1607.9 186.801 1602.5 191.301 1597.4 196.101C1596.2 197.201 1594.8 198.501 1593.7 199.701C1592.5 200.901 1591.3 202.101 1590.2 203.301C1589.1 204.401 1588.1 205.701 1587.2 206.801C1586.3 207.901 1585.5 209.101 1584.8 210.101C1584.5 210.601 1584.2 211.101 1583.9 211.601C1583.6 212.101 1583.4 212.601 1583.2 213.001C1582.8 213.901 1582.5 214.901 1582.3 215.601C1582.1 216.301 1582 216.901 1582 217.301C1581.9 217.701 1581.9 217.901 1581.9 217.901C1581.9 217.901 1581.8 217.701 1581.7 217.301C1581.6 216.901 1581.4 216.301 1581.3 215.401C1581.2 214.601 1581.2 213.501 1581.3 212.401C1581.4 211.801 1581.5 211.201 1581.6 210.501C1581.8 209.901 1581.9 209.201 1582.1 208.501C1582.3 207.901 1582.6 207.201 1582.9 206.401C1583.2 205.701 1583.5 205.001 1583.9 204.201C1584.7 202.801 1585.5 201.301 1586.6 200.001C1587.1 199.301 1587.6 198.601 1588.2 197.901C1588.7 197.201 1589.3 196.601 1589.9 195.801C1591.1 194.501 1592.5 193.101 1593.8 191.901C1595.1 190.701 1596.6 189.401 1597.9 188.401C1599.3 187.301 1600.7 186.201 1602.1 185.301C1604.9 183.301 1607.7 181.701 1610 180.501C1612.4 179.301 1614.5 178.301 1616 177.701C1616.7 177.401 1617.3 177.201 1617.7 177.101C1618.4 177.201 1618.6 177.201 1618.6 177.201Z" fill="#504F4E"/>
<path d="M1624 188.801C1624 188.801 1623.4 189.601 1622.3 191.001C1621.2 192.301 1619.5 194.201 1617.6 196.501C1613.7 200.901 1608.2 206.701 1603.1 212.601C1601.8 214.001 1600.5 215.601 1599.3 217.001C1598.1 218.401 1596.8 219.901 1595.8 221.301C1595.2 222.001 1594.7 222.701 1594.2 223.501C1593.7 224.201 1593.2 224.801 1592.8 225.601C1591.9 226.901 1591.1 228.301 1590.3 229.501C1589.6 230.701 1589 231.901 1588.6 233.001C1588.3 233.501 1588.2 234.001 1588 234.501C1587.9 234.701 1587.8 235.001 1587.8 235.201C1587.7 235.401 1587.7 235.601 1587.6 235.801C1587.5 236.201 1587.4 236.601 1587.3 236.901C1587.3 237.201 1587.2 237.501 1587.2 237.701C1587.1 238.201 1587.1 238.401 1587.1 238.401C1587.1 238.401 1587 238.201 1586.9 237.701C1586.8 237.501 1586.8 237.201 1586.7 236.901C1586.6 236.601 1586.6 236.201 1586.6 235.701C1586.6 235.501 1586.6 235.201 1586.5 235.001C1586.5 234.801 1586.5 234.501 1586.5 234.201C1586.5 233.701 1586.5 233.101 1586.6 232.501C1586.8 231.301 1587.1 229.801 1587.5 228.301C1588 226.901 1588.6 225.201 1589.4 223.701C1589.8 222.901 1590.2 222.101 1590.6 221.301C1591 220.501 1591.5 219.701 1592 218.801C1593 217.201 1594.2 215.501 1595.4 214.001C1596.6 212.401 1597.9 210.801 1599.2 209.401C1600.5 207.901 1601.9 206.401 1603.3 205.001C1604.7 203.601 1606.1 202.201 1607.5 201.001C1610.3 198.501 1613.1 196.301 1615.5 194.501C1618 192.801 1620 191.401 1621.6 190.501C1622.3 190.001 1622.9 189.701 1623.3 189.501C1623.8 189.001 1624 188.801 1624 188.801Z" fill="#504F4E"/>
<path d="M1638.3 201.5C1638.3 201.5 1637.6 202.3 1636.2 203.9C1634.9 205.3 1632.9 207.4 1630.6 209.9C1628.2 212.3 1625.6 215.1 1622.6 218.1C1621.2 219.5 1619.6 221.1 1618.1 222.7C1616.6 224.2 1615 225.9 1613.5 227.4C1612 228.9 1610.4 230.6 1609 232.2C1608.3 233 1607.6 233.8 1606.8 234.6C1606.1 235.4 1605.4 236.1 1604.7 237C1603.4 238.5 1602 240.1 1600.9 241.5C1599.8 242.9 1598.6 244.4 1597.8 245.8C1597.4 246.5 1596.9 247.1 1596.6 247.8C1596.2 248.4 1595.9 249 1595.6 249.7C1595.3 250.4 1595.1 250.8 1594.9 251.3C1594.7 251.8 1594.5 252.3 1594.4 252.7C1594.3 253.1 1594.2 253.6 1594.1 253.9C1594 254.3 1594 254.6 1594 254.8C1593.9 255.3 1593.9 255.6 1593.9 255.6C1593.9 255.6 1593.8 255.3 1593.7 254.8C1593.6 254.5 1593.6 254.2 1593.5 253.8C1593.5 253.4 1593.5 253 1593.4 252.5C1593.4 252 1593.5 251.5 1593.5 250.8C1593.5 250.2 1593.7 249.6 1593.8 248.8C1593.9 248.1 1594.1 247.4 1594.4 246.6C1594.6 245.8 1594.9 245.1 1595.3 244.2C1595.9 242.6 1596.8 240.9 1597.9 239.2C1599 237.5 1600.1 235.7 1601.3 234C1602.5 232.3 1604 230.5 1605.4 228.8C1606.8 227.1 1608.4 225.4 1609.9 223.8C1611.4 222.2 1613.1 220.5 1614.7 219.1C1616.3 217.6 1618 216.1 1619.6 214.8C1622.9 212 1626 209.7 1628.8 207.7C1631.6 205.7 1633.9 204.2 1635.7 203.2C1637.3 202 1638.3 201.5 1638.3 201.5Z" fill="#504F4E"/>
<path d="M1651.1 208.9C1651.1 208.9 1650.5 209.7 1649.2 211.2C1648 212.6 1646.3 214.7 1644.2 217.1C1642.1 219.5 1639.7 222.2 1637 225.1C1634.3 228 1631.5 231.2 1628.9 234.3C1627.6 235.8 1626.2 237.5 1624.9 239C1624.3 239.8 1623.6 240.5 1622.9 241.4C1622.3 242.2 1621.7 242.9 1621 243.7C1619.8 245.2 1618.6 246.7 1617.7 248.1C1617.2 248.8 1616.7 249.5 1616.3 250.3C1615.8 251 1615.4 251.6 1615.1 252.4C1614.7 253 1614.4 253.7 1614.1 254.4C1613.8 255.1 1613.5 255.6 1613.3 256.1C1613.2 256.4 1613 256.6 1612.9 256.9C1612.8 257.2 1612.7 257.4 1612.6 257.7C1612.4 258.2 1612.2 258.7 1612.2 259.1C1612.1 259.5 1612 259.9 1611.9 260.2C1611.9 260.5 1611.8 260.8 1611.8 261.1C1611.7 261.6 1611.7 261.8 1611.7 261.8C1611.7 261.8 1611.6 261.5 1611.5 261.1C1611.4 260.9 1611.4 260.6 1611.3 260.2C1611.3 259.8 1611.2 259.4 1611.2 259C1611.1 258.5 1611.2 258 1611.2 257.4C1611.2 256.8 1611.3 256.2 1611.4 255.5C1611.5 254.8 1611.6 254.2 1611.8 253.4C1612 252.7 1612.2 251.9 1612.5 251.1C1612.8 250.3 1613.1 249.6 1613.4 248.7C1613.7 247.8 1614.1 247.1 1614.5 246.2C1615.3 244.6 1616.4 242.8 1617.5 241.1C1618.6 239.4 1619.8 237.7 1621.1 236C1622.4 234.4 1623.8 232.7 1625.2 231.1C1626.6 229.5 1628.1 227.9 1629.5 226.5C1630.2 225.8 1630.9 225.1 1631.8 224.3C1632.5 223.6 1633.2 222.9 1634.1 222.2C1637.1 219.5 1640 217.2 1642.5 215.2C1645.1 213.2 1647.2 211.8 1648.9 210.8C1650.2 209.5 1651.1 208.9 1651.1 208.9Z" fill="#504F4E"/>
<path d="M1645.2 139.5C1645.2 139.5 1645.3 138.7 1645.7 137.2C1646.1 135.8 1646.7 133.7 1647.7 131.3C1648.6 128.9 1649.9 126.3 1651.5 123.5C1651.9 122.8 1652.3 122.1 1652.7 121.4C1653.1 120.7 1653.5 120 1654 119.2C1654.9 117.8 1656 116.4 1657 115C1658 113.7 1659.2 112.3 1660.4 111.1C1661 110.5 1661.5 109.9 1662.1 109.2C1662.7 108.6 1663.3 108.1 1664 107.6C1665.2 106.6 1666.6 105.6 1667.9 104.8C1668.5 104.4 1669.2 104.1 1669.9 103.8C1670.6 103.5 1671.2 103.2 1671.9 103C1672.5 102.8 1673.1 102.6 1673.8 102.5C1674.4 102.4 1675 102.3 1675.5 102.2C1676.6 102.1 1677.6 102.1 1678.4 102.3C1679.1 102.4 1679.7 102.6 1680.1 102.7C1680.5 102.8 1680.7 102.9 1680.7 102.9C1680.7 102.9 1680.5 102.9 1680.1 103C1679.7 103.1 1679.2 103.1 1678.5 103.3C1677.8 103.4 1677 103.8 1676.1 104.1C1675.7 104.3 1675.2 104.5 1674.8 104.8C1674.4 105.1 1673.9 105.4 1673.4 105.7C1672.5 106.4 1671.4 107.1 1670.4 108.1C1669.4 109 1668.3 110 1667.3 111.1C1666.3 112.1 1665.2 113.4 1664.2 114.6C1663.2 115.8 1662.1 117.1 1661.2 118.4C1659.2 121 1657.3 123.6 1655.4 126.1C1653.5 128.6 1651.9 130.9 1650.4 133C1648.9 135.1 1647.6 136.7 1646.7 137.8C1645.8 138.9 1645.2 139.5 1645.2 139.5Z" fill="#504F4E"/>
<path d="M1658.3 143.5C1658.3 143.5 1658.6 142.6 1659.1 141.1C1659.7 139.7 1660.6 137.5 1661.9 135.1C1663.2 132.7 1664.8 130 1666.6 127.2C1667.1 126.5 1667.5 125.8 1668 125C1668.5 124.3 1669 123.6 1669.5 122.8C1670.6 121.4 1671.8 120 1673 118.6C1674.2 117.3 1675.5 115.9 1676.8 114.7C1678.1 113.5 1679.5 112.3 1680.9 111.2C1681.6 110.7 1682.2 110.2 1683 109.8C1683.7 109.3 1684.4 108.9 1685.2 108.5C1686.6 107.7 1688 107.1 1689.3 106.5C1689.9 106.3 1690.6 106.1 1691.3 105.9C1691.9 105.7 1692.5 105.7 1693.2 105.6C1694.3 105.5 1695.4 105.5 1696.2 105.6C1697 105.6 1697.6 105.9 1698.1 106C1698.5 106.1 1698.7 106.2 1698.7 106.2C1698.7 106.2 1698.5 106.2 1698.1 106.3C1697.7 106.3 1697.1 106.4 1696.4 106.6C1695.7 106.7 1694.8 107.1 1693.8 107.5C1692.9 107.9 1691.8 108.5 1690.8 109.1C1689.8 109.8 1688.6 110.6 1687.5 111.6C1687 112.1 1686.4 112.5 1685.8 113C1685.2 113.5 1684.7 114 1684.1 114.6C1683 115.7 1681.7 116.9 1680.6 118.1C1679.5 119.3 1678.2 120.6 1677.1 121.9C1674.7 124.5 1672.5 127.1 1670.3 129.6C1668.1 132.1 1666.1 134.4 1664.3 136.5C1662.6 138.6 1661 140.2 1660 141.3C1659 142.9 1658.3 143.5 1658.3 143.5Z" fill="#504F4E"/>
<path d="M1669.5 149.4C1669.5 149.4 1669.9 148.5 1670.8 146.9C1671.7 145.4 1673 143.3 1674.7 140.8C1676.4 138.3 1678.6 135.6 1681.1 132.8C1681.7 132.1 1682.3 131.4 1683 130.6C1683.6 129.9 1684.3 129.2 1685.1 128.4C1686.4 127 1687.9 125.6 1689.4 124.3C1690.9 123 1692.4 121.6 1694 120.4C1695.5 119.2 1697.2 118 1698.7 117C1700.3 116 1701.9 115 1703.5 114.2C1704.3 113.8 1705 113.5 1705.9 113.2C1706.6 112.9 1707.4 112.6 1708.2 112.4C1709.6 111.9 1711.1 111.6 1712.3 111.5C1712.9 111.4 1713.5 111.4 1714 111.4C1714.3 111.4 1714.5 111.4 1714.8 111.4C1715 111.4 1715.3 111.4 1715.5 111.5C1715.9 111.5 1716.3 111.6 1716.7 111.6C1717 111.7 1717.3 111.8 1717.5 111.8C1717.9 111.9 1718.2 112 1718.2 112C1718.2 112 1718 112 1717.5 112.1C1717.3 112.1 1717 112.2 1716.7 112.2C1716.4 112.3 1716 112.4 1715.6 112.4C1715.4 112.4 1715.2 112.5 1715 112.5C1714.8 112.6 1714.6 112.7 1714.3 112.7C1713.8 112.9 1713.3 113 1712.8 113.3C1712.3 113.5 1711.7 113.7 1711.2 114.1C1710.6 114.4 1710.1 114.7 1709.5 115.1C1708.9 115.5 1708.3 115.8 1707.6 116.2C1707 116.6 1706.3 117 1705.6 117.5C1704.3 118.4 1702.9 119.5 1701.5 120.6C1700.1 121.7 1698.7 123 1697.3 124.1C1695.9 125.3 1694.4 126.6 1693 127.9C1690.1 130.5 1687.2 133.1 1684.6 135.6C1681.9 138.1 1679.4 140.4 1677.2 142.4C1675 144.4 1673.2 146 1671.8 147.1C1670.2 148.7 1669.5 149.4 1669.5 149.4Z" fill="#504F4E"/>
<path d="M1677.8 166.3C1677.8 166.3 1678.4 165.3 1679.4 163.5C1680.5 161.8 1682.2 159.3 1684.2 156.4C1686.3 153.5 1688.8 150.2 1691.8 146.8C1694.7 143.4 1698 140 1701.5 136.6C1703.2 135 1705 133.3 1706.9 131.9C1708.6 130.4 1710.5 128.9 1712.4 127.6C1713.3 127 1714.3 126.3 1715.1 125.6C1716 125 1717 124.5 1717.8 123.9C1718.7 123.4 1719.5 122.9 1720.5 122.5C1721.4 122.1 1722.2 121.6 1723.1 121.3C1724.7 120.6 1726.4 120 1727.8 119.7C1729.2 119.3 1730.6 119.2 1731.6 119.2C1732.1 119.2 1732.6 119.2 1733 119.3C1733.4 119.3 1733.7 119.4 1734 119.5C1734.5 119.6 1734.8 119.7 1734.8 119.7C1734.8 119.7 1734.5 119.7 1734 119.8C1733.7 119.8 1733.4 119.8 1733 119.9C1732.6 120 1732.2 120.1 1731.7 120.2C1730.8 120.5 1729.6 120.9 1728.4 121.6C1727.2 122.2 1725.8 123 1724.4 124.1C1723 125 1721.5 126.2 1720 127.4C1719.3 128 1718.5 128.6 1717.6 129.4C1716.8 130.1 1716 130.7 1715.1 131.5C1713.5 132.9 1711.8 134.5 1710.2 136C1708.6 137.5 1706.8 139.1 1705.2 140.7C1703.5 142.2 1701.8 143.9 1700.2 145.5C1698.6 147.1 1696.9 148.7 1695.4 150.2C1692.2 153.3 1689.3 156.2 1686.8 158.5C1684.2 161 1682.1 162.9 1680.5 164.4C1678.7 165.6 1677.8 166.3 1677.8 166.3Z" fill="#504F4E"/>
<path d="M1681.5 184.6C1681.5 184.6 1682.1 183.6 1683.2 181.8C1684.3 180.1 1686.1 177.6 1688.3 174.7C1690.5 171.8 1693.1 168.6 1696.2 165.2C1699.3 161.9 1702.6 158.4 1706.2 155.1C1707.9 153.5 1709.8 151.9 1711.7 150.4C1713.6 148.9 1715.4 147.4 1717.3 146.2C1718.2 145.6 1719.2 144.9 1720.1 144.3C1721 143.7 1722 143.2 1722.9 142.7C1723.8 142.2 1724.8 141.7 1725.6 141.3C1726.5 140.9 1727.3 140.5 1728.2 140.1C1729.9 139.4 1731.5 138.9 1733 138.5C1734.4 138.1 1735.8 138 1736.9 138C1737.4 138 1737.9 138 1738.3 138.1C1738.7 138.1 1739 138.2 1739.3 138.3C1739.8 138.4 1740.1 138.5 1740.1 138.5C1740.1 138.5 1739.8 138.5 1739.3 138.6C1739 138.6 1738.7 138.6 1738.3 138.7C1737.9 138.8 1737.5 138.9 1737 139C1736.1 139.3 1734.8 139.7 1733.6 140.4C1732.4 141 1731 141.8 1729.5 142.8C1728.1 143.7 1726.5 144.9 1724.9 146.1C1723.4 147.3 1721.7 148.7 1720 150.1C1718.4 151.5 1716.6 153 1714.9 154.5C1713.2 156 1711.4 157.6 1709.7 159.2C1708 160.7 1706.2 162.4 1704.6 163.9C1702.9 165.4 1701.2 167.1 1699.6 168.5C1696.3 171.5 1693.3 174.4 1690.6 176.7C1687.9 179 1685.7 181.1 1684.1 182.5C1682.4 183.8 1681.5 184.6 1681.5 184.6Z" fill="#504F4E"/>
<path d="M1761.9 221.3C1758 217.3 1752.6 218.5 1748.1 220.5C1745.3 221.7 1743.1 223 1740.9 225.1C1739.9 226 1738.9 227.9 1738.6 229.2C1738.3 230.3 1738.6 231.4 1738.7 232.4C1737.1 234 1735.7 235.9 1735.8 238.7C1735.9 242.5 1738.4 245.2 1741.5 247C1742.2 247.4 1743 247.7 1743.8 248C1743.9 248.2 1744.1 248.6 1744.3 249C1745.5 252 1747.6 254.5 1750.7 255.4C1753.5 261.1 1763.8 259.8 1763.4 252.3C1763.2 246.5 1762.4 241 1763.7 235.3C1764.6 230.5 1765.5 225.1 1761.9 221.3Z" fill="#504F4E"/>
<path d="M1706.4 226C1704.4 225 1702 225 1699.9 226C1699 225.6 1697.9 225.4 1696.8 225.4L1694 225.5C1693.1 225.5 1692.1 225.8 1691.2 226.2C1688.3 226.9 1685.5 228.3 1683.9 230.4C1681.6 233.3 1681.3 237.2 1684.2 239.9C1685.8 241.4 1688.4 242.1 1690.7 241.5C1692.4 244.3 1694.9 246.3 1698.1 246.2C1704.1 246 1706.9 239.7 1709 235C1710.6 231.8 1709.8 227.9 1706.4 226Z" fill="#504F4E"/>
<path d="M1705.7 266.8C1704.2 259.2 1695.3 258.8 1689.8 261.4C1686.9 262.8 1683.5 265.8 1680.2 266.2C1676.1 266.7 1672.5 265.9 1668.7 267.9C1662.6 271.2 1659.9 277.1 1659.6 283.7C1659.5 286 1660.4 287.7 1661.9 288.7C1661.8 289.2 1661.6 289.6 1661.5 290.1C1660.2 294.4 1663.1 297.4 1666.6 298C1667.9 301.4 1670.9 303.9 1675 304.1C1681.3 304.5 1685.6 298 1688.2 293.3C1689.6 290.7 1690.7 288.1 1692 285.5C1692.9 283.6 1697.8 283.2 1699.5 282.2C1705.5 279.1 1706.9 273 1705.7 266.8ZM1679.7 280.2C1679.6 280.1 1679.5 280 1679.4 279.8C1679.3 279.7 1679.1 279.5 1679 279.4C1679.4 279.4 1679.8 279.4 1680.2 279.4C1680.1 279.7 1679.9 280 1679.7 280.2Z" fill="#504F4E"/>
<path d="M1718.7 206.499C1716.7 206.099 1715 206.099 1713 206.699C1711.8 207.099 1710.7 207.899 1709.9 208.199C1709.5 208.299 1709.2 208.399 1708.8 208.499C1708.7 208.499 1708.5 208.599 1708.5 208.599C1708.4 208.599 1708.3 208.599 1708.2 208.599C1707.5 208.099 1706.7 207.699 1705.8 207.499C1703.6 206.999 1701.7 207.499 1700.1 208.699C1695.7 210.799 1696 218.299 1700.3 220.499C1703.2 221.899 1706.5 222.199 1709.7 221.799C1711.1 221.599 1712.6 221.399 1714 220.999C1714.9 220.699 1716.1 220.199 1716.9 219.799C1717 219.699 1717.2 219.699 1717.3 219.599C1720.3 219.599 1723.1 217.699 1723.9 214.599C1724.4 211.199 1722.2 207.199 1718.7 206.499Z" fill="#504F4E"/>
<path d="M1723.4 285.1C1721.4 285.2 1719.8 286 1718.6 287.4C1718.2 287.6 1717.8 287.9 1717.5 288.1C1715.8 288.4 1714.4 288.8 1712.7 289.6C1710 290.8 1709 294.6 1709.8 297.2C1710.6 299.9 1713 301.7 1715.8 301.9C1716.9 302.7 1718.4 303.2 1719.9 303.2C1722.6 303.1 1724.8 301.5 1725.9 299.1C1726.3 298.9 1726.6 298.8 1726.9 298.6C1729.4 297.1 1730.4 294.3 1730.4 291.4C1730.3 287.9 1727 285 1723.4 285.1Z" fill="#504F4E"/>
<path d="M1907.3 273L1914.2 280.8L1906.5 287.7" stroke="#9BCA3B" stroke-width="12" stroke-miterlimit="10"/>
<path d="M1890.7 301.9L1740.4 437" stroke="#9BCA3B" stroke-width="12" stroke-miterlimit="10" stroke-dasharray="20.69 20.69"/>
<path d="M1732.4 444.1L1724.7 451L1717.8 443.3" stroke="#9BCA3B" stroke-width="12" stroke-miterlimit="10"/>
<path d="M1704.8 428.8L1528.1 232.2" stroke="#9BCA3B" stroke-width="12" stroke-miterlimit="10" stroke-dasharray="19.03 19.03"/>
<path d="M1521.6 225L1514.7 217.3L1522.3 210.4" stroke="#9BCA3B" stroke-width="12" stroke-miterlimit="10"/>
<path d="M1538.2 196.2L1688.6 61" stroke="#9BCA3B" stroke-width="12" stroke-miterlimit="10" stroke-dasharray="20.69 20.69"/>
<path d="M1696.5 53.9L1704.1 47L1711 54.7" stroke="#9BCA3B" stroke-width="12" stroke-miterlimit="10"/>
<path d="M1724.1 69.2002L1900.8 265.8" stroke="#9BCA3B" stroke-width="12" stroke-miterlimit="10" stroke-dasharray="19.03 19.03"/>
<path d="M131.202 274.8L147.302 161.6L99.9016 274.8H65.3016L70.3016 161.1L28.3016 274.8H8.10156L72.1016 101.6C59.5016 105.8 49.7016 112.7 42.7016 122.2C35.6016 131.8 32.1016 143.8 32.1016 158.3C32.1016 161.7 32.3016 164.4 32.7016 166.4C33.1016 168.4 33.5016 170 33.9016 171.2C34.3016 172.4 34.7016 173.3 35.1016 173.9C35.5016 174.5 35.7016 175.1 35.7016 175.7C31.6016 175.7 27.9016 175.3 24.6016 174.5C21.3016 173.7 18.4016 172.4 16.1016 170.6C13.8016 168.8 12.0016 166.4 10.7016 163.5C9.40156 160.6 8.80156 157 8.80156 152.9C8.80156 147.6 9.90156 142.2 12.1016 136.8C14.3016 131.4 17.3016 126.2 21.1016 121.2C24.9016 116.2 29.4016 111.6 34.6016 107.3C39.8016 103 45.3016 99.1998 51.3016 95.9998C57.2016 92.7998 63.4016 90.2998 69.9016 88.4998C76.3016 86.6998 82.8016 85.7998 89.2016 85.7998C95.5016 85.7998 101.902 86.9998 108.302 89.3998L102.502 222.2L158.002 89.3998H194.302L167.802 274.9H131.202V274.8Z" fill="white"/>
<path d="M332.801 229.6C330.401 236.4 327.801 242.3 325.001 247.3C322.201 252.3 319.301 256.5 316.301 260C313.301 263.4 310.201 266.2 307.101 268.4C304.001 270.5 300.901 272.2 298.001 273.3C295.001 274.5 292.201 275.2 289.501 275.6C286.801 276 284.301 276.2 282.101 276.2C275.001 276.2 269.301 274.3 265.101 270.4C260.901 266.5 258.301 260.7 257.401 253.1C255.301 256 253.101 258.8 250.601 261.5C248.101 264.3 245.401 266.7 242.401 268.9C239.401 271.1 236.001 272.8 232.201 274.2C228.501 275.6 224.301 276.2 219.801 276.2C215.401 276.2 211.301 275.5 207.201 274.1C203.201 272.7 199.601 270.4 196.501 267.2C193.401 264 190.901 259.8 189.001 254.6C187.101 249.4 186.201 243.1 186.201 235.6C186.201 229.9 186.801 223.7 187.901 217.1C189.001 210.5 190.801 204 193.201 197.4C195.601 190.8 198.601 184.5 202.101 178.5C205.701 172.5 209.901 167.1 214.701 162.5C219.501 157.9 224.901 154.2 231.001 151.4C237.101 148.7 243.801 147.3 251.101 147.3C258.201 147.3 263.401 148.5 266.701 151C269.901 153.5 271.601 156.5 271.601 160.1V161.9L274.301 148.5H310.601L292.501 234.2C292.101 235.6 291.801 237 291.601 238.3C291.401 239.7 291.401 241 291.401 242.3C291.401 249.5 294.801 253.1 301.701 253.1C304.201 253.1 306.401 252.5 308.501 251.2C310.601 249.9 312.501 248.2 314.201 246.1C315.901 244 317.401 241.4 318.801 238.5C320.101 235.6 321.201 232.5 322.101 229.3H332.801V229.6ZM269.301 172.8C269.301 172.1 269.101 171.1 268.801 170C268.501 168.9 267.901 167.8 267.101 166.8C266.301 165.8 265.301 164.9 264.001 164.2C262.701 163.5 261.001 163.2 259.001 163.2C255.501 163.2 252.101 164.4 249.001 166.6C245.801 168.9 242.901 172 240.301 175.8C237.701 179.6 235.301 183.9 233.301 188.8C231.201 193.6 229.501 198.6 228.101 203.8C226.701 208.9 225.601 214 224.801 218.9C224.101 223.9 223.701 228.3 223.701 232.3C223.701 237.1 224.201 240.9 225.101 243.5C226.001 246.1 227.101 248.1 228.401 249.3C229.701 250.6 231.001 251.3 232.501 251.6C234.001 251.9 235.301 252 236.401 252C238.301 252 240.301 251.5 242.401 250.6C244.501 249.7 246.501 248.3 248.401 246.4C250.301 244.6 252.101 242.2 253.701 239.4C255.301 236.6 256.501 233.4 257.301 229.7L269.301 172.8Z" fill="white"/>
<path d="M460.001 229.6C456.501 239.9 452.701 248.2 448.601 254.3C444.501 260.4 440.401 265.2 436.301 268.4C432.201 271.6 428.101 273.8 424.101 274.7C420.101 275.7 416.401 276.2 413.101 276.2C407.501 276.2 402.801 275.4 399.101 273.8C395.301 272.2 392.301 270.1 390.001 267.4C387.701 264.7 386.001 261.7 385.001 258.3C384.001 254.9 383.501 251.4 383.501 247.8C383.501 243.5 384.101 238.5 385.301 232.8C386.501 227.1 387.801 221.3 389.201 215.3C390.601 209.3 391.901 203.5 393.101 197.9C394.301 192.3 394.901 187.5 394.901 183.5C394.901 174.9 391.901 170.6 385.801 170.6C383.501 170.6 381.401 171.2 379.401 172.4C377.401 173.6 375.601 175.3 374.001 177.4C372.401 179.5 370.901 182 369.601 184.8C368.301 187.6 367.101 190.6 366.201 193.8L349.101 274.7H312.801L339.501 148.7H375.801L373.101 161.7C375.801 158.7 378.501 156.2 381.201 154.4C383.901 152.6 386.501 151.1 389.001 150.2C391.501 149.2 393.901 148.6 396.201 148.2C398.501 147.9 400.601 147.7 402.501 147.7C406.501 147.7 410.301 148.2 413.701 149.3C417.101 150.4 420.101 152.1 422.601 154.3C425.101 156.6 427.101 159.6 428.401 163.2C429.801 166.8 430.501 171.1 430.501 176.1C430.501 179.5 430.201 183.1 429.601 187C429.001 190.9 428.201 194.9 427.301 198.9C426.401 203 425.401 207 424.401 211C423.401 215 422.401 218.9 421.501 222.6C420.601 226.3 419.801 229.7 419.201 232.9C418.601 236.1 418.301 238.8 418.301 241.2C418.301 244.3 419.001 246.9 420.501 248.8C421.901 250.8 424.601 251.8 428.401 251.8C431.101 251.8 433.501 251.3 435.501 250.2C437.601 249.1 439.401 247.6 441.001 245.6C442.601 243.6 444.101 241.3 445.501 238.5C446.901 235.8 448.201 232.7 449.501 229.5H460.001V229.6Z" fill="white"/>
<path d="M527.402 229.6C525.002 236.4 522.402 242.3 519.502 247.3C516.602 252.3 513.502 256.5 510.402 260C507.202 263.4 504.002 266.2 500.702 268.4C497.402 270.5 494.202 272.2 491.002 273.3C487.902 274.5 484.902 275.2 482.102 275.6C479.302 276 476.702 276.2 474.502 276.2C470.702 276.2 467.202 275.6 463.902 274.5C460.602 273.4 457.802 271.5 455.302 269.1C452.902 266.6 451.002 263.5 449.602 259.7C448.202 255.9 447.502 251.4 447.502 246C447.502 243.7 447.702 241.2 448.002 238.4C448.302 235.7 448.802 232.7 449.502 229.5L464.602 158.7H456.202L458.302 148.6H466.502L474.102 113.8L511.402 108.8L502.802 148.7H518.002L516.002 158.8H500.902L484.802 234.4C484.402 235.8 484.102 237.2 484.002 238.5C483.902 239.9 483.802 241.2 483.802 242.5C483.802 246 484.602 248.5 486.302 249.8C487.902 251.2 490.502 251.8 494.102 251.8C496.602 251.8 499.002 251.2 501.302 250.1C503.602 249 505.802 247.5 507.802 245.5C509.802 243.5 511.502 241.2 513.102 238.4C514.702 235.7 515.902 232.7 516.902 229.5H527.402V229.6Z" fill="white"/>
<path d="M619.701 234.4C619.301 235.8 619.001 237.2 618.801 238.5C618.601 239.9 618.601 241.2 618.601 242.5C618.601 246 619.401 248.5 621.101 249.8C622.801 251.2 625.401 251.8 628.901 251.8C630.001 251.8 631.101 251.7 632.001 251.6C632.901 251.4 633.701 251.1 634.501 250.7C632.801 255.1 631.101 258.8 629.601 262C628.001 265.2 626.301 267.8 624.401 269.9C622.501 272 620.401 273.6 617.901 274.6C615.501 275.6 612.601 276.1 609.301 276.1C602.301 276.1 596.701 274.1 592.401 270C588.101 265.9 585.501 260.2 584.501 252.7C582.601 255.6 580.401 258.4 577.901 261.2C575.401 264 572.601 266.5 569.501 268.7C566.401 270.9 563.001 272.7 559.201 274.1C555.401 275.5 551.301 276.1 546.901 276.1C542.501 276.1 538.401 275.4 534.301 274C530.301 272.6 526.701 270.3 523.601 267.1C520.501 263.9 518.001 259.7 516.101 254.5C514.201 249.3 513.301 243 513.301 235.5C513.301 229.8 513.901 223.6 515.001 217C516.101 210.4 517.901 203.9 520.301 197.3C522.701 190.7 525.701 184.4 529.201 178.4C532.801 172.4 537.001 167 541.801 162.4C546.601 157.8 552.001 154.1 558.101 151.3C564.201 148.6 570.901 147.2 578.201 147.2C585.301 147.2 590.501 148.4 593.801 150.9C597.001 153.4 598.701 156.4 598.701 160V161.8L601.401 148.4H637.701L619.701 234.4ZM596.401 172.8C596.401 172.1 596.201 171.1 595.901 170C595.601 168.9 595.001 167.8 594.201 166.8C593.401 165.8 592.401 164.9 591.101 164.2C589.801 163.5 588.101 163.2 586.101 163.2C582.601 163.2 579.201 164.4 576.101 166.6C572.901 168.9 570.001 172 567.401 175.8C564.801 179.6 562.401 183.9 560.401 188.8C558.301 193.6 556.601 198.6 555.201 203.8C553.801 208.9 552.701 214 551.901 218.9C551.201 223.9 550.801 228.3 550.801 232.3C550.801 237.1 551.301 240.9 552.201 243.5C553.101 246.1 554.201 248.1 555.501 249.3C556.801 250.6 558.101 251.3 559.601 251.6C561.101 251.9 562.401 252 563.501 252C565.401 252 567.401 251.5 569.501 250.6C571.601 249.7 573.601 248.3 575.501 246.4C577.401 244.6 579.201 242.2 580.801 239.4C582.401 236.6 583.601 233.4 584.401 229.7L596.401 172.8Z" fill="white"/>
<path d="M774.401 274.8L790.501 161.6L743.101 274.8H708.501L713.501 161.1L671.401 274.8H651.201L715.201 101.6C702.601 105.8 692.801 112.7 685.801 122.2C678.701 131.8 675.201 143.8 675.201 158.3C675.201 161.7 675.401 164.4 675.801 166.4C676.201 168.4 676.601 170 677.001 171.2C677.401 172.4 677.801 173.3 678.201 173.9C678.601 174.5 678.801 175.1 678.801 175.7C674.701 175.7 671.001 175.3 667.701 174.5C664.401 173.7 661.501 172.4 659.201 170.6C656.901 168.8 655.101 166.4 653.801 163.5C652.501 160.6 651.901 157 651.901 152.9C651.901 147.6 653.001 142.2 655.201 136.8C657.401 131.4 660.401 126.2 664.201 121.2C668.001 116.2 672.501 111.6 677.701 107.3C682.901 103 688.401 99.1998 694.401 95.9998C700.301 92.7998 706.501 90.2998 713.001 88.4998C719.401 86.6998 725.901 85.7998 732.301 85.7998C738.601 85.7998 745.001 86.9998 751.401 89.3998L745.601 222.2L801.101 89.3998H837.401L810.901 274.9H774.401V274.8Z" fill="white"/>
<path d="M976.002 229.6C973.602 236.4 971.002 242.3 968.202 247.3C965.402 252.3 962.502 256.5 959.502 260C956.502 263.4 953.402 266.2 950.302 268.4C947.202 270.5 944.102 272.2 941.202 273.3C938.202 274.5 935.402 275.2 932.702 275.6C930.002 276 927.502 276.2 925.302 276.2C918.202 276.2 912.502 274.3 908.302 270.4C904.102 266.5 901.502 260.7 900.602 253.1C898.502 256 896.302 258.8 893.802 261.5C891.302 264.3 888.602 266.7 885.602 268.9C882.602 271.1 879.202 272.8 875.402 274.2C871.702 275.6 867.502 276.2 863.002 276.2C858.602 276.2 854.502 275.5 850.402 274.1C846.402 272.7 842.802 270.4 839.702 267.2C836.602 264 834.102 259.8 832.202 254.6C830.302 249.4 829.402 243.1 829.402 235.6C829.402 229.9 830.002 223.7 831.102 217.1C832.202 210.5 834.002 204 836.402 197.4C838.802 190.8 841.802 184.5 845.302 178.5C848.902 172.5 853.102 167.1 857.902 162.5C862.702 157.9 868.102 154.2 874.202 151.4C880.302 148.7 887.002 147.3 894.302 147.3C901.402 147.3 906.602 148.5 909.902 151C913.102 153.5 914.802 156.5 914.802 160.1V161.9L917.502 148.5H953.802L935.702 234.2C935.302 235.6 935.002 237 934.802 238.3C934.602 239.7 934.602 241 934.602 242.3C934.602 249.5 938.002 253.1 944.902 253.1C947.402 253.1 949.602 252.5 951.702 251.2C953.802 249.9 955.702 248.2 957.402 246.1C959.102 244 960.602 241.4 962.002 238.5C963.302 235.6 964.402 232.5 965.302 229.3H976.002V229.6ZM912.502 172.8C912.502 172.1 912.302 171.1 912.002 170C911.702 168.9 911.102 167.8 910.302 166.8C909.502 165.8 908.502 164.9 907.202 164.2C905.902 163.5 904.202 163.2 902.202 163.2C898.702 163.2 895.302 164.4 892.202 166.6C889.002 168.9 886.102 172 883.502 175.8C880.902 179.6 878.502 183.9 876.502 188.8C874.402 193.6 872.702 198.6 871.302 203.8C869.902 208.9 868.802 214 868.002 218.9C867.302 223.9 866.902 228.3 866.902 232.3C866.902 237.1 867.402 240.9 868.302 243.5C869.202 246.1 870.302 248.1 871.602 249.3C872.902 250.6 874.202 251.3 875.702 251.6C877.202 251.9 878.502 252 879.602 252C881.502 252 883.502 251.5 885.602 250.6C887.702 249.7 889.702 248.3 891.602 246.4C893.502 244.6 895.302 242.2 896.902 239.4C898.502 236.6 899.702 233.4 900.502 229.7L912.502 172.8Z" fill="white"/>
<path d="M1043.4 229.6C1041 236.4 1038.4 242.3 1035.5 247.3C1032.6 252.3 1029.5 256.5 1026.4 260C1023.2 263.4 1020 266.2 1016.7 268.4C1013.4 270.5 1010.2 272.2 1007 273.3C1003.9 274.5 1000.9 275.2 998.102 275.6C995.302 276 992.702 276.2 990.502 276.2C986.702 276.2 983.202 275.6 979.902 274.5C976.602 273.4 973.802 271.5 971.302 269.1C968.902 266.6 967.002 263.5 965.602 259.7C964.202 255.9 963.502 251.4 963.502 246C963.502 243.7 963.702 241.2 964.002 238.4C964.302 235.7 964.802 232.7 965.502 229.5L980.602 158.7H972.202L974.302 148.6H982.502L990.102 113.8L1027.4 108.8L1018.8 148.7H1033.9L1031.9 158.8H1016.8L1000.7 234.4C1000.3 235.8 1000 237.2 999.902 238.5C999.802 239.9 999.702 241.2 999.702 242.5C999.702 246 1000.5 248.5 1002.2 249.8C1003.8 251.2 1006.4 251.8 1010 251.8C1012.5 251.8 1014.9 251.2 1017.2 250.1C1019.5 249 1021.7 247.5 1023.7 245.5C1025.7 243.5 1027.4 241.2 1029 238.4C1030.6 235.7 1031.8 232.7 1032.8 229.5H1043.4V229.6Z" fill="white"/>
<path d="M1138.1 229.599C1134.6 235.499 1130.5 241.299 1126 246.799C1121.4 252.399 1116.3 257.299 1110.6 261.699C1104.9 265.999 1098.6 269.599 1091.6 272.199C1084.7 274.899 1077.1 276.199 1068.8 276.199C1062.8 276.199 1057.4 275.399 1052.6 273.899C1047.8 272.399 1043.6 269.999 1040.2 266.799C1036.8 263.599 1034.1 259.499 1032.3 254.399C1030.5 249.399 1029.5 243.299 1029.5 236.099C1029.5 231.299 1030 225.699 1031 219.299C1032 212.899 1033.6 206.399 1035.7 199.799C1037.9 193.199 1040.7 186.599 1044.2 180.199C1047.7 173.799 1052 168.099 1057 163.099C1062 158.099 1067.9 154.099 1074.5 150.999C1081.1 147.899 1088.7 146.399 1097.3 146.399C1102.9 146.399 1107.5 147.099 1111.1 148.399C1114.7 149.799 1117.6 151.499 1119.7 153.699C1121.8 155.899 1123.3 158.399 1124.1 161.099C1124.9 163.899 1125.3 166.699 1125.3 169.499C1125.3 172.599 1125 175.299 1124.3 177.599C1123.6 179.899 1122.6 181.799 1121.4 183.299C1120.2 184.899 1118.7 185.999 1117.1 186.699C1115.5 187.399 1113.7 187.799 1111.9 187.799C1109 187.799 1106.1 186.799 1103 184.799C1105 179.399 1106.1 174.399 1106.1 169.899C1106.1 166.799 1105.5 164.299 1104.4 162.399C1103.3 160.499 1101.5 159.599 1099.1 159.599C1096.5 159.599 1093.8 160.799 1091.2 163.199C1088.6 165.599 1086 168.699 1083.6 172.699C1081.2 176.599 1078.9 181.199 1076.9 186.199C1074.8 191.299 1073.1 196.599 1071.5 202.099C1070 207.599 1068.8 213.099 1067.9 218.499C1067 223.999 1066.6 228.999 1066.6 233.699C1066.6 237.999 1067 241.499 1067.8 244.199C1068.6 246.999 1069.7 249.099 1071.2 250.699C1072.7 252.299 1074.6 253.299 1076.9 253.999C1079.2 254.599 1081.8 254.899 1084.8 254.899C1089.8 254.899 1094.3 254.199 1098.4 252.899C1102.5 251.599 1106.3 249.799 1109.8 247.499C1113.3 245.199 1116.7 242.499 1119.8 239.399C1123 236.299 1126.1 232.999 1129.3 229.399H1138.1V229.599Z" fill="white"/>
<path d="M1267.4 229.6C1263.9 239.9 1260.1 248.2 1256 254.3C1251.9 260.4 1247.8 265.2 1243.7 268.4C1239.6 271.6 1235.5 273.8 1231.5 274.7C1227.5 275.7 1223.8 276.2 1220.5 276.2C1214.9 276.2 1210.2 275.4 1206.5 273.8C1202.7 272.2 1199.7 270.1 1197.4 267.4C1195.1 264.7 1193.4 261.7 1192.4 258.3C1191.4 254.9 1190.9 251.4 1190.9 247.8C1190.9 243.5 1191.5 238.5 1192.7 232.8C1193.9 227.1 1195.2 221.3 1196.6 215.3C1198 209.3 1199.3 203.5 1200.5 197.9C1201.7 192.3 1202.3 187.5 1202.3 183.5C1202.3 174.9 1199.3 170.6 1193.2 170.6C1190.9 170.6 1188.8 171.2 1186.8 172.4C1184.8 173.6 1183 175.3 1181.4 177.4C1179.8 179.5 1178.3 182 1177 184.8C1175.7 187.6 1174.5 190.6 1173.6 193.8L1156.5 274.7H1120.2L1156.8 103.2L1194.1 98.2002L1180.6 161.7C1183.3 158.7 1186 156.2 1188.7 154.4C1191.4 152.6 1194 151.1 1196.5 150.2C1199 149.2 1201.4 148.6 1203.7 148.2C1206 147.9 1208.1 147.7 1210 147.7C1214 147.7 1217.8 148.2 1221.2 149.3C1224.6 150.4 1227.6 152.1 1230.1 154.3C1232.6 156.6 1234.6 159.6 1235.9 163.2C1237.3 166.8 1238 171.1 1238 176.1C1238 179.5 1237.7 183.1 1237.1 187C1236.5 190.9 1235.7 194.9 1234.8 198.9C1233.9 203 1232.9 207 1231.9 211C1230.9 215 1229.9 218.9 1229 222.6C1228.1 226.3 1227.3 229.7 1226.7 232.9C1226.1 236.1 1225.8 238.8 1225.8 241.2C1225.8 244.3 1226.5 246.9 1228 248.8C1229.4 250.8 1232.1 251.8 1235.9 251.8C1238.6 251.8 1241 251.3 1243 250.2C1245.1 249.1 1246.9 247.6 1248.5 245.6C1250.1 243.6 1251.6 241.3 1253 238.5C1254.4 235.8 1255.7 232.7 1257 229.5H1267.4V229.6Z" fill="white"/>
<path d="M1362.2 229.599C1358.7 235.499 1354.6 241.299 1350.1 246.799C1345.5 252.399 1340.4 257.299 1334.7 261.699C1329 265.999 1322.7 269.599 1315.7 272.199C1308.8 274.899 1301.2 276.199 1292.9 276.199C1286.9 276.199 1281.5 275.399 1276.7 273.899C1271.9 272.399 1267.7 269.999 1264.3 266.799C1260.9 263.599 1258.2 259.499 1256.4 254.399C1254.6 249.399 1253.6 243.299 1253.6 236.099C1253.6 231.299 1254.1 225.699 1255.1 219.399C1256.1 213.099 1257.6 206.599 1259.8 199.999C1261.9 193.399 1264.8 186.799 1268.3 180.399C1271.8 173.999 1276.1 168.299 1281.1 163.199C1286.1 158.199 1292 154.099 1298.7 150.999C1305.4 147.899 1313.1 146.399 1321.7 146.399C1327.4 146.399 1332 147.099 1335.5 148.399C1339.1 149.799 1341.9 151.499 1344 153.799C1346.1 155.999 1347.5 158.599 1348.3 161.499C1349.1 164.399 1349.5 167.399 1349.5 170.499C1349.5 177.799 1347.9 184.599 1344.7 190.899C1341.5 197.199 1337.2 202.699 1331.8 207.299C1326.4 211.999 1320.2 215.799 1313.3 218.599C1306.3 221.499 1299.1 223.199 1291.5 223.599C1291.3 225.499 1291.2 227.299 1291.1 228.999C1291 230.699 1290.9 232.299 1290.9 233.699C1290.9 237.999 1291.3 241.499 1292.1 244.199C1292.9 246.999 1294 249.099 1295.5 250.699C1297 252.299 1298.9 253.299 1301.2 253.999C1303.5 254.599 1306.1 254.899 1309.1 254.899C1314.1 254.899 1318.6 254.199 1322.7 252.899C1326.8 251.599 1330.6 249.799 1334.1 247.499C1337.6 245.199 1341 242.499 1344.1 239.399C1347.3 236.299 1350.4 232.999 1353.6 229.399H1362.2V229.599ZM1293.4 211.799C1298.2 211.499 1302.8 210.099 1307.2 207.699C1311.6 205.299 1315.5 202.199 1318.9 198.399C1322.3 194.599 1325 190.199 1327 185.399C1329 180.499 1330 175.499 1330 170.199C1330 167.099 1329.5 164.599 1328.6 162.699C1327.7 160.799 1326.1 159.899 1323.7 159.899C1320.5 159.899 1317.4 161.399 1314.3 164.499C1311.2 167.599 1308.3 171.599 1305.6 176.499C1302.9 181.399 1300.5 186.999 1298.4 193.199C1296.2 199.299 1294.6 205.599 1293.4 211.799Z" fill="white"/>
<path d="M1343.9 274.8L1370.6 148.8H1406.9L1403.7 164.4C1405.9 162.4 1408.2 160.5 1410.5 158.6C1412.8 156.7 1415.2 155.1 1417.7 153.6C1420.2 152.2 1422.8 151 1425.5 150.1C1428.2 149.2 1431.1 148.7 1434.1 148.7C1437 148.7 1439.5 149.2 1441.7 150.3C1443.9 151.4 1445.7 152.8 1447.2 154.5C1448.7 156.2 1449.8 158.2 1450.5 160.5C1451.2 162.8 1451.6 165.2 1451.6 167.6C1451.6 169.8 1451.2 172 1450.5 174.2C1449.8 176.4 1448.6 178.3 1447.1 180C1445.6 181.7 1443.7 183.1 1441.4 184.2C1439.1 185.3 1436.4 185.9 1433.4 185.9C1431 185.9 1429.2 185.5 1427.9 184.7C1426.6 183.9 1425.7 182.9 1425 181.6C1424.3 180.4 1423.9 179 1423.6 177.6C1423.3 176.2 1423 174.8 1422.7 173.6C1422.4 172.4 1421.9 171.3 1421.4 170.5C1420.9 169.7 1420 169.3 1418.8 169.3C1414.9 169.3 1411.7 170.2 1409.1 171.9C1406.5 173.7 1403.6 176 1400.5 178.9L1380.3 274.7H1343.9V274.8Z" fill="white"/>
<path d="M25.0203 353.859H17.8235V316.008H4.87521V309.835H37.9686V316.008H25.0203V353.859ZM79.4634 353.859H72.2364V334.015H51.9407V353.859H44.7439V309.835H51.9407V327.842H72.2364V309.835H79.4634V353.859ZM115.959 353.859H91.0566V309.835H115.959V315.918H98.2535V327.903H114.845V333.925H98.2535V347.747H115.959V353.859ZM182.146 353.859H174.317L166.849 327.601C166.528 326.457 166.127 324.811 165.645 322.663C165.163 320.495 164.872 318.989 164.772 318.146C164.571 319.431 164.24 321.097 163.778 323.145C163.336 325.192 162.965 326.718 162.664 327.722L155.376 353.859H147.547L141.856 331.817L136.075 309.835H143.422L149.715 335.491C150.699 339.606 151.402 343.24 151.823 346.392C152.044 344.685 152.375 342.778 152.817 340.67C153.259 338.562 153.66 336.856 154.021 335.551L161.188 309.835H168.325L175.672 335.672C176.375 338.06 177.118 341.634 177.901 346.392C178.202 343.521 178.924 339.867 180.069 335.431L186.332 309.835H193.619L182.146 353.859ZM199.882 353.859V309.835H207.079V353.859H199.882ZM218.733 353.859V309.835H225.93V347.686H244.569V353.859H218.733ZM287.961 331.426C287.961 338.693 285.943 344.254 281.908 348.108C277.873 351.942 272.062 353.859 264.473 353.859H252.157V309.835H265.768C272.774 309.835 278.225 311.722 282.119 315.496C286.014 319.27 287.961 324.58 287.961 331.426ZM280.373 331.667C280.373 321.127 275.444 315.858 265.588 315.858H259.354V347.807H264.473C275.073 347.807 280.373 342.427 280.373 331.667ZM297.446 309.835H310.515C316.578 309.835 320.954 310.718 323.644 312.485C326.354 314.252 327.709 317.042 327.709 320.856C327.709 323.426 327.047 325.564 325.722 327.27C324.397 328.977 322.49 330.051 320 330.492V330.793C323.092 331.376 325.36 332.53 326.806 334.256C328.271 335.963 329.004 338.281 329.004 341.212C329.004 345.167 327.619 348.269 324.849 350.517C322.098 352.745 318.264 353.859 313.346 353.859H297.446V309.835ZM304.643 328.023H311.569C314.58 328.023 316.778 327.551 318.164 326.608C319.549 325.644 320.241 324.018 320.241 321.73C320.241 319.662 319.489 318.166 317.983 317.243C316.497 316.319 314.129 315.858 310.876 315.858H304.643V328.023ZM304.643 333.865V347.807H312.292C315.303 347.807 317.571 347.235 319.097 346.09C320.643 344.926 321.416 343.099 321.416 340.61C321.416 338.321 320.633 336.625 319.067 335.521C317.501 334.417 315.122 333.865 311.93 333.865H304.643ZM377.244 331.787C377.244 338.954 375.447 344.525 371.854 348.499C368.281 352.474 363.212 354.462 356.647 354.462C350.002 354.462 344.893 352.494 341.32 348.56C337.767 344.605 335.99 338.994 335.99 331.727C335.99 324.46 337.777 318.879 341.35 314.984C344.943 311.09 350.063 309.143 356.707 309.143C363.252 309.143 368.311 311.12 371.884 315.075C375.457 319.029 377.244 324.6 377.244 331.787ZM343.639 331.787C343.639 337.207 344.733 341.323 346.921 344.133C349.109 346.924 352.351 348.319 356.647 348.319C360.923 348.319 364.145 346.934 366.313 344.163C368.501 341.393 369.595 337.267 369.595 331.787C369.595 326.387 368.511 322.292 366.343 319.501C364.195 316.711 360.983 315.316 356.707 315.316C352.391 315.316 349.129 316.711 346.921 319.501C344.733 322.292 343.639 326.387 343.639 331.787ZM425.785 331.787C425.785 338.954 423.988 344.525 420.395 348.499C416.822 352.474 411.753 354.462 405.188 354.462C398.543 354.462 393.434 352.494 389.861 348.56C386.308 344.605 384.531 338.994 384.531 331.727C384.531 324.46 386.318 318.879 389.891 314.984C393.485 311.09 398.604 309.143 405.248 309.143C411.793 309.143 416.852 311.12 420.425 315.075C423.998 319.029 425.785 324.6 425.785 331.787ZM392.18 331.787C392.18 337.207 393.274 341.323 395.462 344.133C397.65 346.924 400.892 348.319 405.188 348.319C409.464 348.319 412.686 346.934 414.854 344.163C417.042 341.393 418.136 337.267 418.136 331.787C418.136 326.387 417.052 322.292 414.884 319.501C412.736 316.711 409.524 315.316 405.248 315.316C400.932 315.316 397.67 316.711 395.462 319.501C393.274 322.292 392.18 326.387 392.18 331.787ZM468.846 353.859H460.504L446.683 333.925L442.437 337.388V353.859H435.24V309.835H442.437V330.854C444.404 328.445 446.362 326.126 448.309 323.898L460.203 309.835H468.394C460.705 318.869 455.195 325.303 451.862 329.137L468.846 353.859ZM497.844 353.859H490.707V309.835H515.55V315.918H497.844V329.679H514.436V335.792H497.844V353.859ZM562.615 331.787C562.615 338.954 560.819 344.525 557.225 348.499C553.652 352.474 548.583 354.462 542.018 354.462C535.374 354.462 530.265 352.494 526.691 348.56C523.138 344.605 521.361 338.994 521.361 331.727C521.361 324.46 523.148 318.879 526.721 314.984C530.315 311.09 535.434 309.143 542.079 309.143C548.623 309.143 553.682 311.12 557.255 315.075C560.829 319.029 562.615 324.6 562.615 331.787ZM529.01 331.787C529.01 337.207 530.104 341.323 532.292 344.133C534.48 346.924 537.722 348.319 542.018 348.319C546.294 348.319 549.516 346.934 551.685 344.163C553.873 341.393 554.967 337.267 554.967 331.787C554.967 326.387 553.883 322.292 551.715 319.501C549.567 316.711 546.355 315.316 542.079 315.316C537.763 315.316 534.5 316.711 532.292 319.501C530.104 322.292 529.01 326.387 529.01 331.787ZM579.267 330.312H584.266C587.619 330.312 590.048 329.689 591.553 328.445C593.059 327.2 593.812 325.353 593.812 322.904C593.812 320.415 592.999 318.628 591.373 317.544C589.747 316.46 587.297 315.918 584.025 315.918H579.267V330.312ZM579.267 336.274V353.859H572.071V309.835H584.507C590.188 309.835 594.394 310.899 597.124 313.027C599.854 315.155 601.219 318.367 601.219 322.663C601.219 328.143 598.369 332.048 592.667 334.377L605.104 353.859H596.913L586.374 336.274H579.267ZM646.568 353.859L633.801 317.092H633.56C633.901 322.553 634.072 327.672 634.072 332.45V353.859H627.537V309.835H637.685L649.911 344.856H650.092L662.679 309.835H672.856V353.859H665.931V332.088C665.931 329.9 665.981 327.049 666.081 323.536C666.202 320.023 666.302 317.895 666.382 317.152H666.141L652.922 353.859H646.568ZM711.762 353.859L707.365 341.634H690.532L686.226 353.859H678.638L695.109 309.655H702.939L719.41 353.859H711.762ZM705.468 335.431L701.343 323.446C701.042 322.643 700.62 321.378 700.078 319.652C699.556 317.925 699.195 316.661 698.994 315.858C698.452 318.327 697.659 321.027 696.615 323.958L692.64 335.431H705.468ZM761.898 353.859H753.076L731.425 318.779H731.184L731.335 320.736C731.616 324.47 731.756 327.882 731.756 330.974V353.859H725.222V309.835H733.954L755.545 344.735H755.725C755.685 344.274 755.605 342.597 755.485 339.707C755.364 336.796 755.304 334.527 755.304 332.901V309.835H761.898V353.859ZM788.729 353.859H781.532V316.008H768.583V309.835H801.677V316.008H788.729V353.859ZM835.764 353.859L831.368 341.634H814.535L810.229 353.859H802.64L819.112 309.655H826.941L843.413 353.859H835.764ZM829.471 335.431L825.345 323.446C825.044 322.643 824.622 321.378 824.08 319.652C823.558 317.925 823.197 316.661 822.996 315.858C822.454 318.327 821.661 321.027 820.617 323.958L816.643 335.431H829.471ZM874.609 341.905C874.609 345.819 873.194 348.891 870.363 351.119C867.532 353.347 863.628 354.462 858.649 354.462C853.671 354.462 849.596 353.689 846.424 352.143V345.338C848.431 346.281 850.559 347.024 852.808 347.566C855.076 348.108 857.184 348.379 859.131 348.379C861.982 348.379 864.08 347.837 865.425 346.753C866.79 345.669 867.472 344.213 867.472 342.387C867.472 340.74 866.85 339.345 865.605 338.201C864.361 337.057 861.791 335.702 857.897 334.136C853.882 332.51 851.051 330.653 849.405 328.565C847.759 326.477 846.936 323.968 846.936 321.037C846.936 317.363 848.241 314.472 850.85 312.365C853.46 310.257 856.963 309.203 861.359 309.203C865.575 309.203 869.771 310.126 873.946 311.973L871.658 317.845C867.743 316.199 864.25 315.376 861.179 315.376C858.85 315.376 857.084 315.888 855.879 316.912C854.675 317.915 854.072 319.25 854.072 320.917C854.072 322.061 854.313 323.044 854.795 323.868C855.277 324.671 856.07 325.433 857.174 326.156C858.278 326.879 860.265 327.832 863.136 329.017C866.368 330.362 868.737 331.616 870.243 332.781C871.748 333.945 872.852 335.26 873.555 336.725C874.258 338.191 874.609 339.917 874.609 341.905ZM926.462 353.859L922.066 341.634H905.233L900.927 353.859H893.339L909.81 309.655H917.639L934.111 353.859H926.462ZM920.169 335.431L916.043 323.446C915.742 322.643 915.321 321.378 914.779 319.652C914.257 317.925 913.895 316.661 913.695 315.858C913.153 318.327 912.36 321.027 911.316 323.958L907.341 335.431H920.169ZM976.599 353.859H967.776L946.126 318.779H945.885L946.035 320.736C946.316 324.47 946.457 327.882 946.457 330.974V353.859H939.922V309.835H948.655L970.246 344.735H970.426C970.386 344.274 970.306 342.597 970.185 339.707C970.065 336.796 970.005 334.527 970.005 332.901V309.835H976.599V353.859ZM1024.03 331.426C1024.03 338.693 1022.01 344.254 1017.97 348.108C1013.94 351.942 1008.13 353.859 1000.54 353.859H988.223V309.835H1001.83C1008.84 309.835 1014.29 311.722 1018.18 315.496C1022.08 319.27 1024.03 324.58 1024.03 331.426ZM1016.44 331.667C1016.44 321.127 1011.51 315.858 1001.65 315.858H995.419V347.807H1000.54C1011.14 347.807 1016.44 342.427 1016.44 331.667ZM1088.62 331.787C1088.62 338.954 1086.82 344.525 1083.23 348.499C1079.65 352.474 1074.58 354.462 1068.02 354.462C1061.38 354.462 1056.27 352.494 1052.69 348.56C1049.14 344.605 1047.36 338.994 1047.36 331.727C1047.36 324.46 1049.15 318.879 1052.72 314.984C1056.32 311.09 1061.44 309.143 1068.08 309.143C1074.62 309.143 1079.68 311.12 1083.26 315.075C1086.83 319.029 1088.62 324.6 1088.62 331.787ZM1055.01 331.787C1055.01 337.207 1056.11 341.323 1058.29 344.133C1060.48 346.924 1063.72 348.319 1068.02 348.319C1072.3 348.319 1075.52 346.934 1077.69 344.163C1079.87 341.393 1080.97 337.267 1080.97 331.787C1080.97 326.387 1079.88 322.292 1077.72 319.501C1075.57 316.711 1072.36 315.316 1068.08 315.316C1063.76 315.316 1060.5 316.711 1058.29 319.501C1056.11 322.292 1055.01 326.387 1055.01 331.787ZM1113.28 353.859H1106.08V316.008H1093.13V309.835H1126.23V316.008H1113.28V353.859ZM1167.72 353.859H1160.5V334.015H1140.2V353.859H1133V309.835H1140.2V327.842H1160.5V309.835H1167.72V353.859ZM1204.22 353.859H1179.32V309.835H1204.22V315.918H1186.51V327.903H1203.1V333.925H1186.51V347.747H1204.22V353.859ZM1220.96 330.312H1225.96C1229.31 330.312 1231.74 329.689 1233.25 328.445C1234.75 327.2 1235.5 325.353 1235.5 322.904C1235.5 320.415 1234.69 318.628 1233.07 317.544C1231.44 316.46 1228.99 315.918 1225.72 315.918H1220.96V330.312ZM1220.96 336.274V353.859H1213.76V309.835H1226.2C1231.88 309.835 1236.09 310.899 1238.82 313.027C1241.55 315.155 1242.91 318.367 1242.91 322.663C1242.91 328.143 1240.06 332.048 1234.36 334.377L1246.8 353.859H1238.61L1228.07 336.274H1220.96ZM1276.43 330.312H1281.43C1284.78 330.312 1287.21 329.689 1288.71 328.445C1290.22 327.2 1290.97 325.353 1290.97 322.904C1290.97 320.415 1290.16 318.628 1288.53 317.544C1286.91 316.46 1284.46 315.918 1281.19 315.918H1276.43V330.312ZM1276.43 336.274V353.859H1269.23V309.835H1281.67C1287.35 309.835 1291.55 310.899 1294.28 313.027C1297.01 315.155 1298.38 318.367 1298.38 322.663C1298.38 328.143 1295.53 332.048 1289.83 334.377L1302.26 353.859H1294.07L1283.53 336.274H1276.43ZM1335.99 353.859L1331.59 341.634H1314.76L1310.45 353.859H1302.87L1319.34 309.655H1327.17L1343.64 353.859H1335.99ZM1329.7 335.431L1325.57 323.446C1325.27 322.643 1324.85 321.378 1324.31 319.652C1323.78 317.925 1323.42 316.661 1323.22 315.858C1322.68 318.327 1321.89 321.027 1320.84 323.958L1316.87 335.431H1329.7ZM1361.89 329.92L1372.3 309.835H1380.13L1365.47 336.786V353.859H1358.24V337.027L1343.64 309.835H1351.47L1361.89 329.92ZM1411.33 341.905C1411.33 345.819 1409.92 348.891 1407.08 351.119C1404.25 353.347 1400.35 354.462 1395.37 354.462C1390.39 354.462 1386.32 353.689 1383.15 352.143V345.338C1385.15 346.281 1387.28 347.024 1389.53 347.566C1391.8 348.108 1393.91 348.379 1395.85 348.379C1398.7 348.379 1400.8 347.837 1402.15 346.753C1403.51 345.669 1404.19 344.213 1404.19 342.387C1404.19 340.74 1403.57 339.345 1402.33 338.201C1401.08 337.057 1398.51 335.702 1394.62 334.136C1390.6 332.51 1387.77 330.653 1386.13 328.565C1384.48 326.477 1383.66 323.968 1383.66 321.037C1383.66 317.363 1384.96 314.472 1387.57 312.365C1390.18 310.257 1393.68 309.203 1398.08 309.203C1402.3 309.203 1406.49 310.126 1410.67 311.973L1408.38 317.845C1404.47 316.199 1400.97 315.376 1397.9 315.376C1395.57 315.376 1393.81 315.888 1392.6 316.912C1391.4 317.915 1390.79 319.25 1390.79 320.917C1390.79 322.061 1391.03 323.044 1391.52 323.868C1392 324.671 1392.79 325.433 1393.9 326.156C1395 326.879 1396.99 327.832 1399.86 329.017C1403.09 330.362 1405.46 331.616 1406.96 332.781C1408.47 333.945 1409.57 335.26 1410.28 336.725C1410.98 338.191 1411.33 339.917 1411.33 341.905Z" fill="white"/>
</g>
<defs>
<clipPath id="clip0">
<rect width="2000" height="492.6" fill="white"/>
</clipPath>
</defs>
</svg>
