<?xml version="1.0" encoding="UTF-8" standalone="no"?>
<!-- Generator: Adobe Illustrator 19.0.0, SVG Export Plug-In . SVG Version: 6.00 Build 0)  -->

<svg
   xmlns:dc="http://purl.org/dc/elements/1.1/"
   xmlns:cc="http://creativecommons.org/ns#"
   xmlns:rdf="http://www.w3.org/1999/02/22-rdf-syntax-ns#"
   xmlns:svg="http://www.w3.org/2000/svg"
   xmlns="http://www.w3.org/2000/svg"
   xmlns:sodipodi="http://sodipodi.sourceforge.net/DTD/sodipodi-0.dtd"
   xmlns:inkscape="http://www.inkscape.org/namespaces/inkscape"
   version="1.1"
   id="Layer_1"
   x="0px"
   y="0px"
   viewBox="0 504.4 2000 492.6"
   style="enable-background:new 0 504.4 2000 492.6;"
   xml:space="preserve"
   inkscape:version="0.92.3 (2405546, 2018-03-11)"
   sodipodi:docname="wildbook_logo_white.svg"
   inkscape:export-filename="C:\github-shepherd\src\main\webapp\cust\mantamatcher\img\wildbook_logo_white.png"
   inkscape:export-xdpi="120.952"
   inkscape:export-ydpi="120.952"><metadata
     id="metadata3517"><rdf:RDF><cc:Work
         rdf:about=""><dc:format>image/svg+xml</dc:format><dc:type
           rdf:resource="http://purl.org/dc/dcmitype/StillImage" /><dc:title /></cc:Work></rdf:RDF></metadata><defs
     id="defs3515"><clipPath
       id="clipPath35248"
       clipPathUnits="userSpaceOnUse"><path
         inkscape:connector-curvature="0"
         id="path35246"
         d="m 0,0 0,1417 1701,0 0,-1417 z" /></clipPath><clipPath
       id="clipPath35248-4"
       clipPathUnits="userSpaceOnUse"><path
         inkscape:connector-curvature="0"
         id="path35246-0"
         d="m 0,0 0,1417 1701,0 0,-1417 z" /></clipPath></defs><sodipodi:namedview
     pagecolor="#212121"
     bordercolor="#666666"
     borderopacity="1"
     objecttolerance="10"
     gridtolerance="10"
     guidetolerance="10"
     inkscape:pageopacity="0.39215686"
     inkscape:pageshadow="2"
     inkscape:window-width="3840"
     inkscape:window-height="2004"
     id="namedview3513"
     showgrid="false"
     inkscape:zoom="0.96102398"
     inkscape:cx="896.91571"
     inkscape:cy="218.9221"
     inkscape:window-x="-16"
     inkscape:window-y="-16"
     inkscape:window-maximized="1"
     inkscape:current-layer="g4163" /><style
     type="text/css"
     id="style3337">
	.st0{display:none;}
	.st1{display:inline;fill:#D80E0E;}
	.st2{display:inline;fill:#393A3A;}
	.st3{display:inline;fill:none;stroke:#000000;stroke-miterlimit:10;}
	.st4{fill:#FFFFFF;}
	.st5{fill:#504F4E;}
	.st6{fill:none;stroke:#9BCA3B;stroke-width:12;stroke-miterlimit:10;}
	.st7{fill:none;stroke:#9BCA3B;stroke-width:12;stroke-miterlimit:10;stroke-dasharray:20.6869,20.6869;}
	.st8{fill:none;stroke:#9BCA3B;stroke-width:12;stroke-miterlimit:10;stroke-dasharray:19.0275,19.0275;}
	.st9{fill:none;stroke:#9BCA3B;stroke-width:12;stroke-miterlimit:10;stroke-dasharray:20.6871,20.6871;}
	.st10{fill:none;stroke:#9BCA3B;stroke-width:12;stroke-miterlimit:10;stroke-dasharray:19.0276,19.0276;}
	.st11{fill:none;}
	.st12{enable-background:new    ;}
	.st13{display:none;fill:#D80E0E;}
</style><g
     id="Layer_2_1_"
     class="st0"><rect
       x="-192.3"
       y="545.1"
       class="st1"
       width="2265.2"
       height="1536.2"
       id="rect3340" /></g><g
     id="Layer_1_1_"><g
       id="Layer_5"
       class="st0"><rect
         x="-95.4"
         y="375.7"
         class="st2"
         width="2172.4"
         height="724.3"
         id="rect3344" /></g><g
       id="Layer_2"
       class="st0"><path
         class="st3"
         d="M1572.8,847.6c47.4-25.3,167-71,212-35.7c15.6,12.2,27.5,42.5,59.7,57.6s76.9,9,76.9,9s2.4-0.7,2.6-3.8    s-2.8-2.8-2.8-2.8s-67.7-6.2-85.2-28.8s-24-45-24-45s-15.7-77.4,6.9-149.9s23.7-146.1,85.4-168.2c0,0,3.1-3.6,0.5-5.7    s-37-14.9-74.6,0.5c-33.6,13.8-148.2,66.1-169.8,64.3c-6.6-0.5-45.1-9-50.4-11.8c-52-27.8-73.3-62.2-81-51.7    c-12.7,17.7,83,79.9,48.1,111.8c-18.9,17.2-42.2,6.7-60.7-8.2c-8.7-7.1-39.1-41.7-61.7-34c-22.6,7.7,44.8,66.6,56.3,77.2    c8.5,7.8,13.7,18.6,16.8,34c2.3,11.3,5.5,24.3-1.5,44.8c0,0-55,109.1-49.4,183.1c5.6,74,15.4,50.9,15.4,50.9    S1496.8,888.2,1572.8,847.6z"
         id="path3347" /></g><g
       inkscape:label="title"
       id="layer1"
       inkscape:groupmode="layer"
       transform="translate(-8,0)"><g
         id="text3524"
         style="font-style:normal;font-variant:normal;font-weight:bold;font-stretch:normal;font-size:180px;line-height:125%;font-family:Multicolore;-inkscape-font-specification:'Multicolore Bold';letter-spacing:0px;word-spacing:0px;fill:#ffffff;fill-opacity:1;stroke:none;stroke-width:1px;stroke-linecap:butt;stroke-linejoin:miter;stroke-opacity:1" /></g><rect
       x="-121.1"
       y="-173.4"
       class="st13"
       width="2195.2"
       height="1848.2"
       id="rect3511" /><g
       id="g4163"><rect
         x="-16.799999"
         y="602.70001"
         class="st11"
         width="2012.8"
         height="206"
         id="rect3435"
         style="fill:none" /><g
         id="text3537"
         style="font-style:normal;font-weight:normal;font-size:258.65286255px;line-height:125%;font-family:sans-serif;letter-spacing:0px;word-spacing:0px;fill:#000000;fill-opacity:1;stroke:none;stroke-width:1px;stroke-linecap:butt;stroke-linejoin:miter;stroke-opacity:1"
         transform="matrix(0.97983135,0,0,1.0205838,0.35897,73.299904)"><path
           inkscape:connector-curvature="0"
           id="path3615"
           style="font-style:normal;font-variant:normal;font-weight:bold;font-stretch:normal;font-family:Multicolore;-inkscape-font-specification:'Multicolore Bold';fill:#ffffff"
           d="m 150.1004,586.28964 c -6.72498,-15.77783 -23.02011,-15.00187 -29.22778,0.77595 L 75.091066,693.63057 36.810442,587.06559 C 30.085468,566.63202 -2.7634457,575.16756 4.9961402,598.44632 L 55.174796,739.41213 c 4.138445,11.38073 8.794197,17.5884 17.847047,17.5884 9.311503,0 13.708602,-6.20767 18.364353,-17.07109 l 42.936374,-100.61597 45.0056,102.16788 c 5.17306,9.31151 8.01824,15.00187 17.32974,15.00187 8.7942,0 13.1913,-4.3971 17.84705,-19.14031 l 51.21327,-138.89659 c 7.75958,-22.5028 -23.53741,-32.33161 -31.297,-11.38073 l -38.53928,106.56498 z" /><path
           inkscape:connector-curvature="0"
           id="path3617"
           style="font-style:normal;font-variant:normal;font-weight:bold;font-stretch:normal;font-family:Multicolore;-inkscape-font-specification:'Multicolore Bold';fill:#ffffff"
           d="m 292.21802,739.67078 c 0,21.9855 34.14218,21.46819 34.14218,0 V 591.98 c 0,-21.98549 -34.14218,-21.20954 -34.14218,0 z" /><path
           inkscape:connector-curvature="0"
           id="path3619"
           style="font-style:normal;font-variant:normal;font-weight:bold;font-stretch:normal;font-family:Multicolore;-inkscape-font-specification:'Multicolore Bold';fill:#ffffff"
           d="m 364.66911,739.67078 c 0,9.31151 7.24228,15.77783 16.29513,15.77783 h 85.6141 c 25.86529,0 25.34798,-33.88353 0,-33.88353 H 396.22476 V 591.98 c 0,-8.53555 -6.98363,-15.77783 -15.26052,-15.77783 -9.05285,0 -16.29513,7.24228 -16.29513,15.77783 z" /><path
           inkscape:connector-curvature="0"
           id="path3621"
           style="font-style:normal;font-variant:normal;font-weight:bold;font-stretch:normal;font-family:Multicolore;-inkscape-font-specification:'Multicolore Bold';fill:#ffffff"
           d="m 589.26064,608.01648 c 72.9401,0 69.83627,115.87648 0,115.87648 H 546.32426 V 608.01648 Z m 2.32787,147.43213 c 113.28995,0 115.87648,-178.98778 -2.32787,-178.98778 h -59.23151 c -8.53554,0 -17.84705,6.72497 -17.84705,16.03647 v 146.91483 c 0,11.38073 9.31151,16.03648 17.84705,16.03648 z" /><path
           inkscape:connector-curvature="0"
           id="path3623"
           style="font-style:normal;font-variant:normal;font-weight:bold;font-stretch:normal;font-family:Multicolore;-inkscape-font-specification:'Multicolore Bold';fill:#ffffff"
           d="m 813.99357,625.86352 c 0,13.70861 -6.98363,20.69223 -18.1057,20.69223 h -54.57576 v -38.53927 h 54.57576 c 11.12207,0 18.1057,9.3115 18.1057,17.84704 z m -9.57016,129.58509 c 38.79793,0 58.97285,-24.31337 58.97285,-54.05845 0,-19.14031 -9.05285,-34.91814 -29.48642,-42.93638 10.86342,-9.57015 14.2259,-20.95088 14.2259,-32.59026 0,-26.38259 -18.36435,-49.40269 -52.24787,-49.40269 h -72.68146 c -9.3115,0 -15.77782,6.72497 -15.77782,16.03647 v 146.91483 c 0,9.05285 6.46632,16.03648 15.77782,16.03648 z m -63.1113,-77.33721 c 20.43358,0 43.45368,0 63.1113,0 30.00373,0 30.00373,45.78156 0,45.78156 h -63.1113 z" /><path
           inkscape:connector-curvature="0"
           id="path3625"
           style="font-style:normal;font-variant:normal;font-weight:bold;font-stretch:normal;font-family:Multicolore;-inkscape-font-specification:'Multicolore Bold';fill:#ffffff"
           d="m 1077.7427,664.92011 c 0,-61.30073 -47.3335,-92.59773 -92.59773,-94.9256 -47.85078,0 -97.51213,31.29699 -97.51213,94.9256 0,63.36995 49.66135,95.18425 97.51213,93.11503 45.26423,0 92.59773,-31.81431 92.59773,-93.11503 z m -33.8835,0 c 0,40.6085 -31.8143,61.30072 -61.55941,61.30072 -28.96912,0 -60.52477,-20.69222 -60.52477,-61.30072 0,-40.86716 31.55565,-61.30073 60.52477,-61.30073 29.74511,0 61.55941,20.43357 61.55941,61.30073 z" /><path
           inkscape:connector-curvature="0"
           id="path3627"
           style="font-style:normal;font-variant:normal;font-weight:bold;font-stretch:normal;font-family:Multicolore;-inkscape-font-specification:'Multicolore Bold';fill:#ffffff"
           d="m 1292.95,664.92011 c 0,-61.30073 -47.3334,-92.59773 -92.5977,-94.9256 -47.8508,0 -97.5121,31.29699 -97.5121,94.9256 0,63.36995 49.6613,95.18425 97.5121,93.11503 45.2643,0 92.5977,-31.81431 92.5977,-93.11503 z m -33.8835,0 c 0,40.6085 -31.8143,61.30072 -61.5594,61.30072 -28.9691,0 -60.5247,-20.69222 -60.5247,-61.30072 0,-40.86716 31.5556,-61.30073 60.5247,-61.30073 29.7451,0 61.5594,20.43357 61.5594,61.30073 z" /><path
           inkscape:connector-curvature="0"
           id="path3629"
           style="font-style:normal;font-variant:normal;font-weight:bold;font-stretch:normal;font-family:Multicolore;-inkscape-font-specification:'Multicolore Bold';fill:#ffffff"
           d="m 1440.9074,749.49959 c 10.3462,16.55379 43.4537,1.03461 27.9346,-20.43357 l -60.5248,-73.19876 c 16.5538,-18.1057 34.4008,-34.14218 49.6613,-52.24788 7.2423,-6.98363 7.2423,-16.03648 0,-23.02011 -6.4663,-6.46632 -15.5191,-8.53554 -24.572,0 l -74.7507,77.07856 V 591.98 c 0,-22.76145 -34.1421,-21.98549 -34.1421,0 0,49.92 0,98.02943 0,147.69078 0,21.72684 34.1421,21.46819 34.1421,0 v -36.2114 l 24.5721,-27.15855 z" /></g><path
         inkscape:connector-curvature="0"
         d="m 48.256173,759.74594 c -0.326748,1.28302 0.258676,2.61114 1.3138,2.96631 1.068739,0.37731 2.191936,-0.35517 2.518684,-1.63108 0.313134,-1.26721 -0.265483,-2.59532 -1.334222,-2.9758 -1.055124,-0.352 -2.171514,0.37415 -2.498262,1.64057"
         style="fill:#000000;fill-opacity:1;fill-rule:nonzero;stroke:none"
         id="path35262" /></g></g></svg>