<?xml version="1.0" encoding="utf-8"?>
<!-- Generator: Adobe Illustrator 17.0.2, SVG Export Plug-In . SVG Version: 6.00 Build 0)  -->
<!DOCTYPE svg PUBLIC "-//W3C//DTD SVG 1.1//EN" "http://www.w3.org/Graphics/SVG/1.1/DTD/svg11.dtd">
<svg version="1.1" id="Layer_1" xmlns="http://www.w3.org/2000/svg" xmlns:xlink="http://www.w3.org/1999/xlink" x="0px" y="0px"
	 width="210px" height="314px" viewBox="0 0 210 314" enable-background="new 0 0 210 314" xml:space="preserve">
<g>
	<g>
		<path d="M73.533,256.304c-1.918,0-3.515,1.215-4.138,2.866l-8.411,21.287l-0.745,2.423l-0.666-2.465L53.058,259.7
			c0-0.073-0.052-0.146-0.075-0.185v-0.044c-0.606-1.745-2.25-2.969-4.157-2.969H38.324c-2.366,0.121-4.237,2.052-4.237,4.431
			c0,0.634,0.302,1.474,0.498,2.263l1.373,4.331l-5.146,12.956l-0.815,2.397l-0.662-2.423L22.853,259.7
			c-0.067-0.073-0.067-0.146-0.075-0.185v-0.044c-0.619-1.745-2.287-2.969-4.162-2.969H8.104c-2.319,0.121-4.228,2.052-4.228,4.431
			c0,0.634,0.248,1.474,0.515,2.263l15.723,46.867c0.476,1.914,2.243,3.328,4.28,3.328c1.991,0,3.661-1.293,4.204-3.091
			l11.015-27.787l0.814-2.482l0.658,2.448l9.266,27.584c0.479,1.914,2.203,3.328,4.289,3.328c2.019,0,3.689-1.345,4.26-3.224
			l18.633-47.476c0.271-0.59,0.448-1.236,0.448-1.905C77.981,258.308,75.971,256.304,73.533,256.304"/>
		<path d="M151.888,256.304c-1.914,0-3.543,1.215-4.168,2.866l-8.365,21.287l-0.815,2.423l-0.608-2.465l-6.551-20.715
			c0-0.073,0-0.146-0.026-0.185v-0.044c-0.629-1.745-2.293-2.969-4.202-2.969h-10.5c-2.349,0.121-4.217,2.052-4.217,4.431
			c0,0.634,0.245,1.474,0.521,2.263l1.369,4.331l-5.163,12.956l-0.843,2.397l-0.638-2.423l-6.467-20.757
			c-0.069-0.073-0.069-0.146-0.108-0.185v-0.044c-0.597-1.745-2.241-2.969-4.132-2.969H86.451c-2.384,0.121-4.246,2.052-4.246,4.431
			c0,0.634,0.299,1.474,0.509,2.263l15.772,46.867c0.472,1.914,2.192,3.328,4.261,3.328c1.959,0,3.633-1.293,4.226-3.091
			l11.003-27.787l0.761-2.482l0.698,2.448l9.239,27.584c0.496,1.914,2.233,3.328,4.293,3.328c2.017,0,3.737-1.345,4.284-3.224
			l18.637-47.476c0.271-0.59,0.431-1.236,0.431-1.905C156.319,258.308,154.319,256.304,151.888,256.304"/>
		<path d="M202.769,256.408h-36.735c-2.125,0-3.823,1.703-3.823,3.849l-0.005,0.008v9.293v39.48c0,0.039,0-0.017,0,0h0.005
			c0.099,2.207,1.909,4,4.125,4h10.413c2.241-0.056,4-1.836,4.06-4.12v-22.783c0,0,14.913-0.043,14.982-0.043
			c2.185-0.018,3.944-1.798,3.944-4.035c0-2.189-1.789-4.012-4.035-4.012h-14.874l-0.017-13.034h22.175
			c2.285-0.103,4.104-1.987,4.104-4.31C207.088,258.317,205.135,256.408,202.769,256.408"/>
		<path d="M145.802,100.904c6.681,7.487,7.388,29.763,24.197,20.9c10.094-5.319,9.956-27.796-3.517-35.912
			c-10.892-6.437-16.865,2.245-20.809,12.913C145.371,99.637,145.345,100.472,145.802,100.904"/>
		<path d="M119.701,97.345c-7.019,5.816-11.84,21.777-24.764,16.363c-10.428-5.316-11.434-25.992,6.552-35.552
			c12.54-5.764,18.908,5.659,18.983,17.773C120.472,96.356,120.058,96.991,119.701,97.345"/>
	</g>
	<g>
		<path d="M137.035,138.049c6.939-0.715,5.375-7.144,0.112-8.758c-4.689-1.398-11.822-2.31-16.848-2.22
			c-8.922,0.207-8.7,7.021-4.058,8.172c3.498,1.181,5.769,1.638,8.803,5.543C127.82,146.161,126.583,139.17,137.035,138.049"/>
		<path d="M169.762,22.935c8.719-14.499,23.865-11.693,31.477-4.459c8.344,7.851,9.689,16.924,6.486,23.307
			c-4.37,8.558-15.511,18.962-22.77,8.894c-3.202-4.44-10.021-9.752-13.727-11.286C165.521,36.985,164.435,31.836,169.762,22.935"/>
		<path d="M204.436,86.897c-0.776-2.565-2.06-2.427-2-0.302c0.698,26.44-15.068,54.764-48.876,54.954
			c-8.629,0.017-6.043,13.852-21.8,6.896c-11.364-7.66-17.864,7.43-25.954-8.814c-1.76-4.685-4.435-6.543-7.876-7.403
			c-33.358-8.267-43.998-54.184-14.599-91.257c5.819,3.469,7.953,4.006,14.159-1.683c3.218-2.989,8.661-6.295,11.622-7.381
			c7.058-2.703,10.896-5.713,4.784-19.199C106.041-4.798,89.98,0.144,82.629,6.202c-8.275,6.842-14.109,17.86-3.424,30.836
			C49.306,57.192,44.192,81.962,44.879,103.48c0.712,22.895-5.152,20.947,2.153,44.249c0.655,2.034-0.784,1.992-1.875,1.332
			C13.993,129.116-2.836,68.297,45.715,34.764c1.08-0.98,0.64-2.249-3.347,0.084C0.341,57.074-3.521,100.123,3.446,129.116
			c3.412,14.045-1.769,16.631,3.677,35.082c12.508,38.459,23.171,41.493,38.232,42.614c27.417,0,8.823-15.124,9.832-34.119
			c0-1.112,1.345-1.646,2.122,0.642c15.09,33.839,25.74,64.621,65.41,61.751c22.953-2.996,10.213-14.396,8.821-20.861
			c-16.896-56.026,24.08-69.237,12.486-14.607c-7.655,31.291,16.538,28.153,33.584,16.93
			C195.195,205.006,217.168,128.825,204.436,86.897 M137.63,153.173c-3.797,10.047-23.512,6.603-24.126-3.12
			c0-0.388,0.524-0.307,0.759-0.255c8.782,2.06,17.117,3.026,22.781,3.004C137.25,152.802,137.72,152.682,137.63,153.173"/>
	</g>
	<g>
		<path d="M49.629,221.082c0,4.064-3.312,7.34-7.353,7.34c-4.045,0-7.327-3.276-7.327-7.34c0-4.026,3.282-7.319,7.327-7.319
			C46.317,213.763,49.629,217.056,49.629,221.082 M42.276,212.302c-4.84,0-8.801,3.948-8.801,8.78c0,4.866,3.961,8.818,8.801,8.818
			c4.875,0,8.78-3.952,8.78-8.818C51.056,216.25,47.151,212.302,42.276,212.302"/>
		<path d="M44.791,222.457c-0.17,1.065-1.069,1.806-2.287,1.806c-1.687,0-2.764-1.496-2.764-3.198c0-1.789,0.965-3.12,2.756-3.12
			c1.185,0,2.054,0.685,2.295,1.732h1.235c-0.218-1.944-1.737-3.03-3.569-3.03c-2.623,0-4.133,1.905-4.133,4.418
			s1.638,4.431,4.18,4.431c1.785,0,3.211-1.147,3.576-3.039H44.791z"/>
		<path d="M204.247,242.085c0,4.056-3.31,7.349-7.344,7.349c-4.095,0-7.375-3.293-7.375-7.349c0-4.051,3.28-7.322,7.375-7.322
			C200.937,234.763,204.247,238.034,204.247,242.085 M196.903,233.28c-4.901,0-8.81,3.94-8.81,8.805c0,4.88,3.909,8.789,8.81,8.789
			c4.819,0,8.775-3.909,8.775-8.789C205.678,237.22,201.722,233.28,196.903,233.28"/>
		<path d="M195.368,242.672h1.435l2.216,3.581h1.379l-2.375-3.672c1.237-0.155,2.164-0.797,2.164-2.254
			c0-1.659-0.957-2.371-2.918-2.371h-3.194v8.297h1.293V242.672 M195.368,241.581V239h1.694c0.883,0,1.814,0.224,1.814,1.232
			c0,1.293-0.931,1.349-2.026,1.349H195.368z"/>
	</g>
	<path fill="#BBB8B7" d="M153.434,7.347"/>
</g>
</svg>
