<?xml version="1.0" encoding="utf-8"?>
<!-- Generator: Adobe Illustrator 23.0.1, SVG Export Plug-In . SVG Version: 6.00 Build 0)  -->
<svg version="1.1" id="Warstwa_1" xmlns="http://www.w3.org/2000/svg" xmlns:xlink="http://www.w3.org/1999/xlink" x="0px" y="0px"
	 viewBox="0 0 172 32" style="enable-background:new 0 0 172 32;" xml:space="preserve">
<style type="text/css">
	.st0{fill:#1D1D1B;}
	.st1{fill:#00B0E0;}
</style>
<g>
	<path class="st0" d="M26.395052,7.8915501c-4.5195007,0-8.1826,3.6636-8.1826,8.1830997s3.6630993,8.1830997,8.1826,8.1830997
		c2.2598057,0,4.3057003-0.9160004,5.7861004-2.3969002l-1.904295-1.9042988
		c-0.9931068,0.9935989-2.3662052,1.6078987-3.8818054,1.6078987c-2.5790997,0-4.7421951-1.7792988-5.3309994-4.1772995H34.577652
		v-1.3325005c0-0.0067997,0-0.0131989-0.0009003-0.0199986C34.5552521,11.5341501,30.9009514,7.8915501,26.395052,7.8915501z
		 M26.395052,10.5849504c2.5790997,0,4.7421989,1.7792997,5.3310986,4.1776991H21.0640526
		C21.6528568,12.3642502,23.8159523,10.5849504,26.395052,10.5849504z"/>
	<path class="st0" d="M43.6460495,7.8915501c-4.5194969,0-8.1825981,3.6636-8.1825981,8.1830997
		s3.6631012,8.1830997,8.1825981,8.1830997c2.2598076,0,4.3057022-0.9160004,5.7861023-2.3969002l-1.9042931-1.9042988
		c-0.9931068,0.9935989-2.3652077,1.6078987-3.8818092,1.6078987c-2.5790977,0-4.7421913-1.7792988-5.3300972-4.1772995h13.5136986
		v-1.3915997c0-0.0264006-0.0028992-0.0527-0.0038986-0.0785999C51.7407494,11.4706497,48.1128578,7.8915501,43.6460495,7.8915501z
		 M43.6460495,10.5849504c2.580101,0,4.7422028,1.7792997,5.3310013,4.1776991H38.3159523
		C38.9038582,12.3642502,41.0669518,10.5849504,43.6460495,10.5849504z"/>
	<path class="st0" d="M147.4028625,20.5439491c-0.5010071,0-0.9189148,0.1689014-1.2558136,0.5048008
		c-0.3359985,0.3369999-0.5048981,0.7553997-0.5048981,1.2558994c0,0.5,0.1688995,0.9189014,0.5048981,1.2549
		c0.3368988,0.3369007,0.7548065,0.5054016,1.2558136,0.5054016c0.5,0,0.9189911-0.1685009,1.2548828-0.5054016
		c0.3368988-0.3359985,0.5059052-0.7549,0.5059052-1.2549c0-0.5004997-0.1690063-0.9188995-0.5059052-1.2558994
		C148.3218536,20.7128506,147.9028625,20.5439491,147.4028625,20.5439491z"/>
	<path class="st0" d="M169.2788544,1.3749501c-0.5,0-0.9188995,0.1684999-1.2549133,0.5049
		c-0.3368988,0.3368999-0.5048981,0.7554001-0.5048981,1.2554001c0,0.5005,0.1679993,0.9189,0.5048981,1.2553
		c0.3360138,0.3369999,0.7549133,0.5049,1.2549133,0.5049s0.9188995-0.1679001,1.2558899-0.5049
		c0.335907-0.3364,0.5048065-0.7548001,0.5048065-1.2553c0-0.5-0.1688995-0.9185002-0.5048065-1.2554001
		C170.1977539,1.54345,169.7788544,1.3749501,169.2788544,1.3749501z"/>
	<g>
		<path class="st0" d="M59.0552521,27.1591492h2.0116997c0.785099,0,1.2665977,0.4741001,1.2665977,1.1514015
			c0,0.5688-0.3798981,0.9476986-0.7929993,1.0360985c0.4814987,0.0742016,0.8809013,0.5688,0.8809013,1.1103001
			c0,0.7247009-0.4815025,1.2193012-1.3075943,1.2193012h-2.0586052V27.1591492z M60.9722519,29.1161499
			c0.5077972,0,0.7782974-0.3115005,0.7782974-0.7245998c0-0.4062004-0.2705002-0.7313995-0.7782974-0.7313995h-1.3544998v1.4559994
			H60.9722519z M60.9995499,31.1752491c0.5283089,0,0.8398018-0.2982998,0.8398018-0.7792988
			c0-0.4125996-0.2851028-0.778801-0.8398018-0.778801h-1.3817978v1.5580997H60.9995499z"/>
		<path class="st0" d="M66.9585495,27.1591492h0.5625v4.5171013h-0.5625V27.1591492z"/>
		<path class="st0" d="M74.3608551,27.0844498c0.7997971,0,1.3544922,0.3525009,1.7538986,0.8467007L75.6684494,28.20895
			c-0.2851028-0.3656998-0.7655945-0.6231003-1.3075943-0.6231003c-0.988205,0-1.7402039,0.7583008-1.7402039,1.835001
			c0,1.0702991,0.7519989,1.8422985,1.7402039,1.8422985c0.5419998,0,0.989296-0.2642002,1.2128983-0.4877987v-0.9209003h-1.5508041
			v-0.5009995h2.1123047v1.6318989c-0.4199066,0.4672012-1.0361023,0.778801-1.7743988,0.778801
			c-1.2861023,0-2.3222046-0.9414005-2.3222046-2.3432999C72.0386505,28.0190506,73.0747528,27.0844498,74.3608551,27.0844498z"/>
		<path class="st0" d="M86.084549,27.1591492h1.5438995c1.4024124,0,2.3164062,0.9819012,2.3164062,2.2617016
			c0,1.2866001-0.9139938,2.2553997-2.3164062,2.2553997H86.084549V27.1591492z M87.6284485,31.1752491
			c1.097702,0,1.7334061-0.7855988,1.7334061-1.7543983c0-0.9751015-0.6162033-1.7607002-1.7334061-1.7607002h-0.982399v3.5150986
			H87.6284485z"/>
		<path class="st0" d="M97.0630493,30.6737499h-2.2891006l-0.4003983,1.0025005h-0.6220016l1.8143997-4.5171013h0.6973038
			l1.822197,4.5171013h-0.6230011L97.0630493,30.6737499z M94.9360504,30.1728497h1.9570999l-0.9747009-2.5126991
			L94.9360504,30.1728497z"/>
		<path class="st0" d="M102.9819489,27.6601505h-1.4286957v-0.5010014h3.426796v0.5010014h-1.4365997v4.0160999h-0.5615005
			V27.6601505z"/>
		<path class="st0" d="M111.759346,30.6737499h-2.289093l-0.4003983,1.0025005h-0.6229935l1.8153915-4.5171013h0.6972961
			l1.822197,4.5171013h-0.6229935L111.759346,30.6737499z M109.6323471,30.1728497h1.9570007l-0.9746017-2.5126991
			L109.6323471,30.1728497z"/>
		<path class="st0" d="M122.4663467,30.6127491c0.297905,0.3320007,0.785202,0.6436005,1.4219055,0.6436005
			c0.805603,0,1.0634995-0.4335995,1.0634995-0.7787991c0-0.5419998-0.5488968-0.691-1.1445999-0.8536015
			c-0.7246017-0.1893997-1.5302963-0.3924999-1.5302963-1.2797985c0-0.7451,0.6630936-1.2529011,1.5507965-1.2529011
			c0.6904984,0,1.2255936,0.2305012,1.6044998,0.6299l-0.3388062,0.4131012
			c-0.3378983-0.3726006-0.8124847-0.5419998-1.306694-0.5419998c-0.5419998,0-0.9277039,0.2915001-0.9277039,0.7182999
			c0,0.4535999,0.5214996,0.5887985,1.0967026,0.7445984c0.738205,0.1963005,1.5781021,0.4267006,1.5781021,1.375
			c0,0.6567001-0.4473038,1.3271008-1.6660004,1.3271008c-0.785202,0-1.3614044-0.2978001-1.7334061-0.7176991
			L122.4663467,30.6127491z"/>
		<path class="st0" d="M129.834549,29.4208508c0-1.3882008,1.0223999-2.336401,2.3027039-2.336401
			c0.8192902,0,1.375,0.3862,1.7333984,0.894001l-0.4736023,0.2641983
			c-0.2577972-0.3793983-0.7245941-0.6567993-1.2597961-0.6567993c-0.968811,0-1.7207031,0.7583008-1.7207031,1.835001
			c0,1.0702991,0.7518921,1.8354988,1.7207031,1.8354988c0.535202,0,1.0019989-0.2709999,1.2597961-0.657299l0.4803925,0.2642002
			c-0.378891,0.5145988-0.9208984,0.8939991-1.7401886,0.8939991
			C130.8569489,31.7572498,129.834549,30.8090496,129.834549,29.4208508z"/>
		<path class="st0" d="M138.2388611,27.1591492h0.5624847v4.5171013h-0.5624847V27.1591492z"/>
		<path class="st0" d="M143.5015411,27.1591492h2.9589081v0.5010014h-2.3973999v1.4559994h2.3506012v0.5009995h-2.3506012v1.5580997
			h2.3973999v0.5010014h-2.9589081V27.1591492z"/>
		<path class="st0" d="M151.5601501,28.03265v3.6436005h-0.5615997v-4.5171013h0.5751953l2.6006012,3.5688v-3.5688h0.5625153
			v4.5171013h-0.5420074L151.5601501,28.03265z"/>
		<path class="st0" d="M159.2534485,29.4208508c0-1.3882008,1.023407-2.336401,2.3027039-2.336401
			c0.819397,0,1.375,0.3862,1.7333984,0.894001l-0.4736023,0.2641983c-0.2568054-0.3793983-0.7245941-0.6567993-1.2597961-0.6567993
			c-0.9676971,0-1.7197113,0.7583008-1.7197113,1.835001c0,1.0702991,0.7520142,1.8354988,1.7197113,1.8354988
			c0.535202,0,1.0029907-0.2709999,1.2597961-0.657299l0.4804993,0.2642002
			c-0.3789062,0.5145988-0.9208984,0.8939991-1.7402954,0.8939991
			C160.2768555,31.7572498,159.2534485,30.8090496,159.2534485,29.4208508z"/>
		<path class="st0" d="M167.6587524,27.1591492h2.9589996v0.5010014h-2.3975067v1.4559994h2.3506165v0.5009995h-2.3506165v1.5580997
			h2.3975067v0.5010014h-2.9589996V27.1591492z"/>
	</g>
	<path class="st0" d="M14.702652,0.23585V10.07125c-1.4598999-1.3521004-3.4120998-2.1796999-5.5586004-2.1796999
		c-4.5194993,0-8.1835995,3.6640997-8.1835995,8.1830997c0,4.5195007,3.6641002,8.1830997,8.1835995,8.1830997
		c2.1465006,0,4.0987005-0.8276005,5.5586004-2.1796989v2.1796989l2.6240997,0.0015011V0.23625L14.702652,0.23585z
		 M9.1440516,21.5644493c-3.0321941,0-5.4901943-2.4580002-5.4901943-5.4897995
		c0-3.0317001,2.4579999-5.4896994,5.4901943-5.4896994c3.0323,0,5.4893007,2.4579992,5.4893007,5.4896994
		C14.6333523,19.1064491,12.1763515,21.5644493,9.1440516,21.5644493z"/>
	<path class="st0" d="M60.8979492,7.8915501c-2.1463966,0-4.0995979,0.8275995-5.5585976,2.1796999V7.3285499l-2.625,0.0058999
		v24.3334999l2.625,0.0014v-9.5912991c1.4589996,1.3520985,3.4122009,2.1796989,5.5585976,2.1796989
		c4.5186005,0,8.1827011-3.663599,8.1827011-8.1830997C69.0806503,11.5556498,65.4165497,7.8915501,60.8979492,7.8915501z
		 M60.8979492,21.5644493c-3.0321999,0-5.4902-2.4580002-5.4902-5.4897995c0-3.0317001,2.4580002-5.4896994,5.4902-5.4896994
		c3.0312996,0,5.4893036,2.4579992,5.4893036,5.4896994C66.3872528,19.1064491,63.9292488,21.5644493,60.8979492,21.5644493z"/>
	<rect x="167.9673462" y="7.88135" class="st0" width="2.6240001" height="16.3771496"/>
	<path class="st0" d="M163.5679474,7.88135V10.07125c-1.4600067-1.3521004-3.4120941-2.1796999-5.5585938-2.1796999
		c-4.5196075,0-8.183609,3.6636-8.183609,8.1830997s3.6640015,8.1830997,8.183609,8.1830997
		c2.1464996,0,4.098587-0.8276005,5.5585938-2.1796989v2.1796989l2.6240082,0.0015011V7.88135H163.5679474z M158.0093536,21.5644493
		c-3.0323029,0-5.4903107-2.4580002-5.4903107-5.4897995c0-3.0317001,2.4580078-5.4896994,5.4903107-5.4896994
		c3.032196,0,5.4891968,2.4579992,5.4891968,5.4896994C163.4985504,19.1064491,161.0415497,21.5644493,158.0093536,21.5644493z"/>
	<g>
		<path class="st1" d="M99.7163467,16.0746498c0-4.5194998-3.6641006-8.1830997-8.1825943-8.1830997
			c-4.5195007,0-8.1836014,3.6636-8.1836014,8.1830997s3.6641006,8.1830997,8.1836014,8.1830997
			c2.2587967,0,4.3055954-0.9160004,5.7861023-2.3969002l-1.9043045-1.9042988
			c-0.9941025,0.9935989-2.3662033,1.6078987-3.8817978,1.6078987c-2.580101,0-4.7422028-1.7792988-5.3311005-4.1772995h13.5136948
			v-0.9092007V16.0746498z M91.5337524,10.5849504c2.5791016,0,4.7421951,1.7792997,5.3301086,4.1776991H86.202652
			C86.7915497,12.3642502,88.9536514,10.5849504,91.5337524,10.5849504z"/>
		<path class="st1" d="M80.0229492,15.5653496C78.334549,14.9159498,76.772049,14.9369497,75.27005,14.62885
			c-1.6435013-0.3139-2.4766006-0.7573004-2.4766006-1.9883003c0-0.7079992,0.3936005-1.2313995,1.2032013-1.6000996
			c0.6172104-0.2802,1.368103-0.4223003,2.2333984-0.4223003c0.8642044,0,1.6054001,0.1421003,2.2041016,0.4223003
			c0.8095016,0.3687,1.2041016,0.8921003,1.2041016,1.6000996v0.1128006h2.7646027v-0.1128006
			c0-1.4759998-0.6963043-2.6826-2.0713043-3.5864c-1.1875-0.7782993-2.5672989-1.1727996-4.1015015-1.1727996
			c-1.5741882,0-2.9541016,0.395-4.1016006,1.1722999c-1.375,0.8838005-2.0712967,2.0908003-2.0712967,3.5868998
			c0,1.9473,0.8779984,3.2744999,2.6161957,3.9453001c0.1201019,0.0405998,0.5635071,0.2198009,1.3545074,0.3852997
			c0.8134918,0.1709003,1.9638977,0.3189011,3.4218979,0.6172009c1.6240005,0.3139992,2.4472961,0.6044998,2.4472961,1.8915997
			c0,1.3612995-1.199295,2.0228996-3.6669998,2.0228996c-1,0-1.7901001-0.1229992-2.3544998-0.3675995
			c-0.9032974-0.3500996-1.3417969-0.8910999-1.3417969-1.6553001v-0.1128006h-2.7373047V19.47995
			c0,1.5160999,0.7265015,2.7427006,2.1621017,3.6469994c0.6211014,0.3686008,1.2900009,0.653801,1.9902039,0.8486004
			c0.7001953,0.1938,1.4677963,0.2924995,2.2812958,0.2924995c0.8134003,0,1.5761032-0.0986996,2.2666016-0.2929993
			c0.6903992-0.1942997,1.3544998-0.4794998,1.9775009-0.8500996c1.4336014-0.9027996,2.160202-2.1289005,2.160202-3.6450005
			C82.6343536,17.5522499,81.7563477,16.2323494,80.0229492,15.5653496z"/>
		<path class="st1" d="M144.9653473,16.0746498c0-4.5194998-3.6631012-8.1830997-8.1826019-8.1830997
			s-8.1835938,3.6636-8.1835938,8.1830997s3.664093,8.1830997,8.1835938,8.1830997
			c2.2597961,0,4.3057098-0.9160004,5.7861176-2.3969002l-1.9043121-1.9042988
			c-0.993103,0.9935989-2.3661957,1.6078987-3.8818054,1.6078987c-2.5800934,0-4.7422028-1.7792988-5.3309937-4.1772995h13.5135956
			v-0.9092007V16.0746498z M136.7827454,10.5849504c2.5791168,0,4.7422028,1.7792997,5.3301086,4.1776991h-10.6611023
			C132.0405426,12.3642502,134.202652,10.5849504,136.7827454,10.5849504z"/>
		<path class="st1" d="M125.3852463,15.5653496c-1.688385-0.6493998-3.2509003-0.6283998-4.7528992-0.9364996
			c-1.643486-0.3139-2.4764862-0.7573004-2.4764862-1.9883003c0-0.7079992,0.393486-1.2313995,1.2030869-1.6000996
			c0.6172028-0.2802,1.368103-0.4223003,2.2333984-0.4223003c0.8633041,0,1.6045151,0.1421003,2.2041016,0.4223003
			c0.8095016,0.3687,1.2031021,0.8921003,1.2031021,1.6000996v0.1128006h2.7656021v-0.1128006
			c0-1.4759998-0.6972046-2.6826-2.0712967-3.5864c-1.1875076-0.7782993-2.5673065-1.1727996-4.1015091-1.1727996
			c-1.5741959,0-2.9550934,0.395-4.1016006,1.1722999c-1.375,0.8838005-2.0722961,2.0908003-2.0722961,3.5868998
			c0,1.9473,0.8789978,3.2744999,2.6172028,3.9453001c0.1202087,0.0405998,0.5634995,0.2198009,1.3544998,0.3852997
			c0.8125,0.1709003,1.9638977,0.3189011,3.4208984,0.6172009c1.625,0.3139992,2.4482956,0.6044998,2.4482956,1.8915997
			c0,1.3612995-1.1991959,2.0228996-3.6669998,2.0228996c-1,0-1.7910004-0.1229992-2.3544922-0.3675995
			c-0.9033051-0.3500996-1.3418045-0.8910999-1.3418045-1.6553001v-0.1128006h-2.7372971V19.47995
			c0,1.5160999,0.7264938,2.7427006,2.1621017,3.6469994c0.6200943,0.3686008,1.2900009,0.653801,1.9901962,0.8486004
			c0.7001953,0.1938,1.467804,0.2924995,2.2812958,0.2924995c0.8135147,0,1.5761032-0.0986996,2.2666016-0.2929993
			c0.6893997-0.1942997,1.3544998-0.4794998,1.9775009-0.8500996c1.4326019-0.9027996,2.1592026-2.1289005,2.1592026-3.6450005
			C127.9956512,17.5522499,127.1186523,16.2323494,125.3852463,15.5653496z"/>
		<path class="st1" d="M112.4780502,9.8275499c-1.1913986-1.3667002-2.6855011-2.059-4.4432983-2.059
			c-1.9493027,0-3.3672028,0.5721998-4.4463043,1.7978001V7.88135h-2.7372971v16.1836014l2.7372971,0.0014v-9.6343012
			c0-1.0790997,0.3867035-2.0135994,1.1494064-2.7768002c0.7636948-0.7631998,1.6981964-1.1498995,2.777298-1.1498995
			c1.0790939,0,2.0137024,0.3866997,2.7773972,1.1498995c0.7636032,0.7637005,1.1503983,1.6982002,1.1503983,2.7768002v9.6329012
			l2.7656021,0.0014v-9.6343012C114.2085495,12.6806498,113.6255493,11.1317501,112.4780502,9.8275499z"/>
	</g>
</g>
</svg>
