<svg id="svg2" xmlns="http://www.w3.org/2000/svg" viewBox="0 0 793 300" width="2500" height="946"><style>.st0{fill:#fff}.st1{fill:none}.st2{fill:#007ac2}</style><g id="layer1" transform="translate(21.483 -275.824)"><path id="path3" class="st0" d="M273.8 425.8c0 82.8-66.1 149.9-147.7 149.9S-21.5 508.5-21.5 425.8c0-82.8 66.1-149.9 147.6-149.9S273.8 343 273.8 425.8"/><path id="line7" class="st1" d="M25.8 417.6h18"/><path id="line9" class="st1" d="M48.9 413.4H30.5"/><path id="line11" class="st1" d="M173.7 413.4h-69.8"/><path id="line13" class="st1" d="M104.9 417.6h74.2"/><path id="line15" class="st1" d="M83.5 413.4H60"/><path id="line17" class="st1" d="M65.1 417.6h20.1"/><path id="line19" class="st1" d="M30 437.6h19.3"/><path id="line21" class="st1" d="M44 433.5H25.4"/><path id="line23" class="st1" d="M85.5 433.5H65"/><path id="line25" class="st1" d="M59.7 437.6h24.2"/><path id="line27" class="st1" d="M135.9 393.3H92.2"/><path id="line29" class="st1" d="M95.9 397.5h51.5"/><path id="line31" class="st1" d="M179.7 433.5h-74.6"/><path id="line33" class="st1" d="M104.2 437.6h70.2"/><path id="line35" class="st1" d="M148.6 453.5h-52"/><path id="line37" class="st1" d="M93.2 457.7h44"/><path id="path39" class="st2" d="M245.5 337.2H7.1C3.4 342.3 0 347.6-3 353.1h258.5c-3-5.5-6.3-10.8-10-15.9"/><path id="path41" class="st2" d="M126.3 575.8c25.2 0 48.9-6.4 69.7-17.7H56.6c20.8 11.3 44.5 17.7 69.7 17.7"/><path id="path43" class="st2" d="M135.2 373.2h129.5c-2-5.4-4.4-10.8-7-15.9H-5.1c-2.6 5.2-4.9 10.5-7 15.9h80.6c18.3-4.8 41-6.6 66.7 0"/><path id="path45" class="st2" d="M243.5 468.7c-4.1 3.4-10.1 2.8-13.5-1.2-.1-.1-3.3-4-8.6-9.7h-42.2c-9.8 6.8-19.7 12.5-29.3 16h116.4c1.7-5.2 3.2-10.5 4.3-16h-24.5c.5 1.2.7 2.4.7 3.6.1 2.7-1.1 5.4-3.3 7.3"/><path id="path47" class="st2" d="M88.1 462.4c14.3 1.7 30.8.9 49.1-4.8h-44c-1.6 1.8-3.3 3.4-5.1 4.8"/><path id="path49" class="st2" d="M43.9 469.2v-.1c-7.8-3.7-13.9-7.6-18.2-10.6-.3-.2-.7-.5-1-.7H-18c1.2 5.4 2.6 10.8 4.3 16h68.3c-3.6-1.4-7-2.8-10.1-4.3l-.6-.3"/><path id="path51" class="st2" d="M49.6 554c.1 0 .2-.1.4-.1h153.2c7.6-4.7 14.6-10 21.2-16h-196c6.5 6 13.6 11.4 21.2 16.1"/><path id="path53" class="st2" d="M6.7 513.8H246c3.7-5.1 7-10.4 10-15.9H-3.3c3 5.5 6.3 10.8 10 15.9"/><path id="path55" class="st2" d="M67.3 477.8h-79.7c2 5.5 4.3 10.8 6.9 15.9H258c2.6-5.2 4.9-10.5 6.9-15.9H136.5c-26.9 7-50.3 5.1-69.2 0"/><path id="path57" class="st2" d="M228.1 317.1H24.5c-5.1 5-9.9 10.3-14.3 16h232.1c-4.3-5.7-9.1-11-14.2-16"/><path id="path59" class="st2" d="M24.2 534.1c.3-.2.6-.3 1-.3h203.6c5.1-5 9.8-10.3 14.1-15.9H9.7c4.5 5.8 9.3 11.2 14.5 16.2"/><path id="path61" class="st2" d="M202 297c-.1 0-.2.1-.4.1H50.5c-7.6 4.7-14.8 10-21.5 15.9h194.6c-6.7-6-13.9-11.3-21.6-16"/><path id="path63" class="st2" d="M203.1 412.7c5.8-5.5 10.9-10.8 15.1-15.3h-33.9c6.5 4.9 12.9 10.1 18.8 15.3"/><path id="path65" class="st2" d="M147.4 397.5H95.9c3.6 4.7 6.4 10.1 8.1 15.9h69.8c-8.8-6.5-17.8-12.2-26.4-15.9"/><path id="path67" class="st2" d="M273.5 413.4c-.4-5.4-1.1-10.7-2.1-15.9h-27.3c-1.7 2-7 8-14.6 15.9h44"/><path id="path69" class="st2" d="M54.5 412.2c2 0 3.9.4 5.5 1.2h23.5c-4.4-8.6-13.3-14.5-23.4-14.5-3.5 0-6.9.7-10.1 2l-.1-.2c-7.8 4-14.3 8.5-19.3 12.7H49c1.6-.8 3.5-1.2 5.5-1.2"/><path id="path71" class="st2" d="M19.8 397.5h-38.5c-1 5.2-1.7 10.5-2.1 15.9H4c4-5.5 9.8-11.1 15.8-15.9"/><path id="path73" class="st2" d="M54.5 438.7c-1.8 0-3.6-.4-5.2-1.1H30c5.3 4.4 12.3 9.4 20.9 13.6l1.6.4c3.2.9 5.1 1.4 7.4 1.4 10.6 0 19.6-6.4 23.9-15.5H59.7c-1.6.8-3.4 1.2-5.2 1.2"/><path id="path75" class="st2" d="M203.1 438.8c-5.8 5.1-11.9 10.1-18.2 14.8h32.6c-4.1-4.4-8.9-9.5-14.4-14.8"/><path id="path77" class="st2" d="M3.8 437.6h-24.7c.4 5.4 1.1 10.7 2 15.9h38.1c-5.9-4.7-11.6-10.3-15.4-15.9"/><path id="path79" class="st2" d="M271.5 453.5c1-5.2 1.6-10.5 2.1-15.9h-44.7c7 7.3 12.1 13.2 14.4 15.9h28.2"/><path id="path81" class="st2" d="M96.6 453.5h51.9c8.4-3.8 17.2-9.4 25.8-15.9h-70.1c-1.5 5.9-4.1 11.2-7.6 15.9"/><path id="path83" class="st2" d="M55.5 377.4h-69c-1.7 5.2-3.2 10.5-4.4 15.9h43.2c.5-.4 1.1-.8 1.6-1.1 6.1-4.2 15.9-10 28.6-14.8"/><path id="path85" class="st2" d="M178.5 393.3h43.6c4.9-5.3 7.8-8.7 7.9-8.9 3.4-4 9.4-4.5 13.5-1.1 2.2 1.9 3.4 4.6 3.4 7.3 0 .9-.1 1.8-.4 2.7h24c-1.2-5.4-2.7-10.7-4.4-15.9H148.5c1 .4 1.9.7 2.9 1.1 9 3.4 18.1 8.7 27.1 14.8"/><path id="path87" class="st2" d="M87.3 388.9c1.8 1.4 3.4 2.8 5 4.4h43.6c-18.1-5.5-34.5-6.2-48.6-4.4"/><path id="path89" class="st2" d="M217.2 425.8c2.7 2.6 5.3 5.2 7.7 7.7h49c.1-2.5.2-5.1.2-7.7 0-2.8-.1-5.6-.3-8.3h-48.3c-2.6 2.7-5.4 5.4-8.3 8.3"/><path id="path91" class="st2" d="M1.4 417.6h-22.6c-.1 2.7-.2 5.5-.2 8.3 0 2.6.1 5.1.2 7.7H1.3c-1.4-2.7-2.2-5.4-2.2-7.8 0-2.6.9-5.4 2.3-8.2"/><path id="path93" class="st2" d="M179.1 417.6h-74.2c.5 2.7.8 5.6.8 8.5 0 2.5-.2 5-.6 7.5h74.6c3.1-2.5 6.3-5.1 9.3-7.7-3.2-3-6.6-5.7-9.9-8.3"/><path id="path95" class="st2" d="M85.2 417.6H65.1c1.6 2.2 2.6 4.9 2.6 7.9s-1 5.8-2.7 8h20.5c.7-2.4 1-4.9 1-7.5 0-2.9-.4-5.8-1.3-8.4"/><path id="path97" class="st2" d="M41.2 425.4c0-3 1-5.7 2.6-7.9h-18c-3.6 3.4-5.9 6.2-7.1 8.2 1.1 1.8 3.3 4.6 6.6 7.8H44c-1.7-2.3-2.8-5.1-2.8-8.1"/><path id="path99" class="st2" d="M126.3 275.8c-24.7 0-48 6.2-68.5 17.1h137c-20.5-10.9-43.8-17.1-68.5-17.1"/><path id="path101" d="M351 331.7h13.1v70.5h-13.7l-10.2-25.1c-3.5-8.3-6.3-16.9-9.4-28h-.2c.4 5.8 1 13 1.4 20.1.4 7 .6 14.1.6 19.7v13.3h-13.1v-70.5h13.6l10.2 25.6c3.4 8.2 6.2 16.5 9.4 28h.2c-.5-6.4-1-13.3-1.3-20-.4-6.8-.6-13.6-.6-19.9v-13.7"/><path id="path103" d="M372.6 381.3c-.3 15.6 5.4 22.3 19.5 22.3 12.5 0 17.4-7.5 16.9-19.4h-12.2c.2 6.7-1.1 10-5.7 10-3.6 0-6.3-1.3-6.4-8.3v-7.7h24.4v-7.1c0-14.5-1.8-23.3-18.8-23.3-12 0-18.4 7.2-17.9 19.6v13.9m12.4-12.5v-2.1c0-4.8-.3-9.5 5.8-9.5 4.9 0 6.3 1.7 6.4 7.1v4.6l-12.2-.1z"/><path id="path105" d="M453.5 381.7c.7 3.8 1 7.5 1.2 11.4h.3c0-2.3.8-10.1 1.1-11.7l4-32.1h12.3l-10.7 53h-13.3l-4-21.4c-.9-4.4-1.2-8.8-1.6-13.3h-.4c-.2 4.3-.6 8.5-1.2 12.6l-3.8 22.2h-13.6l-10.9-53h12.9l4.3 32.3c.3 1.6 1 9.4 1 11.7h.2c.2-3.9.6-7.6 1.2-11.4l5.1-32.7h10.1l5.8 32.4"/><path id="polyline107" d="M498.4 402.2v-70.5h37V342h-23.9v17.8h22v10.3h-22v21.7h23.9v10.4h-37"/><path id="path109" d="M554.5 354.6h.2c2.7-6.1 8.2-6.9 11-6.9 6.9 0 12.6 4 12.2 13.5v40.9h-12.2v-35.3c0-5.2-.6-8.6-5.2-8.7-4.6-.2-6.2 4.1-6 9.8v34.3h-12.3v-53h12.3v5.4"/><path id="path111" d="M586.2 408.1c.7 8.9 7.3 11.9 15.4 11.9 16.7 0 19.7-8.6 19.7-19.4v-51.4h-12.2v5.5h-.1c-1.7-4.8-5.1-6.9-10.6-6.9-7.9.2-12.4 4.3-12.7 18.9v19.2c.3 8.4 2.3 17.8 12.7 17.8 5.3-.3 8.7-1.9 11.2-6.9l.2.2v6.1c0 4.1-.9 8.3-6.1 8.3-1.5 0-2.8-.2-3.7-.8-.9-.5-1.4-1.2-1.4-2.3l-12.4-.2m22.9-39.2v15.9c0 6.1-2 9.4-5.9 9.4-3.7 0-5.1-4-5.3-9.1v-17.7c.4-5.2-.2-10.2 5.5-10.2s5.9 7.5 5.7 11.7z"/><path id="rect113" d="M629 331.7h12.2v70.5H629z"/><path id="path115" d="M683.8 402.2c-.7-2.5-1-4.9-1-7.4v-31.3c.2-6.9-.8-15.7-17.5-15.7-15.3 0-18.6 7.1-18.5 17.1h11.6c-.1-4.8.8-7.7 6.4-7.7 3.3 0 5.2.4 5.7 2.7 1 4.3-.8 6.7-6 8.8-9.6 3.9-18.1 6.9-18.1 19 0 10.9 4.3 15.9 14.2 15.9 4.1 0 7.9-2.4 10.7-6.9h.2c-.2 1.9-.1 3.8.7 5.5h11.6M670.6 380c-.3 5.1 1 14.2-6.2 14.2-4.5 0-5.7-2.7-5.7-6.8 0-2.3.3-4.9 2.1-6.4 3.2-2.6 6.9-4.7 9.8-6.8v5.8z"/><path id="path117" d="M704.6 354.6h.2c2.8-6.1 8.2-6.9 11-6.9 7 0 12.6 4 12.2 13.5v40.9h-12.2v-35.3c0-5.2-.6-8.6-5.2-8.7-4.6-.2-6.2 4.1-6 9.8v34.3h-12.2v-53h12.2v5.4"/><path id="path119" d="M759.2 402.2h12.2v-70.5h-12.2v18.1c0 1.6.1 3.1.4 4.7h-.2c-2.5-5.1-5.7-6.8-10.9-6.8-7.9.2-12.5 4.2-12.8 18.8v19.2c.3 8.4 2.4 17.8 12.8 17.8 4.8-.3 8.2-1.7 10.5-7.1h.2v5.8m0-17.4c0 6.1-2 9.4-5.9 9.4-3.8 0-5.1-4-5.4-9.1v-17.7c.4-5.2-.2-10.2 5.5-10.2s5.9 7.5 5.7 11.7v15.9h.1z"/><path id="path121" d="M335.4 502.3l3.5-17.8h15.4l3.5 17.8h14.1l-16-70.4h-17.8l-16.8 70.4h14.1m9.5-48.2c.7-3.3.9-6.5 1.3-9.8.1-1.6.3-3.2.5-4.7h.2c.2 1.5.4 3.1.5 4.7.4 3.3.7 6.5 1.3 9.8l3.6 20H341l3.9-20z"/><path id="path123" d="M413.1 449.3h-12.2v5.4h-.2c-2.3-5.2-5.6-6.9-10.6-6.8-7.9.2-12.4 4.2-12.7 18.8v19.2c.3 8.5 2.4 17.8 12.7 17.8 4.9-.3 8.3-1.8 10.6-7.1h.2V520h12.2v-70.7m-12.2 35.6c0 6.1-2 9.4-5.9 9.4-3.8 0-5.1-4-5.3-9.1v-17.7c.4-5.2-.2-10.2 5.5-10.2s5.9 7.5 5.7 11.7v15.9z"/><path id="path125" d="M445.7 494.4h-.2c-1.9 6.3-5.4 9.2-11.4 9.3-9.7 0-11.8-5-11.8-13.8v-40.6h12.2v36.3c0 2.3-.1 5 1.2 7 1 1.1 2.2 1.7 3.8 1.7 5.7 0 5.6-6.5 5.6-10.6v-34.4h12.2v53h-11.6v-7.9"/><path id="path127" d="M502.3 502.3c-.6-2.4-1-4.9-1-7.4v-31.3c.2-7-.8-15.7-17.5-15.7-15.3 0-18.6 7-18.5 17.1H477c-.1-4.8.9-7.7 6.4-7.7 3.3 0 5.2.4 5.7 2.7 1.1 4.3-.8 6.7-6 8.8-9.6 4-18.1 6.9-18.1 19 0 10.9 4.3 15.9 14.2 15.9 4.1 0 7.9-2.4 10.7-6.9h.2c-.2 1.9-.1 3.8.7 5.4l11.5.1m-13.2-22.1c-.3 5.1 1.1 14.2-6.2 14.2-4.5 0-5.7-2.7-5.7-6.8 0-2.3.3-4.9 2.1-6.4 3.2-2.6 6.8-4.7 9.9-6.8l-.1 5.8z"/><path id="path129" d="M522.5 458.7h.2c1.5-3.9 3-6 4.8-7.5 3.5-2.9 5.8-2.7 7.6-2.8v14.5c-6.8-.6-11.9 1-12.1 8.8v30.6h-12.2v-53h11.7v9.4"/><path id="path131" d="M540.6 431.9h12.2V443h-12.2v-11.1zm0 17.4h12.2v53h-12.2v-53z"/><path id="path133" d="M583.9 494.4h-.2c-1.9 6.3-5.5 9.2-11.4 9.3-9.7 0-11.8-5-11.8-13.8v-40.6h12.2v36.3c0 2.3-.1 5 1.2 7 1 1.1 2.2 1.7 3.8 1.7 5.7 0 5.6-6.5 5.6-10.6v-34.4h12.2v53h-11.6v-7.9"/><path id="path135" d="M615.7 454.8h.2c2.8-5.8 7.7-6.7 11.7-6.9 4.5-.1 10.5 1.9 11.4 6.9 2.4-4.6 6.3-6.9 12.3-6.9 9 0 13 5.6 13 11.3v43.1H652v-35.8c0-4.8-.5-9.5-5.8-9.2-5.3.3-6.2 3.9-6.2 10.1v34.9h-12.2v-36.5c0-4.7-.4-8.6-6-8.5-5.7.1-6 4.3-6 10.1v34.9h-12.2v-53h12.2v5.5"/></g></svg>