<svg
   xmlns:dc="http://purl.org/dc/elements/1.1/"
   xmlns:cc="http://creativecommons.org/ns#"
   xmlns:rdf="http://www.w3.org/1999/02/22-rdf-syntax-ns#"
   xmlns:svg="http://www.w3.org/2000/svg"
   xmlns="http://www.w3.org/2000/svg"
   xmlns:sodipodi="http://sodipodi.sourceforge.net/DTD/sodipodi-0.dtd"
   xmlns:inkscape="http://www.inkscape.org/namespaces/inkscape"
   id="svg2"
   viewBox="0 0 617.025 314.0375"
   version="1.1"
   inkscape:version="0.48.1 r9760"
   width="617.025"
   height="314.0375"
   xml:space="preserve"
   sodipodi:docname="GBIFwww_4.eps"><metadata
     id="metadata8"><rdf:RDF><cc:Work
         rdf:about=""><dc:format>image/svg+xml</dc:format><dc:type
           rdf:resource="http://purl.org/dc/dcmitype/StillImage" /><dc:title></dc:title></cc:Work></rdf:RDF></metadata><defs
     id="defs6" /><sodipodi:namedview
     pagecolor="#ffffff"
     bordercolor="#666666"
     borderopacity="1"
     objecttolerance="10"
     gridtolerance="10"
     guidetolerance="10"
     inkscape:pageopacity="0"
     inkscape:pageshadow="2"
     inkscape:window-width="640"
     inkscape:window-height="480"
     id="namedview4"
     showgrid="false"
     inkscape:zoom="0.82492602"
     inkscape:cx="308.51251"
     inkscape:cy="157.01875"
     inkscape:window-x="0"
     inkscape:window-y="0"
     inkscape:window-maximized="0"
     inkscape:current-layer="g10" /><g
     id="g10"
     inkscape:groupmode="layer"
     inkscape:label="ink_ext_XXXXXX"
     transform="matrix(1.25,0,0,-1.25,0,314.0375)"><path
       inkscape:connector-curvature="0"
       id="path14"
       style="fill:#42ba3b;fill-opacity:1;fill-rule:nonzero;stroke:none"
       d="m 373.833,34.6488 c 0,0.766 -0.54,1.3063 -1.305,1.3063 l -5.76,0 c -0.765,0 -1.305,-0.5403 -1.305,-1.3063 l 0,-1.3047 c 0,-0.675 0.54,-1.3043 1.305,-1.3043 l 5.76,0 c 0.765,0 1.305,0.6293 1.305,1.3043 l 0,1.3047 z m -1.934,16.3801 c 0,1.8012 -1.396,3.1051 -3.195,3.1051 -1.846,0 -3.241,-1.3039 -3.241,-3.1051 l 0,-0.6301 c 0,-1.7547 1.395,-2.925 3.241,-2.925 1.799,0 3.195,1.125 3.195,2.925 l 0,0.6301 z m 0.629,-23.2648 -5.76,0 c -3.644,0 -6.479,1.9808 -6.479,5.58 l 0,1.3047 c 0,1.8461 0.944,3.3301 2.294,4.3653 0.09,0.0898 0.181,0.225 0.181,0.3609 0,0.4039 -0.855,0.8539 -0.855,2.5191 0,1.845 0.99,2.4758 0.99,2.745 0,0.1347 -0.045,0.225 -0.135,0.316 -1.486,1.439 -2.475,3.1488 -2.475,5.4437 l 0,0.6301 c 0,4.6813 3.69,7.4711 8.415,7.4711 0.719,0 1.62,-0.2262 2.474,-0.5852 0.316,-0.1359 0.586,-0.316 0.811,-0.316 0.224,0 0.359,0.1801 0.359,0.4953 0,0.27 0.135,0.4059 0.45,0.4059 l 3.826,0 c 0.314,0 0.45,-0.1359 0.45,-0.4512 l 0,-7.4238 c 0,-4.6809 -3.691,-7.7859 -8.37,-7.7859 l -1.08,0 c -0.451,0 -0.901,-0.495 -0.901,-1.259 0,-0.811 0.405,-1.3512 0.99,-1.3512 l 4.815,0 c 3.645,0 6.48,-1.9348 6.48,-5.5801 l 0,-1.3047 c 0,-3.5992 -2.835,-5.58 -6.48,-5.58" /><path
       inkscape:connector-curvature="0"
       id="path16"
       style="fill:#42ba3b;fill-opacity:1;fill-rule:nonzero;stroke:none"
       d="m 394.083,50.5801 c 0,1.7988 -1.395,3.1937 -3.195,3.1937 -1.8,0 -3.239,-1.3949 -3.239,-3.1937 l 0,-4.7262 c 0,-1.8449 1.484,-3.2398 3.239,-3.2398 1.8,0 3.195,1.3949 3.195,3.2398 l 0,4.7262 z m -3.195,-12.691 c -0.899,0 -2.024,0.316 -2.97,0.8097 -0.134,0.0461 -0.224,0.091 -0.36,0.091 -0.225,0 -0.315,-0.1808 -0.315,-0.4957 0,-0.225 -0.135,-0.405 -0.45,-0.405 l -3.825,0 c -0.315,0 -0.45,0.1347 -0.45,0.45 l 0,27.4507 c 0,0.3141 0.135,0.4493 0.45,0.4493 l 4.23,0 c 0.315,0 0.451,-0.1352 0.451,-0.4493 l 0,-7.6957 c 0,-0.3152 0.135,-0.4953 0.359,-0.4953 0.135,0 0.225,0.0453 0.36,0.0903 0.945,0.4949 2.07,0.8109 2.925,0.8109 4.456,0 7.965,-3.241 7.965,-7.9199 l 0,-4.7262 c 0,-4.6801 -3.285,-7.9648 -8.37,-7.9648" /><path
       inkscape:connector-curvature="0"
       id="path18"
       style="fill:#42ba3b;fill-opacity:1;fill-rule:nonzero;stroke:none"
       d="m 409.383,37.8891 -4.23,0 c -0.315,0 -0.45,0.1347 -0.45,0.45 l 0,19.7097 c 0,0.3153 0.135,0.4512 0.45,0.4512 l 4.23,0 c 0.315,0 0.45,-0.1359 0.45,-0.4512 l 0,-19.7097 c 0,-0.3153 -0.135,-0.45 -0.45,-0.45 z m -2.115,22.7711 c -1.62,0 -3.016,1.3937 -3.016,3.0136 0,1.6203 1.396,3.0153 3.016,3.0153 1.619,0 3.015,-1.395 3.015,-3.0153 0,-1.6199 -1.396,-3.0136 -3.015,-3.0136" /><path
       inkscape:connector-curvature="0"
       id="path20"
       style="fill:#42ba3b;fill-opacity:1;fill-rule:nonzero;stroke:none"
       d="m 428.012,65.3391 -1.215,-3.3301 c -0.045,-0.1789 -0.179,-0.3602 -0.359,-0.3602 -0.181,0 -0.676,0.3153 -1.486,0.3153 -1.844,0 -3.195,-1.395 -3.195,-3.2403 l 0,-1.7097 c 0,-0.3153 0.135,-0.45 0.451,-0.45 l 2.924,0 c 0.316,0 0.451,-0.1352 0.451,-0.45 l 0,-3.8243 c 0,-0.316 -0.135,-0.4507 -0.451,-0.4507 l -2.924,0 c -0.316,0 -0.451,-0.134 -0.451,-0.45 l 0,-13.05 c 0,-0.3153 -0.135,-0.45 -0.45,-0.45 l -4.275,0 c -0.315,0 -0.449,0.1347 -0.449,0.45 l 0,13.05 c 0,0.316 -0.135,0.45 -0.451,0.45 l -1.035,0 c -0.315,0 -0.45,0.1347 -0.45,0.4507 l 0,3.8243 c 0,0.3148 0.135,0.45 0.45,0.45 l 1.035,0 c 0.316,0 0.451,0.1347 0.451,0.45 l 0,1.2597 c 0,4.5903 3.779,8.4153 8.369,8.4153 0.945,0 2.115,-0.1352 2.881,-0.3141 0.224,-0.0449 0.359,-0.1809 0.359,-0.3609 0,-0.1789 -0.09,-0.45 -0.18,-0.675" /><path
       inkscape:connector-curvature="0"
       id="path22"
       style="fill:#42ba3b;fill-opacity:1;fill-rule:nonzero;stroke:none"
       d="m 430.756,37.4391 c -1.619,0 -3.013,1.3961 -3.013,3.016 0,1.6187 1.394,3.014 3.013,3.014 1.621,0 3.016,-1.3953 3.016,-3.014 0,-1.6199 -1.395,-3.016 -3.016,-3.016" /><path
       inkscape:connector-curvature="0"
       id="path24"
       style="fill:#42ba3b;fill-opacity:1;fill-rule:nonzero;stroke:none"
       d="m 450.376,50.984 c 0,1.8012 -1.395,3.2398 -3.194,3.2398 -1.846,0 -3.24,-1.4847 -3.24,-3.2398 l 0,-5.5801 c 0,-1.7551 1.394,-3.2391 3.24,-3.2391 1.799,0 3.194,1.4391 3.194,3.2391 l 0,5.5801 z m -3.194,-13.5449 c -5.131,0 -8.416,3.2847 -8.416,7.9648 l 0,5.5801 c 0,4.6808 3.285,7.9648 8.416,7.9648 5.084,0 8.369,-3.284 8.369,-7.9648 l 0,-5.5801 c 0,-4.6801 -3.285,-7.9648 -8.369,-7.9648" /><path
       inkscape:connector-curvature="0"
       id="path26"
       style="fill:#42ba3b;fill-opacity:1;fill-rule:nonzero;stroke:none"
       d="m 470.987,52.875 c -0.271,0 -0.676,0.4039 -1.621,0.4039 -1.844,0 -3.24,-1.35 -3.24,-3.15 l 0,-11.7898 c 0,-0.3153 -0.135,-0.45 -0.45,-0.45 l -4.23,0 c -0.315,0 -0.449,0.1347 -0.449,0.45 l 0,19.7097 c 0,0.3153 0.134,0.4512 0.449,0.4512 l 3.826,0 c 0.314,0 0.449,-0.0449 0.449,-0.4059 l 0,-0.63 c 0,-0.27 0.18,-0.45 0.36,-0.45 0.18,0 0.225,0.0449 0.316,0.1347 0.449,0.4953 1.979,1.3512 3.42,1.3512 0.449,0 0.899,-0.0449 1.26,-0.1359 0.224,-0.045 0.359,-0.225 0.359,-0.4493 l 0,-4.5449 c 0,-0.316 -0.225,-0.4949 -0.449,-0.4949" /><path
       inkscape:connector-curvature="0"
       id="path28"
       style="fill:#42ba3b;fill-opacity:1;fill-rule:nonzero;stroke:none"
       d="m 488.446,34.6488 c 0,0.766 -0.54,1.3063 -1.305,1.3063 l -5.76,0 c -0.765,0 -1.305,-0.5403 -1.305,-1.3063 l 0,-1.3047 c 0,-0.675 0.54,-1.3043 1.305,-1.3043 l 5.76,0 c 0.765,0 1.305,0.6293 1.305,1.3043 l 0,1.3047 z m -1.936,16.3801 c 0,1.8012 -1.394,3.1051 -3.194,3.1051 -1.845,0 -3.24,-1.3039 -3.24,-3.1051 l 0,-0.6301 c 0,-1.7547 1.395,-2.925 3.24,-2.925 1.8,0 3.194,1.125 3.194,2.925 l 0,0.6301 z m 0.631,-23.2648 -5.76,0 c -3.645,0 -6.48,1.9808 -6.48,5.58 l 0,1.3047 c 0,1.8461 0.945,3.3301 2.295,4.3653 0.09,0.0898 0.179,0.225 0.179,0.3609 0,0.4039 -0.854,0.8539 -0.854,2.5191 0,1.845 0.989,2.4758 0.989,2.745 0,0.1347 -0.045,0.225 -0.135,0.316 -1.484,1.439 -2.474,3.1488 -2.474,5.4437 l 0,0.6301 c 0,4.6813 3.689,7.4711 8.415,7.4711 0.72,0 1.62,-0.2262 2.476,-0.5852 0.314,-0.1359 0.583,-0.316 0.808,-0.316 0.226,0 0.361,0.1801 0.361,0.4953 0,0.27 0.135,0.4059 0.45,0.4059 l 3.825,0 c 0.315,0 0.45,-0.1359 0.45,-0.4512 l 0,-7.4238 c 0,-4.6809 -3.69,-7.7859 -8.37,-7.7859 l -1.08,0 c -0.45,0 -0.9,-0.495 -0.9,-1.259 0,-0.811 0.405,-1.3512 0.99,-1.3512 l 4.815,0 c 3.645,0 6.481,-1.9348 6.481,-5.5801 l 0,-1.3047 c 0,-3.5992 -2.836,-5.58 -6.481,-5.58" /><path
       inkscape:connector-curvature="0"
       id="path30"
       style="fill:#231f20;fill-opacity:1;fill-rule:nonzero;stroke:none"
       d="m 252.423,0.275 -2.611,0 c -0.195,0 -0.275,0.080859 -0.275,0.273828 l 0,16.783172 c 0,0.1961 0.08,0.2762 0.275,0.2762 l 2.611,0 c 0.166,0 0.276,-0.0801 0.276,-0.2762 l 0,-16.783172 C 252.699,0.355859 252.617,0.275 252.423,0.275" /><path
       inkscape:connector-curvature="0"
       id="path32"
       style="fill:#231f20;fill-opacity:1;fill-rule:nonzero;stroke:none"
       d="m 267.914,0.275 -2.282,0 -0.25,0.137109 -5.64,11.060891 0.136,-10.924172 C 259.878,0.355859 259.796,0.275 259.605,0.275 l -2.559,0 c -0.195,0 -0.273,0.080859 -0.273,0.273828 l 0,16.783172 c 0,0.1961 0.078,0.2762 0.273,0.2762 l 2.309,0 0.25,-0.1383 5.613,-11.17302 -0.109,11.03512 c 0,0.1961 0.08,0.2762 0.273,0.2762 l 2.532,0 c 0.164,0 0.275,-0.0801 0.275,-0.2762 l 0,-16.783172 C 268.189,0.355859 268.107,0.275 267.914,0.275" /><path
       inkscape:connector-curvature="0"
       id="path34"
       style="fill:#231f20;fill-opacity:1;fill-rule:nonzero;stroke:none"
       d="m 282.578,14.7199 -6.549,0 c -0.194,0 -0.276,-0.0828 -0.276,-0.275 l 0,-3.6597 c 0,-0.1942 0.082,-0.2762 0.276,-0.2762 l 5.363,0 c 0.195,0 0.275,-0.0852 0.275,-0.2758 l 0,-2.33711 c 0,-0.19297 -0.08,-0.27695 -0.275,-0.27695 l -5.363,0 c -0.194,0 -0.276,-0.08008 -0.276,-0.275 l 0,-6.795312 C 275.753,0.355859 275.673,0.275 275.48,0.275 l -2.613,0 c -0.196,0 -0.276,0.080859 -0.276,0.273828 l 0,16.783172 c 0,0.1961 0.08,0.2762 0.276,0.2762 l 9.711,0 c 0.166,0 0.273,-0.0801 0.273,-0.2762 l 0,-2.3379 c 0,-0.1941 -0.082,-0.2742 -0.273,-0.2742" /><path
       inkscape:connector-curvature="0"
       id="path36"
       style="fill:#231f20;fill-opacity:1;fill-rule:nonzero;stroke:none"
       d="m 293.419,13.0141 c 0,1.1281 -0.853,1.98 -1.953,1.98 l -1.349,0 c -1.1,0 -1.979,-0.8812 -1.979,-1.98 l 0,-8.14301 c 0,-1.1039 0.879,-1.98398 1.979,-1.98398 l 1.349,0 c 1.1,0 1.953,0.85508 1.953,1.98398 l 0,8.14301 z m -1.953,-13.01214688 -1.349,0 c -3.106,0 -5.116,1.94999688 -5.116,4.86913688 l 0,8.14301 c 0,2.9148 2.038,4.8668 5.116,4.8668 l 1.349,0 c 3.082,0 5.116,-1.952 5.116,-4.8668 l 0,-8.14301 c 0,-2.91914 -2.034,-4.86913688 -5.116,-4.86913688" /><path
       inkscape:connector-curvature="0"
       id="path38"
       style="fill:#231f20;fill-opacity:1;fill-rule:nonzero;stroke:none"
       d="m 308.826,12.7371 c 0,1.0738 -0.91,1.9828 -1.983,1.9828 l -3.027,0 c -0.191,0 -0.275,-0.0828 -0.275,-0.275 l 0,-3.6597 c 0,-0.1942 0.084,-0.2762 0.275,-0.2762 l 3.027,0 c 1.073,0 1.983,0.8789 1.983,1.9832 l 0,0.2449 z M 312.263,0.494922 C 312.263,0.355859 312.181,0.275 311.99,0.275 l -2.836,0 c -0.08,0 -0.166,0.053906 -0.246,0.192188 l -2.424,6.989842 -0.219,0.16211 -2.449,0 c -0.191,0 -0.275,-0.08008 -0.275,-0.275 l 0,-6.795312 C 303.541,0.355859 303.458,0.275 303.267,0.275 l -2.613,0 c -0.194,0 -0.274,0.080859 -0.274,0.273828 l 0,16.783172 c 0,0.1961 0.08,0.2762 0.274,0.2762 l 6.189,0 c 3.137,0 5.117,-1.9832 5.117,-5.116 l 0,-0.2774 c 0,-1.2929 -0.658,-2.33785 -1.21,-2.94371 -0.497,-0.46718 -1.127,-0.79804 -1.127,-1.04609 l 0,-0.02617 2.611,-7.565627 c 0.029,-0.055078 0.029,-0.111328 0.029,-0.138281" /><path
       inkscape:connector-curvature="0"
       id="path40"
       style="fill:#231f20;fill-opacity:1;fill-rule:nonzero;stroke:none"
       d="m 329.101,0.275 -2.533,0 c -0.19,0 -0.274,0.080859 -0.274,0.273828 L 326.541,11.2789 323.433,2.80586 C 323.351,2.725 323.267,2.64102 323.185,2.64102 l -1.402,0 c -0.112,0 -0.194,0.05781 -0.25,0.16484 l -3.108,8.47304 0.248,-10.730072 C 318.673,0.355859 318.591,0.275 318.4,0.275 l -2.563,0 c -0.189,0 -0.275,0.080859 -0.275,0.273828 l 0,16.783172 c 0,0.1961 0.086,0.2762 0.275,0.2762 l 2.368,0 c 0.084,-0.0273 0.166,-0.0801 0.248,-0.166 l 4.015,-10.89532 4.02,10.89532 c 0.08,0.0859 0.166,0.1387 0.248,0.166 l 2.365,0 c 0.193,0 0.275,-0.0801 0.275,-0.2762 l 0,-16.783172 C 329.376,0.355859 329.294,0.275 329.101,0.275" /><path
       inkscape:connector-curvature="0"
       id="path42"
       style="fill:#231f20;fill-opacity:1;fill-rule:nonzero;stroke:none"
       d="m 338.482,10.4012 c -0.027,0.1617 -0.135,0.6558 -0.303,1.5117 l -0.082,0 c -0.193,-0.8559 -0.303,-1.35 -0.33,-1.5117 L 336.83,6.76719 c 0,-0.02813 -0.026,-0.08203 -0.026,-0.10821 0,-0.16601 0.11,-0.24804 0.303,-0.24804 l 2.008,0 c 0.191,0 0.302,0.08203 0.302,0.24804 0,0.02618 -0.027,0.08008 -0.027,0.10821 l -0.908,3.63401 z m 6.055,-9.879325 C 344.537,0.355859 344.425,0.275 344.232,0.275 l -2.777,0 c -0.166,0 -0.247,0.053906 -0.276,0.192188 l -0.824,2.887892 c -0.027,0.13906 -0.111,0.16601 -0.277,0.16601 l -3.932,0 c -0.168,0 -0.25,-0.02695 -0.275,-0.16601 L 335.044,0.467188 C 335.015,0.328906 334.906,0.275 334.767,0.275 l -2.748,0 c -0.195,0 -0.305,0.080859 -0.305,0.246875 0,0.026953 0.03,0.05625 0.03,0.111328 l 5.115,16.783997 c 0.055,0.1367 0.111,0.191 0.275,0.191 l 1.981,0 c 0.138,0 0.22,-0.0543 0.275,-0.191 l 5.119,-16.783997 c 0,-0.055078 0.028,-0.084375 0.028,-0.111328" /><path
       inkscape:connector-curvature="0"
       id="path44"
       style="fill:#231f20;fill-opacity:1;fill-rule:nonzero;stroke:none"
       d="m 354.658,14.7199 -2.998,0 c -0.196,0 -0.278,-0.0828 -0.278,-0.275 l 0,-13.896072 C 351.382,0.355859 351.298,0.275 351.105,0.275 l -2.586,0 c -0.189,0 -0.275,0.080859 -0.275,0.273828 l 0,13.896072 c 0,0.1922 -0.08,0.275 -0.276,0.275 l -2.996,0 c -0.189,0 -0.275,0.0801 -0.275,0.2742 l 0,2.3379 c 0,0.1961 0.086,0.2762 0.275,0.2762 l 9.686,0 c 0.164,0 0.273,-0.0801 0.273,-0.2762 l 0,-2.3379 c 0,-0.1941 -0.086,-0.2742 -0.273,-0.2742" /><path
       inkscape:connector-curvature="0"
       id="path46"
       style="fill:#231f20;fill-opacity:1;fill-rule:nonzero;stroke:none"
       d="m 360.765,0.275 -2.615,0 c -0.19,0 -0.274,0.080859 -0.274,0.273828 l 0,16.783172 c 0,0.1961 0.084,0.2762 0.274,0.2762 l 2.615,0 c 0.164,0 0.274,-0.0801 0.274,-0.2762 l 0,-16.783172 C 361.039,0.355859 360.955,0.275 360.765,0.275" /><path
       inkscape:connector-curvature="0"
       id="path48"
       style="fill:#231f20;fill-opacity:1;fill-rule:nonzero;stroke:none"
       d="m 373.253,13.0141 c 0,1.1281 -0.853,1.98 -1.953,1.98 l -1.349,0 c -1.1,0 -1.983,-0.8812 -1.983,-1.98 l 0,-8.14301 c 0,-1.1039 0.883,-1.98398 1.983,-1.98398 l 1.349,0 c 1.1,0 1.953,0.85508 1.953,1.98398 l 0,8.14301 z M 371.3,0.00195312 l -1.349,0 c -3.11,0 -5.118,1.94999688 -5.118,4.86913688 l 0,8.14301 c 0,2.9148 2.036,4.8668 5.118,4.8668 l 1.349,0 c 3.08,0 5.117,-1.952 5.117,-4.8668 l 0,-8.14301 c 0,-2.91914 -2.037,-4.86913688 -5.117,-4.86913688" /><path
       inkscape:connector-curvature="0"
       id="path50"
       style="fill:#231f20;fill-opacity:1;fill-rule:nonzero;stroke:none"
       d="m 391.355,0.275 -2.287,0 -0.244,0.137109 -5.645,11.060891 0.139,-10.924172 c 0,-0.192969 -0.08,-0.273828 -0.272,-0.273828 l -2.56,0 c -0.192,0 -0.276,0.080859 -0.276,0.273828 l 0,16.783172 c 0,0.1961 0.084,0.2762 0.276,0.2762 l 2.31,0 0.25,-0.1383 5.612,-11.17302 -0.112,11.03512 c 0,0.1961 0.082,0.2762 0.278,0.2762 l 2.531,0 c 0.162,0 0.273,-0.0801 0.273,-0.2762 l 0,-16.783172 C 391.628,0.355859 391.544,0.275 391.355,0.275" /><path
       inkscape:connector-curvature="0"
       id="path52"
       style="fill:#231f20;fill-opacity:1;fill-rule:nonzero;stroke:none"
       d="m 28.398,0.275 -9.7109,0 c -0.1926,0 -0.2754,0.080859 -0.2754,0.273828 l 0,16.783172 c 0,0.1961 0.0828,0.2762 0.2754,0.2762 l 2.6133,0 c 0.166,0 0.2762,-0.0801 0.2762,-0.2762 l 0,-13.89294 c 0,-0.19101 0.082,-0.27695 0.2754,-0.27695 l 6.546,0 c 0.1668,0 0.2762,-0.07891 0.2762,-0.275 l 0,-2.338282 C 28.6742,0.355859 28.5914,0.275 28.398,0.275" /><path
       inkscape:connector-curvature="0"
       id="path54"
       style="fill:#231f20;fill-opacity:1;fill-rule:nonzero;stroke:none"
       d="m 38.6617,13.0141 c 0,1.1281 -0.8527,1.98 -1.9531,1.98 l -1.3496,0 c -1.1008,0 -1.9805,-0.8793 -1.9805,-1.98 l 0,-8.14496 c 0,-1.10195 0.8797,-1.98203 1.9805,-1.98203 l 1.3496,0 c 1.1004,0 1.9531,0.85508 1.9531,1.98203 l 0,8.14496 z M 36.7086,0 35.359,0 c -3.1086,0 -5.1164,1.95312 -5.1164,4.86914 l 0,8.14496 c 0,2.9148 2.0363,4.8668 5.1164,4.8668 l 1.3496,0 c 3.0809,0 5.1172,-1.952 5.1172,-4.8668 l 0,-8.14496 C 41.8258,1.95312 39.7895,0 36.7086,0" /><path
       inkscape:connector-curvature="0"
       id="path56"
       style="fill:#231f20;fill-opacity:1;fill-rule:nonzero;stroke:none"
       d="m 54.0668,5.66797 c 0,1.09922 -0.8543,1.95117 -1.9813,1.95117 l -3.0273,0 c -0.1926,0 -0.2754,-0.08008 -0.2754,-0.275 l 0,-3.90508 c 0,-0.19101 0.0828,-0.27695 0.2754,-0.27695 l 3.0273,0 c 1.1004,0 1.9813,0.88086 1.9813,1.98281 l 0,0.52305 z m 0,7.06913 c 0,1.0738 -0.9082,1.9828 -1.9813,1.9828 l -3.0273,0 c -0.1926,0 -0.2754,-0.0828 -0.2754,-0.275 l 0,-3.6597 c 0,-0.1942 0.0828,-0.2762 0.2754,-0.2762 l 3.0273,0 c 1.0731,0 1.9813,0.8789 1.9813,1.9832 l 0,0.2449 z M 52.0855,0.275 l -6.1906,0 c -0.1933,0 -0.2761,0.080859 -0.2761,0.273828 l 0,16.783172 c 0,0.1961 0.0828,0.2762 0.2761,0.2762 l 6.1906,0 c 3.1348,0 5.1161,-1.9832 5.1161,-5.116 l 0,-0.2774 c 0,-0.6296 -0.2188,-1.3476 -0.6055,-1.8718 -0.5762,-0.76683 -0.9629,-1.18206 -0.9629,-1.29105 0,-0.11211 0.3867,-0.49492 0.9094,-1.23906 0.4129,-0.60469 0.659,-1.40195 0.659,-2.06094 l 0,-0.41484 c 0,-3.1082 -1.952,-5.06211 -5.1161,-5.06211" /><path
       inkscape:connector-curvature="0"
       id="path58"
       style="fill:#231f20;fill-opacity:1;fill-rule:nonzero;stroke:none"
       d="m 65.7574,10.4012 c -0.0265,0.1617 -0.134,0.6558 -0.3008,1.5117 l -0.0832,0 c -0.1933,-0.8559 -0.3035,-1.35 -0.33,-1.5117 L 64.107,6.76719 c 0,-0.02813 -0.0273,-0.08203 -0.0273,-0.10821 0,-0.16601 0.1101,-0.24804 0.3055,-0.24804 l 2.007,0 c 0.1922,0 0.3016,0.08203 0.3016,0.24804 0,0.02618 -0.0274,0.08008 -0.0274,0.10821 l -0.909,3.63401 z M 71.8102,0.521875 C 71.8102,0.355859 71.7008,0.275 71.5074,0.275 l -2.7773,0 c -0.166,0 -0.2481,0.053906 -0.2754,0.192188 L 67.6293,3.35508 C 67.602,3.49414 67.518,3.52109 67.3539,3.52109 l -3.9336,0 c -0.1648,0 -0.2469,-0.02695 -0.2754,-0.16601 L 62.3207,0.467188 C 62.2926,0.328906 62.1801,0.275 62.0445,0.275 l -2.7511,0 c -0.1922,0 -0.3036,0.080859 -0.3036,0.246875 0,0.026953 0.0293,0.05625 0.0293,0.111328 L 64.1344,17.418 c 0.0554,0.1359 0.1113,0.1902 0.2761,0.1902 l 1.9817,0 c 0.1367,0 0.2187,-0.0543 0.2742,-0.1902 L 71.7836,0.633203 c 0,-0.055078 0.0266,-0.084375 0.0266,-0.111328" /><path
       inkscape:connector-curvature="0"
       id="path60"
       style="fill:#231f20;fill-opacity:1;fill-rule:nonzero;stroke:none"
       d="m 84.1098,0.275 -9.7129,0 c -0.1922,0 -0.2754,0.080859 -0.2754,0.273828 l 0,16.783172 c 0,0.1961 0.0832,0.2762 0.2754,0.2762 l 2.6144,0 c 0.1641,0 0.2742,-0.0801 0.2742,-0.2762 l 0,-13.89294 c 0,-0.19101 0.0833,-0.27695 0.2766,-0.27695 l 6.5477,0 c 0.166,0 0.2746,-0.07891 0.2746,-0.275 l 0,-2.338282 C 84.3844,0.355859 84.3023,0.275 84.1098,0.275" /><path
       inkscape:connector-curvature="0"
       id="path62"
       style="fill:#231f20;fill-opacity:1;fill-rule:nonzero;stroke:none"
       d="m 14.477,9.32695 -5.75005,0 c -0.19218,0 -0.27422,-0.08398 -0.27422,-0.275 l 0,-2.34101 c 0,-0.1918 0.08204,-0.27305 0.27422,-0.27305 l 2.58595,0 c 0.1652,0 0.2754,-0.08281 0.2754,-0.275 l 0,-1.29375 c 0,-1.12695 -0.8535,-1.98203 -1.95392,-1.98203 l -1.34766,0 c -1.10078,0 -1.98164,0.88008 -1.98164,1.98203 l 0,8.14496 c 0,1.1007 0.88086,1.98 1.98164,1.98 0,0 -0.15039,0.0071 0.56445,0.0071 2.03713,0 4.01763,-0.1332 4.47853,-0.1852 0.2058,-0.0211 0.3437,0.0719 0.3437,0.3121 l 0,2.1039 c 0,0.1629 -0.0773,0.3879 -0.3437,0.4328 -0.7082,0.1211 -3.0703,0.2184 -4.39845,0.2184 -0.93867,0 -0.64453,-0.0023 -0.64453,-0.0023 -3.08203,0 -5.11719,-1.952 -5.11719,-4.8668 l 0,-8.14496 C 3.16953,1.95312 5.17812,0 8.28672,0 l 1.34766,0 c 3.08082,0 5.11912,1.95312 5.11912,4.86914 l 0,4.18281 c 0,0.19102 -0.084,0.275 -0.2765,0.275" /><path
       inkscape:connector-curvature="0"
       id="path64"
       style="fill:#231f20;fill-opacity:1;fill-rule:nonzero;stroke:none"
       d="m 414.482,14.7199 -6.551,0 c -0.189,0 -0.275,-0.0828 -0.275,-0.275 l 0,-3.6597 c 0,-0.1942 0.086,-0.2762 0.275,-0.2762 l 5.363,0 c 0.198,0 0.278,-0.0852 0.278,-0.2758 l 0,-2.33711 c 0,-0.19297 -0.08,-0.27695 -0.278,-0.27695 l -5.363,0 c -0.189,0 -0.275,-0.08008 -0.275,-0.275 l 0,-6.795312 c 0,-0.192969 -0.08,-0.273828 -0.272,-0.273828 l -2.615,0 c -0.193,0 -0.277,0.080859 -0.277,0.273828 l 0,16.783172 c 0,0.1961 0.084,0.2762 0.277,0.2762 l 9.713,0 c 0.162,0 0.275,-0.0801 0.275,-0.2762 l 0,-2.3379 c 0,-0.1941 -0.084,-0.2742 -0.275,-0.2742" /><path
       inkscape:connector-curvature="0"
       id="path66"
       style="fill:#231f20;fill-opacity:1;fill-rule:nonzero;stroke:none"
       d="m 421.826,10.398 c -0.026,0.1649 -0.137,0.659 -0.303,1.5149 l -0.082,0 c -0.193,-0.8559 -0.303,-1.35 -0.332,-1.5149 l -0.936,-3.63081 c 0,-0.02813 -0.025,-0.08203 -0.025,-0.10821 0,-0.16601 0.109,-0.24804 0.301,-0.24804 l 2.009,0 c 0.194,0 0.303,0.08203 0.303,0.24804 0,0.02618 -0.027,0.08008 -0.027,0.10821 l -0.908,3.63081 z m 6.05,-9.876125 C 427.876,0.355859 427.771,0.275 427.574,0.275 l -2.778,0 c -0.164,0 -0.246,0.053906 -0.275,0.192188 l -0.828,2.887892 c -0.026,0.13906 -0.106,0.16601 -0.274,0.16601 l -3.931,0 c -0.168,0 -0.246,-0.02695 -0.276,-0.16601 L 418.388,0.467188 C 418.359,0.328906 418.25,0.275 418.113,0.275 l -2.752,0 c -0.192,0 -0.303,0.080859 -0.303,0.246875 0,0.026953 0.027,0.05625 0.027,0.111328 l 5.118,16.783997 c 0.054,0.1367 0.111,0.191 0.275,0.191 l 1.98,0 c 0.139,0 0.219,-0.0543 0.276,-0.191 l 5.117,-16.783997 c 0,-0.055078 0.025,-0.084375 0.025,-0.111328" /><path
       inkscape:connector-curvature="0"
       id="path68"
       style="fill:#231f20;fill-opacity:1;fill-rule:nonzero;stroke:none"
       d="m 447.082,0.275 -2.614,0 c -0.191,0 -0.273,0.080859 -0.273,0.273828 l 0,16.783172 c 0,0.1961 0.082,0.2762 0.273,0.2762 l 2.614,0 c 0.166,0 0.275,-0.0801 0.275,-0.2762 l 0,-16.783172 C 447.357,0.355859 447.275,0.275 447.082,0.275" /><path
       inkscape:connector-curvature="0"
       id="path70"
       style="fill:#231f20;fill-opacity:1;fill-rule:nonzero;stroke:none"
       d="m 461.417,0.275 -9.712,0 c -0.194,0 -0.276,0.080859 -0.276,0.273828 l 0,16.783172 c 0,0.1961 0.082,0.2762 0.276,0.2762 l 2.615,0 c 0.162,0 0.275,-0.0801 0.275,-0.2762 l 0,-13.89489 c 0,-0.19102 0.082,-0.275 0.274,-0.275 l 6.548,0 c 0.166,0 0.276,-0.07891 0.276,-0.275 l 0,-2.338282 C 461.693,0.355859 461.609,0.275 461.417,0.275" /><path
       inkscape:connector-curvature="0"
       id="path72"
       style="fill:#231f20;fill-opacity:1;fill-rule:nonzero;stroke:none"
       d="m 466.808,0.275 -2.613,0 c -0.194,0 -0.276,0.080859 -0.276,0.273828 l 0,16.783172 c 0,0.1961 0.082,0.2762 0.276,0.2762 l 2.613,0 c 0.164,0 0.277,-0.0801 0.277,-0.2762 l 0,-16.783172 C 467.085,0.355859 467,0.275 466.808,0.275" /><path
       inkscape:connector-curvature="0"
       id="path74"
       style="fill:#231f20;fill-opacity:1;fill-rule:nonzero;stroke:none"
       d="m 479.986,14.7199 -2.994,0 c -0.196,0 -0.278,-0.0828 -0.278,-0.275 l 0,-13.896072 C 476.714,0.355859 476.632,0.275 476.439,0.275 l -2.588,0 c -0.189,0 -0.273,0.080859 -0.273,0.273828 l 0,13.896072 c 0,0.1922 -0.082,0.275 -0.274,0.275 l -3,0 c -0.195,0 -0.279,0.0801 -0.279,0.2742 l 0,2.3379 c 0,0.1961 0.084,0.2762 0.279,0.2762 l 9.682,0 c 0.166,0 0.277,-0.0801 0.277,-0.2762 l 0,-2.3379 c 0,-0.1941 -0.084,-0.2742 -0.277,-0.2742" /><path
       inkscape:connector-curvature="0"
       id="path76"
       style="fill:#231f20;fill-opacity:1;fill-rule:nonzero;stroke:none"
       d="m 488.732,8.16914 0,-7.620312 C 488.732,0.355859 488.65,0.275 488.457,0.275 l -2.614,0 c -0.189,0 -0.273,0.080859 -0.273,0.273828 l 0,7.620312 -4.817,9.02386 c -0.025,0.0832 -0.052,0.139 -0.052,0.1941 0,0.141 0.111,0.2211 0.3,0.2211 l 3.055,0 0.248,-0.166 2.613,-5.3922 c 0.057,-0.1371 0.168,-0.191 0.25,-0.191 0.081,0 0.192,0.0539 0.247,0.191 l 2.615,5.3922 0.244,0.166 3.029,0 c 0.188,0 0.301,-0.0801 0.301,-0.2211 0,-0.0551 -0.025,-0.1109 -0.053,-0.1941 l -4.818,-9.02386" /><path
       inkscape:connector-curvature="0"
       id="path78"
       style="fill:#231f20;fill-opacity:1;fill-rule:nonzero;stroke:none"
       d="m 439.816,17.682 c -0.213,0.061 -2.422,0.1981 -4.178,0.1981 -0.234,0 -0.715,8e-4 -0.715,8e-4 -3.084,0 -5.119,-1.952 -5.119,-4.8668 l 0,-8.14301 c 0,-2.91914 2.008,-4.86913688 5.119,-4.86913688 0,0 0.6,-0.00585937 1.196,0.00507813 2.015,0.04882815 3.959,0.23984375 4.179,0.28906275 0.227,0.055859 0.34,0.271875 0.34,0.435937 l 0,2.017189 c 0,0.23984 -0.135,0.35078 -0.34,0.34062 -0.455,-0.01679 -2.634,-0.13281 -4.257,-0.19882 -0.842,-0.03399 -1.118,-0.00391 -1.118,-0.00391 -1.101,0 -1.984,0.88008 -1.984,1.98398 l 0,8.14301 c 0,1.0988 0.883,1.98 1.984,1.98 0,0 0.268,8e-4 0.635,8e-4 1.629,0 3.828,-0.1039 4.258,-0.1039 0.213,0 0.346,0.1082 0.346,0.343 l 0,2.0172 c 0,0.1597 -0.086,0.3539 -0.346,0.4308" /><path
       inkscape:connector-curvature="0"
       id="path80"
       style="fill:#231f20;fill-opacity:1;fill-rule:nonzero;stroke:none"
       d="m 102.882,5.66797 c 0,1.09922 -0.851,1.95117 -1.98,1.95117 l -3.0286,0 c -0.1914,0 -0.2754,-0.08008 -0.2754,-0.275 l 0,-3.90703 c 0,-0.18906 0.084,-0.275 0.2754,-0.275 l 3.0286,0 c 1.099,0 1.98,0.88086 1.98,1.98281 l 0,0.52305 z m 0,7.06913 c 0,1.0738 -0.908,1.9828 -1.98,1.9828 l -3.0286,0 c -0.1914,0 -0.2754,-0.0828 -0.2754,-0.275 l 0,-3.6597 c 0,-0.1942 0.084,-0.2762 0.2754,-0.2762 l 3.0286,0 c 1.072,0 1.98,0.8789 1.98,1.9832 l 0,0.2449 z m -1.98,-12.4621 -6.1926,0 c -0.1914,0 -0.2754,0.080859 -0.2754,0.273828 l 0,16.783172 c 0,0.1961 0.084,0.2762 0.2754,0.2762 l 6.1926,0 c 3.137,0 5.117,-1.9832 5.117,-5.116 l 0,-0.2774 c 0,-0.6296 -0.219,-1.3476 -0.605,-1.8718 -0.581,-0.76683 -0.963,-1.18206 -0.963,-1.29105 0,-0.11211 0.382,-0.49687 0.908,-1.23906 0.412,-0.60469 0.66,-1.40195 0.66,-2.06094 l 0,-0.41484 c 0,-3.1082 -1.953,-5.06211 -5.117,-5.06211" /><path
       inkscape:connector-curvature="0"
       id="path82"
       style="fill:#231f20;fill-opacity:1;fill-rule:nonzero;stroke:none"
       d="m 112.457,0.275 -2.614,0 c -0.191,0 -0.275,0.080859 -0.275,0.273828 l 0,16.783172 c 0,0.1961 0.084,0.2762 0.275,0.2762 l 2.614,0 c 0.166,0 0.275,-0.0801 0.275,-0.2762 l 0,-16.783172 C 112.732,0.355859 112.65,0.275 112.457,0.275" /><path
       inkscape:connector-curvature="0"
       id="path84"
       style="fill:#231f20;fill-opacity:1;fill-rule:nonzero;stroke:none"
       d="m 124.945,13.0141 c 0,1.1281 -0.854,1.98 -1.953,1.98 l -1.348,0 c -1.102,0 -1.98,-0.8793 -1.98,-1.98 l 0,-8.14301 c 0,-1.1039 0.878,-1.98398 1.98,-1.98398 l 1.348,0 c 1.099,0 1.953,0.85508 1.953,1.98398 l 0,8.14301 z M 122.992,0 121.644,0 c -3.109,0 -5.117,1.95312 -5.117,4.87109 l 0,8.14301 c 0,2.9148 2.035,4.8668 5.117,4.8668 l 1.348,0 c 3.08,0 5.117,-1.952 5.117,-4.8668 l 0,-8.14301 C 128.109,1.95312 126.072,0 122.992,0" /><path
       inkscape:connector-curvature="0"
       id="path86"
       style="fill:#231f20;fill-opacity:1;fill-rule:nonzero;stroke:none"
       d="m 140.349,12.7371 c 0,1.0738 -0.906,1.9828 -1.978,1.9828 l -3.028,0 c -0.193,0 -0.275,-0.0828 -0.275,-0.275 l 0,-11.00779 c 0,-0.18906 0.082,-0.275 0.275,-0.275 l 3.028,0 c 1.099,0 1.978,0.88086 1.978,1.98281 l 0,7.59218 z m -1.978,-12.4621 -6.192,0 c -0.193,0 -0.277,0.080859 -0.277,0.273828 l 0,16.783172 c 0,0.1961 0.084,0.2762 0.277,0.2762 l 6.192,0 c 3.134,0 5.117,-1.9832 5.117,-5.116 l 0,-7.10118 c 0,-3.13594 -1.983,-5.11602 -5.117,-5.11602" /><path
       inkscape:connector-curvature="0"
       id="path88"
       style="fill:#231f20;fill-opacity:1;fill-rule:nonzero;stroke:none"
       d="m 150.142,0.275 -2.613,0 c -0.192,0 -0.276,0.080859 -0.276,0.273828 l 0,16.783172 c 0,0.1961 0.084,0.2762 0.276,0.2762 l 2.613,0 c 0.166,0 0.274,-0.0801 0.274,-0.2762 l 0,-16.783172 C 150.416,0.355859 150.335,0.275 150.142,0.275" /><path
       inkscape:connector-curvature="0"
       id="path90"
       style="fill:#231f20;fill-opacity:1;fill-rule:nonzero;stroke:none"
       d="M 160.781,0.467188 C 160.751,0.328906 160.642,0.275 160.505,0.275 l -1.98,0 c -0.139,0 -0.221,0.053906 -0.277,0.192188 L 153.13,17.2512 c 0,0.025 -0.027,0.0808 -0.027,0.1078 0,0.1691 0.109,0.2492 0.303,0.2492 l 2.75,0 c 0.168,0 0.25,-0.0543 0.275,-0.1902 L 159.57,6.24492 162.568,17.418 c 0.027,0.1359 0.109,0.1902 0.275,0.1902 l 2.778,0 c 0.195,0 0.306,-0.0801 0.306,-0.2492 0,-0.027 -0.031,-0.0828 -0.031,-0.1078 L 160.781,0.467188" /><path
       inkscape:connector-curvature="0"
       id="path92"
       style="fill:#231f20;fill-opacity:1;fill-rule:nonzero;stroke:none"
       d="m 178.222,0.275 -9.711,0 c -0.193,0 -0.275,0.080859 -0.275,0.273828 l 0,16.783172 c 0,0.1961 0.082,0.2762 0.275,0.2762 l 9.711,0 c 0.164,0 0.276,-0.0801 0.276,-0.2762 l 0,-2.3379 c 0,-0.1941 -0.082,-0.2742 -0.276,-0.2742 l -6.547,0 c -0.193,0 -0.275,-0.0828 -0.275,-0.275 l 0,-3.6597 c 0,-0.1942 0.082,-0.2762 0.275,-0.2762 l 5.366,0 c 0.193,0 0.275,-0.0852 0.275,-0.2758 l 0,-2.33711 c 0,-0.19297 -0.082,-0.27695 -0.275,-0.27695 l -5.366,0 c -0.193,0 -0.275,-0.08008 -0.275,-0.275 l 0,-3.90703 c 0,-0.18906 0.082,-0.275 0.275,-0.275 l 6.547,0 c 0.164,0 0.276,-0.07891 0.276,-0.275 l 0,-2.338282 C 178.498,0.355859 178.416,0.275 178.222,0.275" /><path
       inkscape:connector-curvature="0"
       id="path94"
       style="fill:#231f20;fill-opacity:1;fill-rule:nonzero;stroke:none"
       d="m 190.521,12.7371 c 0,1.0738 -0.908,1.9828 -1.982,1.9828 l -3.026,0 c -0.193,0 -0.275,-0.0828 -0.275,-0.275 l 0,-3.6597 c 0,-0.1942 0.082,-0.2762 0.275,-0.2762 l 3.026,0 c 1.074,0 1.982,0.8789 1.982,1.9832 l 0,0.2449 z M 193.958,0.494922 C 193.958,0.355859 193.876,0.275 193.685,0.275 l -2.834,0 c -0.082,0 -0.164,0.053906 -0.246,0.192188 l -2.424,6.989842 -0.219,0.16211 -2.449,0 c -0.193,0 -0.275,-0.08008 -0.275,-0.275 l 0,-6.795312 c 0,-0.192969 -0.08,-0.273828 -0.274,-0.273828 l -2.615,0 c -0.191,0 -0.275,0.080859 -0.275,0.273828 l 0,16.783172 c 0,0.1961 0.084,0.2762 0.275,0.2762 l 6.19,0 c 3.138,0 5.119,-1.9832 5.119,-5.116 l 0,-0.2774 c 0,-1.2929 -0.662,-2.33785 -1.213,-2.94371 C 191.953,8.80117 191.32,8.47305 191.32,8.225 l 0,-0.02617 2.611,-7.565627 c 0.027,-0.055078 0.027,-0.111328 0.027,-0.138281" /><path
       inkscape:connector-curvature="0"
       id="path96"
       style="fill:#231f20;fill-opacity:1;fill-rule:nonzero;stroke:none"
       d="m 212.613,0.275 -2.613,0 c -0.194,0 -0.276,0.080859 -0.276,0.273828 l 0,16.783172 c 0,0.1961 0.082,0.2762 0.276,0.2762 l 2.613,0 c 0.164,0 0.277,-0.0801 0.277,-0.2762 l 0,-16.783172 C 212.89,0.355859 212.804,0.275 212.613,0.275" /><path
       inkscape:connector-curvature="0"
       id="path98"
       style="fill:#231f20;fill-opacity:1;fill-rule:nonzero;stroke:none"
       d="m 225.791,14.7199 -2.999,0 c -0.191,0 -0.275,-0.0828 -0.275,-0.275 l 0,-13.896072 C 222.517,0.355859 222.433,0.275 222.242,0.275 l -2.586,0 c -0.192,0 -0.278,0.080859 -0.278,0.273828 l 0,13.896072 c 0,0.1922 -0.078,0.275 -0.273,0.275 l -2.998,0 c -0.193,0 -0.275,0.0801 -0.275,0.2742 l 0,2.3379 c 0,0.1961 0.082,0.2762 0.275,0.2762 l 9.684,0 c 0.164,0 0.277,-0.0801 0.277,-0.2762 l 0,-2.3379 c 0,-0.1941 -0.084,-0.2742 -0.277,-0.2742" /><path
       inkscape:connector-curvature="0"
       id="path100"
       style="fill:#231f20;fill-opacity:1;fill-rule:nonzero;stroke:none"
       d="m 234.486,8.16914 0,-7.620312 C 234.486,0.355859 234.406,0.275 234.21,0.275 l -2.613,0 c -0.191,0 -0.275,0.080859 -0.275,0.273828 l 0,7.620312 -4.815,9.02386 c -0.027,0.0832 -0.052,0.139 -0.052,0.1941 0,0.141 0.109,0.2211 0.3,0.2211 l 3.055,0 0.244,-0.166 2.617,-5.3922 c 0.053,-0.1371 0.162,-0.191 0.246,-0.191 0.084,0 0.194,0.0539 0.249,0.191 l 2.615,5.3922 0.248,0.166 3.023,0 c 0.196,0 0.305,-0.0801 0.305,-0.2211 0,-0.0551 -0.027,-0.1109 -0.055,-0.1941 l -4.816,-9.02386" /><path
       inkscape:connector-curvature="0"
       id="path102"
       style="fill:#231f20;fill-opacity:1;fill-rule:nonzero;stroke:none"
       d="m 202.353,10.4539 c -1.926,0.8813 -3.193,1.266 -3.193,2.5602 0,1.1281 0.906,1.98 1.98,1.98 l 0.217,0 0,-0.0011 c 1.672,-0.066 3.971,-0.2321 3.971,-0.2321 0.224,0 0.324,0.1231 0.324,0.32 l 0,2.2691 c 0,0.223 -0.1,0.323 -0.324,0.323 0,0 -2.411,0.277 -3.971,0.2122 l 0,-0.0043 -0.217,0 c -3.08,0 -5.115,-1.952 -5.115,-4.8668 0,-2.7243 1.541,-3.96215 4.564,-5.42308 1.791,-0.85196 2.944,-1.3461 2.944,-2.71993 0,-1.1039 -0.907,-1.98398 -1.979,-1.98398 l -0.707,0 0,0 c -1.676,0 -3.758,0.11992 -3.758,0.11992 -0.222,0 -0.32,-0.13086 -0.32,-0.32305 l 0,-2.249996 c 0,-0.225 0.098,-0.321875 0.32,-0.321875 0,0 2.129,-0.11015588 3.305,-0.11015588 0.316,0 0.436,0 0.449,0 l 0.004,0 0,-0.00195312 0.707,0 c 3.108,0 5.115,1.95312 5.115,4.87109 0,2.71993 -1.375,4.23594 -4.316,5.58281" /><path
       inkscape:connector-curvature="0"
       id="path104"
       style="fill:#42ba3b;fill-opacity:1;fill-rule:nonzero;stroke:none"
       d="m 295.245,56.9648 -5.742,-18.7437 c -0.044,-0.2219 -0.223,-0.3121 -0.448,-0.3121 l -3.094,0 c -0.222,0 -0.402,0.0902 -0.447,0.3121 l -2.691,9.4629 c -0.225,0.8051 -0.405,1.7031 -0.537,2.4219 l -0.18,0 c -0.135,-0.7188 -0.404,-1.75 -0.582,-2.4219 l -2.647,-9.4629 c -0.044,-0.2219 -0.225,-0.3121 -0.447,-0.3121 l -3.142,0 c -0.223,0 -0.401,0.0902 -0.446,0.3121 l -5.695,18.7437 c -0.18,0.5391 -0.315,0.9422 -0.315,1.1231 0,0.223 0.181,0.3582 0.493,0.3582 l 4.395,0 c 0.225,0 0.405,-0.0902 0.448,-0.3141 l 2.199,-8.5199 c 0.179,-0.6269 0.359,-2.018 0.447,-2.7801 l 0.181,0 c 0.179,0.895 0.402,1.9282 0.627,2.7352 l 2.287,8.5648 c 0.045,0.2239 0.222,0.3141 0.447,0.3141 l 3.768,0 c 0.224,0 0.404,-0.0902 0.449,-0.3141 l 2.243,-8.5648 c 0.267,-0.941 0.491,-2.0633 0.626,-2.7813 l 0.18,0 c 0.087,0.7629 0.222,1.795 0.494,2.8262 l 2.151,8.5199 c 0.046,0.2239 0.225,0.3141 0.448,0.3141 l 4.35,0 c 0.313,0 0.494,-0.1352 0.494,-0.3582 0,-0.1809 -0.181,-0.7168 -0.314,-1.1231" /><path
       inkscape:connector-curvature="0"
       id="path106"
       style="fill:#42ba3b;fill-opacity:1;fill-rule:nonzero;stroke:none"
       d="m 322.104,56.9648 -5.739,-18.7437 c -0.044,-0.2219 -0.224,-0.3121 -0.448,-0.3121 l -3.094,0 c -0.225,0 -0.406,0.0902 -0.449,0.3121 l -2.69,9.4629 c -0.226,0.8051 -0.404,1.7031 -0.539,2.4219 l -0.18,0 c -0.135,-0.7188 -0.403,-1.75 -0.582,-2.4219 l -2.647,-9.4629 c -0.044,-0.2219 -0.224,-0.3121 -0.446,-0.3121 l -3.141,0 c -0.225,0 -0.402,0.0902 -0.447,0.3121 l -5.694,18.7437 c -0.181,0.5391 -0.315,0.9422 -0.315,1.1231 0,0.223 0.18,0.3582 0.493,0.3582 l 4.395,0 c 0.224,0 0.402,-0.0902 0.448,-0.3141 l 2.196,-8.5199 c 0.181,-0.6269 0.359,-2.018 0.449,-2.7801 l 0.18,0 c 0.18,0.895 0.404,1.9282 0.629,2.7352 l 2.285,8.5648 c 0.045,0.2239 0.225,0.3141 0.448,0.3141 l 3.768,0 c 0.224,0 0.403,-0.0902 0.448,-0.3141 l 2.243,-8.5648 c 0.268,-0.941 0.492,-2.0633 0.626,-2.7813 l 0.18,0 c 0.09,0.7629 0.225,1.795 0.494,2.8262 l 2.152,8.5199 c 0.045,0.2239 0.225,0.3141 0.45,0.3141 l 4.349,0 c 0.313,0 0.492,-0.1352 0.492,-0.3582 0,-0.1809 -0.179,-0.7168 -0.314,-1.1231" /><path
       inkscape:connector-curvature="0"
       id="path108"
       style="fill:#42ba3b;fill-opacity:1;fill-rule:nonzero;stroke:none"
       d="m 348.964,56.9648 -5.74,-18.7437 C 343.179,37.9992 343,37.909 342.776,37.909 l -3.094,0 c -0.225,0 -0.404,0.0902 -0.447,0.3121 l -2.693,9.4629 c -0.223,0.8051 -0.403,1.7031 -0.536,2.4219 l -0.181,0 c -0.134,-0.7188 -0.403,-1.75 -0.582,-2.4219 l -2.646,-9.4629 c -0.044,-0.2219 -0.223,-0.3121 -0.448,-0.3121 l -3.139,0 c -0.224,0 -0.404,0.0902 -0.45,0.3121 l -5.692,18.7437 c -0.18,0.5391 -0.317,0.9422 -0.317,1.1231 0,0.223 0.182,0.3582 0.494,0.3582 l 4.395,0 c 0.225,0 0.402,-0.0902 0.448,-0.3141 l 2.197,-8.5199 c 0.181,-0.6269 0.361,-2.018 0.449,-2.7801 l 0.179,0 c 0.181,0.895 0.405,1.9282 0.628,2.7352 l 2.288,8.5648 c 0.043,0.2239 0.225,0.3141 0.448,0.3141 l 3.767,0 c 0.225,0 0.404,-0.0902 0.448,-0.3141 l 2.243,-8.5648 c 0.267,-0.941 0.493,-2.0633 0.626,-2.7813 l 0.18,0 c 0.091,0.7629 0.223,1.795 0.492,2.8262 l 2.154,8.5199 c 0.045,0.2239 0.224,0.3141 0.449,0.3141 l 4.35,0 c 0.314,0 0.494,-0.1352 0.494,-0.3582 0,-0.1809 -0.18,-0.7168 -0.316,-1.1231" /><path
       inkscape:connector-curvature="0"
       id="path110"
       style="fill:#42ba3b;fill-opacity:1;fill-rule:nonzero;stroke:none"
       d="m 353.178,37.4602 c -1.614,0 -3.006,1.3898 -3.006,3.0027 0,1.618 1.392,3.0062 3.006,3.0062 1.614,0 3.004,-1.3882 3.004,-3.0062 0,-1.6129 -1.39,-3.0027 -3.004,-3.0027" /><path
       inkscape:connector-curvature="0"
       id="path112"
       style="fill:#8fd469;fill-opacity:1;fill-rule:nonzero;stroke:none"
       d="m 110.12,156.233 c 0,28.097 13.713,52.41 54.511,52.41 0,-28.154 -18.519,-52.41 -54.511,-52.41" /><path
       inkscape:connector-curvature="0"
       id="path114"
       style="fill:#42ba3b;fill-opacity:1;fill-rule:nonzero;stroke:none"
       d="m 193.147,35.2941 c 11.461,0 20.273,1.6289 29.32,4.959 0,33.3539 -19.896,57.186 -55.037,74.3599 -26.89,13.476 -59.998,20.454 -90.1835,20.454 13.2441,39.754 3.5937,89.088 -9.2442,116.164 C 53.7797,222.866 44.9027,174.227 58.557,134.656 31.7426,132.702 10.475,121.031 1.48086,105.634 c -0.685548,-1.174 -2.042969,-3.677 -1.228516,-4.109 0.638672,-0.342 1.675776,0.703 2.318356,1.293 9.6914,8.969 22.5195,13.338 34.8418,13.338 28.4668,0 48.5645,-23.6208 62.7595,-37.822 30.518,-30.5141 60.352,-43.1059 92.975,-43.0399" /></g></svg>