<?xml version="1.0" encoding="utf-8"?>
<!-- Generator: Adobe Illustrator 18.1.0, SVG Export Plug-In . SVG Version: 6.00 Build 0)  -->
<svg version="1.1" id="Layer_1" xmlns="http://www.w3.org/2000/svg" xmlns:xlink="http://www.w3.org/1999/xlink" x="0px" y="0px"
	 viewBox="0 0 403.6 143.1" enable-background="new 0 0 403.6 143.1" xml:space="preserve">
<path fill="#039299" d="M160.6,49.8l4.3-25.5h6.5l5.2,13.6l5.5-13.6h6.6l3.9,25.5h-6.6l-1.9-14.7H184l-6.1,14.7h-2.6l-5.9-14.7h-0.1
	l-2.1,14.7H160.6z M211,45.4h-9.1l-1.8,4.4h-7l9.8-25.5h7.2l9.6,25.5h-7.1L211,45.4z M209.2,40.3l-2.7-8.1h-0.1l-2.7,8.1H209.2z
	 M235,39.4l8,10.5h-8.3l-6.3-9.8h-0.1v9.8h-6.6V24.3h9.9c2.7,0,4.8,0.7,6.4,2c1.6,1.3,2.4,3.3,2.4,5.9c0,1.8-0.5,3.4-1.5,4.7
	C238.2,38.2,236.8,39,235,39.4z M228.5,29.4v6.4h0.6c3.1,0,4.6-1.1,4.6-3.2c0-2.1-1.5-3.2-4.6-3.2H228.5z M251.5,24.3v25.5h-6.6
	V24.3H251.5z M255.8,49.8V24.3h6.6l12.2,15.6h0.1V24.3h6.6v25.5h-6.6l-12.2-15.6h-0.1v15.6H255.8z M300.2,29.9h-7.9v4.3h7.5v5.6
	h-7.5v4.4h7.9v5.6h-14.5V24.3h14.5V29.9z M160.6,84.7l4.3-25.5h6.5l5.2,13.6l5.5-13.6h6.6l3.9,25.5h-6.6L184.1,70H184l-6.1,14.7
	h-2.6L169.4,70h-0.1l-2.1,14.7H160.6z M209.9,64.8H202v4.3h7.5v5.6H202v4.4h7.9v5.6h-14.5V59.2h14.5V64.8z M226.3,70.5h13.2
	c0,2.2-0.2,4.1-0.6,5.6c-0.3,1.5-1,3-2,4.5c-2.4,3.3-5.9,5-10.5,5c-4,0-7.3-1.2-9.8-3.7c-2.5-2.5-3.8-5.7-3.8-9.7
	c0-4.1,1.3-7.5,3.8-10c2.6-2.5,5.9-3.8,10-3.8c2.7,0,5,0.6,6.9,1.8c2,1.2,3.5,3,4.6,5.3l-6.3,2.6c-0.5-1.3-1.2-2.3-2.1-3
	c-0.9-0.7-2.1-1.1-3.4-1.1c-2.1,0-3.7,0.8-4.9,2.4c-1.2,1.6-1.8,3.5-1.8,5.6c0,2.1,0.6,4,1.8,5.6c1.2,1.6,2.8,2.4,4.9,2.4
	c1.5,0,2.7-0.4,3.7-1.2c1-0.8,1.5-1.9,1.7-3.3h-5.4V70.5z M258.2,80.3H249l-1.8,4.4h-7l9.8-25.5h7.2l9.6,25.5h-7.1L258.2,80.3z
	 M256.4,75.2l-2.7-8.1h-0.1l-2.7,8.1H256.4z M283.6,64.8h-8v4.3h7.3v5.6h-7.3v10H269V59.2h14.7V64.8z M301.1,80.3H292l-1.8,4.4h-7
	l9.8-25.5h7.2l9.6,25.5h-7.1L301.1,80.3z M299.3,75.2l-2.7-8.1h-0.1l-2.7,8.1H299.3z M327.4,59.2h6.6v14.4c0,2.1-0.2,3.8-0.5,5.2
	c-0.3,1.4-1.1,2.7-2.2,3.8c-1.9,1.9-4.7,2.8-8.5,2.8s-6.5-0.9-8.5-2.8c-1.1-1.1-1.9-2.4-2.2-3.8c-0.3-1.4-0.5-3.2-0.5-5.2V59.2h6.6
	v13.4c0,0.8,0,1.5,0.1,2c0,0.5,0.1,1.2,0.3,1.8c0.2,0.7,0.4,1.2,0.7,1.6c0.3,0.4,0.8,0.8,1.3,1c0.6,0.3,1.3,0.4,2.1,0.4
	s1.5-0.1,2.1-0.4c0.6-0.3,1-0.6,1.3-1c0.3-0.4,0.5-0.9,0.7-1.6c0.2-0.7,0.3-1.3,0.3-1.8c0-0.5,0.1-1.2,0.1-2V59.2z M338.2,84.7V59.2
	h6.6L357,74.8h0.1V59.2h6.6v25.5h-6.6l-12.2-15.6h-0.1v15.6H338.2z M383.7,80.3h-9.1l-1.8,4.4h-7l9.8-25.5h7.2l9.6,25.5h-7.1
	L383.7,80.3z M381.9,75.2l-2.7-8.1h-0.1l-2.7,8.1H381.9z M176.8,99.7h-8v4.3h7.3v5.6h-7.3v10h-6.6V94.1h14.7V99.7z M186.4,94.9
	c2.1-1.1,4.4-1.6,6.9-1.6c2.5,0,4.8,0.5,6.9,1.6c2.1,1.1,3.9,2.7,5.2,4.7c1.3,2,2,4.3,2,6.8c0,4.1-1.3,7.5-4,10.1
	c-2.7,2.6-6,3.9-10.1,3.9c-4.1,0-7.5-1.3-10.1-3.9c-2.7-2.6-4-6-4-10.1c0-2.5,0.7-4.8,2-6.8C182.5,97.5,184.2,96,186.4,94.9z
	 M198.4,101.7c-1.4-1.4-3.1-2-5.1-2c-2,0-3.7,0.7-5.1,2c-1.4,1.4-2.1,2.9-2.1,4.7c0,2.2,0.7,4,2.1,5.4c1.4,1.5,3.1,2.2,5.1,2.2
	c2,0,3.7-0.7,5.1-2.2c1.4-1.5,2.1-3.3,2.1-5.4C200.5,104.6,199.8,103,198.4,101.7z M226,94.1h6.6v14.4c0,2.1-0.2,3.8-0.5,5.2
	c-0.3,1.4-1.1,2.7-2.2,3.8c-1.9,1.9-4.7,2.8-8.5,2.8c-3.7,0-6.5-0.9-8.5-2.8c-1.1-1.1-1.9-2.4-2.2-3.8c-0.3-1.4-0.5-3.2-0.5-5.2
	V94.1h6.6v13.4c0,0.8,0,1.5,0.1,2c0,0.5,0.1,1.2,0.3,1.8c0.2,0.7,0.4,1.2,0.7,1.6c0.3,0.4,0.8,0.8,1.3,1c0.6,0.3,1.3,0.4,2.1,0.4
	s1.5-0.1,2.1-0.4c0.6-0.3,1-0.6,1.3-1c0.3-0.4,0.5-0.9,0.7-1.6c0.2-0.7,0.3-1.3,0.3-1.8c0-0.5,0.1-1.2,0.1-2V94.1z M236.8,119.6
	V94.1h6.6l12.2,15.6h0.1V94.1h6.6v25.5h-6.6L243.5,104h-0.1v15.6H236.8z M266.7,119.6V94.1h9.4c3.6,0,6.6,1.2,9.2,3.7
	s3.8,5.5,3.8,9.1c0,3.6-1.3,6.6-3.8,9.1c-2.5,2.5-5.6,3.7-9.2,3.7H266.7z M273.3,99.7V114h1.5c2.1,0,3.9-0.6,5.3-1.8
	c1.4-1.2,2.1-3,2.1-5.3c0-2.2-0.7-4-2-5.2c-1.3-1.3-3.1-1.9-5.3-1.9H273.3z M307.8,115.2h-9.1l-1.8,4.4h-7l9.8-25.5h7.2l9.6,25.5
	h-7.1L307.8,115.2z M306,110.1l-2.7-8.1h-0.1l-2.7,8.1H306z M326.7,99.7v19.9h-6.6V99.7h-5.5v-5.6h17.6v5.6H326.7z M341.2,94.1v25.5
	h-6.6V94.1H341.2z M351.5,94.9c2.1-1.1,4.4-1.6,6.9-1.6c2.5,0,4.8,0.5,6.9,1.6c2.1,1.1,3.9,2.7,5.2,4.7c1.3,2,2,4.3,2,6.8
	c0,4.1-1.3,7.5-4,10.1c-2.7,2.6-6,3.9-10.1,3.9c-4.1,0-7.5-1.3-10.1-3.9c-2.7-2.6-4-6-4-10.1c0-2.5,0.7-4.8,2-6.8
	C347.6,97.5,349.3,96,351.5,94.9z M363.5,101.7c-1.4-1.4-3.1-2-5.1-2c-2,0-3.7,0.7-5.1,2c-1.4,1.4-2.1,2.9-2.1,4.7
	c0,2.2,0.7,4,2.1,5.4c1.4,1.5,3.1,2.2,5.1,2.2c2,0,3.7-0.7,5.1-2.2c1.4-1.5,2.1-3.3,2.1-5.4C365.6,104.6,364.9,103,363.5,101.7z
	 M375.6,119.6V94.1h6.6l12.2,15.6h0.1V94.1h6.6v25.5h-6.6L382.3,104h-0.1v15.6H375.6z"/>
<circle fill="#039299" cx="71.5" cy="71.5" r="69"/>
<path fill="#FFFFFF" d="M130.4,80c-2.6,2.7-11.8,5.2-12.3,6.8c-6.4,19.6-24.8,33.8-46.6,33.8c-15.4,0-29.2-7.1-38.1-18.2
	c0,0-7.2,2.3-7.2,9.7c0,0.7-1,1-1.4,0.4c-7.6-12.5,3-17.1-0.2-26.8c-1.3-4.4-2-9.1-2-14c0-3.4,0.4-6.7,1-10c0-0.1,0.4-2.6,1.8-4.9
	c0.5-0.9,1.4-1.5,2.4-1.9c1.8-0.6,3.8-1.3,8.3-1.5c3.3-0.2,6.6,0.2,8.7,0.5c1.4,0.2,2.6,1,3.4,2.2c2,3.4,4.9,8.9,5.9,17.8
	c1,8.8,12.4,1.6,17.2,13.8c0.3,0.7-0.3,1.3-1,1.1c-5.6-1.7-8-1.5-11.7,1.4c0,0,3.8,8,13.3,9.5c9.5,1.4,28.9-3.5,38.9-16.7
	c-8-18.8,6.3-45.8,3.1-31.3c-2.1,9.8-0.3,21.8,5.9,25.6C125.9,81.1,133.1,77.3,130.4,80z M96.1,86.8c1.8-1.1,3.2-3,4.3-5.8
	c0.9,1.1,2,1.9,2.7,1.4c0.7-0.5,1.1,0.2,1.5-0.4c0.4-0.6,0.6-0.5,1-0.7c0.4-0.2,0.9-0.5,0-2.2c-0.8-1.6-1.4-1.5-4.2-2.8
	c0.3-2.8,0-5.8-1.1-8.6c-1.4-3.4-4.4-6.6-8.2-8.2c-0.9-0.7-1.8-1.4-2.2-2c-1.2-1.8,7.2-1.5,8.3-1.7c1.7-0.3-0.4-4.2-4.9-4.6
	c-4.5-0.4-9.6,1.6-7.9,7.1c-0.6,0-1.7,0.1-2.6,0.3l-1.9-2.2c0.2-1.9-0.7-3.7-1.7-3.9c-1.3-0.2-4.4-1.9-5.6-1.2
	c-1.1,0.7-1,4.2-1.4,5.4c-0.3,1,1,2.5,2.8,3.2l1.2,2.6c-0.6,0.7-1.2,1.6-1.4,2.1c-4.3-3.9-8.4-0.3-10,3.9c-1.6,4.2,1.1,7.7,2.1,6.3
	c0.7-0.9,4.1-8.4,5.2-6.6c0.4,0.6,0.6,1.7,0.9,2.8c-0.2,4.1,1.4,8.1,3.9,10.9c2,2.2,4.6,3.8,7.3,4.8c0,3-0.4,3.5,0.7,4.9
	c1.2,1.5,1.7,1.2,2.1,0.9c0.4-0.2,0.4-0.5,1.1-0.6c0.7-0.1,0.3-0.7,1.1-1.1c0.7-0.4,0.4-1.7-0.1-3C92,88.4,94.2,88,96.1,86.8z
	 M29.1,49.9c2.7-1.5,7.9-4.3,15.3-3.3c9.8,1.3,13.6,7.9,16.9,9.6c-0.1,0.4-0.2,0.7-0.3,1.1c-0.1,0.5-0.2,1-0.3,1.5
	c-0.2,1-0.4,2.1-0.5,3.1c-0.2,1-0.3,2-0.4,3c-0.2,1.9-0.4,3.7-0.6,5.3c-0.1,1.5-0.3,2.8-0.3,3.7c-0.1,0.9-0.1,1.4-0.1,1.4
	c0,0.1,0,0.1,0.1,0.1c0.1,0,0.1,0,0.1-0.1c0,0,0.1-0.5,0.2-1.4c0.2-0.9,0.4-2.2,0.7-3.7c0.3-1.5,0.6-3.3,1-5.2
	c0.2-0.9,0.4-1.9,0.6-2.9c0.2-1,0.5-2,0.7-2.9c0.1-0.5,0.3-1,0.5-1.5c0.1-0.4,0.3-0.8,0.4-1.2c3.5-1.1,6.5-15.2,35.4-15.2
	c4.9,0,9.3,1.3,11.8,2.3c0.6,0.2,1.2-0.5,0.8-1c-6-8.2-14.4-14.4-24.3-17.6c-0.6-0.2-1.2-0.5-1.7-1c-0.6-0.5-1-1.1-1.4-1.7
	c-0.2-0.4-0.4-0.8-0.4-1.3l-0.1-1.8c0-0.6-0.3-1.2-0.8-1.6c0,0,0,0-0.6-0.5c-0.9-0.7,1.5-6.3,0.3-7c-1.3-0.7-2.6,6.4-5.1,7.8
	l-0.3,0.1c-1.7,0.7-3.6,0.8-5.4,0.8c-1.8,0-3.7,0-5.4-0.8L65.5,18c-2.5-1.4,1.4-6.7,0.3-7.8s-4.5,6.2-4.5,6.2
	c-0.1,0.3-0.3,0.5-0.5,0.7L60,17.6c-0.5,0.4-0.8,1-0.8,1.6l-0.1,1.8c0,0.4-0.1,0.9-0.4,1.3c-0.9,1.4-2.2,2.6-3.8,3.1
	c-11.6,4.2-21.2,12.7-26.8,23.5C27.8,49.6,28.4,50.2,29.1,49.9z M71.5,139.1C34.3,139.1,4,108.8,4,71.5C4,34.3,34.3,4,71.5,4
	c37.2,0,67.5,30.3,67.5,67.5C139.1,108.8,108.8,139.1,71.5,139.1z M71.5,6C35.4,6,6,35.4,6,71.5c0,36.1,29.4,65.5,65.5,65.5
	s65.5-29.4,65.5-65.5C137.1,35.4,107.7,6,71.5,6z"/>
</svg>
