<svg xmlns="http://www.w3.org/2000/svg" viewBox="0 0 282.89 222.28"><path d="M77.39,151.31H70.65a1.19,1.19,0,0,0-1,.81l-5,19.54h-.23l-8.93-20.29a1,1,0,0,0-1-.64h-1a1.09,1.09,0,0,0-1,.64l-8.93,20.29h-.23l-5-19.54a1.19,1.19,0,0,0-1-.81H30.59a1,1,0,0,0-1,1.38l10.89,38.74a1.12,1.12,0,0,0,1,.81h.93a1.15,1.15,0,0,0,1-.64L53.88,168h.17L64.6,191.6a1.16,1.16,0,0,0,1,.64h.92a1.12,1.12,0,0,0,1-.81l10.89-38.74A1,1,0,0,0,77.39,151.31Z"/><path d="M85.69,151.31h6.92a1.09,1.09,0,0,1,1.09,1.09v38.16a1.1,1.1,0,0,1-1.1,1.1H85.69a1.1,1.1,0,0,1-1.1-1.1V152.4A1.1,1.1,0,0,1,85.69,151.31Z"/><path d="M126.38,183.19H112.66V152.4a1.13,1.13,0,0,0-1.09-1.09h-6.86a1.09,1.09,0,0,0-1.1,1.09v38.16a1.1,1.1,0,0,0,1.1,1.1h21.67a1.1,1.1,0,0,0,1.1-1.1v-6.28A1.09,1.09,0,0,0,126.38,183.19Z"/><path d="M148.17,151.31H134.1a1.08,1.08,0,0,0-1,1.09v38.16a1.08,1.08,0,0,0,1,1.1h14.07a20.18,20.18,0,1,0,0-40.35Zm-.58,31.82h-5.53V159.78h5.53c6.52,0,11.24,5.13,11.24,11.65S154.11,183.13,147.59,183.13Z"/><path d="M209.73,151.54a1.12,1.12,0,0,0-1-.81h-.92a1.08,1.08,0,0,0-1,.64l-11.24,31.76h-.29l-11.42-31.76a1.08,1.08,0,0,0-1-.64h-.93a1.12,1.12,0,0,0-1,.81l-7.43,38.74c-.17.8.17,1.38,1,1.38h2.3a1.12,1.12,0,0,0,1-.81l5-29.68h.22l10.73,30.43a1.16,1.16,0,0,0,1,.64h1a1.16,1.16,0,0,0,1-.64l10.61-30.43h.23l5.13,29.68a1.19,1.19,0,0,0,1,.81h2.3c.87,0,1.21-.58,1-1.38Z"/><path d="M249.84,155.17a1.1,1.1,0,0,0,1.1-1.09V152.4a1.1,1.1,0,0,0-1.1-1.09H227.13a1.1,1.1,0,0,0-1.1,1.09v38.16a1.1,1.1,0,0,0,1.1,1.1h22.71a1.1,1.1,0,0,0,1.1-1.1v-1.67a1.1,1.1,0,0,0-1.1-1.09H230.47V173.1H247a1.09,1.09,0,0,0,1.09-1.1v-1.67a1.13,1.13,0,0,0-1.09-1.09H230.47V155.17Z"/><path d="M178.58,106.88h.06a6.23,6.23,0,0,0,6.16-6.27c0-2.94-.11-20.53-.13-31,4.17,1.06,13.55,4.56,13.55,14.58,0,7.57.09,22.17.13,24.94a6.23,6.23,0,0,0,6.21,6.14h.05a6.25,6.25,0,0,0,6.17-6.27c0-2.51-.09-8.7-.12-15.7,0-16.31,0-28.1-22-35.12l-.07,0c-4-1.63-6.05-5.89-6.07-5.93a.53.53,0,0,0-.08-.15,30,30,0,0,0-2.15-3.77,33,33,0,0,0-25.05-14.13h-.14c-18.71-.4-32.81,13.4-33.49,32.86-.18,5.35-.1,9.57,0,13.3,0,.88,0,1.73,0,2.55A6.24,6.24,0,0,0,127.86,89h0a6.22,6.22,0,0,0,6.16-6.27c0-1.42,0-2.82-.06-4.24-.07-3.56-.15-7.24,0-11.62a21.21,21.21,0,0,1,10.64-18,20.46,20.46,0,0,1,10-2.41,18.33,18.33,0,0,1,9.17,3.25c5.4,3.85,8.48,10.75,8.46,18.93,0,8.36,0,17.86,0,23.57a1,1,0,0,0,0,.25c0,2.91,0,4.15.05,5.58,0,.74.05,1.54.06,2.66A6.24,6.24,0,0,0,178.58,106.88Z"/><path d="M176,33.53a29.6,29.6,0,0,1,8.56,8.34,29,29,0,0,1,2.08,3.68l.07.12a15.31,15.31,0,0,0,6.9,6.71l.17.08A45.42,45.42,0,0,1,204.05,57a1.22,1.22,0,0,0,.68.2,1.25,1.25,0,0,0,.74-.23,1.27,1.27,0,0,0,.55-1.31c-3.51-18.77-17.84-23.68-29.24-24.49a1.31,1.31,0,0,0-.79,2.41Z"/><path d="M102.84,115.72a29.65,29.65,0,0,1-8.59-8.36,28.17,28.17,0,0,1-2.09-3.7.41.41,0,0,0-.07-.11,15.24,15.24,0,0,0-6.92-6.74L85,96.73a45.48,45.48,0,0,1-10.31-4.51A1.37,1.37,0,0,0,74,92a1.32,1.32,0,0,0-.74.23,1.28,1.28,0,0,0-.55,1.32c3.52,18.83,17.9,23.76,29.34,24.57a1.31,1.31,0,0,0,.79-2.42Z"/><path d="M125.3,115.08h.8c18.33,0,32-13.69,32.69-32.87.19-5.34.11-9.56,0-13.28,0-.89,0-1.74-.05-2.57a6.23,6.23,0,0,0-6.21-6.14h0a6.23,6.23,0,0,0-6.17,6.27c0,1.42,0,2.82.07,4.24.07,3.56.14,7.24,0,11.62a21.24,21.24,0,0,1-10.65,18,20.32,20.32,0,0,1-10,2.41,18.3,18.3,0,0,1-9.16-3.25c-5.4-3.85-8.49-10.75-8.46-18.93,0-8.37,0-17.63,0-23.33a1.9,1.9,0,0,0,0-.25c0-2.74,0-3.43,0-4.3,0-.53-.05-1.13-.07-2.37a6.21,6.21,0,0,0-12.42.13c0,2.87.11,19,.13,29.17C91.58,78.57,82.2,75.07,82.2,65.05c0-7.6-.08-21.95-.12-24.7a6.24,6.24,0,0,0-6.21-6.14h-.06a6.23,6.23,0,0,0-6.16,6.27c0,2.51.09,12.32.12,19.32,0,16.31,0,24.24,22,31.26l.07,0c4,1.63,6,5.89,6.06,5.93a1,1,0,0,0,.09.15,31.26,31.26,0,0,0,2.14,3.77,33,33,0,0,0,25.06,14.13Z"/></svg>