<svg xmlns="http://www.w3.org/2000/svg" viewBox="0 0 279 223"><path d="M202.66,166.68h.09a10.13,10.13,0,0,0,10-10.2c0-4.78-.18-33.37-.21-50.37,6.79,1.72,22,7.41,22,23.7,0,12.32.14,36.06.2,40.56a10.14,10.14,0,0,0,10.1,10H245a10.12,10.12,0,0,0,10-10.19c0-4.08-.14-14.14-.19-25.53,0-26.52,0-45.7-35.74-57.11l-.11,0c-6.42-2.66-9.83-9.58-9.87-9.64a2,2,0,0,0-.14-.25,48.75,48.75,0,0,0-3.49-6.12c-8.95-13.28-24.18-21.88-40.74-23h-.23c-30.42-.64-53.34,21.8-54.44,53.45-.3,8.69-.18,15.56-.06,21.63,0,1.42,0,2.8.07,4.13a10.14,10.14,0,0,0,10.1,10h.09a10.12,10.12,0,0,0,10-10.2c0-2.3-.06-4.58-.11-6.89-.11-5.79-.23-11.78.07-18.89.53-12.63,7-23.58,17.31-29.28a33.36,33.36,0,0,1,16.26-3.91,29.78,29.78,0,0,1,14.91,5.28c8.78,6.26,13.8,17.49,13.76,30.79,0,13.59,0,29-.06,38.32a2.71,2.71,0,0,0,0,.4c0,4.74,0,6.75.08,9.08,0,1.21.08,2.5.1,4.32A10.14,10.14,0,0,0,202.66,166.68Z"/><path d="M198.44,47.41A48.14,48.14,0,0,1,212.37,61a45.29,45.29,0,0,1,3.38,6l.12.19c.67,1.3,4.36,8,11.22,10.91a.91.91,0,0,0,.26.13,73.27,73.27,0,0,1,16.72,7.32,2.16,2.16,0,0,0,1.12.32,2.13,2.13,0,0,0,1.2-.38,2.08,2.08,0,0,0,.89-2.14c-5.72-30.52-29-38.5-47.55-39.82a2.13,2.13,0,0,0-1.29,3.93Z"/><path d="M79.5,181.06a48.2,48.2,0,0,1-14-13.6,45.61,45.61,0,0,1-3.4-6l-.12-.19c-.67-1.3-4.38-8-11.26-10.95a.84.84,0,0,0-.27-.13,73.91,73.91,0,0,1-16.77-7.34,2.09,2.09,0,0,0-1.12-.33,2.16,2.16,0,0,0-1.21.38,2.12,2.12,0,0,0-.89,2.15c5.74,30.62,29.11,38.63,47.71,40a2.13,2.13,0,0,0,1.3-3.93Z"/><path d="M116,180h1.3c29.81,0,52.07-22.27,53.16-53.46.3-8.67.17-15.54.06-21.6,0-1.44-.06-2.82-.07-4.17a10.15,10.15,0,0,0-10.11-10h-.09a10.13,10.13,0,0,0-10,10.19c0,2.31.07,4.59.11,6.89.11,5.79.23,11.78-.07,18.9-.52,12.63-7,23.57-17.31,29.28A33.2,33.2,0,0,1,116.72,160a29.87,29.87,0,0,1-14.9-5.28C93,148.43,88,137.21,88.06,123.91c0-13.6,0-28.66,0-37.94a1.72,1.72,0,0,0,0-.39c0-4.47,0-5.58-.06-7,0-.86-.09-1.84-.12-3.85a10.11,10.11,0,0,0-20.21.21c0,4.66.19,30.83.22,47.43-6.79-1.73-22.05-7.42-22.05-23.7C46,86.3,45.8,63,45.74,58.5a10.14,10.14,0,0,0-10.11-10h-.09a10.12,10.12,0,0,0-10,10.19c0,4.07.15,20,.2,31.41,0,26.52,0,39.42,35.74,50.83l.11.05c6.42,2.66,9.83,9.59,9.86,9.65a2,2,0,0,0,.14.25A49.47,49.47,0,0,0,75.06,157c9,13.28,24.19,21.87,40.74,23Z"/></svg>